<svg xmlns="http://www.w3.org/2000/svg" viewBox="0 0 760 505" role="img" aria-label="Five Steps to Read Your Ardra Placement">
  <defs>
    <linearGradient id="ardranakshatra0en-panel" x1="0" y1="0" x2="0.4" y2="1">
      <stop offset="0" stop-color="#1a1433"/><stop offset="0.55" stop-color="#120e26"/><stop offset="1" stop-color="#09081a"/>
    </linearGradient>
    <radialGradient id="ardranakshatra0en-foil" cx="0.42" cy="0.34" r="0.75">
      <stop offset="0" stop-color="#fbf0d2"/><stop offset="0.5" stop-color="#e8c882"/><stop offset="1" stop-color="#b8923f"/>
    </radialGradient>
    <radialGradient id="ardranakshatra0en-glow" cx="0.5" cy="0.5" r="0.5">
      <stop offset="0" stop-color="#f6e6bf"/><stop offset="1" stop-color="#f6e6bf" stop-opacity="0"/>
    </radialGradient>
    <radialGradient id="ardranakshatra0en-neb1" cx="0.5" cy="0.5" r="0.5">
      <stop offset="0" stop-color="#6f4bb0" stop-opacity="0.28"/><stop offset="1" stop-color="#6f4bb0" stop-opacity="0"/>
    </radialGradient>
    <radialGradient id="ardranakshatra0en-neb2" cx="0.5" cy="0.5" r="0.5">
      <stop offset="0" stop-color="#d4af6a" stop-opacity="0.16"/><stop offset="1" stop-color="#d4af6a" stop-opacity="0"/>
    </radialGradient>
    <linearGradient id="ardranakshatra0en-rule" x1="0" y1="0" x2="1" y2="0">
      <stop offset="0" stop-color="#d4af6a" stop-opacity="0"/><stop offset="0.5" stop-color="#d4af6a" stop-opacity="0.6"/><stop offset="1" stop-color="#d4af6a" stop-opacity="0"/>
    </linearGradient>
  </defs>
  <rect x="1.5" y="1.5" width="757" height="502" rx="22" fill="url(#ardranakshatra0en-panel)"/>
  <ellipse cx="198" cy="121" rx="380" ry="172" fill="url(#ardranakshatra0en-neb1)"/>
  <ellipse cx="623" cy="404" rx="334" ry="162" fill="url(#ardranakshatra0en-neb2)"/>
  <circle cx="252.8" cy="181.0" r="0.72" fill="#cfc8ea" opacity="0.49"/><circle cx="82.3" cy="115.4" r="0.83" fill="#cfc8ea" opacity="0.42"/><circle cx="532.4" cy="347.3" r="1.60" fill="#cfc8ea" opacity="0.20"/><circle cx="554.7" cy="211.3" r="1.26" fill="#cfc8ea" opacity="0.50"/><circle cx="386.8" cy="273.1" r="1.30" fill="#cfc8ea" opacity="0.45"/><circle cx="105.0" cy="146.0" r="0.74" fill="#cfc8ea" opacity="0.19"/><circle cx="143.0" cy="239.7" r="1.34" fill="#cfc8ea" opacity="0.22"/><circle cx="205.2" cy="29.8" r="1.21" fill="#cfc8ea" opacity="0.38"/><circle cx="318.7" cy="327.8" r="1.27" fill="#cfc8ea" opacity="0.51"/><circle cx="611.4" cy="325.1" r="0.47" fill="#cfc8ea" opacity="0.30"/><circle cx="575.3" cy="170.9" r="0.57" fill="#cfc8ea" opacity="0.19"/><circle cx="485.1" cy="480.6" r="0.44" fill="#cfc8ea" opacity="0.14"/><circle cx="241.2" cy="56.8" r="1.27" fill="#cfc8ea" opacity="0.21"/><circle cx="289.1" cy="308.7" r="1.10" fill="#cfc8ea" opacity="0.43"/><circle cx="121.4" cy="111.2" r="1.11" fill="#cfc8ea" opacity="0.49"/><circle cx="531.2" cy="265.1" r="0.99" fill="#cfc8ea" opacity="0.48"/><circle cx="156.6" cy="269.9" r="0.73" fill="#cfc8ea" opacity="0.47"/><circle cx="314.1" cy="271.5" r="0.60" fill="#cfc8ea" opacity="0.14"/><circle cx="649.1" cy="321.5" r="1.63" fill="#cfc8ea" opacity="0.18"/><circle cx="470.2" cy="353.1" r="1.45" fill="#cfc8ea" opacity="0.22"/><circle cx="289.5" cy="113.9" r="0.46" fill="#cfc8ea" opacity="0.37"/><circle cx="512.3" cy="83.3" r="1.60" fill="#cfc8ea" opacity="0.31"/><circle cx="286.0" cy="145.7" r="1.26" fill="#cfc8ea" opacity="0.30"/><circle cx="55.5" cy="23.1" r="0.76" fill="#cfc8ea" opacity="0.50"/><circle cx="269.9" cy="457.7" r="0.77" fill="#cfc8ea" opacity="0.47"/><circle cx="382.8" cy="113.9" r="1.59" fill="#cfc8ea" opacity="0.42"/><circle cx="380.7" cy="23.2" r="1.15" fill="#cfc8ea" opacity="0.44"/><circle cx="355.3" cy="306.3" r="1.55" fill="#cfc8ea" opacity="0.26"/><circle cx="179.8" cy="264.6" r="0.92" fill="#cfc8ea" opacity="0.16"/><circle cx="487.2" cy="94.9" r="1.34" fill="#cfc8ea" opacity="0.16"/><circle cx="120.4" cy="354.3" r="1.44" fill="#cfc8ea" opacity="0.16"/><circle cx="407.2" cy="20.1" r="0.72" fill="#cfc8ea" opacity="0.21"/><circle cx="117.3" cy="327.6" r="0.50" fill="#cfc8ea" opacity="0.17"/><circle cx="628.7" cy="286.6" r="1.27" fill="#cfc8ea" opacity="0.46"/><circle cx="204.4" cy="112.0" r="0.42" fill="#cfc8ea" opacity="0.39"/><circle cx="75.0" cy="482.8" r="0.99" fill="#cfc8ea" opacity="0.30"/><circle cx="267.1" cy="488.1" r="1.20" fill="#cfc8ea" opacity="0.51"/><circle cx="259.3" cy="175.2" r="1.55" fill="#cfc8ea" opacity="0.22"/><circle cx="361.4" cy="139.5" r="1.61" fill="#cfc8ea" opacity="0.15"/><circle cx="655.0" cy="489.2" r="0.75" fill="#cfc8ea" opacity="0.31"/><circle cx="707.5" cy="144.2" r="1.47" fill="#cfc8ea" opacity="0.14"/><circle cx="115.8" cy="151.3" r="0.84" fill="#cfc8ea" opacity="0.20"/><circle cx="701.6" cy="316.1" r="1.10" fill="#cfc8ea" opacity="0.52"/><path d="M 118.21907867118716 277.3 L 118.8 280.6 L 122.1 281.18725309637375 L 118.8 281.8 L 118.21907867118716 285.1 L 117.6 281.8 L 114.3 281.18725309637375 L 117.6 280.6 Z" fill="#f6e6bf" opacity="0.5656547637889162"/><path d="M 177.41249376907945 240.2 L 178.0 243.4 L 181.2 244.01389559195377 L 178.0 244.6 L 177.41249376907945 247.8 L 176.8 244.6 L 173.6 244.01389559195377 L 176.8 243.4 Z" fill="#f6e6bf" opacity="0.6846129846991971"/><path d="M 742.0024236403406 442.8 L 742.6 445.9 L 745.7 446.4892312467564 L 742.6 447.1 L 742.0024236403406 450.1 L 741.4 447.1 L 738.4 446.4892312467564 L 741.4 445.9 Z" fill="#f6e6bf" opacity="0.6134289838606491"/><path d="M 380.43932108953595 113.2 L 381.0 116.2 L 384.0 116.73455908917822 L 381.0 117.3 L 380.43932108953595 120.2 L 379.9 117.3 L 376.9 116.73455908917822 L 379.9 116.2 Z" fill="#f6e6bf" opacity="0.5582092094467953"/><path d="M 149.8908935599029 68.1 L 150.4 70.8 L 153.1 71.30570649844594 L 150.4 71.8 L 149.8908935599029 74.5 L 149.4 71.8 L 146.7 71.30570649844594 L 149.4 70.8 Z" fill="#f6e6bf" opacity="0.7699953360715881"/><path d="M 318.7 327.8 L 121.4 111.2 L 531.2 265.1 L 512.3 83.3 L 269.9 457.7" fill="none" stroke="#d4af6a" stroke-width="0.6" opacity="0.12"/>
  <rect x="1.5" y="1.5" width="757" height="502" rx="22" fill="none" stroke="#d4af6a" stroke-opacity="0.34" stroke-width="1.2"/>
  <rect x="7" y="7" width="746" height="491" rx="17" fill="none" stroke="#d4af6a" stroke-opacity="0.12" stroke-width="0.8"/>
  <path d="M 16 12.8 L 16.5 15.5 L 19.2 16 L 16.5 16.5 L 16 19.2 L 15.5 16.5 L 12.8 16 L 15.5 15.5 Z" fill="#d4af6a" opacity="0.4"/><path d="M 744 12.8 L 744.5 15.5 L 747.2 16 L 744.5 16.5 L 744 19.2 L 743.5 16.5 L 740.8 16 L 743.5 15.5 Z" fill="#d4af6a" opacity="0.4"/><path d="M 16 485.8 L 16.5 488.5 L 19.2 489 L 16.5 489.5 L 16 492.2 L 15.5 489.5 L 12.8 489 L 15.5 488.5 Z" fill="#d4af6a" opacity="0.4"/><path d="M 744 485.8 L 744.5 488.5 L 747.2 489 L 744.5 489.5 L 744 492.2 L 743.5 489.5 L 740.8 489 L 743.5 488.5 Z" fill="#d4af6a" opacity="0.4"/>
  <text x="380" y="46" text-anchor="middle" font-family="Georgia, 'Times New Roman', serif" font-size="22" letter-spacing="0.4" fill="#efeaf8">Five Steps to Read Your Ardra Placement</text>
  <line x1="230" y1="67" x2="368" y2="67" stroke="url(#ardranakshatra0en-rule)" stroke-width="1"/>
  <line x1="392" y1="67" x2="530" y2="67" stroke="url(#ardranakshatra0en-rule)" stroke-width="1"/>
  <path d="M 380 62.0 L 380.8 66.2 L 385.0 67 L 380.8 67.8 L 380 72.0 L 379.2 67.8 L 375.0 67 L 379.2 66.2 Z" fill="#d4af6a" opacity="0.85"/>
  <line x1="76" y1="121" x2="76" y2="415" stroke="#d4af6a" stroke-opacity="0.28" stroke-width="1.5"/>
  <circle cx="76" cy="121" r="20.0" fill="url(#ardranakshatra0en-glow)" opacity="0.5"/>
    <circle cx="76" cy="121" r="15" fill="url(#ardranakshatra0en-foil)" stroke="#f6e6bf" stroke-opacity="0.5" stroke-width="0.8"/>
    <circle cx="76" cy="116.8" r="9.0" fill="#ffffff" opacity="0.10"/>
    <text x="76" y="125.5" text-anchor="middle" font-family="Georgia, 'Times New Roman', serif" font-size="13" font-weight="700" fill="#3a2c12">1</text>
  <text x="116" y="117.0" font-family="Georgia, 'Times New Roman', serif" font-size="22" letter-spacing="0.3" fill="#f3effb">Confirm the Span</text>
  <text x="116" y="139.0" font-family="Helvetica, Arial, sans-serif" font-size="15.5" fill="#a59cc0">Verify placement falls between 6°40′ and 20°00′ sidereal Gemini — all within</text>
  <text x="116" y="157.0" font-family="Helvetica, Arial, sans-serif" font-size="15.5" fill="#a59cc0">one sign</text>
  <circle cx="76" cy="199" r="20.0" fill="url(#ardranakshatra0en-glow)" opacity="0.5"/>
    <circle cx="76" cy="199" r="15" fill="url(#ardranakshatra0en-foil)" stroke="#f6e6bf" stroke-opacity="0.5" stroke-width="0.8"/>
    <circle cx="76" cy="194.8" r="9.0" fill="#ffffff" opacity="0.10"/>
    <text x="76" y="203.5" text-anchor="middle" font-family="Georgia, 'Times New Roman', serif" font-size="13" font-weight="700" fill="#3a2c12">2</text>
  <text x="116" y="195.0" font-family="Georgia, 'Times New Roman', serif" font-size="22" letter-spacing="0.3" fill="#f3effb">Identify the Pada</text>
  <text x="116" y="217.0" font-family="Helvetica, Arial, sans-serif" font-size="15.5" fill="#a59cc0">Note which quarter (pada) the degree falls in — each shades Rahu's intensity</text>
  <text x="116" y="235.0" font-family="Helvetica, Arial, sans-serif" font-size="15.5" fill="#a59cc0">differently</text>
  <circle cx="76" cy="277" r="20.0" fill="url(#ardranakshatra0en-glow)" opacity="0.5"/>
    <circle cx="76" cy="277" r="15" fill="url(#ardranakshatra0en-foil)" stroke="#f6e6bf" stroke-opacity="0.5" stroke-width="0.8"/>
    <circle cx="76" cy="272.8" r="9.0" fill="#ffffff" opacity="0.10"/>
    <text x="76" y="281.5" text-anchor="middle" font-family="Georgia, 'Times New Roman', serif" font-size="13" font-weight="700" fill="#3a2c12">3</text>
  <text x="116" y="273.0" font-family="Georgia, 'Times New Roman', serif" font-size="22" letter-spacing="0.3" fill="#f3effb">Track the Cycle</text>
  <text x="116" y="295.0" font-family="Helvetica, Arial, sans-serif" font-size="15.5" fill="#a59cc0">Watch for storm-to-renewal patterns: periods of pressure followed by a marked</text>
  <text x="116" y="313.0" font-family="Helvetica, Arial, sans-serif" font-size="15.5" fill="#a59cc0">breakthrough</text>
  <circle cx="76" cy="355" r="20.0" fill="url(#ardranakshatra0en-glow)" opacity="0.5"/>
    <circle cx="76" cy="355" r="15" fill="url(#ardranakshatra0en-foil)" stroke="#f6e6bf" stroke-opacity="0.5" stroke-width="0.8"/>
    <circle cx="76" cy="350.8" r="9.0" fill="#ffffff" opacity="0.10"/>
    <text x="76" y="359.5" text-anchor="middle" font-family="Georgia, 'Times New Roman', serif" font-size="13" font-weight="700" fill="#3a2c12">4</text>
  <text x="116" y="351.0" font-family="Georgia, 'Times New Roman', serif" font-size="22" letter-spacing="0.3" fill="#f3effb">Read Intensity as Engine</text>
  <text x="116" y="373.0" font-family="Helvetica, Arial, sans-serif" font-size="15.5" fill="#a59cc0">The diamond forms under pressure — intensity is the design, not the malfunction</text>
  <circle cx="76" cy="415" r="20.0" fill="url(#ardranakshatra0en-glow)" opacity="0.5"/>
    <circle cx="76" cy="415" r="15" fill="url(#ardranakshatra0en-foil)" stroke="#f6e6bf" stroke-opacity="0.5" stroke-width="0.8"/>
    <circle cx="76" cy="410.8" r="9.0" fill="#ffffff" opacity="0.10"/>
    <text x="76" y="419.5" text-anchor="middle" font-family="Georgia, 'Times New Roman', serif" font-size="13" font-weight="700" fill="#3a2c12">5</text>
  <text x="116" y="411.0" font-family="Georgia, 'Times New Roman', serif" font-size="22" letter-spacing="0.3" fill="#f3effb">Credit Rahu's Amplification</text>
  <text x="116" y="433.0" font-family="Helvetica, Arial, sans-serif" font-size="15.5" fill="#a59cc0">The same Gemini mind runs hotter and wider here — source of both the overwhelm</text>
  <text x="116" y="451.0" font-family="Helvetica, Arial, sans-serif" font-size="15.5" fill="#a59cc0">and the insight</text>
  <path d="M 202.22749999999988 476.4 L 202.6 478.6 L 204.8 479 L 202.6 479.4 L 202.22749999999988 481.6 L 201.8 479.4 L 199.6 479 L 201.8 478.6 Z" fill="#d4af6a" opacity="0.5"/>
  <text x="380" y="483" text-anchor="middle" font-family="Georgia, 'Times New Roman', serif" font-style="italic" font-size="11.5" fill="#7b738f">A self-reflection framework — tendencies, not predictions</text>
  <path d="M 557.7725000000002 476.4 L 558.2 478.6 L 560.4 479 L 558.2 479.4 L 557.7725000000002 481.6 L 557.4 479.4 L 555.2 479 L 557.4 478.6 Z" fill="#d4af6a" opacity="0.5"/>
</svg>
