<svg xmlns="http://www.w3.org/2000/svg" viewBox="0 0 760 579" role="img" aria-label="Ardra Misreadings vs. Accurate Interpretations">
  <defs>
    <linearGradient id="ardranakshatra1en-panel" x1="0" y1="0" x2="0.4" y2="1">
      <stop offset="0" stop-color="#1a1433"/><stop offset="0.55" stop-color="#120e26"/><stop offset="1" stop-color="#09081a"/>
    </linearGradient>
    <radialGradient id="ardranakshatra1en-foil" cx="0.42" cy="0.34" r="0.75">
      <stop offset="0" stop-color="#fbf0d2"/><stop offset="0.5" stop-color="#e8c882"/><stop offset="1" stop-color="#b8923f"/>
    </radialGradient>
    <radialGradient id="ardranakshatra1en-glow" cx="0.5" cy="0.5" r="0.5">
      <stop offset="0" stop-color="#f6e6bf"/><stop offset="1" stop-color="#f6e6bf" stop-opacity="0"/>
    </radialGradient>
    <radialGradient id="ardranakshatra1en-neb1" cx="0.5" cy="0.5" r="0.5">
      <stop offset="0" stop-color="#6f4bb0" stop-opacity="0.28"/><stop offset="1" stop-color="#6f4bb0" stop-opacity="0"/>
    </radialGradient>
    <radialGradient id="ardranakshatra1en-neb2" cx="0.5" cy="0.5" r="0.5">
      <stop offset="0" stop-color="#d4af6a" stop-opacity="0.16"/><stop offset="1" stop-color="#d4af6a" stop-opacity="0"/>
    </radialGradient>
    <linearGradient id="ardranakshatra1en-rule" x1="0" y1="0" x2="1" y2="0">
      <stop offset="0" stop-color="#d4af6a" stop-opacity="0"/><stop offset="0.5" stop-color="#d4af6a" stop-opacity="0.6"/><stop offset="1" stop-color="#d4af6a" stop-opacity="0"/>
    </linearGradient>
  </defs>
  <rect x="1.5" y="1.5" width="757" height="576" rx="22" fill="url(#ardranakshatra1en-panel)"/>
  <ellipse cx="198" cy="139" rx="380" ry="197" fill="url(#ardranakshatra1en-neb1)"/>
  <ellipse cx="623" cy="463" rx="334" ry="185" fill="url(#ardranakshatra1en-neb2)"/>
  <circle cx="529.1" cy="401.1" r="1.37" fill="#cfc8ea" opacity="0.52"/><circle cx="634.3" cy="476.7" r="1.14" fill="#cfc8ea" opacity="0.45"/><circle cx="673.0" cy="389.2" r="1.69" fill="#cfc8ea" opacity="0.53"/><circle cx="501.0" cy="250.5" r="1.35" fill="#cfc8ea" opacity="0.46"/><circle cx="329.7" cy="479.9" r="0.69" fill="#cfc8ea" opacity="0.50"/><circle cx="301.7" cy="548.1" r="0.87" fill="#cfc8ea" opacity="0.26"/><circle cx="604.7" cy="457.3" r="1.24" fill="#cfc8ea" opacity="0.51"/><circle cx="56.3" cy="488.7" r="1.56" fill="#cfc8ea" opacity="0.21"/><circle cx="292.5" cy="216.4" r="0.56" fill="#cfc8ea" opacity="0.18"/><circle cx="399.2" cy="528.1" r="1.51" fill="#cfc8ea" opacity="0.46"/><circle cx="444.4" cy="335.7" r="1.25" fill="#cfc8ea" opacity="0.20"/><circle cx="84.9" cy="543.4" r="0.83" fill="#cfc8ea" opacity="0.34"/><circle cx="264.8" cy="265.4" r="0.73" fill="#cfc8ea" opacity="0.26"/><circle cx="441.0" cy="333.4" r="1.07" fill="#cfc8ea" opacity="0.28"/><circle cx="630.0" cy="365.4" r="0.42" fill="#cfc8ea" opacity="0.30"/><circle cx="658.7" cy="400.4" r="0.62" fill="#cfc8ea" opacity="0.31"/><circle cx="292.3" cy="86.5" r="1.56" fill="#cfc8ea" opacity="0.45"/><circle cx="24.3" cy="22.1" r="0.89" fill="#cfc8ea" opacity="0.26"/><circle cx="226.0" cy="303.1" r="1.26" fill="#cfc8ea" opacity="0.25"/><circle cx="626.5" cy="104.6" r="0.58" fill="#cfc8ea" opacity="0.33"/><circle cx="167.6" cy="509.7" r="1.11" fill="#cfc8ea" opacity="0.19"/><circle cx="371.9" cy="49.6" r="1.47" fill="#cfc8ea" opacity="0.50"/><circle cx="242.2" cy="404.2" r="0.80" fill="#cfc8ea" opacity="0.37"/><circle cx="118.7" cy="427.9" r="1.46" fill="#cfc8ea" opacity="0.34"/><circle cx="219.2" cy="416.4" r="1.06" fill="#cfc8ea" opacity="0.52"/><circle cx="475.4" cy="494.7" r="1.51" fill="#cfc8ea" opacity="0.37"/><circle cx="215.8" cy="27.2" r="1.28" fill="#cfc8ea" opacity="0.25"/><circle cx="50.3" cy="483.1" r="1.46" fill="#cfc8ea" opacity="0.43"/><circle cx="498.9" cy="208.6" r="1.35" fill="#cfc8ea" opacity="0.54"/><circle cx="410.8" cy="375.6" r="1.56" fill="#cfc8ea" opacity="0.43"/><circle cx="30.8" cy="114.4" r="0.60" fill="#cfc8ea" opacity="0.23"/><circle cx="613.6" cy="130.9" r="1.39" fill="#cfc8ea" opacity="0.12"/><circle cx="128.7" cy="450.6" r="0.85" fill="#cfc8ea" opacity="0.53"/><circle cx="288.9" cy="532.2" r="1.21" fill="#cfc8ea" opacity="0.21"/><circle cx="728.1" cy="505.0" r="1.37" fill="#cfc8ea" opacity="0.18"/><circle cx="196.7" cy="183.8" r="0.64" fill="#cfc8ea" opacity="0.30"/><circle cx="221.9" cy="309.2" r="1.35" fill="#cfc8ea" opacity="0.51"/><circle cx="421.0" cy="371.9" r="1.23" fill="#cfc8ea" opacity="0.33"/><circle cx="455.1" cy="379.1" r="1.68" fill="#cfc8ea" opacity="0.48"/><circle cx="29.5" cy="205.1" r="1.07" fill="#cfc8ea" opacity="0.37"/><circle cx="729.8" cy="550.6" r="0.44" fill="#cfc8ea" opacity="0.38"/><circle cx="363.1" cy="558.3" r="1.39" fill="#cfc8ea" opacity="0.17"/><circle cx="285.8" cy="280.6" r="0.77" fill="#cfc8ea" opacity="0.43"/><circle cx="171.3" cy="504.4" r="1.65" fill="#cfc8ea" opacity="0.34"/><circle cx="150.1" cy="454.5" r="1.08" fill="#cfc8ea" opacity="0.34"/><circle cx="578.1" cy="551.3" r="0.72" fill="#cfc8ea" opacity="0.45"/><circle cx="235.4" cy="420.2" r="1.23" fill="#cfc8ea" opacity="0.51"/><circle cx="604.8" cy="81.3" r="1.58" fill="#cfc8ea" opacity="0.14"/><circle cx="592.0" cy="344.7" r="0.56" fill="#cfc8ea" opacity="0.51"/><path d="M 331.81070565618575 25.2 L 332.3 27.7 L 334.8 28.145749439951032 L 332.3 28.6 L 331.81070565618575 31.1 L 331.3 28.6 L 328.8 28.145749439951032 L 331.3 27.7 Z" fill="#f6e6bf" opacity="0.5919143405742944"/><path d="M 230.91729439981282 427.1 L 231.3 429.3 L 233.5 429.76154024200514 L 231.3 430.2 L 230.91729439981282 432.4 L 230.5 430.2 L 228.3 429.76154024200514 L 230.5 429.3 Z" fill="#f6e6bf" opacity="0.7672852654010057"/><path d="M 203.36778894998133 336.0 L 203.8 338.1 L 205.8 338.51436538575217 L 203.8 338.9 L 203.36778894998133 341.0 L 203.0 338.9 L 200.9 338.51436538575217 L 203.0 338.1 Z" fill="#f6e6bf" opacity="0.5849800641648472"/><path d="M 45.42183858342469 215.2 L 45.9 217.7 L 48.3 218.14668011525646 L 45.9 218.6 L 45.42183858342469 221.0 L 45.0 218.6 L 42.5 218.14668011525646 L 45.0 217.7 Z" fill="#f6e6bf" opacity="0.6049293236806988"/><path d="M 630.7232173327357 113.2 L 631.2 115.8 L 633.9 116.31968280812725 L 631.2 116.8 L 630.7232173327357 119.4 L 630.2 116.8 L 627.6 116.31968280812725 L 630.2 115.8 Z" fill="#f6e6bf" opacity="0.5956875168718397"/><path d="M 56.3 488.7 L 399.2 528.1 L 167.6 509.7 L 728.1 505.0 L 592.0 344.7" fill="none" stroke="#d4af6a" stroke-width="0.6" opacity="0.12"/>
  <rect x="1.5" y="1.5" width="757" height="576" rx="22" fill="none" stroke="#d4af6a" stroke-opacity="0.34" stroke-width="1.2"/>
  <rect x="7" y="7" width="746" height="565" rx="17" fill="none" stroke="#d4af6a" stroke-opacity="0.12" stroke-width="0.8"/>
  <path d="M 16 12.8 L 16.5 15.5 L 19.2 16 L 16.5 16.5 L 16 19.2 L 15.5 16.5 L 12.8 16 L 15.5 15.5 Z" fill="#d4af6a" opacity="0.4"/><path d="M 744 12.8 L 744.5 15.5 L 747.2 16 L 744.5 16.5 L 744 19.2 L 743.5 16.5 L 740.8 16 L 743.5 15.5 Z" fill="#d4af6a" opacity="0.4"/><path d="M 16 559.8 L 16.5 562.5 L 19.2 563 L 16.5 563.5 L 16 566.2 L 15.5 563.5 L 12.8 563 L 15.5 562.5 Z" fill="#d4af6a" opacity="0.4"/><path d="M 744 559.8 L 744.5 562.5 L 747.2 563 L 744.5 563.5 L 744 566.2 L 743.5 563.5 L 740.8 563 L 743.5 562.5 Z" fill="#d4af6a" opacity="0.4"/>
  <text x="380" y="46" text-anchor="middle" font-family="Georgia, 'Times New Roman', serif" font-size="22" letter-spacing="0.4" fill="#efeaf8">Ardra Misreadings vs. Accurate Interpretations</text>
  <line x1="230" y1="67" x2="368" y2="67" stroke="url(#ardranakshatra1en-rule)" stroke-width="1"/>
  <line x1="392" y1="67" x2="530" y2="67" stroke="url(#ardranakshatra1en-rule)" stroke-width="1"/>
  <path d="M 380 62.0 L 380.8 66.2 L 385.0 67 L 380.8 67.8 L 380 72.0 L 379.2 67.8 L 375.0 67 L 379.2 66.2 Z" fill="#d4af6a" opacity="0.85"/>

  <rect x="46" y="99" width="668" height="172.0" rx="14" fill="#1d1740" fill-opacity="0.5" stroke="#d4af6a" stroke-opacity="0.22" stroke-width="0.9"/>
  <rect x="46" y="99" width="668" height="3.5" rx="1.8" fill="#d4af6a" fill-opacity="0.6"/>
  <path d="M 380 97.1 L 380.5 100.0 L 383.4 100.5 L 380.5 101.0 L 380 103.9 L 379.5 101.0 L 376.6 100.5 L 379.5 100.0 Z" fill="#f6e6bf" opacity="0.7"/>
  <text x="380" y="128.0" text-anchor="middle" font-family="Georgia, 'Times New Roman', serif" font-size="21" font-weight="700" letter-spacing="0.3" fill="#f3effb">Common Misreading</text>
  <path d="M 70 157.8 L 70.5 160.5 L 73.2 161 L 70.5 161.5 L 70 164.2 L 69.5 161.5 L 66.8 161 L 69.5 160.5 Z" fill="#d4af6a" opacity="0.8"/>
  <text x="84" y="166.0" font-family="Helvetica, Arial, sans-serif" font-size="16" fill="#a59cc0">Teardrop means grief</text>
  <path d="M 70 186.8 L 70.5 189.5 L 73.2 190 L 70.5 190.5 L 70 193.2 L 69.5 190.5 L 66.8 190 L 69.5 189.5 Z" fill="#d4af6a" opacity="0.8"/>
  <text x="84" y="195.0" font-family="Helvetica, Arial, sans-serif" font-size="16" fill="#a59cc0">Rahu rulership makes Ardra unlucky</text>
  <path d="M 70 215.8 L 70.5 218.5 L 73.2 219 L 70.5 219.5 L 70 222.2 L 69.5 219.5 L 66.8 219 L 69.5 218.5 Z" fill="#d4af6a" opacity="0.8"/>
  <text x="84" y="224.0" font-family="Helvetica, Arial, sans-serif" font-size="16" fill="#a59cc0">Rudra is only destructive</text>
  <path d="M 70 244.8 L 70.5 247.5 L 73.2 248 L 70.5 248.5 L 70 251.2 L 69.5 248.5 L 66.8 248 L 69.5 247.5 Z" fill="#d4af6a" opacity="0.8"/>
  <text x="84" y="253.0" font-family="Helvetica, Arial, sans-serif" font-size="16" fill="#a59cc0">Intensity is a problem to fix</text>
  <path d="M 380 279.5 L 380.7 283.3 L 384.5 284 L 380.7 284.7 L 380 288.5 L 379.3 284.7 L 375.5 284 L 379.3 283.3 Z" fill="#d4af6a" opacity="0.65"/>
  <rect x="46" y="297" width="668" height="248.0" rx="14" fill="#1d1740" fill-opacity="0.5" stroke="#d4af6a" stroke-opacity="0.22" stroke-width="0.9"/>
  <rect x="46" y="297" width="668" height="3.5" rx="1.8" fill="#d4af6a" fill-opacity="0.6"/>
  <path d="M 380 295.1 L 380.5 298.0 L 383.4 298.5 L 380.5 299.0 L 380 301.9 L 379.5 299.0 L 376.6 298.5 L 379.5 298.0 Z" fill="#f6e6bf" opacity="0.7"/>
  <text x="380" y="326.0" text-anchor="middle" font-family="Georgia, 'Times New Roman', serif" font-size="21" font-weight="700" letter-spacing="0.3" fill="#f3effb">Accurate Interpretation</text>
  <path d="M 70 355.8 L 70.5 358.5 L 73.2 359 L 70.5 359.5 L 70 362.2 L 69.5 359.5 L 66.8 359 L 69.5 358.5 Z" fill="#d4af6a" opacity="0.8"/>
  <text x="84" y="364.0" font-family="Helvetica, Arial, sans-serif" font-size="16" fill="#a59cc0">Teardrop is Rudra's cleansing rain — the washing-clean phase of a renewal</text>
  <text x="84" y="383.0" font-family="Helvetica, Arial, sans-serif" font-size="16" fill="#a59cc0">cycle</text>
  <path d="M 70 403.8 L 70.5 406.5 L 73.2 407 L 70.5 407.5 L 70 410.2 L 69.5 407.5 L 66.8 407 L 69.5 406.5 Z" fill="#d4af6a" opacity="0.8"/>
  <text x="84" y="412.0" font-family="Helvetica, Arial, sans-serif" font-size="16" fill="#a59cc0">Rahu amplifies and intensifies; overwhelm and insight share the same</text>
  <text x="84" y="431.0" font-family="Helvetica, Arial, sans-serif" font-size="16" fill="#a59cc0">amplifying source</text>
  <path d="M 70 451.8 L 70.5 454.5 L 73.2 455 L 70.5 455.5 L 70 458.2 L 69.5 455.5 L 66.8 455 L 69.5 454.5 Z" fill="#d4af6a" opacity="0.8"/>
  <text x="84" y="460.0" font-family="Helvetica, Arial, sans-serif" font-size="16" fill="#a59cc0">Rudra dissolves the stagnant so renewal can follow — functional, not</text>
  <text x="84" y="479.0" font-family="Helvetica, Arial, sans-serif" font-size="16" fill="#a59cc0">purposeless destruction</text>
  <path d="M 70 499.8 L 70.5 502.5 L 73.2 503 L 70.5 503.5 L 70 506.2 L 69.5 503.5 L 66.8 503 L 69.5 502.5 Z" fill="#d4af6a" opacity="0.8"/>
  <text x="84" y="508.0" font-family="Helvetica, Arial, sans-serif" font-size="16" fill="#a59cc0">Intensity is the gateway; the cycle reaches clarity through pressure, not</text>
  <text x="84" y="527.0" font-family="Helvetica, Arial, sans-serif" font-size="16" fill="#a59cc0">around it</text>
  <path d="M 202.22749999999988 550.4 L 202.6 552.6 L 204.8 553 L 202.6 553.4 L 202.22749999999988 555.6 L 201.8 553.4 L 199.6 553 L 201.8 552.6 Z" fill="#d4af6a" opacity="0.5"/>
  <text x="380" y="557" text-anchor="middle" font-family="Georgia, 'Times New Roman', serif" font-style="italic" font-size="11.5" fill="#7b738f">A self-reflection framework — tendencies, not predictions</text>
  <path d="M 557.7725000000002 550.4 L 558.2 552.6 L 560.4 553 L 558.2 553.4 L 557.7725000000002 555.6 L 557.4 553.4 L 555.2 553 L 557.4 552.6 Z" fill="#d4af6a" opacity="0.5"/>
</svg>
