<svg xmlns="http://www.w3.org/2000/svg" viewBox="0 0 760 503" role="img" aria-label="Jupiter vs Saturn: Two Transits on One National Cancer Sun">
  <defs>
    <linearGradient id="argentinaworldcup2026astrology1en-panel" x1="0" y1="0" x2="0.4" y2="1">
      <stop offset="0" stop-color="#1a1433"/><stop offset="0.55" stop-color="#120e26"/><stop offset="1" stop-color="#09081a"/>
    </linearGradient>
    <radialGradient id="argentinaworldcup2026astrology1en-foil" cx="0.42" cy="0.34" r="0.75">
      <stop offset="0" stop-color="#fbf0d2"/><stop offset="0.5" stop-color="#e8c882"/><stop offset="1" stop-color="#b8923f"/>
    </radialGradient>
    <radialGradient id="argentinaworldcup2026astrology1en-glow" cx="0.5" cy="0.5" r="0.5">
      <stop offset="0" stop-color="#f6e6bf"/><stop offset="1" stop-color="#f6e6bf" stop-opacity="0"/>
    </radialGradient>
    <radialGradient id="argentinaworldcup2026astrology1en-neb1" cx="0.5" cy="0.5" r="0.5">
      <stop offset="0" stop-color="#6f4bb0" stop-opacity="0.28"/><stop offset="1" stop-color="#6f4bb0" stop-opacity="0"/>
    </radialGradient>
    <radialGradient id="argentinaworldcup2026astrology1en-neb2" cx="0.5" cy="0.5" r="0.5">
      <stop offset="0" stop-color="#d4af6a" stop-opacity="0.16"/><stop offset="1" stop-color="#d4af6a" stop-opacity="0"/>
    </radialGradient>
    <linearGradient id="argentinaworldcup2026astrology1en-rule" x1="0" y1="0" x2="1" y2="0">
      <stop offset="0" stop-color="#d4af6a" stop-opacity="0"/><stop offset="0.5" stop-color="#d4af6a" stop-opacity="0.6"/><stop offset="1" stop-color="#d4af6a" stop-opacity="0"/>
    </linearGradient>
  </defs>
  <rect x="1.5" y="1.5" width="757" height="500" rx="22" fill="url(#argentinaworldcup2026astrology1en-panel)"/>
  <ellipse cx="198" cy="121" rx="380" ry="171" fill="url(#argentinaworldcup2026astrology1en-neb1)"/>
  <ellipse cx="623" cy="402" rx="334" ry="161" fill="url(#argentinaworldcup2026astrology1en-neb2)"/>
  <circle cx="522.5" cy="482.4" r="0.66" fill="#cfc8ea" opacity="0.26"/><circle cx="426.5" cy="459.7" r="0.72" fill="#cfc8ea" opacity="0.25"/><circle cx="393.2" cy="35.2" r="1.62" fill="#cfc8ea" opacity="0.53"/><circle cx="295.7" cy="192.0" r="1.61" fill="#cfc8ea" opacity="0.40"/><circle cx="191.2" cy="268.9" r="1.22" fill="#cfc8ea" opacity="0.25"/><circle cx="326.8" cy="473.7" r="1.55" fill="#cfc8ea" opacity="0.37"/><circle cx="466.2" cy="65.8" r="1.46" fill="#cfc8ea" opacity="0.15"/><circle cx="588.2" cy="313.8" r="1.58" fill="#cfc8ea" opacity="0.45"/><circle cx="131.8" cy="383.2" r="1.39" fill="#cfc8ea" opacity="0.38"/><circle cx="160.9" cy="333.7" r="0.58" fill="#cfc8ea" opacity="0.28"/><circle cx="145.0" cy="258.3" r="0.44" fill="#cfc8ea" opacity="0.12"/><circle cx="708.1" cy="367.6" r="1.21" fill="#cfc8ea" opacity="0.41"/><circle cx="138.7" cy="146.9" r="1.14" fill="#cfc8ea" opacity="0.22"/><circle cx="342.7" cy="161.3" r="1.59" fill="#cfc8ea" opacity="0.37"/><circle cx="99.6" cy="411.2" r="1.48" fill="#cfc8ea" opacity="0.28"/><circle cx="203.4" cy="310.9" r="0.94" fill="#cfc8ea" opacity="0.41"/><circle cx="496.9" cy="195.7" r="1.29" fill="#cfc8ea" opacity="0.37"/><circle cx="77.3" cy="432.1" r="1.49" fill="#cfc8ea" opacity="0.29"/><circle cx="260.8" cy="204.1" r="1.44" fill="#cfc8ea" opacity="0.50"/><circle cx="274.7" cy="377.2" r="0.47" fill="#cfc8ea" opacity="0.21"/><circle cx="473.1" cy="415.8" r="1.51" fill="#cfc8ea" opacity="0.32"/><circle cx="639.3" cy="473.2" r="0.42" fill="#cfc8ea" opacity="0.36"/><circle cx="404.4" cy="355.1" r="0.97" fill="#cfc8ea" opacity="0.25"/><circle cx="71.7" cy="260.3" r="1.67" fill="#cfc8ea" opacity="0.53"/><circle cx="237.4" cy="319.4" r="0.52" fill="#cfc8ea" opacity="0.54"/><circle cx="175.4" cy="222.3" r="1.63" fill="#cfc8ea" opacity="0.37"/><circle cx="101.2" cy="84.8" r="0.53" fill="#cfc8ea" opacity="0.25"/><circle cx="206.5" cy="202.5" r="1.22" fill="#cfc8ea" opacity="0.42"/><circle cx="523.2" cy="162.8" r="1.09" fill="#cfc8ea" opacity="0.54"/><circle cx="422.2" cy="47.5" r="0.60" fill="#cfc8ea" opacity="0.34"/><circle cx="527.1" cy="25.9" r="0.58" fill="#cfc8ea" opacity="0.48"/><circle cx="476.6" cy="280.6" r="0.99" fill="#cfc8ea" opacity="0.32"/><circle cx="403.9" cy="268.3" r="1.60" fill="#cfc8ea" opacity="0.17"/><circle cx="280.2" cy="250.7" r="1.50" fill="#cfc8ea" opacity="0.20"/><circle cx="510.6" cy="197.1" r="1.26" fill="#cfc8ea" opacity="0.54"/><circle cx="321.1" cy="54.2" r="0.65" fill="#cfc8ea" opacity="0.21"/><circle cx="376.1" cy="443.7" r="0.95" fill="#cfc8ea" opacity="0.20"/><circle cx="680.9" cy="83.8" r="1.42" fill="#cfc8ea" opacity="0.33"/><circle cx="718.9" cy="24.3" r="0.82" fill="#cfc8ea" opacity="0.14"/><circle cx="409.1" cy="379.2" r="0.93" fill="#cfc8ea" opacity="0.37"/><circle cx="453.9" cy="75.9" r="0.46" fill="#cfc8ea" opacity="0.29"/><circle cx="474.4" cy="56.0" r="0.41" fill="#cfc8ea" opacity="0.53"/><path d="M 630.0739416480064 323.0 L 630.7 326.3 L 634.0 326.9122084763367 L 630.7 327.5 L 630.0739416480064 330.8 L 629.4 327.5 L 626.1 326.9122084763367 L 629.4 326.3 Z" fill="#f6e6bf" opacity="0.5816911107627675"/><path d="M 421.163030795753 176.5 L 421.7 179.0 L 424.2 179.52757262834348 L 421.7 180.0 L 421.163030795753 182.6 L 420.7 180.0 L 418.1 179.52757262834348 L 420.7 179.0 Z" fill="#f6e6bf" opacity="0.6708478683372959"/><path d="M 304.4445913285017 93.1 L 304.9 95.3 L 307.0 95.71471881796606 L 304.9 96.1 L 304.4445913285017 98.3 L 304.0 96.1 L 301.9 95.71471881796606 L 304.0 95.3 Z" fill="#f6e6bf" opacity="0.5387740638805554"/><path d="M 669.9895136728883 28.6 L 670.5 31.2 L 673.1 31.684516595909372 L 670.5 32.2 L 669.9895136728883 34.8 L 669.5 32.2 L 666.9 31.684516595909372 L 669.5 31.2 Z" fill="#f6e6bf" opacity="0.5130454525118694"/><path d="M 629.1281792223454 121.9 L 629.6 124.6 L 632.4 125.1666763026733 L 629.6 125.7 L 629.1281792223454 128.4 L 628.6 125.7 L 625.9 125.1666763026733 L 628.6 124.6 Z" fill="#f6e6bf" opacity="0.5791887628613039"/><path d="M 326.8 473.7 L 138.7 146.9 L 342.7 161.3 L 496.9 195.7 L 473.1 415.8" fill="none" stroke="#d4af6a" stroke-width="0.6" opacity="0.12"/>
  <rect x="1.5" y="1.5" width="757" height="500" rx="22" fill="none" stroke="#d4af6a" stroke-opacity="0.34" stroke-width="1.2"/>
  <rect x="7" y="7" width="746" height="489" rx="17" fill="none" stroke="#d4af6a" stroke-opacity="0.12" stroke-width="0.8"/>
  <path d="M 16 12.8 L 16.5 15.5 L 19.2 16 L 16.5 16.5 L 16 19.2 L 15.5 16.5 L 12.8 16 L 15.5 15.5 Z" fill="#d4af6a" opacity="0.4"/><path d="M 744 12.8 L 744.5 15.5 L 747.2 16 L 744.5 16.5 L 744 19.2 L 743.5 16.5 L 740.8 16 L 743.5 15.5 Z" fill="#d4af6a" opacity="0.4"/><path d="M 16 483.8 L 16.5 486.5 L 19.2 487 L 16.5 487.5 L 16 490.2 L 15.5 487.5 L 12.8 487 L 15.5 486.5 Z" fill="#d4af6a" opacity="0.4"/><path d="M 744 483.8 L 744.5 486.5 L 747.2 487 L 744.5 487.5 L 744 490.2 L 743.5 487.5 L 740.8 487 L 743.5 486.5 Z" fill="#d4af6a" opacity="0.4"/>
  <text x="380" y="46" text-anchor="middle" font-family="Georgia, 'Times New Roman', serif" font-size="22" letter-spacing="0.4" fill="#efeaf8">Jupiter vs Saturn: Two Transits on One National Cancer Sun</text>
  <line x1="230" y1="67" x2="368" y2="67" stroke="url(#argentinaworldcup2026astrology1en-rule)" stroke-width="1"/>
  <line x1="392" y1="67" x2="530" y2="67" stroke="url(#argentinaworldcup2026astrology1en-rule)" stroke-width="1"/>
  <path d="M 380 62.0 L 380.8 66.2 L 385.0 67 L 380.8 67.8 L 380 72.0 L 379.2 67.8 L 375.0 67 L 379.2 66.2 Z" fill="#d4af6a" opacity="0.85"/>

  <rect x="46" y="99" width="668" height="172.0" rx="14" fill="#1d1740" fill-opacity="0.5" stroke="#d4af6a" stroke-opacity="0.22" stroke-width="0.9"/>
  <rect x="46" y="99" width="668" height="3.5" rx="1.8" fill="#d4af6a" fill-opacity="0.6"/>
  <path d="M 380 97.1 L 380.5 100.0 L 383.4 100.5 L 380.5 101.0 L 380 103.9 L 379.5 101.0 L 376.6 100.5 L 379.5 100.0 Z" fill="#f6e6bf" opacity="0.7"/>
  <text x="380" y="128.0" text-anchor="middle" font-family="Georgia, 'Times New Roman', serif" font-size="21" font-weight="700" letter-spacing="0.3" fill="#f3effb">Jupiter in Cancer (2025–26)</text>
  <path d="M 70 157.8 L 70.5 160.5 L 73.2 161 L 70.5 161.5 L 70 164.2 L 69.5 161.5 L 66.8 161 L 69.5 160.5 Z" fill="#d4af6a" opacity="0.8"/>
  <text x="84" y="166.0" font-family="Helvetica, Arial, sans-serif" font-size="16" fill="#a59cc0">Same-sign emphasis on national Cancer Sun</text>
  <path d="M 70 186.8 L 70.5 189.5 L 73.2 190 L 70.5 190.5 L 70 193.2 L 69.5 190.5 L 66.8 190 L 69.5 189.5 Z" fill="#d4af6a" opacity="0.8"/>
  <text x="84" y="195.0" font-family="Helvetica, Arial, sans-serif" font-size="16" fill="#a59cc0">Exact contact earlier in 2026; separating by tournament</text>
  <path d="M 70 215.8 L 70.5 218.5 L 73.2 219 L 70.5 219.5 L 70 222.2 L 69.5 219.5 L 66.8 219 L 69.5 218.5 Z" fill="#d4af6a" opacity="0.8"/>
  <text x="84" y="224.0" font-family="Helvetica, Arial, sans-serif" font-size="16" fill="#a59cc0">Enters Leo on June 30, 2026</text>
  <path d="M 70 244.8 L 70.5 247.5 L 73.2 248 L 70.5 248.5 L 70 251.2 L 69.5 248.5 L 66.8 248 L 69.5 247.5 Z" fill="#d4af6a" opacity="0.8"/>
  <text x="84" y="253.0" font-family="Helvetica, Arial, sans-serif" font-size="16" fill="#a59cc0">Reads as proud, cohesive national identity expanding</text>
  <path d="M 380 279.5 L 380.7 283.3 L 384.5 284 L 380.7 284.7 L 380 288.5 L 379.3 284.7 L 375.5 284 L 379.3 283.3 Z" fill="#d4af6a" opacity="0.65"/>
  <rect x="46" y="297" width="668" height="172.0" rx="14" fill="#1d1740" fill-opacity="0.5" stroke="#d4af6a" stroke-opacity="0.22" stroke-width="0.9"/>
  <rect x="46" y="297" width="668" height="3.5" rx="1.8" fill="#d4af6a" fill-opacity="0.6"/>
  <path d="M 380 295.1 L 380.5 298.0 L 383.4 298.5 L 380.5 299.0 L 380 301.9 L 379.5 299.0 L 376.6 298.5 L 379.5 298.0 Z" fill="#f6e6bf" opacity="0.7"/>
  <text x="380" y="326.0" text-anchor="middle" font-family="Georgia, 'Times New Roman', serif" font-size="21" font-weight="700" letter-spacing="0.3" fill="#f3effb">Saturn in Aries (2025–28)</text>
  <path d="M 70 355.8 L 70.5 358.5 L 73.2 359 L 70.5 359.5 L 70 362.2 L 69.5 359.5 L 66.8 359 L 69.5 358.5 Z" fill="#d4af6a" opacity="0.8"/>
  <text x="84" y="364.0" font-family="Helvetica, Arial, sans-serif" font-size="16" fill="#a59cc0">Hard square applying to national Cancer Sun</text>
  <path d="M 70 384.8 L 70.5 387.5 L 73.2 388 L 70.5 388.5 L 70 391.2 L 69.5 388.5 L 66.8 388 L 69.5 387.5 Z" fill="#d4af6a" opacity="0.8"/>
  <text x="84" y="393.0" font-family="Helvetica, Arial, sans-serif" font-size="16" fill="#a59cc0">Exact square after 2026; weight gathering throughout</text>
  <path d="M 70 413.8 L 70.5 416.5 L 73.2 417 L 70.5 417.5 L 70 420.2 L 69.5 417.5 L 66.8 417 L 69.5 416.5 Z" fill="#d4af6a" opacity="0.8"/>
  <text x="84" y="422.0" font-family="Helvetica, Arial, sans-serif" font-size="16" fill="#a59cc0">Marks testing and consolidation over time</text>
  <path d="M 70 442.8 L 70.5 445.5 L 73.2 446 L 70.5 446.5 L 70 449.2 L 69.5 446.5 L 66.8 446 L 69.5 445.5 Z" fill="#d4af6a" opacity="0.8"/>
  <text x="84" y="451.0" font-family="Helvetica, Arial, sans-serif" font-size="16" fill="#a59cc0">Reads as burden of defending title and generational handover</text>
  <path d="M 202.22749999999988 474.4 L 202.6 476.6 L 204.8 477 L 202.6 477.4 L 202.22749999999988 479.6 L 201.8 477.4 L 199.6 477 L 201.8 476.6 Z" fill="#d4af6a" opacity="0.5"/>
  <text x="380" y="481" text-anchor="middle" font-family="Georgia, 'Times New Roman', serif" font-style="italic" font-size="11.5" fill="#7b738f">A self-reflection framework — tendencies, not predictions</text>
  <path d="M 557.7725000000002 474.4 L 558.2 476.6 L 560.4 477 L 558.2 477.4 L 557.7725000000002 479.6 L 557.4 477.4 L 555.2 477 L 557.4 476.6 Z" fill="#d4af6a" opacity="0.5"/>
</svg>
