<svg xmlns="http://www.w3.org/2000/svg" viewBox="0 0 760 505" role="img" aria-label="How to Find Your Ascendant in 5 Steps">
  <defs>
    <linearGradient id="ascendantmeaning1en-panel" x1="0" y1="0" x2="0.4" y2="1">
      <stop offset="0" stop-color="#1a1433"/><stop offset="0.55" stop-color="#120e26"/><stop offset="1" stop-color="#09081a"/>
    </linearGradient>
    <radialGradient id="ascendantmeaning1en-foil" cx="0.42" cy="0.34" r="0.75">
      <stop offset="0" stop-color="#fbf0d2"/><stop offset="0.5" stop-color="#e8c882"/><stop offset="1" stop-color="#b8923f"/>
    </radialGradient>
    <radialGradient id="ascendantmeaning1en-glow" cx="0.5" cy="0.5" r="0.5">
      <stop offset="0" stop-color="#f6e6bf"/><stop offset="1" stop-color="#f6e6bf" stop-opacity="0"/>
    </radialGradient>
    <radialGradient id="ascendantmeaning1en-neb1" cx="0.5" cy="0.5" r="0.5">
      <stop offset="0" stop-color="#6f4bb0" stop-opacity="0.28"/><stop offset="1" stop-color="#6f4bb0" stop-opacity="0"/>
    </radialGradient>
    <radialGradient id="ascendantmeaning1en-neb2" cx="0.5" cy="0.5" r="0.5">
      <stop offset="0" stop-color="#d4af6a" stop-opacity="0.16"/><stop offset="1" stop-color="#d4af6a" stop-opacity="0"/>
    </radialGradient>
    <linearGradient id="ascendantmeaning1en-rule" x1="0" y1="0" x2="1" y2="0">
      <stop offset="0" stop-color="#d4af6a" stop-opacity="0"/><stop offset="0.5" stop-color="#d4af6a" stop-opacity="0.6"/><stop offset="1" stop-color="#d4af6a" stop-opacity="0"/>
    </linearGradient>
  </defs>
  <rect x="1.5" y="1.5" width="757" height="502" rx="22" fill="url(#ascendantmeaning1en-panel)"/>
  <ellipse cx="198" cy="121" rx="380" ry="172" fill="url(#ascendantmeaning1en-neb1)"/>
  <ellipse cx="623" cy="404" rx="334" ry="162" fill="url(#ascendantmeaning1en-neb2)"/>
  <circle cx="544.2" cy="247.8" r="1.45" fill="#cfc8ea" opacity="0.37"/><circle cx="374.9" cy="345.7" r="0.99" fill="#cfc8ea" opacity="0.50"/><circle cx="662.7" cy="440.4" r="1.28" fill="#cfc8ea" opacity="0.21"/><circle cx="373.7" cy="116.0" r="1.16" fill="#cfc8ea" opacity="0.30"/><circle cx="298.0" cy="389.3" r="0.54" fill="#cfc8ea" opacity="0.17"/><circle cx="199.1" cy="297.5" r="1.33" fill="#cfc8ea" opacity="0.41"/><circle cx="737.6" cy="70.4" r="1.15" fill="#cfc8ea" opacity="0.15"/><circle cx="647.6" cy="190.9" r="1.34" fill="#cfc8ea" opacity="0.32"/><circle cx="687.2" cy="410.6" r="0.83" fill="#cfc8ea" opacity="0.51"/><circle cx="425.1" cy="271.3" r="0.85" fill="#cfc8ea" opacity="0.50"/><circle cx="350.4" cy="140.9" r="0.42" fill="#cfc8ea" opacity="0.46"/><circle cx="660.5" cy="287.9" r="1.12" fill="#cfc8ea" opacity="0.36"/><circle cx="470.8" cy="369.4" r="0.86" fill="#cfc8ea" opacity="0.19"/><circle cx="249.1" cy="351.3" r="0.42" fill="#cfc8ea" opacity="0.37"/><circle cx="78.6" cy="410.6" r="1.21" fill="#cfc8ea" opacity="0.42"/><circle cx="412.9" cy="53.7" r="1.63" fill="#cfc8ea" opacity="0.49"/><circle cx="661.4" cy="50.7" r="1.54" fill="#cfc8ea" opacity="0.27"/><circle cx="705.0" cy="202.8" r="1.41" fill="#cfc8ea" opacity="0.17"/><circle cx="268.8" cy="263.3" r="1.48" fill="#cfc8ea" opacity="0.46"/><circle cx="728.9" cy="435.0" r="1.55" fill="#cfc8ea" opacity="0.36"/><circle cx="700.1" cy="488.9" r="1.62" fill="#cfc8ea" opacity="0.21"/><circle cx="508.4" cy="243.1" r="1.29" fill="#cfc8ea" opacity="0.37"/><circle cx="272.5" cy="140.3" r="1.31" fill="#cfc8ea" opacity="0.29"/><circle cx="394.3" cy="331.3" r="1.42" fill="#cfc8ea" opacity="0.28"/><circle cx="285.4" cy="367.0" r="0.91" fill="#cfc8ea" opacity="0.25"/><circle cx="218.4" cy="129.4" r="0.92" fill="#cfc8ea" opacity="0.54"/><circle cx="673.5" cy="243.1" r="0.94" fill="#cfc8ea" opacity="0.41"/><circle cx="583.3" cy="99.5" r="0.86" fill="#cfc8ea" opacity="0.35"/><circle cx="471.9" cy="406.4" r="1.58" fill="#cfc8ea" opacity="0.35"/><circle cx="377.1" cy="193.7" r="1.61" fill="#cfc8ea" opacity="0.24"/><circle cx="374.4" cy="61.1" r="1.23" fill="#cfc8ea" opacity="0.27"/><circle cx="117.8" cy="41.3" r="1.04" fill="#cfc8ea" opacity="0.22"/><circle cx="48.7" cy="124.3" r="0.68" fill="#cfc8ea" opacity="0.39"/><circle cx="78.5" cy="29.3" r="1.60" fill="#cfc8ea" opacity="0.17"/><circle cx="470.0" cy="476.1" r="1.68" fill="#cfc8ea" opacity="0.32"/><circle cx="614.3" cy="406.2" r="1.15" fill="#cfc8ea" opacity="0.14"/><circle cx="320.4" cy="311.7" r="0.88" fill="#cfc8ea" opacity="0.47"/><circle cx="393.5" cy="99.7" r="0.49" fill="#cfc8ea" opacity="0.21"/><circle cx="519.1" cy="213.8" r="0.63" fill="#cfc8ea" opacity="0.49"/><circle cx="278.2" cy="421.2" r="1.60" fill="#cfc8ea" opacity="0.16"/><circle cx="681.5" cy="178.5" r="1.00" fill="#cfc8ea" opacity="0.39"/><circle cx="335.4" cy="333.2" r="1.22" fill="#cfc8ea" opacity="0.48"/><circle cx="245.3" cy="177.3" r="1.45" fill="#cfc8ea" opacity="0.34"/><path d="M 187.52823062986135 230.8 L 188.1 233.6 L 190.8 234.11889293207787 L 188.1 234.6 L 187.52823062986135 237.4 L 187.0 234.6 L 184.2 234.11889293207787 L 187.0 233.6 Z" fill="#f6e6bf" opacity="0.5033664000919089"/><path d="M 326.4516602307558 446.6 L 327.0 449.5 L 330.0 450.11630578222685 L 327.0 450.7 L 326.4516602307558 453.7 L 325.9 450.7 L 322.9 450.11630578222685 L 325.9 449.5 Z" fill="#f6e6bf" opacity="0.5252505169017241"/><path d="M 470.9180613234639 17.1 L 471.5 19.9 L 474.3 20.47483142069541 L 471.5 21.0 L 470.9180613234639 23.9 L 470.4 21.0 L 467.5 20.47483142069541 L 470.4 19.9 Z" fill="#f6e6bf" opacity="0.7247556332265959"/><path d="M 116.0196561217308 354.9 L 116.6 358.0 L 119.8 358.62169424514286 L 116.6 359.2 L 116.0196561217308 362.4 L 115.4 359.2 L 112.3 358.62169424514286 L 115.4 358.0 Z" fill="#f6e6bf" opacity="0.7984634703723714"/><path d="M 692.6564976498485 311.9 L 693.3 315.2 L 696.5 315.7995368966367 L 693.3 316.4 L 692.6564976498485 319.7 L 692.0 316.4 L 688.8 315.7995368966367 L 692.0 315.2 Z" fill="#f6e6bf" opacity="0.6495822602650151"/><path d="M 544.2 247.8 L 373.7 116.0 L 737.6 70.4 L 412.9 53.7 L 117.8 41.3" fill="none" stroke="#d4af6a" stroke-width="0.6" opacity="0.12"/>
  <rect x="1.5" y="1.5" width="757" height="502" rx="22" fill="none" stroke="#d4af6a" stroke-opacity="0.34" stroke-width="1.2"/>
  <rect x="7" y="7" width="746" height="491" rx="17" fill="none" stroke="#d4af6a" stroke-opacity="0.12" stroke-width="0.8"/>
  <path d="M 16 12.8 L 16.5 15.5 L 19.2 16 L 16.5 16.5 L 16 19.2 L 15.5 16.5 L 12.8 16 L 15.5 15.5 Z" fill="#d4af6a" opacity="0.4"/><path d="M 744 12.8 L 744.5 15.5 L 747.2 16 L 744.5 16.5 L 744 19.2 L 743.5 16.5 L 740.8 16 L 743.5 15.5 Z" fill="#d4af6a" opacity="0.4"/><path d="M 16 485.8 L 16.5 488.5 L 19.2 489 L 16.5 489.5 L 16 492.2 L 15.5 489.5 L 12.8 489 L 15.5 488.5 Z" fill="#d4af6a" opacity="0.4"/><path d="M 744 485.8 L 744.5 488.5 L 747.2 489 L 744.5 489.5 L 744 492.2 L 743.5 489.5 L 740.8 489 L 743.5 488.5 Z" fill="#d4af6a" opacity="0.4"/>
  <text x="380" y="46" text-anchor="middle" font-family="Georgia, 'Times New Roman', serif" font-size="22" letter-spacing="0.4" fill="#efeaf8">How to Find Your Ascendant in 5 Steps</text>
  <line x1="230" y1="67" x2="368" y2="67" stroke="url(#ascendantmeaning1en-rule)" stroke-width="1"/>
  <line x1="392" y1="67" x2="530" y2="67" stroke="url(#ascendantmeaning1en-rule)" stroke-width="1"/>
  <path d="M 380 62.0 L 380.8 66.2 L 385.0 67 L 380.8 67.8 L 380 72.0 L 379.2 67.8 L 375.0 67 L 379.2 66.2 Z" fill="#d4af6a" opacity="0.85"/>
  <line x1="76" y1="121" x2="76" y2="415" stroke="#d4af6a" stroke-opacity="0.28" stroke-width="1.5"/>
  <circle cx="76" cy="121" r="20.0" fill="url(#ascendantmeaning1en-glow)" opacity="0.5"/>
    <circle cx="76" cy="121" r="15" fill="url(#ascendantmeaning1en-foil)" stroke="#f6e6bf" stroke-opacity="0.5" stroke-width="0.8"/>
    <circle cx="76" cy="116.8" r="9.0" fill="#ffffff" opacity="0.10"/>
    <text x="76" y="125.5" text-anchor="middle" font-family="Georgia, 'Times New Roman', serif" font-size="13" font-weight="700" fill="#3a2c12">1</text>
  <text x="116" y="117.0" font-family="Georgia, 'Times New Roman', serif" font-size="22" letter-spacing="0.3" fill="#f3effb">Gather Birth Time</text>
  <text x="116" y="139.0" font-family="Helvetica, Arial, sans-serif" font-size="15.5" fill="#a59cc0">To the minute if possible; near a sign boundary each minute can shift the rising</text>
  <text x="116" y="157.0" font-family="Helvetica, Arial, sans-serif" font-size="15.5" fill="#a59cc0">sign</text>
  <circle cx="76" cy="199" r="20.0" fill="url(#ascendantmeaning1en-glow)" opacity="0.5"/>
    <circle cx="76" cy="199" r="15" fill="url(#ascendantmeaning1en-foil)" stroke="#f6e6bf" stroke-opacity="0.5" stroke-width="0.8"/>
    <circle cx="76" cy="194.8" r="9.0" fill="#ffffff" opacity="0.10"/>
    <text x="76" y="203.5" text-anchor="middle" font-family="Georgia, 'Times New Roman', serif" font-size="13" font-weight="700" fill="#3a2c12">2</text>
  <text x="116" y="195.0" font-family="Georgia, 'Times New Roman', serif" font-size="22" letter-spacing="0.3" fill="#f3effb">Cast the Chart</text>
  <text x="116" y="217.0" font-family="Helvetica, Arial, sans-serif" font-size="15.5" fill="#a59cc0">Use exact time and place; the ascendant appears at the left, 9-o'clock point of</text>
  <text x="116" y="235.0" font-family="Helvetica, Arial, sans-serif" font-size="15.5" fill="#a59cc0">the wheel</text>
  <circle cx="76" cy="277" r="20.0" fill="url(#ascendantmeaning1en-glow)" opacity="0.5"/>
    <circle cx="76" cy="277" r="15" fill="url(#ascendantmeaning1en-foil)" stroke="#f6e6bf" stroke-opacity="0.5" stroke-width="0.8"/>
    <circle cx="76" cy="272.8" r="9.0" fill="#ffffff" opacity="0.10"/>
    <text x="76" y="281.5" text-anchor="middle" font-family="Georgia, 'Times New Roman', serif" font-size="13" font-weight="700" fill="#3a2c12">3</text>
  <text x="116" y="273.0" font-family="Georgia, 'Times New Roman', serif" font-size="22" letter-spacing="0.3" fill="#f3effb">Note Sign &amp; Degree</text>
  <text x="116" y="295.0" font-family="Helvetica, Arial, sans-serif" font-size="15.5" fill="#a59cc0">That sign and degree is your rising sign and your first house cusp</text>
  <circle cx="76" cy="337" r="20.0" fill="url(#ascendantmeaning1en-glow)" opacity="0.5"/>
    <circle cx="76" cy="337" r="15" fill="url(#ascendantmeaning1en-foil)" stroke="#f6e6bf" stroke-opacity="0.5" stroke-width="0.8"/>
    <circle cx="76" cy="332.8" r="9.0" fill="#ffffff" opacity="0.10"/>
    <text x="76" y="341.5" text-anchor="middle" font-family="Georgia, 'Times New Roman', serif" font-size="13" font-weight="700" fill="#3a2c12">4</text>
  <text x="116" y="333.0" font-family="Georgia, 'Times New Roman', serif" font-size="22" letter-spacing="0.3" fill="#f3effb">Trace the Houses</text>
  <text x="116" y="355.0" font-family="Helvetica, Arial, sans-serif" font-size="15.5" fill="#a59cc0">Number the house cusps around from the ascendant; watch how each life domain is</text>
  <text x="116" y="373.0" font-family="Helvetica, Arial, sans-serif" font-size="15.5" fill="#a59cc0">assigned</text>
  <circle cx="76" cy="415" r="20.0" fill="url(#ascendantmeaning1en-glow)" opacity="0.5"/>
    <circle cx="76" cy="415" r="15" fill="url(#ascendantmeaning1en-foil)" stroke="#f6e6bf" stroke-opacity="0.5" stroke-width="0.8"/>
    <circle cx="76" cy="410.8" r="9.0" fill="#ffffff" opacity="0.10"/>
    <text x="76" y="419.5" text-anchor="middle" font-family="Georgia, 'Times New Roman', serif" font-size="13" font-weight="700" fill="#3a2c12">5</text>
  <text x="116" y="411.0" font-family="Georgia, 'Times New Roman', serif" font-size="22" letter-spacing="0.3" fill="#f3effb">Read Sign &amp; Structure</text>
  <text x="116" y="433.0" font-family="Helvetica, Arial, sans-serif" font-size="15.5" fill="#a59cc0">Rising sign for instinct and first impression; house cusps for structural</text>
  <text x="116" y="451.0" font-family="Helvetica, Arial, sans-serif" font-size="15.5" fill="#a59cc0">payoff across the whole chart</text>
  <path d="M 202.22749999999988 476.4 L 202.6 478.6 L 204.8 479 L 202.6 479.4 L 202.22749999999988 481.6 L 201.8 479.4 L 199.6 479 L 201.8 478.6 Z" fill="#d4af6a" opacity="0.5"/>
  <text x="380" y="483" text-anchor="middle" font-family="Georgia, 'Times New Roman', serif" font-style="italic" font-size="11.5" fill="#7b738f">A self-reflection framework — tendencies, not predictions</text>
  <path d="M 557.7725000000002 476.4 L 558.2 478.6 L 560.4 479 L 558.2 479.4 L 557.7725000000002 481.6 L 557.4 479.4 L 555.2 479 L 557.4 478.6 Z" fill="#d4af6a" opacity="0.5"/>
</svg>
