<svg xmlns="http://www.w3.org/2000/svg" viewBox="0 0 760 701" role="img" aria-label="Ascendant vs Sun Sign vs Moon Sign">
  <defs>
    <linearGradient id="ascendantmeaning0en-panel" x1="0" y1="0" x2="0.4" y2="1">
      <stop offset="0" stop-color="#1a1433"/><stop offset="0.55" stop-color="#120e26"/><stop offset="1" stop-color="#09081a"/>
    </linearGradient>
    <radialGradient id="ascendantmeaning0en-foil" cx="0.42" cy="0.34" r="0.75">
      <stop offset="0" stop-color="#fbf0d2"/><stop offset="0.5" stop-color="#e8c882"/><stop offset="1" stop-color="#b8923f"/>
    </radialGradient>
    <radialGradient id="ascendantmeaning0en-glow" cx="0.5" cy="0.5" r="0.5">
      <stop offset="0" stop-color="#f6e6bf"/><stop offset="1" stop-color="#f6e6bf" stop-opacity="0"/>
    </radialGradient>
    <radialGradient id="ascendantmeaning0en-neb1" cx="0.5" cy="0.5" r="0.5">
      <stop offset="0" stop-color="#6f4bb0" stop-opacity="0.28"/><stop offset="1" stop-color="#6f4bb0" stop-opacity="0"/>
    </radialGradient>
    <radialGradient id="ascendantmeaning0en-neb2" cx="0.5" cy="0.5" r="0.5">
      <stop offset="0" stop-color="#d4af6a" stop-opacity="0.16"/><stop offset="1" stop-color="#d4af6a" stop-opacity="0"/>
    </radialGradient>
    <linearGradient id="ascendantmeaning0en-rule" x1="0" y1="0" x2="1" y2="0">
      <stop offset="0" stop-color="#d4af6a" stop-opacity="0"/><stop offset="0.5" stop-color="#d4af6a" stop-opacity="0.6"/><stop offset="1" stop-color="#d4af6a" stop-opacity="0"/>
    </linearGradient>
  </defs>
  <rect x="1.5" y="1.5" width="757" height="698" rx="22" fill="url(#ascendantmeaning0en-panel)"/>
  <ellipse cx="198" cy="168" rx="380" ry="238" fill="url(#ascendantmeaning0en-neb1)"/>
  <ellipse cx="623" cy="561" rx="334" ry="224" fill="url(#ascendantmeaning0en-neb2)"/>
  <circle cx="268.0" cy="107.1" r="0.81" fill="#cfc8ea" opacity="0.34"/><circle cx="558.9" cy="60.4" r="0.67" fill="#cfc8ea" opacity="0.46"/><circle cx="522.1" cy="626.8" r="1.19" fill="#cfc8ea" opacity="0.30"/><circle cx="427.5" cy="147.8" r="1.08" fill="#cfc8ea" opacity="0.34"/><circle cx="355.2" cy="339.8" r="1.15" fill="#cfc8ea" opacity="0.53"/><circle cx="738.5" cy="625.6" r="1.20" fill="#cfc8ea" opacity="0.34"/><circle cx="276.0" cy="548.5" r="1.25" fill="#cfc8ea" opacity="0.29"/><circle cx="60.5" cy="384.4" r="0.99" fill="#cfc8ea" opacity="0.49"/><circle cx="713.4" cy="91.2" r="1.54" fill="#cfc8ea" opacity="0.42"/><circle cx="637.3" cy="188.1" r="1.12" fill="#cfc8ea" opacity="0.34"/><circle cx="481.3" cy="22.2" r="1.05" fill="#cfc8ea" opacity="0.45"/><circle cx="324.7" cy="411.8" r="0.73" fill="#cfc8ea" opacity="0.16"/><circle cx="447.2" cy="269.0" r="1.40" fill="#cfc8ea" opacity="0.14"/><circle cx="97.2" cy="515.2" r="0.45" fill="#cfc8ea" opacity="0.53"/><circle cx="306.0" cy="281.5" r="0.60" fill="#cfc8ea" opacity="0.19"/><circle cx="285.4" cy="630.3" r="0.70" fill="#cfc8ea" opacity="0.24"/><circle cx="525.7" cy="338.5" r="0.72" fill="#cfc8ea" opacity="0.29"/><circle cx="258.8" cy="633.6" r="1.12" fill="#cfc8ea" opacity="0.46"/><circle cx="691.9" cy="446.3" r="0.55" fill="#cfc8ea" opacity="0.39"/><circle cx="572.6" cy="297.6" r="1.12" fill="#cfc8ea" opacity="0.26"/><circle cx="86.0" cy="219.6" r="0.97" fill="#cfc8ea" opacity="0.38"/><circle cx="648.9" cy="391.8" r="1.42" fill="#cfc8ea" opacity="0.18"/><circle cx="316.3" cy="579.5" r="0.48" fill="#cfc8ea" opacity="0.21"/><circle cx="331.1" cy="646.8" r="0.72" fill="#cfc8ea" opacity="0.44"/><circle cx="336.2" cy="645.6" r="0.62" fill="#cfc8ea" opacity="0.19"/><circle cx="125.8" cy="408.8" r="1.00" fill="#cfc8ea" opacity="0.17"/><circle cx="102.4" cy="334.6" r="0.81" fill="#cfc8ea" opacity="0.18"/><circle cx="152.3" cy="651.8" r="0.95" fill="#cfc8ea" opacity="0.19"/><circle cx="152.8" cy="682.9" r="1.15" fill="#cfc8ea" opacity="0.39"/><circle cx="453.5" cy="617.9" r="1.39" fill="#cfc8ea" opacity="0.39"/><circle cx="464.0" cy="437.9" r="0.77" fill="#cfc8ea" opacity="0.21"/><circle cx="647.3" cy="596.5" r="1.67" fill="#cfc8ea" opacity="0.31"/><circle cx="37.4" cy="79.3" r="1.63" fill="#cfc8ea" opacity="0.45"/><circle cx="418.3" cy="465.4" r="1.67" fill="#cfc8ea" opacity="0.42"/><circle cx="682.3" cy="204.6" r="0.73" fill="#cfc8ea" opacity="0.53"/><circle cx="492.5" cy="342.9" r="1.50" fill="#cfc8ea" opacity="0.14"/><circle cx="365.6" cy="64.3" r="0.72" fill="#cfc8ea" opacity="0.46"/><circle cx="231.8" cy="603.1" r="0.81" fill="#cfc8ea" opacity="0.52"/><circle cx="425.4" cy="27.7" r="0.57" fill="#cfc8ea" opacity="0.16"/><circle cx="167.7" cy="347.1" r="1.29" fill="#cfc8ea" opacity="0.52"/><circle cx="659.2" cy="452.5" r="0.73" fill="#cfc8ea" opacity="0.15"/><circle cx="88.1" cy="670.7" r="0.66" fill="#cfc8ea" opacity="0.51"/><circle cx="661.1" cy="345.0" r="0.48" fill="#cfc8ea" opacity="0.44"/><circle cx="129.5" cy="102.9" r="1.09" fill="#cfc8ea" opacity="0.41"/><circle cx="165.7" cy="550.3" r="0.63" fill="#cfc8ea" opacity="0.16"/><circle cx="474.5" cy="117.3" r="0.91" fill="#cfc8ea" opacity="0.18"/><circle cx="663.6" cy="267.9" r="0.55" fill="#cfc8ea" opacity="0.33"/><circle cx="744.4" cy="371.1" r="1.35" fill="#cfc8ea" opacity="0.19"/><circle cx="218.8" cy="26.8" r="0.55" fill="#cfc8ea" opacity="0.41"/><circle cx="246.8" cy="380.1" r="1.23" fill="#cfc8ea" opacity="0.52"/><circle cx="510.0" cy="579.7" r="0.76" fill="#cfc8ea" opacity="0.53"/><circle cx="452.4" cy="148.2" r="0.79" fill="#cfc8ea" opacity="0.29"/><circle cx="202.9" cy="139.2" r="1.42" fill="#cfc8ea" opacity="0.30"/><circle cx="437.7" cy="138.1" r="1.55" fill="#cfc8ea" opacity="0.33"/><circle cx="244.0" cy="409.7" r="1.16" fill="#cfc8ea" opacity="0.41"/><circle cx="588.8" cy="488.9" r="0.96" fill="#cfc8ea" opacity="0.25"/><circle cx="472.4" cy="458.1" r="0.87" fill="#cfc8ea" opacity="0.15"/><circle cx="608.1" cy="575.4" r="0.68" fill="#cfc8ea" opacity="0.41"/><circle cx="321.2" cy="73.2" r="0.56" fill="#cfc8ea" opacity="0.29"/><path d="M 454.6597989629954 377.9 L 455.3 381.1 L 458.5 381.67835588380694 L 455.3 382.3 L 454.6597989629954 385.5 L 454.0 382.3 L 450.8 381.67835588380694 L 454.0 381.1 Z" fill="#f6e6bf" opacity="0.6225922205951064"/><path d="M 711.9836798366159 674.4 L 712.6 677.6 L 715.8 678.2524119550362 L 712.6 678.9 L 711.9836798366159 682.1 L 711.4 678.9 L 708.1 678.2524119550362 L 711.4 677.6 Z" fill="#f6e6bf" opacity="0.6294223465491087"/><path d="M 264.02971377782524 120.7 L 264.6 123.6 L 267.5 124.17926942370832 L 264.6 124.7 L 264.02971377782524 127.6 L 263.5 124.7 L 260.6 124.17926942370832 L 263.5 123.6 Z" fill="#f6e6bf" opacity="0.7273336253594607"/><path d="M 679.8676849510521 575.2 L 680.3 577.6 L 682.7 578.0540890125558 L 680.3 578.5 L 679.8676849510521 580.9 L 679.4 578.5 L 677.0 578.0540890125558 L 679.4 577.6 Z" fill="#f6e6bf" opacity="0.5085322252009064"/><path d="M 435.7476448547095 96.9 L 436.1 99.0 L 438.3 99.42780002951622 L 436.1 99.8 L 435.7476448547095 101.9 L 435.3 99.8 L 433.2 99.42780002951622 L 435.3 99.0 Z" fill="#f6e6bf" opacity="0.5828112130519003"/><path d="M 268.0 107.1 L 481.3 22.2 L 258.8 633.6 L 691.9 446.3 L 682.3 204.6" fill="none" stroke="#d4af6a" stroke-width="0.6" opacity="0.12"/>
  <rect x="1.5" y="1.5" width="757" height="698" rx="22" fill="none" stroke="#d4af6a" stroke-opacity="0.34" stroke-width="1.2"/>
  <rect x="7" y="7" width="746" height="687" rx="17" fill="none" stroke="#d4af6a" stroke-opacity="0.12" stroke-width="0.8"/>
  <path d="M 16 12.8 L 16.5 15.5 L 19.2 16 L 16.5 16.5 L 16 19.2 L 15.5 16.5 L 12.8 16 L 15.5 15.5 Z" fill="#d4af6a" opacity="0.4"/><path d="M 744 12.8 L 744.5 15.5 L 747.2 16 L 744.5 16.5 L 744 19.2 L 743.5 16.5 L 740.8 16 L 743.5 15.5 Z" fill="#d4af6a" opacity="0.4"/><path d="M 16 681.8 L 16.5 684.5 L 19.2 685 L 16.5 685.5 L 16 688.2 L 15.5 685.5 L 12.8 685 L 15.5 684.5 Z" fill="#d4af6a" opacity="0.4"/><path d="M 744 681.8 L 744.5 684.5 L 747.2 685 L 744.5 685.5 L 744 688.2 L 743.5 685.5 L 740.8 685 L 743.5 684.5 Z" fill="#d4af6a" opacity="0.4"/>
  <text x="380" y="46" text-anchor="middle" font-family="Georgia, 'Times New Roman', serif" font-size="22" letter-spacing="0.4" fill="#efeaf8">Ascendant vs Sun Sign vs Moon Sign</text>
  <line x1="230" y1="67" x2="368" y2="67" stroke="url(#ascendantmeaning0en-rule)" stroke-width="1"/>
  <line x1="392" y1="67" x2="530" y2="67" stroke="url(#ascendantmeaning0en-rule)" stroke-width="1"/>
  <path d="M 380 62.0 L 380.8 66.2 L 385.0 67 L 380.8 67.8 L 380 72.0 L 379.2 67.8 L 375.0 67 L 379.2 66.2 Z" fill="#d4af6a" opacity="0.85"/>

  <rect x="46" y="99" width="668" height="172.0" rx="14" fill="#1d1740" fill-opacity="0.5" stroke="#d4af6a" stroke-opacity="0.22" stroke-width="0.9"/>
  <rect x="46" y="99" width="668" height="3.5" rx="1.8" fill="#d4af6a" fill-opacity="0.6"/>
  <path d="M 380 97.1 L 380.5 100.0 L 383.4 100.5 L 380.5 101.0 L 380 103.9 L 379.5 101.0 L 376.6 100.5 L 379.5 100.0 Z" fill="#f6e6bf" opacity="0.7"/>
  <text x="380" y="128.0" text-anchor="middle" font-family="Georgia, 'Times New Roman', serif" font-size="21" font-weight="700" letter-spacing="0.3" fill="#f3effb">Ascendant</text>
  <path d="M 70 157.8 L 70.5 160.5 L 73.2 161 L 70.5 161.5 L 70 164.2 L 69.5 161.5 L 66.8 161 L 69.5 160.5 Z" fill="#d4af6a" opacity="0.8"/>
  <text x="84" y="166.0" font-family="Helvetica, Arial, sans-serif" font-size="16" fill="#a59cc0">Needs date, time &amp; place</text>
  <path d="M 70 186.8 L 70.5 189.5 L 73.2 190 L 70.5 190.5 L 70 193.2 L 69.5 190.5 L 66.8 190 L 69.5 189.5 Z" fill="#d4af6a" opacity="0.8"/>
  <text x="84" y="195.0" font-family="Helvetica, Arial, sans-serif" font-size="16" fill="#a59cc0">Sets all house cusps</text>
  <path d="M 70 215.8 L 70.5 218.5 L 73.2 219 L 70.5 219.5 L 70 222.2 L 69.5 219.5 L 66.8 219 L 69.5 218.5 Z" fill="#d4af6a" opacity="0.8"/>
  <text x="84" y="224.0" font-family="Helvetica, Arial, sans-serif" font-size="16" fill="#a59cc0">Outward arrival &amp; body</text>
  <path d="M 70 244.8 L 70.5 247.5 L 73.2 248 L 70.5 248.5 L 70 251.2 L 69.5 248.5 L 66.8 248 L 69.5 247.5 Z" fill="#d4af6a" opacity="0.8"/>
  <text x="84" y="253.0" font-family="Helvetica, Arial, sans-serif" font-size="16" fill="#a59cc0">Structural anchor</text>
  <path d="M 380 279.5 L 380.7 283.3 L 384.5 284 L 380.7 284.7 L 380 288.5 L 379.3 284.7 L 375.5 284 L 379.3 283.3 Z" fill="#d4af6a" opacity="0.65"/>
  <rect x="46" y="297" width="668" height="172.0" rx="14" fill="#1d1740" fill-opacity="0.5" stroke="#d4af6a" stroke-opacity="0.22" stroke-width="0.9"/>
  <rect x="46" y="297" width="668" height="3.5" rx="1.8" fill="#d4af6a" fill-opacity="0.6"/>
  <path d="M 380 295.1 L 380.5 298.0 L 383.4 298.5 L 380.5 299.0 L 380 301.9 L 379.5 299.0 L 376.6 298.5 L 379.5 298.0 Z" fill="#f6e6bf" opacity="0.7"/>
  <text x="380" y="326.0" text-anchor="middle" font-family="Georgia, 'Times New Roman', serif" font-size="21" font-weight="700" letter-spacing="0.3" fill="#f3effb">Sun Sign</text>
  <path d="M 70 355.8 L 70.5 358.5 L 73.2 359 L 70.5 359.5 L 70 362.2 L 69.5 359.5 L 66.8 359 L 69.5 358.5 Z" fill="#d4af6a" opacity="0.8"/>
  <text x="84" y="364.0" font-family="Helvetica, Arial, sans-serif" font-size="16" fill="#a59cc0">Needs date only</text>
  <path d="M 70 384.8 L 70.5 387.5 L 73.2 388 L 70.5 388.5 L 70 391.2 L 69.5 388.5 L 66.8 388 L 69.5 387.5 Z" fill="#d4af6a" opacity="0.8"/>
  <text x="84" y="393.0" font-family="Helvetica, Arial, sans-serif" font-size="16" fill="#a59cc0">Core identity</text>
  <path d="M 70 413.8 L 70.5 416.5 L 73.2 417 L 70.5 417.5 L 70 420.2 L 69.5 417.5 L 66.8 417 L 69.5 416.5 Z" fill="#d4af6a" opacity="0.8"/>
  <text x="84" y="422.0" font-family="Helvetica, Arial, sans-serif" font-size="16" fill="#a59cc0">Inner self beneath</text>
  <path d="M 70 442.8 L 70.5 445.5 L 73.2 446 L 70.5 446.5 L 70 449.2 L 69.5 446.5 L 66.8 446 L 69.5 445.5 Z" fill="#d4af6a" opacity="0.8"/>
  <text x="84" y="451.0" font-family="Helvetica, Arial, sans-serif" font-size="16" fill="#a59cc0">Calendar convenience</text>
  <path d="M 380 477.5 L 380.7 481.3 L 384.5 482 L 380.7 482.7 L 380 486.5 L 379.3 482.7 L 375.5 482 L 379.3 481.3 Z" fill="#d4af6a" opacity="0.65"/>
  <rect x="46" y="495" width="668" height="172.0" rx="14" fill="#1d1740" fill-opacity="0.5" stroke="#d4af6a" stroke-opacity="0.22" stroke-width="0.9"/>
  <rect x="46" y="495" width="668" height="3.5" rx="1.8" fill="#d4af6a" fill-opacity="0.6"/>
  <path d="M 380 493.1 L 380.5 496.0 L 383.4 496.5 L 380.5 497.0 L 380 499.9 L 379.5 497.0 L 376.6 496.5 L 379.5 496.0 Z" fill="#f6e6bf" opacity="0.7"/>
  <text x="380" y="524.0" text-anchor="middle" font-family="Georgia, 'Times New Roman', serif" font-size="21" font-weight="700" letter-spacing="0.3" fill="#f3effb">Moon Sign</text>
  <path d="M 70 553.8 L 70.5 556.5 L 73.2 557 L 70.5 557.5 L 70 560.2 L 69.5 557.5 L 66.8 557 L 69.5 556.5 Z" fill="#d4af6a" opacity="0.8"/>
  <text x="84" y="562.0" font-family="Helvetica, Arial, sans-serif" font-size="16" fill="#a59cc0">Needs date &amp; time</text>
  <path d="M 70 582.8 L 70.5 585.5 L 73.2 586 L 70.5 586.5 L 70 589.2 L 69.5 586.5 L 66.8 586 L 69.5 585.5 Z" fill="#d4af6a" opacity="0.8"/>
  <text x="84" y="591.0" font-family="Helvetica, Arial, sans-serif" font-size="16" fill="#a59cc0">Private emotional weather</text>
  <path d="M 70 611.8 L 70.5 614.5 L 73.2 615 L 70.5 615.5 L 70 618.2 L 69.5 615.5 L 66.8 615 L 69.5 614.5 Z" fill="#d4af6a" opacity="0.8"/>
  <text x="84" y="620.0" font-family="Helvetica, Arial, sans-serif" font-size="16" fill="#a59cc0">Inward feeling life</text>
  <path d="M 70 640.8 L 70.5 643.5 L 73.2 644 L 70.5 644.5 L 70 647.2 L 69.5 644.5 L 66.8 644 L 69.5 643.5 Z" fill="#d4af6a" opacity="0.8"/>
  <text x="84" y="649.0" font-family="Helvetica, Arial, sans-serif" font-size="16" fill="#a59cc0">Hidden from first impression</text>
  <path d="M 202.22749999999988 672.4 L 202.6 674.6 L 204.8 675 L 202.6 675.4 L 202.22749999999988 677.6 L 201.8 675.4 L 199.6 675 L 201.8 674.6 Z" fill="#d4af6a" opacity="0.5"/>
  <text x="380" y="679" text-anchor="middle" font-family="Georgia, 'Times New Roman', serif" font-style="italic" font-size="11.5" fill="#7b738f">A self-reflection framework — tendencies, not predictions</text>
  <path d="M 557.7725000000002 672.4 L 558.2 674.6 L 560.4 675 L 558.2 675.4 L 557.7725000000002 677.6 L 557.4 675.4 L 555.2 675 L 557.4 674.6 Z" fill="#d4af6a" opacity="0.5"/>
</svg>
