<svg xmlns="http://www.w3.org/2000/svg" viewBox="0 0 760 614" role="img" aria-label="Three Layers of the Birth-Month Pattern">
  <defs>
    <linearGradient id="bestsoccerplayerszodiacsign1en-panel" x1="0" y1="0" x2="0.4" y2="1">
      <stop offset="0" stop-color="#1a1433"/><stop offset="0.55" stop-color="#120e26"/><stop offset="1" stop-color="#09081a"/>
    </linearGradient>
    <radialGradient id="bestsoccerplayerszodiacsign1en-foil" cx="0.42" cy="0.34" r="0.75">
      <stop offset="0" stop-color="#fbf0d2"/><stop offset="0.5" stop-color="#e8c882"/><stop offset="1" stop-color="#b8923f"/>
    </radialGradient>
    <radialGradient id="bestsoccerplayerszodiacsign1en-glow" cx="0.5" cy="0.5" r="0.5">
      <stop offset="0" stop-color="#f6e6bf"/><stop offset="1" stop-color="#f6e6bf" stop-opacity="0"/>
    </radialGradient>
    <radialGradient id="bestsoccerplayerszodiacsign1en-neb1" cx="0.5" cy="0.5" r="0.5">
      <stop offset="0" stop-color="#6f4bb0" stop-opacity="0.28"/><stop offset="1" stop-color="#6f4bb0" stop-opacity="0"/>
    </radialGradient>
    <radialGradient id="bestsoccerplayerszodiacsign1en-neb2" cx="0.5" cy="0.5" r="0.5">
      <stop offset="0" stop-color="#d4af6a" stop-opacity="0.16"/><stop offset="1" stop-color="#d4af6a" stop-opacity="0"/>
    </radialGradient>
    <linearGradient id="bestsoccerplayerszodiacsign1en-rule" x1="0" y1="0" x2="1" y2="0">
      <stop offset="0" stop-color="#d4af6a" stop-opacity="0"/><stop offset="0.5" stop-color="#d4af6a" stop-opacity="0.6"/><stop offset="1" stop-color="#d4af6a" stop-opacity="0"/>
    </linearGradient>
  </defs>
  <rect x="1.5" y="1.5" width="757" height="611" rx="22" fill="url(#bestsoccerplayerszodiacsign1en-panel)"/>
  <ellipse cx="198" cy="147" rx="380" ry="209" fill="url(#bestsoccerplayerszodiacsign1en-neb1)"/>
  <ellipse cx="623" cy="491" rx="334" ry="196" fill="url(#bestsoccerplayerszodiacsign1en-neb2)"/>
  <circle cx="397.7" cy="581.7" r="0.95" fill="#cfc8ea" opacity="0.42"/><circle cx="402.6" cy="70.1" r="0.61" fill="#cfc8ea" opacity="0.14"/><circle cx="559.6" cy="405.7" r="1.60" fill="#cfc8ea" opacity="0.41"/><circle cx="229.9" cy="27.0" r="1.19" fill="#cfc8ea" opacity="0.28"/><circle cx="313.3" cy="98.1" r="0.63" fill="#cfc8ea" opacity="0.22"/><circle cx="610.6" cy="418.2" r="1.03" fill="#cfc8ea" opacity="0.42"/><circle cx="54.5" cy="216.1" r="0.88" fill="#cfc8ea" opacity="0.19"/><circle cx="153.0" cy="348.9" r="0.63" fill="#cfc8ea" opacity="0.37"/><circle cx="332.8" cy="174.8" r="1.20" fill="#cfc8ea" opacity="0.48"/><circle cx="223.2" cy="596.0" r="1.36" fill="#cfc8ea" opacity="0.48"/><circle cx="685.6" cy="373.8" r="1.55" fill="#cfc8ea" opacity="0.38"/><circle cx="81.7" cy="375.0" r="1.45" fill="#cfc8ea" opacity="0.32"/><circle cx="57.6" cy="431.4" r="0.85" fill="#cfc8ea" opacity="0.25"/><circle cx="27.5" cy="315.2" r="0.50" fill="#cfc8ea" opacity="0.35"/><circle cx="502.0" cy="394.3" r="0.93" fill="#cfc8ea" opacity="0.52"/><circle cx="414.4" cy="153.2" r="0.67" fill="#cfc8ea" opacity="0.20"/><circle cx="436.6" cy="59.8" r="1.30" fill="#cfc8ea" opacity="0.21"/><circle cx="183.7" cy="508.4" r="0.88" fill="#cfc8ea" opacity="0.34"/><circle cx="435.3" cy="272.1" r="0.47" fill="#cfc8ea" opacity="0.22"/><circle cx="580.5" cy="472.8" r="0.72" fill="#cfc8ea" opacity="0.25"/><circle cx="186.6" cy="180.8" r="1.04" fill="#cfc8ea" opacity="0.53"/><circle cx="462.9" cy="108.5" r="1.31" fill="#cfc8ea" opacity="0.43"/><circle cx="728.0" cy="407.6" r="0.60" fill="#cfc8ea" opacity="0.28"/><circle cx="715.7" cy="320.2" r="0.61" fill="#cfc8ea" opacity="0.45"/><circle cx="85.3" cy="35.4" r="1.09" fill="#cfc8ea" opacity="0.53"/><circle cx="304.5" cy="92.0" r="0.92" fill="#cfc8ea" opacity="0.43"/><circle cx="455.1" cy="445.5" r="1.36" fill="#cfc8ea" opacity="0.37"/><circle cx="379.9" cy="387.1" r="1.07" fill="#cfc8ea" opacity="0.31"/><circle cx="106.4" cy="296.8" r="0.85" fill="#cfc8ea" opacity="0.54"/><circle cx="728.1" cy="600.2" r="0.56" fill="#cfc8ea" opacity="0.25"/><circle cx="290.7" cy="351.0" r="1.44" fill="#cfc8ea" opacity="0.24"/><circle cx="125.0" cy="582.2" r="1.27" fill="#cfc8ea" opacity="0.18"/><circle cx="309.6" cy="383.4" r="0.90" fill="#cfc8ea" opacity="0.34"/><circle cx="16.6" cy="107.3" r="1.02" fill="#cfc8ea" opacity="0.26"/><circle cx="18.7" cy="119.6" r="0.48" fill="#cfc8ea" opacity="0.26"/><circle cx="127.7" cy="296.2" r="0.73" fill="#cfc8ea" opacity="0.12"/><circle cx="392.4" cy="402.3" r="1.24" fill="#cfc8ea" opacity="0.34"/><circle cx="293.3" cy="443.1" r="0.58" fill="#cfc8ea" opacity="0.41"/><circle cx="139.1" cy="565.0" r="1.55" fill="#cfc8ea" opacity="0.14"/><circle cx="591.1" cy="283.9" r="1.60" fill="#cfc8ea" opacity="0.33"/><circle cx="351.9" cy="210.9" r="0.86" fill="#cfc8ea" opacity="0.27"/><circle cx="348.1" cy="385.4" r="1.23" fill="#cfc8ea" opacity="0.52"/><circle cx="174.0" cy="102.8" r="1.06" fill="#cfc8ea" opacity="0.38"/><circle cx="707.4" cy="459.4" r="1.01" fill="#cfc8ea" opacity="0.35"/><circle cx="474.1" cy="29.1" r="0.79" fill="#cfc8ea" opacity="0.25"/><circle cx="301.4" cy="212.9" r="0.66" fill="#cfc8ea" opacity="0.50"/><circle cx="447.4" cy="300.5" r="1.60" fill="#cfc8ea" opacity="0.13"/><circle cx="515.6" cy="434.3" r="1.55" fill="#cfc8ea" opacity="0.23"/><circle cx="525.7" cy="106.1" r="1.52" fill="#cfc8ea" opacity="0.51"/><circle cx="452.2" cy="230.9" r="0.61" fill="#cfc8ea" opacity="0.24"/><circle cx="312.3" cy="68.0" r="1.68" fill="#cfc8ea" opacity="0.38"/><circle cx="606.8" cy="337.1" r="0.63" fill="#cfc8ea" opacity="0.30"/><path d="M 411.97086075134575 36.8 L 412.6 39.9 L 415.6 40.44213758315891 L 412.6 41.0 L 411.97086075134575 44.1 L 411.4 41.0 L 408.3 40.44213758315891 L 411.4 39.9 Z" fill="#f6e6bf" opacity="0.7063553778454661"/><path d="M 637.538775736466 316.3 L 637.9 318.3 L 640.0 318.7040825197473 L 637.9 319.1 L 637.538775736466 321.1 L 637.1 319.1 L 635.1 318.7040825197473 L 637.1 318.3 Z" fill="#f6e6bf" opacity="0.5065292631275952"/><path d="M 240.53425474651158 193.8 L 241.2 197.1 L 244.4 197.72019361238927 L 241.2 198.3 L 240.53425474651158 201.6 L 239.9 198.3 L 236.6 197.72019361238927 L 239.9 197.1 Z" fill="#f6e6bf" opacity="0.6983079757541418"/><path d="M 390.10113284923136 200.7 L 390.6 203.5 L 393.3 203.97777984011918 L 390.6 204.5 L 390.10113284923136 207.2 L 389.6 204.5 L 386.9 203.97777984011918 L 389.6 203.5 Z" fill="#f6e6bf" opacity="0.7806025865487753"/><path d="M 237.3010612744838 495.2 L 237.7 497.3 L 239.8 497.671677342616 L 237.7 498.1 L 237.3010612744838 500.1 L 236.9 498.1 L 234.8 497.671677342616 L 236.9 497.3 Z" fill="#f6e6bf" opacity="0.749040093459189"/><path d="M 229.9 27.0 L 81.7 375.0 L 183.7 508.4 L 301.4 212.9 L 447.4 300.5" fill="none" stroke="#d4af6a" stroke-width="0.6" opacity="0.12"/>
  <rect x="1.5" y="1.5" width="757" height="611" rx="22" fill="none" stroke="#d4af6a" stroke-opacity="0.34" stroke-width="1.2"/>
  <rect x="7" y="7" width="746" height="600" rx="17" fill="none" stroke="#d4af6a" stroke-opacity="0.12" stroke-width="0.8"/>
  <path d="M 16 12.8 L 16.5 15.5 L 19.2 16 L 16.5 16.5 L 16 19.2 L 15.5 16.5 L 12.8 16 L 15.5 15.5 Z" fill="#d4af6a" opacity="0.4"/><path d="M 744 12.8 L 744.5 15.5 L 747.2 16 L 744.5 16.5 L 744 19.2 L 743.5 16.5 L 740.8 16 L 743.5 15.5 Z" fill="#d4af6a" opacity="0.4"/><path d="M 16 594.8 L 16.5 597.5 L 19.2 598 L 16.5 598.5 L 16 601.2 L 15.5 598.5 L 12.8 598 L 15.5 597.5 Z" fill="#d4af6a" opacity="0.4"/><path d="M 744 594.8 L 744.5 597.5 L 747.2 598 L 744.5 598.5 L 744 601.2 L 743.5 598.5 L 740.8 598 L 743.5 597.5 Z" fill="#d4af6a" opacity="0.4"/>
  <text x="380" y="46" text-anchor="middle" font-family="Georgia, 'Times New Roman', serif" font-size="22" letter-spacing="0.4" fill="#efeaf8">Three Layers of the Birth-Month Pattern</text>
  <line x1="230" y1="67" x2="368" y2="67" stroke="url(#bestsoccerplayerszodiacsign1en-rule)" stroke-width="1"/>
  <line x1="392" y1="67" x2="530" y2="67" stroke="url(#bestsoccerplayerszodiacsign1en-rule)" stroke-width="1"/>
  <path d="M 380 62.0 L 380.8 66.2 L 385.0 67 L 380.8 67.8 L 380 72.0 L 379.2 67.8 L 375.0 67 L 379.2 66.2 Z" fill="#d4af6a" opacity="0.85"/>

  <rect x="46" y="99" width="668" height="143.0" rx="14" fill="#1d1740" fill-opacity="0.5" stroke="#d4af6a" stroke-opacity="0.22" stroke-width="0.9"/>
  <rect x="46" y="99" width="668" height="3.5" rx="1.8" fill="#d4af6a" fill-opacity="0.6"/>
  <path d="M 380 97.1 L 380.5 100.0 L 383.4 100.5 L 380.5 101.0 L 380 103.9 L 379.5 101.0 L 376.6 100.5 L 379.5 100.0 Z" fill="#f6e6bf" opacity="0.7"/>
  <text x="380" y="128.0" text-anchor="middle" font-family="Georgia, 'Times New Roman', serif" font-size="21" font-weight="700" letter-spacing="0.3" fill="#f3effb">Relative Age Effect</text>
  <path d="M 70 157.8 L 70.5 160.5 L 73.2 161 L 70.5 161.5 L 70 164.2 L 69.5 161.5 L 66.8 161 L 69.5 160.5 Z" fill="#d4af6a" opacity="0.8"/>
  <text x="84" y="166.0" font-family="Helvetica, Arial, sans-serif" font-size="16" fill="#a59cc0">Older-in-cohort children selected more often</text>
  <path d="M 70 186.8 L 70.5 189.5 L 73.2 190 L 70.5 190.5 L 70 193.2 L 69.5 190.5 L 66.8 190 L 69.5 189.5 Z" fill="#d4af6a" opacity="0.8"/>
  <text x="84" y="195.0" font-family="Helvetica, Arial, sans-serif" font-size="16" fill="#a59cc0">Births cluster just after the age-group cutoff</text>
  <path d="M 70 215.8 L 70.5 218.5 L 73.2 219 L 70.5 219.5 L 70 222.2 L 69.5 219.5 L 66.8 219 L 69.5 218.5 Z" fill="#d4af6a" opacity="0.8"/>
  <text x="84" y="224.0" font-family="Helvetica, Arial, sans-serif" font-size="16" fill="#a59cc0">More elite players born early in the selection year</text>
  <path d="M 380 250.5 L 380.7 254.3 L 384.5 255 L 380.7 255.7 L 380 259.5 L 379.3 255.7 L 375.5 255 L 379.3 254.3 Z" fill="#d4af6a" opacity="0.65"/>
  <rect x="46" y="268" width="668" height="143.0" rx="14" fill="#1d1740" fill-opacity="0.5" stroke="#d4af6a" stroke-opacity="0.22" stroke-width="0.9"/>
  <rect x="46" y="268" width="668" height="3.5" rx="1.8" fill="#d4af6a" fill-opacity="0.6"/>
  <path d="M 380 266.1 L 380.5 269.0 L 383.4 269.5 L 380.5 270.0 L 380 272.9 L 379.5 270.0 L 376.6 269.5 L 379.5 269.0 Z" fill="#f6e6bf" opacity="0.7"/>
  <text x="380" y="297.0" text-anchor="middle" font-family="Georgia, 'Times New Roman', serif" font-size="21" font-weight="700" letter-spacing="0.3" fill="#f3effb">Cutoff Dependence</text>
  <path d="M 70 326.8 L 70.5 329.5 L 73.2 330 L 70.5 330.5 L 70 333.2 L 69.5 330.5 L 66.8 330 L 69.5 329.5 Z" fill="#d4af6a" opacity="0.8"/>
  <text x="84" y="335.0" font-family="Helvetica, Arial, sans-serif" font-size="16" fill="#a59cc0">Lucky months shift when the cutoff date moves</text>
  <path d="M 70 355.8 L 70.5 358.5 L 73.2 359 L 70.5 359.5 L 70 362.2 L 69.5 359.5 L 66.8 359 L 69.5 358.5 Z" fill="#d4af6a" opacity="0.8"/>
  <text x="84" y="364.0" font-family="Helvetica, Arial, sans-serif" font-size="16" fill="#a59cc0">Favored quarter follows the cutoff, not the stars</text>
  <path d="M 70 384.8 L 70.5 387.5 L 73.2 388 L 70.5 388.5 L 70 391.2 L 69.5 388.5 L 66.8 388 L 69.5 387.5 Z" fill="#d4af6a" opacity="0.8"/>
  <text x="84" y="393.0" font-family="Helvetica, Arial, sans-serif" font-size="16" fill="#a59cc0">Cutoff change rules out any star-based cause</text>
  <path d="M 380 419.5 L 380.7 423.3 L 384.5 424 L 380.7 424.7 L 380 428.5 L 379.3 424.7 L 375.5 424 L 379.3 423.3 Z" fill="#d4af6a" opacity="0.65"/>
  <rect x="46" y="437" width="668" height="143.0" rx="14" fill="#1d1740" fill-opacity="0.5" stroke="#d4af6a" stroke-opacity="0.22" stroke-width="0.9"/>
  <rect x="46" y="437" width="668" height="3.5" rx="1.8" fill="#d4af6a" fill-opacity="0.6"/>
  <path d="M 380 435.1 L 380.5 438.0 L 383.4 438.5 L 380.5 439.0 L 380 441.9 L 379.5 439.0 L 376.6 438.5 L 379.5 438.0 Z" fill="#f6e6bf" opacity="0.7"/>
  <text x="380" y="466.0" text-anchor="middle" font-family="Georgia, 'Times New Roman', serif" font-size="21" font-weight="700" letter-spacing="0.3" fill="#f3effb">Zodiac as Label</text>
  <path d="M 70 495.8 L 70.5 498.5 L 73.2 499 L 70.5 499.5 L 70 502.2 L 69.5 499.5 L 66.8 499 L 69.5 498.5 Z" fill="#d4af6a" opacity="0.8"/>
  <text x="84" y="504.0" font-family="Helvetica, Arial, sans-serif" font-size="16" fill="#a59cc0">Maps a birth month onto a sign — not a cause</text>
  <path d="M 70 524.8 L 70.5 527.5 L 73.2 528 L 70.5 528.5 L 70 531.2 L 69.5 528.5 L 66.8 528 L 69.5 527.5 Z" fill="#d4af6a" opacity="0.8"/>
  <text x="84" y="533.0" font-family="Helvetica, Arial, sans-serif" font-size="16" fill="#a59cc0">A sign looks lucky only because of the calendar</text>
  <path d="M 70 553.8 L 70.5 556.5 L 73.2 557 L 70.5 557.5 L 70 560.2 L 69.5 557.5 L 66.8 557 L 69.5 556.5 Z" fill="#d4af6a" opacity="0.8"/>
  <text x="84" y="562.0" font-family="Helvetica, Arial, sans-serif" font-size="16" fill="#a59cc0">Pattern vanishes when corrected for age bands</text>
  <path d="M 202.22749999999988 585.4 L 202.6 587.6 L 204.8 588 L 202.6 588.4 L 202.22749999999988 590.6 L 201.8 588.4 L 199.6 588 L 201.8 587.6 Z" fill="#d4af6a" opacity="0.5"/>
  <text x="380" y="592" text-anchor="middle" font-family="Georgia, 'Times New Roman', serif" font-style="italic" font-size="11.5" fill="#7b738f">A self-reflection framework — tendencies, not predictions</text>
  <path d="M 557.7725000000002 585.4 L 558.2 587.6 L 560.4 588 L 558.2 588.4 L 557.7725000000002 590.6 L 557.4 588.4 L 555.2 588 L 557.4 587.6 Z" fill="#d4af6a" opacity="0.5"/>
</svg>
