<svg xmlns="http://www.w3.org/2000/svg" viewBox="0 0 760 445" role="img" aria-label="True Node vs Mean Node: What Changes and What Doesn't">
  <defs>
    <linearGradient id="bluenodeastrology1en-panel" x1="0" y1="0" x2="0.4" y2="1">
      <stop offset="0" stop-color="#1a1433"/><stop offset="0.55" stop-color="#120e26"/><stop offset="1" stop-color="#09081a"/>
    </linearGradient>
    <radialGradient id="bluenodeastrology1en-foil" cx="0.42" cy="0.34" r="0.75">
      <stop offset="0" stop-color="#fbf0d2"/><stop offset="0.5" stop-color="#e8c882"/><stop offset="1" stop-color="#b8923f"/>
    </radialGradient>
    <radialGradient id="bluenodeastrology1en-glow" cx="0.5" cy="0.5" r="0.5">
      <stop offset="0" stop-color="#f6e6bf"/><stop offset="1" stop-color="#f6e6bf" stop-opacity="0"/>
    </radialGradient>
    <radialGradient id="bluenodeastrology1en-neb1" cx="0.5" cy="0.5" r="0.5">
      <stop offset="0" stop-color="#6f4bb0" stop-opacity="0.28"/><stop offset="1" stop-color="#6f4bb0" stop-opacity="0"/>
    </radialGradient>
    <radialGradient id="bluenodeastrology1en-neb2" cx="0.5" cy="0.5" r="0.5">
      <stop offset="0" stop-color="#d4af6a" stop-opacity="0.16"/><stop offset="1" stop-color="#d4af6a" stop-opacity="0"/>
    </radialGradient>
    <linearGradient id="bluenodeastrology1en-rule" x1="0" y1="0" x2="1" y2="0">
      <stop offset="0" stop-color="#d4af6a" stop-opacity="0"/><stop offset="0.5" stop-color="#d4af6a" stop-opacity="0.6"/><stop offset="1" stop-color="#d4af6a" stop-opacity="0"/>
    </linearGradient>
  </defs>
  <rect x="1.5" y="1.5" width="757" height="442" rx="22" fill="url(#bluenodeastrology1en-panel)"/>
  <ellipse cx="198" cy="107" rx="380" ry="151" fill="url(#bluenodeastrology1en-neb1)"/>
  <ellipse cx="623" cy="356" rx="334" ry="142" fill="url(#bluenodeastrology1en-neb2)"/>
  <circle cx="265.6" cy="55.1" r="1.62" fill="#cfc8ea" opacity="0.20"/><circle cx="299.4" cy="100.8" r="0.97" fill="#cfc8ea" opacity="0.29"/><circle cx="389.5" cy="303.9" r="0.75" fill="#cfc8ea" opacity="0.51"/><circle cx="478.3" cy="61.1" r="1.66" fill="#cfc8ea" opacity="0.32"/><circle cx="737.3" cy="67.9" r="1.65" fill="#cfc8ea" opacity="0.30"/><circle cx="413.4" cy="394.9" r="1.69" fill="#cfc8ea" opacity="0.25"/><circle cx="395.9" cy="152.1" r="0.98" fill="#cfc8ea" opacity="0.36"/><circle cx="434.6" cy="43.6" r="1.66" fill="#cfc8ea" opacity="0.50"/><circle cx="423.2" cy="150.5" r="1.53" fill="#cfc8ea" opacity="0.52"/><circle cx="695.9" cy="329.3" r="1.09" fill="#cfc8ea" opacity="0.18"/><circle cx="458.8" cy="70.2" r="0.59" fill="#cfc8ea" opacity="0.21"/><circle cx="67.3" cy="128.2" r="0.94" fill="#cfc8ea" opacity="0.54"/><circle cx="218.6" cy="419.6" r="1.24" fill="#cfc8ea" opacity="0.16"/><circle cx="117.7" cy="275.1" r="0.89" fill="#cfc8ea" opacity="0.37"/><circle cx="279.0" cy="74.2" r="1.55" fill="#cfc8ea" opacity="0.32"/><circle cx="438.3" cy="167.2" r="1.53" fill="#cfc8ea" opacity="0.35"/><circle cx="414.8" cy="352.9" r="0.95" fill="#cfc8ea" opacity="0.30"/><circle cx="710.9" cy="54.4" r="1.66" fill="#cfc8ea" opacity="0.35"/><circle cx="471.5" cy="218.8" r="1.24" fill="#cfc8ea" opacity="0.33"/><circle cx="429.0" cy="104.2" r="0.74" fill="#cfc8ea" opacity="0.37"/><circle cx="341.9" cy="326.5" r="1.17" fill="#cfc8ea" opacity="0.50"/><circle cx="521.9" cy="42.2" r="0.58" fill="#cfc8ea" opacity="0.14"/><circle cx="90.8" cy="179.9" r="0.81" fill="#cfc8ea" opacity="0.51"/><circle cx="356.7" cy="277.7" r="0.68" fill="#cfc8ea" opacity="0.30"/><circle cx="644.9" cy="216.3" r="1.27" fill="#cfc8ea" opacity="0.18"/><circle cx="441.9" cy="429.5" r="0.52" fill="#cfc8ea" opacity="0.27"/><circle cx="522.1" cy="74.0" r="1.49" fill="#cfc8ea" opacity="0.22"/><circle cx="730.2" cy="311.0" r="0.66" fill="#cfc8ea" opacity="0.18"/><circle cx="248.2" cy="386.3" r="0.99" fill="#cfc8ea" opacity="0.37"/><circle cx="548.2" cy="155.6" r="1.21" fill="#cfc8ea" opacity="0.47"/><circle cx="155.9" cy="314.6" r="0.57" fill="#cfc8ea" opacity="0.41"/><circle cx="571.7" cy="41.0" r="0.71" fill="#cfc8ea" opacity="0.43"/><circle cx="116.8" cy="387.1" r="1.55" fill="#cfc8ea" opacity="0.25"/><circle cx="42.5" cy="66.4" r="0.90" fill="#cfc8ea" opacity="0.34"/><circle cx="511.8" cy="88.0" r="1.50" fill="#cfc8ea" opacity="0.32"/><circle cx="653.2" cy="152.5" r="1.56" fill="#cfc8ea" opacity="0.47"/><circle cx="348.8" cy="53.1" r="1.12" fill="#cfc8ea" opacity="0.15"/><circle cx="337.4" cy="228.9" r="0.61" fill="#cfc8ea" opacity="0.53"/><path d="M 498.88956641592085 33.3 L 499.4 36.0 L 502.1 36.566083817277104 L 499.4 37.1 L 498.88956641592085 39.8 L 498.4 37.1 L 495.7 36.566083817277104 L 498.4 36.0 Z" fill="#f6e6bf" opacity="0.5624923137016594"/><path d="M 475.3307422567159 145.5 L 475.9 148.4 L 478.8 148.9592686179094 L 475.9 149.5 L 475.3307422567159 152.4 L 474.8 149.5 L 471.9 148.9592686179094 L 474.8 148.4 Z" fill="#f6e6bf" opacity="0.7637821037322283"/><path d="M 202.93894402123988 37.5 L 203.4 39.7 L 205.6 40.15096273319796 L 203.4 40.6 L 202.93894402123988 42.8 L 202.5 40.6 L 200.3 40.15096273319796 L 202.5 39.7 Z" fill="#f6e6bf" opacity="0.6464750523678958"/><path d="M 640.5343678612262 322.0 L 641.2 325.3 L 644.4 325.90322179859504 L 641.2 326.5 L 640.5343678612262 329.8 L 639.9 326.5 L 636.6 325.90322179859504 L 639.9 325.3 Z" fill="#f6e6bf" opacity="0.7904968636110425"/><path d="M 653.5400846842676 211.7 L 653.9 213.7 L 656.0 214.08929606014863 L 653.9 214.5 L 653.5400846842676 216.5 L 653.2 214.5 L 651.1 214.08929606014863 L 653.2 213.7 Z" fill="#f6e6bf" opacity="0.694944002572447"/><path d="M 389.5 303.9 L 478.3 61.1 L 341.9 326.5 L 644.9 216.3 L 441.9 429.5" fill="none" stroke="#d4af6a" stroke-width="0.6" opacity="0.12"/>
  <rect x="1.5" y="1.5" width="757" height="442" rx="22" fill="none" stroke="#d4af6a" stroke-opacity="0.34" stroke-width="1.2"/>
  <rect x="7" y="7" width="746" height="431" rx="17" fill="none" stroke="#d4af6a" stroke-opacity="0.12" stroke-width="0.8"/>
  <path d="M 16 12.8 L 16.5 15.5 L 19.2 16 L 16.5 16.5 L 16 19.2 L 15.5 16.5 L 12.8 16 L 15.5 15.5 Z" fill="#d4af6a" opacity="0.4"/><path d="M 744 12.8 L 744.5 15.5 L 747.2 16 L 744.5 16.5 L 744 19.2 L 743.5 16.5 L 740.8 16 L 743.5 15.5 Z" fill="#d4af6a" opacity="0.4"/><path d="M 16 425.8 L 16.5 428.5 L 19.2 429 L 16.5 429.5 L 16 432.2 L 15.5 429.5 L 12.8 429 L 15.5 428.5 Z" fill="#d4af6a" opacity="0.4"/><path d="M 744 425.8 L 744.5 428.5 L 747.2 429 L 744.5 429.5 L 744 432.2 L 743.5 429.5 L 740.8 429 L 743.5 428.5 Z" fill="#d4af6a" opacity="0.4"/>
  <text x="380" y="46" text-anchor="middle" font-family="Georgia, 'Times New Roman', serif" font-size="22" letter-spacing="0.4" fill="#efeaf8">True Node vs Mean Node: What Changes and What Doesn't</text>
  <line x1="230" y1="67" x2="368" y2="67" stroke="url(#bluenodeastrology1en-rule)" stroke-width="1"/>
  <line x1="392" y1="67" x2="530" y2="67" stroke="url(#bluenodeastrology1en-rule)" stroke-width="1"/>
  <path d="M 380 62.0 L 380.8 66.2 L 385.0 67 L 380.8 67.8 L 380 72.0 L 379.2 67.8 L 375.0 67 L 379.2 66.2 Z" fill="#d4af6a" opacity="0.85"/>

  <rect x="46" y="99" width="668" height="143.0" rx="14" fill="#1d1740" fill-opacity="0.5" stroke="#d4af6a" stroke-opacity="0.22" stroke-width="0.9"/>
  <rect x="46" y="99" width="668" height="3.5" rx="1.8" fill="#d4af6a" fill-opacity="0.6"/>
  <path d="M 380 97.1 L 380.5 100.0 L 383.4 100.5 L 380.5 101.0 L 380 103.9 L 379.5 101.0 L 376.6 100.5 L 379.5 100.0 Z" fill="#f6e6bf" opacity="0.7"/>
  <text x="380" y="128.0" text-anchor="middle" font-family="Georgia, 'Times New Roman', serif" font-size="21" font-weight="700" letter-spacing="0.3" fill="#f3effb">True Node</text>
  <path d="M 70 157.8 L 70.5 160.5 L 73.2 161 L 70.5 161.5 L 70 164.2 L 69.5 161.5 L 66.8 161 L 69.5 160.5 Z" fill="#d4af6a" opacity="0.8"/>
  <text x="84" y="166.0" font-family="Helvetica, Arial, sans-serif" font-size="16" fill="#a59cc0">Tracks the node's actual, slightly wobbling position</text>
  <path d="M 70 186.8 L 70.5 189.5 L 73.2 190 L 70.5 190.5 L 70 193.2 L 69.5 190.5 L 66.8 190 L 69.5 189.5 Z" fill="#d4af6a" opacity="0.8"/>
  <text x="84" y="195.0" font-family="Helvetica, Arial, sans-serif" font-size="16" fill="#a59cc0">Can appear to drift or move backward over short spans</text>
  <path d="M 70 215.8 L 70.5 218.5 L 73.2 219 L 70.5 219.5 L 70 222.2 L 69.5 219.5 L 66.8 219 L 69.5 218.5 Z" fill="#d4af6a" opacity="0.8"/>
  <text x="84" y="224.0" font-family="Helvetica, Arial, sans-serif" font-size="16" fill="#a59cc0">More precise degree — may shift sign near a cusp</text>
  <path d="M 380 250.5 L 380.7 254.3 L 384.5 255 L 380.7 255.7 L 380 259.5 L 379.3 255.7 L 375.5 255 L 379.3 254.3 Z" fill="#d4af6a" opacity="0.65"/>
  <rect x="46" y="268" width="668" height="143.0" rx="14" fill="#1d1740" fill-opacity="0.5" stroke="#d4af6a" stroke-opacity="0.22" stroke-width="0.9"/>
  <rect x="46" y="268" width="668" height="3.5" rx="1.8" fill="#d4af6a" fill-opacity="0.6"/>
  <path d="M 380 266.1 L 380.5 269.0 L 383.4 269.5 L 380.5 270.0 L 380 272.9 L 379.5 270.0 L 376.6 269.5 L 379.5 269.0 Z" fill="#f6e6bf" opacity="0.7"/>
  <text x="380" y="297.0" text-anchor="middle" font-family="Georgia, 'Times New Roman', serif" font-size="21" font-weight="700" letter-spacing="0.3" fill="#f3effb">Mean Node</text>
  <path d="M 70 326.8 L 70.5 329.5 L 73.2 330 L 70.5 330.5 L 70 333.2 L 69.5 330.5 L 66.8 330 L 69.5 329.5 Z" fill="#d4af6a" opacity="0.8"/>
  <text x="84" y="335.0" font-family="Helvetica, Arial, sans-serif" font-size="16" fill="#a59cc0">Uses a smoothed average of the node's orbital path</text>
  <path d="M 70 355.8 L 70.5 358.5 L 73.2 359 L 70.5 359.5 L 70 362.2 L 69.5 359.5 L 66.8 359 L 69.5 358.5 Z" fill="#d4af6a" opacity="0.8"/>
  <text x="84" y="364.0" font-family="Helvetica, Arial, sans-serif" font-size="16" fill="#a59cc0">Moves steadily without any retrograde wobble</text>
  <path d="M 70 384.8 L 70.5 387.5 L 73.2 388 L 70.5 388.5 L 70 391.2 L 69.5 388.5 L 66.8 388 L 69.5 387.5 Z" fill="#d4af6a" opacity="0.8"/>
  <text x="84" y="393.0" font-family="Helvetica, Arial, sans-serif" font-size="16" fill="#a59cc0">Slightly different degree — consistent and predictable</text>
  <path d="M 202.22749999999988 416.4 L 202.6 418.6 L 204.8 419 L 202.6 419.4 L 202.22749999999988 421.6 L 201.8 419.4 L 199.6 419 L 201.8 418.6 Z" fill="#d4af6a" opacity="0.5"/>
  <text x="380" y="423" text-anchor="middle" font-family="Georgia, 'Times New Roman', serif" font-style="italic" font-size="11.5" fill="#7b738f">A self-reflection framework — tendencies, not predictions</text>
  <path d="M 557.7725000000002 416.4 L 558.2 418.6 L 560.4 419 L 558.2 419.4 L 557.7725000000002 421.6 L 557.4 419.4 L 555.2 419 L 557.4 418.6 Z" fill="#d4af6a" opacity="0.5"/>
</svg>
