<svg xmlns="http://www.w3.org/2000/svg" viewBox="0 0 760 433" role="img" aria-label="5 Steps to Demystify the Blue Node in Your Chart">
  <defs>
    <linearGradient id="bluenodeastrology0en-panel" x1="0" y1="0" x2="0.4" y2="1">
      <stop offset="0" stop-color="#1a1433"/><stop offset="0.55" stop-color="#120e26"/><stop offset="1" stop-color="#09081a"/>
    </linearGradient>
    <radialGradient id="bluenodeastrology0en-foil" cx="0.42" cy="0.34" r="0.75">
      <stop offset="0" stop-color="#fbf0d2"/><stop offset="0.5" stop-color="#e8c882"/><stop offset="1" stop-color="#b8923f"/>
    </radialGradient>
    <radialGradient id="bluenodeastrology0en-glow" cx="0.5" cy="0.5" r="0.5">
      <stop offset="0" stop-color="#f6e6bf"/><stop offset="1" stop-color="#f6e6bf" stop-opacity="0"/>
    </radialGradient>
    <radialGradient id="bluenodeastrology0en-neb1" cx="0.5" cy="0.5" r="0.5">
      <stop offset="0" stop-color="#6f4bb0" stop-opacity="0.28"/><stop offset="1" stop-color="#6f4bb0" stop-opacity="0"/>
    </radialGradient>
    <radialGradient id="bluenodeastrology0en-neb2" cx="0.5" cy="0.5" r="0.5">
      <stop offset="0" stop-color="#d4af6a" stop-opacity="0.16"/><stop offset="1" stop-color="#d4af6a" stop-opacity="0"/>
    </radialGradient>
    <linearGradient id="bluenodeastrology0en-rule" x1="0" y1="0" x2="1" y2="0">
      <stop offset="0" stop-color="#d4af6a" stop-opacity="0"/><stop offset="0.5" stop-color="#d4af6a" stop-opacity="0.6"/><stop offset="1" stop-color="#d4af6a" stop-opacity="0"/>
    </linearGradient>
  </defs>
  <rect x="1.5" y="1.5" width="757" height="430" rx="22" fill="url(#bluenodeastrology0en-panel)"/>
  <ellipse cx="198" cy="104" rx="380" ry="147" fill="url(#bluenodeastrology0en-neb1)"/>
  <ellipse cx="623" cy="346" rx="334" ry="139" fill="url(#bluenodeastrology0en-neb2)"/>
  <circle cx="725.3" cy="319.8" r="0.98" fill="#cfc8ea" opacity="0.17"/><circle cx="483.4" cy="252.7" r="0.66" fill="#cfc8ea" opacity="0.25"/><circle cx="248.9" cy="302.7" r="0.66" fill="#cfc8ea" opacity="0.18"/><circle cx="532.0" cy="53.3" r="1.57" fill="#cfc8ea" opacity="0.37"/><circle cx="58.4" cy="352.5" r="0.96" fill="#cfc8ea" opacity="0.25"/><circle cx="216.8" cy="102.9" r="1.56" fill="#cfc8ea" opacity="0.17"/><circle cx="670.2" cy="13.6" r="1.08" fill="#cfc8ea" opacity="0.50"/><circle cx="583.5" cy="115.6" r="1.32" fill="#cfc8ea" opacity="0.24"/><circle cx="449.4" cy="264.5" r="0.95" fill="#cfc8ea" opacity="0.42"/><circle cx="172.1" cy="206.1" r="1.36" fill="#cfc8ea" opacity="0.44"/><circle cx="589.7" cy="374.1" r="1.22" fill="#cfc8ea" opacity="0.20"/><circle cx="467.5" cy="131.8" r="0.54" fill="#cfc8ea" opacity="0.34"/><circle cx="194.9" cy="259.3" r="0.48" fill="#cfc8ea" opacity="0.53"/><circle cx="701.8" cy="283.0" r="0.92" fill="#cfc8ea" opacity="0.52"/><circle cx="506.4" cy="305.3" r="0.94" fill="#cfc8ea" opacity="0.51"/><circle cx="310.8" cy="91.8" r="0.60" fill="#cfc8ea" opacity="0.52"/><circle cx="279.2" cy="98.6" r="1.43" fill="#cfc8ea" opacity="0.32"/><circle cx="264.7" cy="266.5" r="1.37" fill="#cfc8ea" opacity="0.23"/><circle cx="158.6" cy="261.6" r="1.61" fill="#cfc8ea" opacity="0.26"/><circle cx="272.6" cy="323.4" r="1.61" fill="#cfc8ea" opacity="0.26"/><circle cx="463.8" cy="37.4" r="0.51" fill="#cfc8ea" opacity="0.25"/><circle cx="662.4" cy="74.3" r="0.71" fill="#cfc8ea" opacity="0.37"/><circle cx="134.6" cy="408.8" r="1.28" fill="#cfc8ea" opacity="0.43"/><circle cx="293.5" cy="382.1" r="1.28" fill="#cfc8ea" opacity="0.46"/><circle cx="695.7" cy="291.4" r="0.98" fill="#cfc8ea" opacity="0.12"/><circle cx="349.2" cy="148.5" r="0.60" fill="#cfc8ea" opacity="0.32"/><circle cx="687.0" cy="70.6" r="1.36" fill="#cfc8ea" opacity="0.41"/><circle cx="299.2" cy="205.6" r="0.76" fill="#cfc8ea" opacity="0.43"/><circle cx="665.2" cy="36.6" r="0.56" fill="#cfc8ea" opacity="0.41"/><circle cx="624.6" cy="363.1" r="0.99" fill="#cfc8ea" opacity="0.20"/><circle cx="245.5" cy="112.6" r="1.41" fill="#cfc8ea" opacity="0.34"/><circle cx="365.3" cy="368.4" r="1.33" fill="#cfc8ea" opacity="0.52"/><circle cx="105.5" cy="321.6" r="1.21" fill="#cfc8ea" opacity="0.32"/><circle cx="382.3" cy="324.0" r="0.96" fill="#cfc8ea" opacity="0.17"/><circle cx="724.1" cy="216.5" r="0.55" fill="#cfc8ea" opacity="0.53"/><circle cx="531.5" cy="13.3" r="0.61" fill="#cfc8ea" opacity="0.46"/><circle cx="394.1" cy="237.7" r="0.97" fill="#cfc8ea" opacity="0.15"/><path d="M 177.97919413261116 94.4 L 178.5 96.9 L 181.0 97.43170723877847 L 178.5 97.9 L 177.97919413261116 100.5 L 177.5 97.9 L 174.9 97.43170723877847 L 177.5 96.9 Z" fill="#f6e6bf" opacity="0.7107236235868186"/><path d="M 526.5008782651275 227.7 L 527.1 230.6 L 530.0 231.10433652158827 L 527.1 231.7 L 526.5008782651275 234.6 L 525.9 231.7 L 523.0 231.10433652158827 L 525.9 230.6 Z" fill="#f6e6bf" opacity="0.6413003443274647"/><path d="M 322.88127781264484 199.8 L 323.3 202.1 L 325.6 202.4855407103896 L 323.3 202.9 L 322.88127781264484 205.2 L 322.5 202.9 L 320.2 202.4855407103896 L 322.5 202.1 Z" fill="#f6e6bf" opacity="0.5882456076797098"/><path d="M 479.3561315294355 57.2 L 480.0 60.5 L 483.2 61.115473547019064 L 480.0 61.7 L 479.3561315294355 65.0 L 478.7 61.7 L 475.5 61.115473547019064 L 478.7 60.5 Z" fill="#f6e6bf" opacity="0.5396052729804068"/><path d="M 593.1295314412564 274.6 L 593.6 276.8 L 595.8 277.2387298438698 L 593.6 277.7 L 593.1295314412564 279.9 L 592.7 277.7 L 590.5 277.2387298438698 L 592.7 276.8 Z" fill="#f6e6bf" opacity="0.7279041882138699"/><path d="M 725.3 319.8 L 194.9 259.3 L 310.8 91.8 L 272.6 323.4 L 687.0 70.6" fill="none" stroke="#d4af6a" stroke-width="0.6" opacity="0.12"/>
  <rect x="1.5" y="1.5" width="757" height="430" rx="22" fill="none" stroke="#d4af6a" stroke-opacity="0.34" stroke-width="1.2"/>
  <rect x="7" y="7" width="746" height="419" rx="17" fill="none" stroke="#d4af6a" stroke-opacity="0.12" stroke-width="0.8"/>
  <path d="M 16 12.8 L 16.5 15.5 L 19.2 16 L 16.5 16.5 L 16 19.2 L 15.5 16.5 L 12.8 16 L 15.5 15.5 Z" fill="#d4af6a" opacity="0.4"/><path d="M 744 12.8 L 744.5 15.5 L 747.2 16 L 744.5 16.5 L 744 19.2 L 743.5 16.5 L 740.8 16 L 743.5 15.5 Z" fill="#d4af6a" opacity="0.4"/><path d="M 16 413.8 L 16.5 416.5 L 19.2 417 L 16.5 417.5 L 16 420.2 L 15.5 417.5 L 12.8 417 L 15.5 416.5 Z" fill="#d4af6a" opacity="0.4"/><path d="M 744 413.8 L 744.5 416.5 L 747.2 417 L 744.5 417.5 L 744 420.2 L 743.5 417.5 L 740.8 417 L 743.5 416.5 Z" fill="#d4af6a" opacity="0.4"/>
  <text x="380" y="46" text-anchor="middle" font-family="Georgia, 'Times New Roman', serif" font-size="22" letter-spacing="0.4" fill="#efeaf8">5 Steps to Demystify the Blue Node in Your Chart</text>
  <line x1="230" y1="67" x2="368" y2="67" stroke="url(#bluenodeastrology0en-rule)" stroke-width="1"/>
  <line x1="392" y1="67" x2="530" y2="67" stroke="url(#bluenodeastrology0en-rule)" stroke-width="1"/>
  <path d="M 380 62.0 L 380.8 66.2 L 385.0 67 L 380.8 67.8 L 380 72.0 L 379.2 67.8 L 375.0 67 L 379.2 66.2 Z" fill="#d4af6a" opacity="0.85"/>
  <line x1="76" y1="121" x2="76" y2="361" stroke="#d4af6a" stroke-opacity="0.28" stroke-width="1.5"/>
  <circle cx="76" cy="121" r="20.0" fill="url(#bluenodeastrology0en-glow)" opacity="0.5"/>
    <circle cx="76" cy="121" r="15" fill="url(#bluenodeastrology0en-foil)" stroke="#f6e6bf" stroke-opacity="0.5" stroke-width="0.8"/>
    <circle cx="76" cy="116.8" r="9.0" fill="#ffffff" opacity="0.10"/>
    <text x="76" y="125.5" text-anchor="middle" font-family="Georgia, 'Times New Roman', serif" font-size="13" font-weight="700" fill="#3a2c12">1</text>
  <text x="116" y="117.0" font-family="Georgia, 'Times New Roman', serif" font-size="22" letter-spacing="0.3" fill="#f3effb">Check the Legend</text>
  <text x="116" y="139.0" font-family="Helvetica, Arial, sans-serif" font-size="15.5" fill="#a59cc0">Find the blue symbol and confirm the chart legend labels it North Node</text>
  <circle cx="76" cy="181" r="20.0" fill="url(#bluenodeastrology0en-glow)" opacity="0.5"/>
    <circle cx="76" cy="181" r="15" fill="url(#bluenodeastrology0en-foil)" stroke="#f6e6bf" stroke-opacity="0.5" stroke-width="0.8"/>
    <circle cx="76" cy="176.8" r="9.0" fill="#ffffff" opacity="0.10"/>
    <text x="76" y="185.5" text-anchor="middle" font-family="Georgia, 'Times New Roman', serif" font-size="13" font-weight="700" fill="#3a2c12">2</text>
  <text x="116" y="177.0" font-family="Georgia, 'Times New Roman', serif" font-size="22" letter-spacing="0.3" fill="#f3effb">Confirm the Axis</text>
  <text x="116" y="199.0" font-family="Helvetica, Arial, sans-serif" font-size="15.5" fill="#a59cc0">Verify the South Node sits exactly 180° opposite — they form one axis</text>
  <circle cx="76" cy="241" r="20.0" fill="url(#bluenodeastrology0en-glow)" opacity="0.5"/>
    <circle cx="76" cy="241" r="15" fill="url(#bluenodeastrology0en-foil)" stroke="#f6e6bf" stroke-opacity="0.5" stroke-width="0.8"/>
    <circle cx="76" cy="236.8" r="9.0" fill="#ffffff" opacity="0.10"/>
    <text x="76" y="245.5" text-anchor="middle" font-family="Georgia, 'Times New Roman', serif" font-size="13" font-weight="700" fill="#3a2c12">3</text>
  <text x="116" y="237.0" font-family="Georgia, 'Times New Roman', serif" font-size="22" letter-spacing="0.3" fill="#f3effb">Note True or Mean</text>
  <text x="116" y="259.0" font-family="Helvetica, Arial, sans-serif" font-size="15.5" fill="#a59cc0">Check settings to see if your chart uses True Node or Mean Node</text>
  <circle cx="76" cy="301" r="20.0" fill="url(#bluenodeastrology0en-glow)" opacity="0.5"/>
    <circle cx="76" cy="301" r="15" fill="url(#bluenodeastrology0en-foil)" stroke="#f6e6bf" stroke-opacity="0.5" stroke-width="0.8"/>
    <circle cx="76" cy="296.8" r="9.0" fill="#ffffff" opacity="0.10"/>
    <text x="76" y="305.5" text-anchor="middle" font-family="Georgia, 'Times New Roman', serif" font-size="13" font-weight="700" fill="#3a2c12">4</text>
  <text x="116" y="297.0" font-family="Georgia, 'Times New Roman', serif" font-size="22" letter-spacing="0.3" fill="#f3effb">Cross-Check Software</text>
  <text x="116" y="319.0" font-family="Helvetica, Arial, sans-serif" font-size="15.5" fill="#a59cc0">Open same birth data in another program — color changes, placement stays</text>
  <circle cx="76" cy="361" r="20.0" fill="url(#bluenodeastrology0en-glow)" opacity="0.5"/>
    <circle cx="76" cy="361" r="15" fill="url(#bluenodeastrology0en-foil)" stroke="#f6e6bf" stroke-opacity="0.5" stroke-width="0.8"/>
    <circle cx="76" cy="356.8" r="9.0" fill="#ffffff" opacity="0.10"/>
    <text x="76" y="365.5" text-anchor="middle" font-family="Georgia, 'Times New Roman', serif" font-size="13" font-weight="700" fill="#3a2c12">5</text>
  <text x="116" y="357.0" font-family="Georgia, 'Times New Roman', serif" font-size="22" letter-spacing="0.3" fill="#f3effb">Read Sign and House</text>
  <text x="116" y="379.0" font-family="Helvetica, Arial, sans-serif" font-size="15.5" fill="#a59cc0">Read the node by sign and house; set the display color aside for good</text>
  <path d="M 202.22749999999988 404.4 L 202.6 406.6 L 204.8 407 L 202.6 407.4 L 202.22749999999988 409.6 L 201.8 407.4 L 199.6 407 L 201.8 406.6 Z" fill="#d4af6a" opacity="0.5"/>
  <text x="380" y="411" text-anchor="middle" font-family="Georgia, 'Times New Roman', serif" font-style="italic" font-size="11.5" fill="#7b738f">A self-reflection framework — tendencies, not predictions</text>
  <path d="M 557.7725000000002 404.4 L 558.2 406.6 L 560.4 407 L 558.2 407.4 L 557.7725000000002 409.6 L 557.4 407.4 L 555.2 407 L 557.4 406.6 Z" fill="#d4af6a" opacity="0.5"/>
</svg>
