<svg xmlns="http://www.w3.org/2000/svg" viewBox="0 0 760 433" role="img" aria-label="How to Read the Cancer World Cup Lens">
  <defs>
    <linearGradient id="cancerzodiacworldcup20261en-panel" x1="0" y1="0" x2="0.4" y2="1">
      <stop offset="0" stop-color="#1a1433"/><stop offset="0.55" stop-color="#120e26"/><stop offset="1" stop-color="#09081a"/>
    </linearGradient>
    <radialGradient id="cancerzodiacworldcup20261en-foil" cx="0.42" cy="0.34" r="0.75">
      <stop offset="0" stop-color="#fbf0d2"/><stop offset="0.5" stop-color="#e8c882"/><stop offset="1" stop-color="#b8923f"/>
    </radialGradient>
    <radialGradient id="cancerzodiacworldcup20261en-glow" cx="0.5" cy="0.5" r="0.5">
      <stop offset="0" stop-color="#f6e6bf"/><stop offset="1" stop-color="#f6e6bf" stop-opacity="0"/>
    </radialGradient>
    <radialGradient id="cancerzodiacworldcup20261en-neb1" cx="0.5" cy="0.5" r="0.5">
      <stop offset="0" stop-color="#6f4bb0" stop-opacity="0.28"/><stop offset="1" stop-color="#6f4bb0" stop-opacity="0"/>
    </radialGradient>
    <radialGradient id="cancerzodiacworldcup20261en-neb2" cx="0.5" cy="0.5" r="0.5">
      <stop offset="0" stop-color="#d4af6a" stop-opacity="0.16"/><stop offset="1" stop-color="#d4af6a" stop-opacity="0"/>
    </radialGradient>
    <linearGradient id="cancerzodiacworldcup20261en-rule" x1="0" y1="0" x2="1" y2="0">
      <stop offset="0" stop-color="#d4af6a" stop-opacity="0"/><stop offset="0.5" stop-color="#d4af6a" stop-opacity="0.6"/><stop offset="1" stop-color="#d4af6a" stop-opacity="0"/>
    </linearGradient>
  </defs>
  <rect x="1.5" y="1.5" width="757" height="430" rx="22" fill="url(#cancerzodiacworldcup20261en-panel)"/>
  <ellipse cx="198" cy="104" rx="380" ry="147" fill="url(#cancerzodiacworldcup20261en-neb1)"/>
  <ellipse cx="623" cy="346" rx="334" ry="139" fill="url(#cancerzodiacworldcup20261en-neb2)"/>
  <circle cx="329.8" cy="80.6" r="1.02" fill="#cfc8ea" opacity="0.47"/><circle cx="497.1" cy="42.1" r="1.11" fill="#cfc8ea" opacity="0.45"/><circle cx="282.5" cy="20.7" r="1.02" fill="#cfc8ea" opacity="0.29"/><circle cx="565.0" cy="295.2" r="1.16" fill="#cfc8ea" opacity="0.16"/><circle cx="658.0" cy="174.6" r="0.99" fill="#cfc8ea" opacity="0.23"/><circle cx="290.3" cy="105.8" r="1.37" fill="#cfc8ea" opacity="0.39"/><circle cx="705.6" cy="53.3" r="0.68" fill="#cfc8ea" opacity="0.43"/><circle cx="577.8" cy="246.8" r="1.49" fill="#cfc8ea" opacity="0.35"/><circle cx="413.1" cy="326.4" r="1.16" fill="#cfc8ea" opacity="0.39"/><circle cx="703.7" cy="170.3" r="0.94" fill="#cfc8ea" opacity="0.27"/><circle cx="224.0" cy="106.4" r="0.89" fill="#cfc8ea" opacity="0.35"/><circle cx="649.3" cy="420.9" r="1.68" fill="#cfc8ea" opacity="0.28"/><circle cx="549.0" cy="197.1" r="1.10" fill="#cfc8ea" opacity="0.50"/><circle cx="707.3" cy="334.9" r="1.00" fill="#cfc8ea" opacity="0.13"/><circle cx="356.8" cy="266.8" r="1.03" fill="#cfc8ea" opacity="0.19"/><circle cx="562.0" cy="128.8" r="1.39" fill="#cfc8ea" opacity="0.39"/><circle cx="692.8" cy="158.6" r="1.61" fill="#cfc8ea" opacity="0.54"/><circle cx="110.5" cy="28.0" r="0.83" fill="#cfc8ea" opacity="0.34"/><circle cx="699.1" cy="311.7" r="0.59" fill="#cfc8ea" opacity="0.47"/><circle cx="672.5" cy="329.5" r="1.48" fill="#cfc8ea" opacity="0.29"/><circle cx="200.7" cy="117.1" r="1.63" fill="#cfc8ea" opacity="0.43"/><circle cx="349.0" cy="250.1" r="0.47" fill="#cfc8ea" opacity="0.45"/><circle cx="17.4" cy="348.2" r="0.66" fill="#cfc8ea" opacity="0.51"/><circle cx="452.5" cy="184.7" r="1.35" fill="#cfc8ea" opacity="0.46"/><circle cx="226.5" cy="130.3" r="1.17" fill="#cfc8ea" opacity="0.38"/><circle cx="93.6" cy="112.7" r="0.96" fill="#cfc8ea" opacity="0.39"/><circle cx="157.4" cy="298.2" r="1.35" fill="#cfc8ea" opacity="0.16"/><circle cx="254.2" cy="338.8" r="0.58" fill="#cfc8ea" opacity="0.24"/><circle cx="145.1" cy="116.4" r="1.10" fill="#cfc8ea" opacity="0.46"/><circle cx="137.7" cy="79.2" r="1.40" fill="#cfc8ea" opacity="0.28"/><circle cx="677.2" cy="75.5" r="1.03" fill="#cfc8ea" opacity="0.32"/><circle cx="238.0" cy="223.0" r="1.22" fill="#cfc8ea" opacity="0.12"/><circle cx="255.0" cy="143.1" r="1.56" fill="#cfc8ea" opacity="0.19"/><circle cx="555.1" cy="281.4" r="1.16" fill="#cfc8ea" opacity="0.53"/><circle cx="273.1" cy="359.7" r="1.54" fill="#cfc8ea" opacity="0.16"/><circle cx="155.3" cy="102.4" r="1.31" fill="#cfc8ea" opacity="0.42"/><circle cx="53.9" cy="25.6" r="1.06" fill="#cfc8ea" opacity="0.29"/><path d="M 532.691903680563 382.4 L 533.1 384.6 L 535.3 384.9707502636593 L 533.1 385.4 L 532.691903680563 387.6 L 532.3 385.4 L 530.1 384.9707502636593 L 532.3 384.6 Z" fill="#f6e6bf" opacity="0.7197496424196288"/><path d="M 609.001923404634 354.5 L 609.6 357.5 L 612.5 358.03447248390876 L 609.6 358.6 L 609.001923404634 361.5 L 608.4 358.6 L 605.5 358.03447248390876 L 608.4 357.5 Z" fill="#f6e6bf" opacity="0.6505233702948316"/><path d="M 461.9252290278673 206.9 L 462.4 209.2 L 464.7 209.66011470626108 L 462.4 210.1 L 461.9252290278673 212.4 L 461.5 210.1 L 459.2 209.66011470626108 L 461.5 209.2 Z" fill="#f6e6bf" opacity="0.6957065851194784"/><path d="M 681.9171103909612 301.4 L 682.4 303.9 L 685.0 304.415596900275 L 682.4 304.9 L 681.9171103909612 307.5 L 681.4 304.9 L 678.9 304.415596900275 L 681.4 303.9 Z" fill="#f6e6bf" opacity="0.7812286186730488"/><path d="M 591.8896139264107 277.5 L 592.4 280.2 L 595.1 280.742759476183 L 592.4 281.3 L 591.8896139264107 284.0 L 591.4 281.3 L 588.7 280.742759476183 L 591.4 280.2 Z" fill="#f6e6bf" opacity="0.6909941903082654"/><path d="M 705.6 53.3 L 224.0 106.4 L 226.5 130.3" fill="none" stroke="#d4af6a" stroke-width="0.6" opacity="0.12"/>
  <rect x="1.5" y="1.5" width="757" height="430" rx="22" fill="none" stroke="#d4af6a" stroke-opacity="0.34" stroke-width="1.2"/>
  <rect x="7" y="7" width="746" height="419" rx="17" fill="none" stroke="#d4af6a" stroke-opacity="0.12" stroke-width="0.8"/>
  <path d="M 16 12.8 L 16.5 15.5 L 19.2 16 L 16.5 16.5 L 16 19.2 L 15.5 16.5 L 12.8 16 L 15.5 15.5 Z" fill="#d4af6a" opacity="0.4"/><path d="M 744 12.8 L 744.5 15.5 L 747.2 16 L 744.5 16.5 L 744 19.2 L 743.5 16.5 L 740.8 16 L 743.5 15.5 Z" fill="#d4af6a" opacity="0.4"/><path d="M 16 413.8 L 16.5 416.5 L 19.2 417 L 16.5 417.5 L 16 420.2 L 15.5 417.5 L 12.8 417 L 15.5 416.5 Z" fill="#d4af6a" opacity="0.4"/><path d="M 744 413.8 L 744.5 416.5 L 747.2 417 L 744.5 417.5 L 744 420.2 L 743.5 417.5 L 740.8 417 L 743.5 416.5 Z" fill="#d4af6a" opacity="0.4"/>
  <text x="380" y="46" text-anchor="middle" font-family="Georgia, 'Times New Roman', serif" font-size="22" letter-spacing="0.4" fill="#efeaf8">How to Read the Cancer World Cup Lens</text>
  <line x1="230" y1="67" x2="368" y2="67" stroke="url(#cancerzodiacworldcup20261en-rule)" stroke-width="1"/>
  <line x1="392" y1="67" x2="530" y2="67" stroke="url(#cancerzodiacworldcup20261en-rule)" stroke-width="1"/>
  <path d="M 380 62.0 L 380.8 66.2 L 385.0 67 L 380.8 67.8 L 380 72.0 L 379.2 67.8 L 375.0 67 L 379.2 66.2 Z" fill="#d4af6a" opacity="0.85"/>
  <line x1="76" y1="121" x2="76" y2="361" stroke="#d4af6a" stroke-opacity="0.28" stroke-width="1.5"/>
  <circle cx="76" cy="121" r="20.0" fill="url(#cancerzodiacworldcup20261en-glow)" opacity="0.5"/>
    <circle cx="76" cy="121" r="15" fill="url(#cancerzodiacworldcup20261en-foil)" stroke="#f6e6bf" stroke-opacity="0.5" stroke-width="0.8"/>
    <circle cx="76" cy="116.8" r="9.0" fill="#ffffff" opacity="0.10"/>
    <text x="76" y="125.5" text-anchor="middle" font-family="Georgia, 'Times New Roman', serif" font-size="13" font-weight="700" fill="#3a2c12">1</text>
  <text x="116" y="117.0" font-family="Georgia, 'Times New Roman', serif" font-size="22" letter-spacing="0.3" fill="#f3effb">Anchor the window</text>
  <text x="116" y="139.0" font-family="Helvetica, Arial, sans-serif" font-size="15.5" fill="#a59cc0">Group stage 11-30 June, while Jupiter is in Cancer before entering Leo</text>
  <circle cx="76" cy="181" r="20.0" fill="url(#cancerzodiacworldcup20261en-glow)" opacity="0.5"/>
    <circle cx="76" cy="181" r="15" fill="url(#cancerzodiacworldcup20261en-foil)" stroke="#f6e6bf" stroke-opacity="0.5" stroke-width="0.8"/>
    <circle cx="76" cy="176.8" r="9.0" fill="#ffffff" opacity="0.10"/>
    <text x="76" y="185.5" text-anchor="middle" font-family="Georgia, 'Times New Roman', serif" font-size="13" font-weight="700" fill="#3a2c12">2</text>
  <text x="116" y="177.0" font-family="Georgia, 'Times New Roman', serif" font-size="22" letter-spacing="0.3" fill="#f3effb">Gather the cohort by Sun sign</text>
  <text x="116" y="199.0" font-family="Helvetica, Arial, sans-serif" font-size="15.5" fill="#a59cc0">Verified dates: Bellingham 29 Jun 2003, Messi 24 Jun 1987, Haaland 21 Jul 2000</text>
  <circle cx="76" cy="241" r="20.0" fill="url(#cancerzodiacworldcup20261en-glow)" opacity="0.5"/>
    <circle cx="76" cy="241" r="15" fill="url(#cancerzodiacworldcup20261en-foil)" stroke="#f6e6bf" stroke-opacity="0.5" stroke-width="0.8"/>
    <circle cx="76" cy="236.8" r="9.0" fill="#ffffff" opacity="0.10"/>
    <text x="76" y="245.5" text-anchor="middle" font-family="Georgia, 'Times New Roman', serif" font-size="13" font-weight="700" fill="#3a2c12">3</text>
  <text x="116" y="237.0" font-family="Georgia, 'Times New Roman', serif" font-size="22" letter-spacing="0.3" fill="#f3effb">Name the shared archetype</text>
  <text x="116" y="259.0" font-family="Helvetica, Arial, sans-serif" font-size="15.5" fill="#a59cc0">Cancer as home, memory, and protective loyalty, a reflective theme</text>
  <circle cx="76" cy="301" r="20.0" fill="url(#cancerzodiacworldcup20261en-glow)" opacity="0.5"/>
    <circle cx="76" cy="301" r="15" fill="url(#cancerzodiacworldcup20261en-foil)" stroke="#f6e6bf" stroke-opacity="0.5" stroke-width="0.8"/>
    <circle cx="76" cy="296.8" r="9.0" fill="#ffffff" opacity="0.10"/>
    <text x="76" y="305.5" text-anchor="middle" font-family="Georgia, 'Times New Roman', serif" font-size="13" font-weight="700" fill="#3a2c12">4</text>
  <text x="116" y="297.0" font-family="Georgia, 'Times New Roman', serif" font-size="22" letter-spacing="0.3" fill="#f3effb">Add the transit lightly</text>
  <text x="116" y="319.0" font-family="Helvetica, Arial, sans-serif" font-size="15.5" fill="#a59cc0">Jupiter visits the cohort's Sun sign: a symbolic homecoming, not a result</text>
  <circle cx="76" cy="361" r="20.0" fill="url(#cancerzodiacworldcup20261en-glow)" opacity="0.5"/>
    <circle cx="76" cy="361" r="15" fill="url(#cancerzodiacworldcup20261en-foil)" stroke="#f6e6bf" stroke-opacity="0.5" stroke-width="0.8"/>
    <circle cx="76" cy="356.8" r="9.0" fill="#ffffff" opacity="0.10"/>
    <text x="76" y="365.5" text-anchor="middle" font-family="Georgia, 'Times New Roman', serif" font-size="13" font-weight="700" fill="#3a2c12">5</text>
  <text x="116" y="357.0" font-family="Georgia, 'Times New Roman', serif" font-size="22" letter-spacing="0.3" fill="#f3effb">Drop the emphasis at Leo</text>
  <text x="116" y="379.0" font-family="Helvetica, Arial, sans-serif" font-size="15.5" fill="#a59cc0">July knockouts and the 19 July final no longer sit in Cancer's window</text>
  <path d="M 202.22749999999988 404.4 L 202.6 406.6 L 204.8 407 L 202.6 407.4 L 202.22749999999988 409.6 L 201.8 407.4 L 199.6 407 L 201.8 406.6 Z" fill="#d4af6a" opacity="0.5"/>
  <text x="380" y="411" text-anchor="middle" font-family="Georgia, 'Times New Roman', serif" font-style="italic" font-size="11.5" fill="#7b738f">A self-reflection framework — tendencies, not predictions</text>
  <path d="M 557.7725000000002 404.4 L 558.2 406.6 L 560.4 407 L 558.2 407.4 L 557.7725000000002 409.6 L 557.4 407.4 L 555.2 407 L 557.4 406.6 Z" fill="#d4af6a" opacity="0.5"/>
</svg>
