<svg xmlns="http://www.w3.org/2000/svg" viewBox="0 0 760 788" role="img" aria-label="Cancer Ascendant vs Cancer Sun vs Other Water Ascendants">
  <defs>
    <linearGradient id="cancerrising1en-panel" x1="0" y1="0" x2="0.4" y2="1">
      <stop offset="0" stop-color="#1a1433"/><stop offset="0.55" stop-color="#120e26"/><stop offset="1" stop-color="#09081a"/>
    </linearGradient>
    <radialGradient id="cancerrising1en-foil" cx="0.42" cy="0.34" r="0.75">
      <stop offset="0" stop-color="#fbf0d2"/><stop offset="0.5" stop-color="#e8c882"/><stop offset="1" stop-color="#b8923f"/>
    </radialGradient>
    <radialGradient id="cancerrising1en-glow" cx="0.5" cy="0.5" r="0.5">
      <stop offset="0" stop-color="#f6e6bf"/><stop offset="1" stop-color="#f6e6bf" stop-opacity="0"/>
    </radialGradient>
    <radialGradient id="cancerrising1en-neb1" cx="0.5" cy="0.5" r="0.5">
      <stop offset="0" stop-color="#6f4bb0" stop-opacity="0.28"/><stop offset="1" stop-color="#6f4bb0" stop-opacity="0"/>
    </radialGradient>
    <radialGradient id="cancerrising1en-neb2" cx="0.5" cy="0.5" r="0.5">
      <stop offset="0" stop-color="#d4af6a" stop-opacity="0.16"/><stop offset="1" stop-color="#d4af6a" stop-opacity="0"/>
    </radialGradient>
    <linearGradient id="cancerrising1en-rule" x1="0" y1="0" x2="1" y2="0">
      <stop offset="0" stop-color="#d4af6a" stop-opacity="0"/><stop offset="0.5" stop-color="#d4af6a" stop-opacity="0.6"/><stop offset="1" stop-color="#d4af6a" stop-opacity="0"/>
    </linearGradient>
  </defs>
  <rect x="1.5" y="1.5" width="757" height="785" rx="22" fill="url(#cancerrising1en-panel)"/>
  <ellipse cx="198" cy="189" rx="380" ry="268" fill="url(#cancerrising1en-neb1)"/>
  <ellipse cx="623" cy="630" rx="334" ry="252" fill="url(#cancerrising1en-neb2)"/>
  <circle cx="363.4" cy="91.3" r="1.56" fill="#cfc8ea" opacity="0.49"/><circle cx="19.1" cy="371.4" r="0.55" fill="#cfc8ea" opacity="0.38"/><circle cx="680.4" cy="736.0" r="1.45" fill="#cfc8ea" opacity="0.40"/><circle cx="151.4" cy="730.8" r="1.19" fill="#cfc8ea" opacity="0.16"/><circle cx="133.2" cy="79.6" r="1.12" fill="#cfc8ea" opacity="0.13"/><circle cx="288.0" cy="218.2" r="0.42" fill="#cfc8ea" opacity="0.35"/><circle cx="301.5" cy="58.4" r="0.52" fill="#cfc8ea" opacity="0.28"/><circle cx="54.7" cy="465.9" r="0.54" fill="#cfc8ea" opacity="0.18"/><circle cx="550.3" cy="522.9" r="0.51" fill="#cfc8ea" opacity="0.34"/><circle cx="144.3" cy="226.6" r="0.97" fill="#cfc8ea" opacity="0.47"/><circle cx="57.8" cy="736.4" r="1.10" fill="#cfc8ea" opacity="0.29"/><circle cx="84.1" cy="310.9" r="1.15" fill="#cfc8ea" opacity="0.27"/><circle cx="304.0" cy="446.2" r="1.17" fill="#cfc8ea" opacity="0.51"/><circle cx="259.1" cy="440.9" r="1.51" fill="#cfc8ea" opacity="0.47"/><circle cx="533.1" cy="536.5" r="1.59" fill="#cfc8ea" opacity="0.15"/><circle cx="567.3" cy="60.5" r="0.83" fill="#cfc8ea" opacity="0.37"/><circle cx="24.9" cy="209.9" r="1.53" fill="#cfc8ea" opacity="0.26"/><circle cx="194.0" cy="211.5" r="1.51" fill="#cfc8ea" opacity="0.16"/><circle cx="100.1" cy="55.2" r="1.64" fill="#cfc8ea" opacity="0.22"/><circle cx="278.5" cy="162.7" r="1.22" fill="#cfc8ea" opacity="0.50"/><circle cx="102.8" cy="310.1" r="1.17" fill="#cfc8ea" opacity="0.30"/><circle cx="552.9" cy="557.4" r="1.09" fill="#cfc8ea" opacity="0.42"/><circle cx="40.3" cy="538.0" r="1.19" fill="#cfc8ea" opacity="0.43"/><circle cx="502.1" cy="661.8" r="1.27" fill="#cfc8ea" opacity="0.50"/><circle cx="380.4" cy="654.3" r="0.48" fill="#cfc8ea" opacity="0.41"/><circle cx="680.2" cy="303.3" r="1.05" fill="#cfc8ea" opacity="0.31"/><circle cx="366.2" cy="388.9" r="1.04" fill="#cfc8ea" opacity="0.21"/><circle cx="439.7" cy="609.2" r="0.42" fill="#cfc8ea" opacity="0.38"/><circle cx="30.9" cy="419.4" r="0.92" fill="#cfc8ea" opacity="0.31"/><circle cx="290.2" cy="567.9" r="1.02" fill="#cfc8ea" opacity="0.26"/><circle cx="572.5" cy="505.1" r="0.42" fill="#cfc8ea" opacity="0.16"/><circle cx="533.8" cy="768.5" r="1.22" fill="#cfc8ea" opacity="0.17"/><circle cx="530.7" cy="319.4" r="0.70" fill="#cfc8ea" opacity="0.51"/><circle cx="347.2" cy="282.3" r="1.38" fill="#cfc8ea" opacity="0.47"/><circle cx="588.8" cy="495.8" r="1.50" fill="#cfc8ea" opacity="0.19"/><circle cx="285.9" cy="413.2" r="1.44" fill="#cfc8ea" opacity="0.18"/><circle cx="99.1" cy="131.5" r="0.61" fill="#cfc8ea" opacity="0.31"/><circle cx="170.8" cy="751.1" r="1.68" fill="#cfc8ea" opacity="0.43"/><circle cx="335.9" cy="120.9" r="1.42" fill="#cfc8ea" opacity="0.40"/><circle cx="149.5" cy="594.1" r="1.39" fill="#cfc8ea" opacity="0.29"/><circle cx="547.4" cy="564.7" r="1.31" fill="#cfc8ea" opacity="0.20"/><circle cx="439.1" cy="26.0" r="0.71" fill="#cfc8ea" opacity="0.16"/><circle cx="151.6" cy="614.3" r="0.52" fill="#cfc8ea" opacity="0.12"/><circle cx="332.6" cy="473.1" r="1.34" fill="#cfc8ea" opacity="0.32"/><circle cx="559.4" cy="411.5" r="0.85" fill="#cfc8ea" opacity="0.40"/><circle cx="600.7" cy="71.6" r="0.49" fill="#cfc8ea" opacity="0.50"/><circle cx="118.2" cy="746.4" r="1.50" fill="#cfc8ea" opacity="0.43"/><circle cx="571.1" cy="246.7" r="1.24" fill="#cfc8ea" opacity="0.43"/><circle cx="390.5" cy="740.3" r="0.48" fill="#cfc8ea" opacity="0.29"/><circle cx="734.3" cy="232.5" r="0.58" fill="#cfc8ea" opacity="0.12"/><circle cx="190.3" cy="243.9" r="1.66" fill="#cfc8ea" opacity="0.50"/><circle cx="697.6" cy="691.1" r="1.59" fill="#cfc8ea" opacity="0.18"/><circle cx="474.7" cy="574.0" r="0.81" fill="#cfc8ea" opacity="0.34"/><circle cx="417.3" cy="366.0" r="1.31" fill="#cfc8ea" opacity="0.30"/><circle cx="260.2" cy="455.8" r="1.58" fill="#cfc8ea" opacity="0.26"/><circle cx="548.0" cy="250.8" r="1.44" fill="#cfc8ea" opacity="0.13"/><circle cx="156.8" cy="15.5" r="0.83" fill="#cfc8ea" opacity="0.37"/><circle cx="592.8" cy="518.2" r="1.47" fill="#cfc8ea" opacity="0.37"/><circle cx="218.1" cy="749.4" r="0.59" fill="#cfc8ea" opacity="0.26"/><circle cx="136.3" cy="708.6" r="0.92" fill="#cfc8ea" opacity="0.51"/><circle cx="14.5" cy="231.0" r="0.98" fill="#cfc8ea" opacity="0.26"/><circle cx="628.0" cy="261.8" r="0.85" fill="#cfc8ea" opacity="0.33"/><circle cx="248.8" cy="771.1" r="0.47" fill="#cfc8ea" opacity="0.44"/><circle cx="475.5" cy="587.2" r="0.84" fill="#cfc8ea" opacity="0.49"/><circle cx="374.6" cy="591.0" r="1.09" fill="#cfc8ea" opacity="0.38"/><circle cx="602.6" cy="236.7" r="1.42" fill="#cfc8ea" opacity="0.18"/><circle cx="318.4" cy="563.1" r="1.24" fill="#cfc8ea" opacity="0.43"/><path d="M 458.75802997872233 684.9 L 459.3 687.6 L 461.9 688.0905782114714 L 459.3 688.6 L 458.75802997872233 691.2 L 458.3 688.6 L 455.6 688.0905782114714 L 458.3 687.6 Z" fill="#f6e6bf" opacity="0.5745394235709682"/><path d="M 27.74472138658166 606.2 L 28.2 608.8 L 30.8 609.2882525976747 L 28.2 609.8 L 27.74472138658166 612.4 L 27.3 609.8 L 24.7 609.2882525976747 L 27.3 608.8 Z" fill="#f6e6bf" opacity="0.7550601885886863"/><path d="M 334.4538324140012 287.1 L 335.1 290.3 L 338.2 290.91602158360183 L 335.1 291.5 L 334.4538324140012 294.7 L 333.8 291.5 L 330.7 290.91602158360183 L 333.8 290.3 Z" fill="#f6e6bf" opacity="0.5828190457308665"/><path d="M 605.475098092109 763.9 L 606.0 766.7 L 608.8 767.2239442970604 L 606.0 767.8 L 605.475098092109 770.5 L 604.9 767.8 L 602.2 767.2239442970604 L 604.9 766.7 Z" fill="#f6e6bf" opacity="0.575178851862438"/><path d="M 620.7658987157047 330.4 L 621.2 332.4 L 623.2 332.84217630140483 L 621.2 333.2 L 620.7658987157047 335.3 L 620.4 333.2 L 618.3 332.84217630140483 L 620.4 332.4 Z" fill="#f6e6bf" opacity="0.7743449168512597"/><path d="M 502.1 661.8 L 99.1 131.5 L 559.4 411.5 L 218.1 749.4" fill="none" stroke="#d4af6a" stroke-width="0.6" opacity="0.12"/>
  <rect x="1.5" y="1.5" width="757" height="785" rx="22" fill="none" stroke="#d4af6a" stroke-opacity="0.34" stroke-width="1.2"/>
  <rect x="7" y="7" width="746" height="774" rx="17" fill="none" stroke="#d4af6a" stroke-opacity="0.12" stroke-width="0.8"/>
  <path d="M 16 12.8 L 16.5 15.5 L 19.2 16 L 16.5 16.5 L 16 19.2 L 15.5 16.5 L 12.8 16 L 15.5 15.5 Z" fill="#d4af6a" opacity="0.4"/><path d="M 744 12.8 L 744.5 15.5 L 747.2 16 L 744.5 16.5 L 744 19.2 L 743.5 16.5 L 740.8 16 L 743.5 15.5 Z" fill="#d4af6a" opacity="0.4"/><path d="M 16 768.8 L 16.5 771.5 L 19.2 772 L 16.5 772.5 L 16 775.2 L 15.5 772.5 L 12.8 772 L 15.5 771.5 Z" fill="#d4af6a" opacity="0.4"/><path d="M 744 768.8 L 744.5 771.5 L 747.2 772 L 744.5 772.5 L 744 775.2 L 743.5 772.5 L 740.8 772 L 743.5 771.5 Z" fill="#d4af6a" opacity="0.4"/>
  <text x="380" y="46" text-anchor="middle" font-family="Georgia, 'Times New Roman', serif" font-size="22" letter-spacing="0.4" fill="#efeaf8">Cancer Ascendant vs Cancer Sun vs Other Water Ascendants</text>
  <line x1="230" y1="67" x2="368" y2="67" stroke="url(#cancerrising1en-rule)" stroke-width="1"/>
  <line x1="392" y1="67" x2="530" y2="67" stroke="url(#cancerrising1en-rule)" stroke-width="1"/>
  <path d="M 380 62.0 L 380.8 66.2 L 385.0 67 L 380.8 67.8 L 380 72.0 L 379.2 67.8 L 375.0 67 L 379.2 66.2 Z" fill="#d4af6a" opacity="0.85"/>

  <rect x="46" y="99" width="668" height="201.0" rx="14" fill="#1d1740" fill-opacity="0.5" stroke="#d4af6a" stroke-opacity="0.22" stroke-width="0.9"/>
  <rect x="46" y="99" width="668" height="3.5" rx="1.8" fill="#d4af6a" fill-opacity="0.6"/>
  <path d="M 380 97.1 L 380.5 100.0 L 383.4 100.5 L 380.5 101.0 L 380 103.9 L 379.5 101.0 L 376.6 100.5 L 379.5 100.0 Z" fill="#f6e6bf" opacity="0.7"/>
  <text x="380" y="128.0" text-anchor="middle" font-family="Georgia, 'Times New Roman', serif" font-size="21" font-weight="700" letter-spacing="0.3" fill="#f3effb">Cancer Ascendant</text>
  <path d="M 70 157.8 L 70.5 160.5 L 73.2 161 L 70.5 161.5 L 70 164.2 L 69.5 161.5 L 66.8 161 L 69.5 160.5 Z" fill="#d4af6a" opacity="0.8"/>
  <text x="84" y="166.0" font-family="Helvetica, Arial, sans-serif" font-size="16" fill="#a59cc0">Ruled by the Moon</text>
  <path d="M 70 186.8 L 70.5 189.5 L 73.2 190 L 70.5 190.5 L 70 193.2 L 69.5 190.5 L 66.8 190 L 69.5 189.5 Z" fill="#d4af6a" opacity="0.8"/>
  <text x="84" y="195.0" font-family="Helvetica, Arial, sans-serif" font-size="16" fill="#a59cc0">Outer mask, not core identity</text>
  <path d="M 70 215.8 L 70.5 218.5 L 73.2 219 L 70.5 219.5 L 70 222.2 L 69.5 219.5 L 66.8 219 L 69.5 218.5 Z" fill="#d4af6a" opacity="0.8"/>
  <text x="84" y="224.0" font-family="Helvetica, Arial, sans-serif" font-size="16" fill="#a59cc0">Shifts with mood and setting</text>
  <path d="M 70 244.8 L 70.5 247.5 L 73.2 248 L 70.5 248.5 L 70 251.2 L 69.5 248.5 L 66.8 248 L 69.5 247.5 Z" fill="#d4af6a" opacity="0.8"/>
  <text x="84" y="253.0" font-family="Helvetica, Arial, sans-serif" font-size="16" fill="#a59cc0">Protective and nurturing style</text>
  <path d="M 70 273.8 L 70.5 276.5 L 73.2 277 L 70.5 277.5 L 70 280.2 L 69.5 277.5 L 66.8 277 L 69.5 276.5 Z" fill="#d4af6a" opacity="0.8"/>
  <text x="84" y="282.0" font-family="Helvetica, Arial, sans-serif" font-size="16" fill="#a59cc0">Warm yet hard to read at first</text>
  <path d="M 380 308.5 L 380.7 312.3 L 384.5 313 L 380.7 313.7 L 380 317.5 L 379.3 313.7 L 375.5 313 L 379.3 312.3 Z" fill="#d4af6a" opacity="0.65"/>
  <rect x="46" y="326" width="668" height="201.0" rx="14" fill="#1d1740" fill-opacity="0.5" stroke="#d4af6a" stroke-opacity="0.22" stroke-width="0.9"/>
  <rect x="46" y="326" width="668" height="3.5" rx="1.8" fill="#d4af6a" fill-opacity="0.6"/>
  <path d="M 380 324.1 L 380.5 327.0 L 383.4 327.5 L 380.5 328.0 L 380 330.9 L 379.5 328.0 L 376.6 327.5 L 379.5 327.0 Z" fill="#f6e6bf" opacity="0.7"/>
  <text x="380" y="355.0" text-anchor="middle" font-family="Georgia, 'Times New Roman', serif" font-size="21" font-weight="700" letter-spacing="0.3" fill="#f3effb">Cancer Sun</text>
  <path d="M 70 384.8 L 70.5 387.5 L 73.2 388 L 70.5 388.5 L 70 391.2 L 69.5 388.5 L 66.8 388 L 69.5 387.5 Z" fill="#d4af6a" opacity="0.8"/>
  <text x="84" y="393.0" font-family="Helvetica, Arial, sans-serif" font-size="16" fill="#a59cc0">Sun is the core identity</text>
  <path d="M 70 413.8 L 70.5 416.5 L 73.2 417 L 70.5 417.5 L 70 420.2 L 69.5 417.5 L 66.8 417 L 69.5 416.5 Z" fill="#d4af6a" opacity="0.8"/>
  <text x="84" y="422.0" font-family="Helvetica, Arial, sans-serif" font-size="16" fill="#a59cc0">Steady inner emotional center</text>
  <path d="M 70 442.8 L 70.5 445.5 L 73.2 446 L 70.5 446.5 L 70 449.2 L 69.5 446.5 L 66.8 446 L 69.5 445.5 Z" fill="#d4af6a" opacity="0.8"/>
  <text x="84" y="451.0" font-family="Helvetica, Arial, sans-serif" font-size="16" fill="#a59cc0">Constant beneath the surface</text>
  <path d="M 70 471.8 L 70.5 474.5 L 73.2 475 L 70.5 475.5 L 70 478.2 L 69.5 475.5 L 66.8 475 L 69.5 474.5 Z" fill="#d4af6a" opacity="0.8"/>
  <text x="84" y="480.0" font-family="Helvetica, Arial, sans-serif" font-size="16" fill="#a59cc0">Same emotional quality all year</text>
  <path d="M 70 500.8 L 70.5 503.5 L 73.2 504 L 70.5 504.5 L 70 507.2 L 69.5 504.5 L 66.8 504 L 69.5 503.5 Z" fill="#d4af6a" opacity="0.8"/>
  <text x="84" y="509.0" font-family="Helvetica, Arial, sans-serif" font-size="16" fill="#a59cc0">More predictable, stable presence</text>
  <path d="M 380 535.5 L 380.7 539.3 L 384.5 540 L 380.7 540.7 L 380 544.5 L 379.3 540.7 L 375.5 540 L 379.3 539.3 Z" fill="#d4af6a" opacity="0.65"/>
  <rect x="46" y="553" width="668" height="201.0" rx="14" fill="#1d1740" fill-opacity="0.5" stroke="#d4af6a" stroke-opacity="0.22" stroke-width="0.9"/>
  <rect x="46" y="553" width="668" height="3.5" rx="1.8" fill="#d4af6a" fill-opacity="0.6"/>
  <path d="M 380 551.1 L 380.5 554.0 L 383.4 554.5 L 380.5 555.0 L 380 557.9 L 379.5 555.0 L 376.6 554.5 L 379.5 554.0 Z" fill="#f6e6bf" opacity="0.7"/>
  <text x="380" y="582.0" text-anchor="middle" font-family="Georgia, 'Times New Roman', serif" font-size="21" font-weight="700" letter-spacing="0.3" fill="#f3effb">Scorpio / Pisces Ascendant</text>
  <path d="M 70 611.8 L 70.5 614.5 L 73.2 615 L 70.5 615.5 L 70 618.2 L 69.5 615.5 L 66.8 615 L 69.5 614.5 Z" fill="#d4af6a" opacity="0.8"/>
  <text x="84" y="620.0" font-family="Helvetica, Arial, sans-serif" font-size="16" fill="#a59cc0">Mars/Pluto or Jupiter/Neptune</text>
  <path d="M 70 640.8 L 70.5 643.5 L 73.2 644 L 70.5 644.5 L 70 647.2 L 69.5 644.5 L 66.8 644 L 69.5 643.5 Z" fill="#d4af6a" opacity="0.8"/>
  <text x="84" y="649.0" font-family="Helvetica, Arial, sans-serif" font-size="16" fill="#a59cc0">Intense-controlled or diffuse-dreamy</text>
  <path d="M 70 669.8 L 70.5 672.5 L 73.2 673 L 70.5 673.5 L 70 676.2 L 69.5 673.5 L 66.8 673 L 69.5 672.5 Z" fill="#d4af6a" opacity="0.8"/>
  <text x="84" y="678.0" font-family="Helvetica, Arial, sans-serif" font-size="16" fill="#a59cc0">Penetrating or boundless outer manner</text>
  <path d="M 70 698.8 L 70.5 701.5 L 73.2 702 L 70.5 702.5 L 70 705.2 L 69.5 702.5 L 66.8 702 L 69.5 701.5 Z" fill="#d4af6a" opacity="0.8"/>
  <text x="84" y="707.0" font-family="Helvetica, Arial, sans-serif" font-size="16" fill="#a59cc0">More uniform fixed-planet front</text>
  <path d="M 70 727.8 L 70.5 730.5 L 73.2 731 L 70.5 731.5 L 70 734.2 L 69.5 731.5 L 66.8 731 L 69.5 730.5 Z" fill="#d4af6a" opacity="0.8"/>
  <text x="84" y="736.0" font-family="Helvetica, Arial, sans-serif" font-size="16" fill="#a59cc0">Steadier but less attuned to the room</text>
  <path d="M 202.22749999999988 759.4 L 202.6 761.6 L 204.8 762 L 202.6 762.4 L 202.22749999999988 764.6 L 201.8 762.4 L 199.6 762 L 201.8 761.6 Z" fill="#d4af6a" opacity="0.5"/>
  <text x="380" y="766" text-anchor="middle" font-family="Georgia, 'Times New Roman', serif" font-style="italic" font-size="11.5" fill="#7b738f">A self-reflection framework — tendencies, not predictions</text>
  <path d="M 557.7725000000002 759.4 L 558.2 761.6 L 560.4 762 L 558.2 762.4 L 557.7725000000002 764.6 L 557.4 762.4 L 555.2 762 L 557.4 761.6 Z" fill="#d4af6a" opacity="0.5"/>
</svg>
