<svg xmlns="http://www.w3.org/2000/svg" viewBox="0 0 760 503" role="img" aria-label="Cancer World Cup Lens vs the Single-Player Birth Chart">
  <defs>
    <linearGradient id="cancerzodiacworldcup20260en-panel" x1="0" y1="0" x2="0.4" y2="1">
      <stop offset="0" stop-color="#1a1433"/><stop offset="0.55" stop-color="#120e26"/><stop offset="1" stop-color="#09081a"/>
    </linearGradient>
    <radialGradient id="cancerzodiacworldcup20260en-foil" cx="0.42" cy="0.34" r="0.75">
      <stop offset="0" stop-color="#fbf0d2"/><stop offset="0.5" stop-color="#e8c882"/><stop offset="1" stop-color="#b8923f"/>
    </radialGradient>
    <radialGradient id="cancerzodiacworldcup20260en-glow" cx="0.5" cy="0.5" r="0.5">
      <stop offset="0" stop-color="#f6e6bf"/><stop offset="1" stop-color="#f6e6bf" stop-opacity="0"/>
    </radialGradient>
    <radialGradient id="cancerzodiacworldcup20260en-neb1" cx="0.5" cy="0.5" r="0.5">
      <stop offset="0" stop-color="#6f4bb0" stop-opacity="0.28"/><stop offset="1" stop-color="#6f4bb0" stop-opacity="0"/>
    </radialGradient>
    <radialGradient id="cancerzodiacworldcup20260en-neb2" cx="0.5" cy="0.5" r="0.5">
      <stop offset="0" stop-color="#d4af6a" stop-opacity="0.16"/><stop offset="1" stop-color="#d4af6a" stop-opacity="0"/>
    </radialGradient>
    <linearGradient id="cancerzodiacworldcup20260en-rule" x1="0" y1="0" x2="1" y2="0">
      <stop offset="0" stop-color="#d4af6a" stop-opacity="0"/><stop offset="0.5" stop-color="#d4af6a" stop-opacity="0.6"/><stop offset="1" stop-color="#d4af6a" stop-opacity="0"/>
    </linearGradient>
  </defs>
  <rect x="1.5" y="1.5" width="757" height="500" rx="22" fill="url(#cancerzodiacworldcup20260en-panel)"/>
  <ellipse cx="198" cy="121" rx="380" ry="171" fill="url(#cancerzodiacworldcup20260en-neb1)"/>
  <ellipse cx="623" cy="402" rx="334" ry="161" fill="url(#cancerzodiacworldcup20260en-neb2)"/>
  <circle cx="53.5" cy="403.8" r="1.68" fill="#cfc8ea" opacity="0.44"/><circle cx="681.0" cy="228.1" r="0.80" fill="#cfc8ea" opacity="0.41"/><circle cx="141.9" cy="30.5" r="0.93" fill="#cfc8ea" opacity="0.39"/><circle cx="618.7" cy="336.2" r="1.07" fill="#cfc8ea" opacity="0.20"/><circle cx="715.2" cy="58.6" r="1.60" fill="#cfc8ea" opacity="0.18"/><circle cx="93.7" cy="271.6" r="1.24" fill="#cfc8ea" opacity="0.31"/><circle cx="244.0" cy="381.9" r="0.77" fill="#cfc8ea" opacity="0.14"/><circle cx="726.6" cy="372.4" r="1.14" fill="#cfc8ea" opacity="0.51"/><circle cx="439.2" cy="39.3" r="0.57" fill="#cfc8ea" opacity="0.29"/><circle cx="180.0" cy="63.8" r="1.21" fill="#cfc8ea" opacity="0.53"/><circle cx="354.9" cy="480.4" r="1.51" fill="#cfc8ea" opacity="0.34"/><circle cx="313.4" cy="19.9" r="1.29" fill="#cfc8ea" opacity="0.51"/><circle cx="525.3" cy="54.6" r="1.65" fill="#cfc8ea" opacity="0.45"/><circle cx="555.4" cy="408.3" r="1.03" fill="#cfc8ea" opacity="0.29"/><circle cx="584.1" cy="104.1" r="0.42" fill="#cfc8ea" opacity="0.38"/><circle cx="434.5" cy="65.8" r="0.47" fill="#cfc8ea" opacity="0.14"/><circle cx="557.1" cy="376.2" r="0.79" fill="#cfc8ea" opacity="0.14"/><circle cx="400.3" cy="280.6" r="0.55" fill="#cfc8ea" opacity="0.21"/><circle cx="386.1" cy="420.0" r="0.96" fill="#cfc8ea" opacity="0.40"/><circle cx="516.1" cy="164.6" r="1.04" fill="#cfc8ea" opacity="0.18"/><circle cx="322.6" cy="286.0" r="0.97" fill="#cfc8ea" opacity="0.18"/><circle cx="489.5" cy="329.4" r="0.60" fill="#cfc8ea" opacity="0.25"/><circle cx="61.2" cy="200.4" r="1.13" fill="#cfc8ea" opacity="0.43"/><circle cx="389.3" cy="345.4" r="0.65" fill="#cfc8ea" opacity="0.20"/><circle cx="277.2" cy="245.4" r="0.88" fill="#cfc8ea" opacity="0.33"/><circle cx="737.0" cy="293.7" r="1.04" fill="#cfc8ea" opacity="0.44"/><circle cx="322.3" cy="345.3" r="1.21" fill="#cfc8ea" opacity="0.35"/><circle cx="559.1" cy="281.2" r="0.68" fill="#cfc8ea" opacity="0.49"/><circle cx="562.1" cy="216.1" r="0.67" fill="#cfc8ea" opacity="0.51"/><circle cx="214.2" cy="338.5" r="1.18" fill="#cfc8ea" opacity="0.43"/><circle cx="30.8" cy="338.9" r="0.57" fill="#cfc8ea" opacity="0.25"/><circle cx="31.5" cy="164.6" r="0.54" fill="#cfc8ea" opacity="0.21"/><circle cx="243.6" cy="101.3" r="1.21" fill="#cfc8ea" opacity="0.25"/><circle cx="158.9" cy="152.1" r="1.23" fill="#cfc8ea" opacity="0.36"/><circle cx="485.5" cy="93.2" r="0.59" fill="#cfc8ea" opacity="0.37"/><circle cx="33.5" cy="438.5" r="1.66" fill="#cfc8ea" opacity="0.41"/><circle cx="99.1" cy="245.5" r="0.90" fill="#cfc8ea" opacity="0.28"/><circle cx="372.7" cy="302.6" r="0.87" fill="#cfc8ea" opacity="0.32"/><circle cx="543.6" cy="148.4" r="0.99" fill="#cfc8ea" opacity="0.47"/><circle cx="70.6" cy="154.0" r="1.27" fill="#cfc8ea" opacity="0.36"/><circle cx="679.7" cy="57.8" r="0.99" fill="#cfc8ea" opacity="0.51"/><circle cx="195.1" cy="411.6" r="0.60" fill="#cfc8ea" opacity="0.46"/><path d="M 160.2624591961503 28.2 L 160.7 30.4 L 162.9 30.80179155082442 L 160.7 31.2 L 160.2624591961503 33.4 L 159.8 31.2 L 157.6 30.80179155082442 L 159.8 30.4 Z" fill="#f6e6bf" opacity="0.7906813323264941"/><path d="M 296.3070562183857 117.5 L 296.7 119.7 L 298.9 120.09816143405624 L 296.7 120.5 L 296.3070562183857 122.7 L 295.9 120.5 L 293.7 120.09816143405624 L 295.9 119.7 Z" fill="#f6e6bf" opacity="0.5841433348832652"/><path d="M 392.9024868234992 220.1 L 393.3 222.2 L 395.4 222.61984943621792 L 393.3 223.0 L 392.9024868234992 225.2 L 392.5 223.0 L 390.4 222.61984943621792 L 392.5 222.2 Z" fill="#f6e6bf" opacity="0.5690512289991603"/><path d="M 180.4557315260172 319.7 L 180.9 321.8 L 183.0 322.2122504070867 L 180.9 322.6 L 180.4557315260172 324.7 L 180.1 322.6 L 177.9 322.2122504070867 L 180.1 321.8 Z" fill="#f6e6bf" opacity="0.7847121082944795"/><path d="M 484.0536719635129 361.3 L 484.7 364.5 L 487.9 365.14932899014093 L 484.7 365.8 L 484.0536719635129 369.0 L 483.4 365.8 L 480.2 365.14932899014093 L 483.4 364.5 Z" fill="#f6e6bf" opacity="0.5871303777908906"/><path d="M 726.6 372.4 L 386.1 420.0 L 516.1 164.6 L 489.5 329.4 L 485.5 93.2" fill="none" stroke="#d4af6a" stroke-width="0.6" opacity="0.12"/>
  <rect x="1.5" y="1.5" width="757" height="500" rx="22" fill="none" stroke="#d4af6a" stroke-opacity="0.34" stroke-width="1.2"/>
  <rect x="7" y="7" width="746" height="489" rx="17" fill="none" stroke="#d4af6a" stroke-opacity="0.12" stroke-width="0.8"/>
  <path d="M 16 12.8 L 16.5 15.5 L 19.2 16 L 16.5 16.5 L 16 19.2 L 15.5 16.5 L 12.8 16 L 15.5 15.5 Z" fill="#d4af6a" opacity="0.4"/><path d="M 744 12.8 L 744.5 15.5 L 747.2 16 L 744.5 16.5 L 744 19.2 L 743.5 16.5 L 740.8 16 L 743.5 15.5 Z" fill="#d4af6a" opacity="0.4"/><path d="M 16 483.8 L 16.5 486.5 L 19.2 487 L 16.5 487.5 L 16 490.2 L 15.5 487.5 L 12.8 487 L 15.5 486.5 Z" fill="#d4af6a" opacity="0.4"/><path d="M 744 483.8 L 744.5 486.5 L 747.2 487 L 744.5 487.5 L 744 490.2 L 743.5 487.5 L 740.8 487 L 743.5 486.5 Z" fill="#d4af6a" opacity="0.4"/>
  <text x="380" y="46" text-anchor="middle" font-family="Georgia, 'Times New Roman', serif" font-size="22" letter-spacing="0.4" fill="#efeaf8">Cancer World Cup Lens vs the Single-Player Birth Chart</text>
  <line x1="230" y1="67" x2="368" y2="67" stroke="url(#cancerzodiacworldcup20260en-rule)" stroke-width="1"/>
  <line x1="392" y1="67" x2="530" y2="67" stroke="url(#cancerzodiacworldcup20260en-rule)" stroke-width="1"/>
  <path d="M 380 62.0 L 380.8 66.2 L 385.0 67 L 380.8 67.8 L 380 72.0 L 379.2 67.8 L 375.0 67 L 379.2 66.2 Z" fill="#d4af6a" opacity="0.85"/>

  <rect x="46" y="99" width="668" height="172.0" rx="14" fill="#1d1740" fill-opacity="0.5" stroke="#d4af6a" stroke-opacity="0.22" stroke-width="0.9"/>
  <rect x="46" y="99" width="3.5" height="172.0" rx="1.8" fill="#d4af6a" fill-opacity="0.6"/>
  <path d="M 47.75 108.6 L 48.3 111.5 L 51.1 112 L 48.3 112.5 L 47.75 115.4 L 47.2 112.5 L 44.4 112 L 47.2 111.5 Z" fill="#f6e6bf" opacity="0.7"/>
  <text x="380" y="128.0" text-anchor="middle" font-family="Georgia, 'Times New Roman', serif" font-size="21" font-weight="700" letter-spacing="0.3" fill="#f3effb">Cancer World Cup Lens</text>
  <path d="M 70 157.8 L 70.5 160.5 L 73.2 161 L 70.5 161.5 L 70 164.2 L 69.5 161.5 L 66.8 161 L 69.5 160.5 Z" fill="#d4af6a" opacity="0.8"/>
  <text x="84" y="166.0" font-family="Helvetica, Arial, sans-serif" font-size="16" fill="#a59cc0">Reads a whole cohort of Cancer-Sun footballers at once</text>
  <path d="M 70 186.8 L 70.5 189.5 L 73.2 190 L 70.5 190.5 L 70 193.2 L 69.5 190.5 L 66.8 190 L 69.5 189.5 Z" fill="#d4af6a" opacity="0.8"/>
  <text x="84" y="195.0" font-family="Helvetica, Arial, sans-serif" font-size="16" fill="#a59cc0">Trades the close-up for the constellation</text>
  <path d="M 70 215.8 L 70.5 218.5 L 73.2 219 L 70.5 219.5 L 70 222.2 L 69.5 219.5 L 66.8 219 L 69.5 218.5 Z" fill="#d4af6a" opacity="0.8"/>
  <text x="84" y="224.0" font-family="Helvetica, Arial, sans-serif" font-size="16" fill="#a59cc0">Bound by a shared transit, Jupiter in Cancer 2026</text>
  <path d="M 70 244.8 L 70.5 247.5 L 73.2 248 L 70.5 248.5 L 70 251.2 L 69.5 248.5 L 66.8 248 L 69.5 247.5 Z" fill="#d4af6a" opacity="0.8"/>
  <text x="84" y="253.0" font-family="Helvetica, Arial, sans-serif" font-size="16" fill="#a59cc0">Gains pattern: a recurring note of guarded devotion</text>
  <path d="M 380 279.5 L 380.7 283.3 L 384.5 284 L 380.7 284.7 L 380 288.5 L 379.3 284.7 L 375.5 284 L 379.3 283.3 Z" fill="#d4af6a" opacity="0.65"/>
  <rect x="46" y="297" width="668" height="172.0" rx="14" fill="#1d1740" fill-opacity="0.5" stroke="#d4af6a" stroke-opacity="0.22" stroke-width="0.9"/>
  <rect x="46" y="297" width="3.5" height="172.0" rx="1.8" fill="#d4af6a" fill-opacity="0.6"/>
  <path d="M 47.75 306.6 L 48.3 309.5 L 51.1 310 L 48.3 310.5 L 47.75 313.4 L 47.2 310.5 L 44.4 310 L 47.2 309.5 Z" fill="#f6e6bf" opacity="0.7"/>
  <text x="380" y="326.0" text-anchor="middle" font-family="Georgia, 'Times New Roman', serif" font-size="21" font-weight="700" letter-spacing="0.3" fill="#f3effb">Single-Player Birth Chart</text>
  <path d="M 70 355.8 L 70.5 358.5 L 73.2 359 L 70.5 359.5 L 70 362.2 L 69.5 359.5 L 66.8 359 L 69.5 358.5 Z" fill="#d4af6a" opacity="0.8"/>
  <text x="84" y="364.0" font-family="Helvetica, Arial, sans-serif" font-size="16" fill="#a59cc0">Goes deep on one person's Sun sign</text>
  <path d="M 70 384.8 L 70.5 387.5 L 73.2 388 L 70.5 388.5 L 70 391.2 L 69.5 388.5 L 66.8 388 L 69.5 387.5 Z" fill="#d4af6a" opacity="0.8"/>
  <text x="84" y="393.0" font-family="Helvetica, Arial, sans-serif" font-size="16" fill="#a59cc0">Trades breadth for intimacy</text>
  <path d="M 70 413.8 L 70.5 416.5 L 73.2 417 L 70.5 417.5 L 70 420.2 L 69.5 417.5 L 66.8 417 L 69.5 416.5 Z" fill="#d4af6a" opacity="0.8"/>
  <text x="84" y="422.0" font-family="Helvetica, Arial, sans-serif" font-size="16" fill="#a59cc0">Dwells on verifiable natal placements in detail</text>
  <path d="M 70 442.8 L 70.5 445.5 L 73.2 446 L 70.5 446.5 L 70 449.2 L 69.5 446.5 L 66.8 446 L 69.5 445.5 Z" fill="#d4af6a" opacity="0.8"/>
  <text x="84" y="451.0" font-family="Helvetica, Arial, sans-serif" font-size="16" fill="#a59cc0">Bound to a personal chart, not a shared transit</text>
  <path d="M 202.22749999999988 474.4 L 202.6 476.6 L 204.8 477 L 202.6 477.4 L 202.22749999999988 479.6 L 201.8 477.4 L 199.6 477 L 201.8 476.6 Z" fill="#d4af6a" opacity="0.5"/>
  <text x="380" y="481" text-anchor="middle" font-family="Georgia, 'Times New Roman', serif" font-style="italic" font-size="11.5" fill="#7b738f">A self-reflection framework — tendencies, not predictions</text>
  <path d="M 557.7725000000002 474.4 L 558.2 476.6 L 560.4 477 L 558.2 477.4 L 557.7725000000002 479.6 L 557.4 477.4 L 555.2 477 L 557.4 476.6 Z" fill="#d4af6a" opacity="0.5"/>
</svg>
