<svg xmlns="http://www.w3.org/2000/svg" viewBox="0 0 760 451" role="img" aria-label="5 Steps to Read a Celebrity Birth Chart">
  <defs>
    <linearGradient id="cardibbirthchart1en-panel" x1="0" y1="0" x2="0.4" y2="1">
      <stop offset="0" stop-color="#1a1433"/><stop offset="0.55" stop-color="#120e26"/><stop offset="1" stop-color="#09081a"/>
    </linearGradient>
    <radialGradient id="cardibbirthchart1en-foil" cx="0.42" cy="0.34" r="0.75">
      <stop offset="0" stop-color="#fbf0d2"/><stop offset="0.5" stop-color="#e8c882"/><stop offset="1" stop-color="#b8923f"/>
    </radialGradient>
    <radialGradient id="cardibbirthchart1en-glow" cx="0.5" cy="0.5" r="0.5">
      <stop offset="0" stop-color="#f6e6bf"/><stop offset="1" stop-color="#f6e6bf" stop-opacity="0"/>
    </radialGradient>
    <radialGradient id="cardibbirthchart1en-neb1" cx="0.5" cy="0.5" r="0.5">
      <stop offset="0" stop-color="#6f4bb0" stop-opacity="0.28"/><stop offset="1" stop-color="#6f4bb0" stop-opacity="0"/>
    </radialGradient>
    <radialGradient id="cardibbirthchart1en-neb2" cx="0.5" cy="0.5" r="0.5">
      <stop offset="0" stop-color="#d4af6a" stop-opacity="0.16"/><stop offset="1" stop-color="#d4af6a" stop-opacity="0"/>
    </radialGradient>
    <linearGradient id="cardibbirthchart1en-rule" x1="0" y1="0" x2="1" y2="0">
      <stop offset="0" stop-color="#d4af6a" stop-opacity="0"/><stop offset="0.5" stop-color="#d4af6a" stop-opacity="0.6"/><stop offset="1" stop-color="#d4af6a" stop-opacity="0"/>
    </linearGradient>
  </defs>
  <rect x="1.5" y="1.5" width="757" height="448" rx="22" fill="url(#cardibbirthchart1en-panel)"/>
  <ellipse cx="198" cy="108" rx="380" ry="153" fill="url(#cardibbirthchart1en-neb1)"/>
  <ellipse cx="623" cy="361" rx="334" ry="144" fill="url(#cardibbirthchart1en-neb2)"/>
  <circle cx="701.7" cy="398.3" r="0.52" fill="#cfc8ea" opacity="0.31"/><circle cx="648.8" cy="421.2" r="1.65" fill="#cfc8ea" opacity="0.21"/><circle cx="97.0" cy="388.3" r="1.19" fill="#cfc8ea" opacity="0.23"/><circle cx="355.8" cy="109.8" r="0.61" fill="#cfc8ea" opacity="0.24"/><circle cx="606.5" cy="375.3" r="0.92" fill="#cfc8ea" opacity="0.31"/><circle cx="507.9" cy="36.2" r="1.64" fill="#cfc8ea" opacity="0.39"/><circle cx="286.9" cy="179.8" r="0.98" fill="#cfc8ea" opacity="0.35"/><circle cx="733.3" cy="75.8" r="1.70" fill="#cfc8ea" opacity="0.42"/><circle cx="473.5" cy="144.3" r="0.61" fill="#cfc8ea" opacity="0.23"/><circle cx="528.6" cy="95.1" r="1.59" fill="#cfc8ea" opacity="0.37"/><circle cx="42.6" cy="340.9" r="0.68" fill="#cfc8ea" opacity="0.14"/><circle cx="545.7" cy="282.5" r="1.00" fill="#cfc8ea" opacity="0.51"/><circle cx="279.7" cy="253.6" r="1.53" fill="#cfc8ea" opacity="0.23"/><circle cx="345.8" cy="423.2" r="1.21" fill="#cfc8ea" opacity="0.21"/><circle cx="545.3" cy="137.2" r="0.78" fill="#cfc8ea" opacity="0.24"/><circle cx="233.6" cy="431.5" r="0.77" fill="#cfc8ea" opacity="0.43"/><circle cx="398.9" cy="111.6" r="0.98" fill="#cfc8ea" opacity="0.21"/><circle cx="455.0" cy="337.5" r="0.73" fill="#cfc8ea" opacity="0.44"/><circle cx="383.4" cy="411.6" r="0.97" fill="#cfc8ea" opacity="0.39"/><circle cx="197.0" cy="171.5" r="0.75" fill="#cfc8ea" opacity="0.51"/><circle cx="406.7" cy="379.4" r="0.97" fill="#cfc8ea" opacity="0.26"/><circle cx="426.8" cy="56.7" r="0.78" fill="#cfc8ea" opacity="0.48"/><circle cx="327.4" cy="85.9" r="0.91" fill="#cfc8ea" opacity="0.22"/><circle cx="39.3" cy="54.1" r="0.56" fill="#cfc8ea" opacity="0.28"/><circle cx="248.8" cy="349.2" r="0.47" fill="#cfc8ea" opacity="0.26"/><circle cx="586.1" cy="277.6" r="0.56" fill="#cfc8ea" opacity="0.13"/><circle cx="630.3" cy="126.9" r="0.70" fill="#cfc8ea" opacity="0.24"/><circle cx="431.2" cy="258.5" r="1.50" fill="#cfc8ea" opacity="0.12"/><circle cx="702.7" cy="26.9" r="1.54" fill="#cfc8ea" opacity="0.14"/><circle cx="544.1" cy="430.3" r="1.55" fill="#cfc8ea" opacity="0.27"/><circle cx="19.7" cy="413.3" r="0.46" fill="#cfc8ea" opacity="0.22"/><circle cx="337.4" cy="427.7" r="1.00" fill="#cfc8ea" opacity="0.37"/><circle cx="247.4" cy="97.1" r="1.29" fill="#cfc8ea" opacity="0.16"/><circle cx="666.6" cy="76.6" r="1.00" fill="#cfc8ea" opacity="0.16"/><circle cx="578.2" cy="236.4" r="1.44" fill="#cfc8ea" opacity="0.39"/><circle cx="199.0" cy="222.2" r="0.53" fill="#cfc8ea" opacity="0.37"/><circle cx="356.4" cy="306.9" r="1.14" fill="#cfc8ea" opacity="0.33"/><circle cx="233.5" cy="335.5" r="1.60" fill="#cfc8ea" opacity="0.13"/><path d="M 81.58279803954065 40.4 L 82.1 43.0 L 84.7 43.49626101087779 L 82.1 44.0 L 81.58279803954065 46.6 L 81.1 44.0 L 78.5 43.49626101087779 L 81.1 43.0 Z" fill="#f6e6bf" opacity="0.6783294070977718"/><path d="M 81.93207323364913 291.8 L 82.5 294.7 L 85.4 295.25823389552534 L 82.5 295.8 L 81.93207323364913 298.8 L 81.4 295.8 L 78.4 295.25823389552534 L 81.4 294.7 Z" fill="#f6e6bf" opacity="0.7030741903465241"/><path d="M 349.6835075225681 24.6 L 350.2 27.5 L 353.2 28.070843354798853 L 350.2 28.6 L 349.6835075225681 31.5 L 349.1 28.6 L 346.2 28.070843354798853 L 349.1 27.5 Z" fill="#f6e6bf" opacity="0.72742127799429"/><path d="M 194.53917877189815 239.6 L 195.1 242.6 L 198.1 243.1653504036367 L 195.1 243.7 L 194.53917877189815 246.7 L 194.0 243.7 L 191.0 243.1653504036367 L 194.0 242.6 Z" fill="#f6e6bf" opacity="0.5821277873124927"/><path d="M 321.7520376499742 235.2 L 322.3 238.0 L 325.0 238.4728566026315 L 322.3 239.0 L 321.7520376499742 241.7 L 321.2 239.0 L 318.5 238.4728566026315 L 321.2 238.0 Z" fill="#f6e6bf" opacity="0.7908001855481416"/><path d="M 233.6 431.5 L 398.9 111.6 L 455.0 337.5 L 406.7 379.4 L 19.7 413.3" fill="none" stroke="#d4af6a" stroke-width="0.6" opacity="0.12"/>
  <rect x="1.5" y="1.5" width="757" height="448" rx="22" fill="none" stroke="#d4af6a" stroke-opacity="0.34" stroke-width="1.2"/>
  <rect x="7" y="7" width="746" height="437" rx="17" fill="none" stroke="#d4af6a" stroke-opacity="0.12" stroke-width="0.8"/>
  <path d="M 16 12.8 L 16.5 15.5 L 19.2 16 L 16.5 16.5 L 16 19.2 L 15.5 16.5 L 12.8 16 L 15.5 15.5 Z" fill="#d4af6a" opacity="0.4"/><path d="M 744 12.8 L 744.5 15.5 L 747.2 16 L 744.5 16.5 L 744 19.2 L 743.5 16.5 L 740.8 16 L 743.5 15.5 Z" fill="#d4af6a" opacity="0.4"/><path d="M 16 431.8 L 16.5 434.5 L 19.2 435 L 16.5 435.5 L 16 438.2 L 15.5 435.5 L 12.8 435 L 15.5 434.5 Z" fill="#d4af6a" opacity="0.4"/><path d="M 744 431.8 L 744.5 434.5 L 747.2 435 L 744.5 435.5 L 744 438.2 L 743.5 435.5 L 740.8 435 L 743.5 434.5 Z" fill="#d4af6a" opacity="0.4"/>
  <text x="380" y="46" text-anchor="middle" font-family="Georgia, 'Times New Roman', serif" font-size="22" letter-spacing="0.4" fill="#efeaf8">5 Steps to Read a Celebrity Birth Chart</text>
  <line x1="230" y1="67" x2="368" y2="67" stroke="url(#cardibbirthchart1en-rule)" stroke-width="1"/>
  <line x1="392" y1="67" x2="530" y2="67" stroke="url(#cardibbirthchart1en-rule)" stroke-width="1"/>
  <path d="M 380 62.0 L 380.8 66.2 L 385.0 67 L 380.8 67.8 L 380 72.0 L 379.2 67.8 L 375.0 67 L 379.2 66.2 Z" fill="#d4af6a" opacity="0.85"/>
  <line x1="76" y1="121" x2="76" y2="379" stroke="#d4af6a" stroke-opacity="0.28" stroke-width="1.5"/>
  <circle cx="76" cy="121" r="20.0" fill="url(#cardibbirthchart1en-glow)" opacity="0.5"/>
    <circle cx="76" cy="121" r="15" fill="url(#cardibbirthchart1en-foil)" stroke="#f6e6bf" stroke-opacity="0.5" stroke-width="0.8"/>
    <circle cx="76" cy="116.8" r="9.0" fill="#ffffff" opacity="0.10"/>
    <text x="76" y="125.5" text-anchor="middle" font-family="Georgia, 'Times New Roman', serif" font-size="13" font-weight="700" fill="#3a2c12">1</text>
  <text x="116" y="117.0" font-family="Georgia, 'Times New Roman', serif" font-size="22" letter-spacing="0.3" fill="#f3effb">1. Start with the Sun</text>
  <text x="116" y="139.0" font-family="Helvetica, Arial, sans-serif" font-size="15.5" fill="#a59cc0">Libra Sun — identity built on balance, charm, and public diplomacy</text>
  <circle cx="76" cy="181" r="20.0" fill="url(#cardibbirthchart1en-glow)" opacity="0.5"/>
    <circle cx="76" cy="181" r="15" fill="url(#cardibbirthchart1en-foil)" stroke="#f6e6bf" stroke-opacity="0.5" stroke-width="0.8"/>
    <circle cx="76" cy="176.8" r="9.0" fill="#ffffff" opacity="0.10"/>
    <text x="76" y="185.5" text-anchor="middle" font-family="Georgia, 'Times New Roman', serif" font-size="13" font-weight="700" fill="#3a2c12">2</text>
  <text x="116" y="177.0" font-family="Georgia, 'Times New Roman', serif" font-size="22" letter-spacing="0.3" fill="#f3effb">2. Weigh the Moon</text>
  <text x="116" y="199.0" font-family="Helvetica, Arial, sans-serif" font-size="15.5" fill="#a59cc0">Aries Moon — emotional instinct that is direct, fiery, and fast-reacting</text>
  <circle cx="76" cy="241" r="20.0" fill="url(#cardibbirthchart1en-glow)" opacity="0.5"/>
    <circle cx="76" cy="241" r="15" fill="url(#cardibbirthchart1en-foil)" stroke="#f6e6bf" stroke-opacity="0.5" stroke-width="0.8"/>
    <circle cx="76" cy="236.8" r="9.0" fill="#ffffff" opacity="0.10"/>
    <text x="76" y="245.5" text-anchor="middle" font-family="Georgia, 'Times New Roman', serif" font-size="13" font-weight="700" fill="#3a2c12">3</text>
  <text x="116" y="237.0" font-family="Georgia, 'Times New Roman', serif" font-size="22" letter-spacing="0.3" fill="#f3effb">3. Read the Defining Aspect</text>
  <text x="116" y="259.0" font-family="Helvetica, Arial, sans-serif" font-size="15.5" fill="#a59cc0">Sun opposes Moon (Full Moon birth) — diplomacy colliding with combativeness</text>
  <circle cx="76" cy="301" r="20.0" fill="url(#cardibbirthchart1en-glow)" opacity="0.5"/>
    <circle cx="76" cy="301" r="15" fill="url(#cardibbirthchart1en-foil)" stroke="#f6e6bf" stroke-opacity="0.5" stroke-width="0.8"/>
    <circle cx="76" cy="296.8" r="9.0" fill="#ffffff" opacity="0.10"/>
    <text x="76" y="305.5" text-anchor="middle" font-family="Georgia, 'Times New Roman', serif" font-size="13" font-weight="700" fill="#3a2c12">4</text>
  <text x="116" y="297.0" font-family="Georgia, 'Times New Roman', serif" font-size="22" letter-spacing="0.3" fill="#f3effb">4. Note What You Cannot Read</text>
  <text x="116" y="319.0" font-family="Helvetica, Arial, sans-serif" font-size="15.5" fill="#a59cc0">Rising and house placements require a verified birth time she has never</text>
  <text x="116" y="337.0" font-family="Helvetica, Arial, sans-serif" font-size="15.5" fill="#a59cc0">confirmed</text>
  <circle cx="76" cy="379" r="20.0" fill="url(#cardibbirthchart1en-glow)" opacity="0.5"/>
    <circle cx="76" cy="379" r="15" fill="url(#cardibbirthchart1en-foil)" stroke="#f6e6bf" stroke-opacity="0.5" stroke-width="0.8"/>
    <circle cx="76" cy="374.8" r="9.0" fill="#ffffff" opacity="0.10"/>
    <text x="76" y="383.5" text-anchor="middle" font-family="Georgia, 'Times New Roman', serif" font-size="13" font-weight="700" fill="#3a2c12">5</text>
  <text x="116" y="375.0" font-family="Georgia, 'Times New Roman', serif" font-size="22" letter-spacing="0.3" fill="#f3effb">5. Hold It Loosely</text>
  <text x="116" y="397.0" font-family="Helvetica, Arial, sans-serif" font-size="15.5" fill="#a59cc0">Trust observable behavior over any textbook label every single time</text>
  <path d="M 202.22749999999988 422.4 L 202.6 424.6 L 204.8 425 L 202.6 425.4 L 202.22749999999988 427.6 L 201.8 425.4 L 199.6 425 L 201.8 424.6 Z" fill="#d4af6a" opacity="0.5"/>
  <text x="380" y="429" text-anchor="middle" font-family="Georgia, 'Times New Roman', serif" font-style="italic" font-size="11.5" fill="#7b738f">A self-reflection framework — tendencies, not predictions</text>
  <path d="M 557.7725000000002 422.4 L 558.2 424.6 L 560.4 425 L 558.2 425.4 L 557.7725000000002 427.6 L 557.4 425.4 L 555.2 425 L 557.4 424.6 Z" fill="#d4af6a" opacity="0.5"/>
</svg>
