<svg xmlns="http://www.w3.org/2000/svg" viewBox="0 0 760 503" role="img" aria-label="Sun-Sign Reading vs Full Chart Reading">
  <defs>
    <linearGradient id="cardibbirthchart0en-panel" x1="0" y1="0" x2="0.4" y2="1">
      <stop offset="0" stop-color="#1a1433"/><stop offset="0.55" stop-color="#120e26"/><stop offset="1" stop-color="#09081a"/>
    </linearGradient>
    <radialGradient id="cardibbirthchart0en-foil" cx="0.42" cy="0.34" r="0.75">
      <stop offset="0" stop-color="#fbf0d2"/><stop offset="0.5" stop-color="#e8c882"/><stop offset="1" stop-color="#b8923f"/>
    </radialGradient>
    <radialGradient id="cardibbirthchart0en-glow" cx="0.5" cy="0.5" r="0.5">
      <stop offset="0" stop-color="#f6e6bf"/><stop offset="1" stop-color="#f6e6bf" stop-opacity="0"/>
    </radialGradient>
    <radialGradient id="cardibbirthchart0en-neb1" cx="0.5" cy="0.5" r="0.5">
      <stop offset="0" stop-color="#6f4bb0" stop-opacity="0.28"/><stop offset="1" stop-color="#6f4bb0" stop-opacity="0"/>
    </radialGradient>
    <radialGradient id="cardibbirthchart0en-neb2" cx="0.5" cy="0.5" r="0.5">
      <stop offset="0" stop-color="#d4af6a" stop-opacity="0.16"/><stop offset="1" stop-color="#d4af6a" stop-opacity="0"/>
    </radialGradient>
    <linearGradient id="cardibbirthchart0en-rule" x1="0" y1="0" x2="1" y2="0">
      <stop offset="0" stop-color="#d4af6a" stop-opacity="0"/><stop offset="0.5" stop-color="#d4af6a" stop-opacity="0.6"/><stop offset="1" stop-color="#d4af6a" stop-opacity="0"/>
    </linearGradient>
  </defs>
  <rect x="1.5" y="1.5" width="757" height="500" rx="22" fill="url(#cardibbirthchart0en-panel)"/>
  <ellipse cx="198" cy="121" rx="380" ry="171" fill="url(#cardibbirthchart0en-neb1)"/>
  <ellipse cx="623" cy="402" rx="334" ry="161" fill="url(#cardibbirthchart0en-neb2)"/>
  <circle cx="425.5" cy="277.8" r="1.18" fill="#cfc8ea" opacity="0.28"/><circle cx="96.8" cy="172.9" r="1.34" fill="#cfc8ea" opacity="0.17"/><circle cx="692.4" cy="442.5" r="1.10" fill="#cfc8ea" opacity="0.33"/><circle cx="409.5" cy="114.3" r="0.52" fill="#cfc8ea" opacity="0.28"/><circle cx="663.6" cy="275.7" r="1.53" fill="#cfc8ea" opacity="0.25"/><circle cx="311.3" cy="189.0" r="1.51" fill="#cfc8ea" opacity="0.31"/><circle cx="561.2" cy="42.7" r="1.08" fill="#cfc8ea" opacity="0.48"/><circle cx="146.2" cy="168.9" r="1.35" fill="#cfc8ea" opacity="0.16"/><circle cx="499.7" cy="298.4" r="1.32" fill="#cfc8ea" opacity="0.14"/><circle cx="740.9" cy="450.6" r="0.56" fill="#cfc8ea" opacity="0.21"/><circle cx="173.5" cy="259.8" r="1.31" fill="#cfc8ea" opacity="0.13"/><circle cx="209.9" cy="323.5" r="0.61" fill="#cfc8ea" opacity="0.32"/><circle cx="256.0" cy="108.9" r="0.77" fill="#cfc8ea" opacity="0.18"/><circle cx="193.9" cy="12.4" r="1.24" fill="#cfc8ea" opacity="0.37"/><circle cx="36.7" cy="425.2" r="1.47" fill="#cfc8ea" opacity="0.43"/><circle cx="106.1" cy="399.5" r="1.15" fill="#cfc8ea" opacity="0.18"/><circle cx="263.2" cy="316.2" r="1.46" fill="#cfc8ea" opacity="0.23"/><circle cx="744.8" cy="147.9" r="0.44" fill="#cfc8ea" opacity="0.31"/><circle cx="70.5" cy="38.3" r="1.34" fill="#cfc8ea" opacity="0.32"/><circle cx="40.6" cy="450.8" r="1.62" fill="#cfc8ea" opacity="0.40"/><circle cx="528.7" cy="96.1" r="1.62" fill="#cfc8ea" opacity="0.43"/><circle cx="567.3" cy="100.7" r="0.91" fill="#cfc8ea" opacity="0.28"/><circle cx="371.2" cy="368.6" r="1.38" fill="#cfc8ea" opacity="0.14"/><circle cx="712.1" cy="190.3" r="1.16" fill="#cfc8ea" opacity="0.44"/><circle cx="299.5" cy="485.0" r="1.48" fill="#cfc8ea" opacity="0.20"/><circle cx="493.5" cy="473.8" r="0.64" fill="#cfc8ea" opacity="0.18"/><circle cx="59.2" cy="139.0" r="0.57" fill="#cfc8ea" opacity="0.43"/><circle cx="736.2" cy="175.0" r="1.60" fill="#cfc8ea" opacity="0.37"/><circle cx="383.7" cy="110.6" r="1.11" fill="#cfc8ea" opacity="0.18"/><circle cx="620.5" cy="250.0" r="1.33" fill="#cfc8ea" opacity="0.42"/><circle cx="109.2" cy="235.6" r="1.29" fill="#cfc8ea" opacity="0.15"/><circle cx="130.9" cy="383.8" r="1.63" fill="#cfc8ea" opacity="0.46"/><circle cx="236.1" cy="43.2" r="0.94" fill="#cfc8ea" opacity="0.22"/><circle cx="270.4" cy="388.0" r="1.07" fill="#cfc8ea" opacity="0.41"/><circle cx="54.5" cy="416.9" r="0.49" fill="#cfc8ea" opacity="0.18"/><circle cx="77.2" cy="89.5" r="0.88" fill="#cfc8ea" opacity="0.36"/><circle cx="401.7" cy="81.4" r="0.98" fill="#cfc8ea" opacity="0.32"/><circle cx="71.8" cy="226.8" r="0.62" fill="#cfc8ea" opacity="0.44"/><circle cx="720.6" cy="334.5" r="0.88" fill="#cfc8ea" opacity="0.46"/><circle cx="390.9" cy="169.5" r="0.96" fill="#cfc8ea" opacity="0.25"/><circle cx="482.8" cy="42.0" r="0.45" fill="#cfc8ea" opacity="0.52"/><circle cx="702.2" cy="359.4" r="0.54" fill="#cfc8ea" opacity="0.37"/><path d="M 305.098410140723 51.5 L 305.7 54.5 L 308.7 55.103792999638245 L 305.7 55.7 L 305.098410140723 58.7 L 304.5 55.7 L 301.5 55.103792999638245 L 304.5 54.5 Z" fill="#f6e6bf" opacity="0.6235175268957391"/><path d="M 700.9910268224776 484.5 L 701.4 486.5 L 703.4 486.8984960762318 L 701.4 487.3 L 700.9910268224776 489.3 L 700.6 487.3 L 698.6 486.8984960762318 L 700.6 486.5 Z" fill="#f6e6bf" opacity="0.7012719390215352"/><path d="M 610.8250496350229 157.4 L 611.4 160.6 L 614.6 161.1985986630898 L 611.4 161.8 L 610.8250496350229 165.0 L 610.2 161.8 L 607.0 161.1985986630898 L 610.2 160.6 Z" fill="#f6e6bf" opacity="0.5567868851358071"/><path d="M 406.2105993516743 286.6 L 406.6 288.8 L 408.8 289.1759364211466 L 406.6 289.6 L 406.2105993516743 291.8 L 405.8 289.6 L 403.6 289.1759364211466 L 405.8 288.8 Z" fill="#f6e6bf" opacity="0.6465289208339527"/><path d="M 556.5922388844192 243.3 L 557.1 246.0 L 559.8 246.46720020542853 L 557.1 247.0 L 556.5922388844192 249.6 L 556.1 247.0 L 553.4 246.46720020542853 L 556.1 246.0 Z" fill="#f6e6bf" opacity="0.6190677969017997"/><path d="M 692.4 442.5 L 409.5 114.3 L 740.9 450.6 L 567.3 100.7 L 299.5 485.0" fill="none" stroke="#d4af6a" stroke-width="0.6" opacity="0.12"/>
  <rect x="1.5" y="1.5" width="757" height="500" rx="22" fill="none" stroke="#d4af6a" stroke-opacity="0.34" stroke-width="1.2"/>
  <rect x="7" y="7" width="746" height="489" rx="17" fill="none" stroke="#d4af6a" stroke-opacity="0.12" stroke-width="0.8"/>
  <path d="M 16 12.8 L 16.5 15.5 L 19.2 16 L 16.5 16.5 L 16 19.2 L 15.5 16.5 L 12.8 16 L 15.5 15.5 Z" fill="#d4af6a" opacity="0.4"/><path d="M 744 12.8 L 744.5 15.5 L 747.2 16 L 744.5 16.5 L 744 19.2 L 743.5 16.5 L 740.8 16 L 743.5 15.5 Z" fill="#d4af6a" opacity="0.4"/><path d="M 16 483.8 L 16.5 486.5 L 19.2 487 L 16.5 487.5 L 16 490.2 L 15.5 487.5 L 12.8 487 L 15.5 486.5 Z" fill="#d4af6a" opacity="0.4"/><path d="M 744 483.8 L 744.5 486.5 L 747.2 487 L 744.5 487.5 L 744 490.2 L 743.5 487.5 L 740.8 487 L 743.5 486.5 Z" fill="#d4af6a" opacity="0.4"/>
  <text x="380" y="46" text-anchor="middle" font-family="Georgia, 'Times New Roman', serif" font-size="22" letter-spacing="0.4" fill="#efeaf8">Sun-Sign Reading vs Full Chart Reading</text>
  <line x1="230" y1="67" x2="368" y2="67" stroke="url(#cardibbirthchart0en-rule)" stroke-width="1"/>
  <line x1="392" y1="67" x2="530" y2="67" stroke="url(#cardibbirthchart0en-rule)" stroke-width="1"/>
  <path d="M 380 62.0 L 380.8 66.2 L 385.0 67 L 380.8 67.8 L 380 72.0 L 379.2 67.8 L 375.0 67 L 379.2 66.2 Z" fill="#d4af6a" opacity="0.85"/>

  <rect x="46" y="99" width="668" height="172.0" rx="14" fill="#1d1740" fill-opacity="0.5" stroke="#d4af6a" stroke-opacity="0.22" stroke-width="0.9"/>
  <rect x="46" y="99" width="3.5" height="172.0" rx="1.8" fill="#d4af6a" fill-opacity="0.6"/>
  <path d="M 47.75 108.6 L 48.3 111.5 L 51.1 112 L 48.3 112.5 L 47.75 115.4 L 47.2 112.5 L 44.4 112 L 47.2 111.5 Z" fill="#f6e6bf" opacity="0.7"/>
  <text x="380" y="128.0" text-anchor="middle" font-family="Georgia, 'Times New Roman', serif" font-size="21" font-weight="700" letter-spacing="0.3" fill="#f3effb">Sun-Sign Reading</text>
  <path d="M 70 157.8 L 70.5 160.5 L 73.2 161 L 70.5 161.5 L 70 164.2 L 69.5 161.5 L 66.8 161 L 69.5 160.5 Z" fill="#d4af6a" opacity="0.8"/>
  <text x="84" y="166.0" font-family="Helvetica, Arial, sans-serif" font-size="16" fill="#a59cc0">One placement, one headline trait</text>
  <path d="M 70 186.8 L 70.5 189.5 L 73.2 190 L 70.5 190.5 L 70 193.2 L 69.5 190.5 L 66.8 190 L 69.5 189.5 Z" fill="#d4af6a" opacity="0.8"/>
  <text x="84" y="195.0" font-family="Helvetica, Arial, sans-serif" font-size="16" fill="#a59cc0">Quick and shareable</text>
  <path d="M 70 215.8 L 70.5 218.5 L 73.2 219 L 70.5 219.5 L 70 222.2 L 69.5 219.5 L 66.8 219 L 69.5 218.5 Z" fill="#d4af6a" opacity="0.8"/>
  <text x="84" y="224.0" font-family="Helvetica, Arial, sans-serif" font-size="16" fill="#a59cc0">Sacrifices nuance for speed</text>
  <path d="M 70 244.8 L 70.5 247.5 L 73.2 248 L 70.5 248.5 L 70 251.2 L 69.5 248.5 L 66.8 248 L 69.5 247.5 Z" fill="#d4af6a" opacity="0.8"/>
  <text x="84" y="253.0" font-family="Helvetica, Arial, sans-serif" font-size="16" fill="#a59cc0">Collapses into a single label</text>
  <path d="M 380 279.5 L 380.7 283.3 L 384.5 284 L 380.7 284.7 L 380 288.5 L 379.3 284.7 L 375.5 284 L 379.3 283.3 Z" fill="#d4af6a" opacity="0.65"/>
  <rect x="46" y="297" width="668" height="172.0" rx="14" fill="#1d1740" fill-opacity="0.5" stroke="#d4af6a" stroke-opacity="0.22" stroke-width="0.9"/>
  <rect x="46" y="297" width="3.5" height="172.0" rx="1.8" fill="#d4af6a" fill-opacity="0.6"/>
  <path d="M 47.75 306.6 L 48.3 309.5 L 51.1 310 L 48.3 310.5 L 47.75 313.4 L 47.2 310.5 L 44.4 310 L 47.2 309.5 Z" fill="#f6e6bf" opacity="0.7"/>
  <text x="380" y="326.0" text-anchor="middle" font-family="Georgia, 'Times New Roman', serif" font-size="21" font-weight="700" letter-spacing="0.3" fill="#f3effb">Full Chart Reading</text>
  <path d="M 70 355.8 L 70.5 358.5 L 73.2 359 L 70.5 359.5 L 70 362.2 L 69.5 359.5 L 66.8 359 L 69.5 358.5 Z" fill="#d4af6a" opacity="0.8"/>
  <text x="84" y="364.0" font-family="Helvetica, Arial, sans-serif" font-size="16" fill="#a59cc0">Layers Sun, Moon, and aspects</text>
  <path d="M 70 384.8 L 70.5 387.5 L 73.2 388 L 70.5 388.5 L 70 391.2 L 69.5 388.5 L 66.8 388 L 69.5 387.5 Z" fill="#d4af6a" opacity="0.8"/>
  <text x="84" y="393.0" font-family="Helvetica, Arial, sans-serif" font-size="16" fill="#a59cc0">Surfaces real contradictions</text>
  <path d="M 70 413.8 L 70.5 416.5 L 73.2 417 L 70.5 417.5 L 70 420.2 L 69.5 417.5 L 66.8 417 L 69.5 416.5 Z" fill="#d4af6a" opacity="0.8"/>
  <text x="84" y="422.0" font-family="Helvetica, Arial, sans-serif" font-size="16" fill="#a59cc0">Requires holding competing signals</text>
  <path d="M 70 442.8 L 70.5 445.5 L 73.2 446 L 70.5 446.5 L 70 449.2 L 69.5 446.5 L 66.8 446 L 69.5 445.5 Z" fill="#d4af6a" opacity="0.8"/>
  <text x="84" y="451.0" font-family="Helvetica, Arial, sans-serif" font-size="16" fill="#a59cc0">Portrait with genuine tension</text>
  <path d="M 202.22749999999988 474.4 L 202.6 476.6 L 204.8 477 L 202.6 477.4 L 202.22749999999988 479.6 L 201.8 477.4 L 199.6 477 L 201.8 476.6 Z" fill="#d4af6a" opacity="0.5"/>
  <text x="380" y="481" text-anchor="middle" font-family="Georgia, 'Times New Roman', serif" font-style="italic" font-size="11.5" fill="#7b738f">A self-reflection framework — tendencies, not predictions</text>
  <path d="M 557.7725000000002 474.4 L 558.2 476.6 L 560.4 477 L 558.2 477.4 L 557.7725000000002 479.6 L 557.4 477.4 L 555.2 477 L 557.4 476.6 Z" fill="#d4af6a" opacity="0.5"/>
</svg>
