<svg xmlns="http://www.w3.org/2000/svg" viewBox="0 0 760 487" role="img" aria-label="5 Steps to Spot the Sun–Midheaven Conjunction">
  <defs>
    <linearGradient id="carlosalcarazbirthchart1en-panel" x1="0" y1="0" x2="0.4" y2="1">
      <stop offset="0" stop-color="#1a1433"/><stop offset="0.55" stop-color="#120e26"/><stop offset="1" stop-color="#09081a"/>
    </linearGradient>
    <radialGradient id="carlosalcarazbirthchart1en-foil" cx="0.42" cy="0.34" r="0.75">
      <stop offset="0" stop-color="#fbf0d2"/><stop offset="0.5" stop-color="#e8c882"/><stop offset="1" stop-color="#b8923f"/>
    </radialGradient>
    <radialGradient id="carlosalcarazbirthchart1en-glow" cx="0.5" cy="0.5" r="0.5">
      <stop offset="0" stop-color="#f6e6bf"/><stop offset="1" stop-color="#f6e6bf" stop-opacity="0"/>
    </radialGradient>
    <radialGradient id="carlosalcarazbirthchart1en-neb1" cx="0.5" cy="0.5" r="0.5">
      <stop offset="0" stop-color="#6f4bb0" stop-opacity="0.28"/><stop offset="1" stop-color="#6f4bb0" stop-opacity="0"/>
    </radialGradient>
    <radialGradient id="carlosalcarazbirthchart1en-neb2" cx="0.5" cy="0.5" r="0.5">
      <stop offset="0" stop-color="#d4af6a" stop-opacity="0.16"/><stop offset="1" stop-color="#d4af6a" stop-opacity="0"/>
    </radialGradient>
    <linearGradient id="carlosalcarazbirthchart1en-rule" x1="0" y1="0" x2="1" y2="0">
      <stop offset="0" stop-color="#d4af6a" stop-opacity="0"/><stop offset="0.5" stop-color="#d4af6a" stop-opacity="0.6"/><stop offset="1" stop-color="#d4af6a" stop-opacity="0"/>
    </linearGradient>
  </defs>
  <rect x="1.5" y="1.5" width="757" height="484" rx="22" fill="url(#carlosalcarazbirthchart1en-panel)"/>
  <ellipse cx="198" cy="117" rx="380" ry="166" fill="url(#carlosalcarazbirthchart1en-neb1)"/>
  <ellipse cx="623" cy="390" rx="334" ry="156" fill="url(#carlosalcarazbirthchart1en-neb2)"/>
  <circle cx="552.6" cy="190.9" r="1.07" fill="#cfc8ea" opacity="0.32"/><circle cx="618.0" cy="194.6" r="1.46" fill="#cfc8ea" opacity="0.40"/><circle cx="139.0" cy="412.1" r="0.91" fill="#cfc8ea" opacity="0.29"/><circle cx="55.0" cy="76.2" r="0.61" fill="#cfc8ea" opacity="0.48"/><circle cx="386.8" cy="379.2" r="1.02" fill="#cfc8ea" opacity="0.31"/><circle cx="624.1" cy="95.8" r="0.76" fill="#cfc8ea" opacity="0.49"/><circle cx="349.5" cy="228.5" r="1.19" fill="#cfc8ea" opacity="0.28"/><circle cx="507.4" cy="440.6" r="0.76" fill="#cfc8ea" opacity="0.43"/><circle cx="728.3" cy="225.3" r="1.47" fill="#cfc8ea" opacity="0.52"/><circle cx="67.3" cy="224.5" r="1.03" fill="#cfc8ea" opacity="0.47"/><circle cx="197.8" cy="370.9" r="1.03" fill="#cfc8ea" opacity="0.29"/><circle cx="206.2" cy="409.8" r="1.05" fill="#cfc8ea" opacity="0.50"/><circle cx="309.2" cy="203.3" r="1.46" fill="#cfc8ea" opacity="0.16"/><circle cx="461.7" cy="134.8" r="0.43" fill="#cfc8ea" opacity="0.35"/><circle cx="546.0" cy="431.4" r="0.74" fill="#cfc8ea" opacity="0.20"/><circle cx="72.5" cy="55.0" r="0.58" fill="#cfc8ea" opacity="0.13"/><circle cx="94.0" cy="339.0" r="0.43" fill="#cfc8ea" opacity="0.37"/><circle cx="202.8" cy="29.0" r="0.47" fill="#cfc8ea" opacity="0.29"/><circle cx="389.8" cy="293.6" r="0.46" fill="#cfc8ea" opacity="0.47"/><circle cx="461.8" cy="395.3" r="1.18" fill="#cfc8ea" opacity="0.26"/><circle cx="435.3" cy="31.9" r="0.79" fill="#cfc8ea" opacity="0.16"/><circle cx="307.5" cy="234.5" r="1.33" fill="#cfc8ea" opacity="0.39"/><circle cx="564.8" cy="156.6" r="0.68" fill="#cfc8ea" opacity="0.25"/><circle cx="722.5" cy="352.0" r="1.34" fill="#cfc8ea" opacity="0.46"/><circle cx="223.8" cy="55.3" r="0.93" fill="#cfc8ea" opacity="0.27"/><circle cx="473.6" cy="440.8" r="0.79" fill="#cfc8ea" opacity="0.17"/><circle cx="504.1" cy="453.9" r="0.87" fill="#cfc8ea" opacity="0.38"/><circle cx="256.2" cy="194.1" r="1.51" fill="#cfc8ea" opacity="0.46"/><circle cx="249.5" cy="346.2" r="1.59" fill="#cfc8ea" opacity="0.43"/><circle cx="509.2" cy="34.3" r="1.35" fill="#cfc8ea" opacity="0.19"/><circle cx="663.3" cy="200.4" r="1.18" fill="#cfc8ea" opacity="0.53"/><circle cx="400.5" cy="370.8" r="1.58" fill="#cfc8ea" opacity="0.44"/><circle cx="668.4" cy="277.1" r="0.83" fill="#cfc8ea" opacity="0.41"/><circle cx="291.1" cy="60.1" r="0.75" fill="#cfc8ea" opacity="0.51"/><circle cx="596.7" cy="283.7" r="0.63" fill="#cfc8ea" opacity="0.53"/><circle cx="16.2" cy="20.6" r="1.51" fill="#cfc8ea" opacity="0.51"/><circle cx="312.2" cy="346.5" r="1.07" fill="#cfc8ea" opacity="0.45"/><circle cx="426.1" cy="45.3" r="0.90" fill="#cfc8ea" opacity="0.29"/><circle cx="515.4" cy="277.6" r="1.39" fill="#cfc8ea" opacity="0.17"/><circle cx="661.2" cy="25.3" r="0.82" fill="#cfc8ea" opacity="0.27"/><circle cx="612.7" cy="172.9" r="1.46" fill="#cfc8ea" opacity="0.49"/><path d="M 85.90317651443183 165.5 L 86.4 167.9 L 88.7 168.3104842249304 L 86.4 168.8 L 85.90317651443183 171.1 L 85.5 168.8 L 83.1 168.3104842249304 L 85.5 167.9 Z" fill="#f6e6bf" opacity="0.6233826815616339"/><path d="M 571.3348299767822 227.8 L 571.8 230.3 L 574.2 230.71646390203387 L 571.8 231.2 L 571.3348299767822 233.6 L 570.9 231.2 L 568.4 230.71646390203387 L 570.9 230.3 Z" fill="#f6e6bf" opacity="0.7397520868573337"/><path d="M 533.3570714127272 367.9 L 534.0 371.0 L 537.1 371.5854342058301 L 534.0 372.2 L 533.3570714127272 375.3 L 532.8 372.2 L 529.6 371.5854342058301 L 532.8 371.0 Z" fill="#f6e6bf" opacity="0.6972054583486169"/><path d="M 225.6109130140394 37.0 L 226.1 39.3 L 228.4 39.75076892133802 L 226.1 40.2 L 225.6109130140394 42.5 L 225.2 40.2 L 222.8 39.75076892133802 L 225.2 39.3 Z" fill="#f6e6bf" opacity="0.5640987139660865"/><path d="M 459.3150952439755 278.1 L 459.7 280.2 L 461.8 280.5531927552074 L 459.7 280.9 L 459.3150952439755 283.0 L 458.9 280.9 L 456.9 280.5531927552074 L 458.9 280.2 Z" fill="#f6e6bf" opacity="0.7335401977878064"/><path d="M 618.0 194.6 L 624.1 95.8 L 349.5 228.5 L 728.3 225.3 L 206.2 409.8" fill="none" stroke="#d4af6a" stroke-width="0.6" opacity="0.12"/>
  <rect x="1.5" y="1.5" width="757" height="484" rx="22" fill="none" stroke="#d4af6a" stroke-opacity="0.34" stroke-width="1.2"/>
  <rect x="7" y="7" width="746" height="473" rx="17" fill="none" stroke="#d4af6a" stroke-opacity="0.12" stroke-width="0.8"/>
  <path d="M 16 12.8 L 16.5 15.5 L 19.2 16 L 16.5 16.5 L 16 19.2 L 15.5 16.5 L 12.8 16 L 15.5 15.5 Z" fill="#d4af6a" opacity="0.4"/><path d="M 744 12.8 L 744.5 15.5 L 747.2 16 L 744.5 16.5 L 744 19.2 L 743.5 16.5 L 740.8 16 L 743.5 15.5 Z" fill="#d4af6a" opacity="0.4"/><path d="M 16 467.8 L 16.5 470.5 L 19.2 471 L 16.5 471.5 L 16 474.2 L 15.5 471.5 L 12.8 471 L 15.5 470.5 Z" fill="#d4af6a" opacity="0.4"/><path d="M 744 467.8 L 744.5 470.5 L 747.2 471 L 744.5 471.5 L 744 474.2 L 743.5 471.5 L 740.8 471 L 743.5 470.5 Z" fill="#d4af6a" opacity="0.4"/>
  <text x="380" y="46" text-anchor="middle" font-family="Georgia, 'Times New Roman', serif" font-size="22" letter-spacing="0.4" fill="#efeaf8">5 Steps to Spot the Sun–Midheaven Conjunction</text>
  <line x1="230" y1="67" x2="368" y2="67" stroke="url(#carlosalcarazbirthchart1en-rule)" stroke-width="1"/>
  <line x1="392" y1="67" x2="530" y2="67" stroke="url(#carlosalcarazbirthchart1en-rule)" stroke-width="1"/>
  <path d="M 380 62.0 L 380.8 66.2 L 385.0 67 L 380.8 67.8 L 380 72.0 L 379.2 67.8 L 375.0 67 L 379.2 66.2 Z" fill="#d4af6a" opacity="0.85"/>
  <line x1="76" y1="121" x2="76" y2="397" stroke="#d4af6a" stroke-opacity="0.28" stroke-width="1.5"/>
  <circle cx="76" cy="121" r="20.0" fill="url(#carlosalcarazbirthchart1en-glow)" opacity="0.5"/>
    <circle cx="76" cy="121" r="15" fill="url(#carlosalcarazbirthchart1en-foil)" stroke="#f6e6bf" stroke-opacity="0.5" stroke-width="0.8"/>
    <circle cx="76" cy="116.8" r="9.0" fill="#ffffff" opacity="0.10"/>
    <text x="76" y="125.5" text-anchor="middle" font-family="Georgia, 'Times New Roman', serif" font-size="13" font-weight="700" fill="#3a2c12">1</text>
  <text x="116" y="117.0" font-family="Georgia, 'Times New Roman', serif" font-size="22" letter-spacing="0.3" fill="#f3effb">Find the Midheaven</text>
  <text x="116" y="139.0" font-family="Helvetica, Arial, sans-serif" font-size="15.5" fill="#a59cc0">Locate the cusp at the top of the wheel; check if the Sun sits within a few</text>
  <text x="116" y="157.0" font-family="Helvetica, Arial, sans-serif" font-size="15.5" fill="#a59cc0">degrees of it</text>
  <circle cx="76" cy="199" r="20.0" fill="url(#carlosalcarazbirthchart1en-glow)" opacity="0.5"/>
    <circle cx="76" cy="199" r="15" fill="url(#carlosalcarazbirthchart1en-foil)" stroke="#f6e6bf" stroke-opacity="0.5" stroke-width="0.8"/>
    <circle cx="76" cy="194.8" r="9.0" fill="#ffffff" opacity="0.10"/>
    <text x="76" y="203.5" text-anchor="middle" font-family="Georgia, 'Times New Roman', serif" font-size="13" font-weight="700" fill="#3a2c12">2</text>
  <text x="116" y="195.0" font-family="Georgia, 'Times New Roman', serif" font-size="22" letter-spacing="0.3" fill="#f3effb">Confirm the Taurus Sun</text>
  <text x="116" y="217.0" font-family="Helvetica, Arial, sans-serif" font-size="15.5" fill="#a59cc0">Earthy, fixed, built for endurance rather than quick bursts</text>
  <circle cx="76" cy="259" r="20.0" fill="url(#carlosalcarazbirthchart1en-glow)" opacity="0.5"/>
    <circle cx="76" cy="259" r="15" fill="url(#carlosalcarazbirthchart1en-foil)" stroke="#f6e6bf" stroke-opacity="0.5" stroke-width="0.8"/>
    <circle cx="76" cy="254.8" r="9.0" fill="#ffffff" opacity="0.10"/>
    <text x="76" y="263.5" text-anchor="middle" font-family="Georgia, 'Times New Roman', serif" font-size="13" font-weight="700" fill="#3a2c12">3</text>
  <text x="116" y="255.0" font-family="Georgia, 'Times New Roman', serif" font-size="22" letter-spacing="0.3" fill="#f3effb">Notice Career Framing</text>
  <text x="116" y="277.0" font-family="Helvetica, Arial, sans-serif" font-size="15.5" fill="#a59cc0">An angular Sun makes public achievement central, not a side note</text>
  <circle cx="76" cy="319" r="20.0" fill="url(#carlosalcarazbirthchart1en-glow)" opacity="0.5"/>
    <circle cx="76" cy="319" r="15" fill="url(#carlosalcarazbirthchart1en-foil)" stroke="#f6e6bf" stroke-opacity="0.5" stroke-width="0.8"/>
    <circle cx="76" cy="314.8" r="9.0" fill="#ffffff" opacity="0.10"/>
    <text x="76" y="323.5" text-anchor="middle" font-family="Georgia, 'Times New Roman', serif" font-size="13" font-weight="700" fill="#3a2c12">4</text>
  <text x="116" y="315.0" font-family="Georgia, 'Times New Roman', serif" font-size="22" letter-spacing="0.3" fill="#f3effb">Watch Persona Under Pressure</text>
  <text x="116" y="337.0" font-family="Helvetica, Arial, sans-serif" font-size="15.5" fill="#a59cc0">Look for grounded, keep-repeating-the-basics steadiness that Taurus</text>
  <text x="116" y="355.0" font-family="Helvetica, Arial, sans-serif" font-size="15.5" fill="#a59cc0">symbolizes</text>
  <circle cx="76" cy="397" r="20.0" fill="url(#carlosalcarazbirthchart1en-glow)" opacity="0.5"/>
    <circle cx="76" cy="397" r="15" fill="url(#carlosalcarazbirthchart1en-foil)" stroke="#f6e6bf" stroke-opacity="0.5" stroke-width="0.8"/>
    <circle cx="76" cy="392.8" r="9.0" fill="#ffffff" opacity="0.10"/>
    <text x="76" y="401.5" text-anchor="middle" font-family="Georgia, 'Times New Roman', serif" font-size="13" font-weight="700" fill="#3a2c12">5</text>
  <text x="116" y="393.0" font-family="Georgia, 'Times New Roman', serif" font-size="22" letter-spacing="0.3" fill="#f3effb">Treat Exact Degree as Provisional</text>
  <text x="116" y="415.0" font-family="Helvetica, Arial, sans-serif" font-size="15.5" fill="#a59cc0">A shift in the recorded birth time can slide the Midheaven and weaken the</text>
  <text x="116" y="433.0" font-family="Helvetica, Arial, sans-serif" font-size="15.5" fill="#a59cc0">conjunction</text>
  <path d="M 202.22749999999988 458.4 L 202.6 460.6 L 204.8 461 L 202.6 461.4 L 202.22749999999988 463.6 L 201.8 461.4 L 199.6 461 L 201.8 460.6 Z" fill="#d4af6a" opacity="0.5"/>
  <text x="380" y="465" text-anchor="middle" font-family="Georgia, 'Times New Roman', serif" font-style="italic" font-size="11.5" fill="#7b738f">A self-reflection framework — tendencies, not predictions</text>
  <path d="M 557.7725000000002 458.4 L 558.2 460.6 L 560.4 461 L 558.2 461.4 L 557.7725000000002 463.6 L 557.4 461.4 L 555.2 461 L 557.4 460.6 Z" fill="#d4af6a" opacity="0.5"/>
</svg>
