<svg xmlns="http://www.w3.org/2000/svg" viewBox="0 0 760 529" role="img" aria-label="Six Steps to Reading Chiron in Taurus in Your Chart">
  <defs>
    <linearGradient id="chironintaurus2026astrology1en-panel" x1="0" y1="0" x2="0.4" y2="1">
      <stop offset="0" stop-color="#1a1433"/><stop offset="0.55" stop-color="#120e26"/><stop offset="1" stop-color="#09081a"/>
    </linearGradient>
    <radialGradient id="chironintaurus2026astrology1en-foil" cx="0.42" cy="0.34" r="0.75">
      <stop offset="0" stop-color="#fbf0d2"/><stop offset="0.5" stop-color="#e8c882"/><stop offset="1" stop-color="#b8923f"/>
    </radialGradient>
    <radialGradient id="chironintaurus2026astrology1en-glow" cx="0.5" cy="0.5" r="0.5">
      <stop offset="0" stop-color="#f6e6bf"/><stop offset="1" stop-color="#f6e6bf" stop-opacity="0"/>
    </radialGradient>
    <radialGradient id="chironintaurus2026astrology1en-neb1" cx="0.5" cy="0.5" r="0.5">
      <stop offset="0" stop-color="#6f4bb0" stop-opacity="0.28"/><stop offset="1" stop-color="#6f4bb0" stop-opacity="0"/>
    </radialGradient>
    <radialGradient id="chironintaurus2026astrology1en-neb2" cx="0.5" cy="0.5" r="0.5">
      <stop offset="0" stop-color="#d4af6a" stop-opacity="0.16"/><stop offset="1" stop-color="#d4af6a" stop-opacity="0"/>
    </radialGradient>
    <linearGradient id="chironintaurus2026astrology1en-rule" x1="0" y1="0" x2="1" y2="0">
      <stop offset="0" stop-color="#d4af6a" stop-opacity="0"/><stop offset="0.5" stop-color="#d4af6a" stop-opacity="0.6"/><stop offset="1" stop-color="#d4af6a" stop-opacity="0"/>
    </linearGradient>
  </defs>
  <rect x="1.5" y="1.5" width="757" height="526" rx="22" fill="url(#chironintaurus2026astrology1en-panel)"/>
  <ellipse cx="198" cy="127" rx="380" ry="180" fill="url(#chironintaurus2026astrology1en-neb1)"/>
  <ellipse cx="623" cy="423" rx="334" ry="169" fill="url(#chironintaurus2026astrology1en-neb2)"/>
  <circle cx="179.0" cy="405.9" r="1.53" fill="#cfc8ea" opacity="0.25"/><circle cx="636.8" cy="60.6" r="0.93" fill="#cfc8ea" opacity="0.24"/><circle cx="49.1" cy="69.7" r="0.48" fill="#cfc8ea" opacity="0.28"/><circle cx="170.7" cy="168.1" r="1.32" fill="#cfc8ea" opacity="0.41"/><circle cx="14.8" cy="353.5" r="0.48" fill="#cfc8ea" opacity="0.24"/><circle cx="328.6" cy="134.8" r="1.17" fill="#cfc8ea" opacity="0.27"/><circle cx="62.2" cy="265.0" r="0.43" fill="#cfc8ea" opacity="0.48"/><circle cx="111.9" cy="146.1" r="0.96" fill="#cfc8ea" opacity="0.49"/><circle cx="668.3" cy="87.1" r="0.58" fill="#cfc8ea" opacity="0.30"/><circle cx="569.9" cy="279.5" r="1.23" fill="#cfc8ea" opacity="0.27"/><circle cx="712.4" cy="476.1" r="0.68" fill="#cfc8ea" opacity="0.14"/><circle cx="679.0" cy="104.4" r="1.33" fill="#cfc8ea" opacity="0.50"/><circle cx="365.7" cy="45.7" r="0.81" fill="#cfc8ea" opacity="0.30"/><circle cx="379.6" cy="509.9" r="1.22" fill="#cfc8ea" opacity="0.26"/><circle cx="339.0" cy="501.6" r="0.91" fill="#cfc8ea" opacity="0.42"/><circle cx="571.8" cy="343.7" r="0.61" fill="#cfc8ea" opacity="0.33"/><circle cx="179.9" cy="252.4" r="1.37" fill="#cfc8ea" opacity="0.49"/><circle cx="353.6" cy="448.7" r="0.94" fill="#cfc8ea" opacity="0.20"/><circle cx="705.7" cy="231.4" r="1.31" fill="#cfc8ea" opacity="0.37"/><circle cx="129.2" cy="374.8" r="0.84" fill="#cfc8ea" opacity="0.21"/><circle cx="711.2" cy="489.4" r="1.24" fill="#cfc8ea" opacity="0.17"/><circle cx="636.9" cy="478.7" r="1.01" fill="#cfc8ea" opacity="0.52"/><circle cx="323.1" cy="32.9" r="1.57" fill="#cfc8ea" opacity="0.31"/><circle cx="443.4" cy="28.4" r="0.76" fill="#cfc8ea" opacity="0.52"/><circle cx="23.2" cy="296.9" r="0.85" fill="#cfc8ea" opacity="0.34"/><circle cx="722.5" cy="247.8" r="0.56" fill="#cfc8ea" opacity="0.17"/><circle cx="115.9" cy="413.2" r="1.15" fill="#cfc8ea" opacity="0.15"/><circle cx="281.6" cy="447.7" r="1.05" fill="#cfc8ea" opacity="0.17"/><circle cx="341.2" cy="132.0" r="1.29" fill="#cfc8ea" opacity="0.29"/><circle cx="260.0" cy="373.9" r="1.31" fill="#cfc8ea" opacity="0.14"/><circle cx="702.6" cy="334.8" r="0.49" fill="#cfc8ea" opacity="0.34"/><circle cx="393.2" cy="14.3" r="0.57" fill="#cfc8ea" opacity="0.41"/><circle cx="296.5" cy="93.8" r="0.86" fill="#cfc8ea" opacity="0.26"/><circle cx="241.9" cy="194.0" r="0.75" fill="#cfc8ea" opacity="0.20"/><circle cx="176.1" cy="252.3" r="1.12" fill="#cfc8ea" opacity="0.25"/><circle cx="680.5" cy="83.3" r="1.68" fill="#cfc8ea" opacity="0.35"/><circle cx="465.7" cy="329.9" r="1.55" fill="#cfc8ea" opacity="0.54"/><circle cx="437.9" cy="180.4" r="0.49" fill="#cfc8ea" opacity="0.31"/><circle cx="722.0" cy="409.5" r="1.03" fill="#cfc8ea" opacity="0.28"/><circle cx="177.7" cy="178.0" r="1.47" fill="#cfc8ea" opacity="0.31"/><circle cx="89.3" cy="287.3" r="1.07" fill="#cfc8ea" opacity="0.34"/><circle cx="174.4" cy="100.4" r="1.51" fill="#cfc8ea" opacity="0.19"/><circle cx="214.2" cy="211.5" r="0.80" fill="#cfc8ea" opacity="0.13"/><circle cx="403.8" cy="292.4" r="0.54" fill="#cfc8ea" opacity="0.12"/><circle cx="576.8" cy="165.0" r="0.58" fill="#cfc8ea" opacity="0.39"/><path d="M 171.72593585401773 278.4 L 172.3 281.3 L 175.2 281.86632066383027 L 172.3 282.4 L 171.72593585401773 285.4 L 171.2 282.4 L 168.2 281.86632066383027 L 171.2 281.3 Z" fill="#f6e6bf" opacity="0.5179675340419635"/><path d="M 453.8230612576008 211.6 L 454.2 213.8 L 456.4 214.19168046745472 L 454.2 214.6 L 453.8230612576008 216.8 L 453.4 214.6 L 451.2 214.19168046745472 L 453.4 213.8 Z" fill="#f6e6bf" opacity="0.5878578546224162"/><path d="M 176.85346653312445 162.5 L 177.3 165.1 L 179.9 165.5652543043252 L 177.3 166.1 L 176.85346653312445 168.6 L 176.4 166.1 L 173.8 165.5652543043252 L 176.4 165.1 Z" fill="#f6e6bf" opacity="0.6761365106096491"/><path d="M 734.6401478201151 281.3 L 735.0 283.3 L 737.1 283.70575331221335 L 735.0 284.1 L 734.6401478201151 286.2 L 734.2 284.1 L 732.2 283.70575331221335 L 734.2 283.3 Z" fill="#f6e6bf" opacity="0.7701818846864625"/><path d="M 677.092252381146 506.6 L 677.7 509.8 L 680.9 510.3562607297208 L 677.7 511.0 L 677.092252381146 514.1 L 676.5 511.0 L 673.3 510.3562607297208 L 676.5 509.8 Z" fill="#f6e6bf" opacity="0.7400852959370241"/><path d="M 14.8 353.5 L 571.8 343.7 L 711.2 489.4 L 176.1 252.3 L 722.0 409.5" fill="none" stroke="#d4af6a" stroke-width="0.6" opacity="0.12"/>
  <rect x="1.5" y="1.5" width="757" height="526" rx="22" fill="none" stroke="#d4af6a" stroke-opacity="0.34" stroke-width="1.2"/>
  <rect x="7" y="7" width="746" height="515" rx="17" fill="none" stroke="#d4af6a" stroke-opacity="0.12" stroke-width="0.8"/>
  <path d="M 16 12.8 L 16.5 15.5 L 19.2 16 L 16.5 16.5 L 16 19.2 L 15.5 16.5 L 12.8 16 L 15.5 15.5 Z" fill="#d4af6a" opacity="0.4"/><path d="M 744 12.8 L 744.5 15.5 L 747.2 16 L 744.5 16.5 L 744 19.2 L 743.5 16.5 L 740.8 16 L 743.5 15.5 Z" fill="#d4af6a" opacity="0.4"/><path d="M 16 509.8 L 16.5 512.5 L 19.2 513 L 16.5 513.5 L 16 516.2 L 15.5 513.5 L 12.8 513 L 15.5 512.5 Z" fill="#d4af6a" opacity="0.4"/><path d="M 744 509.8 L 744.5 512.5 L 747.2 513 L 744.5 513.5 L 744 516.2 L 743.5 513.5 L 740.8 513 L 743.5 512.5 Z" fill="#d4af6a" opacity="0.4"/>
  <text x="380" y="46" text-anchor="middle" font-family="Georgia, 'Times New Roman', serif" font-size="22" letter-spacing="0.4" fill="#efeaf8">Six Steps to Reading Chiron in Taurus in Your Chart</text>
  <line x1="230" y1="67" x2="368" y2="67" stroke="url(#chironintaurus2026astrology1en-rule)" stroke-width="1"/>
  <line x1="392" y1="67" x2="530" y2="67" stroke="url(#chironintaurus2026astrology1en-rule)" stroke-width="1"/>
  <path d="M 380 62.0 L 380.8 66.2 L 385.0 67 L 380.8 67.8 L 380 72.0 L 379.2 67.8 L 375.0 67 L 379.2 66.2 Z" fill="#d4af6a" opacity="0.85"/>
  <line x1="76" y1="121" x2="76" y2="439" stroke="#d4af6a" stroke-opacity="0.28" stroke-width="1.5"/>
  <circle cx="76" cy="121" r="20.0" fill="url(#chironintaurus2026astrology1en-glow)" opacity="0.5"/>
    <circle cx="76" cy="121" r="15" fill="url(#chironintaurus2026astrology1en-foil)" stroke="#f6e6bf" stroke-opacity="0.5" stroke-width="0.8"/>
    <circle cx="76" cy="116.8" r="9.0" fill="#ffffff" opacity="0.10"/>
    <text x="76" y="125.5" text-anchor="middle" font-family="Georgia, 'Times New Roman', serif" font-size="13" font-weight="700" fill="#3a2c12">1</text>
  <text x="116" y="117.0" font-family="Georgia, 'Times New Roman', serif" font-size="22" letter-spacing="0.3" fill="#f3effb">Mark the Dates</text>
  <text x="116" y="139.0" font-family="Helvetica, Arial, sans-serif" font-size="15.5" fill="#a59cc0">Jun 19, 2026 ingress; Sep 17 retreat to Aries; Apr 2027 return; May 2034 end</text>
  <circle cx="76" cy="181" r="20.0" fill="url(#chironintaurus2026astrology1en-glow)" opacity="0.5"/>
    <circle cx="76" cy="181" r="15" fill="url(#chironintaurus2026astrology1en-foil)" stroke="#f6e6bf" stroke-opacity="0.5" stroke-width="0.8"/>
    <circle cx="76" cy="176.8" r="9.0" fill="#ffffff" opacity="0.10"/>
    <text x="76" y="185.5" text-anchor="middle" font-family="Georgia, 'Times New Roman', serif" font-size="13" font-weight="700" fill="#3a2c12">2</text>
  <text x="116" y="177.0" font-family="Georgia, 'Times New Roman', serif" font-size="22" letter-spacing="0.3" fill="#f3effb">Find Your Taurus House</text>
  <text x="116" y="199.0" font-family="Helvetica, Arial, sans-serif" font-size="15.5" fill="#a59cc0">Locate the birth-chart house holding Taurus — it names the life area in focus</text>
  <circle cx="76" cy="241" r="20.0" fill="url(#chironintaurus2026astrology1en-glow)" opacity="0.5"/>
    <circle cx="76" cy="241" r="15" fill="url(#chironintaurus2026astrology1en-foil)" stroke="#f6e6bf" stroke-opacity="0.5" stroke-width="0.8"/>
    <circle cx="76" cy="236.8" r="9.0" fill="#ffffff" opacity="0.10"/>
    <text x="76" y="245.5" text-anchor="middle" font-family="Georgia, 'Times New Roman', serif" font-size="13" font-weight="700" fill="#3a2c12">3</text>
  <text x="116" y="237.0" font-family="Georgia, 'Times New Roman', serif" font-size="22" letter-spacing="0.3" fill="#f3effb">Note Early-Degree Planets</text>
  <text x="116" y="259.0" font-family="Helvetica, Arial, sans-serif" font-size="15.5" fill="#a59cc0">Identify natal planets in early Taurus degrees for the first-contact pass in</text>
  <text x="116" y="277.0" font-family="Helvetica, Arial, sans-serif" font-size="15.5" fill="#a59cc0">2026</text>
  <circle cx="76" cy="319" r="20.0" fill="url(#chironintaurus2026astrology1en-glow)" opacity="0.5"/>
    <circle cx="76" cy="319" r="15" fill="url(#chironintaurus2026astrology1en-foil)" stroke="#f6e6bf" stroke-opacity="0.5" stroke-width="0.8"/>
    <circle cx="76" cy="314.8" r="9.0" fill="#ffffff" opacity="0.10"/>
    <text x="76" y="323.5" text-anchor="middle" font-family="Georgia, 'Times New Roman', serif" font-size="13" font-weight="700" fill="#3a2c12">4</text>
  <text x="116" y="315.0" font-family="Georgia, 'Times New Roman', serif" font-size="22" letter-spacing="0.3" fill="#f3effb">Treat 2026 as Preview</text>
  <text x="116" y="337.0" font-family="Helvetica, Arial, sans-serif" font-size="15.5" fill="#a59cc0">The June–September window is first contact with the theme, not the full chapter</text>
  <circle cx="76" cy="379" r="20.0" fill="url(#chironintaurus2026astrology1en-glow)" opacity="0.5"/>
    <circle cx="76" cy="379" r="15" fill="url(#chironintaurus2026astrology1en-foil)" stroke="#f6e6bf" stroke-opacity="0.5" stroke-width="0.8"/>
    <circle cx="76" cy="374.8" r="9.0" fill="#ffffff" opacity="0.10"/>
    <text x="76" y="383.5" text-anchor="middle" font-family="Georgia, 'Times New Roman', serif" font-size="13" font-weight="700" fill="#3a2c12">5</text>
  <text x="116" y="375.0" font-family="Georgia, 'Times New Roman', serif" font-size="22" letter-spacing="0.3" fill="#f3effb">Read the Retrograde</text>
  <text x="116" y="397.0" font-family="Helvetica, Arial, sans-serif" font-size="15.5" fill="#a59cc0">The return to Aries is a deliberate revisiting of identity, not a setback</text>
  <circle cx="76" cy="439" r="20.0" fill="url(#chironintaurus2026astrology1en-glow)" opacity="0.5"/>
    <circle cx="76" cy="439" r="15" fill="url(#chironintaurus2026astrology1en-foil)" stroke="#f6e6bf" stroke-opacity="0.5" stroke-width="0.8"/>
    <circle cx="76" cy="434.8" r="9.0" fill="#ffffff" opacity="0.10"/>
    <text x="76" y="443.5" text-anchor="middle" font-family="Georgia, 'Times New Roman', serif" font-size="13" font-weight="700" fill="#3a2c12">6</text>
  <text x="116" y="435.0" font-family="Georgia, 'Times New Roman', serif" font-size="22" letter-spacing="0.3" fill="#f3effb">Hold the Long Arc</text>
  <text x="116" y="457.0" font-family="Helvetica, Arial, sans-serif" font-size="15.5" fill="#a59cc0">Revisit the theme across years as Chiron moves through Taurus to observe what</text>
  <text x="116" y="475.0" font-family="Helvetica, Arial, sans-serif" font-size="15.5" fill="#a59cc0">shifts</text>
  <path d="M 202.22749999999988 500.4 L 202.6 502.6 L 204.8 503 L 202.6 503.4 L 202.22749999999988 505.6 L 201.8 503.4 L 199.6 503 L 201.8 502.6 Z" fill="#d4af6a" opacity="0.5"/>
  <text x="380" y="507" text-anchor="middle" font-family="Georgia, 'Times New Roman', serif" font-style="italic" font-size="11.5" fill="#7b738f">A self-reflection framework — tendencies, not predictions</text>
  <path d="M 557.7725000000002 500.4 L 558.2 502.6 L 560.4 503 L 558.2 503.4 L 557.7725000000002 505.6 L 557.4 503.4 L 555.2 503 L 557.4 502.6 Z" fill="#d4af6a" opacity="0.5"/>
</svg>
