<svg xmlns="http://www.w3.org/2000/svg" viewBox="0 0 760 614" role="img" aria-label="Three Ways to Read the Same Chart">
  <defs>
    <linearGradient id="christianpulisicbirthchart0en-panel" x1="0" y1="0" x2="0.4" y2="1">
      <stop offset="0" stop-color="#1a1433"/><stop offset="0.55" stop-color="#120e26"/><stop offset="1" stop-color="#09081a"/>
    </linearGradient>
    <radialGradient id="christianpulisicbirthchart0en-foil" cx="0.42" cy="0.34" r="0.75">
      <stop offset="0" stop-color="#fbf0d2"/><stop offset="0.5" stop-color="#e8c882"/><stop offset="1" stop-color="#b8923f"/>
    </radialGradient>
    <radialGradient id="christianpulisicbirthchart0en-glow" cx="0.5" cy="0.5" r="0.5">
      <stop offset="0" stop-color="#f6e6bf"/><stop offset="1" stop-color="#f6e6bf" stop-opacity="0"/>
    </radialGradient>
    <radialGradient id="christianpulisicbirthchart0en-neb1" cx="0.5" cy="0.5" r="0.5">
      <stop offset="0" stop-color="#6f4bb0" stop-opacity="0.28"/><stop offset="1" stop-color="#6f4bb0" stop-opacity="0"/>
    </radialGradient>
    <radialGradient id="christianpulisicbirthchart0en-neb2" cx="0.5" cy="0.5" r="0.5">
      <stop offset="0" stop-color="#d4af6a" stop-opacity="0.16"/><stop offset="1" stop-color="#d4af6a" stop-opacity="0"/>
    </radialGradient>
    <linearGradient id="christianpulisicbirthchart0en-rule" x1="0" y1="0" x2="1" y2="0">
      <stop offset="0" stop-color="#d4af6a" stop-opacity="0"/><stop offset="0.5" stop-color="#d4af6a" stop-opacity="0.6"/><stop offset="1" stop-color="#d4af6a" stop-opacity="0"/>
    </linearGradient>
  </defs>
  <rect x="1.5" y="1.5" width="757" height="611" rx="22" fill="url(#christianpulisicbirthchart0en-panel)"/>
  <ellipse cx="198" cy="147" rx="380" ry="209" fill="url(#christianpulisicbirthchart0en-neb1)"/>
  <ellipse cx="623" cy="491" rx="334" ry="196" fill="url(#christianpulisicbirthchart0en-neb2)"/>
  <circle cx="705.8" cy="463.2" r="1.36" fill="#cfc8ea" opacity="0.35"/><circle cx="655.0" cy="164.9" r="1.18" fill="#cfc8ea" opacity="0.13"/><circle cx="389.6" cy="269.3" r="1.04" fill="#cfc8ea" opacity="0.17"/><circle cx="592.4" cy="531.2" r="0.81" fill="#cfc8ea" opacity="0.20"/><circle cx="457.0" cy="584.7" r="1.35" fill="#cfc8ea" opacity="0.18"/><circle cx="175.7" cy="87.1" r="0.72" fill="#cfc8ea" opacity="0.43"/><circle cx="318.3" cy="104.4" r="0.55" fill="#cfc8ea" opacity="0.23"/><circle cx="683.1" cy="318.7" r="0.48" fill="#cfc8ea" opacity="0.47"/><circle cx="421.1" cy="482.4" r="0.98" fill="#cfc8ea" opacity="0.37"/><circle cx="647.2" cy="326.6" r="1.06" fill="#cfc8ea" opacity="0.52"/><circle cx="373.5" cy="233.3" r="1.22" fill="#cfc8ea" opacity="0.32"/><circle cx="487.1" cy="422.6" r="1.60" fill="#cfc8ea" opacity="0.44"/><circle cx="349.0" cy="409.4" r="1.14" fill="#cfc8ea" opacity="0.34"/><circle cx="650.7" cy="272.9" r="0.84" fill="#cfc8ea" opacity="0.26"/><circle cx="476.3" cy="561.3" r="1.49" fill="#cfc8ea" opacity="0.20"/><circle cx="299.8" cy="213.1" r="1.60" fill="#cfc8ea" opacity="0.48"/><circle cx="140.4" cy="175.2" r="0.41" fill="#cfc8ea" opacity="0.24"/><circle cx="167.0" cy="459.6" r="1.35" fill="#cfc8ea" opacity="0.31"/><circle cx="103.1" cy="589.5" r="1.35" fill="#cfc8ea" opacity="0.45"/><circle cx="412.6" cy="245.7" r="0.61" fill="#cfc8ea" opacity="0.27"/><circle cx="338.2" cy="439.9" r="1.08" fill="#cfc8ea" opacity="0.26"/><circle cx="610.9" cy="324.5" r="0.48" fill="#cfc8ea" opacity="0.12"/><circle cx="119.2" cy="352.4" r="0.42" fill="#cfc8ea" opacity="0.22"/><circle cx="524.3" cy="456.7" r="1.15" fill="#cfc8ea" opacity="0.13"/><circle cx="438.1" cy="421.1" r="1.39" fill="#cfc8ea" opacity="0.46"/><circle cx="448.2" cy="372.5" r="1.66" fill="#cfc8ea" opacity="0.51"/><circle cx="730.0" cy="151.3" r="1.12" fill="#cfc8ea" opacity="0.33"/><circle cx="374.4" cy="183.7" r="0.84" fill="#cfc8ea" opacity="0.23"/><circle cx="499.3" cy="208.8" r="0.89" fill="#cfc8ea" opacity="0.52"/><circle cx="480.6" cy="379.2" r="1.07" fill="#cfc8ea" opacity="0.43"/><circle cx="26.9" cy="271.0" r="0.42" fill="#cfc8ea" opacity="0.36"/><circle cx="323.1" cy="280.0" r="1.58" fill="#cfc8ea" opacity="0.52"/><circle cx="686.7" cy="100.3" r="1.65" fill="#cfc8ea" opacity="0.12"/><circle cx="689.0" cy="172.7" r="1.18" fill="#cfc8ea" opacity="0.48"/><circle cx="726.3" cy="249.3" r="0.48" fill="#cfc8ea" opacity="0.46"/><circle cx="48.5" cy="66.8" r="1.51" fill="#cfc8ea" opacity="0.37"/><circle cx="180.0" cy="136.0" r="1.59" fill="#cfc8ea" opacity="0.52"/><circle cx="143.9" cy="235.2" r="1.63" fill="#cfc8ea" opacity="0.49"/><circle cx="505.6" cy="360.1" r="1.59" fill="#cfc8ea" opacity="0.16"/><circle cx="341.0" cy="305.9" r="1.45" fill="#cfc8ea" opacity="0.54"/><circle cx="18.2" cy="215.7" r="1.17" fill="#cfc8ea" opacity="0.49"/><circle cx="640.5" cy="106.9" r="0.60" fill="#cfc8ea" opacity="0.53"/><circle cx="400.0" cy="455.0" r="0.61" fill="#cfc8ea" opacity="0.40"/><circle cx="646.3" cy="512.3" r="0.74" fill="#cfc8ea" opacity="0.44"/><circle cx="641.7" cy="137.2" r="0.76" fill="#cfc8ea" opacity="0.46"/><circle cx="176.5" cy="390.4" r="1.17" fill="#cfc8ea" opacity="0.40"/><circle cx="406.3" cy="300.5" r="0.43" fill="#cfc8ea" opacity="0.44"/><circle cx="648.4" cy="315.2" r="1.65" fill="#cfc8ea" opacity="0.22"/><circle cx="540.1" cy="234.4" r="1.42" fill="#cfc8ea" opacity="0.43"/><circle cx="113.5" cy="141.9" r="0.53" fill="#cfc8ea" opacity="0.27"/><circle cx="199.9" cy="388.7" r="1.13" fill="#cfc8ea" opacity="0.42"/><circle cx="384.5" cy="560.5" r="0.70" fill="#cfc8ea" opacity="0.35"/><path d="M 386.04918078146875 477.5 L 386.7 480.7 L 389.9 481.2688001114875 L 386.7 481.9 L 386.04918078146875 485.1 L 385.4 481.9 L 382.2 481.2688001114875 L 385.4 480.7 Z" fill="#f6e6bf" opacity="0.7039469440001994"/><path d="M 641.55177247338 583.4 L 642.1 586.5 L 645.2 587.0675410665572 L 642.1 587.6 L 641.55177247338 590.7 L 641.0 587.6 L 637.9 587.0675410665572 L 641.0 586.5 Z" fill="#f6e6bf" opacity="0.7649902406614273"/><path d="M 382.8085130061954 139.9 L 383.3 142.3 L 385.7 142.76635343395174 L 383.3 143.2 L 382.8085130061954 145.7 L 382.3 143.2 L 379.9 142.76635343395174 L 382.3 142.3 Z" fill="#f6e6bf" opacity="0.7858859332744033"/><path d="M 389.4736286830157 348.6 L 390.0 351.3 L 392.6 351.78801295906305 L 390.0 352.3 L 389.4736286830157 354.9 L 389.0 352.3 L 386.3 351.78801295906305 L 389.0 351.3 Z" fill="#f6e6bf" opacity="0.5728183852043003"/><path d="M 728.1115936096758 258.0 L 728.5 260.1 L 730.6 260.48273221589625 L 728.5 260.9 L 728.1115936096758 263.0 L 727.7 260.9 L 725.6 260.48273221589625 L 727.7 260.1 Z" fill="#f6e6bf" opacity="0.7519697472918778"/><path d="M 457.0 584.7 L 349.0 409.4 L 400.0 455.0 L 646.3 512.3" fill="none" stroke="#d4af6a" stroke-width="0.6" opacity="0.12"/>
  <rect x="1.5" y="1.5" width="757" height="611" rx="22" fill="none" stroke="#d4af6a" stroke-opacity="0.34" stroke-width="1.2"/>
  <rect x="7" y="7" width="746" height="600" rx="17" fill="none" stroke="#d4af6a" stroke-opacity="0.12" stroke-width="0.8"/>
  <path d="M 16 12.8 L 16.5 15.5 L 19.2 16 L 16.5 16.5 L 16 19.2 L 15.5 16.5 L 12.8 16 L 15.5 15.5 Z" fill="#d4af6a" opacity="0.4"/><path d="M 744 12.8 L 744.5 15.5 L 747.2 16 L 744.5 16.5 L 744 19.2 L 743.5 16.5 L 740.8 16 L 743.5 15.5 Z" fill="#d4af6a" opacity="0.4"/><path d="M 16 594.8 L 16.5 597.5 L 19.2 598 L 16.5 598.5 L 16 601.2 L 15.5 598.5 L 12.8 598 L 15.5 597.5 Z" fill="#d4af6a" opacity="0.4"/><path d="M 744 594.8 L 744.5 597.5 L 747.2 598 L 744.5 598.5 L 744 601.2 L 743.5 598.5 L 740.8 598 L 743.5 597.5 Z" fill="#d4af6a" opacity="0.4"/>
  <text x="380" y="46" text-anchor="middle" font-family="Georgia, 'Times New Roman', serif" font-size="22" letter-spacing="0.4" fill="#efeaf8">Three Ways to Read the Same Chart</text>
  <line x1="230" y1="67" x2="368" y2="67" stroke="url(#christianpulisicbirthchart0en-rule)" stroke-width="1"/>
  <line x1="392" y1="67" x2="530" y2="67" stroke="url(#christianpulisicbirthchart0en-rule)" stroke-width="1"/>
  <path d="M 380 62.0 L 380.8 66.2 L 385.0 67 L 380.8 67.8 L 380 72.0 L 379.2 67.8 L 375.0 67 L 379.2 66.2 Z" fill="#d4af6a" opacity="0.85"/>

  <rect x="46" y="99" width="668" height="143.0" rx="14" fill="#1d1740" fill-opacity="0.5" stroke="#d4af6a" stroke-opacity="0.22" stroke-width="0.9"/>
  <rect x="46" y="99" width="3.5" height="143.0" rx="1.8" fill="#d4af6a" fill-opacity="0.6"/>
  <path d="M 47.75 108.6 L 48.3 111.5 L 51.1 112 L 48.3 112.5 L 47.75 115.4 L 47.2 112.5 L 44.4 112 L 47.2 111.5 Z" fill="#f6e6bf" opacity="0.7"/>
  <text x="380" y="128.0" text-anchor="middle" font-family="Georgia, 'Times New Roman', serif" font-size="21" font-weight="700" letter-spacing="0.3" fill="#f3effb">Sun-anchored reading</text>
  <path d="M 70 157.8 L 70.5 160.5 L 73.2 161 L 70.5 161.5 L 70 164.2 L 69.5 161.5 L 66.8 161 L 69.5 160.5 Z" fill="#d4af6a" opacity="0.8"/>
  <text x="84" y="166.0" font-family="Helvetica, Arial, sans-serif" font-size="16" fill="#a59cc0">Leans on the Virgo Sun, fixed by a verified date</text>
  <path d="M 70 186.8 L 70.5 189.5 L 73.2 190 L 70.5 190.5 L 70 193.2 L 69.5 190.5 L 66.8 190 L 69.5 189.5 Z" fill="#d4af6a" opacity="0.8"/>
  <text x="84" y="195.0" font-family="Helvetica, Arial, sans-serif" font-size="16" fill="#a59cc0">Refuses to invent the unrecorded layers</text>
  <path d="M 70 215.8 L 70.5 218.5 L 73.2 219 L 70.5 219.5 L 70 222.2 L 69.5 219.5 L 66.8 219 L 69.5 218.5 Z" fill="#d4af6a" opacity="0.8"/>
  <text x="84" y="224.0" font-family="Helvetica, Arial, sans-serif" font-size="16" fill="#a59cc0">Names a theme of precision and adaptability, not a scoreline</text>
  <path d="M 380 250.5 L 380.7 254.3 L 384.5 255 L 380.7 255.7 L 380 259.5 L 379.3 255.7 L 375.5 255 L 379.3 254.3 Z" fill="#d4af6a" opacity="0.65"/>
  <rect x="46" y="268" width="668" height="143.0" rx="14" fill="#1d1740" fill-opacity="0.5" stroke="#d4af6a" stroke-opacity="0.22" stroke-width="0.9"/>
  <rect x="46" y="268" width="3.5" height="143.0" rx="1.8" fill="#d4af6a" fill-opacity="0.6"/>
  <path d="M 47.75 277.6 L 48.3 280.5 L 51.1 281 L 48.3 281.5 L 47.75 284.4 L 47.2 281.5 L 44.4 281 L 47.2 280.5 Z" fill="#f6e6bf" opacity="0.7"/>
  <text x="380" y="297.0" text-anchor="middle" font-family="Georgia, 'Times New Roman', serif" font-size="21" font-weight="700" letter-spacing="0.3" fill="#f3effb">Full natal reading</text>
  <path d="M 70 326.8 L 70.5 329.5 L 73.2 330 L 70.5 330.5 L 70 333.2 L 69.5 330.5 L 66.8 330 L 69.5 329.5 Z" fill="#d4af6a" opacity="0.8"/>
  <text x="84" y="335.0" font-family="Helvetica, Arial, sans-serif" font-size="16" fill="#a59cc0">Weighs Sun, Moon, Ascendant, every house cusp</text>
  <path d="M 70 355.8 L 70.5 358.5 L 73.2 359 L 70.5 359.5 L 70 362.2 L 69.5 359.5 L 66.8 359 L 69.5 358.5 Z" fill="#d4af6a" opacity="0.8"/>
  <text x="84" y="364.0" font-family="Helvetica, Arial, sans-serif" font-size="16" fill="#a59cc0">Needs a recorded birth time, which is not public</text>
  <path d="M 70 384.8 L 70.5 387.5 L 73.2 388 L 70.5 388.5 L 70 391.2 L 69.5 388.5 L 66.8 388 L 69.5 387.5 Z" fill="#d4af6a" opacity="0.8"/>
  <text x="84" y="393.0" font-family="Helvetica, Arial, sans-serif" font-size="16" fill="#a59cc0">Trades reliability for breadth</text>
  <path d="M 380 419.5 L 380.7 423.3 L 384.5 424 L 380.7 424.7 L 380 428.5 L 379.3 424.7 L 375.5 424 L 379.3 423.3 Z" fill="#d4af6a" opacity="0.65"/>
  <rect x="46" y="437" width="668" height="143.0" rx="14" fill="#1d1740" fill-opacity="0.5" stroke="#d4af6a" stroke-opacity="0.22" stroke-width="0.9"/>
  <rect x="46" y="437" width="3.5" height="143.0" rx="1.8" fill="#d4af6a" fill-opacity="0.6"/>
  <path d="M 47.75 446.6 L 48.3 449.5 L 51.1 450 L 48.3 450.5 L 47.75 453.4 L 47.2 450.5 L 44.4 450 L 47.2 449.5 Z" fill="#f6e6bf" opacity="0.7"/>
  <text x="380" y="466.0" text-anchor="middle" font-family="Georgia, 'Times New Roman', serif" font-size="21" font-weight="700" letter-spacing="0.3" fill="#f3effb">Tabloid zodiac blurb</text>
  <path d="M 70 495.8 L 70.5 498.5 L 73.2 499 L 70.5 499.5 L 70 502.2 L 69.5 499.5 L 66.8 499 L 69.5 498.5 Z" fill="#d4af6a" opacity="0.8"/>
  <text x="84" y="504.0" font-family="Helvetica, Arial, sans-serif" font-size="16" fill="#a59cc0">Flattens Virgo into a single perfectionist mood</text>
  <path d="M 70 524.8 L 70.5 527.5 L 73.2 528 L 70.5 528.5 L 70 531.2 L 69.5 528.5 L 66.8 528 L 69.5 527.5 Z" fill="#d4af6a" opacity="0.8"/>
  <text x="84" y="533.0" font-family="Helvetica, Arial, sans-serif" font-size="16" fill="#a59cc0">Treats the winger-mid-forward as one fixed type</text>
  <path d="M 70 553.8 L 70.5 556.5 L 73.2 557 L 70.5 557.5 L 70 560.2 L 69.5 557.5 L 66.8 557 L 69.5 556.5 Z" fill="#d4af6a" opacity="0.8"/>
  <text x="84" y="562.0" font-family="Helvetica, Arial, sans-serif" font-size="16" fill="#a59cc0">Trades accuracy for catchiness</text>
  <path d="M 202.22749999999988 585.4 L 202.6 587.6 L 204.8 588 L 202.6 588.4 L 202.22749999999988 590.6 L 201.8 588.4 L 199.6 588 L 201.8 587.6 Z" fill="#d4af6a" opacity="0.5"/>
  <text x="380" y="592" text-anchor="middle" font-family="Georgia, 'Times New Roman', serif" font-style="italic" font-size="11.5" fill="#7b738f">A self-reflection framework — tendencies, not predictions</text>
  <path d="M 557.7725000000002 585.4 L 558.2 587.6 L 560.4 588 L 558.2 588.4 L 557.7725000000002 590.6 L 557.4 588.4 L 555.2 588 L 557.4 587.6 Z" fill="#d4af6a" opacity="0.5"/>
</svg>
