<svg xmlns="http://www.w3.org/2000/svg" viewBox="0 0 760 701" role="img" aria-label="Three Ways to Read an Aquarius Sun">
  <defs>
    <linearGradient id="cristianoronaldozodiacsign0en-panel" x1="0" y1="0" x2="0.4" y2="1">
      <stop offset="0" stop-color="#1a1433"/><stop offset="0.55" stop-color="#120e26"/><stop offset="1" stop-color="#09081a"/>
    </linearGradient>
    <radialGradient id="cristianoronaldozodiacsign0en-foil" cx="0.42" cy="0.34" r="0.75">
      <stop offset="0" stop-color="#fbf0d2"/><stop offset="0.5" stop-color="#e8c882"/><stop offset="1" stop-color="#b8923f"/>
    </radialGradient>
    <radialGradient id="cristianoronaldozodiacsign0en-glow" cx="0.5" cy="0.5" r="0.5">
      <stop offset="0" stop-color="#f6e6bf"/><stop offset="1" stop-color="#f6e6bf" stop-opacity="0"/>
    </radialGradient>
    <radialGradient id="cristianoronaldozodiacsign0en-neb1" cx="0.5" cy="0.5" r="0.5">
      <stop offset="0" stop-color="#6f4bb0" stop-opacity="0.28"/><stop offset="1" stop-color="#6f4bb0" stop-opacity="0"/>
    </radialGradient>
    <radialGradient id="cristianoronaldozodiacsign0en-neb2" cx="0.5" cy="0.5" r="0.5">
      <stop offset="0" stop-color="#d4af6a" stop-opacity="0.16"/><stop offset="1" stop-color="#d4af6a" stop-opacity="0"/>
    </radialGradient>
    <linearGradient id="cristianoronaldozodiacsign0en-rule" x1="0" y1="0" x2="1" y2="0">
      <stop offset="0" stop-color="#d4af6a" stop-opacity="0"/><stop offset="0.5" stop-color="#d4af6a" stop-opacity="0.6"/><stop offset="1" stop-color="#d4af6a" stop-opacity="0"/>
    </linearGradient>
  </defs>
  <rect x="1.5" y="1.5" width="757" height="698" rx="22" fill="url(#cristianoronaldozodiacsign0en-panel)"/>
  <ellipse cx="198" cy="168" rx="380" ry="238" fill="url(#cristianoronaldozodiacsign0en-neb1)"/>
  <ellipse cx="623" cy="561" rx="334" ry="224" fill="url(#cristianoronaldozodiacsign0en-neb2)"/>
  <circle cx="56.1" cy="102.2" r="1.49" fill="#cfc8ea" opacity="0.50"/><circle cx="295.8" cy="390.2" r="1.13" fill="#cfc8ea" opacity="0.32"/><circle cx="566.5" cy="552.4" r="0.41" fill="#cfc8ea" opacity="0.52"/><circle cx="468.5" cy="442.7" r="1.52" fill="#cfc8ea" opacity="0.37"/><circle cx="179.4" cy="485.8" r="1.20" fill="#cfc8ea" opacity="0.19"/><circle cx="96.4" cy="420.8" r="1.15" fill="#cfc8ea" opacity="0.37"/><circle cx="625.7" cy="228.6" r="1.53" fill="#cfc8ea" opacity="0.48"/><circle cx="96.1" cy="138.3" r="0.79" fill="#cfc8ea" opacity="0.13"/><circle cx="726.4" cy="493.4" r="1.51" fill="#cfc8ea" opacity="0.16"/><circle cx="700.7" cy="164.6" r="0.75" fill="#cfc8ea" opacity="0.21"/><circle cx="182.2" cy="292.5" r="1.25" fill="#cfc8ea" opacity="0.21"/><circle cx="591.0" cy="64.2" r="1.03" fill="#cfc8ea" opacity="0.44"/><circle cx="624.7" cy="598.7" r="0.51" fill="#cfc8ea" opacity="0.53"/><circle cx="495.8" cy="397.6" r="1.19" fill="#cfc8ea" opacity="0.24"/><circle cx="62.7" cy="320.5" r="1.49" fill="#cfc8ea" opacity="0.18"/><circle cx="59.7" cy="281.1" r="1.46" fill="#cfc8ea" opacity="0.14"/><circle cx="736.2" cy="437.5" r="0.98" fill="#cfc8ea" opacity="0.14"/><circle cx="437.2" cy="135.0" r="0.68" fill="#cfc8ea" opacity="0.42"/><circle cx="465.1" cy="121.2" r="0.67" fill="#cfc8ea" opacity="0.20"/><circle cx="570.7" cy="128.4" r="0.78" fill="#cfc8ea" opacity="0.18"/><circle cx="295.5" cy="619.5" r="0.64" fill="#cfc8ea" opacity="0.27"/><circle cx="386.8" cy="386.4" r="0.87" fill="#cfc8ea" opacity="0.42"/><circle cx="199.6" cy="374.8" r="1.20" fill="#cfc8ea" opacity="0.18"/><circle cx="256.5" cy="577.8" r="0.84" fill="#cfc8ea" opacity="0.25"/><circle cx="383.4" cy="326.2" r="1.37" fill="#cfc8ea" opacity="0.44"/><circle cx="633.5" cy="476.9" r="1.22" fill="#cfc8ea" opacity="0.33"/><circle cx="143.1" cy="501.5" r="0.44" fill="#cfc8ea" opacity="0.17"/><circle cx="355.8" cy="68.7" r="1.56" fill="#cfc8ea" opacity="0.46"/><circle cx="556.0" cy="54.4" r="0.66" fill="#cfc8ea" opacity="0.38"/><circle cx="555.8" cy="487.3" r="1.20" fill="#cfc8ea" opacity="0.19"/><circle cx="61.0" cy="159.4" r="1.38" fill="#cfc8ea" opacity="0.42"/><circle cx="480.1" cy="169.1" r="1.35" fill="#cfc8ea" opacity="0.21"/><circle cx="692.9" cy="82.8" r="1.67" fill="#cfc8ea" opacity="0.37"/><circle cx="557.5" cy="511.9" r="0.47" fill="#cfc8ea" opacity="0.37"/><circle cx="216.8" cy="108.2" r="1.68" fill="#cfc8ea" opacity="0.44"/><circle cx="470.1" cy="338.6" r="1.67" fill="#cfc8ea" opacity="0.45"/><circle cx="439.0" cy="297.8" r="0.76" fill="#cfc8ea" opacity="0.48"/><circle cx="341.0" cy="471.0" r="0.42" fill="#cfc8ea" opacity="0.29"/><circle cx="237.4" cy="375.9" r="0.51" fill="#cfc8ea" opacity="0.48"/><circle cx="160.4" cy="507.0" r="0.68" fill="#cfc8ea" opacity="0.28"/><circle cx="577.3" cy="416.6" r="1.11" fill="#cfc8ea" opacity="0.36"/><circle cx="16.2" cy="317.2" r="0.74" fill="#cfc8ea" opacity="0.30"/><circle cx="395.8" cy="605.5" r="0.64" fill="#cfc8ea" opacity="0.17"/><circle cx="329.2" cy="562.1" r="1.39" fill="#cfc8ea" opacity="0.18"/><circle cx="545.9" cy="492.2" r="1.58" fill="#cfc8ea" opacity="0.33"/><circle cx="422.5" cy="647.5" r="1.43" fill="#cfc8ea" opacity="0.33"/><circle cx="356.9" cy="180.3" r="0.53" fill="#cfc8ea" opacity="0.39"/><circle cx="198.7" cy="226.2" r="1.53" fill="#cfc8ea" opacity="0.21"/><circle cx="484.2" cy="396.7" r="0.99" fill="#cfc8ea" opacity="0.45"/><circle cx="696.9" cy="515.4" r="0.69" fill="#cfc8ea" opacity="0.18"/><circle cx="180.9" cy="634.5" r="1.10" fill="#cfc8ea" opacity="0.31"/><circle cx="283.6" cy="264.9" r="0.47" fill="#cfc8ea" opacity="0.39"/><circle cx="184.3" cy="539.3" r="1.38" fill="#cfc8ea" opacity="0.49"/><circle cx="138.6" cy="238.7" r="1.05" fill="#cfc8ea" opacity="0.35"/><circle cx="466.6" cy="162.7" r="0.64" fill="#cfc8ea" opacity="0.15"/><circle cx="433.8" cy="42.8" r="1.33" fill="#cfc8ea" opacity="0.53"/><circle cx="16.7" cy="145.4" r="0.44" fill="#cfc8ea" opacity="0.37"/><circle cx="562.5" cy="244.6" r="0.54" fill="#cfc8ea" opacity="0.16"/><circle cx="177.0" cy="675.6" r="0.55" fill="#cfc8ea" opacity="0.14"/><path d="M 31.20706676505506 153.3 L 31.8 156.4 L 34.9 156.97976289968938 L 31.8 157.6 L 31.20706676505506 160.7 L 30.6 157.6 L 27.5 156.97976289968938 L 30.6 156.4 Z" fill="#f6e6bf" opacity="0.6628279930446297"/><path d="M 588.5550232660025 234.3 L 589.1 237.1 L 591.9 237.67943288385868 L 589.1 238.2 L 588.5550232660025 241.1 L 588.0 238.2 L 585.2 237.67943288385868 L 588.0 237.1 Z" fill="#f6e6bf" opacity="0.7356349130626768"/><path d="M 682.0861332770437 129.9 L 682.6 132.6 L 685.3 133.11587428767234 L 682.6 133.6 L 682.0861332770437 136.3 L 681.6 133.6 L 678.9 133.11587428767234 L 681.6 132.6 Z" fill="#f6e6bf" opacity="0.5051446337718517"/><path d="M 604.1014126520604 110.3 L 604.6 113.1 L 607.4 113.61153894104064 L 604.6 114.1 L 604.1014126520604 116.9 L 603.6 114.1 L 600.8 113.61153894104064 L 603.6 113.1 Z" fill="#f6e6bf" opacity="0.6726594689767808"/><path d="M 679.4966953601688 411.4 L 679.9 413.6 L 682.1 414.01148075517267 L 679.9 414.4 L 679.4966953601688 416.6 L 679.1 414.4 L 676.9 414.01148075517267 L 679.1 413.6 Z" fill="#f6e6bf" opacity="0.6015815707389265"/><path d="M 56.1 102.2 L 495.8 397.6 L 199.6 374.8 L 480.1 169.1 L 557.5 511.9" fill="none" stroke="#d4af6a" stroke-width="0.6" opacity="0.12"/>
  <rect x="1.5" y="1.5" width="757" height="698" rx="22" fill="none" stroke="#d4af6a" stroke-opacity="0.34" stroke-width="1.2"/>
  <rect x="7" y="7" width="746" height="687" rx="17" fill="none" stroke="#d4af6a" stroke-opacity="0.12" stroke-width="0.8"/>
  <path d="M 16 12.8 L 16.5 15.5 L 19.2 16 L 16.5 16.5 L 16 19.2 L 15.5 16.5 L 12.8 16 L 15.5 15.5 Z" fill="#d4af6a" opacity="0.4"/><path d="M 744 12.8 L 744.5 15.5 L 747.2 16 L 744.5 16.5 L 744 19.2 L 743.5 16.5 L 740.8 16 L 743.5 15.5 Z" fill="#d4af6a" opacity="0.4"/><path d="M 16 681.8 L 16.5 684.5 L 19.2 685 L 16.5 685.5 L 16 688.2 L 15.5 685.5 L 12.8 685 L 15.5 684.5 Z" fill="#d4af6a" opacity="0.4"/><path d="M 744 681.8 L 744.5 684.5 L 747.2 685 L 744.5 685.5 L 744 688.2 L 743.5 685.5 L 740.8 685 L 743.5 684.5 Z" fill="#d4af6a" opacity="0.4"/>
  <text x="380" y="46" text-anchor="middle" font-family="Georgia, 'Times New Roman', serif" font-size="22" letter-spacing="0.4" fill="#efeaf8">Three Ways to Read an Aquarius Sun</text>
  <line x1="230" y1="67" x2="368" y2="67" stroke="url(#cristianoronaldozodiacsign0en-rule)" stroke-width="1"/>
  <line x1="392" y1="67" x2="530" y2="67" stroke="url(#cristianoronaldozodiacsign0en-rule)" stroke-width="1"/>
  <path d="M 380 62.0 L 380.8 66.2 L 385.0 67 L 380.8 67.8 L 380 72.0 L 379.2 67.8 L 375.0 67 L 379.2 66.2 Z" fill="#d4af6a" opacity="0.85"/>

  <rect x="46" y="99" width="668" height="172.0" rx="14" fill="#1d1740" fill-opacity="0.5" stroke="#d4af6a" stroke-opacity="0.22" stroke-width="0.9"/>
  <rect x="46" y="99" width="668" height="3.5" rx="1.8" fill="#d4af6a" fill-opacity="0.6"/>
  <path d="M 380 97.1 L 380.5 100.0 L 383.4 100.5 L 380.5 101.0 L 380 103.9 L 379.5 101.0 L 376.6 100.5 L 379.5 100.0 Z" fill="#f6e6bf" opacity="0.7"/>
  <text x="380" y="128.0" text-anchor="middle" font-family="Georgia, 'Times New Roman', serif" font-size="21" font-weight="700" letter-spacing="0.3" fill="#f3effb">Flat Sun-Sign Label</text>
  <path d="M 70 157.8 L 70.5 160.5 L 73.2 161 L 70.5 161.5 L 70 164.2 L 69.5 161.5 L 66.8 161 L 69.5 160.5 Z" fill="#d4af6a" opacity="0.8"/>
  <text x="84" y="166.0" font-family="Helvetica, Arial, sans-serif" font-size="16" fill="#a59cc0">One-word trait: quirky, aloof</text>
  <path d="M 70 186.8 L 70.5 189.5 L 73.2 190 L 70.5 190.5 L 70 193.2 L 69.5 190.5 L 66.8 190 L 69.5 189.5 Z" fill="#d4af6a" opacity="0.8"/>
  <text x="84" y="195.0" font-family="Helvetica, Arial, sans-serif" font-size="16" fill="#a59cc0">No ruler or timing signal</text>
  <path d="M 70 215.8 L 70.5 218.5 L 73.2 219 L 70.5 219.5 L 70 222.2 L 69.5 219.5 L 66.8 219 L 69.5 218.5 Z" fill="#d4af6a" opacity="0.8"/>
  <text x="84" y="224.0" font-family="Helvetica, Arial, sans-serif" font-size="16" fill="#a59cc0">Fixed character verdict</text>
  <path d="M 70 244.8 L 70.5 247.5 L 73.2 248 L 70.5 248.5 L 70 251.2 L 69.5 248.5 L 66.8 248 L 69.5 247.5 Z" fill="#d4af6a" opacity="0.8"/>
  <text x="84" y="253.0" font-family="Helvetica, Arial, sans-serif" font-size="16" fill="#a59cc0">Comfortable but shallow</text>
  <path d="M 380 279.5 L 380.7 283.3 L 384.5 284 L 380.7 284.7 L 380 288.5 L 379.3 284.7 L 375.5 284 L 379.3 283.3 Z" fill="#d4af6a" opacity="0.65"/>
  <rect x="46" y="297" width="668" height="172.0" rx="14" fill="#1d1740" fill-opacity="0.5" stroke="#d4af6a" stroke-opacity="0.22" stroke-width="0.9"/>
  <rect x="46" y="297" width="668" height="3.5" rx="1.8" fill="#d4af6a" fill-opacity="0.6"/>
  <path d="M 380 295.1 L 380.5 298.0 L 383.4 298.5 L 380.5 299.0 L 380 301.9 L 379.5 299.0 L 376.6 298.5 L 379.5 298.0 Z" fill="#f6e6bf" opacity="0.7"/>
  <text x="380" y="326.0" text-anchor="middle" font-family="Georgia, 'Times New Roman', serif" font-size="21" font-weight="700" letter-spacing="0.3" fill="#f3effb">Structural Reading (This Method)</text>
  <path d="M 70 355.8 L 70.5 358.5 L 73.2 359 L 70.5 359.5 L 70 362.2 L 69.5 359.5 L 66.8 359 L 69.5 358.5 Z" fill="#d4af6a" opacity="0.8"/>
  <text x="84" y="364.0" font-family="Helvetica, Arial, sans-serif" font-size="16" fill="#a59cc0">Sun + Saturn ruler structure</text>
  <path d="M 70 384.8 L 70.5 387.5 L 73.2 388 L 70.5 388.5 L 70 391.2 L 69.5 388.5 L 66.8 388 L 69.5 387.5 Z" fill="#d4af6a" opacity="0.8"/>
  <text x="84" y="393.0" font-family="Helvetica, Arial, sans-serif" font-size="16" fill="#a59cc0">Legacy and discipline wired together</text>
  <path d="M 70 413.8 L 70.5 416.5 L 73.2 417 L 70.5 417.5 L 70 420.2 L 69.5 417.5 L 66.8 417 L 69.5 416.5 Z" fill="#d4af6a" opacity="0.8"/>
  <text x="84" y="422.0" font-family="Helvetica, Arial, sans-serif" font-size="16" fill="#a59cc0">Saturn transits as timing signal</text>
  <path d="M 70 442.8 L 70.5 445.5 L 73.2 446 L 70.5 446.5 L 70 449.2 L 69.5 446.5 L 66.8 446 L 69.5 445.5 Z" fill="#d4af6a" opacity="0.8"/>
  <text x="84" y="451.0" font-family="Helvetica, Arial, sans-serif" font-size="16" fill="#a59cc0">Pressure pattern, not a destiny</text>
  <path d="M 380 477.5 L 380.7 481.3 L 384.5 482 L 380.7 482.7 L 380 486.5 L 379.3 482.7 L 375.5 482 L 379.3 481.3 Z" fill="#d4af6a" opacity="0.65"/>
  <rect x="46" y="495" width="668" height="172.0" rx="14" fill="#1d1740" fill-opacity="0.5" stroke="#d4af6a" stroke-opacity="0.22" stroke-width="0.9"/>
  <rect x="46" y="495" width="668" height="3.5" rx="1.8" fill="#d4af6a" fill-opacity="0.6"/>
  <path d="M 380 493.1 L 380.5 496.0 L 383.4 496.5 L 380.5 497.0 L 380 499.9 L 379.5 497.0 L 376.6 496.5 L 379.5 496.0 Z" fill="#f6e6bf" opacity="0.7"/>
  <text x="380" y="524.0" text-anchor="middle" font-family="Georgia, 'Times New Roman', serif" font-size="21" font-weight="700" letter-spacing="0.3" fill="#f3effb">Results-Driven Prediction</text>
  <path d="M 70 553.8 L 70.5 556.5 L 73.2 557 L 70.5 557.5 L 70 560.2 L 69.5 557.5 L 66.8 557 L 69.5 556.5 Z" fill="#d4af6a" opacity="0.8"/>
  <text x="84" y="562.0" font-family="Helvetica, Arial, sans-serif" font-size="16" fill="#a59cc0">Names a champion or outcome</text>
  <path d="M 70 582.8 L 70.5 585.5 L 73.2 586 L 70.5 586.5 L 70 589.2 L 69.5 586.5 L 66.8 586 L 69.5 585.5 Z" fill="#d4af6a" opacity="0.8"/>
  <text x="84" y="591.0" font-family="Helvetica, Arial, sans-serif" font-size="16" fill="#a59cc0">Stands or falls on the result</text>
  <path d="M 70 611.8 L 70.5 614.5 L 73.2 615 L 70.5 615.5 L 70 618.2 L 69.5 615.5 L 66.8 615 L 69.5 614.5 Z" fill="#d4af6a" opacity="0.8"/>
  <text x="84" y="620.0" font-family="Helvetica, Arial, sans-serif" font-size="16" fill="#a59cc0">Loses credibility after the score</text>
  <path d="M 70 640.8 L 70.5 643.5 L 73.2 644 L 70.5 644.5 L 70 647.2 L 69.5 644.5 L 66.8 644 L 69.5 643.5 Z" fill="#d4af6a" opacity="0.8"/>
  <text x="84" y="649.0" font-family="Helvetica, Arial, sans-serif" font-size="16" fill="#a59cc0">No chart can supply a scoreline</text>
  <path d="M 202.22749999999988 672.4 L 202.6 674.6 L 204.8 675 L 202.6 675.4 L 202.22749999999988 677.6 L 201.8 675.4 L 199.6 675 L 201.8 674.6 Z" fill="#d4af6a" opacity="0.5"/>
  <text x="380" y="679" text-anchor="middle" font-family="Georgia, 'Times New Roman', serif" font-style="italic" font-size="11.5" fill="#7b738f">A self-reflection framework — tendencies, not predictions</text>
  <path d="M 557.7725000000002 672.4 L 558.2 674.6 L 560.4 675 L 558.2 675.4 L 557.7725000000002 677.6 L 557.4 675.4 L 555.2 675 L 557.4 674.6 Z" fill="#d4af6a" opacity="0.5"/>
</svg>
