<svg xmlns="http://www.w3.org/2000/svg" viewBox="0 0 760 433" role="img" aria-label="5 Steps to Read an Aquarius Sun the Structural Way">
  <defs>
    <linearGradient id="cristianoronaldozodiacsign1en-panel" x1="0" y1="0" x2="0.4" y2="1">
      <stop offset="0" stop-color="#1a1433"/><stop offset="0.55" stop-color="#120e26"/><stop offset="1" stop-color="#09081a"/>
    </linearGradient>
    <radialGradient id="cristianoronaldozodiacsign1en-foil" cx="0.42" cy="0.34" r="0.75">
      <stop offset="0" stop-color="#fbf0d2"/><stop offset="0.5" stop-color="#e8c882"/><stop offset="1" stop-color="#b8923f"/>
    </radialGradient>
    <radialGradient id="cristianoronaldozodiacsign1en-glow" cx="0.5" cy="0.5" r="0.5">
      <stop offset="0" stop-color="#f6e6bf"/><stop offset="1" stop-color="#f6e6bf" stop-opacity="0"/>
    </radialGradient>
    <radialGradient id="cristianoronaldozodiacsign1en-neb1" cx="0.5" cy="0.5" r="0.5">
      <stop offset="0" stop-color="#6f4bb0" stop-opacity="0.28"/><stop offset="1" stop-color="#6f4bb0" stop-opacity="0"/>
    </radialGradient>
    <radialGradient id="cristianoronaldozodiacsign1en-neb2" cx="0.5" cy="0.5" r="0.5">
      <stop offset="0" stop-color="#d4af6a" stop-opacity="0.16"/><stop offset="1" stop-color="#d4af6a" stop-opacity="0"/>
    </radialGradient>
    <linearGradient id="cristianoronaldozodiacsign1en-rule" x1="0" y1="0" x2="1" y2="0">
      <stop offset="0" stop-color="#d4af6a" stop-opacity="0"/><stop offset="0.5" stop-color="#d4af6a" stop-opacity="0.6"/><stop offset="1" stop-color="#d4af6a" stop-opacity="0"/>
    </linearGradient>
  </defs>
  <rect x="1.5" y="1.5" width="757" height="430" rx="22" fill="url(#cristianoronaldozodiacsign1en-panel)"/>
  <ellipse cx="198" cy="104" rx="380" ry="147" fill="url(#cristianoronaldozodiacsign1en-neb1)"/>
  <ellipse cx="623" cy="346" rx="334" ry="139" fill="url(#cristianoronaldozodiacsign1en-neb2)"/>
  <circle cx="332.4" cy="209.6" r="0.84" fill="#cfc8ea" opacity="0.53"/><circle cx="111.9" cy="86.0" r="1.44" fill="#cfc8ea" opacity="0.36"/><circle cx="707.1" cy="331.3" r="0.50" fill="#cfc8ea" opacity="0.42"/><circle cx="414.8" cy="278.6" r="1.61" fill="#cfc8ea" opacity="0.33"/><circle cx="122.3" cy="12.0" r="0.59" fill="#cfc8ea" opacity="0.25"/><circle cx="293.0" cy="131.1" r="1.27" fill="#cfc8ea" opacity="0.44"/><circle cx="351.4" cy="277.4" r="1.43" fill="#cfc8ea" opacity="0.34"/><circle cx="683.3" cy="15.4" r="1.14" fill="#cfc8ea" opacity="0.38"/><circle cx="700.3" cy="185.0" r="0.80" fill="#cfc8ea" opacity="0.25"/><circle cx="488.4" cy="218.3" r="0.48" fill="#cfc8ea" opacity="0.37"/><circle cx="51.3" cy="284.9" r="0.62" fill="#cfc8ea" opacity="0.21"/><circle cx="190.8" cy="36.6" r="1.42" fill="#cfc8ea" opacity="0.21"/><circle cx="648.3" cy="106.1" r="1.27" fill="#cfc8ea" opacity="0.17"/><circle cx="647.7" cy="229.5" r="1.16" fill="#cfc8ea" opacity="0.50"/><circle cx="571.3" cy="374.4" r="0.80" fill="#cfc8ea" opacity="0.41"/><circle cx="187.2" cy="245.5" r="1.09" fill="#cfc8ea" opacity="0.39"/><circle cx="135.9" cy="104.7" r="0.50" fill="#cfc8ea" opacity="0.12"/><circle cx="147.4" cy="282.1" r="0.97" fill="#cfc8ea" opacity="0.12"/><circle cx="42.0" cy="29.3" r="1.60" fill="#cfc8ea" opacity="0.27"/><circle cx="727.0" cy="269.5" r="1.21" fill="#cfc8ea" opacity="0.28"/><circle cx="173.6" cy="250.2" r="1.30" fill="#cfc8ea" opacity="0.52"/><circle cx="246.4" cy="205.2" r="0.74" fill="#cfc8ea" opacity="0.19"/><circle cx="155.8" cy="406.5" r="0.73" fill="#cfc8ea" opacity="0.25"/><circle cx="319.7" cy="241.9" r="1.54" fill="#cfc8ea" opacity="0.51"/><circle cx="332.6" cy="120.9" r="1.67" fill="#cfc8ea" opacity="0.49"/><circle cx="726.1" cy="153.0" r="1.14" fill="#cfc8ea" opacity="0.28"/><circle cx="714.2" cy="309.3" r="0.57" fill="#cfc8ea" opacity="0.40"/><circle cx="50.9" cy="143.2" r="1.47" fill="#cfc8ea" opacity="0.21"/><circle cx="139.0" cy="376.7" r="1.09" fill="#cfc8ea" opacity="0.34"/><circle cx="479.4" cy="87.5" r="1.42" fill="#cfc8ea" opacity="0.46"/><circle cx="707.4" cy="294.5" r="0.55" fill="#cfc8ea" opacity="0.49"/><circle cx="686.6" cy="187.7" r="0.73" fill="#cfc8ea" opacity="0.12"/><circle cx="704.2" cy="109.6" r="0.72" fill="#cfc8ea" opacity="0.30"/><circle cx="217.7" cy="54.8" r="0.40" fill="#cfc8ea" opacity="0.12"/><circle cx="740.5" cy="348.4" r="1.33" fill="#cfc8ea" opacity="0.23"/><circle cx="591.9" cy="344.5" r="1.32" fill="#cfc8ea" opacity="0.45"/><circle cx="393.8" cy="407.9" r="0.92" fill="#cfc8ea" opacity="0.48"/><path d="M 501.32389406487346 410.1 L 501.9 413.2 L 505.0 413.78496727650054 L 501.9 414.4 L 501.32389406487346 417.4 L 500.7 414.4 L 497.7 413.78496727650054 L 500.7 413.2 Z" fill="#f6e6bf" opacity="0.6986374562839046"/><path d="M 459.452362511307 185.7 L 460.1 188.9 L 463.3 189.55560452514328 L 460.1 190.2 L 459.452362511307 193.4 L 458.8 190.2 L 455.6 189.55560452514328 L 458.8 188.9 Z" fill="#f6e6bf" opacity="0.5398343191714957"/><path d="M 479.3460972569883 81.4 L 479.8 83.8 L 482.3 84.3154394601006 L 479.8 84.8 L 479.3460972569883 87.3 L 478.9 84.8 L 476.4 84.3154394601006 L 478.9 83.8 Z" fill="#f6e6bf" opacity="0.5261010002577677"/><path d="M 351.54600520804524 219.1 L 352.0 221.7 L 354.6 222.16132462234236 L 352.0 222.7 L 351.54600520804524 225.3 L 351.1 222.7 L 348.5 222.16132462234236 L 351.1 221.7 Z" fill="#f6e6bf" opacity="0.7395220360951498"/><path d="M 229.42938853427768 316.7 L 229.9 318.9 L 232.1 319.31186624546535 L 229.9 319.7 L 229.42938853427768 322.0 L 229.0 319.7 L 226.8 319.31186624546535 L 229.0 318.9 Z" fill="#f6e6bf" opacity="0.7881962912390008"/><path d="M 111.9 86.0 L 683.3 15.4 L 42.0 29.3 L 246.4 205.2" fill="none" stroke="#d4af6a" stroke-width="0.6" opacity="0.12"/>
  <rect x="1.5" y="1.5" width="757" height="430" rx="22" fill="none" stroke="#d4af6a" stroke-opacity="0.34" stroke-width="1.2"/>
  <rect x="7" y="7" width="746" height="419" rx="17" fill="none" stroke="#d4af6a" stroke-opacity="0.12" stroke-width="0.8"/>
  <path d="M 16 12.8 L 16.5 15.5 L 19.2 16 L 16.5 16.5 L 16 19.2 L 15.5 16.5 L 12.8 16 L 15.5 15.5 Z" fill="#d4af6a" opacity="0.4"/><path d="M 744 12.8 L 744.5 15.5 L 747.2 16 L 744.5 16.5 L 744 19.2 L 743.5 16.5 L 740.8 16 L 743.5 15.5 Z" fill="#d4af6a" opacity="0.4"/><path d="M 16 413.8 L 16.5 416.5 L 19.2 417 L 16.5 417.5 L 16 420.2 L 15.5 417.5 L 12.8 417 L 15.5 416.5 Z" fill="#d4af6a" opacity="0.4"/><path d="M 744 413.8 L 744.5 416.5 L 747.2 417 L 744.5 417.5 L 744 420.2 L 743.5 417.5 L 740.8 417 L 743.5 416.5 Z" fill="#d4af6a" opacity="0.4"/>
  <text x="380" y="46" text-anchor="middle" font-family="Georgia, 'Times New Roman', serif" font-size="22" letter-spacing="0.4" fill="#efeaf8">5 Steps to Read an Aquarius Sun the Structural Way</text>
  <line x1="230" y1="67" x2="368" y2="67" stroke="url(#cristianoronaldozodiacsign1en-rule)" stroke-width="1"/>
  <line x1="392" y1="67" x2="530" y2="67" stroke="url(#cristianoronaldozodiacsign1en-rule)" stroke-width="1"/>
  <path d="M 380 62.0 L 380.8 66.2 L 385.0 67 L 380.8 67.8 L 380 72.0 L 379.2 67.8 L 375.0 67 L 379.2 66.2 Z" fill="#d4af6a" opacity="0.85"/>
  <line x1="76" y1="121" x2="76" y2="361" stroke="#d4af6a" stroke-opacity="0.28" stroke-width="1.5"/>
  <circle cx="76" cy="121" r="20.0" fill="url(#cristianoronaldozodiacsign1en-glow)" opacity="0.5"/>
    <circle cx="76" cy="121" r="15" fill="url(#cristianoronaldozodiacsign1en-foil)" stroke="#f6e6bf" stroke-opacity="0.5" stroke-width="0.8"/>
    <circle cx="76" cy="116.8" r="9.0" fill="#ffffff" opacity="0.10"/>
    <text x="76" y="125.5" text-anchor="middle" font-family="Georgia, 'Times New Roman', serif" font-size="13" font-weight="700" fill="#3a2c12">1</text>
  <text x="116" y="117.0" font-family="Georgia, 'Times New Roman', serif" font-size="22" letter-spacing="0.3" fill="#f3effb">Find the Sun in Aquarius</text>
  <text x="116" y="139.0" font-family="Helvetica, Arial, sans-serif" font-size="15.5" fill="#a59cc0">Read it as a legacy-and-individuality theme, not a slogan</text>
  <circle cx="76" cy="181" r="20.0" fill="url(#cristianoronaldozodiacsign1en-glow)" opacity="0.5"/>
    <circle cx="76" cy="181" r="15" fill="url(#cristianoronaldozodiacsign1en-foil)" stroke="#f6e6bf" stroke-opacity="0.5" stroke-width="0.8"/>
    <circle cx="76" cy="176.8" r="9.0" fill="#ffffff" opacity="0.10"/>
    <text x="76" y="185.5" text-anchor="middle" font-family="Georgia, 'Times New Roman', serif" font-size="13" font-weight="700" fill="#3a2c12">2</text>
  <text x="116" y="177.0" font-family="Georgia, 'Times New Roman', serif" font-size="22" letter-spacing="0.3" fill="#f3effb">Check Saturn</text>
  <text x="116" y="199.0" font-family="Helvetica, Arial, sans-serif" font-size="15.5" fill="#a59cc0">Traditional ruler of Aquarius; its transits time seasons of pressure</text>
  <circle cx="76" cy="241" r="20.0" fill="url(#cristianoronaldozodiacsign1en-glow)" opacity="0.5"/>
    <circle cx="76" cy="241" r="15" fill="url(#cristianoronaldozodiacsign1en-foil)" stroke="#f6e6bf" stroke-opacity="0.5" stroke-width="0.8"/>
    <circle cx="76" cy="236.8" r="9.0" fill="#ffffff" opacity="0.10"/>
    <text x="76" y="245.5" text-anchor="middle" font-family="Georgia, 'Times New Roman', serif" font-size="13" font-weight="700" fill="#3a2c12">3</text>
  <text x="116" y="237.0" font-family="Georgia, 'Times New Roman', serif" font-size="22" letter-spacing="0.3" fill="#f3effb">Note Saturn in Aries 2025-26</text>
  <text x="116" y="259.0" font-family="Helvetica, Arial, sans-serif" font-size="15.5" fill="#a59cc0">Moving over natal Mars and Venus in Aries as a backdrop of consolidation</text>
  <circle cx="76" cy="301" r="20.0" fill="url(#cristianoronaldozodiacsign1en-glow)" opacity="0.5"/>
    <circle cx="76" cy="301" r="15" fill="url(#cristianoronaldozodiacsign1en-foil)" stroke="#f6e6bf" stroke-opacity="0.5" stroke-width="0.8"/>
    <circle cx="76" cy="296.8" r="9.0" fill="#ffffff" opacity="0.10"/>
    <text x="76" y="305.5" text-anchor="middle" font-family="Georgia, 'Times New Roman', serif" font-size="13" font-weight="700" fill="#3a2c12">4</text>
  <text x="116" y="297.0" font-family="Georgia, 'Times New Roman', serif" font-size="22" letter-spacing="0.3" fill="#f3effb">Treat Moon Degree as Provisional</text>
  <text x="116" y="319.0" font-family="Helvetica, Arial, sans-serif" font-size="15.5" fill="#a59cc0">Exact degree and houses depend on a birth time not firmly confirmed</text>
  <circle cx="76" cy="361" r="20.0" fill="url(#cristianoronaldozodiacsign1en-glow)" opacity="0.5"/>
    <circle cx="76" cy="361" r="15" fill="url(#cristianoronaldozodiacsign1en-foil)" stroke="#f6e6bf" stroke-opacity="0.5" stroke-width="0.8"/>
    <circle cx="76" cy="356.8" r="9.0" fill="#ffffff" opacity="0.10"/>
    <text x="76" y="365.5" text-anchor="middle" font-family="Georgia, 'Times New Roman', serif" font-size="13" font-weight="700" fill="#3a2c12">5</text>
  <text x="116" y="357.0" font-family="Georgia, 'Times New Roman', serif" font-size="22" letter-spacing="0.3" fill="#f3effb">Read Each Transit as a Chapter</text>
  <text x="116" y="379.0" font-family="Helvetica, Arial, sans-serif" font-size="15.5" fill="#a59cc0">A season still to be lived, not a fixed outcome</text>
  <path d="M 202.22749999999988 404.4 L 202.6 406.6 L 204.8 407 L 202.6 407.4 L 202.22749999999988 409.6 L 201.8 407.4 L 199.6 407 L 201.8 406.6 Z" fill="#d4af6a" opacity="0.5"/>
  <text x="380" y="411" text-anchor="middle" font-family="Georgia, 'Times New Roman', serif" font-style="italic" font-size="11.5" fill="#7b738f">A self-reflection framework — tendencies, not predictions</text>
  <path d="M 557.7725000000002 404.4 L 558.2 406.6 L 560.4 407 L 558.2 407.4 L 557.7725000000002 409.6 L 557.4 407.4 L 555.2 407 L 557.4 406.6 Z" fill="#d4af6a" opacity="0.5"/>
</svg>
