<svg xmlns="http://www.w3.org/2000/svg" viewBox="0 0 760 701" role="img" aria-label="Three Emotion-Journaling Approaches Compared">
  <defs>
    <linearGradient id="emotionjournal0en-panel" x1="0" y1="0" x2="0.4" y2="1">
      <stop offset="0" stop-color="#1a1433"/><stop offset="0.55" stop-color="#120e26"/><stop offset="1" stop-color="#09081a"/>
    </linearGradient>
    <radialGradient id="emotionjournal0en-foil" cx="0.42" cy="0.34" r="0.75">
      <stop offset="0" stop-color="#fbf0d2"/><stop offset="0.5" stop-color="#e8c882"/><stop offset="1" stop-color="#b8923f"/>
    </radialGradient>
    <radialGradient id="emotionjournal0en-glow" cx="0.5" cy="0.5" r="0.5">
      <stop offset="0" stop-color="#f6e6bf"/><stop offset="1" stop-color="#f6e6bf" stop-opacity="0"/>
    </radialGradient>
    <radialGradient id="emotionjournal0en-neb1" cx="0.5" cy="0.5" r="0.5">
      <stop offset="0" stop-color="#6f4bb0" stop-opacity="0.28"/><stop offset="1" stop-color="#6f4bb0" stop-opacity="0"/>
    </radialGradient>
    <radialGradient id="emotionjournal0en-neb2" cx="0.5" cy="0.5" r="0.5">
      <stop offset="0" stop-color="#d4af6a" stop-opacity="0.16"/><stop offset="1" stop-color="#d4af6a" stop-opacity="0"/>
    </radialGradient>
    <linearGradient id="emotionjournal0en-rule" x1="0" y1="0" x2="1" y2="0">
      <stop offset="0" stop-color="#d4af6a" stop-opacity="0"/><stop offset="0.5" stop-color="#d4af6a" stop-opacity="0.6"/><stop offset="1" stop-color="#d4af6a" stop-opacity="0"/>
    </linearGradient>
  </defs>
  <rect x="1.5" y="1.5" width="757" height="698" rx="22" fill="url(#emotionjournal0en-panel)"/>
  <ellipse cx="198" cy="168" rx="380" ry="238" fill="url(#emotionjournal0en-neb1)"/>
  <ellipse cx="623" cy="561" rx="334" ry="224" fill="url(#emotionjournal0en-neb2)"/>
  <circle cx="83.7" cy="632.8" r="1.01" fill="#cfc8ea" opacity="0.52"/><circle cx="470.9" cy="171.7" r="0.52" fill="#cfc8ea" opacity="0.53"/><circle cx="668.1" cy="400.5" r="1.39" fill="#cfc8ea" opacity="0.34"/><circle cx="215.8" cy="16.1" r="1.66" fill="#cfc8ea" opacity="0.24"/><circle cx="473.5" cy="543.0" r="0.95" fill="#cfc8ea" opacity="0.21"/><circle cx="688.7" cy="675.3" r="0.83" fill="#cfc8ea" opacity="0.13"/><circle cx="702.0" cy="83.9" r="1.18" fill="#cfc8ea" opacity="0.22"/><circle cx="300.4" cy="406.9" r="1.59" fill="#cfc8ea" opacity="0.51"/><circle cx="683.3" cy="34.9" r="1.16" fill="#cfc8ea" opacity="0.40"/><circle cx="331.3" cy="522.1" r="0.94" fill="#cfc8ea" opacity="0.53"/><circle cx="501.2" cy="138.5" r="1.68" fill="#cfc8ea" opacity="0.22"/><circle cx="229.5" cy="138.9" r="0.45" fill="#cfc8ea" opacity="0.48"/><circle cx="93.5" cy="390.6" r="1.10" fill="#cfc8ea" opacity="0.31"/><circle cx="593.6" cy="323.4" r="0.75" fill="#cfc8ea" opacity="0.15"/><circle cx="152.9" cy="276.1" r="0.84" fill="#cfc8ea" opacity="0.36"/><circle cx="264.8" cy="653.8" r="1.64" fill="#cfc8ea" opacity="0.16"/><circle cx="500.4" cy="109.6" r="0.75" fill="#cfc8ea" opacity="0.27"/><circle cx="327.1" cy="537.2" r="0.40" fill="#cfc8ea" opacity="0.15"/><circle cx="515.7" cy="679.1" r="0.52" fill="#cfc8ea" opacity="0.32"/><circle cx="504.5" cy="142.6" r="1.62" fill="#cfc8ea" opacity="0.37"/><circle cx="55.8" cy="18.6" r="1.67" fill="#cfc8ea" opacity="0.17"/><circle cx="702.1" cy="492.5" r="1.67" fill="#cfc8ea" opacity="0.39"/><circle cx="31.1" cy="669.5" r="1.21" fill="#cfc8ea" opacity="0.25"/><circle cx="366.1" cy="201.3" r="0.84" fill="#cfc8ea" opacity="0.14"/><circle cx="84.2" cy="231.8" r="1.61" fill="#cfc8ea" opacity="0.21"/><circle cx="468.1" cy="430.9" r="0.90" fill="#cfc8ea" opacity="0.52"/><circle cx="486.4" cy="489.2" r="0.93" fill="#cfc8ea" opacity="0.24"/><circle cx="266.5" cy="511.2" r="1.07" fill="#cfc8ea" opacity="0.35"/><circle cx="594.1" cy="353.2" r="0.53" fill="#cfc8ea" opacity="0.18"/><circle cx="272.6" cy="484.3" r="0.97" fill="#cfc8ea" opacity="0.28"/><circle cx="579.1" cy="404.3" r="0.75" fill="#cfc8ea" opacity="0.46"/><circle cx="128.5" cy="593.5" r="0.57" fill="#cfc8ea" opacity="0.45"/><circle cx="224.8" cy="267.7" r="1.07" fill="#cfc8ea" opacity="0.35"/><circle cx="85.2" cy="153.2" r="1.35" fill="#cfc8ea" opacity="0.21"/><circle cx="479.7" cy="317.6" r="1.62" fill="#cfc8ea" opacity="0.24"/><circle cx="567.5" cy="102.0" r="1.52" fill="#cfc8ea" opacity="0.46"/><circle cx="367.0" cy="387.4" r="1.39" fill="#cfc8ea" opacity="0.25"/><circle cx="458.6" cy="664.8" r="0.80" fill="#cfc8ea" opacity="0.24"/><circle cx="290.5" cy="535.6" r="0.68" fill="#cfc8ea" opacity="0.29"/><circle cx="284.6" cy="119.3" r="1.55" fill="#cfc8ea" opacity="0.47"/><circle cx="126.2" cy="391.1" r="1.65" fill="#cfc8ea" opacity="0.46"/><circle cx="138.3" cy="576.2" r="1.23" fill="#cfc8ea" opacity="0.23"/><circle cx="510.1" cy="440.6" r="1.00" fill="#cfc8ea" opacity="0.18"/><circle cx="302.0" cy="642.3" r="1.26" fill="#cfc8ea" opacity="0.18"/><circle cx="633.9" cy="403.5" r="0.60" fill="#cfc8ea" opacity="0.40"/><circle cx="383.6" cy="201.9" r="0.97" fill="#cfc8ea" opacity="0.49"/><circle cx="281.3" cy="115.8" r="0.75" fill="#cfc8ea" opacity="0.30"/><circle cx="103.5" cy="446.2" r="1.65" fill="#cfc8ea" opacity="0.30"/><circle cx="593.4" cy="603.1" r="1.67" fill="#cfc8ea" opacity="0.48"/><circle cx="49.1" cy="153.1" r="1.69" fill="#cfc8ea" opacity="0.25"/><circle cx="426.8" cy="658.4" r="0.98" fill="#cfc8ea" opacity="0.37"/><circle cx="365.8" cy="267.7" r="0.49" fill="#cfc8ea" opacity="0.52"/><circle cx="460.4" cy="160.3" r="0.40" fill="#cfc8ea" opacity="0.13"/><circle cx="252.4" cy="430.4" r="1.09" fill="#cfc8ea" opacity="0.31"/><circle cx="59.8" cy="442.8" r="1.34" fill="#cfc8ea" opacity="0.41"/><circle cx="652.3" cy="264.0" r="1.12" fill="#cfc8ea" opacity="0.38"/><circle cx="457.1" cy="633.4" r="0.61" fill="#cfc8ea" opacity="0.19"/><circle cx="100.5" cy="588.6" r="1.44" fill="#cfc8ea" opacity="0.15"/><circle cx="29.8" cy="333.0" r="1.45" fill="#cfc8ea" opacity="0.50"/><path d="M 499.79299332760274 469.8 L 500.2 472.2 L 502.6 472.5978344818577 L 500.2 473.0 L 499.79299332760274 475.4 L 499.3 473.0 L 497.0 472.5978344818577 L 499.3 472.2 Z" fill="#f6e6bf" opacity="0.6110898966435343"/><path d="M 212.6351557802409 566.4 L 213.1 568.7 L 215.4 569.1626825146377 L 213.1 569.6 L 212.6351557802409 571.9 L 212.2 569.6 L 209.9 569.1626825146377 L 212.2 568.7 Z" fill="#f6e6bf" opacity="0.5266173550393433"/><path d="M 316.22053796611726 87.2 L 316.8 90.0 L 319.6 90.55886735860258 L 316.8 91.1 L 316.22053796611726 93.9 L 315.7 91.1 L 312.8 90.55886735860258 L 315.7 90.0 Z" fill="#f6e6bf" opacity="0.6299407728482038"/><path d="M 588.0758637469262 526.1 L 588.5 528.4 L 590.8 528.8827513661236 L 588.5 529.3 L 588.0758637469262 531.7 L 587.6 529.3 L 585.3 528.8827513661236 L 587.6 528.4 Z" fill="#f6e6bf" opacity="0.5560614995192736"/><path d="M 594.2933782245964 488.8 L 594.8 491.6 L 597.7 492.1690704552457 L 594.8 492.7 L 594.2933782245964 495.5 L 593.8 492.7 L 590.9 492.1690704552457 L 593.8 491.6 Z" fill="#f6e6bf" opacity="0.6809137305710464"/><path d="M 683.3 34.9 L 152.9 276.1 L 31.1 669.5 L 366.1 201.3 L 479.7 317.6" fill="none" stroke="#d4af6a" stroke-width="0.6" opacity="0.12"/>
  <rect x="1.5" y="1.5" width="757" height="698" rx="22" fill="none" stroke="#d4af6a" stroke-opacity="0.34" stroke-width="1.2"/>
  <rect x="7" y="7" width="746" height="687" rx="17" fill="none" stroke="#d4af6a" stroke-opacity="0.12" stroke-width="0.8"/>
  <path d="M 16 12.8 L 16.5 15.5 L 19.2 16 L 16.5 16.5 L 16 19.2 L 15.5 16.5 L 12.8 16 L 15.5 15.5 Z" fill="#d4af6a" opacity="0.4"/><path d="M 744 12.8 L 744.5 15.5 L 747.2 16 L 744.5 16.5 L 744 19.2 L 743.5 16.5 L 740.8 16 L 743.5 15.5 Z" fill="#d4af6a" opacity="0.4"/><path d="M 16 681.8 L 16.5 684.5 L 19.2 685 L 16.5 685.5 L 16 688.2 L 15.5 685.5 L 12.8 685 L 15.5 684.5 Z" fill="#d4af6a" opacity="0.4"/><path d="M 744 681.8 L 744.5 684.5 L 747.2 685 L 744.5 685.5 L 744 688.2 L 743.5 685.5 L 740.8 685 L 743.5 684.5 Z" fill="#d4af6a" opacity="0.4"/>
  <text x="380" y="46" text-anchor="middle" font-family="Georgia, 'Times New Roman', serif" font-size="22" letter-spacing="0.4" fill="#efeaf8">Three Emotion-Journaling Approaches Compared</text>
  <line x1="230" y1="67" x2="368" y2="67" stroke="url(#emotionjournal0en-rule)" stroke-width="1"/>
  <line x1="392" y1="67" x2="530" y2="67" stroke="url(#emotionjournal0en-rule)" stroke-width="1"/>
  <path d="M 380 62.0 L 380.8 66.2 L 385.0 67 L 380.8 67.8 L 380 72.0 L 379.2 67.8 L 375.0 67 L 379.2 66.2 Z" fill="#d4af6a" opacity="0.85"/>

  <rect x="46" y="99" width="668" height="172.0" rx="14" fill="#1d1740" fill-opacity="0.5" stroke="#d4af6a" stroke-opacity="0.22" stroke-width="0.9"/>
  <rect x="46" y="99" width="668" height="3.5" rx="1.8" fill="#d4af6a" fill-opacity="0.6"/>
  <path d="M 380 97.1 L 380.5 100.0 L 383.4 100.5 L 380.5 101.0 L 380 103.9 L 379.5 101.0 L 376.6 100.5 L 379.5 100.0 Z" fill="#f6e6bf" opacity="0.7"/>
  <text x="380" y="128.0" text-anchor="middle" font-family="Georgia, 'Times New Roman', serif" font-size="21" font-weight="700" letter-spacing="0.3" fill="#f3effb">Naming Habit</text>
  <path d="M 70 157.8 L 70.5 160.5 L 73.2 161 L 70.5 161.5 L 70 164.2 L 69.5 161.5 L 66.8 161 L 69.5 160.5 Z" fill="#d4af6a" opacity="0.8"/>
  <text x="84" y="166.0" font-family="Helvetica, Arial, sans-serif" font-size="16" fill="#a59cc0">Precise word + context</text>
  <path d="M 70 186.8 L 70.5 189.5 L 73.2 190 L 70.5 190.5 L 70 193.2 L 69.5 190.5 L 66.8 190 L 69.5 189.5 Z" fill="#d4af6a" opacity="0.8"/>
  <text x="84" y="195.0" font-family="Helvetica, Arial, sans-serif" font-size="16" fill="#a59cc0">Slows down to label</text>
  <path d="M 70 215.8 L 70.5 218.5 L 73.2 219 L 70.5 219.5 L 70 222.2 L 69.5 219.5 L 66.8 219 L 69.5 218.5 Z" fill="#d4af6a" opacity="0.8"/>
  <text x="84" y="224.0" font-family="Helvetica, Arial, sans-serif" font-size="16" fill="#a59cc0">Builds pattern recognition</text>
  <path d="M 70 244.8 L 70.5 247.5 L 73.2 248 L 70.5 248.5 L 70 251.2 L 69.5 248.5 L 66.8 248 L 69.5 247.5 Z" fill="#d4af6a" opacity="0.8"/>
  <text x="84" y="253.0" font-family="Helvetica, Arial, sans-serif" font-size="16" fill="#a59cc0">Turns feeling into understanding</text>
  <path d="M 380 279.5 L 380.7 283.3 L 384.5 284 L 380.7 284.7 L 380 288.5 L 379.3 284.7 L 375.5 284 L 379.3 283.3 Z" fill="#d4af6a" opacity="0.65"/>
  <rect x="46" y="297" width="668" height="172.0" rx="14" fill="#1d1740" fill-opacity="0.5" stroke="#d4af6a" stroke-opacity="0.22" stroke-width="0.9"/>
  <rect x="46" y="297" width="668" height="3.5" rx="1.8" fill="#d4af6a" fill-opacity="0.6"/>
  <path d="M 380 295.1 L 380.5 298.0 L 383.4 298.5 L 380.5 299.0 L 380 301.9 L 379.5 299.0 L 376.6 298.5 L 379.5 298.0 Z" fill="#f6e6bf" opacity="0.7"/>
  <text x="380" y="326.0" text-anchor="middle" font-family="Georgia, 'Times New Roman', serif" font-size="21" font-weight="700" letter-spacing="0.3" fill="#f3effb">Mood Log</text>
  <path d="M 70 355.8 L 70.5 358.5 L 73.2 359 L 70.5 359.5 L 70 362.2 L 69.5 359.5 L 66.8 359 L 69.5 358.5 Z" fill="#d4af6a" opacity="0.8"/>
  <text x="84" y="364.0" font-family="Helvetica, Arial, sans-serif" font-size="16" fill="#a59cc0">Rating or single word</text>
  <path d="M 70 384.8 L 70.5 387.5 L 73.2 388 L 70.5 388.5 L 70 391.2 L 69.5 388.5 L 66.8 388 L 69.5 387.5 Z" fill="#d4af6a" opacity="0.8"/>
  <text x="84" y="393.0" font-family="Helvetica, Arial, sans-serif" font-size="16" fill="#a59cc0">Fast, one-tap entry</text>
  <path d="M 70 413.8 L 70.5 416.5 L 73.2 417 L 70.5 417.5 L 70 420.2 L 69.5 417.5 L 66.8 417 L 69.5 416.5 Z" fill="#d4af6a" opacity="0.8"/>
  <text x="84" y="422.0" font-family="Helvetica, Arial, sans-serif" font-size="16" fill="#a59cc0">Good for broad trends</text>
  <path d="M 70 442.8 L 70.5 445.5 L 73.2 446 L 70.5 446.5 L 70 449.2 L 69.5 446.5 L 66.8 446 L 69.5 445.5 Z" fill="#d4af6a" opacity="0.8"/>
  <text x="84" y="451.0" font-family="Helvetica, Arial, sans-serif" font-size="16" fill="#a59cc0">Feelings stay diffuse</text>
  <path d="M 380 477.5 L 380.7 481.3 L 384.5 482 L 380.7 482.7 L 380 486.5 L 379.3 482.7 L 375.5 482 L 379.3 481.3 Z" fill="#d4af6a" opacity="0.65"/>
  <rect x="46" y="495" width="668" height="172.0" rx="14" fill="#1d1740" fill-opacity="0.5" stroke="#d4af6a" stroke-opacity="0.22" stroke-width="0.9"/>
  <rect x="46" y="495" width="668" height="3.5" rx="1.8" fill="#d4af6a" fill-opacity="0.6"/>
  <path d="M 380 493.1 L 380.5 496.0 L 383.4 496.5 L 380.5 497.0 L 380 499.9 L 379.5 497.0 L 376.6 496.5 L 379.5 496.0 Z" fill="#f6e6bf" opacity="0.7"/>
  <text x="380" y="524.0" text-anchor="middle" font-family="Georgia, 'Times New Roman', serif" font-size="21" font-weight="700" letter-spacing="0.3" fill="#f3effb">Free Venting</text>
  <path d="M 70 553.8 L 70.5 556.5 L 73.2 557 L 70.5 557.5 L 70 560.2 L 69.5 557.5 L 66.8 557 L 69.5 556.5 Z" fill="#d4af6a" opacity="0.8"/>
  <text x="84" y="562.0" font-family="Helvetica, Arial, sans-serif" font-size="16" fill="#a59cc0">Unstructured expression</text>
  <path d="M 70 582.8 L 70.5 585.5 L 73.2 586 L 70.5 586.5 L 70 589.2 L 69.5 586.5 L 66.8 586 L 69.5 585.5 Z" fill="#d4af6a" opacity="0.8"/>
  <text x="84" y="591.0" font-family="Helvetica, Arial, sans-serif" font-size="16" fill="#a59cc0">Releases pressure quickly</text>
  <path d="M 70 611.8 L 70.5 614.5 L 73.2 615 L 70.5 615.5 L 70 618.2 L 69.5 615.5 L 66.8 615 L 69.5 614.5 Z" fill="#d4af6a" opacity="0.8"/>
  <text x="84" y="620.0" font-family="Helvetica, Arial, sans-serif" font-size="16" fill="#a59cc0">No target word sought</text>
  <path d="M 70 640.8 L 70.5 643.5 L 73.2 644 L 70.5 644.5 L 70 647.2 L 69.5 644.5 L 66.8 644 L 69.5 643.5 Z" fill="#d4af6a" opacity="0.8"/>
  <text x="84" y="649.0" font-family="Helvetica, Arial, sans-serif" font-size="16" fill="#a59cc0">Same loop may repeat</text>
  <path d="M 202.22749999999988 672.4 L 202.6 674.6 L 204.8 675 L 202.6 675.4 L 202.22749999999988 677.6 L 201.8 675.4 L 199.6 675 L 201.8 674.6 Z" fill="#d4af6a" opacity="0.5"/>
  <text x="380" y="679" text-anchor="middle" font-family="Georgia, 'Times New Roman', serif" font-style="italic" font-size="11.5" fill="#7b738f">A self-reflection framework — tendencies, not predictions</text>
  <path d="M 557.7725000000002 672.4 L 558.2 674.6 L 560.4 675 L 558.2 675.4 L 557.7725000000002 677.6 L 557.4 675.4 L 555.2 675 L 557.4 674.6 Z" fill="#d4af6a" opacity="0.5"/>
</svg>
