<svg xmlns="http://www.w3.org/2000/svg" viewBox="0 0 760 614" role="img" aria-label="Three Ways to Read the Squad">
  <defs>
    <linearGradient id="englandworldcup2026astrology0en-panel" x1="0" y1="0" x2="0.4" y2="1">
      <stop offset="0" stop-color="#1a1433"/><stop offset="0.55" stop-color="#120e26"/><stop offset="1" stop-color="#09081a"/>
    </linearGradient>
    <radialGradient id="englandworldcup2026astrology0en-foil" cx="0.42" cy="0.34" r="0.75">
      <stop offset="0" stop-color="#fbf0d2"/><stop offset="0.5" stop-color="#e8c882"/><stop offset="1" stop-color="#b8923f"/>
    </radialGradient>
    <radialGradient id="englandworldcup2026astrology0en-glow" cx="0.5" cy="0.5" r="0.5">
      <stop offset="0" stop-color="#f6e6bf"/><stop offset="1" stop-color="#f6e6bf" stop-opacity="0"/>
    </radialGradient>
    <radialGradient id="englandworldcup2026astrology0en-neb1" cx="0.5" cy="0.5" r="0.5">
      <stop offset="0" stop-color="#6f4bb0" stop-opacity="0.28"/><stop offset="1" stop-color="#6f4bb0" stop-opacity="0"/>
    </radialGradient>
    <radialGradient id="englandworldcup2026astrology0en-neb2" cx="0.5" cy="0.5" r="0.5">
      <stop offset="0" stop-color="#d4af6a" stop-opacity="0.16"/><stop offset="1" stop-color="#d4af6a" stop-opacity="0"/>
    </radialGradient>
    <linearGradient id="englandworldcup2026astrology0en-rule" x1="0" y1="0" x2="1" y2="0">
      <stop offset="0" stop-color="#d4af6a" stop-opacity="0"/><stop offset="0.5" stop-color="#d4af6a" stop-opacity="0.6"/><stop offset="1" stop-color="#d4af6a" stop-opacity="0"/>
    </linearGradient>
  </defs>
  <rect x="1.5" y="1.5" width="757" height="611" rx="22" fill="url(#englandworldcup2026astrology0en-panel)"/>
  <ellipse cx="198" cy="147" rx="380" ry="209" fill="url(#englandworldcup2026astrology0en-neb1)"/>
  <ellipse cx="623" cy="491" rx="334" ry="196" fill="url(#englandworldcup2026astrology0en-neb2)"/>
  <circle cx="251.8" cy="558.0" r="1.62" fill="#cfc8ea" opacity="0.19"/><circle cx="211.8" cy="573.5" r="0.70" fill="#cfc8ea" opacity="0.41"/><circle cx="390.4" cy="468.0" r="1.33" fill="#cfc8ea" opacity="0.30"/><circle cx="632.8" cy="25.3" r="1.32" fill="#cfc8ea" opacity="0.51"/><circle cx="590.1" cy="326.9" r="1.38" fill="#cfc8ea" opacity="0.25"/><circle cx="691.9" cy="119.7" r="1.22" fill="#cfc8ea" opacity="0.45"/><circle cx="690.6" cy="97.0" r="1.34" fill="#cfc8ea" opacity="0.29"/><circle cx="26.7" cy="112.6" r="1.04" fill="#cfc8ea" opacity="0.41"/><circle cx="744.3" cy="288.7" r="1.39" fill="#cfc8ea" opacity="0.29"/><circle cx="269.3" cy="225.8" r="0.58" fill="#cfc8ea" opacity="0.16"/><circle cx="683.6" cy="365.9" r="1.58" fill="#cfc8ea" opacity="0.28"/><circle cx="674.4" cy="216.2" r="0.62" fill="#cfc8ea" opacity="0.40"/><circle cx="231.4" cy="13.5" r="0.67" fill="#cfc8ea" opacity="0.30"/><circle cx="598.3" cy="20.2" r="1.09" fill="#cfc8ea" opacity="0.33"/><circle cx="615.5" cy="209.3" r="1.20" fill="#cfc8ea" opacity="0.26"/><circle cx="651.4" cy="89.6" r="0.78" fill="#cfc8ea" opacity="0.14"/><circle cx="495.6" cy="287.4" r="0.98" fill="#cfc8ea" opacity="0.12"/><circle cx="728.1" cy="392.0" r="0.88" fill="#cfc8ea" opacity="0.37"/><circle cx="539.3" cy="572.0" r="0.59" fill="#cfc8ea" opacity="0.40"/><circle cx="687.6" cy="66.8" r="1.17" fill="#cfc8ea" opacity="0.40"/><circle cx="91.6" cy="97.3" r="0.44" fill="#cfc8ea" opacity="0.12"/><circle cx="29.0" cy="319.6" r="0.79" fill="#cfc8ea" opacity="0.40"/><circle cx="211.9" cy="220.6" r="1.40" fill="#cfc8ea" opacity="0.27"/><circle cx="207.3" cy="420.8" r="1.47" fill="#cfc8ea" opacity="0.26"/><circle cx="459.7" cy="453.2" r="0.49" fill="#cfc8ea" opacity="0.12"/><circle cx="690.6" cy="247.2" r="0.64" fill="#cfc8ea" opacity="0.38"/><circle cx="435.2" cy="408.1" r="0.88" fill="#cfc8ea" opacity="0.18"/><circle cx="331.5" cy="399.5" r="0.41" fill="#cfc8ea" opacity="0.53"/><circle cx="362.8" cy="88.3" r="0.48" fill="#cfc8ea" opacity="0.50"/><circle cx="144.3" cy="461.5" r="1.09" fill="#cfc8ea" opacity="0.35"/><circle cx="562.7" cy="552.8" r="1.15" fill="#cfc8ea" opacity="0.37"/><circle cx="604.5" cy="600.1" r="1.27" fill="#cfc8ea" opacity="0.44"/><circle cx="663.2" cy="79.9" r="1.45" fill="#cfc8ea" opacity="0.18"/><circle cx="744.5" cy="265.4" r="0.46" fill="#cfc8ea" opacity="0.53"/><circle cx="325.0" cy="281.5" r="1.22" fill="#cfc8ea" opacity="0.24"/><circle cx="680.3" cy="97.9" r="0.52" fill="#cfc8ea" opacity="0.17"/><circle cx="83.5" cy="366.5" r="0.76" fill="#cfc8ea" opacity="0.28"/><circle cx="197.5" cy="356.9" r="0.68" fill="#cfc8ea" opacity="0.40"/><circle cx="327.6" cy="322.0" r="0.92" fill="#cfc8ea" opacity="0.40"/><circle cx="724.5" cy="545.3" r="1.15" fill="#cfc8ea" opacity="0.49"/><circle cx="317.3" cy="189.3" r="0.93" fill="#cfc8ea" opacity="0.29"/><circle cx="744.2" cy="344.4" r="0.81" fill="#cfc8ea" opacity="0.51"/><circle cx="174.9" cy="192.5" r="0.74" fill="#cfc8ea" opacity="0.43"/><circle cx="360.4" cy="103.7" r="0.66" fill="#cfc8ea" opacity="0.23"/><circle cx="32.9" cy="477.9" r="0.75" fill="#cfc8ea" opacity="0.54"/><circle cx="216.6" cy="592.4" r="0.80" fill="#cfc8ea" opacity="0.36"/><circle cx="717.6" cy="215.2" r="1.57" fill="#cfc8ea" opacity="0.12"/><circle cx="584.0" cy="336.3" r="1.31" fill="#cfc8ea" opacity="0.37"/><circle cx="181.1" cy="444.3" r="0.56" fill="#cfc8ea" opacity="0.40"/><circle cx="399.7" cy="32.8" r="0.75" fill="#cfc8ea" opacity="0.17"/><circle cx="177.2" cy="196.9" r="0.40" fill="#cfc8ea" opacity="0.35"/><circle cx="14.5" cy="371.6" r="0.77" fill="#cfc8ea" opacity="0.37"/><path d="M 516.8421319257468 266.8 L 517.3 269.1 L 519.6 269.57101115584373 L 517.3 270.0 L 516.8421319257468 272.3 L 516.4 270.0 L 514.1 269.57101115584373 L 516.4 269.1 Z" fill="#f6e6bf" opacity="0.7036385466810315"/><path d="M 556.5027165766805 481.8 L 556.9 483.8 L 558.9 484.2225660402328 L 556.9 484.6 L 556.5027165766805 486.6 L 556.1 484.6 L 554.1 484.2225660402328 L 556.1 483.8 Z" fill="#f6e6bf" opacity="0.7006194759625941"/><path d="M 511.15412342362106 111.1 L 511.7 114.2 L 514.8 114.73821926489472 L 511.7 115.3 L 511.15412342362106 118.4 L 510.6 115.3 L 507.5 114.73821926489472 L 510.6 114.2 Z" fill="#f6e6bf" opacity="0.6169746908824891"/><path d="M 424.07206924818456 407.7 L 424.6 410.3 L 427.2 410.77578533254564 L 424.6 411.3 L 424.07206924818456 413.9 L 423.6 411.3 L 421.0 410.77578533254564 L 423.6 410.3 Z" fill="#f6e6bf" opacity="0.7305716755334288"/><path d="M 717.3980850409716 405.7 L 718.0 408.9 L 721.2 409.51804975420237 L 718.0 410.1 L 717.3980850409716 413.3 L 716.8 410.1 L 713.6 409.51804975420237 L 716.8 408.9 Z" fill="#f6e6bf" opacity="0.7396724299993366"/><path d="M 251.8 558.0 L 211.8 573.5 L 26.7 112.6 L 269.3 225.8 L 674.4 216.2" fill="none" stroke="#d4af6a" stroke-width="0.6" opacity="0.12"/>
  <rect x="1.5" y="1.5" width="757" height="611" rx="22" fill="none" stroke="#d4af6a" stroke-opacity="0.34" stroke-width="1.2"/>
  <rect x="7" y="7" width="746" height="600" rx="17" fill="none" stroke="#d4af6a" stroke-opacity="0.12" stroke-width="0.8"/>
  <path d="M 16 12.8 L 16.5 15.5 L 19.2 16 L 16.5 16.5 L 16 19.2 L 15.5 16.5 L 12.8 16 L 15.5 15.5 Z" fill="#d4af6a" opacity="0.4"/><path d="M 744 12.8 L 744.5 15.5 L 747.2 16 L 744.5 16.5 L 744 19.2 L 743.5 16.5 L 740.8 16 L 743.5 15.5 Z" fill="#d4af6a" opacity="0.4"/><path d="M 16 594.8 L 16.5 597.5 L 19.2 598 L 16.5 598.5 L 16 601.2 L 15.5 598.5 L 12.8 598 L 15.5 597.5 Z" fill="#d4af6a" opacity="0.4"/><path d="M 744 594.8 L 744.5 597.5 L 747.2 598 L 744.5 598.5 L 744 601.2 L 743.5 598.5 L 740.8 598 L 743.5 597.5 Z" fill="#d4af6a" opacity="0.4"/>
  <text x="380" y="46" text-anchor="middle" font-family="Georgia, 'Times New Roman', serif" font-size="22" letter-spacing="0.4" fill="#efeaf8">Three Ways to Read the Squad</text>
  <line x1="230" y1="67" x2="368" y2="67" stroke="url(#englandworldcup2026astrology0en-rule)" stroke-width="1"/>
  <line x1="392" y1="67" x2="530" y2="67" stroke="url(#englandworldcup2026astrology0en-rule)" stroke-width="1"/>
  <path d="M 380 62.0 L 380.8 66.2 L 385.0 67 L 380.8 67.8 L 380 72.0 L 379.2 67.8 L 375.0 67 L 379.2 66.2 Z" fill="#d4af6a" opacity="0.85"/>

  <rect x="46" y="99" width="668" height="143.0" rx="14" fill="#1d1740" fill-opacity="0.5" stroke="#d4af6a" stroke-opacity="0.22" stroke-width="0.9"/>
  <rect x="46" y="99" width="3.5" height="143.0" rx="1.8" fill="#d4af6a" fill-opacity="0.6"/>
  <path d="M 47.75 108.6 L 48.3 111.5 L 51.1 112 L 48.3 112.5 L 47.75 115.4 L 47.2 112.5 L 44.4 112 L 47.2 111.5 Z" fill="#f6e6bf" opacity="0.7"/>
  <text x="380" y="128.0" text-anchor="middle" font-family="Georgia, 'Times New Roman', serif" font-size="21" font-weight="700" letter-spacing="0.3" fill="#f3effb">Squad-level symbolic reading</text>
  <path d="M 70 157.8 L 70.5 160.5 L 73.2 161 L 70.5 161.5 L 70 164.2 L 69.5 161.5 L 66.8 161 L 69.5 160.5 Z" fill="#d4af6a" opacity="0.8"/>
  <text x="84" y="166.0" font-family="Helvetica, Arial, sans-serif" font-size="16" fill="#a59cc0">Verified Sun signs plus Jupiter ingress timing</text>
  <path d="M 70 186.8 L 70.5 189.5 L 73.2 190 L 70.5 190.5 L 70 193.2 L 69.5 190.5 L 66.8 190 L 69.5 189.5 Z" fill="#d4af6a" opacity="0.8"/>
  <text x="84" y="195.0" font-family="Helvetica, Arial, sans-serif" font-size="16" fill="#a59cc0">Names themes, not results</text>
  <path d="M 70 215.8 L 70.5 218.5 L 73.2 219 L 70.5 219.5 L 70 222.2 L 69.5 219.5 L 66.8 219 L 69.5 218.5 Z" fill="#d4af6a" opacity="0.8"/>
  <text x="84" y="224.0" font-family="Helvetica, Arial, sans-serif" font-size="16" fill="#a59cc0">Stays openly symbolic throughout</text>
  <path d="M 380 250.5 L 380.7 254.3 L 384.5 255 L 380.7 255.7 L 380 259.5 L 379.3 255.7 L 375.5 255 L 379.3 254.3 Z" fill="#d4af6a" opacity="0.65"/>
  <rect x="46" y="268" width="668" height="143.0" rx="14" fill="#1d1740" fill-opacity="0.5" stroke="#d4af6a" stroke-opacity="0.22" stroke-width="0.9"/>
  <rect x="46" y="268" width="3.5" height="143.0" rx="1.8" fill="#d4af6a" fill-opacity="0.6"/>
  <path d="M 47.75 277.6 L 48.3 280.5 L 51.1 281 L 48.3 281.5 L 47.75 284.4 L 47.2 281.5 L 44.4 281 L 47.2 280.5 Z" fill="#f6e6bf" opacity="0.7"/>
  <text x="380" y="297.0" text-anchor="middle" font-family="Georgia, 'Times New Roman', serif" font-size="21" font-weight="700" letter-spacing="0.3" fill="#f3effb">Standard zodiac forecast</text>
  <path d="M 70 326.8 L 70.5 329.5 L 73.2 330 L 70.5 330.5 L 70 333.2 L 69.5 330.5 L 66.8 330 L 69.5 329.5 Z" fill="#d4af6a" opacity="0.8"/>
  <text x="84" y="335.0" font-family="Helvetica, Arial, sans-serif" font-size="16" fill="#a59cc0">Implies good things follow a transit</text>
  <path d="M 70 355.8 L 70.5 358.5 L 73.2 359 L 70.5 359.5 L 70 362.2 L 69.5 359.5 L 66.8 359 L 69.5 358.5 Z" fill="#d4af6a" opacity="0.8"/>
  <text x="84" y="364.0" font-family="Helvetica, Arial, sans-serif" font-size="16" fill="#a59cc0">Gives no calendar precision</text>
  <path d="M 70 384.8 L 70.5 387.5 L 73.2 388 L 70.5 388.5 L 70 391.2 L 69.5 388.5 L 66.8 388 L 69.5 387.5 Z" fill="#d4af6a" opacity="0.8"/>
  <text x="84" y="393.0" font-family="Helvetica, Arial, sans-serif" font-size="16" fill="#a59cc0">Hovers vague without anchoring dates</text>
  <path d="M 380 419.5 L 380.7 423.3 L 384.5 424 L 380.7 424.7 L 380 428.5 L 379.3 424.7 L 375.5 424 L 379.3 423.3 Z" fill="#d4af6a" opacity="0.65"/>
  <rect x="46" y="437" width="668" height="143.0" rx="14" fill="#1d1740" fill-opacity="0.5" stroke="#d4af6a" stroke-opacity="0.22" stroke-width="0.9"/>
  <rect x="46" y="437" width="3.5" height="143.0" rx="1.8" fill="#d4af6a" fill-opacity="0.6"/>
  <path d="M 47.75 446.6 L 48.3 449.5 L 51.1 450 L 48.3 450.5 L 47.75 453.4 L 47.2 450.5 L 44.4 450 L 47.2 449.5 Z" fill="#f6e6bf" opacity="0.7"/>
  <text x="380" y="466.0" text-anchor="middle" font-family="Georgia, 'Times New Roman', serif" font-size="21" font-weight="700" letter-spacing="0.3" fill="#f3effb">Full natal reading</text>
  <path d="M 70 495.8 L 70.5 498.5 L 73.2 499 L 70.5 499.5 L 70 502.2 L 69.5 499.5 L 66.8 499 L 69.5 498.5 Z" fill="#d4af6a" opacity="0.8"/>
  <text x="84" y="504.0" font-family="Helvetica, Arial, sans-serif" font-size="16" fill="#a59cc0">Needs recorded birth times, not public for these players</text>
  <path d="M 70 524.8 L 70.5 527.5 L 73.2 528 L 70.5 528.5 L 70 531.2 L 69.5 528.5 L 66.8 528 L 69.5 527.5 Z" fill="#d4af6a" opacity="0.8"/>
  <text x="84" y="533.0" font-family="Helvetica, Arial, sans-serif" font-size="16" fill="#a59cc0">Would weigh Moon, Ascendant, and houses</text>
  <path d="M 70 553.8 L 70.5 556.5 L 73.2 557 L 70.5 557.5 L 70 560.2 L 69.5 557.5 L 66.8 557 L 69.5 556.5 Z" fill="#d4af6a" opacity="0.8"/>
  <text x="84" y="562.0" font-family="Helvetica, Arial, sans-serif" font-size="16" fill="#a59cc0">Less reliable when birth time is invented</text>
  <path d="M 202.22749999999988 585.4 L 202.6 587.6 L 204.8 588 L 202.6 588.4 L 202.22749999999988 590.6 L 201.8 588.4 L 199.6 588 L 201.8 587.6 Z" fill="#d4af6a" opacity="0.5"/>
  <text x="380" y="592" text-anchor="middle" font-family="Georgia, 'Times New Roman', serif" font-style="italic" font-size="11.5" fill="#7b738f">A self-reflection framework — tendencies, not predictions</text>
  <path d="M 557.7725000000002 585.4 L 558.2 587.6 L 560.4 588 L 558.2 588.4 L 557.7725000000002 590.6 L 557.4 588.4 L 555.2 588 L 557.4 587.6 Z" fill="#d4af6a" opacity="0.5"/>
</svg>
