<svg xmlns="http://www.w3.org/2000/svg" viewBox="0 0 760 445" role="img" aria-label="The Chart Reading vs a Sun-Sign Snapshot">
  <defs>
    <linearGradient id="erlinghaalandbirthchart1en-panel" x1="0" y1="0" x2="0.4" y2="1">
      <stop offset="0" stop-color="#1a1433"/><stop offset="0.55" stop-color="#120e26"/><stop offset="1" stop-color="#09081a"/>
    </linearGradient>
    <radialGradient id="erlinghaalandbirthchart1en-foil" cx="0.42" cy="0.34" r="0.75">
      <stop offset="0" stop-color="#fbf0d2"/><stop offset="0.5" stop-color="#e8c882"/><stop offset="1" stop-color="#b8923f"/>
    </radialGradient>
    <radialGradient id="erlinghaalandbirthchart1en-glow" cx="0.5" cy="0.5" r="0.5">
      <stop offset="0" stop-color="#f6e6bf"/><stop offset="1" stop-color="#f6e6bf" stop-opacity="0"/>
    </radialGradient>
    <radialGradient id="erlinghaalandbirthchart1en-neb1" cx="0.5" cy="0.5" r="0.5">
      <stop offset="0" stop-color="#6f4bb0" stop-opacity="0.28"/><stop offset="1" stop-color="#6f4bb0" stop-opacity="0"/>
    </radialGradient>
    <radialGradient id="erlinghaalandbirthchart1en-neb2" cx="0.5" cy="0.5" r="0.5">
      <stop offset="0" stop-color="#d4af6a" stop-opacity="0.16"/><stop offset="1" stop-color="#d4af6a" stop-opacity="0"/>
    </radialGradient>
    <linearGradient id="erlinghaalandbirthchart1en-rule" x1="0" y1="0" x2="1" y2="0">
      <stop offset="0" stop-color="#d4af6a" stop-opacity="0"/><stop offset="0.5" stop-color="#d4af6a" stop-opacity="0.6"/><stop offset="1" stop-color="#d4af6a" stop-opacity="0"/>
    </linearGradient>
  </defs>
  <rect x="1.5" y="1.5" width="757" height="442" rx="22" fill="url(#erlinghaalandbirthchart1en-panel)"/>
  <ellipse cx="198" cy="107" rx="380" ry="151" fill="url(#erlinghaalandbirthchart1en-neb1)"/>
  <ellipse cx="623" cy="356" rx="334" ry="142" fill="url(#erlinghaalandbirthchart1en-neb2)"/>
  <circle cx="337.9" cy="119.8" r="0.63" fill="#cfc8ea" opacity="0.22"/><circle cx="109.0" cy="106.7" r="1.63" fill="#cfc8ea" opacity="0.15"/><circle cx="540.1" cy="379.6" r="1.67" fill="#cfc8ea" opacity="0.44"/><circle cx="237.4" cy="162.1" r="0.62" fill="#cfc8ea" opacity="0.35"/><circle cx="46.4" cy="106.5" r="1.44" fill="#cfc8ea" opacity="0.38"/><circle cx="671.5" cy="36.8" r="0.80" fill="#cfc8ea" opacity="0.30"/><circle cx="362.9" cy="146.0" r="1.64" fill="#cfc8ea" opacity="0.48"/><circle cx="503.7" cy="96.3" r="0.82" fill="#cfc8ea" opacity="0.39"/><circle cx="680.5" cy="253.4" r="1.48" fill="#cfc8ea" opacity="0.30"/><circle cx="188.5" cy="338.9" r="0.85" fill="#cfc8ea" opacity="0.13"/><circle cx="456.0" cy="344.1" r="0.41" fill="#cfc8ea" opacity="0.46"/><circle cx="18.7" cy="230.1" r="1.36" fill="#cfc8ea" opacity="0.40"/><circle cx="141.8" cy="238.6" r="0.86" fill="#cfc8ea" opacity="0.43"/><circle cx="279.3" cy="16.2" r="1.00" fill="#cfc8ea" opacity="0.24"/><circle cx="14.7" cy="236.6" r="1.64" fill="#cfc8ea" opacity="0.21"/><circle cx="29.9" cy="87.5" r="1.50" fill="#cfc8ea" opacity="0.22"/><circle cx="115.3" cy="51.4" r="1.45" fill="#cfc8ea" opacity="0.14"/><circle cx="288.3" cy="140.2" r="0.70" fill="#cfc8ea" opacity="0.35"/><circle cx="362.4" cy="287.2" r="0.55" fill="#cfc8ea" opacity="0.47"/><circle cx="686.9" cy="87.5" r="1.08" fill="#cfc8ea" opacity="0.35"/><circle cx="223.9" cy="131.1" r="1.69" fill="#cfc8ea" opacity="0.52"/><circle cx="521.3" cy="228.2" r="0.89" fill="#cfc8ea" opacity="0.49"/><circle cx="286.3" cy="38.2" r="0.76" fill="#cfc8ea" opacity="0.48"/><circle cx="122.8" cy="175.6" r="0.87" fill="#cfc8ea" opacity="0.28"/><circle cx="666.4" cy="398.1" r="0.93" fill="#cfc8ea" opacity="0.44"/><circle cx="430.2" cy="195.1" r="0.89" fill="#cfc8ea" opacity="0.33"/><circle cx="530.6" cy="303.4" r="0.83" fill="#cfc8ea" opacity="0.30"/><circle cx="264.4" cy="282.0" r="1.67" fill="#cfc8ea" opacity="0.32"/><circle cx="564.9" cy="421.1" r="0.49" fill="#cfc8ea" opacity="0.22"/><circle cx="263.4" cy="96.5" r="0.90" fill="#cfc8ea" opacity="0.35"/><circle cx="347.4" cy="395.1" r="0.60" fill="#cfc8ea" opacity="0.38"/><circle cx="383.3" cy="351.1" r="1.00" fill="#cfc8ea" opacity="0.52"/><circle cx="35.0" cy="119.1" r="1.01" fill="#cfc8ea" opacity="0.23"/><circle cx="171.8" cy="91.0" r="0.91" fill="#cfc8ea" opacity="0.53"/><circle cx="99.0" cy="153.9" r="0.71" fill="#cfc8ea" opacity="0.29"/><circle cx="67.2" cy="317.7" r="1.41" fill="#cfc8ea" opacity="0.51"/><circle cx="196.6" cy="87.4" r="0.82" fill="#cfc8ea" opacity="0.21"/><circle cx="504.0" cy="207.6" r="1.61" fill="#cfc8ea" opacity="0.54"/><path d="M 539.7643156610429 232.3 L 540.1 234.4 L 542.2 234.74833348044194 L 540.1 235.1 L 539.7643156610429 237.1 L 539.4 235.1 L 537.4 234.74833348044194 L 539.4 234.4 Z" fill="#f6e6bf" opacity="0.7563883394235744"/><path d="M 432.17191909626126 203.5 L 432.6 205.7 L 434.9 206.1700901214499 L 432.6 206.6 L 432.17191909626126 208.9 L 431.7 206.6 L 429.5 206.1700901214499 L 431.7 205.7 Z" fill="#f6e6bf" opacity="0.7227331320988014"/><path d="M 349.73254899308085 78.3 L 350.3 81.5 L 353.6 82.14638753072359 L 350.3 82.8 L 349.73254899308085 86.0 L 349.1 82.8 L 345.9 82.14638753072359 L 349.1 81.5 Z" fill="#f6e6bf" opacity="0.7153396165231243"/><path d="M 127.65953657403588 243.9 L 128.1 246.1 L 130.3 246.5424450628925 L 128.1 247.0 L 127.65953657403588 249.2 L 127.2 247.0 L 125.0 246.5424450628925 L 127.2 246.1 Z" fill="#f6e6bf" opacity="0.7361813978524878"/><path d="M 45.3160848878324 249.8 L 45.7 251.9 L 47.8 252.31744951033033 L 45.7 252.7 L 45.3160848878324 254.8 L 44.9 252.7 L 42.8 252.31744951033033 L 44.9 251.9 Z" fill="#f6e6bf" opacity="0.7872332256520167"/><path d="M 109.0 106.7 L 686.9 87.5 L 666.4 398.1 L 263.4 96.5 L 171.8 91.0" fill="none" stroke="#d4af6a" stroke-width="0.6" opacity="0.12"/>
  <rect x="1.5" y="1.5" width="757" height="442" rx="22" fill="none" stroke="#d4af6a" stroke-opacity="0.34" stroke-width="1.2"/>
  <rect x="7" y="7" width="746" height="431" rx="17" fill="none" stroke="#d4af6a" stroke-opacity="0.12" stroke-width="0.8"/>
  <path d="M 16 12.8 L 16.5 15.5 L 19.2 16 L 16.5 16.5 L 16 19.2 L 15.5 16.5 L 12.8 16 L 15.5 15.5 Z" fill="#d4af6a" opacity="0.4"/><path d="M 744 12.8 L 744.5 15.5 L 747.2 16 L 744.5 16.5 L 744 19.2 L 743.5 16.5 L 740.8 16 L 743.5 15.5 Z" fill="#d4af6a" opacity="0.4"/><path d="M 16 425.8 L 16.5 428.5 L 19.2 429 L 16.5 429.5 L 16 432.2 L 15.5 429.5 L 12.8 429 L 15.5 428.5 Z" fill="#d4af6a" opacity="0.4"/><path d="M 744 425.8 L 744.5 428.5 L 747.2 429 L 744.5 429.5 L 744 432.2 L 743.5 429.5 L 740.8 429 L 743.5 428.5 Z" fill="#d4af6a" opacity="0.4"/>
  <text x="380" y="46" text-anchor="middle" font-family="Georgia, 'Times New Roman', serif" font-size="22" letter-spacing="0.4" fill="#efeaf8">The Chart Reading vs a Sun-Sign Snapshot</text>
  <line x1="230" y1="67" x2="368" y2="67" stroke="url(#erlinghaalandbirthchart1en-rule)" stroke-width="1"/>
  <line x1="392" y1="67" x2="530" y2="67" stroke="url(#erlinghaalandbirthchart1en-rule)" stroke-width="1"/>
  <path d="M 380 62.0 L 380.8 66.2 L 385.0 67 L 380.8 67.8 L 380 72.0 L 379.2 67.8 L 375.0 67 L 379.2 66.2 Z" fill="#d4af6a" opacity="0.85"/>

  <rect x="46" y="99" width="668" height="143.0" rx="14" fill="#1d1740" fill-opacity="0.5" stroke="#d4af6a" stroke-opacity="0.22" stroke-width="0.9"/>
  <rect x="46" y="99" width="3.5" height="143.0" rx="1.8" fill="#d4af6a" fill-opacity="0.6"/>
  <path d="M 47.75 108.6 L 48.3 111.5 L 51.1 112 L 48.3 112.5 L 47.75 115.4 L 47.2 112.5 L 44.4 112 L 47.2 111.5 Z" fill="#f6e6bf" opacity="0.7"/>
  <text x="380" y="128.0" text-anchor="middle" font-family="Georgia, 'Times New Roman', serif" font-size="21" font-weight="700" letter-spacing="0.3" fill="#f3effb">Sun-Sign Snapshot</text>
  <path d="M 70 157.8 L 70.5 160.5 L 73.2 161 L 70.5 161.5 L 70 164.2 L 69.5 161.5 L 66.8 161 L 69.5 160.5 Z" fill="#d4af6a" opacity="0.8"/>
  <text x="84" y="166.0" font-family="Helvetica, Arial, sans-serif" font-size="16" fill="#a59cc0">Collapses a person into one label and a daily mood</text>
  <path d="M 70 186.8 L 70.5 189.5 L 73.2 190 L 70.5 190.5 L 70 193.2 L 69.5 190.5 L 66.8 190 L 69.5 189.5 Z" fill="#d4af6a" opacity="0.8"/>
  <text x="84" y="195.0" font-family="Helvetica, Arial, sans-serif" font-size="16" fill="#a59cc0">Offers the comfort of a single tidy verdict</text>
  <path d="M 70 215.8 L 70.5 218.5 L 73.2 219 L 70.5 219.5 L 70 222.2 L 69.5 219.5 L 66.8 219 L 69.5 218.5 Z" fill="#d4af6a" opacity="0.8"/>
  <text x="84" y="224.0" font-family="Helvetica, Arial, sans-serif" font-size="16" fill="#a59cc0">Rounds the cusp to a tidy Cancer or Leo</text>
  <path d="M 380 250.5 L 380.7 254.3 L 384.5 255 L 380.7 255.7 L 380 259.5 L 379.3 255.7 L 375.5 255 L 379.3 254.3 Z" fill="#d4af6a" opacity="0.65"/>
  <rect x="46" y="268" width="668" height="143.0" rx="14" fill="#1d1740" fill-opacity="0.5" stroke="#d4af6a" stroke-opacity="0.22" stroke-width="0.9"/>
  <rect x="46" y="268" width="3.5" height="143.0" rx="1.8" fill="#d4af6a" fill-opacity="0.6"/>
  <path d="M 47.75 277.6 L 48.3 280.5 L 51.1 281 L 48.3 281.5 L 47.75 284.4 L 47.2 281.5 L 44.4 281 L 47.2 280.5 Z" fill="#f6e6bf" opacity="0.7"/>
  <text x="380" y="297.0" text-anchor="middle" font-family="Georgia, 'Times New Roman', serif" font-size="21" font-weight="700" letter-spacing="0.3" fill="#f3effb">Chart-Reading Approach</text>
  <path d="M 70 326.8 L 70.5 329.5 L 73.2 330 L 70.5 330.5 L 70 333.2 L 69.5 330.5 L 66.8 330 L 69.5 329.5 Z" fill="#d4af6a" opacity="0.8"/>
  <text x="84" y="335.0" font-family="Helvetica, Arial, sans-serif" font-size="16" fill="#a59cc0">Trades convenience for nuance, holding the cusp as the story</text>
  <path d="M 70 355.8 L 70.5 358.5 L 73.2 359 L 70.5 359.5 L 70 362.2 L 69.5 359.5 L 66.8 359 L 69.5 358.5 Z" fill="#d4af6a" opacity="0.8"/>
  <text x="84" y="364.0" font-family="Helvetica, Arial, sans-serif" font-size="16" fill="#a59cc0">Stays on solid ground: documented Sun degree and date</text>
  <path d="M 70 384.8 L 70.5 387.5 L 73.2 388 L 70.5 388.5 L 70 391.2 L 69.5 388.5 L 66.8 388 L 69.5 387.5 Z" fill="#d4af6a" opacity="0.8"/>
  <text x="84" y="393.0" font-family="Helvetica, Arial, sans-serif" font-size="16" fill="#a59cc0">Declines to manufacture the Moon, Ascendant, and houses it cannot confirm</text>
  <path d="M 202.22749999999988 416.4 L 202.6 418.6 L 204.8 419 L 202.6 419.4 L 202.22749999999988 421.6 L 201.8 419.4 L 199.6 419 L 201.8 418.6 Z" fill="#d4af6a" opacity="0.5"/>
  <text x="380" y="423" text-anchor="middle" font-family="Georgia, 'Times New Roman', serif" font-style="italic" font-size="11.5" fill="#7b738f">A self-reflection framework — tendencies, not predictions</text>
  <path d="M 557.7725000000002 416.4 L 558.2 418.6 L 560.4 419 L 558.2 419.4 L 557.7725000000002 421.6 L 557.4 419.4 L 555.2 419 L 557.4 418.6 Z" fill="#d4af6a" opacity="0.5"/>
</svg>
