<svg xmlns="http://www.w3.org/2000/svg" viewBox="0 0 760 503" role="img" aria-label="Normal Cancer Ingress vs Father's Day 2026">
  <defs>
    <linearGradient id="fathersdayastrology20260en-panel" x1="0" y1="0" x2="0.4" y2="1">
      <stop offset="0" stop-color="#1a1433"/><stop offset="0.55" stop-color="#120e26"/><stop offset="1" stop-color="#09081a"/>
    </linearGradient>
    <radialGradient id="fathersdayastrology20260en-foil" cx="0.42" cy="0.34" r="0.75">
      <stop offset="0" stop-color="#fbf0d2"/><stop offset="0.5" stop-color="#e8c882"/><stop offset="1" stop-color="#b8923f"/>
    </radialGradient>
    <radialGradient id="fathersdayastrology20260en-glow" cx="0.5" cy="0.5" r="0.5">
      <stop offset="0" stop-color="#f6e6bf"/><stop offset="1" stop-color="#f6e6bf" stop-opacity="0"/>
    </radialGradient>
    <radialGradient id="fathersdayastrology20260en-neb1" cx="0.5" cy="0.5" r="0.5">
      <stop offset="0" stop-color="#6f4bb0" stop-opacity="0.28"/><stop offset="1" stop-color="#6f4bb0" stop-opacity="0"/>
    </radialGradient>
    <radialGradient id="fathersdayastrology20260en-neb2" cx="0.5" cy="0.5" r="0.5">
      <stop offset="0" stop-color="#d4af6a" stop-opacity="0.16"/><stop offset="1" stop-color="#d4af6a" stop-opacity="0"/>
    </radialGradient>
    <linearGradient id="fathersdayastrology20260en-rule" x1="0" y1="0" x2="1" y2="0">
      <stop offset="0" stop-color="#d4af6a" stop-opacity="0"/><stop offset="0.5" stop-color="#d4af6a" stop-opacity="0.6"/><stop offset="1" stop-color="#d4af6a" stop-opacity="0"/>
    </linearGradient>
  </defs>
  <rect x="1.5" y="1.5" width="757" height="500" rx="22" fill="url(#fathersdayastrology20260en-panel)"/>
  <ellipse cx="198" cy="121" rx="380" ry="171" fill="url(#fathersdayastrology20260en-neb1)"/>
  <ellipse cx="623" cy="402" rx="334" ry="161" fill="url(#fathersdayastrology20260en-neb2)"/>
  <circle cx="472.3" cy="406.7" r="1.43" fill="#cfc8ea" opacity="0.44"/><circle cx="379.0" cy="347.6" r="0.53" fill="#cfc8ea" opacity="0.12"/><circle cx="532.4" cy="127.7" r="1.09" fill="#cfc8ea" opacity="0.42"/><circle cx="585.1" cy="417.8" r="0.62" fill="#cfc8ea" opacity="0.44"/><circle cx="135.2" cy="97.4" r="1.21" fill="#cfc8ea" opacity="0.20"/><circle cx="501.1" cy="96.2" r="0.92" fill="#cfc8ea" opacity="0.20"/><circle cx="351.2" cy="455.2" r="1.00" fill="#cfc8ea" opacity="0.54"/><circle cx="343.6" cy="64.4" r="1.57" fill="#cfc8ea" opacity="0.49"/><circle cx="644.0" cy="19.6" r="0.71" fill="#cfc8ea" opacity="0.21"/><circle cx="516.6" cy="367.4" r="1.12" fill="#cfc8ea" opacity="0.13"/><circle cx="239.4" cy="199.2" r="1.03" fill="#cfc8ea" opacity="0.53"/><circle cx="646.0" cy="173.9" r="0.54" fill="#cfc8ea" opacity="0.49"/><circle cx="387.4" cy="75.1" r="0.52" fill="#cfc8ea" opacity="0.40"/><circle cx="113.0" cy="121.2" r="1.02" fill="#cfc8ea" opacity="0.30"/><circle cx="177.5" cy="381.8" r="1.55" fill="#cfc8ea" opacity="0.35"/><circle cx="477.8" cy="467.4" r="1.17" fill="#cfc8ea" opacity="0.43"/><circle cx="415.1" cy="318.9" r="1.61" fill="#cfc8ea" opacity="0.14"/><circle cx="636.1" cy="186.2" r="1.31" fill="#cfc8ea" opacity="0.52"/><circle cx="357.8" cy="219.6" r="0.81" fill="#cfc8ea" opacity="0.19"/><circle cx="536.8" cy="103.5" r="1.17" fill="#cfc8ea" opacity="0.16"/><circle cx="551.8" cy="36.7" r="0.52" fill="#cfc8ea" opacity="0.50"/><circle cx="337.4" cy="336.0" r="1.66" fill="#cfc8ea" opacity="0.29"/><circle cx="140.0" cy="489.1" r="0.72" fill="#cfc8ea" opacity="0.48"/><circle cx="61.0" cy="353.3" r="0.49" fill="#cfc8ea" opacity="0.39"/><circle cx="449.9" cy="56.8" r="0.56" fill="#cfc8ea" opacity="0.37"/><circle cx="78.5" cy="295.7" r="0.47" fill="#cfc8ea" opacity="0.20"/><circle cx="205.2" cy="177.3" r="1.20" fill="#cfc8ea" opacity="0.48"/><circle cx="326.2" cy="220.5" r="0.53" fill="#cfc8ea" opacity="0.31"/><circle cx="305.4" cy="43.2" r="1.21" fill="#cfc8ea" opacity="0.17"/><circle cx="368.4" cy="464.2" r="0.83" fill="#cfc8ea" opacity="0.24"/><circle cx="144.4" cy="256.7" r="0.95" fill="#cfc8ea" opacity="0.51"/><circle cx="193.6" cy="254.5" r="0.47" fill="#cfc8ea" opacity="0.14"/><circle cx="555.2" cy="356.1" r="1.21" fill="#cfc8ea" opacity="0.28"/><circle cx="232.3" cy="174.6" r="1.69" fill="#cfc8ea" opacity="0.43"/><circle cx="96.4" cy="280.3" r="1.56" fill="#cfc8ea" opacity="0.31"/><circle cx="188.9" cy="222.2" r="1.21" fill="#cfc8ea" opacity="0.41"/><circle cx="64.0" cy="464.5" r="1.45" fill="#cfc8ea" opacity="0.22"/><circle cx="500.2" cy="56.9" r="0.65" fill="#cfc8ea" opacity="0.26"/><circle cx="511.0" cy="440.1" r="0.92" fill="#cfc8ea" opacity="0.14"/><circle cx="127.6" cy="377.6" r="0.42" fill="#cfc8ea" opacity="0.50"/><circle cx="584.5" cy="385.2" r="0.95" fill="#cfc8ea" opacity="0.52"/><circle cx="303.1" cy="336.6" r="0.80" fill="#cfc8ea" opacity="0.38"/><path d="M 191.28085037879646 288.3 L 191.8 291.0 L 194.5 291.5189133826643 L 191.8 292.0 L 191.28085037879646 294.8 L 190.8 292.0 L 188.0 291.5189133826643 L 190.8 291.0 Z" fill="#f6e6bf" opacity="0.6267732887994498"/><path d="M 208.57855837605894 331.9 L 209.2 334.9 L 212.2 335.4982651406899 L 209.2 336.1 L 208.57855837605894 339.1 L 208.0 336.1 L 205.0 335.4982651406899 L 208.0 334.9 Z" fill="#f6e6bf" opacity="0.7154881893191487"/><path d="M 377.92968393675983 54.4 L 378.5 57.2 L 381.3 57.723697401583195 L 378.5 58.3 L 377.92968393675983 61.0 L 377.4 58.3 L 374.6 57.723697401583195 L 377.4 57.2 Z" fill="#f6e6bf" opacity="0.6456189346965402"/><path d="M 569.5133251901716 351.9 L 570.1 355.0 L 573.2 355.5495686000213 L 570.1 356.1 L 569.5133251901716 359.2 L 568.9 356.1 L 565.8 355.5495686000213 L 568.9 355.0 Z" fill="#f6e6bf" opacity="0.5092885327059775"/><path d="M 660.8206835370511 57.8 L 661.3 60.5 L 664.1 61.05761983059347 L 661.3 61.6 L 660.8206835370511 64.3 L 660.3 61.6 L 657.6 61.05761983059347 L 660.3 60.5 Z" fill="#f6e6bf" opacity="0.5364583547692746"/><path d="M 343.6 64.4 L 516.6 367.4 L 536.8 103.5 L 78.5 295.7 L 305.4 43.2" fill="none" stroke="#d4af6a" stroke-width="0.6" opacity="0.12"/>
  <rect x="1.5" y="1.5" width="757" height="500" rx="22" fill="none" stroke="#d4af6a" stroke-opacity="0.34" stroke-width="1.2"/>
  <rect x="7" y="7" width="746" height="489" rx="17" fill="none" stroke="#d4af6a" stroke-opacity="0.12" stroke-width="0.8"/>
  <path d="M 16 12.8 L 16.5 15.5 L 19.2 16 L 16.5 16.5 L 16 19.2 L 15.5 16.5 L 12.8 16 L 15.5 15.5 Z" fill="#d4af6a" opacity="0.4"/><path d="M 744 12.8 L 744.5 15.5 L 747.2 16 L 744.5 16.5 L 744 19.2 L 743.5 16.5 L 740.8 16 L 743.5 15.5 Z" fill="#d4af6a" opacity="0.4"/><path d="M 16 483.8 L 16.5 486.5 L 19.2 487 L 16.5 487.5 L 16 490.2 L 15.5 487.5 L 12.8 487 L 15.5 486.5 Z" fill="#d4af6a" opacity="0.4"/><path d="M 744 483.8 L 744.5 486.5 L 747.2 487 L 744.5 487.5 L 744 490.2 L 743.5 487.5 L 740.8 487 L 743.5 486.5 Z" fill="#d4af6a" opacity="0.4"/>
  <text x="380" y="46" text-anchor="middle" font-family="Georgia, 'Times New Roman', serif" font-size="22" letter-spacing="0.4" fill="#efeaf8">Normal Cancer Ingress vs Father's Day 2026</text>
  <line x1="230" y1="67" x2="368" y2="67" stroke="url(#fathersdayastrology20260en-rule)" stroke-width="1"/>
  <line x1="392" y1="67" x2="530" y2="67" stroke="url(#fathersdayastrology20260en-rule)" stroke-width="1"/>
  <path d="M 380 62.0 L 380.8 66.2 L 385.0 67 L 380.8 67.8 L 380 72.0 L 379.2 67.8 L 375.0 67 L 379.2 66.2 Z" fill="#d4af6a" opacity="0.85"/>

  <rect x="46" y="99" width="668" height="172.0" rx="14" fill="#1d1740" fill-opacity="0.5" stroke="#d4af6a" stroke-opacity="0.22" stroke-width="0.9"/>
  <rect x="46" y="99" width="3.5" height="172.0" rx="1.8" fill="#d4af6a" fill-opacity="0.6"/>
  <path d="M 47.75 108.6 L 48.3 111.5 L 51.1 112 L 48.3 112.5 L 47.75 115.4 L 47.2 112.5 L 44.4 112 L 47.2 111.5 Z" fill="#f6e6bf" opacity="0.7"/>
  <text x="380" y="128.0" text-anchor="middle" font-family="Georgia, 'Times New Roman', serif" font-size="21" font-weight="700" letter-spacing="0.3" fill="#f3effb">Normal Cancer Ingress</text>
  <path d="M 70 157.8 L 70.5 160.5 L 73.2 161 L 70.5 161.5 L 70 164.2 L 69.5 161.5 L 66.8 161 L 69.5 160.5 Z" fill="#d4af6a" opacity="0.8"/>
  <text x="84" y="166.0" font-family="Helvetica, Arial, sans-serif" font-size="16" fill="#a59cc0">Quiet seasonal turn</text>
  <path d="M 70 186.8 L 70.5 189.5 L 73.2 190 L 70.5 190.5 L 70 193.2 L 69.5 190.5 L 66.8 190 L 69.5 189.5 Z" fill="#d4af6a" opacity="0.8"/>
  <text x="84" y="195.0" font-family="Helvetica, Arial, sans-serif" font-size="16" fill="#a59cc0">Single-note clarity</text>
  <path d="M 70 215.8 L 70.5 218.5 L 73.2 219 L 70.5 219.5 L 70 222.2 L 69.5 219.5 L 66.8 219 L 69.5 218.5 Z" fill="#d4af6a" opacity="0.8"/>
  <text x="84" y="224.0" font-family="Helvetica, Arial, sans-serif" font-size="16" fill="#a59cc0">Home and nurturing focus</text>
  <path d="M 70 244.8 L 70.5 247.5 L 73.2 248 L 70.5 248.5 L 70 251.2 L 69.5 248.5 L 66.8 248 L 69.5 247.5 Z" fill="#d4af6a" opacity="0.8"/>
  <text x="84" y="253.0" font-family="Helvetica, Arial, sans-serif" font-size="16" fill="#a59cc0">Easy, one-line read</text>
  <path d="M 380 279.5 L 380.7 283.3 L 384.5 284 L 380.7 284.7 L 380 288.5 L 379.3 284.7 L 375.5 284 L 379.3 283.3 Z" fill="#d4af6a" opacity="0.65"/>
  <rect x="46" y="297" width="668" height="172.0" rx="14" fill="#1d1740" fill-opacity="0.5" stroke="#d4af6a" stroke-opacity="0.22" stroke-width="0.9"/>
  <rect x="46" y="297" width="3.5" height="172.0" rx="1.8" fill="#d4af6a" fill-opacity="0.6"/>
  <path d="M 47.75 306.6 L 48.3 309.5 L 51.1 310 L 48.3 310.5 L 47.75 313.4 L 47.2 310.5 L 44.4 310 L 47.2 309.5 Z" fill="#f6e6bf" opacity="0.7"/>
  <text x="380" y="326.0" text-anchor="middle" font-family="Georgia, 'Times New Roman', serif" font-size="21" font-weight="700" letter-spacing="0.3" fill="#f3effb">Father's Day 2026</text>
  <path d="M 70 355.8 L 70.5 358.5 L 73.2 359 L 70.5 359.5 L 70 362.2 L 69.5 359.5 L 66.8 359 L 69.5 358.5 Z" fill="#d4af6a" opacity="0.8"/>
  <text x="84" y="364.0" font-family="Helvetica, Arial, sans-serif" font-size="16" fill="#a59cc0">Sun ingress lands on Father's Day weekend</text>
  <path d="M 70 384.8 L 70.5 387.5 L 73.2 388 L 70.5 388.5 L 70 391.2 L 69.5 388.5 L 66.8 388 L 69.5 387.5 Z" fill="#d4af6a" opacity="0.8"/>
  <text x="84" y="393.0" font-family="Helvetica, Arial, sans-serif" font-size="16" fill="#a59cc0">Jupiter and Venus also in Cancer</text>
  <path d="M 70 413.8 L 70.5 416.5 L 73.2 417 L 70.5 417.5 L 70 420.2 L 69.5 417.5 L 66.8 417 L 69.5 416.5 Z" fill="#d4af6a" opacity="0.8"/>
  <text x="84" y="422.0" font-family="Helvetica, Arial, sans-serif" font-size="16" fill="#a59cc0">Emotional warmth and generosity</text>
  <path d="M 70 442.8 L 70.5 445.5 L 73.2 446 L 70.5 446.5 L 70 449.2 L 69.5 446.5 L 66.8 446 L 69.5 445.5 Z" fill="#d4af6a" opacity="0.8"/>
  <text x="84" y="451.0" font-family="Helvetica, Arial, sans-serif" font-size="16" fill="#a59cc0">Complex, multi-theme depth</text>
  <path d="M 202.22749999999988 474.4 L 202.6 476.6 L 204.8 477 L 202.6 477.4 L 202.22749999999988 479.6 L 201.8 477.4 L 199.6 477 L 201.8 476.6 Z" fill="#d4af6a" opacity="0.5"/>
  <text x="380" y="481" text-anchor="middle" font-family="Georgia, 'Times New Roman', serif" font-style="italic" font-size="11.5" fill="#7b738f">A self-reflection framework — tendencies, not predictions</text>
  <path d="M 557.7725000000002 474.4 L 558.2 476.6 L 560.4 477 L 558.2 477.4 L 557.7725000000002 479.6 L 557.4 477.4 L 555.2 477 L 557.4 476.6 Z" fill="#d4af6a" opacity="0.5"/>
</svg>
