<svg xmlns="http://www.w3.org/2000/svg" viewBox="0 0 760 373" role="img" aria-label="Key Sky Factors for Father's Day 2026">
  <defs>
    <linearGradient id="fathersdayastrology20261en-panel" x1="0" y1="0" x2="0.4" y2="1">
      <stop offset="0" stop-color="#1a1433"/><stop offset="0.55" stop-color="#120e26"/><stop offset="1" stop-color="#09081a"/>
    </linearGradient>
    <radialGradient id="fathersdayastrology20261en-foil" cx="0.42" cy="0.34" r="0.75">
      <stop offset="0" stop-color="#fbf0d2"/><stop offset="0.5" stop-color="#e8c882"/><stop offset="1" stop-color="#b8923f"/>
    </radialGradient>
    <radialGradient id="fathersdayastrology20261en-glow" cx="0.5" cy="0.5" r="0.5">
      <stop offset="0" stop-color="#f6e6bf"/><stop offset="1" stop-color="#f6e6bf" stop-opacity="0"/>
    </radialGradient>
    <radialGradient id="fathersdayastrology20261en-neb1" cx="0.5" cy="0.5" r="0.5">
      <stop offset="0" stop-color="#6f4bb0" stop-opacity="0.28"/><stop offset="1" stop-color="#6f4bb0" stop-opacity="0"/>
    </radialGradient>
    <radialGradient id="fathersdayastrology20261en-neb2" cx="0.5" cy="0.5" r="0.5">
      <stop offset="0" stop-color="#d4af6a" stop-opacity="0.16"/><stop offset="1" stop-color="#d4af6a" stop-opacity="0"/>
    </radialGradient>
    <linearGradient id="fathersdayastrology20261en-rule" x1="0" y1="0" x2="1" y2="0">
      <stop offset="0" stop-color="#d4af6a" stop-opacity="0"/><stop offset="0.5" stop-color="#d4af6a" stop-opacity="0.6"/><stop offset="1" stop-color="#d4af6a" stop-opacity="0"/>
    </linearGradient>
  </defs>
  <rect x="1.5" y="1.5" width="757" height="370" rx="22" fill="url(#fathersdayastrology20261en-panel)"/>
  <ellipse cx="198" cy="90" rx="380" ry="127" fill="url(#fathersdayastrology20261en-neb1)"/>
  <ellipse cx="623" cy="298" rx="334" ry="119" fill="url(#fathersdayastrology20261en-neb2)"/>
  <circle cx="12.6" cy="72.7" r="0.77" fill="#cfc8ea" opacity="0.48"/><circle cx="195.1" cy="124.7" r="0.84" fill="#cfc8ea" opacity="0.16"/><circle cx="673.0" cy="90.2" r="1.18" fill="#cfc8ea" opacity="0.32"/><circle cx="531.3" cy="313.1" r="0.71" fill="#cfc8ea" opacity="0.40"/><circle cx="78.1" cy="179.0" r="0.60" fill="#cfc8ea" opacity="0.26"/><circle cx="697.7" cy="313.2" r="1.04" fill="#cfc8ea" opacity="0.28"/><circle cx="76.8" cy="100.7" r="0.90" fill="#cfc8ea" opacity="0.40"/><circle cx="194.8" cy="337.0" r="0.61" fill="#cfc8ea" opacity="0.33"/><circle cx="617.8" cy="266.0" r="1.30" fill="#cfc8ea" opacity="0.31"/><circle cx="304.4" cy="19.3" r="0.85" fill="#cfc8ea" opacity="0.29"/><circle cx="108.5" cy="236.7" r="1.70" fill="#cfc8ea" opacity="0.54"/><circle cx="245.8" cy="124.1" r="0.93" fill="#cfc8ea" opacity="0.26"/><circle cx="411.0" cy="184.8" r="1.28" fill="#cfc8ea" opacity="0.45"/><circle cx="265.0" cy="78.4" r="0.99" fill="#cfc8ea" opacity="0.14"/><circle cx="686.1" cy="82.7" r="0.86" fill="#cfc8ea" opacity="0.16"/><circle cx="605.3" cy="55.3" r="0.80" fill="#cfc8ea" opacity="0.25"/><circle cx="550.8" cy="95.4" r="1.13" fill="#cfc8ea" opacity="0.53"/><circle cx="346.3" cy="306.0" r="1.59" fill="#cfc8ea" opacity="0.22"/><circle cx="670.7" cy="121.8" r="0.44" fill="#cfc8ea" opacity="0.26"/><circle cx="693.1" cy="238.4" r="1.60" fill="#cfc8ea" opacity="0.27"/><circle cx="429.9" cy="269.0" r="1.18" fill="#cfc8ea" opacity="0.32"/><circle cx="196.9" cy="219.9" r="1.53" fill="#cfc8ea" opacity="0.49"/><circle cx="96.2" cy="160.2" r="1.55" fill="#cfc8ea" opacity="0.13"/><circle cx="124.2" cy="165.2" r="1.19" fill="#cfc8ea" opacity="0.23"/><circle cx="399.2" cy="324.5" r="0.85" fill="#cfc8ea" opacity="0.43"/><circle cx="171.1" cy="99.3" r="1.69" fill="#cfc8ea" opacity="0.15"/><circle cx="40.3" cy="133.8" r="1.34" fill="#cfc8ea" opacity="0.29"/><circle cx="21.3" cy="246.6" r="0.44" fill="#cfc8ea" opacity="0.48"/><circle cx="624.4" cy="324.0" r="1.64" fill="#cfc8ea" opacity="0.12"/><circle cx="292.0" cy="160.9" r="1.05" fill="#cfc8ea" opacity="0.51"/><circle cx="54.9" cy="355.3" r="1.42" fill="#cfc8ea" opacity="0.15"/><path d="M 399.8645309600979 253.4 L 400.4 256.2 L 403.2 256.75765826227143 L 400.4 257.3 L 399.8645309600979 260.1 L 399.3 257.3 L 396.5 256.75765826227143 L 399.3 256.2 Z" fill="#f6e6bf" opacity="0.7494169379584491"/><path d="M 257.3943153042346 270.2 L 258.0 273.4 L 261.2 273.9533606483601 L 258.0 274.6 L 257.3943153042346 277.7 L 256.8 274.6 L 253.6 273.9533606483601 L 256.8 273.4 Z" fill="#f6e6bf" opacity="0.767518119700253"/><path d="M 183.4750786665827 76.2 L 184.1 79.4 L 187.2 79.95517492154613 L 184.1 80.6 L 183.4750786665827 83.7 L 182.9 80.6 L 179.7 79.95517492154613 L 182.9 79.4 Z" fill="#f6e6bf" opacity="0.7117527895607054"/><path d="M 702.4164581168443 63.5 L 702.9 66.0 L 705.5 66.51033852575347 L 702.9 67.0 L 702.4164581168443 69.5 L 701.9 67.0 L 699.4 66.51033852575347 L 701.9 66.0 Z" fill="#f6e6bf" opacity="0.7478552147746086"/><path d="M 191.18858266808093 224.0 L 191.8 227.3 L 195.1 227.92988971667364 L 191.8 228.6 L 191.18858266808093 231.8 L 190.6 228.6 L 187.3 227.92988971667364 L 190.6 227.3 Z" fill="#f6e6bf" opacity="0.6423588416539132"/><path d="M 78.1 179.0 L 617.8 266.0 L 411.0 184.8 L 96.2 160.2 L 21.3 246.6" fill="none" stroke="#d4af6a" stroke-width="0.6" opacity="0.12"/>
  <rect x="1.5" y="1.5" width="757" height="370" rx="22" fill="none" stroke="#d4af6a" stroke-opacity="0.34" stroke-width="1.2"/>
  <rect x="7" y="7" width="746" height="359" rx="17" fill="none" stroke="#d4af6a" stroke-opacity="0.12" stroke-width="0.8"/>
  <path d="M 16 12.8 L 16.5 15.5 L 19.2 16 L 16.5 16.5 L 16 19.2 L 15.5 16.5 L 12.8 16 L 15.5 15.5 Z" fill="#d4af6a" opacity="0.4"/><path d="M 744 12.8 L 744.5 15.5 L 747.2 16 L 744.5 16.5 L 744 19.2 L 743.5 16.5 L 740.8 16 L 743.5 15.5 Z" fill="#d4af6a" opacity="0.4"/><path d="M 16 353.8 L 16.5 356.5 L 19.2 357 L 16.5 357.5 L 16 360.2 L 15.5 357.5 L 12.8 357 L 15.5 356.5 Z" fill="#d4af6a" opacity="0.4"/><path d="M 744 353.8 L 744.5 356.5 L 747.2 357 L 744.5 357.5 L 744 360.2 L 743.5 357.5 L 740.8 357 L 743.5 356.5 Z" fill="#d4af6a" opacity="0.4"/>
  <text x="380" y="46" text-anchor="middle" font-family="Georgia, 'Times New Roman', serif" font-size="22" letter-spacing="0.4" fill="#efeaf8">Key Sky Factors for Father's Day 2026</text>
  <line x1="230" y1="67" x2="368" y2="67" stroke="url(#fathersdayastrology20261en-rule)" stroke-width="1"/>
  <line x1="392" y1="67" x2="530" y2="67" stroke="url(#fathersdayastrology20261en-rule)" stroke-width="1"/>
  <path d="M 380 62.0 L 380.8 66.2 L 385.0 67 L 380.8 67.8 L 380 72.0 L 379.2 67.8 L 375.0 67 L 379.2 66.2 Z" fill="#d4af6a" opacity="0.85"/>
  <line x1="76" y1="121" x2="76" y2="301" stroke="#d4af6a" stroke-opacity="0.28" stroke-width="1.5"/>
  <circle cx="76" cy="121" r="20.0" fill="url(#fathersdayastrology20261en-glow)" opacity="0.5"/>
    <circle cx="76" cy="121" r="15" fill="url(#fathersdayastrology20261en-foil)" stroke="#f6e6bf" stroke-opacity="0.5" stroke-width="0.8"/>
    <circle cx="76" cy="116.8" r="9.0" fill="#ffffff" opacity="0.10"/>
    <text x="76" y="125.5" text-anchor="middle" font-family="Georgia, 'Times New Roman', serif" font-size="13" font-weight="700" fill="#3a2c12">1</text>
  <text x="116" y="117.0" font-family="Georgia, 'Times New Roman', serif" font-size="22" letter-spacing="0.3" fill="#f3effb">Sun Enters Cancer</text>
  <text x="116" y="139.0" font-family="Helvetica, Arial, sans-serif" font-size="15.5" fill="#a59cc0">Starts Cancer season, shifting the collective mood toward home and family</text>
  <circle cx="76" cy="181" r="20.0" fill="url(#fathersdayastrology20261en-glow)" opacity="0.5"/>
    <circle cx="76" cy="181" r="15" fill="url(#fathersdayastrology20261en-foil)" stroke="#f6e6bf" stroke-opacity="0.5" stroke-width="0.8"/>
    <circle cx="76" cy="176.8" r="9.0" fill="#ffffff" opacity="0.10"/>
    <text x="76" y="185.5" text-anchor="middle" font-family="Georgia, 'Times New Roman', serif" font-size="13" font-weight="700" fill="#3a2c12">2</text>
  <text x="116" y="177.0" font-family="Georgia, 'Times New Roman', serif" font-size="22" letter-spacing="0.3" fill="#f3effb">Father Archetype</text>
  <text x="116" y="199.0" font-family="Helvetica, Arial, sans-serif" font-size="15.5" fill="#a59cc0">The Sun symbolizes the father or central authority figure in Western astrology</text>
  <circle cx="76" cy="241" r="20.0" fill="url(#fathersdayastrology20261en-glow)" opacity="0.5"/>
    <circle cx="76" cy="241" r="15" fill="url(#fathersdayastrology20261en-foil)" stroke="#f6e6bf" stroke-opacity="0.5" stroke-width="0.8"/>
    <circle cx="76" cy="236.8" r="9.0" fill="#ffffff" opacity="0.10"/>
    <text x="76" y="245.5" text-anchor="middle" font-family="Georgia, 'Times New Roman', serif" font-size="13" font-weight="700" fill="#3a2c12">3</text>
  <text x="116" y="237.0" font-family="Georgia, 'Times New Roman', serif" font-size="22" letter-spacing="0.3" fill="#f3effb">Jupiter–Venus in Cancer</text>
  <text x="116" y="259.0" font-family="Helvetica, Arial, sans-serif" font-size="15.5" fill="#a59cc0">Two warm planets add emotional abundance and sentimental depth to the season</text>
  <circle cx="76" cy="301" r="20.0" fill="url(#fathersdayastrology20261en-glow)" opacity="0.5"/>
    <circle cx="76" cy="301" r="15" fill="url(#fathersdayastrology20261en-foil)" stroke="#f6e6bf" stroke-opacity="0.5" stroke-width="0.8"/>
    <circle cx="76" cy="296.8" r="9.0" fill="#ffffff" opacity="0.10"/>
    <text x="76" y="305.5" text-anchor="middle" font-family="Georgia, 'Times New Roman', serif" font-size="13" font-weight="700" fill="#3a2c12">4</text>
  <text x="116" y="297.0" font-family="Georgia, 'Times New Roman', serif" font-size="22" letter-spacing="0.3" fill="#f3effb">Solstice Timing</text>
  <text x="116" y="319.0" font-family="Helvetica, Arial, sans-serif" font-size="15.5" fill="#a59cc0">The longest day frames the exact ingress moment as the seasonal hinge</text>
  <path d="M 202.22749999999988 344.4 L 202.6 346.6 L 204.8 347 L 202.6 347.4 L 202.22749999999988 349.6 L 201.8 347.4 L 199.6 347 L 201.8 346.6 Z" fill="#d4af6a" opacity="0.5"/>
  <text x="380" y="351" text-anchor="middle" font-family="Georgia, 'Times New Roman', serif" font-style="italic" font-size="11.5" fill="#7b738f">A self-reflection framework — tendencies, not predictions</text>
  <path d="M 557.7725000000002 344.4 L 558.2 346.6 L 560.4 347 L 558.2 347.4 L 557.7725000000002 349.6 L 557.4 347.4 L 555.2 347 L 557.4 346.6 Z" fill="#d4af6a" opacity="0.5"/>
</svg>
