<svg xmlns="http://www.w3.org/2000/svg" viewBox="0 0 760 614" role="img" aria-label="Gemini Rising vs Gemini Sun vs Earth Mercury">
  <defs>
    <linearGradient id="geminirising1en-panel" x1="0" y1="0" x2="0.4" y2="1">
      <stop offset="0" stop-color="#1a1433"/><stop offset="0.55" stop-color="#120e26"/><stop offset="1" stop-color="#09081a"/>
    </linearGradient>
    <radialGradient id="geminirising1en-foil" cx="0.42" cy="0.34" r="0.75">
      <stop offset="0" stop-color="#fbf0d2"/><stop offset="0.5" stop-color="#e8c882"/><stop offset="1" stop-color="#b8923f"/>
    </radialGradient>
    <radialGradient id="geminirising1en-glow" cx="0.5" cy="0.5" r="0.5">
      <stop offset="0" stop-color="#f6e6bf"/><stop offset="1" stop-color="#f6e6bf" stop-opacity="0"/>
    </radialGradient>
    <radialGradient id="geminirising1en-neb1" cx="0.5" cy="0.5" r="0.5">
      <stop offset="0" stop-color="#6f4bb0" stop-opacity="0.28"/><stop offset="1" stop-color="#6f4bb0" stop-opacity="0"/>
    </radialGradient>
    <radialGradient id="geminirising1en-neb2" cx="0.5" cy="0.5" r="0.5">
      <stop offset="0" stop-color="#d4af6a" stop-opacity="0.16"/><stop offset="1" stop-color="#d4af6a" stop-opacity="0"/>
    </radialGradient>
    <linearGradient id="geminirising1en-rule" x1="0" y1="0" x2="1" y2="0">
      <stop offset="0" stop-color="#d4af6a" stop-opacity="0"/><stop offset="0.5" stop-color="#d4af6a" stop-opacity="0.6"/><stop offset="1" stop-color="#d4af6a" stop-opacity="0"/>
    </linearGradient>
  </defs>
  <rect x="1.5" y="1.5" width="757" height="611" rx="22" fill="url(#geminirising1en-panel)"/>
  <ellipse cx="198" cy="147" rx="380" ry="209" fill="url(#geminirising1en-neb1)"/>
  <ellipse cx="623" cy="491" rx="334" ry="196" fill="url(#geminirising1en-neb2)"/>
  <circle cx="130.0" cy="67.4" r="1.57" fill="#cfc8ea" opacity="0.26"/><circle cx="640.0" cy="30.2" r="1.54" fill="#cfc8ea" opacity="0.46"/><circle cx="147.2" cy="198.5" r="0.82" fill="#cfc8ea" opacity="0.42"/><circle cx="616.0" cy="342.6" r="0.55" fill="#cfc8ea" opacity="0.52"/><circle cx="353.1" cy="398.1" r="0.89" fill="#cfc8ea" opacity="0.48"/><circle cx="102.9" cy="199.4" r="1.32" fill="#cfc8ea" opacity="0.40"/><circle cx="338.3" cy="83.8" r="0.72" fill="#cfc8ea" opacity="0.33"/><circle cx="289.5" cy="266.6" r="0.64" fill="#cfc8ea" opacity="0.22"/><circle cx="70.6" cy="336.4" r="0.63" fill="#cfc8ea" opacity="0.30"/><circle cx="685.5" cy="66.1" r="0.83" fill="#cfc8ea" opacity="0.31"/><circle cx="733.6" cy="209.0" r="1.18" fill="#cfc8ea" opacity="0.49"/><circle cx="266.5" cy="260.1" r="0.90" fill="#cfc8ea" opacity="0.46"/><circle cx="327.1" cy="344.9" r="0.96" fill="#cfc8ea" opacity="0.17"/><circle cx="745.8" cy="233.2" r="1.27" fill="#cfc8ea" opacity="0.50"/><circle cx="346.9" cy="442.5" r="0.44" fill="#cfc8ea" opacity="0.16"/><circle cx="412.8" cy="397.1" r="1.16" fill="#cfc8ea" opacity="0.33"/><circle cx="232.0" cy="402.7" r="0.74" fill="#cfc8ea" opacity="0.29"/><circle cx="284.0" cy="271.1" r="0.45" fill="#cfc8ea" opacity="0.22"/><circle cx="476.8" cy="468.8" r="1.13" fill="#cfc8ea" opacity="0.20"/><circle cx="354.1" cy="481.2" r="1.59" fill="#cfc8ea" opacity="0.44"/><circle cx="562.0" cy="281.2" r="1.47" fill="#cfc8ea" opacity="0.19"/><circle cx="410.5" cy="526.4" r="0.50" fill="#cfc8ea" opacity="0.39"/><circle cx="551.4" cy="505.8" r="0.59" fill="#cfc8ea" opacity="0.25"/><circle cx="350.8" cy="446.7" r="1.02" fill="#cfc8ea" opacity="0.33"/><circle cx="248.0" cy="308.5" r="1.22" fill="#cfc8ea" opacity="0.15"/><circle cx="583.0" cy="453.7" r="1.13" fill="#cfc8ea" opacity="0.48"/><circle cx="734.4" cy="193.0" r="0.88" fill="#cfc8ea" opacity="0.41"/><circle cx="87.3" cy="550.2" r="1.56" fill="#cfc8ea" opacity="0.45"/><circle cx="478.9" cy="383.9" r="1.43" fill="#cfc8ea" opacity="0.19"/><circle cx="571.2" cy="484.9" r="1.34" fill="#cfc8ea" opacity="0.14"/><circle cx="353.9" cy="268.1" r="0.56" fill="#cfc8ea" opacity="0.48"/><circle cx="583.2" cy="182.2" r="1.63" fill="#cfc8ea" opacity="0.35"/><circle cx="425.5" cy="457.1" r="0.47" fill="#cfc8ea" opacity="0.37"/><circle cx="306.1" cy="440.3" r="1.45" fill="#cfc8ea" opacity="0.20"/><circle cx="537.7" cy="589.9" r="0.70" fill="#cfc8ea" opacity="0.44"/><circle cx="638.1" cy="175.7" r="1.49" fill="#cfc8ea" opacity="0.37"/><circle cx="420.0" cy="530.2" r="1.46" fill="#cfc8ea" opacity="0.22"/><circle cx="523.4" cy="21.4" r="0.44" fill="#cfc8ea" opacity="0.36"/><circle cx="488.0" cy="599.5" r="0.88" fill="#cfc8ea" opacity="0.44"/><circle cx="745.3" cy="65.5" r="1.18" fill="#cfc8ea" opacity="0.41"/><circle cx="642.3" cy="152.5" r="0.97" fill="#cfc8ea" opacity="0.20"/><circle cx="670.8" cy="582.8" r="0.71" fill="#cfc8ea" opacity="0.51"/><circle cx="560.5" cy="201.8" r="1.29" fill="#cfc8ea" opacity="0.40"/><circle cx="365.6" cy="190.5" r="1.40" fill="#cfc8ea" opacity="0.34"/><circle cx="477.4" cy="478.5" r="1.18" fill="#cfc8ea" opacity="0.32"/><circle cx="300.5" cy="450.3" r="1.42" fill="#cfc8ea" opacity="0.34"/><circle cx="478.4" cy="375.6" r="1.64" fill="#cfc8ea" opacity="0.20"/><circle cx="394.0" cy="387.7" r="1.04" fill="#cfc8ea" opacity="0.42"/><circle cx="210.5" cy="307.0" r="0.99" fill="#cfc8ea" opacity="0.40"/><circle cx="48.1" cy="386.1" r="1.19" fill="#cfc8ea" opacity="0.24"/><circle cx="326.0" cy="18.2" r="0.78" fill="#cfc8ea" opacity="0.51"/><circle cx="20.6" cy="155.3" r="0.92" fill="#cfc8ea" opacity="0.24"/><path d="M 288.50578712299466 83.6 L 289.1 86.8 L 292.3 87.38554221810773 L 289.1 88.0 L 288.50578712299466 91.2 L 287.9 88.0 L 284.7 87.38554221810773 L 287.9 86.8 Z" fill="#f6e6bf" opacity="0.5462867657886818"/><path d="M 379.1380417756736 551.7 L 379.8 555.0 L 383.0 555.6025611297227 L 379.8 556.2 L 379.1380417756736 559.5 L 378.5 556.2 L 375.3 555.6025611297227 L 378.5 555.0 Z" fill="#f6e6bf" opacity="0.6217358863214031"/><path d="M 494.05218145623803 412.6 L 494.6 415.3 L 497.3 415.8252943684347 L 494.6 416.3 L 494.05218145623803 419.0 L 493.5 416.3 L 490.9 415.8252943684347 L 493.5 415.3 Z" fill="#f6e6bf" opacity="0.7118888096185401"/><path d="M 481.0723467133939 87.9 L 481.6 90.6 L 484.3 91.09006786579266 L 481.6 91.6 L 481.0723467133939 94.3 L 480.6 91.6 L 477.8 91.09006786579266 L 480.6 90.6 Z" fill="#f6e6bf" opacity="0.5717476289952174"/><path d="M 726.9494053907692 100.6 L 727.4 102.8 L 729.6 103.24067978234962 L 727.4 103.7 L 726.9494053907692 105.9 L 726.5 103.7 L 724.3 103.24067978234962 L 726.5 102.8 Z" fill="#f6e6bf" opacity="0.7600936583476141"/><path d="M 102.9 199.4 L 685.5 66.1 L 232.0 402.7 L 562.0 281.2 L 425.5 457.1" fill="none" stroke="#d4af6a" stroke-width="0.6" opacity="0.12"/>
  <rect x="1.5" y="1.5" width="757" height="611" rx="22" fill="none" stroke="#d4af6a" stroke-opacity="0.34" stroke-width="1.2"/>
  <rect x="7" y="7" width="746" height="600" rx="17" fill="none" stroke="#d4af6a" stroke-opacity="0.12" stroke-width="0.8"/>
  <path d="M 16 12.8 L 16.5 15.5 L 19.2 16 L 16.5 16.5 L 16 19.2 L 15.5 16.5 L 12.8 16 L 15.5 15.5 Z" fill="#d4af6a" opacity="0.4"/><path d="M 744 12.8 L 744.5 15.5 L 747.2 16 L 744.5 16.5 L 744 19.2 L 743.5 16.5 L 740.8 16 L 743.5 15.5 Z" fill="#d4af6a" opacity="0.4"/><path d="M 16 594.8 L 16.5 597.5 L 19.2 598 L 16.5 598.5 L 16 601.2 L 15.5 598.5 L 12.8 598 L 15.5 597.5 Z" fill="#d4af6a" opacity="0.4"/><path d="M 744 594.8 L 744.5 597.5 L 747.2 598 L 744.5 598.5 L 744 601.2 L 743.5 598.5 L 740.8 598 L 743.5 597.5 Z" fill="#d4af6a" opacity="0.4"/>
  <text x="380" y="46" text-anchor="middle" font-family="Georgia, 'Times New Roman', serif" font-size="22" letter-spacing="0.4" fill="#efeaf8">Gemini Rising vs Gemini Sun vs Earth Mercury</text>
  <line x1="230" y1="67" x2="368" y2="67" stroke="url(#geminirising1en-rule)" stroke-width="1"/>
  <line x1="392" y1="67" x2="530" y2="67" stroke="url(#geminirising1en-rule)" stroke-width="1"/>
  <path d="M 380 62.0 L 380.8 66.2 L 385.0 67 L 380.8 67.8 L 380 72.0 L 379.2 67.8 L 375.0 67 L 379.2 66.2 Z" fill="#d4af6a" opacity="0.85"/>

  <rect x="46" y="99" width="668" height="143.0" rx="14" fill="#1d1740" fill-opacity="0.5" stroke="#d4af6a" stroke-opacity="0.22" stroke-width="0.9"/>
  <rect x="46" y="99" width="668" height="3.5" rx="1.8" fill="#d4af6a" fill-opacity="0.6"/>
  <path d="M 380 97.1 L 380.5 100.0 L 383.4 100.5 L 380.5 101.0 L 380 103.9 L 379.5 101.0 L 376.6 100.5 L 379.5 100.0 Z" fill="#f6e6bf" opacity="0.7"/>
  <text x="380" y="128.0" text-anchor="middle" font-family="Georgia, 'Times New Roman', serif" font-size="21" font-weight="700" letter-spacing="0.3" fill="#f3effb">Gemini Rising</text>
  <path d="M 70 157.8 L 70.5 160.5 L 73.2 161 L 70.5 161.5 L 70 164.2 L 69.5 161.5 L 66.8 161 L 69.5 160.5 Z" fill="#d4af6a" opacity="0.8"/>
  <text x="84" y="166.0" font-family="Helvetica, Arial, sans-serif" font-size="16" fill="#a59cc0">Role: Packaging and first impression</text>
  <path d="M 70 186.8 L 70.5 189.5 L 73.2 190 L 70.5 190.5 L 70 193.2 L 69.5 190.5 L 66.8 190 L 69.5 189.5 Z" fill="#d4af6a" opacity="0.8"/>
  <text x="84" y="195.0" font-family="Helvetica, Arial, sans-serif" font-size="16" fill="#a59cc0">Expression: Connective agility, quick-linking</text>
  <path d="M 70 215.8 L 70.5 218.5 L 73.2 219 L 70.5 219.5 L 70 222.2 L 69.5 219.5 L 66.8 219 L 69.5 218.5 Z" fill="#d4af6a" opacity="0.8"/>
  <text x="84" y="224.0" font-family="Helvetica, Arial, sans-serif" font-size="16" fill="#a59cc0">Focus: How you meet the world</text>
  <path d="M 380 250.5 L 380.7 254.3 L 384.5 255 L 380.7 255.7 L 380 259.5 L 379.3 255.7 L 375.5 255 L 379.3 254.3 Z" fill="#d4af6a" opacity="0.65"/>
  <rect x="46" y="268" width="668" height="143.0" rx="14" fill="#1d1740" fill-opacity="0.5" stroke="#d4af6a" stroke-opacity="0.22" stroke-width="0.9"/>
  <rect x="46" y="268" width="668" height="3.5" rx="1.8" fill="#d4af6a" fill-opacity="0.6"/>
  <path d="M 380 266.1 L 380.5 269.0 L 383.4 269.5 L 380.5 270.0 L 380 272.9 L 379.5 270.0 L 376.6 269.5 L 379.5 269.0 Z" fill="#f6e6bf" opacity="0.7"/>
  <text x="380" y="297.0" text-anchor="middle" font-family="Georgia, 'Times New Roman', serif" font-size="21" font-weight="700" letter-spacing="0.3" fill="#f3effb">Gemini Sun</text>
  <path d="M 70 326.8 L 70.5 329.5 L 73.2 330 L 70.5 330.5 L 70 333.2 L 69.5 330.5 L 66.8 330 L 69.5 329.5 Z" fill="#d4af6a" opacity="0.8"/>
  <text x="84" y="335.0" font-family="Helvetica, Arial, sans-serif" font-size="16" fill="#a59cc0">Role: Core identity and inner self</text>
  <path d="M 70 355.8 L 70.5 358.5 L 73.2 359 L 70.5 359.5 L 70 362.2 L 69.5 359.5 L 66.8 359 L 69.5 358.5 Z" fill="#d4af6a" opacity="0.8"/>
  <text x="84" y="364.0" font-family="Helvetica, Arial, sans-serif" font-size="16" fill="#a59cc0">Expression: Central drives and motivations</text>
  <path d="M 70 384.8 L 70.5 387.5 L 73.2 388 L 70.5 388.5 L 70 391.2 L 69.5 388.5 L 66.8 388 L 69.5 387.5 Z" fill="#d4af6a" opacity="0.8"/>
  <text x="84" y="393.0" font-family="Helvetica, Arial, sans-serif" font-size="16" fill="#a59cc0">Focus: Who you are at depth</text>
  <path d="M 380 419.5 L 380.7 423.3 L 384.5 424 L 380.7 424.7 L 380 428.5 L 379.3 424.7 L 375.5 424 L 379.3 423.3 Z" fill="#d4af6a" opacity="0.65"/>
  <rect x="46" y="437" width="668" height="143.0" rx="14" fill="#1d1740" fill-opacity="0.5" stroke="#d4af6a" stroke-opacity="0.22" stroke-width="0.9"/>
  <rect x="46" y="437" width="668" height="3.5" rx="1.8" fill="#d4af6a" fill-opacity="0.6"/>
  <path d="M 380 435.1 L 380.5 438.0 L 383.4 438.5 L 380.5 439.0 L 380 441.9 L 379.5 439.0 L 376.6 438.5 L 379.5 438.0 Z" fill="#f6e6bf" opacity="0.7"/>
  <text x="380" y="466.0" text-anchor="middle" font-family="Georgia, 'Times New Roman', serif" font-size="21" font-weight="700" letter-spacing="0.3" fill="#f3effb">Earth Mercury</text>
  <path d="M 70 495.8 L 70.5 498.5 L 73.2 499 L 70.5 499.5 L 70 502.2 L 69.5 499.5 L 66.8 499 L 69.5 498.5 Z" fill="#d4af6a" opacity="0.8"/>
  <text x="84" y="504.0" font-family="Helvetica, Arial, sans-serif" font-size="16" fill="#a59cc0">Role: Same ruler, different medium</text>
  <path d="M 70 524.8 L 70.5 527.5 L 73.2 528 L 70.5 528.5 L 70 531.2 L 69.5 528.5 L 66.8 528 L 69.5 527.5 Z" fill="#d4af6a" opacity="0.8"/>
  <text x="84" y="533.0" font-family="Helvetica, Arial, sans-serif" font-size="16" fill="#a59cc0">Expression: Analytical precision and method</text>
  <path d="M 70 553.8 L 70.5 556.5 L 73.2 557 L 70.5 557.5 L 70 560.2 L 69.5 557.5 L 66.8 557 L 69.5 556.5 Z" fill="#d4af6a" opacity="0.8"/>
  <text x="84" y="562.0" font-family="Helvetica, Arial, sans-serif" font-size="16" fill="#a59cc0">Focus: Depth of refinement over breadth</text>
  <path d="M 202.22749999999988 585.4 L 202.6 587.6 L 204.8 588 L 202.6 588.4 L 202.22749999999988 590.6 L 201.8 588.4 L 199.6 588 L 201.8 587.6 Z" fill="#d4af6a" opacity="0.5"/>
  <text x="380" y="592" text-anchor="middle" font-family="Georgia, 'Times New Roman', serif" font-style="italic" font-size="11.5" fill="#7b738f">A self-reflection framework — tendencies, not predictions</text>
  <path d="M 557.7725000000002 585.4 L 558.2 587.6 L 560.4 588 L 558.2 588.4 L 557.7725000000002 590.6 L 557.4 588.4 L 555.2 588 L 557.4 587.6 Z" fill="#d4af6a" opacity="0.5"/>
</svg>
