<svg xmlns="http://www.w3.org/2000/svg" viewBox="0 0 760 505" role="img" aria-label="5 Steps to Read the DFB Founding Chart">
  <defs>
    <linearGradient id="germanyworldcup2026astrologyteam0en-panel" x1="0" y1="0" x2="0.4" y2="1">
      <stop offset="0" stop-color="#1a1433"/><stop offset="0.55" stop-color="#120e26"/><stop offset="1" stop-color="#09081a"/>
    </linearGradient>
    <radialGradient id="germanyworldcup2026astrologyteam0en-foil" cx="0.42" cy="0.34" r="0.75">
      <stop offset="0" stop-color="#fbf0d2"/><stop offset="0.5" stop-color="#e8c882"/><stop offset="1" stop-color="#b8923f"/>
    </radialGradient>
    <radialGradient id="germanyworldcup2026astrologyteam0en-glow" cx="0.5" cy="0.5" r="0.5">
      <stop offset="0" stop-color="#f6e6bf"/><stop offset="1" stop-color="#f6e6bf" stop-opacity="0"/>
    </radialGradient>
    <radialGradient id="germanyworldcup2026astrologyteam0en-neb1" cx="0.5" cy="0.5" r="0.5">
      <stop offset="0" stop-color="#6f4bb0" stop-opacity="0.28"/><stop offset="1" stop-color="#6f4bb0" stop-opacity="0"/>
    </radialGradient>
    <radialGradient id="germanyworldcup2026astrologyteam0en-neb2" cx="0.5" cy="0.5" r="0.5">
      <stop offset="0" stop-color="#d4af6a" stop-opacity="0.16"/><stop offset="1" stop-color="#d4af6a" stop-opacity="0"/>
    </radialGradient>
    <linearGradient id="germanyworldcup2026astrologyteam0en-rule" x1="0" y1="0" x2="1" y2="0">
      <stop offset="0" stop-color="#d4af6a" stop-opacity="0"/><stop offset="0.5" stop-color="#d4af6a" stop-opacity="0.6"/><stop offset="1" stop-color="#d4af6a" stop-opacity="0"/>
    </linearGradient>
  </defs>
  <rect x="1.5" y="1.5" width="757" height="502" rx="22" fill="url(#germanyworldcup2026astrologyteam0en-panel)"/>
  <ellipse cx="198" cy="121" rx="380" ry="172" fill="url(#germanyworldcup2026astrologyteam0en-neb1)"/>
  <ellipse cx="623" cy="404" rx="334" ry="162" fill="url(#germanyworldcup2026astrologyteam0en-neb2)"/>
  <circle cx="42.0" cy="24.0" r="0.78" fill="#cfc8ea" opacity="0.25"/><circle cx="81.4" cy="274.0" r="1.30" fill="#cfc8ea" opacity="0.45"/><circle cx="453.1" cy="319.9" r="0.87" fill="#cfc8ea" opacity="0.50"/><circle cx="183.5" cy="139.1" r="0.68" fill="#cfc8ea" opacity="0.29"/><circle cx="19.0" cy="401.5" r="0.93" fill="#cfc8ea" opacity="0.32"/><circle cx="548.2" cy="476.1" r="1.24" fill="#cfc8ea" opacity="0.20"/><circle cx="288.3" cy="185.7" r="0.63" fill="#cfc8ea" opacity="0.41"/><circle cx="630.0" cy="42.1" r="0.94" fill="#cfc8ea" opacity="0.52"/><circle cx="60.2" cy="246.1" r="1.67" fill="#cfc8ea" opacity="0.50"/><circle cx="78.6" cy="47.6" r="0.82" fill="#cfc8ea" opacity="0.42"/><circle cx="677.6" cy="463.3" r="1.62" fill="#cfc8ea" opacity="0.25"/><circle cx="216.3" cy="366.7" r="1.69" fill="#cfc8ea" opacity="0.36"/><circle cx="21.1" cy="204.5" r="0.71" fill="#cfc8ea" opacity="0.28"/><circle cx="373.0" cy="172.1" r="0.56" fill="#cfc8ea" opacity="0.16"/><circle cx="694.3" cy="348.8" r="1.14" fill="#cfc8ea" opacity="0.40"/><circle cx="169.1" cy="379.7" r="1.70" fill="#cfc8ea" opacity="0.14"/><circle cx="405.5" cy="330.2" r="0.96" fill="#cfc8ea" opacity="0.22"/><circle cx="643.7" cy="79.8" r="0.50" fill="#cfc8ea" opacity="0.33"/><circle cx="442.3" cy="62.3" r="1.22" fill="#cfc8ea" opacity="0.29"/><circle cx="51.7" cy="394.3" r="1.62" fill="#cfc8ea" opacity="0.41"/><circle cx="362.8" cy="426.2" r="0.77" fill="#cfc8ea" opacity="0.31"/><circle cx="569.9" cy="369.3" r="0.41" fill="#cfc8ea" opacity="0.33"/><circle cx="298.8" cy="105.6" r="0.71" fill="#cfc8ea" opacity="0.28"/><circle cx="237.6" cy="402.7" r="1.61" fill="#cfc8ea" opacity="0.27"/><circle cx="18.2" cy="407.5" r="1.09" fill="#cfc8ea" opacity="0.39"/><circle cx="717.5" cy="425.1" r="1.14" fill="#cfc8ea" opacity="0.44"/><circle cx="654.0" cy="183.0" r="0.83" fill="#cfc8ea" opacity="0.28"/><circle cx="658.7" cy="488.6" r="0.97" fill="#cfc8ea" opacity="0.38"/><circle cx="63.6" cy="238.2" r="0.95" fill="#cfc8ea" opacity="0.46"/><circle cx="664.5" cy="158.6" r="1.21" fill="#cfc8ea" opacity="0.36"/><circle cx="321.4" cy="45.5" r="1.05" fill="#cfc8ea" opacity="0.20"/><circle cx="209.9" cy="321.5" r="1.30" fill="#cfc8ea" opacity="0.42"/><circle cx="553.2" cy="85.1" r="1.18" fill="#cfc8ea" opacity="0.43"/><circle cx="411.9" cy="68.1" r="1.35" fill="#cfc8ea" opacity="0.48"/><circle cx="68.3" cy="313.7" r="1.23" fill="#cfc8ea" opacity="0.47"/><circle cx="638.7" cy="445.1" r="0.54" fill="#cfc8ea" opacity="0.39"/><circle cx="294.5" cy="481.0" r="1.33" fill="#cfc8ea" opacity="0.26"/><circle cx="534.5" cy="466.4" r="1.18" fill="#cfc8ea" opacity="0.51"/><circle cx="239.5" cy="490.1" r="0.73" fill="#cfc8ea" opacity="0.23"/><circle cx="535.0" cy="18.2" r="0.84" fill="#cfc8ea" opacity="0.46"/><circle cx="619.3" cy="13.8" r="1.36" fill="#cfc8ea" opacity="0.21"/><circle cx="395.8" cy="366.1" r="1.48" fill="#cfc8ea" opacity="0.33"/><circle cx="28.8" cy="150.6" r="0.53" fill="#cfc8ea" opacity="0.29"/><path d="M 543.0121165346354 209.2 L 543.6 212.1 L 546.5 212.6182778440416 L 543.6 213.2 L 543.0121165346354 216.1 L 542.5 213.2 L 539.5 212.6182778440416 L 542.5 212.1 Z" fill="#f6e6bf" opacity="0.5479168125893921"/><path d="M 509.3310192283243 374.4 L 509.8 376.9 L 512.3 377.41012309957296 L 509.8 377.9 L 509.3310192283243 380.4 L 508.8 377.9 L 506.3 377.41012309957296 L 508.8 376.9 Z" fill="#f6e6bf" opacity="0.7143337972927839"/><path d="M 343.0155686419457 116.1 L 343.6 119.1 L 346.6 119.6549882274121 L 343.6 120.2 L 343.0155686419457 123.2 L 342.4 120.2 L 339.4 119.6549882274121 L 342.4 119.1 Z" fill="#f6e6bf" opacity="0.790193598670885"/><path d="M 187.4392598774284 28.2 L 187.9 30.5 L 190.2 30.973442695103586 L 187.9 31.4 L 187.4392598774284 33.8 L 187.0 31.4 L 184.6 30.973442695103586 L 187.0 30.5 Z" fill="#f6e6bf" opacity="0.5971335372421891"/><path d="M 433.14023037068546 222.4 L 433.5 224.5 L 435.6 224.85971701145172 L 433.5 225.3 L 433.14023037068546 227.3 L 432.7 225.3 L 430.7 224.85971701145172 L 432.7 224.5 Z" fill="#f6e6bf" opacity="0.5530887698289007"/><path d="M 630.0 42.1 L 442.3 62.3 L 569.9 369.3 L 18.2 407.5 L 535.0 18.2" fill="none" stroke="#d4af6a" stroke-width="0.6" opacity="0.12"/>
  <rect x="1.5" y="1.5" width="757" height="502" rx="22" fill="none" stroke="#d4af6a" stroke-opacity="0.34" stroke-width="1.2"/>
  <rect x="7" y="7" width="746" height="491" rx="17" fill="none" stroke="#d4af6a" stroke-opacity="0.12" stroke-width="0.8"/>
  <path d="M 16 12.8 L 16.5 15.5 L 19.2 16 L 16.5 16.5 L 16 19.2 L 15.5 16.5 L 12.8 16 L 15.5 15.5 Z" fill="#d4af6a" opacity="0.4"/><path d="M 744 12.8 L 744.5 15.5 L 747.2 16 L 744.5 16.5 L 744 19.2 L 743.5 16.5 L 740.8 16 L 743.5 15.5 Z" fill="#d4af6a" opacity="0.4"/><path d="M 16 485.8 L 16.5 488.5 L 19.2 489 L 16.5 489.5 L 16 492.2 L 15.5 489.5 L 12.8 489 L 15.5 488.5 Z" fill="#d4af6a" opacity="0.4"/><path d="M 744 485.8 L 744.5 488.5 L 747.2 489 L 744.5 489.5 L 744 492.2 L 743.5 489.5 L 740.8 489 L 743.5 488.5 Z" fill="#d4af6a" opacity="0.4"/>
  <text x="380" y="46" text-anchor="middle" font-family="Georgia, 'Times New Roman', serif" font-size="22" letter-spacing="0.4" fill="#efeaf8">5 Steps to Read the DFB Founding Chart</text>
  <line x1="230" y1="67" x2="368" y2="67" stroke="url(#germanyworldcup2026astrologyteam0en-rule)" stroke-width="1"/>
  <line x1="392" y1="67" x2="530" y2="67" stroke="url(#germanyworldcup2026astrologyteam0en-rule)" stroke-width="1"/>
  <path d="M 380 62.0 L 380.8 66.2 L 385.0 67 L 380.8 67.8 L 380 72.0 L 379.2 67.8 L 375.0 67 L 379.2 66.2 Z" fill="#d4af6a" opacity="0.85"/>
  <line x1="76" y1="121" x2="76" y2="415" stroke="#d4af6a" stroke-opacity="0.28" stroke-width="1.5"/>
  <circle cx="76" cy="121" r="20.0" fill="url(#germanyworldcup2026astrologyteam0en-glow)" opacity="0.5"/>
    <circle cx="76" cy="121" r="15" fill="url(#germanyworldcup2026astrologyteam0en-foil)" stroke="#f6e6bf" stroke-opacity="0.5" stroke-width="0.8"/>
    <circle cx="76" cy="116.8" r="9.0" fill="#ffffff" opacity="0.10"/>
    <text x="76" y="125.5" text-anchor="middle" font-family="Georgia, 'Times New Roman', serif" font-size="13" font-weight="700" fill="#3a2c12">1</text>
  <text x="116" y="117.0" font-family="Georgia, 'Times New Roman', serif" font-size="22" letter-spacing="0.3" fill="#f3effb">Locate the Founding Sun</text>
  <text x="116" y="139.0" font-family="Helvetica, Arial, sans-serif" font-size="15.5" fill="#a59cc0">Aquarius Sun, 28 Jan 1900 DFB chart — collective identity and system</text>
  <circle cx="76" cy="181" r="20.0" fill="url(#germanyworldcup2026astrologyteam0en-glow)" opacity="0.5"/>
    <circle cx="76" cy="181" r="15" fill="url(#germanyworldcup2026astrologyteam0en-foil)" stroke="#f6e6bf" stroke-opacity="0.5" stroke-width="0.8"/>
    <circle cx="76" cy="176.8" r="9.0" fill="#ffffff" opacity="0.10"/>
    <text x="76" y="185.5" text-anchor="middle" font-family="Georgia, 'Times New Roman', serif" font-size="13" font-weight="700" fill="#3a2c12">2</text>
  <text x="116" y="177.0" font-family="Georgia, 'Times New Roman', serif" font-size="22" letter-spacing="0.3" fill="#f3effb">Track Saturn in Aries (2025–28)</text>
  <text x="116" y="199.0" font-family="Helvetica, Arial, sans-serif" font-size="15.5" fill="#a59cc0">Sextile to the Aquarius Sun: supportive structural season of disciplined</text>
  <text x="116" y="217.0" font-family="Helvetica, Arial, sans-serif" font-size="15.5" fill="#a59cc0">rebuilding</text>
  <circle cx="76" cy="259" r="20.0" fill="url(#germanyworldcup2026astrologyteam0en-glow)" opacity="0.5"/>
    <circle cx="76" cy="259" r="15" fill="url(#germanyworldcup2026astrologyteam0en-foil)" stroke="#f6e6bf" stroke-opacity="0.5" stroke-width="0.8"/>
    <circle cx="76" cy="254.8" r="9.0" fill="#ffffff" opacity="0.10"/>
    <text x="76" y="263.5" text-anchor="middle" font-family="Georgia, 'Times New Roman', serif" font-size="13" font-weight="700" fill="#3a2c12">3</text>
  <text x="116" y="255.0" font-family="Georgia, 'Times New Roman', serif" font-size="22" letter-spacing="0.3" fill="#f3effb">Track Jupiter in Cancer (June 11–29)</text>
  <text x="116" y="277.0" font-family="Helvetica, Arial, sans-serif" font-size="15.5" fill="#a59cc0">Quincunx the founding Sun: awkward early-tournament adjustment needing</text>
  <text x="116" y="295.0" font-family="Helvetica, Arial, sans-serif" font-size="15.5" fill="#a59cc0">recalibration</text>
  <circle cx="76" cy="337" r="20.0" fill="url(#germanyworldcup2026astrologyteam0en-glow)" opacity="0.5"/>
    <circle cx="76" cy="337" r="15" fill="url(#germanyworldcup2026astrologyteam0en-foil)" stroke="#f6e6bf" stroke-opacity="0.5" stroke-width="0.8"/>
    <circle cx="76" cy="332.8" r="9.0" fill="#ffffff" opacity="0.10"/>
    <text x="76" y="341.5" text-anchor="middle" font-family="Georgia, 'Times New Roman', serif" font-size="13" font-weight="700" fill="#3a2c12">4</text>
  <text x="116" y="333.0" font-family="Georgia, 'Times New Roman', serif" font-size="22" letter-spacing="0.3" fill="#f3effb">Mark June 30 — Jupiter Enters Leo</text>
  <text x="116" y="355.0" font-family="Helvetica, Arial, sans-serif" font-size="15.5" fill="#a59cc0">Jupiter opposes the Aquarius Sun, intensifying the spotlight for the knockout</text>
  <text x="116" y="373.0" font-family="Helvetica, Arial, sans-serif" font-size="15.5" fill="#a59cc0">phase</text>
  <circle cx="76" cy="415" r="20.0" fill="url(#germanyworldcup2026astrologyteam0en-glow)" opacity="0.5"/>
    <circle cx="76" cy="415" r="15" fill="url(#germanyworldcup2026astrologyteam0en-foil)" stroke="#f6e6bf" stroke-opacity="0.5" stroke-width="0.8"/>
    <circle cx="76" cy="410.8" r="9.0" fill="#ffffff" opacity="0.10"/>
    <text x="76" y="419.5" text-anchor="middle" font-family="Georgia, 'Times New Roman', serif" font-size="13" font-weight="700" fill="#3a2c12">5</text>
  <text x="116" y="411.0" font-family="Georgia, 'Times New Roman', serif" font-size="22" letter-spacing="0.3" fill="#f3effb">Hold Both Transits Together</text>
  <text x="116" y="433.0" font-family="Helvetica, Arial, sans-serif" font-size="15.5" fill="#a59cc0">Steady structure crossed by rising visibility — not one verdict but layered</text>
  <text x="116" y="451.0" font-family="Helvetica, Arial, sans-serif" font-size="15.5" fill="#a59cc0">timing</text>
  <path d="M 202.22749999999988 476.4 L 202.6 478.6 L 204.8 479 L 202.6 479.4 L 202.22749999999988 481.6 L 201.8 479.4 L 199.6 479 L 201.8 478.6 Z" fill="#d4af6a" opacity="0.5"/>
  <text x="380" y="483" text-anchor="middle" font-family="Georgia, 'Times New Roman', serif" font-style="italic" font-size="11.5" fill="#7b738f">A self-reflection framework — tendencies, not predictions</text>
  <path d="M 557.7725000000002 476.4 L 558.2 478.6 L 560.4 479 L 558.2 479.4 L 557.7725000000002 481.6 L 557.4 479.4 L 555.2 479 L 557.4 478.6 Z" fill="#d4af6a" opacity="0.5"/>
</svg>
