<svg xmlns="http://www.w3.org/2000/svg" viewBox="0 0 760 614" role="img" aria-label="Germany's 2026 World Cup Core: Sun Signs at a Glance">
  <defs>
    <linearGradient id="germanyworldcupplayersbirthchart20261en-panel" x1="0" y1="0" x2="0.4" y2="1">
      <stop offset="0" stop-color="#1a1433"/><stop offset="0.55" stop-color="#120e26"/><stop offset="1" stop-color="#09081a"/>
    </linearGradient>
    <radialGradient id="germanyworldcupplayersbirthchart20261en-foil" cx="0.42" cy="0.34" r="0.75">
      <stop offset="0" stop-color="#fbf0d2"/><stop offset="0.5" stop-color="#e8c882"/><stop offset="1" stop-color="#b8923f"/>
    </radialGradient>
    <radialGradient id="germanyworldcupplayersbirthchart20261en-glow" cx="0.5" cy="0.5" r="0.5">
      <stop offset="0" stop-color="#f6e6bf"/><stop offset="1" stop-color="#f6e6bf" stop-opacity="0"/>
    </radialGradient>
    <radialGradient id="germanyworldcupplayersbirthchart20261en-neb1" cx="0.5" cy="0.5" r="0.5">
      <stop offset="0" stop-color="#6f4bb0" stop-opacity="0.28"/><stop offset="1" stop-color="#6f4bb0" stop-opacity="0"/>
    </radialGradient>
    <radialGradient id="germanyworldcupplayersbirthchart20261en-neb2" cx="0.5" cy="0.5" r="0.5">
      <stop offset="0" stop-color="#d4af6a" stop-opacity="0.16"/><stop offset="1" stop-color="#d4af6a" stop-opacity="0"/>
    </radialGradient>
    <linearGradient id="germanyworldcupplayersbirthchart20261en-rule" x1="0" y1="0" x2="1" y2="0">
      <stop offset="0" stop-color="#d4af6a" stop-opacity="0"/><stop offset="0.5" stop-color="#d4af6a" stop-opacity="0.6"/><stop offset="1" stop-color="#d4af6a" stop-opacity="0"/>
    </linearGradient>
  </defs>
  <rect x="1.5" y="1.5" width="757" height="611" rx="22" fill="url(#germanyworldcupplayersbirthchart20261en-panel)"/>
  <ellipse cx="198" cy="147" rx="380" ry="209" fill="url(#germanyworldcupplayersbirthchart20261en-neb1)"/>
  <ellipse cx="623" cy="491" rx="334" ry="196" fill="url(#germanyworldcupplayersbirthchart20261en-neb2)"/>
  <circle cx="740.3" cy="320.7" r="1.49" fill="#cfc8ea" opacity="0.33"/><circle cx="154.3" cy="483.7" r="0.52" fill="#cfc8ea" opacity="0.39"/><circle cx="47.7" cy="340.3" r="0.95" fill="#cfc8ea" opacity="0.31"/><circle cx="92.8" cy="253.8" r="1.58" fill="#cfc8ea" opacity="0.54"/><circle cx="628.4" cy="141.3" r="0.52" fill="#cfc8ea" opacity="0.44"/><circle cx="15.8" cy="17.9" r="1.24" fill="#cfc8ea" opacity="0.45"/><circle cx="81.8" cy="131.6" r="1.10" fill="#cfc8ea" opacity="0.45"/><circle cx="512.3" cy="474.9" r="0.56" fill="#cfc8ea" opacity="0.41"/><circle cx="238.4" cy="379.1" r="1.02" fill="#cfc8ea" opacity="0.19"/><circle cx="740.5" cy="446.4" r="0.63" fill="#cfc8ea" opacity="0.33"/><circle cx="704.2" cy="565.4" r="1.10" fill="#cfc8ea" opacity="0.43"/><circle cx="635.6" cy="518.2" r="1.55" fill="#cfc8ea" opacity="0.45"/><circle cx="410.0" cy="412.0" r="1.16" fill="#cfc8ea" opacity="0.16"/><circle cx="238.4" cy="319.4" r="0.67" fill="#cfc8ea" opacity="0.30"/><circle cx="422.0" cy="307.5" r="1.34" fill="#cfc8ea" opacity="0.21"/><circle cx="497.6" cy="532.2" r="1.47" fill="#cfc8ea" opacity="0.50"/><circle cx="13.2" cy="318.1" r="0.55" fill="#cfc8ea" opacity="0.50"/><circle cx="109.1" cy="432.2" r="0.47" fill="#cfc8ea" opacity="0.16"/><circle cx="165.8" cy="501.2" r="0.57" fill="#cfc8ea" opacity="0.48"/><circle cx="610.8" cy="259.9" r="1.69" fill="#cfc8ea" opacity="0.37"/><circle cx="706.5" cy="438.0" r="0.49" fill="#cfc8ea" opacity="0.36"/><circle cx="370.9" cy="428.7" r="0.95" fill="#cfc8ea" opacity="0.25"/><circle cx="418.9" cy="205.0" r="1.20" fill="#cfc8ea" opacity="0.37"/><circle cx="432.5" cy="227.7" r="0.73" fill="#cfc8ea" opacity="0.38"/><circle cx="615.4" cy="231.6" r="1.56" fill="#cfc8ea" opacity="0.14"/><circle cx="80.9" cy="457.6" r="1.57" fill="#cfc8ea" opacity="0.42"/><circle cx="153.1" cy="329.1" r="1.27" fill="#cfc8ea" opacity="0.36"/><circle cx="682.0" cy="284.6" r="1.51" fill="#cfc8ea" opacity="0.20"/><circle cx="172.6" cy="271.0" r="0.72" fill="#cfc8ea" opacity="0.14"/><circle cx="731.5" cy="183.4" r="1.16" fill="#cfc8ea" opacity="0.41"/><circle cx="664.4" cy="516.3" r="0.78" fill="#cfc8ea" opacity="0.25"/><circle cx="595.8" cy="553.3" r="1.12" fill="#cfc8ea" opacity="0.13"/><circle cx="122.1" cy="153.0" r="0.84" fill="#cfc8ea" opacity="0.19"/><circle cx="656.3" cy="581.6" r="1.27" fill="#cfc8ea" opacity="0.45"/><circle cx="657.5" cy="116.1" r="1.14" fill="#cfc8ea" opacity="0.13"/><circle cx="528.3" cy="560.0" r="0.68" fill="#cfc8ea" opacity="0.47"/><circle cx="576.0" cy="599.2" r="0.47" fill="#cfc8ea" opacity="0.24"/><circle cx="514.9" cy="526.5" r="1.28" fill="#cfc8ea" opacity="0.32"/><circle cx="25.2" cy="381.6" r="1.21" fill="#cfc8ea" opacity="0.28"/><circle cx="616.6" cy="131.3" r="1.38" fill="#cfc8ea" opacity="0.50"/><circle cx="629.6" cy="461.8" r="0.82" fill="#cfc8ea" opacity="0.46"/><circle cx="362.5" cy="385.6" r="1.24" fill="#cfc8ea" opacity="0.50"/><circle cx="512.1" cy="452.1" r="0.71" fill="#cfc8ea" opacity="0.24"/><circle cx="398.5" cy="480.1" r="1.42" fill="#cfc8ea" opacity="0.46"/><circle cx="433.3" cy="147.8" r="0.93" fill="#cfc8ea" opacity="0.35"/><circle cx="645.6" cy="202.8" r="1.15" fill="#cfc8ea" opacity="0.45"/><circle cx="468.2" cy="478.5" r="0.78" fill="#cfc8ea" opacity="0.29"/><circle cx="38.1" cy="511.8" r="1.02" fill="#cfc8ea" opacity="0.17"/><circle cx="440.7" cy="114.7" r="0.52" fill="#cfc8ea" opacity="0.38"/><circle cx="509.3" cy="261.1" r="1.43" fill="#cfc8ea" opacity="0.39"/><circle cx="216.8" cy="26.3" r="1.28" fill="#cfc8ea" opacity="0.23"/><circle cx="318.5" cy="50.8" r="0.83" fill="#cfc8ea" opacity="0.18"/><path d="M 103.69953695125878 341.3 L 104.3 344.7 L 107.7 345.3164135357365 L 104.3 346.0 L 103.69953695125878 349.3 L 103.1 346.0 L 99.7 345.3164135357365 L 103.1 344.7 Z" fill="#f6e6bf" opacity="0.5378916813060641"/><path d="M 68.52852028049529 190.8 L 69.0 193.1 L 71.3 193.56503039691597 L 69.0 194.0 L 68.52852028049529 196.4 L 68.1 194.0 L 65.7 193.56503039691597 L 68.1 193.1 Z" fill="#f6e6bf" opacity="0.5303495545871556"/><path d="M 169.2915068436414 228.0 L 169.7 230.3 L 172.0 230.76075317244977 L 169.7 231.2 L 169.2915068436414 233.5 L 168.9 231.2 L 166.6 230.76075317244977 L 168.9 230.3 Z" fill="#f6e6bf" opacity="0.5451583337038756"/><path d="M 370.84864030219615 445.8 L 371.4 448.8 L 374.4 449.3597629116848 L 371.4 449.9 L 370.84864030219615 452.9 L 370.3 449.9 L 367.3 449.3597629116848 L 370.3 448.8 Z" fill="#f6e6bf" opacity="0.5837620484642685"/><path d="M 730.7513179797679 584.5 L 731.4 587.7 L 734.6 588.2620959496126 L 731.4 588.9 L 730.7513179797679 592.1 L 730.1 588.9 L 726.9 588.2620959496126 L 730.1 587.7 Z" fill="#f6e6bf" opacity="0.6981292495504021"/><path d="M 497.6 532.2 L 615.4 231.6 L 122.1 153.0 L 468.2 478.5 L 216.8 26.3" fill="none" stroke="#d4af6a" stroke-width="0.6" opacity="0.12"/>
  <rect x="1.5" y="1.5" width="757" height="611" rx="22" fill="none" stroke="#d4af6a" stroke-opacity="0.34" stroke-width="1.2"/>
  <rect x="7" y="7" width="746" height="600" rx="17" fill="none" stroke="#d4af6a" stroke-opacity="0.12" stroke-width="0.8"/>
  <path d="M 16 12.8 L 16.5 15.5 L 19.2 16 L 16.5 16.5 L 16 19.2 L 15.5 16.5 L 12.8 16 L 15.5 15.5 Z" fill="#d4af6a" opacity="0.4"/><path d="M 744 12.8 L 744.5 15.5 L 747.2 16 L 744.5 16.5 L 744 19.2 L 743.5 16.5 L 740.8 16 L 743.5 15.5 Z" fill="#d4af6a" opacity="0.4"/><path d="M 16 594.8 L 16.5 597.5 L 19.2 598 L 16.5 598.5 L 16 601.2 L 15.5 598.5 L 12.8 598 L 15.5 597.5 Z" fill="#d4af6a" opacity="0.4"/><path d="M 744 594.8 L 744.5 597.5 L 747.2 598 L 744.5 598.5 L 744 601.2 L 743.5 598.5 L 740.8 598 L 743.5 597.5 Z" fill="#d4af6a" opacity="0.4"/>
  <text x="380" y="46" text-anchor="middle" font-family="Georgia, 'Times New Roman', serif" font-size="22" letter-spacing="0.4" fill="#efeaf8">Germany's 2026 World Cup Core: Sun Signs at a Glance</text>
  <line x1="230" y1="67" x2="368" y2="67" stroke="url(#germanyworldcupplayersbirthchart20261en-rule)" stroke-width="1"/>
  <line x1="392" y1="67" x2="530" y2="67" stroke="url(#germanyworldcupplayersbirthchart20261en-rule)" stroke-width="1"/>
  <path d="M 380 62.0 L 380.8 66.2 L 385.0 67 L 380.8 67.8 L 380 72.0 L 379.2 67.8 L 375.0 67 L 379.2 66.2 Z" fill="#d4af6a" opacity="0.85"/>

  <rect x="46" y="99" width="668" height="143.0" rx="14" fill="#1d1740" fill-opacity="0.5" stroke="#d4af6a" stroke-opacity="0.22" stroke-width="0.9"/>
  <rect x="46" y="99" width="3.5" height="143.0" rx="1.8" fill="#d4af6a" fill-opacity="0.6"/>
  <path d="M 47.75 108.6 L 48.3 111.5 L 51.1 112 L 48.3 112.5 L 47.75 115.4 L 47.2 112.5 L 44.4 112 L 47.2 111.5 Z" fill="#f6e6bf" opacity="0.7"/>
  <text x="380" y="128.0" text-anchor="middle" font-family="Georgia, 'Times New Roman', serif" font-size="21" font-weight="700" letter-spacing="0.3" fill="#f3effb">Jamal Musiala</text>
  <path d="M 70 157.8 L 70.5 160.5 L 73.2 161 L 70.5 161.5 L 70 164.2 L 69.5 161.5 L 66.8 161 L 69.5 160.5 Z" fill="#d4af6a" opacity="0.8"/>
  <text x="84" y="166.0" font-family="Helvetica, Arial, sans-serif" font-size="16" fill="#a59cc0">Pisces Sun (26 Feb 2003)</text>
  <path d="M 70 186.8 L 70.5 189.5 L 73.2 190 L 70.5 190.5 L 70 193.2 L 69.5 190.5 L 66.8 190 L 69.5 189.5 Z" fill="#d4af6a" opacity="0.8"/>
  <text x="84" y="195.0" font-family="Helvetica, Arial, sans-serif" font-size="16" fill="#a59cc0">Improvisational, fluid creator</text>
  <path d="M 70 215.8 L 70.5 218.5 L 73.2 219 L 70.5 219.5 L 70 222.2 L 69.5 219.5 L 66.8 219 L 69.5 218.5 Z" fill="#d4af6a" opacity="0.8"/>
  <text x="84" y="224.0" font-family="Helvetica, Arial, sans-serif" font-size="16" fill="#a59cc0">Jupiter in Cancer trines Pisces Sun, June 11–29</text>
  <path d="M 380 250.5 L 380.7 254.3 L 384.5 255 L 380.7 255.7 L 380 259.5 L 379.3 255.7 L 375.5 255 L 379.3 254.3 Z" fill="#d4af6a" opacity="0.65"/>
  <rect x="46" y="268" width="668" height="143.0" rx="14" fill="#1d1740" fill-opacity="0.5" stroke="#d4af6a" stroke-opacity="0.22" stroke-width="0.9"/>
  <rect x="46" y="268" width="3.5" height="143.0" rx="1.8" fill="#d4af6a" fill-opacity="0.6"/>
  <path d="M 47.75 277.6 L 48.3 280.5 L 51.1 281 L 48.3 281.5 L 47.75 284.4 L 47.2 281.5 L 44.4 281 L 47.2 280.5 Z" fill="#f6e6bf" opacity="0.7"/>
  <text x="380" y="297.0" text-anchor="middle" font-family="Georgia, 'Times New Roman', serif" font-size="21" font-weight="700" letter-spacing="0.3" fill="#f3effb">Florian Wirtz</text>
  <path d="M 70 326.8 L 70.5 329.5 L 73.2 330 L 70.5 330.5 L 70 333.2 L 69.5 330.5 L 66.8 330 L 69.5 329.5 Z" fill="#d4af6a" opacity="0.8"/>
  <text x="84" y="335.0" font-family="Helvetica, Arial, sans-serif" font-size="16" fill="#a59cc0">Taurus Sun (3 May 2003)</text>
  <path d="M 70 355.8 L 70.5 358.5 L 73.2 359 L 70.5 359.5 L 70 362.2 L 69.5 359.5 L 66.8 359 L 69.5 358.5 Z" fill="#d4af6a" opacity="0.8"/>
  <text x="84" y="364.0" font-family="Helvetica, Arial, sans-serif" font-size="16" fill="#a59cc0">Grounded, patient build-up</text>
  <path d="M 70 384.8 L 70.5 387.5 L 73.2 388 L 70.5 388.5 L 70 391.2 L 69.5 388.5 L 66.8 388 L 69.5 387.5 Z" fill="#d4af6a" opacity="0.8"/>
  <text x="84" y="393.0" font-family="Helvetica, Arial, sans-serif" font-size="16" fill="#a59cc0">Jupiter in Cancer sextiles Taurus Sun across group stage</text>
  <path d="M 380 419.5 L 380.7 423.3 L 384.5 424 L 380.7 424.7 L 380 428.5 L 379.3 424.7 L 375.5 424 L 379.3 423.3 Z" fill="#d4af6a" opacity="0.65"/>
  <rect x="46" y="437" width="668" height="143.0" rx="14" fill="#1d1740" fill-opacity="0.5" stroke="#d4af6a" stroke-opacity="0.22" stroke-width="0.9"/>
  <rect x="46" y="437" width="3.5" height="143.0" rx="1.8" fill="#d4af6a" fill-opacity="0.6"/>
  <path d="M 47.75 446.6 L 48.3 449.5 L 51.1 450 L 48.3 450.5 L 47.75 453.4 L 47.2 450.5 L 44.4 450 L 47.2 449.5 Z" fill="#f6e6bf" opacity="0.7"/>
  <text x="380" y="466.0" text-anchor="middle" font-family="Georgia, 'Times New Roman', serif" font-size="21" font-weight="700" letter-spacing="0.3" fill="#f3effb">Joshua Kimmich</text>
  <path d="M 70 495.8 L 70.5 498.5 L 73.2 499 L 70.5 499.5 L 70 502.2 L 69.5 499.5 L 66.8 499 L 69.5 498.5 Z" fill="#d4af6a" opacity="0.8"/>
  <text x="84" y="504.0" font-family="Helvetica, Arial, sans-serif" font-size="16" fill="#a59cc0">Aquarius Sun (8 Feb 1995)</text>
  <path d="M 70 524.8 L 70.5 527.5 L 73.2 528 L 70.5 528.5 L 70 531.2 L 69.5 528.5 L 66.8 528 L 69.5 527.5 Z" fill="#d4af6a" opacity="0.8"/>
  <text x="84" y="533.0" font-family="Helvetica, Arial, sans-serif" font-size="16" fill="#a59cc0">Team-first captain and organiser</text>
  <path d="M 70 553.8 L 70.5 556.5 L 73.2 557 L 70.5 557.5 L 70 560.2 L 69.5 557.5 L 66.8 557 L 69.5 556.5 Z" fill="#d4af6a" opacity="0.8"/>
  <text x="84" y="562.0" font-family="Helvetica, Arial, sans-serif" font-size="16" fill="#a59cc0">Saturn in Aries sextiles Aquarius Sun, disciplined support</text>
  <path d="M 202.22749999999988 585.4 L 202.6 587.6 L 204.8 588 L 202.6 588.4 L 202.22749999999988 590.6 L 201.8 588.4 L 199.6 588 L 201.8 587.6 Z" fill="#d4af6a" opacity="0.5"/>
  <text x="380" y="592" text-anchor="middle" font-family="Georgia, 'Times New Roman', serif" font-style="italic" font-size="11.5" fill="#7b738f">A self-reflection framework — tendencies, not predictions</text>
  <path d="M 557.7725000000002 585.4 L 558.2 587.6 L 560.4 588 L 558.2 588.4 L 557.7725000000002 590.6 L 557.4 588.4 L 555.2 588 L 557.4 587.6 Z" fill="#d4af6a" opacity="0.5"/>
</svg>
