<svg xmlns="http://www.w3.org/2000/svg" viewBox="0 0 760 614" role="img" aria-label="Three Astrological Factors: Founding Chart vs Two Transits">
  <defs>
    <linearGradient id="germanyworldcup2026astrologyteam1en-panel" x1="0" y1="0" x2="0.4" y2="1">
      <stop offset="0" stop-color="#1a1433"/><stop offset="0.55" stop-color="#120e26"/><stop offset="1" stop-color="#09081a"/>
    </linearGradient>
    <radialGradient id="germanyworldcup2026astrologyteam1en-foil" cx="0.42" cy="0.34" r="0.75">
      <stop offset="0" stop-color="#fbf0d2"/><stop offset="0.5" stop-color="#e8c882"/><stop offset="1" stop-color="#b8923f"/>
    </radialGradient>
    <radialGradient id="germanyworldcup2026astrologyteam1en-glow" cx="0.5" cy="0.5" r="0.5">
      <stop offset="0" stop-color="#f6e6bf"/><stop offset="1" stop-color="#f6e6bf" stop-opacity="0"/>
    </radialGradient>
    <radialGradient id="germanyworldcup2026astrologyteam1en-neb1" cx="0.5" cy="0.5" r="0.5">
      <stop offset="0" stop-color="#6f4bb0" stop-opacity="0.28"/><stop offset="1" stop-color="#6f4bb0" stop-opacity="0"/>
    </radialGradient>
    <radialGradient id="germanyworldcup2026astrologyteam1en-neb2" cx="0.5" cy="0.5" r="0.5">
      <stop offset="0" stop-color="#d4af6a" stop-opacity="0.16"/><stop offset="1" stop-color="#d4af6a" stop-opacity="0"/>
    </radialGradient>
    <linearGradient id="germanyworldcup2026astrologyteam1en-rule" x1="0" y1="0" x2="1" y2="0">
      <stop offset="0" stop-color="#d4af6a" stop-opacity="0"/><stop offset="0.5" stop-color="#d4af6a" stop-opacity="0.6"/><stop offset="1" stop-color="#d4af6a" stop-opacity="0"/>
    </linearGradient>
  </defs>
  <rect x="1.5" y="1.5" width="757" height="611" rx="22" fill="url(#germanyworldcup2026astrologyteam1en-panel)"/>
  <ellipse cx="198" cy="147" rx="380" ry="209" fill="url(#germanyworldcup2026astrologyteam1en-neb1)"/>
  <ellipse cx="623" cy="491" rx="334" ry="196" fill="url(#germanyworldcup2026astrologyteam1en-neb2)"/>
  <circle cx="318.3" cy="233.1" r="1.42" fill="#cfc8ea" opacity="0.28"/><circle cx="633.4" cy="110.5" r="1.61" fill="#cfc8ea" opacity="0.49"/><circle cx="593.6" cy="379.3" r="0.95" fill="#cfc8ea" opacity="0.40"/><circle cx="129.8" cy="177.1" r="0.76" fill="#cfc8ea" opacity="0.25"/><circle cx="697.9" cy="76.9" r="1.62" fill="#cfc8ea" opacity="0.37"/><circle cx="744.8" cy="396.8" r="1.36" fill="#cfc8ea" opacity="0.28"/><circle cx="13.9" cy="419.1" r="0.53" fill="#cfc8ea" opacity="0.27"/><circle cx="481.1" cy="533.8" r="1.28" fill="#cfc8ea" opacity="0.36"/><circle cx="34.1" cy="129.1" r="0.96" fill="#cfc8ea" opacity="0.17"/><circle cx="602.4" cy="220.3" r="0.56" fill="#cfc8ea" opacity="0.16"/><circle cx="546.7" cy="124.8" r="0.99" fill="#cfc8ea" opacity="0.25"/><circle cx="552.2" cy="437.1" r="0.78" fill="#cfc8ea" opacity="0.13"/><circle cx="44.7" cy="462.5" r="1.47" fill="#cfc8ea" opacity="0.33"/><circle cx="524.9" cy="186.1" r="0.53" fill="#cfc8ea" opacity="0.43"/><circle cx="466.9" cy="89.2" r="0.44" fill="#cfc8ea" opacity="0.21"/><circle cx="296.6" cy="565.4" r="1.32" fill="#cfc8ea" opacity="0.38"/><circle cx="541.1" cy="165.2" r="0.48" fill="#cfc8ea" opacity="0.20"/><circle cx="353.9" cy="377.5" r="0.78" fill="#cfc8ea" opacity="0.45"/><circle cx="19.3" cy="593.5" r="0.85" fill="#cfc8ea" opacity="0.36"/><circle cx="208.0" cy="160.9" r="0.75" fill="#cfc8ea" opacity="0.52"/><circle cx="240.9" cy="334.2" r="1.43" fill="#cfc8ea" opacity="0.14"/><circle cx="429.4" cy="402.7" r="1.58" fill="#cfc8ea" opacity="0.53"/><circle cx="255.0" cy="379.7" r="1.54" fill="#cfc8ea" opacity="0.36"/><circle cx="300.8" cy="329.7" r="1.01" fill="#cfc8ea" opacity="0.53"/><circle cx="703.5" cy="380.3" r="1.38" fill="#cfc8ea" opacity="0.45"/><circle cx="74.1" cy="316.9" r="1.06" fill="#cfc8ea" opacity="0.39"/><circle cx="489.1" cy="224.0" r="0.97" fill="#cfc8ea" opacity="0.51"/><circle cx="353.8" cy="146.4" r="0.88" fill="#cfc8ea" opacity="0.13"/><circle cx="382.7" cy="188.7" r="1.38" fill="#cfc8ea" opacity="0.42"/><circle cx="588.1" cy="476.7" r="1.43" fill="#cfc8ea" opacity="0.21"/><circle cx="231.9" cy="332.1" r="1.51" fill="#cfc8ea" opacity="0.27"/><circle cx="416.4" cy="508.1" r="0.67" fill="#cfc8ea" opacity="0.33"/><circle cx="564.6" cy="180.8" r="1.53" fill="#cfc8ea" opacity="0.36"/><circle cx="72.1" cy="296.9" r="1.28" fill="#cfc8ea" opacity="0.23"/><circle cx="592.0" cy="193.5" r="0.88" fill="#cfc8ea" opacity="0.26"/><circle cx="24.5" cy="148.3" r="1.49" fill="#cfc8ea" opacity="0.40"/><circle cx="249.3" cy="319.2" r="1.49" fill="#cfc8ea" opacity="0.26"/><circle cx="696.1" cy="161.8" r="0.87" fill="#cfc8ea" opacity="0.20"/><circle cx="333.1" cy="242.3" r="0.79" fill="#cfc8ea" opacity="0.14"/><circle cx="645.5" cy="229.5" r="1.15" fill="#cfc8ea" opacity="0.52"/><circle cx="641.6" cy="424.5" r="1.63" fill="#cfc8ea" opacity="0.46"/><circle cx="643.1" cy="266.2" r="0.73" fill="#cfc8ea" opacity="0.30"/><circle cx="349.0" cy="94.6" r="1.49" fill="#cfc8ea" opacity="0.19"/><circle cx="600.8" cy="450.7" r="1.32" fill="#cfc8ea" opacity="0.32"/><circle cx="355.9" cy="190.0" r="1.21" fill="#cfc8ea" opacity="0.53"/><circle cx="545.1" cy="343.0" r="1.67" fill="#cfc8ea" opacity="0.38"/><circle cx="330.9" cy="85.5" r="1.65" fill="#cfc8ea" opacity="0.31"/><circle cx="599.5" cy="432.4" r="1.28" fill="#cfc8ea" opacity="0.43"/><circle cx="161.6" cy="380.5" r="1.38" fill="#cfc8ea" opacity="0.18"/><circle cx="690.0" cy="247.6" r="1.27" fill="#cfc8ea" opacity="0.18"/><circle cx="288.5" cy="582.4" r="1.61" fill="#cfc8ea" opacity="0.28"/><circle cx="669.6" cy="232.1" r="1.33" fill="#cfc8ea" opacity="0.43"/><path d="M 214.93994675017893 351.2 L 215.4 353.8 L 218.0 354.2678433107212 L 215.4 354.8 L 214.93994675017893 357.3 L 214.5 354.8 L 211.9 354.2678433107212 L 214.5 353.8 Z" fill="#f6e6bf" opacity="0.6089338379912078"/><path d="M 422.47323584742844 38.7 L 423.0 41.5 L 425.8 41.97701247688383 L 423.0 42.5 L 422.47323584742844 45.3 L 421.9 42.5 L 419.2 41.97701247688383 L 421.9 41.5 Z" fill="#f6e6bf" opacity="0.6231951335445046"/><path d="M 138.5067684892565 41.4 L 139.1 44.5 L 142.3 45.13291133288294 L 139.1 45.7 L 138.5067684892565 48.9 L 137.9 45.7 L 134.8 45.13291133288294 L 137.9 44.5 Z" fill="#f6e6bf" opacity="0.5906054125167429"/><path d="M 610.7513047922403 419.6 L 611.2 422.0 L 613.6 422.4828815115616 L 611.2 422.9 L 610.7513047922403 425.3 L 610.3 422.9 L 607.9 422.4828815115616 L 610.3 422.0 Z" fill="#f6e6bf" opacity="0.6429603435099125"/><path d="M 590.1523155663162 267.0 L 590.7 270.1 L 593.9 270.7175095798448 L 590.7 271.3 L 590.1523155663162 274.4 L 589.6 271.3 L 586.4 270.7175095798448 L 589.6 270.1 Z" fill="#f6e6bf" opacity="0.7327278210781515"/><path d="M 489.1 224.0 L 72.1 296.9 L 545.1 343.0" fill="none" stroke="#d4af6a" stroke-width="0.6" opacity="0.12"/>
  <rect x="1.5" y="1.5" width="757" height="611" rx="22" fill="none" stroke="#d4af6a" stroke-opacity="0.34" stroke-width="1.2"/>
  <rect x="7" y="7" width="746" height="600" rx="17" fill="none" stroke="#d4af6a" stroke-opacity="0.12" stroke-width="0.8"/>
  <path d="M 16 12.8 L 16.5 15.5 L 19.2 16 L 16.5 16.5 L 16 19.2 L 15.5 16.5 L 12.8 16 L 15.5 15.5 Z" fill="#d4af6a" opacity="0.4"/><path d="M 744 12.8 L 744.5 15.5 L 747.2 16 L 744.5 16.5 L 744 19.2 L 743.5 16.5 L 740.8 16 L 743.5 15.5 Z" fill="#d4af6a" opacity="0.4"/><path d="M 16 594.8 L 16.5 597.5 L 19.2 598 L 16.5 598.5 L 16 601.2 L 15.5 598.5 L 12.8 598 L 15.5 597.5 Z" fill="#d4af6a" opacity="0.4"/><path d="M 744 594.8 L 744.5 597.5 L 747.2 598 L 744.5 598.5 L 744 601.2 L 743.5 598.5 L 740.8 598 L 743.5 597.5 Z" fill="#d4af6a" opacity="0.4"/>
  <text x="380" y="46" text-anchor="middle" font-family="Georgia, 'Times New Roman', serif" font-size="22" letter-spacing="0.4" fill="#efeaf8">Three Astrological Factors: Founding Chart vs Two Transits</text>
  <line x1="230" y1="67" x2="368" y2="67" stroke="url(#germanyworldcup2026astrologyteam1en-rule)" stroke-width="1"/>
  <line x1="392" y1="67" x2="530" y2="67" stroke="url(#germanyworldcup2026astrologyteam1en-rule)" stroke-width="1"/>
  <path d="M 380 62.0 L 380.8 66.2 L 385.0 67 L 380.8 67.8 L 380 72.0 L 379.2 67.8 L 375.0 67 L 379.2 66.2 Z" fill="#d4af6a" opacity="0.85"/>

  <rect x="46" y="99" width="668" height="143.0" rx="14" fill="#1d1740" fill-opacity="0.5" stroke="#d4af6a" stroke-opacity="0.22" stroke-width="0.9"/>
  <rect x="46" y="99" width="3.5" height="143.0" rx="1.8" fill="#d4af6a" fill-opacity="0.6"/>
  <path d="M 47.75 108.6 L 48.3 111.5 L 51.1 112 L 48.3 112.5 L 47.75 115.4 L 47.2 112.5 L 44.4 112 L 47.2 111.5 Z" fill="#f6e6bf" opacity="0.7"/>
  <text x="380" y="128.0" text-anchor="middle" font-family="Georgia, 'Times New Roman', serif" font-size="21" font-weight="700" letter-spacing="0.3" fill="#f3effb">Founding Chart</text>
  <path d="M 70 157.8 L 70.5 160.5 L 73.2 161 L 70.5 161.5 L 70 164.2 L 69.5 161.5 L 66.8 161 L 69.5 160.5 Z" fill="#d4af6a" opacity="0.8"/>
  <text x="84" y="166.0" font-family="Helvetica, Arial, sans-serif" font-size="16" fill="#a59cc0">Aquarius Sun, 28 Jan 1900</text>
  <path d="M 70 186.8 L 70.5 189.5 L 73.2 190 L 70.5 190.5 L 70 193.2 L 69.5 190.5 L 66.8 190 L 69.5 189.5 Z" fill="#d4af6a" opacity="0.8"/>
  <text x="84" y="195.0" font-family="Helvetica, Arial, sans-serif" font-size="16" fill="#a59cc0">Collective identity via system</text>
  <path d="M 70 215.8 L 70.5 218.5 L 73.2 219 L 70.5 219.5 L 70 222.2 L 69.5 219.5 L 66.8 219 L 69.5 218.5 Z" fill="#d4af6a" opacity="0.8"/>
  <text x="84" y="224.0" font-family="Helvetica, Arial, sans-serif" font-size="16" fill="#a59cc0">Innovation over individual stars</text>
  <path d="M 380 250.5 L 380.7 254.3 L 384.5 255 L 380.7 255.7 L 380 259.5 L 379.3 255.7 L 375.5 255 L 379.3 254.3 Z" fill="#d4af6a" opacity="0.65"/>
  <rect x="46" y="268" width="668" height="143.0" rx="14" fill="#1d1740" fill-opacity="0.5" stroke="#d4af6a" stroke-opacity="0.22" stroke-width="0.9"/>
  <rect x="46" y="268" width="3.5" height="143.0" rx="1.8" fill="#d4af6a" fill-opacity="0.6"/>
  <path d="M 47.75 277.6 L 48.3 280.5 L 51.1 281 L 48.3 281.5 L 47.75 284.4 L 47.2 281.5 L 44.4 281 L 47.2 280.5 Z" fill="#f6e6bf" opacity="0.7"/>
  <text x="380" y="297.0" text-anchor="middle" font-family="Georgia, 'Times New Roman', serif" font-size="21" font-weight="700" letter-spacing="0.3" fill="#f3effb">Saturn in Aries (2025–28)</text>
  <path d="M 70 326.8 L 70.5 329.5 L 73.2 330 L 70.5 330.5 L 70 333.2 L 69.5 330.5 L 66.8 330 L 69.5 329.5 Z" fill="#d4af6a" opacity="0.8"/>
  <text x="84" y="335.0" font-family="Helvetica, Arial, sans-serif" font-size="16" fill="#a59cc0">Sextile to Aquarius Sun</text>
  <path d="M 70 355.8 L 70.5 358.5 L 73.2 359 L 70.5 359.5 L 70 362.2 L 69.5 359.5 L 66.8 359 L 69.5 358.5 Z" fill="#d4af6a" opacity="0.8"/>
  <text x="84" y="364.0" font-family="Helvetica, Arial, sans-serif" font-size="16" fill="#a59cc0">Supportive structural aspect</text>
  <path d="M 70 384.8 L 70.5 387.5 L 73.2 388 L 70.5 388.5 L 70 391.2 L 69.5 388.5 L 66.8 388 L 69.5 387.5 Z" fill="#d4af6a" opacity="0.8"/>
  <text x="84" y="393.0" font-family="Helvetica, Arial, sans-serif" font-size="16" fill="#a59cc0">Disciplined rebuilding season</text>
  <path d="M 380 419.5 L 380.7 423.3 L 384.5 424 L 380.7 424.7 L 380 428.5 L 379.3 424.7 L 375.5 424 L 379.3 423.3 Z" fill="#d4af6a" opacity="0.65"/>
  <rect x="46" y="437" width="668" height="143.0" rx="14" fill="#1d1740" fill-opacity="0.5" stroke="#d4af6a" stroke-opacity="0.22" stroke-width="0.9"/>
  <rect x="46" y="437" width="3.5" height="143.0" rx="1.8" fill="#d4af6a" fill-opacity="0.6"/>
  <path d="M 47.75 446.6 L 48.3 449.5 L 51.1 450 L 48.3 450.5 L 47.75 453.4 L 47.2 450.5 L 44.4 450 L 47.2 449.5 Z" fill="#f6e6bf" opacity="0.7"/>
  <text x="380" y="466.0" text-anchor="middle" font-family="Georgia, 'Times New Roman', serif" font-size="21" font-weight="700" letter-spacing="0.3" fill="#f3effb">Jupiter in Leo (from June 30)</text>
  <path d="M 70 495.8 L 70.5 498.5 L 73.2 499 L 70.5 499.5 L 70 502.2 L 69.5 499.5 L 66.8 499 L 69.5 498.5 Z" fill="#d4af6a" opacity="0.8"/>
  <text x="84" y="504.0" font-family="Helvetica, Arial, sans-serif" font-size="16" fill="#a59cc0">Opposition to Aquarius Sun</text>
  <path d="M 70 524.8 L 70.5 527.5 L 73.2 528 L 70.5 528.5 L 70 531.2 L 69.5 528.5 L 66.8 528 L 69.5 527.5 Z" fill="#d4af6a" opacity="0.8"/>
  <text x="84" y="533.0" font-family="Helvetica, Arial, sans-serif" font-size="16" fill="#a59cc0">Maximum visibility arrives</text>
  <path d="M 70 553.8 L 70.5 556.5 L 73.2 557 L 70.5 557.5 L 70 560.2 L 69.5 557.5 L 66.8 557 L 69.5 556.5 Z" fill="#d4af6a" opacity="0.8"/>
  <text x="84" y="562.0" font-family="Helvetica, Arial, sans-serif" font-size="16" fill="#a59cc0">Expansion meets its opposite</text>
  <path d="M 202.22749999999988 585.4 L 202.6 587.6 L 204.8 588 L 202.6 588.4 L 202.22749999999988 590.6 L 201.8 588.4 L 199.6 588 L 201.8 587.6 Z" fill="#d4af6a" opacity="0.5"/>
  <text x="380" y="592" text-anchor="middle" font-family="Georgia, 'Times New Roman', serif" font-style="italic" font-size="11.5" fill="#7b738f">A self-reflection framework — tendencies, not predictions</text>
  <path d="M 557.7725000000002 585.4 L 558.2 587.6 L 560.4 588 L 558.2 588.4 L 557.7725000000002 590.6 L 557.4 588.4 L 555.2 588 L 557.4 587.6 Z" fill="#d4af6a" opacity="0.5"/>
</svg>
