<svg xmlns="http://www.w3.org/2000/svg" viewBox="0 0 760 505" role="img" aria-label="5 Steps to Read Any Squad's Sun-Sign Signature">
  <defs>
    <linearGradient id="germanyworldcupplayersbirthchart20260en-panel" x1="0" y1="0" x2="0.4" y2="1">
      <stop offset="0" stop-color="#1a1433"/><stop offset="0.55" stop-color="#120e26"/><stop offset="1" stop-color="#09081a"/>
    </linearGradient>
    <radialGradient id="germanyworldcupplayersbirthchart20260en-foil" cx="0.42" cy="0.34" r="0.75">
      <stop offset="0" stop-color="#fbf0d2"/><stop offset="0.5" stop-color="#e8c882"/><stop offset="1" stop-color="#b8923f"/>
    </radialGradient>
    <radialGradient id="germanyworldcupplayersbirthchart20260en-glow" cx="0.5" cy="0.5" r="0.5">
      <stop offset="0" stop-color="#f6e6bf"/><stop offset="1" stop-color="#f6e6bf" stop-opacity="0"/>
    </radialGradient>
    <radialGradient id="germanyworldcupplayersbirthchart20260en-neb1" cx="0.5" cy="0.5" r="0.5">
      <stop offset="0" stop-color="#6f4bb0" stop-opacity="0.28"/><stop offset="1" stop-color="#6f4bb0" stop-opacity="0"/>
    </radialGradient>
    <radialGradient id="germanyworldcupplayersbirthchart20260en-neb2" cx="0.5" cy="0.5" r="0.5">
      <stop offset="0" stop-color="#d4af6a" stop-opacity="0.16"/><stop offset="1" stop-color="#d4af6a" stop-opacity="0"/>
    </radialGradient>
    <linearGradient id="germanyworldcupplayersbirthchart20260en-rule" x1="0" y1="0" x2="1" y2="0">
      <stop offset="0" stop-color="#d4af6a" stop-opacity="0"/><stop offset="0.5" stop-color="#d4af6a" stop-opacity="0.6"/><stop offset="1" stop-color="#d4af6a" stop-opacity="0"/>
    </linearGradient>
  </defs>
  <rect x="1.5" y="1.5" width="757" height="502" rx="22" fill="url(#germanyworldcupplayersbirthchart20260en-panel)"/>
  <ellipse cx="198" cy="121" rx="380" ry="172" fill="url(#germanyworldcupplayersbirthchart20260en-neb1)"/>
  <ellipse cx="623" cy="404" rx="334" ry="162" fill="url(#germanyworldcupplayersbirthchart20260en-neb2)"/>
  <circle cx="464.0" cy="95.4" r="0.85" fill="#cfc8ea" opacity="0.30"/><circle cx="338.2" cy="97.2" r="1.51" fill="#cfc8ea" opacity="0.35"/><circle cx="643.2" cy="288.1" r="0.86" fill="#cfc8ea" opacity="0.40"/><circle cx="146.5" cy="201.6" r="1.50" fill="#cfc8ea" opacity="0.16"/><circle cx="685.5" cy="454.0" r="1.13" fill="#cfc8ea" opacity="0.39"/><circle cx="555.2" cy="167.2" r="1.12" fill="#cfc8ea" opacity="0.37"/><circle cx="356.1" cy="432.3" r="1.19" fill="#cfc8ea" opacity="0.17"/><circle cx="661.1" cy="475.1" r="1.51" fill="#cfc8ea" opacity="0.15"/><circle cx="264.6" cy="449.9" r="0.43" fill="#cfc8ea" opacity="0.51"/><circle cx="216.7" cy="231.9" r="0.89" fill="#cfc8ea" opacity="0.17"/><circle cx="99.1" cy="341.5" r="0.43" fill="#cfc8ea" opacity="0.42"/><circle cx="299.8" cy="432.8" r="1.15" fill="#cfc8ea" opacity="0.25"/><circle cx="386.4" cy="163.3" r="0.40" fill="#cfc8ea" opacity="0.53"/><circle cx="86.5" cy="280.8" r="0.70" fill="#cfc8ea" opacity="0.46"/><circle cx="649.4" cy="45.9" r="0.73" fill="#cfc8ea" opacity="0.40"/><circle cx="370.1" cy="352.7" r="0.54" fill="#cfc8ea" opacity="0.25"/><circle cx="613.5" cy="454.8" r="1.03" fill="#cfc8ea" opacity="0.52"/><circle cx="398.9" cy="124.4" r="1.48" fill="#cfc8ea" opacity="0.46"/><circle cx="588.9" cy="468.0" r="0.94" fill="#cfc8ea" opacity="0.41"/><circle cx="454.5" cy="475.0" r="1.26" fill="#cfc8ea" opacity="0.26"/><circle cx="92.4" cy="29.8" r="1.13" fill="#cfc8ea" opacity="0.54"/><circle cx="511.4" cy="390.5" r="1.08" fill="#cfc8ea" opacity="0.47"/><circle cx="462.7" cy="444.2" r="1.67" fill="#cfc8ea" opacity="0.29"/><circle cx="369.2" cy="319.5" r="1.33" fill="#cfc8ea" opacity="0.54"/><circle cx="666.2" cy="286.2" r="1.27" fill="#cfc8ea" opacity="0.50"/><circle cx="724.3" cy="58.9" r="1.65" fill="#cfc8ea" opacity="0.47"/><circle cx="318.1" cy="268.6" r="1.13" fill="#cfc8ea" opacity="0.13"/><circle cx="250.9" cy="120.3" r="1.60" fill="#cfc8ea" opacity="0.45"/><circle cx="589.6" cy="305.4" r="1.59" fill="#cfc8ea" opacity="0.19"/><circle cx="71.9" cy="400.6" r="0.95" fill="#cfc8ea" opacity="0.14"/><circle cx="18.0" cy="195.7" r="1.62" fill="#cfc8ea" opacity="0.19"/><circle cx="389.4" cy="358.3" r="0.44" fill="#cfc8ea" opacity="0.22"/><circle cx="110.8" cy="62.5" r="0.50" fill="#cfc8ea" opacity="0.26"/><circle cx="260.1" cy="300.2" r="1.34" fill="#cfc8ea" opacity="0.28"/><circle cx="133.8" cy="250.6" r="1.49" fill="#cfc8ea" opacity="0.34"/><circle cx="406.5" cy="299.7" r="1.03" fill="#cfc8ea" opacity="0.46"/><circle cx="621.2" cy="228.2" r="1.62" fill="#cfc8ea" opacity="0.24"/><circle cx="353.2" cy="282.8" r="1.60" fill="#cfc8ea" opacity="0.21"/><circle cx="667.5" cy="122.6" r="1.14" fill="#cfc8ea" opacity="0.37"/><circle cx="506.0" cy="419.1" r="1.06" fill="#cfc8ea" opacity="0.44"/><circle cx="607.3" cy="44.1" r="0.55" fill="#cfc8ea" opacity="0.22"/><circle cx="115.2" cy="463.4" r="0.69" fill="#cfc8ea" opacity="0.53"/><circle cx="191.9" cy="442.1" r="1.05" fill="#cfc8ea" opacity="0.34"/><path d="M 342.91027141176164 232.8 L 343.5 235.8 L 346.5 236.36792996246368 L 343.5 236.9 L 342.91027141176164 240.0 L 342.3 236.9 L 339.3 236.36792996246368 L 342.3 235.8 Z" fill="#f6e6bf" opacity="0.6483107239473611"/><path d="M 692.0665987413377 424.6 L 692.5 427.1 L 695.0 427.5271624084562 L 692.5 428.0 L 692.0665987413377 430.4 L 691.6 428.0 L 689.2 427.5271624084562 L 691.6 427.1 Z" fill="#f6e6bf" opacity="0.6495759680401534"/><path d="M 37.89442568086088 213.8 L 38.5 217.0 L 41.7 217.61866682674736 L 38.5 218.2 L 37.89442568086088 221.4 L 37.3 218.2 L 34.1 217.61866682674736 L 37.3 217.0 Z" fill="#f6e6bf" opacity="0.7189092262182385"/><path d="M 624.1015674006194 110.8 L 624.7 113.9 L 627.8 114.46812514215708 L 624.7 115.1 L 624.1015674006194 118.2 L 623.5 115.1 L 620.4 114.46812514215708 L 623.5 113.9 Z" fill="#f6e6bf" opacity="0.6530878183897585"/><path d="M 190.05413374863565 380.1 L 190.7 383.5 L 194.0 384.0913476059213 L 190.7 384.7 L 190.05413374863565 388.1 L 189.4 384.7 L 186.1 384.0913476059213 L 189.4 383.5 Z" fill="#f6e6bf" opacity="0.5193507191259414"/>
  <rect x="1.5" y="1.5" width="757" height="502" rx="22" fill="none" stroke="#d4af6a" stroke-opacity="0.34" stroke-width="1.2"/>
  <rect x="7" y="7" width="746" height="491" rx="17" fill="none" stroke="#d4af6a" stroke-opacity="0.12" stroke-width="0.8"/>
  <path d="M 16 12.8 L 16.5 15.5 L 19.2 16 L 16.5 16.5 L 16 19.2 L 15.5 16.5 L 12.8 16 L 15.5 15.5 Z" fill="#d4af6a" opacity="0.4"/><path d="M 744 12.8 L 744.5 15.5 L 747.2 16 L 744.5 16.5 L 744 19.2 L 743.5 16.5 L 740.8 16 L 743.5 15.5 Z" fill="#d4af6a" opacity="0.4"/><path d="M 16 485.8 L 16.5 488.5 L 19.2 489 L 16.5 489.5 L 16 492.2 L 15.5 489.5 L 12.8 489 L 15.5 488.5 Z" fill="#d4af6a" opacity="0.4"/><path d="M 744 485.8 L 744.5 488.5 L 747.2 489 L 744.5 489.5 L 744 492.2 L 743.5 489.5 L 740.8 489 L 743.5 488.5 Z" fill="#d4af6a" opacity="0.4"/>
  <text x="380" y="46" text-anchor="middle" font-family="Georgia, 'Times New Roman', serif" font-size="22" letter-spacing="0.4" fill="#efeaf8">5 Steps to Read Any Squad's Sun-Sign Signature</text>
  <line x1="230" y1="67" x2="368" y2="67" stroke="url(#germanyworldcupplayersbirthchart20260en-rule)" stroke-width="1"/>
  <line x1="392" y1="67" x2="530" y2="67" stroke="url(#germanyworldcupplayersbirthchart20260en-rule)" stroke-width="1"/>
  <path d="M 380 62.0 L 380.8 66.2 L 385.0 67 L 380.8 67.8 L 380 72.0 L 379.2 67.8 L 375.0 67 L 379.2 66.2 Z" fill="#d4af6a" opacity="0.85"/>
  <line x1="76" y1="121" x2="76" y2="415" stroke="#d4af6a" stroke-opacity="0.28" stroke-width="1.5"/>
  <circle cx="76" cy="121" r="20.0" fill="url(#germanyworldcupplayersbirthchart20260en-glow)" opacity="0.5"/>
    <circle cx="76" cy="121" r="15" fill="url(#germanyworldcupplayersbirthchart20260en-foil)" stroke="#f6e6bf" stroke-opacity="0.5" stroke-width="0.8"/>
    <circle cx="76" cy="116.8" r="9.0" fill="#ffffff" opacity="0.10"/>
    <text x="76" y="125.5" text-anchor="middle" font-family="Georgia, 'Times New Roman', serif" font-size="13" font-weight="700" fill="#3a2c12">1</text>
  <text x="116" y="117.0" font-family="Georgia, 'Times New Roman', serif" font-size="22" letter-spacing="0.3" fill="#f3effb">Step 1: Identify Sun Signs</text>
  <text x="116" y="139.0" font-family="Helvetica, Arial, sans-serif" font-size="15.5" fill="#a59cc0">Verify each player's birth date; stay at Sun level when birth times are not</text>
  <text x="116" y="157.0" font-family="Helvetica, Arial, sans-serif" font-size="15.5" fill="#a59cc0">public</text>
  <circle cx="76" cy="199" r="20.0" fill="url(#germanyworldcupplayersbirthchart20260en-glow)" opacity="0.5"/>
    <circle cx="76" cy="199" r="15" fill="url(#germanyworldcupplayersbirthchart20260en-foil)" stroke="#f6e6bf" stroke-opacity="0.5" stroke-width="0.8"/>
    <circle cx="76" cy="194.8" r="9.0" fill="#ffffff" opacity="0.10"/>
    <text x="76" y="203.5" text-anchor="middle" font-family="Georgia, 'Times New Roman', serif" font-size="13" font-weight="700" fill="#3a2c12">2</text>
  <text x="116" y="195.0" font-family="Georgia, 'Times New Roman', serif" font-size="22" letter-spacing="0.3" fill="#f3effb">Step 2: Translate to Archetype</text>
  <text x="116" y="217.0" font-family="Helvetica, Arial, sans-serif" font-size="15.5" fill="#a59cc0">Pisces = improvisation, Taurus = patience, Aquarius = organisation —</text>
  <text x="116" y="235.0" font-family="Helvetica, Arial, sans-serif" font-size="15.5" fill="#a59cc0">temperament, not destiny</text>
  <circle cx="76" cy="277" r="20.0" fill="url(#germanyworldcupplayersbirthchart20260en-glow)" opacity="0.5"/>
    <circle cx="76" cy="277" r="15" fill="url(#germanyworldcupplayersbirthchart20260en-foil)" stroke="#f6e6bf" stroke-opacity="0.5" stroke-width="0.8"/>
    <circle cx="76" cy="272.8" r="9.0" fill="#ffffff" opacity="0.10"/>
    <text x="76" y="281.5" text-anchor="middle" font-family="Georgia, 'Times New Roman', serif" font-size="13" font-weight="700" fill="#3a2c12">3</text>
  <text x="116" y="273.0" font-family="Georgia, 'Times New Roman', serif" font-size="22" letter-spacing="0.3" fill="#f3effb">Step 3: Note Transit Context</text>
  <text x="116" y="295.0" font-family="Helvetica, Arial, sans-serif" font-size="15.5" fill="#a59cc0">Record the simple 2026 transit per player without over-reading it as a result</text>
  <circle cx="76" cy="337" r="20.0" fill="url(#germanyworldcupplayersbirthchart20260en-glow)" opacity="0.5"/>
    <circle cx="76" cy="337" r="15" fill="url(#germanyworldcupplayersbirthchart20260en-foil)" stroke="#f6e6bf" stroke-opacity="0.5" stroke-width="0.8"/>
    <circle cx="76" cy="332.8" r="9.0" fill="#ffffff" opacity="0.10"/>
    <text x="76" y="341.5" text-anchor="middle" font-family="Georgia, 'Times New Roman', serif" font-size="13" font-weight="700" fill="#3a2c12">4</text>
  <text x="116" y="333.0" font-family="Georgia, 'Times New Roman', serif" font-size="22" letter-spacing="0.3" fill="#f3effb">Step 4: Find the Collective Thread</text>
  <text x="116" y="355.0" font-family="Helvetica, Arial, sans-serif" font-size="15.5" fill="#a59cc0">Kimmich's Aquarius Sun echoes the DFB founding chart of 28 January 1900, also</text>
  <text x="116" y="373.0" font-family="Helvetica, Arial, sans-serif" font-size="15.5" fill="#a59cc0">Aquarius</text>
  <circle cx="76" cy="415" r="20.0" fill="url(#germanyworldcupplayersbirthchart20260en-glow)" opacity="0.5"/>
    <circle cx="76" cy="415" r="15" fill="url(#germanyworldcupplayersbirthchart20260en-foil)" stroke="#f6e6bf" stroke-opacity="0.5" stroke-width="0.8"/>
    <circle cx="76" cy="410.8" r="9.0" fill="#ffffff" opacity="0.10"/>
    <text x="76" y="419.5" text-anchor="middle" font-family="Georgia, 'Times New Roman', serif" font-size="13" font-weight="700" fill="#3a2c12">5</text>
  <text x="116" y="411.0" font-family="Georgia, 'Times New Roman', serif" font-size="22" letter-spacing="0.3" fill="#f3effb">Step 5: Hold Contrasts as Squad Signature</text>
  <text x="116" y="433.0" font-family="Helvetica, Arial, sans-serif" font-size="15.5" fill="#a59cc0">Read three temperaments together as one collective style, not a ranking of</text>
  <text x="116" y="451.0" font-family="Helvetica, Arial, sans-serif" font-size="15.5" fill="#a59cc0">players</text>
  <path d="M 202.22749999999988 476.4 L 202.6 478.6 L 204.8 479 L 202.6 479.4 L 202.22749999999988 481.6 L 201.8 479.4 L 199.6 479 L 201.8 478.6 Z" fill="#d4af6a" opacity="0.5"/>
  <text x="380" y="483" text-anchor="middle" font-family="Georgia, 'Times New Roman', serif" font-style="italic" font-size="11.5" fill="#7b738f">A self-reflection framework — tendencies, not predictions</text>
  <path d="M 557.7725000000002 476.4 L 558.2 478.6 L 560.4 479 L 558.2 479.4 L 557.7725000000002 481.6 L 557.4 479.4 L 555.2 479 L 557.4 478.6 Z" fill="#d4af6a" opacity="0.5"/>
</svg>
