<svg xmlns="http://www.w3.org/2000/svg" viewBox="0 0 760 503" role="img" aria-label="Leo Sun vs Cancer Sun: Two Symbolic Vocabularies">
  <defs>
    <linearGradient id="harrykanebirthchart1en-panel" x1="0" y1="0" x2="0.4" y2="1">
      <stop offset="0" stop-color="#1a1433"/><stop offset="0.55" stop-color="#120e26"/><stop offset="1" stop-color="#09081a"/>
    </linearGradient>
    <radialGradient id="harrykanebirthchart1en-foil" cx="0.42" cy="0.34" r="0.75">
      <stop offset="0" stop-color="#fbf0d2"/><stop offset="0.5" stop-color="#e8c882"/><stop offset="1" stop-color="#b8923f"/>
    </radialGradient>
    <radialGradient id="harrykanebirthchart1en-glow" cx="0.5" cy="0.5" r="0.5">
      <stop offset="0" stop-color="#f6e6bf"/><stop offset="1" stop-color="#f6e6bf" stop-opacity="0"/>
    </radialGradient>
    <radialGradient id="harrykanebirthchart1en-neb1" cx="0.5" cy="0.5" r="0.5">
      <stop offset="0" stop-color="#6f4bb0" stop-opacity="0.28"/><stop offset="1" stop-color="#6f4bb0" stop-opacity="0"/>
    </radialGradient>
    <radialGradient id="harrykanebirthchart1en-neb2" cx="0.5" cy="0.5" r="0.5">
      <stop offset="0" stop-color="#d4af6a" stop-opacity="0.16"/><stop offset="1" stop-color="#d4af6a" stop-opacity="0"/>
    </radialGradient>
    <linearGradient id="harrykanebirthchart1en-rule" x1="0" y1="0" x2="1" y2="0">
      <stop offset="0" stop-color="#d4af6a" stop-opacity="0"/><stop offset="0.5" stop-color="#d4af6a" stop-opacity="0.6"/><stop offset="1" stop-color="#d4af6a" stop-opacity="0"/>
    </linearGradient>
  </defs>
  <rect x="1.5" y="1.5" width="757" height="500" rx="22" fill="url(#harrykanebirthchart1en-panel)"/>
  <ellipse cx="198" cy="121" rx="380" ry="171" fill="url(#harrykanebirthchart1en-neb1)"/>
  <ellipse cx="623" cy="402" rx="334" ry="161" fill="url(#harrykanebirthchart1en-neb2)"/>
  <circle cx="208.7" cy="218.5" r="1.61" fill="#cfc8ea" opacity="0.42"/><circle cx="347.2" cy="472.5" r="0.78" fill="#cfc8ea" opacity="0.34"/><circle cx="32.8" cy="97.9" r="1.40" fill="#cfc8ea" opacity="0.31"/><circle cx="241.5" cy="441.2" r="0.91" fill="#cfc8ea" opacity="0.17"/><circle cx="264.9" cy="186.2" r="0.84" fill="#cfc8ea" opacity="0.31"/><circle cx="57.4" cy="439.4" r="1.60" fill="#cfc8ea" opacity="0.29"/><circle cx="111.2" cy="474.0" r="1.21" fill="#cfc8ea" opacity="0.40"/><circle cx="461.2" cy="251.6" r="0.83" fill="#cfc8ea" opacity="0.26"/><circle cx="406.2" cy="226.4" r="0.87" fill="#cfc8ea" opacity="0.22"/><circle cx="358.4" cy="131.3" r="1.27" fill="#cfc8ea" opacity="0.34"/><circle cx="583.3" cy="443.1" r="1.34" fill="#cfc8ea" opacity="0.34"/><circle cx="233.0" cy="242.9" r="0.42" fill="#cfc8ea" opacity="0.43"/><circle cx="441.0" cy="167.2" r="1.66" fill="#cfc8ea" opacity="0.32"/><circle cx="467.0" cy="198.0" r="1.32" fill="#cfc8ea" opacity="0.15"/><circle cx="293.1" cy="39.9" r="0.70" fill="#cfc8ea" opacity="0.50"/><circle cx="30.8" cy="443.7" r="1.46" fill="#cfc8ea" opacity="0.52"/><circle cx="647.0" cy="91.0" r="0.64" fill="#cfc8ea" opacity="0.32"/><circle cx="251.3" cy="257.3" r="1.25" fill="#cfc8ea" opacity="0.38"/><circle cx="535.0" cy="292.1" r="1.08" fill="#cfc8ea" opacity="0.20"/><circle cx="546.2" cy="430.0" r="0.94" fill="#cfc8ea" opacity="0.41"/><circle cx="135.1" cy="127.0" r="1.06" fill="#cfc8ea" opacity="0.42"/><circle cx="124.1" cy="195.1" r="1.13" fill="#cfc8ea" opacity="0.38"/><circle cx="409.5" cy="432.7" r="0.81" fill="#cfc8ea" opacity="0.27"/><circle cx="280.4" cy="184.8" r="1.22" fill="#cfc8ea" opacity="0.38"/><circle cx="342.4" cy="293.3" r="0.70" fill="#cfc8ea" opacity="0.36"/><circle cx="336.9" cy="460.5" r="0.59" fill="#cfc8ea" opacity="0.14"/><circle cx="395.7" cy="210.6" r="1.38" fill="#cfc8ea" opacity="0.33"/><circle cx="15.5" cy="16.3" r="0.61" fill="#cfc8ea" opacity="0.29"/><circle cx="741.1" cy="339.2" r="0.74" fill="#cfc8ea" opacity="0.14"/><circle cx="512.3" cy="313.8" r="1.65" fill="#cfc8ea" opacity="0.17"/><circle cx="215.4" cy="123.7" r="1.17" fill="#cfc8ea" opacity="0.41"/><circle cx="378.5" cy="228.9" r="0.56" fill="#cfc8ea" opacity="0.12"/><circle cx="527.5" cy="130.9" r="0.62" fill="#cfc8ea" opacity="0.28"/><circle cx="440.1" cy="292.4" r="1.09" fill="#cfc8ea" opacity="0.48"/><circle cx="61.0" cy="179.2" r="1.50" fill="#cfc8ea" opacity="0.44"/><circle cx="236.8" cy="406.3" r="1.14" fill="#cfc8ea" opacity="0.45"/><circle cx="369.9" cy="291.3" r="1.26" fill="#cfc8ea" opacity="0.18"/><circle cx="398.8" cy="429.9" r="1.40" fill="#cfc8ea" opacity="0.35"/><circle cx="461.7" cy="303.5" r="1.45" fill="#cfc8ea" opacity="0.42"/><circle cx="168.5" cy="198.3" r="0.77" fill="#cfc8ea" opacity="0.28"/><circle cx="683.3" cy="46.5" r="1.34" fill="#cfc8ea" opacity="0.52"/><circle cx="188.1" cy="253.4" r="0.49" fill="#cfc8ea" opacity="0.28"/><path d="M 658.2405332420021 368.5 L 658.7 370.8 L 660.9 371.1974735124968 L 658.7 371.6 L 658.2405332420021 373.9 L 657.8 371.6 L 655.5 371.1974735124968 L 657.8 370.8 Z" fill="#f6e6bf" opacity="0.6044176674447954"/><path d="M 716.6367607433349 464.9 L 717.2 467.6 L 719.9 468.1429220815189 L 717.2 468.7 L 716.6367607433349 471.4 L 716.1 468.7 L 713.4 468.1429220815189 L 716.1 467.6 Z" fill="#f6e6bf" opacity="0.6992344794794917"/><path d="M 119.80307584442198 137.7 L 120.3 140.5 L 123.1 141.0216687466018 L 120.3 141.6 L 119.80307584442198 144.4 L 119.3 141.6 L 116.5 141.0216687466018 L 119.3 140.5 Z" fill="#f6e6bf" opacity="0.7239204172976315"/><path d="M 24.305829482153058 475.8 L 24.8 478.5 L 27.5 479.00168392667547 L 24.8 479.5 L 24.305829482153058 482.2 L 23.8 479.5 L 21.1 479.00168392667547 L 23.8 478.5 Z" fill="#f6e6bf" opacity="0.7615605171769857"/><path d="M 721.3699114117771 485.8 L 721.9 488.3 L 724.4 488.771747214254 L 721.9 489.3 L 721.3699114117771 491.8 L 720.9 489.3 L 718.4 488.771747214254 L 720.9 488.3 Z" fill="#f6e6bf" opacity="0.6496278616599739"/><path d="M 406.2 226.4 L 293.1 39.9 L 647.0 91.0 L 251.3 257.3 L 215.4 123.7" fill="none" stroke="#d4af6a" stroke-width="0.6" opacity="0.12"/>
  <rect x="1.5" y="1.5" width="757" height="500" rx="22" fill="none" stroke="#d4af6a" stroke-opacity="0.34" stroke-width="1.2"/>
  <rect x="7" y="7" width="746" height="489" rx="17" fill="none" stroke="#d4af6a" stroke-opacity="0.12" stroke-width="0.8"/>
  <path d="M 16 12.8 L 16.5 15.5 L 19.2 16 L 16.5 16.5 L 16 19.2 L 15.5 16.5 L 12.8 16 L 15.5 15.5 Z" fill="#d4af6a" opacity="0.4"/><path d="M 744 12.8 L 744.5 15.5 L 747.2 16 L 744.5 16.5 L 744 19.2 L 743.5 16.5 L 740.8 16 L 743.5 15.5 Z" fill="#d4af6a" opacity="0.4"/><path d="M 16 483.8 L 16.5 486.5 L 19.2 487 L 16.5 487.5 L 16 490.2 L 15.5 487.5 L 12.8 487 L 15.5 486.5 Z" fill="#d4af6a" opacity="0.4"/><path d="M 744 483.8 L 744.5 486.5 L 747.2 487 L 744.5 487.5 L 744 490.2 L 743.5 487.5 L 740.8 487 L 743.5 486.5 Z" fill="#d4af6a" opacity="0.4"/>
  <text x="380" y="46" text-anchor="middle" font-family="Georgia, 'Times New Roman', serif" font-size="22" letter-spacing="0.4" fill="#efeaf8">Leo Sun vs Cancer Sun: Two Symbolic Vocabularies</text>
  <line x1="230" y1="67" x2="368" y2="67" stroke="url(#harrykanebirthchart1en-rule)" stroke-width="1"/>
  <line x1="392" y1="67" x2="530" y2="67" stroke="url(#harrykanebirthchart1en-rule)" stroke-width="1"/>
  <path d="M 380 62.0 L 380.8 66.2 L 385.0 67 L 380.8 67.8 L 380 72.0 L 379.2 67.8 L 375.0 67 L 379.2 66.2 Z" fill="#d4af6a" opacity="0.85"/>

  <rect x="46" y="99" width="668" height="172.0" rx="14" fill="#1d1740" fill-opacity="0.5" stroke="#d4af6a" stroke-opacity="0.22" stroke-width="0.9"/>
  <rect x="46" y="99" width="3.5" height="172.0" rx="1.8" fill="#d4af6a" fill-opacity="0.6"/>
  <path d="M 47.75 108.6 L 48.3 111.5 L 51.1 112 L 48.3 112.5 L 47.75 115.4 L 47.2 112.5 L 44.4 112 L 47.2 111.5 Z" fill="#f6e6bf" opacity="0.7"/>
  <text x="380" y="128.0" text-anchor="middle" font-family="Georgia, 'Times New Roman', serif" font-size="21" font-weight="700" letter-spacing="0.3" fill="#f3effb">Leo Sun (Kane)</text>
  <path d="M 70 157.8 L 70.5 160.5 L 73.2 161 L 70.5 161.5 L 70 164.2 L 69.5 161.5 L 66.8 161 L 69.5 160.5 Z" fill="#d4af6a" opacity="0.8"/>
  <text x="84" y="166.0" font-family="Helvetica, Arial, sans-serif" font-size="16" fill="#a59cc0">Outward and expressive, energised by being seen</text>
  <path d="M 70 186.8 L 70.5 189.5 L 73.2 190 L 70.5 190.5 L 70 193.2 L 69.5 190.5 L 66.8 190 L 69.5 189.5 Z" fill="#d4af6a" opacity="0.8"/>
  <text x="84" y="195.0" font-family="Helvetica, Arial, sans-serif" font-size="16" fill="#a59cc0">Carries the captain's spotlight and the team's gaze</text>
  <path d="M 70 215.8 L 70.5 218.5 L 73.2 219 L 70.5 219.5 L 70 222.2 L 69.5 219.5 L 66.8 219 L 69.5 218.5 Z" fill="#d4af6a" opacity="0.8"/>
  <text x="84" y="224.0" font-family="Helvetica, Arial, sans-serif" font-size="16" fill="#a59cc0">Jupiter enters Leo around 30 June 2026, lighting the July knockouts</text>
  <path d="M 70 244.8 L 70.5 247.5 L 73.2 248 L 70.5 248.5 L 70 251.2 L 69.5 248.5 L 66.8 248 L 69.5 247.5 Z" fill="#d4af6a" opacity="0.8"/>
  <text x="84" y="253.0" font-family="Helvetica, Arial, sans-serif" font-size="16" fill="#a59cc0">His season arrives late</text>
  <path d="M 380 279.5 L 380.7 283.3 L 384.5 284 L 380.7 284.7 L 380 288.5 L 379.3 284.7 L 375.5 284 L 379.3 283.3 Z" fill="#d4af6a" opacity="0.65"/>
  <rect x="46" y="297" width="668" height="172.0" rx="14" fill="#1d1740" fill-opacity="0.5" stroke="#d4af6a" stroke-opacity="0.22" stroke-width="0.9"/>
  <rect x="46" y="297" width="3.5" height="172.0" rx="1.8" fill="#d4af6a" fill-opacity="0.6"/>
  <path d="M 47.75 306.6 L 48.3 309.5 L 51.1 310 L 48.3 310.5 L 47.75 313.4 L 47.2 310.5 L 44.4 310 L 47.2 309.5 Z" fill="#f6e6bf" opacity="0.7"/>
  <text x="380" y="326.0" text-anchor="middle" font-family="Georgia, 'Times New Roman', serif" font-size="21" font-weight="700" letter-spacing="0.3" fill="#f3effb">Cancer Sun (a neighbouring lens)</text>
  <path d="M 70 355.8 L 70.5 358.5 L 73.2 359 L 70.5 359.5 L 70 362.2 L 69.5 359.5 L 66.8 359 L 69.5 358.5 Z" fill="#d4af6a" opacity="0.8"/>
  <text x="84" y="364.0" font-family="Helvetica, Arial, sans-serif" font-size="16" fill="#a59cc0">Protective and heart-led, strength from home and belonging</text>
  <path d="M 70 384.8 L 70.5 387.5 L 73.2 388 L 70.5 388.5 L 70 391.2 L 69.5 388.5 L 66.8 388 L 69.5 387.5 Z" fill="#d4af6a" opacity="0.8"/>
  <text x="84" y="393.0" font-family="Helvetica, Arial, sans-serif" font-size="16" fill="#a59cc0">Foregrounds a quieter, defensive intelligence</text>
  <path d="M 70 413.8 L 70.5 416.5 L 73.2 417 L 70.5 417.5 L 70 420.2 L 69.5 417.5 L 66.8 417 L 69.5 416.5 Z" fill="#d4af6a" opacity="0.8"/>
  <text x="84" y="422.0" font-family="Helvetica, Arial, sans-serif" font-size="16" fill="#a59cc0">Jupiter transits Cancer until around 30 June 2026, the group-stage weeks</text>
  <path d="M 70 442.8 L 70.5 445.5 L 73.2 446 L 70.5 446.5 L 70 449.2 L 69.5 446.5 L 66.8 446 L 69.5 445.5 Z" fill="#d4af6a" opacity="0.8"/>
  <text x="84" y="451.0" font-family="Helvetica, Arial, sans-serif" font-size="16" fill="#a59cc0">Backdrop of Jupiter in its own sign for those weeks only</text>
  <path d="M 202.22749999999988 474.4 L 202.6 476.6 L 204.8 477 L 202.6 477.4 L 202.22749999999988 479.6 L 201.8 477.4 L 199.6 477 L 201.8 476.6 Z" fill="#d4af6a" opacity="0.5"/>
  <text x="380" y="481" text-anchor="middle" font-family="Georgia, 'Times New Roman', serif" font-style="italic" font-size="11.5" fill="#7b738f">A self-reflection framework — tendencies, not predictions</text>
  <path d="M 557.7725000000002 474.4 L 558.2 476.6 L 560.4 477 L 558.2 477.4 L 557.7725000000002 479.6 L 557.4 477.4 L 555.2 477 L 557.4 476.6 Z" fill="#d4af6a" opacity="0.5"/>
</svg>
