<svg xmlns="http://www.w3.org/2000/svg" viewBox="0 0 760 433" role="img" aria-label="How to Read the Kane Birth Chart">
  <defs>
    <linearGradient id="harrykanebirthchart0en-panel" x1="0" y1="0" x2="0.4" y2="1">
      <stop offset="0" stop-color="#1a1433"/><stop offset="0.55" stop-color="#120e26"/><stop offset="1" stop-color="#09081a"/>
    </linearGradient>
    <radialGradient id="harrykanebirthchart0en-foil" cx="0.42" cy="0.34" r="0.75">
      <stop offset="0" stop-color="#fbf0d2"/><stop offset="0.5" stop-color="#e8c882"/><stop offset="1" stop-color="#b8923f"/>
    </radialGradient>
    <radialGradient id="harrykanebirthchart0en-glow" cx="0.5" cy="0.5" r="0.5">
      <stop offset="0" stop-color="#f6e6bf"/><stop offset="1" stop-color="#f6e6bf" stop-opacity="0"/>
    </radialGradient>
    <radialGradient id="harrykanebirthchart0en-neb1" cx="0.5" cy="0.5" r="0.5">
      <stop offset="0" stop-color="#6f4bb0" stop-opacity="0.28"/><stop offset="1" stop-color="#6f4bb0" stop-opacity="0"/>
    </radialGradient>
    <radialGradient id="harrykanebirthchart0en-neb2" cx="0.5" cy="0.5" r="0.5">
      <stop offset="0" stop-color="#d4af6a" stop-opacity="0.16"/><stop offset="1" stop-color="#d4af6a" stop-opacity="0"/>
    </radialGradient>
    <linearGradient id="harrykanebirthchart0en-rule" x1="0" y1="0" x2="1" y2="0">
      <stop offset="0" stop-color="#d4af6a" stop-opacity="0"/><stop offset="0.5" stop-color="#d4af6a" stop-opacity="0.6"/><stop offset="1" stop-color="#d4af6a" stop-opacity="0"/>
    </linearGradient>
  </defs>
  <rect x="1.5" y="1.5" width="757" height="430" rx="22" fill="url(#harrykanebirthchart0en-panel)"/>
  <ellipse cx="198" cy="104" rx="380" ry="147" fill="url(#harrykanebirthchart0en-neb1)"/>
  <ellipse cx="623" cy="346" rx="334" ry="139" fill="url(#harrykanebirthchart0en-neb2)"/>
  <circle cx="668.5" cy="45.3" r="0.97" fill="#cfc8ea" opacity="0.39"/><circle cx="531.2" cy="150.7" r="0.47" fill="#cfc8ea" opacity="0.30"/><circle cx="628.2" cy="92.5" r="1.31" fill="#cfc8ea" opacity="0.41"/><circle cx="295.3" cy="372.1" r="0.82" fill="#cfc8ea" opacity="0.21"/><circle cx="322.0" cy="37.9" r="1.45" fill="#cfc8ea" opacity="0.25"/><circle cx="596.7" cy="95.8" r="1.47" fill="#cfc8ea" opacity="0.22"/><circle cx="385.5" cy="272.0" r="1.31" fill="#cfc8ea" opacity="0.54"/><circle cx="610.0" cy="289.5" r="0.48" fill="#cfc8ea" opacity="0.42"/><circle cx="432.3" cy="313.0" r="1.58" fill="#cfc8ea" opacity="0.13"/><circle cx="570.6" cy="408.7" r="1.53" fill="#cfc8ea" opacity="0.18"/><circle cx="714.2" cy="276.7" r="0.66" fill="#cfc8ea" opacity="0.33"/><circle cx="633.2" cy="216.0" r="1.33" fill="#cfc8ea" opacity="0.24"/><circle cx="417.3" cy="404.9" r="0.90" fill="#cfc8ea" opacity="0.26"/><circle cx="315.1" cy="186.3" r="1.35" fill="#cfc8ea" opacity="0.31"/><circle cx="520.5" cy="268.7" r="1.39" fill="#cfc8ea" opacity="0.27"/><circle cx="639.3" cy="309.7" r="0.53" fill="#cfc8ea" opacity="0.27"/><circle cx="511.3" cy="243.9" r="1.12" fill="#cfc8ea" opacity="0.35"/><circle cx="541.1" cy="25.7" r="0.97" fill="#cfc8ea" opacity="0.26"/><circle cx="222.1" cy="299.8" r="1.45" fill="#cfc8ea" opacity="0.13"/><circle cx="389.9" cy="181.8" r="0.50" fill="#cfc8ea" opacity="0.30"/><circle cx="257.0" cy="239.1" r="1.70" fill="#cfc8ea" opacity="0.17"/><circle cx="264.6" cy="201.3" r="1.26" fill="#cfc8ea" opacity="0.18"/><circle cx="453.3" cy="195.9" r="1.28" fill="#cfc8ea" opacity="0.20"/><circle cx="217.2" cy="271.5" r="0.52" fill="#cfc8ea" opacity="0.54"/><circle cx="393.1" cy="333.2" r="0.41" fill="#cfc8ea" opacity="0.31"/><circle cx="244.3" cy="125.9" r="0.67" fill="#cfc8ea" opacity="0.19"/><circle cx="560.6" cy="180.0" r="1.25" fill="#cfc8ea" opacity="0.52"/><circle cx="320.5" cy="327.7" r="0.70" fill="#cfc8ea" opacity="0.54"/><circle cx="422.1" cy="361.3" r="1.61" fill="#cfc8ea" opacity="0.18"/><circle cx="588.8" cy="72.3" r="1.43" fill="#cfc8ea" opacity="0.32"/><circle cx="305.0" cy="322.9" r="0.70" fill="#cfc8ea" opacity="0.34"/><circle cx="172.0" cy="116.5" r="1.18" fill="#cfc8ea" opacity="0.21"/><circle cx="516.2" cy="58.7" r="1.57" fill="#cfc8ea" opacity="0.34"/><circle cx="43.9" cy="101.6" r="1.16" fill="#cfc8ea" opacity="0.31"/><circle cx="273.3" cy="285.4" r="0.55" fill="#cfc8ea" opacity="0.23"/><circle cx="115.0" cy="213.5" r="1.49" fill="#cfc8ea" opacity="0.44"/><circle cx="415.1" cy="27.3" r="1.10" fill="#cfc8ea" opacity="0.18"/><path d="M 238.64014907740057 239.7 L 239.0 241.7 L 241.1 242.09096220415086 L 239.0 242.5 L 238.64014907740057 244.5 L 238.3 242.5 L 236.2 242.09096220415086 L 238.3 241.7 Z" fill="#f6e6bf" opacity="0.5828568863216788"/><path d="M 572.9806282948703 207.2 L 573.4 209.5 L 575.7 209.91875175014138 L 573.4 210.4 L 572.9806282948703 212.7 L 572.5 210.4 L 570.2 209.91875175014138 L 572.5 209.5 Z" fill="#f6e6bf" opacity="0.7267336369957775"/><path d="M 690.4696464594454 229.6 L 690.9 231.7 L 693.0 232.14946286845952 L 690.9 232.5 L 690.4696464594454 234.6 L 690.1 232.5 L 688.0 232.14946286845952 L 690.1 231.7 Z" fill="#f6e6bf" opacity="0.5099213541019708"/><path d="M 46.9569254796952 110.3 L 47.6 113.6 L 50.9 114.27175470255315 L 47.6 114.9 L 46.9569254796952 118.2 L 46.3 114.9 L 43.0 114.27175470255315 L 46.3 113.6 Z" fill="#f6e6bf" opacity="0.7645374759566039"/><path d="M 290.1819272544235 218.1 L 290.7 220.6 L 293.2 221.12893498595804 L 290.7 221.6 L 290.1819272544235 224.1 L 289.7 221.6 L 287.2 221.12893498595804 L 289.7 220.6 Z" fill="#f6e6bf" opacity="0.7053803338203579"/><path d="M 264.6 201.3 L 320.5 327.7 L 516.2 58.7" fill="none" stroke="#d4af6a" stroke-width="0.6" opacity="0.12"/>
  <rect x="1.5" y="1.5" width="757" height="430" rx="22" fill="none" stroke="#d4af6a" stroke-opacity="0.34" stroke-width="1.2"/>
  <rect x="7" y="7" width="746" height="419" rx="17" fill="none" stroke="#d4af6a" stroke-opacity="0.12" stroke-width="0.8"/>
  <path d="M 16 12.8 L 16.5 15.5 L 19.2 16 L 16.5 16.5 L 16 19.2 L 15.5 16.5 L 12.8 16 L 15.5 15.5 Z" fill="#d4af6a" opacity="0.4"/><path d="M 744 12.8 L 744.5 15.5 L 747.2 16 L 744.5 16.5 L 744 19.2 L 743.5 16.5 L 740.8 16 L 743.5 15.5 Z" fill="#d4af6a" opacity="0.4"/><path d="M 16 413.8 L 16.5 416.5 L 19.2 417 L 16.5 417.5 L 16 420.2 L 15.5 417.5 L 12.8 417 L 15.5 416.5 Z" fill="#d4af6a" opacity="0.4"/><path d="M 744 413.8 L 744.5 416.5 L 747.2 417 L 744.5 417.5 L 744 420.2 L 743.5 417.5 L 740.8 417 L 743.5 416.5 Z" fill="#d4af6a" opacity="0.4"/>
  <text x="380" y="46" text-anchor="middle" font-family="Georgia, 'Times New Roman', serif" font-size="22" letter-spacing="0.4" fill="#efeaf8">How to Read the Kane Birth Chart</text>
  <line x1="230" y1="67" x2="368" y2="67" stroke="url(#harrykanebirthchart0en-rule)" stroke-width="1"/>
  <line x1="392" y1="67" x2="530" y2="67" stroke="url(#harrykanebirthchart0en-rule)" stroke-width="1"/>
  <path d="M 380 62.0 L 380.8 66.2 L 385.0 67 L 380.8 67.8 L 380 72.0 L 379.2 67.8 L 375.0 67 L 379.2 66.2 Z" fill="#d4af6a" opacity="0.85"/>
  <line x1="76" y1="121" x2="76" y2="361" stroke="#d4af6a" stroke-opacity="0.28" stroke-width="1.5"/>
  <circle cx="76" cy="121" r="20.0" fill="url(#harrykanebirthchart0en-glow)" opacity="0.5"/>
    <circle cx="76" cy="121" r="15" fill="url(#harrykanebirthchart0en-foil)" stroke="#f6e6bf" stroke-opacity="0.5" stroke-width="0.8"/>
    <circle cx="76" cy="116.8" r="9.0" fill="#ffffff" opacity="0.10"/>
    <text x="76" y="125.5" text-anchor="middle" font-family="Georgia, 'Times New Roman', serif" font-size="13" font-weight="700" fill="#3a2c12">1</text>
  <text x="116" y="117.0" font-family="Georgia, 'Times New Roman', serif" font-size="22" letter-spacing="0.3" fill="#f3effb">Anchor on verified facts</text>
  <text x="116" y="139.0" font-family="Helvetica, Arial, sans-serif" font-size="15.5" fill="#a59cc0">Birth date 28 July 1993, Sun near 5 degrees Leo</text>
  <circle cx="76" cy="181" r="20.0" fill="url(#harrykanebirthchart0en-glow)" opacity="0.5"/>
    <circle cx="76" cy="181" r="15" fill="url(#harrykanebirthchart0en-foil)" stroke="#f6e6bf" stroke-opacity="0.5" stroke-width="0.8"/>
    <circle cx="76" cy="176.8" r="9.0" fill="#ffffff" opacity="0.10"/>
    <text x="76" y="185.5" text-anchor="middle" font-family="Georgia, 'Times New Roman', serif" font-size="13" font-weight="700" fill="#3a2c12">2</text>
  <text x="116" y="177.0" font-family="Georgia, 'Times New Roman', serif" font-size="22" letter-spacing="0.3" fill="#f3effb">Note what is missing</text>
  <text x="116" y="199.0" font-family="Helvetica, Arial, sans-serif" font-size="15.5" fill="#a59cc0">No verified birth time, so Moon, Ascendant and houses are unknown</text>
  <circle cx="76" cy="241" r="20.0" fill="url(#harrykanebirthchart0en-glow)" opacity="0.5"/>
    <circle cx="76" cy="241" r="15" fill="url(#harrykanebirthchart0en-foil)" stroke="#f6e6bf" stroke-opacity="0.5" stroke-width="0.8"/>
    <circle cx="76" cy="236.8" r="9.0" fill="#ffffff" opacity="0.10"/>
    <text x="76" y="245.5" text-anchor="middle" font-family="Georgia, 'Times New Roman', serif" font-size="13" font-weight="700" fill="#3a2c12">3</text>
  <text x="116" y="237.0" font-family="Georgia, 'Times New Roman', serif" font-size="22" letter-spacing="0.3" fill="#f3effb">Read the Leo Sun symbolically</text>
  <text x="116" y="259.0" font-family="Helvetica, Arial, sans-serif" font-size="15.5" fill="#a59cc0">The leader-striker archetype who performs under the spotlight</text>
  <circle cx="76" cy="301" r="20.0" fill="url(#harrykanebirthchart0en-glow)" opacity="0.5"/>
    <circle cx="76" cy="301" r="15" fill="url(#harrykanebirthchart0en-foil)" stroke="#f6e6bf" stroke-opacity="0.5" stroke-width="0.8"/>
    <circle cx="76" cy="296.8" r="9.0" fill="#ffffff" opacity="0.10"/>
    <text x="76" y="305.5" text-anchor="middle" font-family="Georgia, 'Times New Roman', serif" font-size="13" font-weight="700" fill="#3a2c12">4</text>
  <text x="116" y="297.0" font-family="Georgia, 'Times New Roman', serif" font-size="22" letter-spacing="0.3" fill="#f3effb">Map the Jupiter ingress</text>
  <text x="116" y="319.0" font-family="Helvetica, Arial, sans-serif" font-size="15.5" fill="#a59cc0">Cancer until around 30 June 2026, then Leo through 2027</text>
  <circle cx="76" cy="361" r="20.0" fill="url(#harrykanebirthchart0en-glow)" opacity="0.5"/>
    <circle cx="76" cy="361" r="15" fill="url(#harrykanebirthchart0en-foil)" stroke="#f6e6bf" stroke-opacity="0.5" stroke-width="0.8"/>
    <circle cx="76" cy="356.8" r="9.0" fill="#ffffff" opacity="0.10"/>
    <text x="76" y="365.5" text-anchor="middle" font-family="Georgia, 'Times New Roman', serif" font-size="13" font-weight="700" fill="#3a2c12">5</text>
  <text x="116" y="357.0" font-family="Georgia, 'Times New Roman', serif" font-size="22" letter-spacing="0.3" fill="#f3effb">Hold it as a symbolic season</text>
  <text x="116" y="379.0" font-family="Helvetica, Arial, sans-serif" font-size="15.5" fill="#a59cc0">Leadership and visibility, never a forecast; results stay open</text>
  <path d="M 202.22749999999988 404.4 L 202.6 406.6 L 204.8 407 L 202.6 407.4 L 202.22749999999988 409.6 L 201.8 407.4 L 199.6 407 L 201.8 406.6 Z" fill="#d4af6a" opacity="0.5"/>
  <text x="380" y="411" text-anchor="middle" font-family="Georgia, 'Times New Roman', serif" font-style="italic" font-size="11.5" fill="#7b738f">A self-reflection framework — tendencies, not predictions</text>
  <path d="M 557.7725000000002 404.4 L 558.2 406.6 L 560.4 407 L 558.2 407.4 L 557.7725000000002 409.6 L 557.4 407.4 L 555.2 407 L 557.4 406.6 Z" fill="#d4af6a" opacity="0.5"/>
</svg>
