<svg xmlns="http://www.w3.org/2000/svg" viewBox="0 0 760 614" role="img" aria-label="Three Ways to Read the Same Chart">
  <defs>
    <linearGradient id="jamesrodriguezbirthchart0en-panel" x1="0" y1="0" x2="0.4" y2="1">
      <stop offset="0" stop-color="#1a1433"/><stop offset="0.55" stop-color="#120e26"/><stop offset="1" stop-color="#09081a"/>
    </linearGradient>
    <radialGradient id="jamesrodriguezbirthchart0en-foil" cx="0.42" cy="0.34" r="0.75">
      <stop offset="0" stop-color="#fbf0d2"/><stop offset="0.5" stop-color="#e8c882"/><stop offset="1" stop-color="#b8923f"/>
    </radialGradient>
    <radialGradient id="jamesrodriguezbirthchart0en-glow" cx="0.5" cy="0.5" r="0.5">
      <stop offset="0" stop-color="#f6e6bf"/><stop offset="1" stop-color="#f6e6bf" stop-opacity="0"/>
    </radialGradient>
    <radialGradient id="jamesrodriguezbirthchart0en-neb1" cx="0.5" cy="0.5" r="0.5">
      <stop offset="0" stop-color="#6f4bb0" stop-opacity="0.28"/><stop offset="1" stop-color="#6f4bb0" stop-opacity="0"/>
    </radialGradient>
    <radialGradient id="jamesrodriguezbirthchart0en-neb2" cx="0.5" cy="0.5" r="0.5">
      <stop offset="0" stop-color="#d4af6a" stop-opacity="0.16"/><stop offset="1" stop-color="#d4af6a" stop-opacity="0"/>
    </radialGradient>
    <linearGradient id="jamesrodriguezbirthchart0en-rule" x1="0" y1="0" x2="1" y2="0">
      <stop offset="0" stop-color="#d4af6a" stop-opacity="0"/><stop offset="0.5" stop-color="#d4af6a" stop-opacity="0.6"/><stop offset="1" stop-color="#d4af6a" stop-opacity="0"/>
    </linearGradient>
  </defs>
  <rect x="1.5" y="1.5" width="757" height="611" rx="22" fill="url(#jamesrodriguezbirthchart0en-panel)"/>
  <ellipse cx="198" cy="147" rx="380" ry="209" fill="url(#jamesrodriguezbirthchart0en-neb1)"/>
  <ellipse cx="623" cy="491" rx="334" ry="196" fill="url(#jamesrodriguezbirthchart0en-neb2)"/>
  <circle cx="514.6" cy="460.4" r="1.39" fill="#cfc8ea" opacity="0.24"/><circle cx="692.6" cy="531.8" r="1.61" fill="#cfc8ea" opacity="0.27"/><circle cx="30.2" cy="509.2" r="1.03" fill="#cfc8ea" opacity="0.33"/><circle cx="103.1" cy="529.9" r="0.58" fill="#cfc8ea" opacity="0.28"/><circle cx="497.2" cy="261.1" r="0.94" fill="#cfc8ea" opacity="0.22"/><circle cx="525.7" cy="599.6" r="1.12" fill="#cfc8ea" opacity="0.14"/><circle cx="205.2" cy="114.6" r="1.06" fill="#cfc8ea" opacity="0.15"/><circle cx="114.2" cy="159.5" r="0.74" fill="#cfc8ea" opacity="0.45"/><circle cx="148.2" cy="107.7" r="1.27" fill="#cfc8ea" opacity="0.46"/><circle cx="736.6" cy="459.0" r="1.36" fill="#cfc8ea" opacity="0.31"/><circle cx="88.9" cy="593.2" r="1.39" fill="#cfc8ea" opacity="0.45"/><circle cx="507.6" cy="316.2" r="0.59" fill="#cfc8ea" opacity="0.35"/><circle cx="635.9" cy="307.2" r="1.56" fill="#cfc8ea" opacity="0.52"/><circle cx="298.1" cy="117.9" r="1.08" fill="#cfc8ea" opacity="0.53"/><circle cx="529.0" cy="425.9" r="0.67" fill="#cfc8ea" opacity="0.14"/><circle cx="536.9" cy="151.2" r="0.46" fill="#cfc8ea" opacity="0.48"/><circle cx="40.6" cy="237.8" r="1.07" fill="#cfc8ea" opacity="0.23"/><circle cx="655.7" cy="521.9" r="1.00" fill="#cfc8ea" opacity="0.45"/><circle cx="598.8" cy="149.1" r="1.49" fill="#cfc8ea" opacity="0.29"/><circle cx="293.2" cy="364.8" r="0.68" fill="#cfc8ea" opacity="0.34"/><circle cx="502.1" cy="22.5" r="1.30" fill="#cfc8ea" opacity="0.18"/><circle cx="22.1" cy="273.6" r="0.65" fill="#cfc8ea" opacity="0.28"/><circle cx="303.0" cy="75.7" r="1.61" fill="#cfc8ea" opacity="0.38"/><circle cx="722.7" cy="420.4" r="0.51" fill="#cfc8ea" opacity="0.29"/><circle cx="736.7" cy="484.1" r="1.04" fill="#cfc8ea" opacity="0.37"/><circle cx="443.1" cy="72.8" r="1.20" fill="#cfc8ea" opacity="0.52"/><circle cx="182.0" cy="209.4" r="0.57" fill="#cfc8ea" opacity="0.41"/><circle cx="45.0" cy="439.5" r="0.53" fill="#cfc8ea" opacity="0.38"/><circle cx="523.8" cy="99.8" r="1.10" fill="#cfc8ea" opacity="0.39"/><circle cx="460.6" cy="133.1" r="1.42" fill="#cfc8ea" opacity="0.38"/><circle cx="218.5" cy="261.9" r="0.77" fill="#cfc8ea" opacity="0.38"/><circle cx="338.9" cy="191.3" r="0.51" fill="#cfc8ea" opacity="0.34"/><circle cx="521.3" cy="212.3" r="0.43" fill="#cfc8ea" opacity="0.36"/><circle cx="109.5" cy="174.6" r="0.56" fill="#cfc8ea" opacity="0.17"/><circle cx="633.1" cy="186.3" r="0.63" fill="#cfc8ea" opacity="0.42"/><circle cx="707.9" cy="126.5" r="0.51" fill="#cfc8ea" opacity="0.30"/><circle cx="88.8" cy="399.8" r="0.95" fill="#cfc8ea" opacity="0.33"/><circle cx="275.4" cy="525.0" r="1.09" fill="#cfc8ea" opacity="0.25"/><circle cx="718.3" cy="20.6" r="1.13" fill="#cfc8ea" opacity="0.39"/><circle cx="727.3" cy="115.1" r="0.61" fill="#cfc8ea" opacity="0.21"/><circle cx="399.8" cy="277.3" r="0.94" fill="#cfc8ea" opacity="0.52"/><circle cx="701.6" cy="61.9" r="0.87" fill="#cfc8ea" opacity="0.35"/><circle cx="135.4" cy="338.8" r="0.45" fill="#cfc8ea" opacity="0.16"/><circle cx="523.2" cy="540.7" r="1.20" fill="#cfc8ea" opacity="0.37"/><circle cx="432.0" cy="546.9" r="1.33" fill="#cfc8ea" opacity="0.30"/><circle cx="382.0" cy="445.2" r="1.10" fill="#cfc8ea" opacity="0.53"/><circle cx="664.8" cy="39.7" r="1.46" fill="#cfc8ea" opacity="0.28"/><circle cx="207.6" cy="528.4" r="1.02" fill="#cfc8ea" opacity="0.36"/><circle cx="109.2" cy="392.9" r="1.60" fill="#cfc8ea" opacity="0.13"/><circle cx="584.2" cy="276.3" r="0.67" fill="#cfc8ea" opacity="0.33"/><circle cx="691.5" cy="146.3" r="0.94" fill="#cfc8ea" opacity="0.16"/><circle cx="107.6" cy="21.8" r="0.98" fill="#cfc8ea" opacity="0.16"/><path d="M 29.5049499720335 263.9 L 30.0 266.8 L 32.9 267.32400331040844 L 30.0 267.9 L 29.5049499720335 270.7 L 29.0 267.9 L 26.1 267.32400331040844 L 29.0 266.8 Z" fill="#f6e6bf" opacity="0.7192636769963429"/><path d="M 362.46182338148355 496.2 L 362.9 498.5 L 365.2 498.91624617157504 L 362.9 499.4 L 362.46182338148355 501.7 L 362.0 499.4 L 359.7 498.91624617157504 L 362.0 498.5 Z" fill="#f6e6bf" opacity="0.6843044757610187"/><path d="M 206.09657695889473 471.1 L 206.7 474.3 L 209.9 474.9276280901395 L 206.7 475.5 L 206.09657695889473 478.7 L 205.5 475.5 L 202.3 474.9276280901395 L 205.5 474.3 Z" fill="#f6e6bf" opacity="0.5034124019322916"/><path d="M 499.2627549394965 201.8 L 499.7 204.3 L 502.2 204.79061223519966 L 499.7 205.3 L 499.2627549394965 207.8 L 498.8 205.3 L 496.3 204.79061223519966 L 498.8 204.3 Z" fill="#f6e6bf" opacity="0.68556808733847"/><path d="M 237.79116596281528 255.9 L 238.3 258.5 L 240.9 259.01057589938864 L 238.3 259.5 L 237.79116596281528 262.1 L 237.3 259.5 L 234.7 259.01057589938864 L 237.3 258.5 Z" fill="#f6e6bf" opacity="0.5287944459123537"/><path d="M 30.2 509.2 L 114.2 159.5 L 635.9 307.2 L 293.2 364.8 L 502.1 22.5" fill="none" stroke="#d4af6a" stroke-width="0.6" opacity="0.12"/>
  <rect x="1.5" y="1.5" width="757" height="611" rx="22" fill="none" stroke="#d4af6a" stroke-opacity="0.34" stroke-width="1.2"/>
  <rect x="7" y="7" width="746" height="600" rx="17" fill="none" stroke="#d4af6a" stroke-opacity="0.12" stroke-width="0.8"/>
  <path d="M 16 12.8 L 16.5 15.5 L 19.2 16 L 16.5 16.5 L 16 19.2 L 15.5 16.5 L 12.8 16 L 15.5 15.5 Z" fill="#d4af6a" opacity="0.4"/><path d="M 744 12.8 L 744.5 15.5 L 747.2 16 L 744.5 16.5 L 744 19.2 L 743.5 16.5 L 740.8 16 L 743.5 15.5 Z" fill="#d4af6a" opacity="0.4"/><path d="M 16 594.8 L 16.5 597.5 L 19.2 598 L 16.5 598.5 L 16 601.2 L 15.5 598.5 L 12.8 598 L 15.5 597.5 Z" fill="#d4af6a" opacity="0.4"/><path d="M 744 594.8 L 744.5 597.5 L 747.2 598 L 744.5 598.5 L 744 601.2 L 743.5 598.5 L 740.8 598 L 743.5 597.5 Z" fill="#d4af6a" opacity="0.4"/>
  <text x="380" y="46" text-anchor="middle" font-family="Georgia, 'Times New Roman', serif" font-size="22" letter-spacing="0.4" fill="#efeaf8">Three Ways to Read the Same Chart</text>
  <line x1="230" y1="67" x2="368" y2="67" stroke="url(#jamesrodriguezbirthchart0en-rule)" stroke-width="1"/>
  <line x1="392" y1="67" x2="530" y2="67" stroke="url(#jamesrodriguezbirthchart0en-rule)" stroke-width="1"/>
  <path d="M 380 62.0 L 380.8 66.2 L 385.0 67 L 380.8 67.8 L 380 72.0 L 379.2 67.8 L 375.0 67 L 379.2 66.2 Z" fill="#d4af6a" opacity="0.85"/>

  <rect x="46" y="99" width="668" height="143.0" rx="14" fill="#1d1740" fill-opacity="0.5" stroke="#d4af6a" stroke-opacity="0.22" stroke-width="0.9"/>
  <rect x="46" y="99" width="3.5" height="143.0" rx="1.8" fill="#d4af6a" fill-opacity="0.6"/>
  <path d="M 47.75 108.6 L 48.3 111.5 L 51.1 112 L 48.3 112.5 L 47.75 115.4 L 47.2 112.5 L 44.4 112 L 47.2 111.5 Z" fill="#f6e6bf" opacity="0.7"/>
  <text x="380" y="128.0" text-anchor="middle" font-family="Georgia, 'Times New Roman', serif" font-size="21" font-weight="700" letter-spacing="0.3" fill="#f3effb">Sun-anchored reading</text>
  <path d="M 70 157.8 L 70.5 160.5 L 73.2 161 L 70.5 161.5 L 70 164.2 L 69.5 161.5 L 66.8 161 L 69.5 160.5 Z" fill="#d4af6a" opacity="0.8"/>
  <text x="84" y="166.0" font-family="Helvetica, Arial, sans-serif" font-size="16" fill="#a59cc0">Leans on the Cancer Sun, fixed by his verified date</text>
  <path d="M 70 186.8 L 70.5 189.5 L 73.2 190 L 70.5 190.5 L 70 193.2 L 69.5 190.5 L 66.8 190 L 69.5 189.5 Z" fill="#d4af6a" opacity="0.8"/>
  <text x="84" y="195.0" font-family="Helvetica, Arial, sans-serif" font-size="16" fill="#a59cc0">Refuses to invent Moon, Ascendant, or houses</text>
  <path d="M 70 215.8 L 70.5 218.5 L 73.2 219 L 70.5 219.5 L 70 222.2 L 69.5 219.5 L 66.8 219 L 69.5 218.5 Z" fill="#d4af6a" opacity="0.8"/>
  <text x="84" y="224.0" font-family="Helvetica, Arial, sans-serif" font-size="16" fill="#a59cc0">Names a theme of creative devotion, not a scoreline</text>
  <path d="M 380 250.5 L 380.7 254.3 L 384.5 255 L 380.7 255.7 L 380 259.5 L 379.3 255.7 L 375.5 255 L 379.3 254.3 Z" fill="#d4af6a" opacity="0.65"/>
  <rect x="46" y="268" width="668" height="143.0" rx="14" fill="#1d1740" fill-opacity="0.5" stroke="#d4af6a" stroke-opacity="0.22" stroke-width="0.9"/>
  <rect x="46" y="268" width="3.5" height="143.0" rx="1.8" fill="#d4af6a" fill-opacity="0.6"/>
  <path d="M 47.75 277.6 L 48.3 280.5 L 51.1 281 L 48.3 281.5 L 47.75 284.4 L 47.2 281.5 L 44.4 281 L 47.2 280.5 Z" fill="#f6e6bf" opacity="0.7"/>
  <text x="380" y="297.0" text-anchor="middle" font-family="Georgia, 'Times New Roman', serif" font-size="21" font-weight="700" letter-spacing="0.3" fill="#f3effb">Full natal reading</text>
  <path d="M 70 326.8 L 70.5 329.5 L 73.2 330 L 70.5 330.5 L 70 333.2 L 69.5 330.5 L 66.8 330 L 69.5 329.5 Z" fill="#d4af6a" opacity="0.8"/>
  <text x="84" y="335.0" font-family="Helvetica, Arial, sans-serif" font-size="16" fill="#a59cc0">Weighs Sun, Moon, Ascendant, and every house cusp</text>
  <path d="M 70 355.8 L 70.5 358.5 L 73.2 359 L 70.5 359.5 L 70 362.2 L 69.5 359.5 L 66.8 359 L 69.5 358.5 Z" fill="#d4af6a" opacity="0.8"/>
  <text x="84" y="364.0" font-family="Helvetica, Arial, sans-serif" font-size="16" fill="#a59cc0">Needs a recorded birth time, which is not on public record</text>
  <path d="M 70 384.8 L 70.5 387.5 L 73.2 388 L 70.5 388.5 L 70 391.2 L 69.5 388.5 L 66.8 388 L 69.5 387.5 Z" fill="#d4af6a" opacity="0.8"/>
  <text x="84" y="393.0" font-family="Helvetica, Arial, sans-serif" font-size="16" fill="#a59cc0">Trades reliability for breadth</text>
  <path d="M 380 419.5 L 380.7 423.3 L 384.5 424 L 380.7 424.7 L 380 428.5 L 379.3 424.7 L 375.5 424 L 379.3 423.3 Z" fill="#d4af6a" opacity="0.65"/>
  <rect x="46" y="437" width="668" height="143.0" rx="14" fill="#1d1740" fill-opacity="0.5" stroke="#d4af6a" stroke-opacity="0.22" stroke-width="0.9"/>
  <rect x="46" y="437" width="3.5" height="143.0" rx="1.8" fill="#d4af6a" fill-opacity="0.6"/>
  <path d="M 47.75 446.6 L 48.3 449.5 L 51.1 450 L 48.3 450.5 L 47.75 453.4 L 47.2 450.5 L 44.4 450 L 47.2 449.5 Z" fill="#f6e6bf" opacity="0.7"/>
  <text x="380" y="466.0" text-anchor="middle" font-family="Georgia, 'Times New Roman', serif" font-size="21" font-weight="700" letter-spacing="0.3" fill="#f3effb">Tabloid zodiac blurb</text>
  <path d="M 70 495.8 L 70.5 498.5 L 73.2 499 L 70.5 499.5 L 70 502.2 L 69.5 499.5 L 66.8 499 L 69.5 498.5 Z" fill="#d4af6a" opacity="0.8"/>
  <text x="84" y="504.0" font-family="Helvetica, Arial, sans-serif" font-size="16" fill="#a59cc0">Flattens Cancer into a single mood</text>
  <path d="M 70 524.8 L 70.5 527.5 L 73.2 528 L 70.5 528.5 L 70 531.2 L 69.5 528.5 L 66.8 528 L 69.5 527.5 Z" fill="#d4af6a" opacity="0.8"/>
  <text x="84" y="533.0" font-family="Helvetica, Arial, sans-serif" font-size="16" fill="#a59cc0">Treats the Sun as fixed temperament</text>
  <path d="M 70 553.8 L 70.5 556.5 L 73.2 557 L 70.5 557.5 L 70 560.2 L 69.5 557.5 L 66.8 557 L 69.5 556.5 Z" fill="#d4af6a" opacity="0.8"/>
  <text x="84" y="562.0" font-family="Helvetica, Arial, sans-serif" font-size="16" fill="#a59cc0">Trades accuracy for catchiness</text>
  <path d="M 202.22749999999988 585.4 L 202.6 587.6 L 204.8 588 L 202.6 588.4 L 202.22749999999988 590.6 L 201.8 588.4 L 199.6 588 L 201.8 587.6 Z" fill="#d4af6a" opacity="0.5"/>
  <text x="380" y="592" text-anchor="middle" font-family="Georgia, 'Times New Roman', serif" font-style="italic" font-size="11.5" fill="#7b738f">A self-reflection framework — tendencies, not predictions</text>
  <path d="M 557.7725000000002 585.4 L 558.2 587.6 L 560.4 588 L 558.2 588.4 L 557.7725000000002 590.6 L 557.4 588.4 L 555.2 588 L 557.4 587.6 Z" fill="#d4af6a" opacity="0.5"/>
</svg>
