<svg xmlns="http://www.w3.org/2000/svg" viewBox="0 0 760 445" role="img" aria-label="Jupiter Through the 2026 World Cup Window">
  <defs>
    <linearGradient id="jamesrodriguezbirthchart1en-panel" x1="0" y1="0" x2="0.4" y2="1">
      <stop offset="0" stop-color="#1a1433"/><stop offset="0.55" stop-color="#120e26"/><stop offset="1" stop-color="#09081a"/>
    </linearGradient>
    <radialGradient id="jamesrodriguezbirthchart1en-foil" cx="0.42" cy="0.34" r="0.75">
      <stop offset="0" stop-color="#fbf0d2"/><stop offset="0.5" stop-color="#e8c882"/><stop offset="1" stop-color="#b8923f"/>
    </radialGradient>
    <radialGradient id="jamesrodriguezbirthchart1en-glow" cx="0.5" cy="0.5" r="0.5">
      <stop offset="0" stop-color="#f6e6bf"/><stop offset="1" stop-color="#f6e6bf" stop-opacity="0"/>
    </radialGradient>
    <radialGradient id="jamesrodriguezbirthchart1en-neb1" cx="0.5" cy="0.5" r="0.5">
      <stop offset="0" stop-color="#6f4bb0" stop-opacity="0.28"/><stop offset="1" stop-color="#6f4bb0" stop-opacity="0"/>
    </radialGradient>
    <radialGradient id="jamesrodriguezbirthchart1en-neb2" cx="0.5" cy="0.5" r="0.5">
      <stop offset="0" stop-color="#d4af6a" stop-opacity="0.16"/><stop offset="1" stop-color="#d4af6a" stop-opacity="0"/>
    </radialGradient>
    <linearGradient id="jamesrodriguezbirthchart1en-rule" x1="0" y1="0" x2="1" y2="0">
      <stop offset="0" stop-color="#d4af6a" stop-opacity="0"/><stop offset="0.5" stop-color="#d4af6a" stop-opacity="0.6"/><stop offset="1" stop-color="#d4af6a" stop-opacity="0"/>
    </linearGradient>
  </defs>
  <rect x="1.5" y="1.5" width="757" height="442" rx="22" fill="url(#jamesrodriguezbirthchart1en-panel)"/>
  <ellipse cx="198" cy="107" rx="380" ry="151" fill="url(#jamesrodriguezbirthchart1en-neb1)"/>
  <ellipse cx="623" cy="356" rx="334" ry="142" fill="url(#jamesrodriguezbirthchart1en-neb2)"/>
  <circle cx="54.9" cy="58.2" r="0.73" fill="#cfc8ea" opacity="0.27"/><circle cx="508.7" cy="223.9" r="0.62" fill="#cfc8ea" opacity="0.31"/><circle cx="170.8" cy="359.5" r="1.12" fill="#cfc8ea" opacity="0.24"/><circle cx="49.3" cy="388.1" r="0.67" fill="#cfc8ea" opacity="0.24"/><circle cx="440.1" cy="316.2" r="1.63" fill="#cfc8ea" opacity="0.28"/><circle cx="722.3" cy="299.6" r="1.25" fill="#cfc8ea" opacity="0.22"/><circle cx="666.9" cy="223.7" r="0.96" fill="#cfc8ea" opacity="0.43"/><circle cx="701.4" cy="42.2" r="1.09" fill="#cfc8ea" opacity="0.28"/><circle cx="122.1" cy="379.9" r="0.56" fill="#cfc8ea" opacity="0.14"/><circle cx="524.3" cy="27.4" r="1.09" fill="#cfc8ea" opacity="0.47"/><circle cx="694.0" cy="112.2" r="0.76" fill="#cfc8ea" opacity="0.46"/><circle cx="107.5" cy="222.0" r="0.98" fill="#cfc8ea" opacity="0.13"/><circle cx="659.5" cy="375.6" r="1.01" fill="#cfc8ea" opacity="0.15"/><circle cx="450.0" cy="71.7" r="1.05" fill="#cfc8ea" opacity="0.37"/><circle cx="301.6" cy="67.6" r="1.27" fill="#cfc8ea" opacity="0.37"/><circle cx="664.4" cy="184.4" r="1.39" fill="#cfc8ea" opacity="0.31"/><circle cx="176.2" cy="424.9" r="0.59" fill="#cfc8ea" opacity="0.20"/><circle cx="365.9" cy="156.3" r="1.29" fill="#cfc8ea" opacity="0.16"/><circle cx="175.7" cy="59.7" r="1.12" fill="#cfc8ea" opacity="0.36"/><circle cx="449.5" cy="35.4" r="1.11" fill="#cfc8ea" opacity="0.45"/><circle cx="380.1" cy="307.9" r="0.66" fill="#cfc8ea" opacity="0.42"/><circle cx="617.6" cy="164.7" r="0.52" fill="#cfc8ea" opacity="0.48"/><circle cx="259.2" cy="237.9" r="1.14" fill="#cfc8ea" opacity="0.46"/><circle cx="49.9" cy="188.1" r="1.21" fill="#cfc8ea" opacity="0.13"/><circle cx="685.9" cy="265.6" r="1.34" fill="#cfc8ea" opacity="0.43"/><circle cx="535.8" cy="332.4" r="1.12" fill="#cfc8ea" opacity="0.47"/><circle cx="17.1" cy="154.5" r="0.70" fill="#cfc8ea" opacity="0.21"/><circle cx="476.0" cy="416.8" r="0.44" fill="#cfc8ea" opacity="0.13"/><circle cx="106.9" cy="423.7" r="1.53" fill="#cfc8ea" opacity="0.35"/><circle cx="384.1" cy="301.7" r="1.64" fill="#cfc8ea" opacity="0.23"/><circle cx="128.9" cy="389.4" r="1.23" fill="#cfc8ea" opacity="0.44"/><circle cx="545.4" cy="223.1" r="1.19" fill="#cfc8ea" opacity="0.25"/><circle cx="532.6" cy="211.4" r="0.78" fill="#cfc8ea" opacity="0.30"/><circle cx="505.7" cy="282.3" r="0.50" fill="#cfc8ea" opacity="0.35"/><circle cx="420.8" cy="422.9" r="1.58" fill="#cfc8ea" opacity="0.21"/><circle cx="93.6" cy="232.9" r="1.46" fill="#cfc8ea" opacity="0.30"/><circle cx="43.6" cy="97.5" r="1.11" fill="#cfc8ea" opacity="0.33"/><circle cx="437.1" cy="87.2" r="0.78" fill="#cfc8ea" opacity="0.36"/><path d="M 79.25399458222091 182.0 L 79.8 184.8 L 82.6 185.37637766636908 L 79.8 185.9 L 79.25399458222091 188.8 L 78.7 185.9 L 75.9 185.37637766636908 L 78.7 184.8 Z" fill="#f6e6bf" opacity="0.6313801381271332"/><path d="M 732.4404722061008 61.6 L 733.0 64.4 L 735.7 64.89710924681276 L 733.0 65.4 L 732.4404722061008 68.1 L 731.9 65.4 L 729.2 64.89710924681276 L 731.9 64.4 Z" fill="#f6e6bf" opacity="0.6221554102841764"/><path d="M 271.1000832747668 55.4 L 271.6 58.1 L 274.4 58.66162532940507 L 271.6 59.2 L 271.1000832747668 62.0 L 270.6 59.2 L 267.8 58.66162532940507 L 270.6 58.1 Z" fill="#f6e6bf" opacity="0.543567814072594"/><path d="M 468.6693722065538 231.7 L 469.3 234.9 L 472.4 235.46228359732777 L 469.3 236.1 L 468.6693722065538 239.2 L 468.1 236.1 L 464.9 235.46228359732777 L 468.1 234.9 Z" fill="#f6e6bf" opacity="0.5818703011143953"/><path d="M 583.3130023162812 340.2 L 583.8 342.9 L 586.5 343.3830257486552 L 583.8 343.9 L 583.3130023162812 346.6 L 582.8 343.9 L 580.1 343.3830257486552 L 582.8 342.9 Z" fill="#f6e6bf" opacity="0.7842254757415503"/>
  <rect x="1.5" y="1.5" width="757" height="442" rx="22" fill="none" stroke="#d4af6a" stroke-opacity="0.34" stroke-width="1.2"/>
  <rect x="7" y="7" width="746" height="431" rx="17" fill="none" stroke="#d4af6a" stroke-opacity="0.12" stroke-width="0.8"/>
  <path d="M 16 12.8 L 16.5 15.5 L 19.2 16 L 16.5 16.5 L 16 19.2 L 15.5 16.5 L 12.8 16 L 15.5 15.5 Z" fill="#d4af6a" opacity="0.4"/><path d="M 744 12.8 L 744.5 15.5 L 747.2 16 L 744.5 16.5 L 744 19.2 L 743.5 16.5 L 740.8 16 L 743.5 15.5 Z" fill="#d4af6a" opacity="0.4"/><path d="M 16 425.8 L 16.5 428.5 L 19.2 429 L 16.5 429.5 L 16 432.2 L 15.5 429.5 L 12.8 429 L 15.5 428.5 Z" fill="#d4af6a" opacity="0.4"/><path d="M 744 425.8 L 744.5 428.5 L 747.2 429 L 744.5 429.5 L 744 432.2 L 743.5 429.5 L 740.8 429 L 743.5 428.5 Z" fill="#d4af6a" opacity="0.4"/>
  <text x="380" y="46" text-anchor="middle" font-family="Georgia, 'Times New Roman', serif" font-size="22" letter-spacing="0.4" fill="#efeaf8">Jupiter Through the 2026 World Cup Window</text>
  <line x1="230" y1="67" x2="368" y2="67" stroke="url(#jamesrodriguezbirthchart1en-rule)" stroke-width="1"/>
  <line x1="392" y1="67" x2="530" y2="67" stroke="url(#jamesrodriguezbirthchart1en-rule)" stroke-width="1"/>
  <path d="M 380 62.0 L 380.8 66.2 L 385.0 67 L 380.8 67.8 L 380 72.0 L 379.2 67.8 L 375.0 67 L 379.2 66.2 Z" fill="#d4af6a" opacity="0.85"/>
  <line x1="76" y1="121" x2="76" y2="355" stroke="#d4af6a" stroke-opacity="0.28" stroke-width="1.5"/>
  <circle cx="76" cy="121" r="20.0" fill="url(#jamesrodriguezbirthchart1en-glow)" opacity="0.5"/>
    <circle cx="76" cy="121" r="15" fill="url(#jamesrodriguezbirthchart1en-foil)" stroke="#f6e6bf" stroke-opacity="0.5" stroke-width="0.8"/>
    <circle cx="76" cy="116.8" r="9.0" fill="#ffffff" opacity="0.10"/>
    <text x="76" y="125.5" text-anchor="middle" font-family="Georgia, 'Times New Roman', serif" font-size="13" font-weight="700" fill="#3a2c12">1</text>
  <text x="116" y="117.0" font-family="Georgia, 'Times New Roman', serif" font-size="22" letter-spacing="0.3" fill="#f3effb">11 June — group stage opens</text>
  <text x="116" y="139.0" font-family="Helvetica, Arial, sans-serif" font-size="15.5" fill="#a59cc0">Jupiter in Cancer, aligning with Rodriguez's Sun sign; the tournament opens at</text>
  <text x="116" y="157.0" font-family="Helvetica, Arial, sans-serif" font-size="15.5" fill="#a59cc0">the Estadio Azteca in Mexico City under a symbolic resonance with his Cancer S…</text>
  <circle cx="76" cy="199" r="20.0" fill="url(#jamesrodriguezbirthchart1en-glow)" opacity="0.5"/>
    <circle cx="76" cy="199" r="15" fill="url(#jamesrodriguezbirthchart1en-foil)" stroke="#f6e6bf" stroke-opacity="0.5" stroke-width="0.8"/>
    <circle cx="76" cy="194.8" r="9.0" fill="#ffffff" opacity="0.10"/>
    <text x="76" y="203.5" text-anchor="middle" font-family="Georgia, 'Times New Roman', serif" font-size="13" font-weight="700" fill="#3a2c12">2</text>
  <text x="116" y="195.0" font-family="Georgia, 'Times New Roman', serif" font-size="22" letter-spacing="0.3" fill="#f3effb">~30 June — Jupiter enters Leo</text>
  <text x="116" y="217.0" font-family="Helvetica, Arial, sans-serif" font-size="15.5" fill="#a59cc0">Jupiter leaves Cancer and enters Leo as the knockout stage begins; the symbolic</text>
  <text x="116" y="235.0" font-family="Helvetica, Arial, sans-serif" font-size="15.5" fill="#a59cc0">amplification of his Sun sign passes, and the backdrop shifts</text>
  <circle cx="76" cy="277" r="20.0" fill="url(#jamesrodriguezbirthchart1en-glow)" opacity="0.5"/>
    <circle cx="76" cy="277" r="15" fill="url(#jamesrodriguezbirthchart1en-foil)" stroke="#f6e6bf" stroke-opacity="0.5" stroke-width="0.8"/>
    <circle cx="76" cy="272.8" r="9.0" fill="#ffffff" opacity="0.10"/>
    <text x="76" y="281.5" text-anchor="middle" font-family="Georgia, 'Times New Roman', serif" font-size="13" font-weight="700" fill="#3a2c12">3</text>
  <text x="116" y="273.0" font-family="Georgia, 'Times New Roman', serif" font-size="22" letter-spacing="0.3" fill="#f3effb">12 July — his 35th birthday, solar return</text>
  <text x="116" y="295.0" font-family="Helvetica, Arial, sans-serif" font-size="15.5" fill="#a59cc0">Rodriguez's solar return falls under Jupiter in Leo rather than Cancer; the</text>
  <text x="116" y="313.0" font-family="Helvetica, Arial, sans-serif" font-size="15.5" fill="#a59cc0">veteran threshold and a shifted symbolic backdrop coincide</text>
  <circle cx="76" cy="355" r="20.0" fill="url(#jamesrodriguezbirthchart1en-glow)" opacity="0.5"/>
    <circle cx="76" cy="355" r="15" fill="url(#jamesrodriguezbirthchart1en-foil)" stroke="#f6e6bf" stroke-opacity="0.5" stroke-width="0.8"/>
    <circle cx="76" cy="350.8" r="9.0" fill="#ffffff" opacity="0.10"/>
    <text x="76" y="359.5" text-anchor="middle" font-family="Georgia, 'Times New Roman', serif" font-size="13" font-weight="700" fill="#3a2c12">4</text>
  <text x="116" y="351.0" font-family="Georgia, 'Times New Roman', serif" font-size="22" letter-spacing="0.3" fill="#f3effb">19 July — final at MetLife Stadium</text>
  <text x="116" y="373.0" font-family="Helvetica, Arial, sans-serif" font-size="15.5" fill="#a59cc0">The World Cup final in New Jersey closes the tournament window with Jupiter</text>
  <text x="116" y="391.0" font-family="Helvetica, Arial, sans-serif" font-size="15.5" fill="#a59cc0">firmly in Leo; hold all of it as symbolic timing, not a result forecast</text>
  <path d="M 202.22749999999988 416.4 L 202.6 418.6 L 204.8 419 L 202.6 419.4 L 202.22749999999988 421.6 L 201.8 419.4 L 199.6 419 L 201.8 418.6 Z" fill="#d4af6a" opacity="0.5"/>
  <text x="380" y="423" text-anchor="middle" font-family="Georgia, 'Times New Roman', serif" font-style="italic" font-size="11.5" fill="#7b738f">A self-reflection framework — tendencies, not predictions</text>
  <path d="M 557.7725000000002 416.4 L 558.2 418.6 L 560.4 419 L 558.2 419.4 L 557.7725000000002 421.6 L 557.4 419.4 L 555.2 419 L 557.4 418.6 Z" fill="#d4af6a" opacity="0.5"/>
</svg>
