<svg xmlns="http://www.w3.org/2000/svg" viewBox="0 0 760 561" role="img" aria-label="Leo Rising vs Gemini Sun: How Each Placement Actually Works">
  <defs>
    <linearGradient id="jeremydokubirthchart0en-panel" x1="0" y1="0" x2="0.4" y2="1">
      <stop offset="0" stop-color="#1a1433"/><stop offset="0.55" stop-color="#120e26"/><stop offset="1" stop-color="#09081a"/>
    </linearGradient>
    <radialGradient id="jeremydokubirthchart0en-foil" cx="0.42" cy="0.34" r="0.75">
      <stop offset="0" stop-color="#fbf0d2"/><stop offset="0.5" stop-color="#e8c882"/><stop offset="1" stop-color="#b8923f"/>
    </radialGradient>
    <radialGradient id="jeremydokubirthchart0en-glow" cx="0.5" cy="0.5" r="0.5">
      <stop offset="0" stop-color="#f6e6bf"/><stop offset="1" stop-color="#f6e6bf" stop-opacity="0"/>
    </radialGradient>
    <radialGradient id="jeremydokubirthchart0en-neb1" cx="0.5" cy="0.5" r="0.5">
      <stop offset="0" stop-color="#6f4bb0" stop-opacity="0.28"/><stop offset="1" stop-color="#6f4bb0" stop-opacity="0"/>
    </radialGradient>
    <radialGradient id="jeremydokubirthchart0en-neb2" cx="0.5" cy="0.5" r="0.5">
      <stop offset="0" stop-color="#d4af6a" stop-opacity="0.16"/><stop offset="1" stop-color="#d4af6a" stop-opacity="0"/>
    </radialGradient>
    <linearGradient id="jeremydokubirthchart0en-rule" x1="0" y1="0" x2="1" y2="0">
      <stop offset="0" stop-color="#d4af6a" stop-opacity="0"/><stop offset="0.5" stop-color="#d4af6a" stop-opacity="0.6"/><stop offset="1" stop-color="#d4af6a" stop-opacity="0"/>
    </linearGradient>
  </defs>
  <rect x="1.5" y="1.5" width="757" height="558" rx="22" fill="url(#jeremydokubirthchart0en-panel)"/>
  <ellipse cx="198" cy="135" rx="380" ry="191" fill="url(#jeremydokubirthchart0en-neb1)"/>
  <ellipse cx="623" cy="449" rx="334" ry="180" fill="url(#jeremydokubirthchart0en-neb2)"/>
  <circle cx="703.2" cy="184.4" r="0.51" fill="#cfc8ea" opacity="0.35"/><circle cx="640.2" cy="223.0" r="1.03" fill="#cfc8ea" opacity="0.40"/><circle cx="222.9" cy="188.2" r="0.41" fill="#cfc8ea" opacity="0.13"/><circle cx="624.3" cy="192.4" r="1.27" fill="#cfc8ea" opacity="0.40"/><circle cx="211.8" cy="403.6" r="0.97" fill="#cfc8ea" opacity="0.12"/><circle cx="132.9" cy="419.5" r="0.44" fill="#cfc8ea" opacity="0.50"/><circle cx="215.9" cy="33.6" r="1.67" fill="#cfc8ea" opacity="0.16"/><circle cx="446.1" cy="468.0" r="0.86" fill="#cfc8ea" opacity="0.34"/><circle cx="457.2" cy="25.1" r="1.42" fill="#cfc8ea" opacity="0.46"/><circle cx="597.9" cy="262.2" r="1.32" fill="#cfc8ea" opacity="0.41"/><circle cx="741.1" cy="70.3" r="1.38" fill="#cfc8ea" opacity="0.12"/><circle cx="684.9" cy="196.7" r="0.93" fill="#cfc8ea" opacity="0.29"/><circle cx="666.3" cy="75.7" r="1.61" fill="#cfc8ea" opacity="0.25"/><circle cx="67.8" cy="229.3" r="1.35" fill="#cfc8ea" opacity="0.31"/><circle cx="47.6" cy="17.7" r="1.58" fill="#cfc8ea" opacity="0.38"/><circle cx="356.7" cy="65.8" r="1.46" fill="#cfc8ea" opacity="0.14"/><circle cx="516.8" cy="61.1" r="1.04" fill="#cfc8ea" opacity="0.15"/><circle cx="137.7" cy="64.3" r="1.40" fill="#cfc8ea" opacity="0.20"/><circle cx="312.8" cy="309.3" r="0.99" fill="#cfc8ea" opacity="0.43"/><circle cx="392.3" cy="128.3" r="0.75" fill="#cfc8ea" opacity="0.39"/><circle cx="534.8" cy="306.5" r="1.68" fill="#cfc8ea" opacity="0.44"/><circle cx="304.3" cy="378.9" r="0.80" fill="#cfc8ea" opacity="0.15"/><circle cx="542.8" cy="308.6" r="1.55" fill="#cfc8ea" opacity="0.30"/><circle cx="631.2" cy="145.6" r="1.48" fill="#cfc8ea" opacity="0.27"/><circle cx="540.1" cy="18.3" r="1.59" fill="#cfc8ea" opacity="0.31"/><circle cx="712.6" cy="495.0" r="1.06" fill="#cfc8ea" opacity="0.53"/><circle cx="14.8" cy="137.6" r="0.62" fill="#cfc8ea" opacity="0.53"/><circle cx="676.0" cy="283.9" r="1.22" fill="#cfc8ea" opacity="0.46"/><circle cx="16.4" cy="440.2" r="1.21" fill="#cfc8ea" opacity="0.42"/><circle cx="579.3" cy="119.6" r="0.87" fill="#cfc8ea" opacity="0.48"/><circle cx="38.7" cy="253.2" r="1.28" fill="#cfc8ea" opacity="0.28"/><circle cx="430.5" cy="162.1" r="0.60" fill="#cfc8ea" opacity="0.12"/><circle cx="48.6" cy="54.5" r="0.49" fill="#cfc8ea" opacity="0.52"/><circle cx="354.3" cy="229.7" r="0.66" fill="#cfc8ea" opacity="0.43"/><circle cx="93.3" cy="21.0" r="0.95" fill="#cfc8ea" opacity="0.17"/><circle cx="747.4" cy="283.6" r="1.37" fill="#cfc8ea" opacity="0.16"/><circle cx="31.2" cy="63.0" r="0.46" fill="#cfc8ea" opacity="0.28"/><circle cx="409.7" cy="288.7" r="1.55" fill="#cfc8ea" opacity="0.18"/><circle cx="32.5" cy="430.6" r="1.66" fill="#cfc8ea" opacity="0.30"/><circle cx="380.5" cy="358.4" r="0.83" fill="#cfc8ea" opacity="0.23"/><circle cx="199.7" cy="387.0" r="0.71" fill="#cfc8ea" opacity="0.24"/><circle cx="270.6" cy="327.7" r="0.80" fill="#cfc8ea" opacity="0.33"/><circle cx="367.9" cy="120.2" r="1.62" fill="#cfc8ea" opacity="0.50"/><circle cx="337.1" cy="430.9" r="1.18" fill="#cfc8ea" opacity="0.32"/><circle cx="611.4" cy="391.8" r="0.79" fill="#cfc8ea" opacity="0.26"/><circle cx="375.9" cy="449.5" r="1.66" fill="#cfc8ea" opacity="0.34"/><circle cx="181.4" cy="324.5" r="0.41" fill="#cfc8ea" opacity="0.22"/><path d="M 416.74779819883406 119.0 L 417.4 122.2 L 420.6 122.8362560425885 L 417.4 123.5 L 416.74779819883406 126.7 L 416.1 123.5 L 412.9 122.8362560425885 L 416.1 122.2 Z" fill="#f6e6bf" opacity="0.7523218569345772"/><path d="M 39.622190134599805 462.8 L 40.2 465.8 L 43.2 466.38468638947234 L 40.2 467.0 L 39.622190134599805 470.0 L 39.0 467.0 L 36.0 466.38468638947234 L 39.0 465.8 Z" fill="#f6e6bf" opacity="0.7413173068314791"/><path d="M 163.96371785737574 396.7 L 164.5 399.5 L 167.3 400.07652385765687 L 164.5 400.6 L 163.96371785737574 403.4 L 163.4 400.6 L 160.6 400.07652385765687 L 163.4 399.5 Z" fill="#f6e6bf" opacity="0.5563577915541827"/><path d="M 559.1052728313953 213.3 L 559.6 215.7 L 562.0 216.15720821497962 L 559.6 216.6 L 559.1052728313953 219.0 L 558.6 216.6 L 556.2 216.15720821497962 L 558.6 215.7 Z" fill="#f6e6bf" opacity="0.6977913783863187"/><path d="M 173.56074627675116 389.6 L 174.0 392.1 L 176.5 392.5572416377254 L 174.0 393.0 L 173.56074627675116 395.5 L 173.1 393.0 L 170.6 392.5572416377254 L 173.1 392.1 Z" fill="#f6e6bf" opacity="0.7228322082199157"/><path d="M 457.2 25.1 L 666.3 75.7 L 516.8 61.1 L 137.7 64.3 L 312.8 309.3" fill="none" stroke="#d4af6a" stroke-width="0.6" opacity="0.12"/>
  <rect x="1.5" y="1.5" width="757" height="558" rx="22" fill="none" stroke="#d4af6a" stroke-opacity="0.34" stroke-width="1.2"/>
  <rect x="7" y="7" width="746" height="547" rx="17" fill="none" stroke="#d4af6a" stroke-opacity="0.12" stroke-width="0.8"/>
  <path d="M 16 12.8 L 16.5 15.5 L 19.2 16 L 16.5 16.5 L 16 19.2 L 15.5 16.5 L 12.8 16 L 15.5 15.5 Z" fill="#d4af6a" opacity="0.4"/><path d="M 744 12.8 L 744.5 15.5 L 747.2 16 L 744.5 16.5 L 744 19.2 L 743.5 16.5 L 740.8 16 L 743.5 15.5 Z" fill="#d4af6a" opacity="0.4"/><path d="M 16 541.8 L 16.5 544.5 L 19.2 545 L 16.5 545.5 L 16 548.2 L 15.5 545.5 L 12.8 545 L 15.5 544.5 Z" fill="#d4af6a" opacity="0.4"/><path d="M 744 541.8 L 744.5 544.5 L 747.2 545 L 744.5 545.5 L 744 548.2 L 743.5 545.5 L 740.8 545 L 743.5 544.5 Z" fill="#d4af6a" opacity="0.4"/>
  <text x="380" y="46" text-anchor="middle" font-family="Georgia, 'Times New Roman', serif" font-size="22" letter-spacing="0.4" fill="#efeaf8">Leo Rising vs Gemini Sun: How Each Placement Actually Works</text>
  <line x1="230" y1="67" x2="368" y2="67" stroke="url(#jeremydokubirthchart0en-rule)" stroke-width="1"/>
  <line x1="392" y1="67" x2="530" y2="67" stroke="url(#jeremydokubirthchart0en-rule)" stroke-width="1"/>
  <path d="M 380 62.0 L 380.8 66.2 L 385.0 67 L 380.8 67.8 L 380 72.0 L 379.2 67.8 L 375.0 67 L 379.2 66.2 Z" fill="#d4af6a" opacity="0.85"/>

  <rect x="46" y="99" width="668" height="201.0" rx="14" fill="#1d1740" fill-opacity="0.5" stroke="#d4af6a" stroke-opacity="0.22" stroke-width="0.9"/>
  <rect x="46" y="99" width="3.5" height="201.0" rx="1.8" fill="#d4af6a" fill-opacity="0.6"/>
  <path d="M 47.75 108.6 L 48.3 111.5 L 51.1 112 L 48.3 112.5 L 47.75 115.4 L 47.2 112.5 L 44.4 112 L 47.2 111.5 Z" fill="#f6e6bf" opacity="0.7"/>
  <text x="380" y="128.0" text-anchor="middle" font-family="Georgia, 'Times New Roman', serif" font-size="21" font-weight="700" letter-spacing="0.3" fill="#f3effb">Leo Rising</text>
  <path d="M 70 157.8 L 70.5 160.5 L 73.2 161 L 70.5 161.5 L 70 164.2 L 69.5 161.5 L 66.8 161 L 69.5 160.5 Z" fill="#d4af6a" opacity="0.8"/>
  <text x="84" y="166.0" font-family="Helvetica, Arial, sans-serif" font-size="16" fill="#a59cc0">Shapes first impressions as warm, watchable performance</text>
  <path d="M 70 186.8 L 70.5 189.5 L 73.2 190 L 70.5 190.5 L 70 193.2 L 69.5 190.5 L 66.8 190 L 69.5 189.5 Z" fill="#d4af6a" opacity="0.8"/>
  <text x="84" y="195.0" font-family="Helvetica, Arial, sans-serif" font-size="16" fill="#a59cc0">Wants the gesture to land and the moment to look good</text>
  <path d="M 70 215.8 L 70.5 218.5 L 73.2 219 L 70.5 219.5 L 70 222.2 L 69.5 219.5 L 66.8 219 L 69.5 218.5 Z" fill="#d4af6a" opacity="0.8"/>
  <text x="84" y="224.0" font-family="Helvetica, Arial, sans-serif" font-size="16" fill="#a59cc0">The entrance and the mask the crowd meets first</text>
  <path d="M 70 244.8 L 70.5 247.5 L 73.2 248 L 70.5 248.5 L 70 251.2 L 69.5 248.5 L 66.8 248 L 69.5 247.5 Z" fill="#d4af6a" opacity="0.8"/>
  <text x="84" y="253.0" font-family="Helvetica, Arial, sans-serif" font-size="16" fill="#a59cc0">Sacrifices privacy for magnetic stage presence</text>
  <path d="M 70 273.8 L 70.5 276.5 L 73.2 277 L 70.5 277.5 L 70 280.2 L 69.5 277.5 L 66.8 277 L 69.5 276.5 Z" fill="#d4af6a" opacity="0.8"/>
  <text x="84" y="282.0" font-family="Helvetica, Arial, sans-serif" font-size="16" fill="#a59cc0">Made the choice visible — not the force that made it</text>
  <path d="M 380 308.5 L 380.7 312.3 L 384.5 313 L 380.7 313.7 L 380 317.5 L 379.3 313.7 L 375.5 313 L 379.3 312.3 Z" fill="#d4af6a" opacity="0.65"/>
  <rect x="46" y="326" width="668" height="201.0" rx="14" fill="#1d1740" fill-opacity="0.5" stroke="#d4af6a" stroke-opacity="0.22" stroke-width="0.9"/>
  <rect x="46" y="326" width="3.5" height="201.0" rx="1.8" fill="#d4af6a" fill-opacity="0.6"/>
  <path d="M 47.75 335.6 L 48.3 338.5 L 51.1 339 L 48.3 339.5 L 47.75 342.4 L 47.2 339.5 L 44.4 339 L 47.2 338.5 Z" fill="#f6e6bf" opacity="0.7"/>
  <text x="380" y="355.0" text-anchor="middle" font-family="Georgia, 'Times New Roman', serif" font-size="21" font-weight="700" letter-spacing="0.3" fill="#f3effb">Gemini Sun</text>
  <path d="M 70 384.8 L 70.5 387.5 L 73.2 388 L 70.5 388.5 L 70 391.2 L 69.5 388.5 L 66.8 388 L 69.5 387.5 Z" fill="#d4af6a" opacity="0.8"/>
  <text x="84" y="393.0" font-family="Helvetica, Arial, sans-serif" font-size="16" fill="#a59cc0">Drives identity through curiosity and immediate connection</text>
  <path d="M 70 413.8 L 70.5 416.5 L 73.2 417 L 70.5 417.5 L 70 420.2 L 69.5 417.5 L 66.8 417 L 69.5 416.5 Z" fill="#d4af6a" opacity="0.8"/>
  <text x="84" y="422.0" font-family="Helvetica, Arial, sans-serif" font-size="16" fill="#a59cc0">Prioritizes the live, embodied moment over abstract narrative</text>
  <path d="M 70 442.8 L 70.5 445.5 L 73.2 446 L 70.5 446.5 L 70 449.2 L 69.5 446.5 L 66.8 446 L 69.5 445.5 Z" fill="#d4af6a" opacity="0.8"/>
  <text x="84" y="451.0" font-family="Helvetica, Arial, sans-serif" font-size="16" fill="#a59cc0">The real steering force behind the exit decision</text>
  <path d="M 70 471.8 L 70.5 474.5 L 73.2 475 L 70.5 475.5 L 70 478.2 L 69.5 475.5 L 66.8 475 L 69.5 474.5 Z" fill="#d4af6a" opacity="0.8"/>
  <text x="84" y="480.0" font-family="Helvetica, Arial, sans-serif" font-size="16" fill="#a59cc0">Sacrifices the clean story for authentic presence in the room</text>
  <path d="M 70 500.8 L 70.5 503.5 L 73.2 504 L 70.5 504.5 L 70 507.2 L 69.5 504.5 L 66.8 504 L 69.5 503.5 Z" fill="#d4af6a" opacity="0.8"/>
  <text x="84" y="509.0" font-family="Helvetica, Arial, sans-serif" font-size="16" fill="#a59cc0">Chose the delivery room — not a contradiction, but the core value</text>
  <path d="M 202.22749999999988 532.4 L 202.6 534.6 L 204.8 535 L 202.6 535.4 L 202.22749999999988 537.6 L 201.8 535.4 L 199.6 535 L 201.8 534.6 Z" fill="#d4af6a" opacity="0.5"/>
  <text x="380" y="539" text-anchor="middle" font-family="Georgia, 'Times New Roman', serif" font-style="italic" font-size="11.5" fill="#7b738f">A self-reflection framework — tendencies, not predictions</text>
  <path d="M 557.7725000000002 532.4 L 558.2 534.6 L 560.4 535 L 558.2 535.4 L 557.7725000000002 537.6 L 557.4 535.4 L 555.2 535 L 557.4 534.6 Z" fill="#d4af6a" opacity="0.5"/>
</svg>
