<svg xmlns="http://www.w3.org/2000/svg" viewBox="0 0 760 614" role="img" aria-label="Three Ways to Read the Same Chart">
  <defs>
    <linearGradient id="judebellinghambirthchart0en-panel" x1="0" y1="0" x2="0.4" y2="1">
      <stop offset="0" stop-color="#1a1433"/><stop offset="0.55" stop-color="#120e26"/><stop offset="1" stop-color="#09081a"/>
    </linearGradient>
    <radialGradient id="judebellinghambirthchart0en-foil" cx="0.42" cy="0.34" r="0.75">
      <stop offset="0" stop-color="#fbf0d2"/><stop offset="0.5" stop-color="#e8c882"/><stop offset="1" stop-color="#b8923f"/>
    </radialGradient>
    <radialGradient id="judebellinghambirthchart0en-glow" cx="0.5" cy="0.5" r="0.5">
      <stop offset="0" stop-color="#f6e6bf"/><stop offset="1" stop-color="#f6e6bf" stop-opacity="0"/>
    </radialGradient>
    <radialGradient id="judebellinghambirthchart0en-neb1" cx="0.5" cy="0.5" r="0.5">
      <stop offset="0" stop-color="#6f4bb0" stop-opacity="0.28"/><stop offset="1" stop-color="#6f4bb0" stop-opacity="0"/>
    </radialGradient>
    <radialGradient id="judebellinghambirthchart0en-neb2" cx="0.5" cy="0.5" r="0.5">
      <stop offset="0" stop-color="#d4af6a" stop-opacity="0.16"/><stop offset="1" stop-color="#d4af6a" stop-opacity="0"/>
    </radialGradient>
    <linearGradient id="judebellinghambirthchart0en-rule" x1="0" y1="0" x2="1" y2="0">
      <stop offset="0" stop-color="#d4af6a" stop-opacity="0"/><stop offset="0.5" stop-color="#d4af6a" stop-opacity="0.6"/><stop offset="1" stop-color="#d4af6a" stop-opacity="0"/>
    </linearGradient>
  </defs>
  <rect x="1.5" y="1.5" width="757" height="611" rx="22" fill="url(#judebellinghambirthchart0en-panel)"/>
  <ellipse cx="198" cy="147" rx="380" ry="209" fill="url(#judebellinghambirthchart0en-neb1)"/>
  <ellipse cx="623" cy="491" rx="334" ry="196" fill="url(#judebellinghambirthchart0en-neb2)"/>
  <circle cx="669.1" cy="391.0" r="0.82" fill="#cfc8ea" opacity="0.47"/><circle cx="592.4" cy="146.9" r="0.92" fill="#cfc8ea" opacity="0.46"/><circle cx="575.1" cy="56.7" r="0.89" fill="#cfc8ea" opacity="0.28"/><circle cx="376.5" cy="424.9" r="1.07" fill="#cfc8ea" opacity="0.13"/><circle cx="450.7" cy="44.6" r="1.12" fill="#cfc8ea" opacity="0.44"/><circle cx="717.0" cy="308.7" r="1.54" fill="#cfc8ea" opacity="0.15"/><circle cx="457.0" cy="335.9" r="0.82" fill="#cfc8ea" opacity="0.18"/><circle cx="406.4" cy="243.9" r="0.73" fill="#cfc8ea" opacity="0.28"/><circle cx="693.1" cy="426.9" r="1.50" fill="#cfc8ea" opacity="0.35"/><circle cx="639.7" cy="548.3" r="1.30" fill="#cfc8ea" opacity="0.18"/><circle cx="494.7" cy="295.8" r="0.53" fill="#cfc8ea" opacity="0.47"/><circle cx="153.4" cy="367.0" r="0.63" fill="#cfc8ea" opacity="0.27"/><circle cx="406.7" cy="462.9" r="0.55" fill="#cfc8ea" opacity="0.52"/><circle cx="277.8" cy="537.2" r="0.66" fill="#cfc8ea" opacity="0.51"/><circle cx="250.7" cy="108.6" r="0.82" fill="#cfc8ea" opacity="0.31"/><circle cx="52.2" cy="366.9" r="1.68" fill="#cfc8ea" opacity="0.42"/><circle cx="570.1" cy="78.8" r="1.08" fill="#cfc8ea" opacity="0.45"/><circle cx="169.0" cy="518.0" r="0.93" fill="#cfc8ea" opacity="0.47"/><circle cx="520.8" cy="141.5" r="1.69" fill="#cfc8ea" opacity="0.15"/><circle cx="411.3" cy="83.4" r="0.50" fill="#cfc8ea" opacity="0.45"/><circle cx="617.0" cy="233.3" r="0.85" fill="#cfc8ea" opacity="0.32"/><circle cx="214.6" cy="426.1" r="1.69" fill="#cfc8ea" opacity="0.21"/><circle cx="216.1" cy="229.0" r="0.95" fill="#cfc8ea" opacity="0.31"/><circle cx="19.9" cy="128.6" r="1.41" fill="#cfc8ea" opacity="0.40"/><circle cx="316.0" cy="427.7" r="1.49" fill="#cfc8ea" opacity="0.35"/><circle cx="72.7" cy="582.5" r="0.87" fill="#cfc8ea" opacity="0.42"/><circle cx="320.6" cy="410.7" r="1.65" fill="#cfc8ea" opacity="0.42"/><circle cx="735.0" cy="113.6" r="1.49" fill="#cfc8ea" opacity="0.36"/><circle cx="703.5" cy="231.2" r="0.52" fill="#cfc8ea" opacity="0.27"/><circle cx="709.0" cy="572.5" r="0.85" fill="#cfc8ea" opacity="0.16"/><circle cx="584.8" cy="600.9" r="1.31" fill="#cfc8ea" opacity="0.49"/><circle cx="351.1" cy="136.6" r="0.87" fill="#cfc8ea" opacity="0.43"/><circle cx="128.3" cy="296.1" r="0.50" fill="#cfc8ea" opacity="0.26"/><circle cx="168.5" cy="156.0" r="0.50" fill="#cfc8ea" opacity="0.46"/><circle cx="558.2" cy="341.9" r="1.00" fill="#cfc8ea" opacity="0.21"/><circle cx="397.0" cy="600.9" r="0.83" fill="#cfc8ea" opacity="0.38"/><circle cx="44.9" cy="251.5" r="1.05" fill="#cfc8ea" opacity="0.38"/><circle cx="371.5" cy="300.5" r="0.48" fill="#cfc8ea" opacity="0.47"/><circle cx="556.3" cy="529.7" r="1.52" fill="#cfc8ea" opacity="0.15"/><circle cx="491.0" cy="298.4" r="1.06" fill="#cfc8ea" opacity="0.21"/><circle cx="53.5" cy="457.4" r="0.56" fill="#cfc8ea" opacity="0.50"/><circle cx="701.9" cy="215.3" r="1.34" fill="#cfc8ea" opacity="0.23"/><circle cx="549.9" cy="302.1" r="0.59" fill="#cfc8ea" opacity="0.22"/><circle cx="377.3" cy="510.0" r="0.92" fill="#cfc8ea" opacity="0.27"/><circle cx="135.3" cy="581.8" r="1.27" fill="#cfc8ea" opacity="0.45"/><circle cx="710.6" cy="575.7" r="1.41" fill="#cfc8ea" opacity="0.35"/><circle cx="300.1" cy="120.3" r="0.53" fill="#cfc8ea" opacity="0.24"/><circle cx="43.7" cy="16.4" r="0.86" fill="#cfc8ea" opacity="0.43"/><circle cx="253.4" cy="507.4" r="1.04" fill="#cfc8ea" opacity="0.16"/><circle cx="582.4" cy="258.6" r="0.57" fill="#cfc8ea" opacity="0.34"/><circle cx="565.8" cy="400.5" r="0.85" fill="#cfc8ea" opacity="0.32"/><circle cx="276.8" cy="273.7" r="0.72" fill="#cfc8ea" opacity="0.14"/><path d="M 183.31737063080072 363.4 L 183.9 366.2 L 186.7 366.7323305415921 L 183.9 367.3 L 183.31737063080072 370.1 L 182.8 367.3 L 179.9 366.7323305415921 L 182.8 366.2 Z" fill="#f6e6bf" opacity="0.6926403052872047"/><path d="M 683.2813449800014 569.1 L 683.7 571.1 L 685.7 571.5132530084811 L 683.7 571.9 L 683.2813449800014 573.9 L 682.9 571.9 L 680.8 571.5132530084811 L 682.9 571.1 Z" fill="#f6e6bf" opacity="0.6000057468889282"/><path d="M 590.2965954169631 201.3 L 590.8 203.8 L 593.2 204.24385738326237 L 590.8 204.7 L 590.2965954169631 207.1 L 589.8 204.7 L 587.4 204.24385738326237 L 589.8 203.8 Z" fill="#f6e6bf" opacity="0.7642149148276076"/><path d="M 506.00179190933704 420.1 L 506.5 422.8 L 509.3 423.34303414216265 L 506.5 423.9 L 506.00179190933704 426.6 L 505.5 423.9 L 502.7 423.34303414216265 L 505.5 422.8 Z" fill="#f6e6bf" opacity="0.6207205326063558"/><path d="M 53.26628679782152 124.7 L 53.8 127.6 L 56.8 128.21335448650643 L 53.8 128.8 L 53.26628679782152 131.7 L 52.7 128.8 L 49.7 128.21335448650643 L 52.7 127.6 Z" fill="#f6e6bf" opacity="0.5346120882546529"/>
  <rect x="1.5" y="1.5" width="757" height="611" rx="22" fill="none" stroke="#d4af6a" stroke-opacity="0.34" stroke-width="1.2"/>
  <rect x="7" y="7" width="746" height="600" rx="17" fill="none" stroke="#d4af6a" stroke-opacity="0.12" stroke-width="0.8"/>
  <path d="M 16 12.8 L 16.5 15.5 L 19.2 16 L 16.5 16.5 L 16 19.2 L 15.5 16.5 L 12.8 16 L 15.5 15.5 Z" fill="#d4af6a" opacity="0.4"/><path d="M 744 12.8 L 744.5 15.5 L 747.2 16 L 744.5 16.5 L 744 19.2 L 743.5 16.5 L 740.8 16 L 743.5 15.5 Z" fill="#d4af6a" opacity="0.4"/><path d="M 16 594.8 L 16.5 597.5 L 19.2 598 L 16.5 598.5 L 16 601.2 L 15.5 598.5 L 12.8 598 L 15.5 597.5 Z" fill="#d4af6a" opacity="0.4"/><path d="M 744 594.8 L 744.5 597.5 L 747.2 598 L 744.5 598.5 L 744 601.2 L 743.5 598.5 L 740.8 598 L 743.5 597.5 Z" fill="#d4af6a" opacity="0.4"/>
  <text x="380" y="46" text-anchor="middle" font-family="Georgia, 'Times New Roman', serif" font-size="22" letter-spacing="0.4" fill="#efeaf8">Three Ways to Read the Same Chart</text>
  <line x1="230" y1="67" x2="368" y2="67" stroke="url(#judebellinghambirthchart0en-rule)" stroke-width="1"/>
  <line x1="392" y1="67" x2="530" y2="67" stroke="url(#judebellinghambirthchart0en-rule)" stroke-width="1"/>
  <path d="M 380 62.0 L 380.8 66.2 L 385.0 67 L 380.8 67.8 L 380 72.0 L 379.2 67.8 L 375.0 67 L 379.2 66.2 Z" fill="#d4af6a" opacity="0.85"/>

  <rect x="46" y="99" width="668" height="143.0" rx="14" fill="#1d1740" fill-opacity="0.5" stroke="#d4af6a" stroke-opacity="0.22" stroke-width="0.9"/>
  <rect x="46" y="99" width="3.5" height="143.0" rx="1.8" fill="#d4af6a" fill-opacity="0.6"/>
  <path d="M 47.75 108.6 L 48.3 111.5 L 51.1 112 L 48.3 112.5 L 47.75 115.4 L 47.2 112.5 L 44.4 112 L 47.2 111.5 Z" fill="#f6e6bf" opacity="0.7"/>
  <text x="380" y="128.0" text-anchor="middle" font-family="Georgia, 'Times New Roman', serif" font-size="21" font-weight="700" letter-spacing="0.3" fill="#f3effb">Sun-anchored reading</text>
  <path d="M 70 157.8 L 70.5 160.5 L 73.2 161 L 70.5 161.5 L 70 164.2 L 69.5 161.5 L 66.8 161 L 69.5 160.5 Z" fill="#d4af6a" opacity="0.8"/>
  <text x="84" y="166.0" font-family="Helvetica, Arial, sans-serif" font-size="16" fill="#a59cc0">Leans on the Sun, fixed by a verified date</text>
  <path d="M 70 186.8 L 70.5 189.5 L 73.2 190 L 70.5 190.5 L 70 193.2 L 69.5 190.5 L 66.8 190 L 69.5 189.5 Z" fill="#d4af6a" opacity="0.8"/>
  <text x="84" y="195.0" font-family="Helvetica, Arial, sans-serif" font-size="16" fill="#a59cc0">Refuses to invent the unrecorded layers</text>
  <path d="M 70 215.8 L 70.5 218.5 L 73.2 219 L 70.5 219.5 L 70 222.2 L 69.5 219.5 L 66.8 219 L 69.5 218.5 Z" fill="#d4af6a" opacity="0.8"/>
  <text x="84" y="224.0" font-family="Helvetica, Arial, sans-serif" font-size="16" fill="#a59cc0">Names a theme, not a scoreline</text>
  <path d="M 380 250.5 L 380.7 254.3 L 384.5 255 L 380.7 255.7 L 380 259.5 L 379.3 255.7 L 375.5 255 L 379.3 254.3 Z" fill="#d4af6a" opacity="0.65"/>
  <rect x="46" y="268" width="668" height="143.0" rx="14" fill="#1d1740" fill-opacity="0.5" stroke="#d4af6a" stroke-opacity="0.22" stroke-width="0.9"/>
  <rect x="46" y="268" width="3.5" height="143.0" rx="1.8" fill="#d4af6a" fill-opacity="0.6"/>
  <path d="M 47.75 277.6 L 48.3 280.5 L 51.1 281 L 48.3 281.5 L 47.75 284.4 L 47.2 281.5 L 44.4 281 L 47.2 280.5 Z" fill="#f6e6bf" opacity="0.7"/>
  <text x="380" y="297.0" text-anchor="middle" font-family="Georgia, 'Times New Roman', serif" font-size="21" font-weight="700" letter-spacing="0.3" fill="#f3effb">Full natal reading</text>
  <path d="M 70 326.8 L 70.5 329.5 L 73.2 330 L 70.5 330.5 L 70 333.2 L 69.5 330.5 L 66.8 330 L 69.5 329.5 Z" fill="#d4af6a" opacity="0.8"/>
  <text x="84" y="335.0" font-family="Helvetica, Arial, sans-serif" font-size="16" fill="#a59cc0">Weighs Sun, Moon, Ascendant, every house cusp</text>
  <path d="M 70 355.8 L 70.5 358.5 L 73.2 359 L 70.5 359.5 L 70 362.2 L 69.5 359.5 L 66.8 359 L 69.5 358.5 Z" fill="#d4af6a" opacity="0.8"/>
  <text x="84" y="364.0" font-family="Helvetica, Arial, sans-serif" font-size="16" fill="#a59cc0">Needs a recorded birth time, which is not public</text>
  <path d="M 70 384.8 L 70.5 387.5 L 73.2 388 L 70.5 388.5 L 70 391.2 L 69.5 388.5 L 66.8 388 L 69.5 387.5 Z" fill="#d4af6a" opacity="0.8"/>
  <text x="84" y="393.0" font-family="Helvetica, Arial, sans-serif" font-size="16" fill="#a59cc0">Trades reliability for breadth</text>
  <path d="M 380 419.5 L 380.7 423.3 L 384.5 424 L 380.7 424.7 L 380 428.5 L 379.3 424.7 L 375.5 424 L 379.3 423.3 Z" fill="#d4af6a" opacity="0.65"/>
  <rect x="46" y="437" width="668" height="143.0" rx="14" fill="#1d1740" fill-opacity="0.5" stroke="#d4af6a" stroke-opacity="0.22" stroke-width="0.9"/>
  <rect x="46" y="437" width="3.5" height="143.0" rx="1.8" fill="#d4af6a" fill-opacity="0.6"/>
  <path d="M 47.75 446.6 L 48.3 449.5 L 51.1 450 L 48.3 450.5 L 47.75 453.4 L 47.2 450.5 L 44.4 450 L 47.2 449.5 Z" fill="#f6e6bf" opacity="0.7"/>
  <text x="380" y="466.0" text-anchor="middle" font-family="Georgia, 'Times New Roman', serif" font-size="21" font-weight="700" letter-spacing="0.3" fill="#f3effb">Tabloid zodiac blurb</text>
  <path d="M 70 495.8 L 70.5 498.5 L 73.2 499 L 70.5 499.5 L 70 502.2 L 69.5 499.5 L 66.8 499 L 69.5 498.5 Z" fill="#d4af6a" opacity="0.8"/>
  <text x="84" y="504.0" font-family="Helvetica, Arial, sans-serif" font-size="16" fill="#a59cc0">Flattens Cancer into a single mood</text>
  <path d="M 70 524.8 L 70.5 527.5 L 73.2 528 L 70.5 528.5 L 70 531.2 L 69.5 528.5 L 66.8 528 L 69.5 527.5 Z" fill="#d4af6a" opacity="0.8"/>
  <text x="84" y="533.0" font-family="Helvetica, Arial, sans-serif" font-size="16" fill="#a59cc0">Treats the Sun as fixed temperament</text>
  <path d="M 70 553.8 L 70.5 556.5 L 73.2 557 L 70.5 557.5 L 70 560.2 L 69.5 557.5 L 66.8 557 L 69.5 556.5 Z" fill="#d4af6a" opacity="0.8"/>
  <text x="84" y="562.0" font-family="Helvetica, Arial, sans-serif" font-size="16" fill="#a59cc0">Trades accuracy for catchiness</text>
  <path d="M 202.22749999999988 585.4 L 202.6 587.6 L 204.8 588 L 202.6 588.4 L 202.22749999999988 590.6 L 201.8 588.4 L 199.6 588 L 201.8 587.6 Z" fill="#d4af6a" opacity="0.5"/>
  <text x="380" y="592" text-anchor="middle" font-family="Georgia, 'Times New Roman', serif" font-style="italic" font-size="11.5" fill="#7b738f">A self-reflection framework — tendencies, not predictions</text>
  <path d="M 557.7725000000002 585.4 L 558.2 587.6 L 560.4 588 L 558.2 588.4 L 557.7725000000002 590.6 L 557.4 588.4 L 555.2 588 L 557.4 587.6 Z" fill="#d4af6a" opacity="0.5"/>
</svg>
