<svg xmlns="http://www.w3.org/2000/svg" viewBox="0 0 760 614" role="img" aria-label="Three Approaches to a Birth Chart">
  <defs>
    <linearGradient id="lamineyamalbirthchart0en-panel" x1="0" y1="0" x2="0.4" y2="1">
      <stop offset="0" stop-color="#1a1433"/><stop offset="0.55" stop-color="#120e26"/><stop offset="1" stop-color="#09081a"/>
    </linearGradient>
    <radialGradient id="lamineyamalbirthchart0en-foil" cx="0.42" cy="0.34" r="0.75">
      <stop offset="0" stop-color="#fbf0d2"/><stop offset="0.5" stop-color="#e8c882"/><stop offset="1" stop-color="#b8923f"/>
    </radialGradient>
    <radialGradient id="lamineyamalbirthchart0en-glow" cx="0.5" cy="0.5" r="0.5">
      <stop offset="0" stop-color="#f6e6bf"/><stop offset="1" stop-color="#f6e6bf" stop-opacity="0"/>
    </radialGradient>
    <radialGradient id="lamineyamalbirthchart0en-neb1" cx="0.5" cy="0.5" r="0.5">
      <stop offset="0" stop-color="#6f4bb0" stop-opacity="0.28"/><stop offset="1" stop-color="#6f4bb0" stop-opacity="0"/>
    </radialGradient>
    <radialGradient id="lamineyamalbirthchart0en-neb2" cx="0.5" cy="0.5" r="0.5">
      <stop offset="0" stop-color="#d4af6a" stop-opacity="0.16"/><stop offset="1" stop-color="#d4af6a" stop-opacity="0"/>
    </radialGradient>
    <linearGradient id="lamineyamalbirthchart0en-rule" x1="0" y1="0" x2="1" y2="0">
      <stop offset="0" stop-color="#d4af6a" stop-opacity="0"/><stop offset="0.5" stop-color="#d4af6a" stop-opacity="0.6"/><stop offset="1" stop-color="#d4af6a" stop-opacity="0"/>
    </linearGradient>
  </defs>
  <rect x="1.5" y="1.5" width="757" height="611" rx="22" fill="url(#lamineyamalbirthchart0en-panel)"/>
  <ellipse cx="198" cy="147" rx="380" ry="209" fill="url(#lamineyamalbirthchart0en-neb1)"/>
  <ellipse cx="623" cy="491" rx="334" ry="196" fill="url(#lamineyamalbirthchart0en-neb2)"/>
  <circle cx="395.7" cy="315.0" r="1.55" fill="#cfc8ea" opacity="0.32"/><circle cx="546.8" cy="54.5" r="1.48" fill="#cfc8ea" opacity="0.52"/><circle cx="38.3" cy="389.1" r="0.96" fill="#cfc8ea" opacity="0.51"/><circle cx="311.2" cy="506.2" r="0.73" fill="#cfc8ea" opacity="0.16"/><circle cx="145.5" cy="247.8" r="0.81" fill="#cfc8ea" opacity="0.50"/><circle cx="480.8" cy="175.6" r="0.68" fill="#cfc8ea" opacity="0.21"/><circle cx="558.2" cy="370.6" r="1.40" fill="#cfc8ea" opacity="0.42"/><circle cx="649.0" cy="173.7" r="0.47" fill="#cfc8ea" opacity="0.45"/><circle cx="594.6" cy="541.4" r="1.01" fill="#cfc8ea" opacity="0.17"/><circle cx="647.6" cy="424.7" r="1.61" fill="#cfc8ea" opacity="0.25"/><circle cx="599.7" cy="162.2" r="0.42" fill="#cfc8ea" opacity="0.31"/><circle cx="419.2" cy="582.3" r="1.57" fill="#cfc8ea" opacity="0.53"/><circle cx="666.6" cy="112.2" r="0.50" fill="#cfc8ea" opacity="0.38"/><circle cx="129.3" cy="190.9" r="1.54" fill="#cfc8ea" opacity="0.33"/><circle cx="23.9" cy="216.8" r="1.53" fill="#cfc8ea" opacity="0.43"/><circle cx="526.0" cy="207.8" r="1.13" fill="#cfc8ea" opacity="0.40"/><circle cx="260.6" cy="385.6" r="0.97" fill="#cfc8ea" opacity="0.47"/><circle cx="373.9" cy="506.3" r="0.59" fill="#cfc8ea" opacity="0.17"/><circle cx="54.0" cy="326.4" r="0.50" fill="#cfc8ea" opacity="0.33"/><circle cx="505.4" cy="441.2" r="0.96" fill="#cfc8ea" opacity="0.17"/><circle cx="632.5" cy="399.7" r="0.56" fill="#cfc8ea" opacity="0.16"/><circle cx="623.0" cy="116.7" r="1.21" fill="#cfc8ea" opacity="0.34"/><circle cx="642.7" cy="338.1" r="1.19" fill="#cfc8ea" opacity="0.13"/><circle cx="684.0" cy="263.6" r="0.66" fill="#cfc8ea" opacity="0.50"/><circle cx="648.1" cy="517.7" r="1.50" fill="#cfc8ea" opacity="0.31"/><circle cx="272.7" cy="370.0" r="1.00" fill="#cfc8ea" opacity="0.22"/><circle cx="18.8" cy="283.1" r="0.78" fill="#cfc8ea" opacity="0.43"/><circle cx="259.0" cy="40.0" r="1.49" fill="#cfc8ea" opacity="0.38"/><circle cx="98.5" cy="376.9" r="1.59" fill="#cfc8ea" opacity="0.34"/><circle cx="725.5" cy="384.3" r="1.44" fill="#cfc8ea" opacity="0.31"/><circle cx="704.4" cy="369.8" r="0.47" fill="#cfc8ea" opacity="0.25"/><circle cx="142.5" cy="389.4" r="1.37" fill="#cfc8ea" opacity="0.34"/><circle cx="106.3" cy="449.2" r="1.28" fill="#cfc8ea" opacity="0.17"/><circle cx="214.3" cy="94.3" r="1.22" fill="#cfc8ea" opacity="0.25"/><circle cx="713.8" cy="261.1" r="1.43" fill="#cfc8ea" opacity="0.33"/><circle cx="462.3" cy="531.2" r="1.38" fill="#cfc8ea" opacity="0.13"/><circle cx="404.6" cy="217.5" r="1.59" fill="#cfc8ea" opacity="0.17"/><circle cx="284.2" cy="601.3" r="1.32" fill="#cfc8ea" opacity="0.51"/><circle cx="353.7" cy="152.4" r="1.07" fill="#cfc8ea" opacity="0.48"/><circle cx="457.9" cy="61.3" r="0.70" fill="#cfc8ea" opacity="0.36"/><circle cx="78.5" cy="276.6" r="0.76" fill="#cfc8ea" opacity="0.45"/><circle cx="118.1" cy="251.2" r="1.54" fill="#cfc8ea" opacity="0.39"/><circle cx="25.0" cy="413.9" r="0.75" fill="#cfc8ea" opacity="0.22"/><circle cx="600.0" cy="589.9" r="1.21" fill="#cfc8ea" opacity="0.17"/><circle cx="445.6" cy="478.2" r="1.65" fill="#cfc8ea" opacity="0.48"/><circle cx="702.6" cy="350.9" r="0.67" fill="#cfc8ea" opacity="0.15"/><circle cx="676.4" cy="249.6" r="1.64" fill="#cfc8ea" opacity="0.42"/><circle cx="320.2" cy="282.4" r="0.60" fill="#cfc8ea" opacity="0.28"/><circle cx="106.6" cy="544.3" r="0.84" fill="#cfc8ea" opacity="0.45"/><circle cx="540.5" cy="362.8" r="1.54" fill="#cfc8ea" opacity="0.26"/><circle cx="342.7" cy="102.2" r="0.61" fill="#cfc8ea" opacity="0.16"/><circle cx="379.0" cy="448.5" r="1.04" fill="#cfc8ea" opacity="0.42"/><path d="M 346.52768976800144 280.5 L 347.0 282.9 L 349.4 283.3898079097271 L 347.0 283.9 L 346.52768976800144 286.3 L 346.1 283.9 L 343.6 283.3898079097271 L 346.1 282.9 Z" fill="#f6e6bf" opacity="0.7327504744287581"/><path d="M 633.0259132739156 99.4 L 633.5 102.1 L 636.3 102.66449549980462 L 633.5 103.2 L 633.0259132739156 105.9 L 632.5 103.2 L 629.8 102.66449549980462 L 632.5 102.1 Z" fill="#f6e6bf" opacity="0.6797301639337092"/><path d="M 69.24628221802413 258.8 L 69.7 261.3 L 72.2 261.73507464304566 L 69.7 262.2 L 69.24628221802413 264.7 L 68.8 262.2 L 66.3 261.73507464304566 L 68.8 261.3 Z" fill="#f6e6bf" opacity="0.6413401815574616"/><path d="M 347.3063102569431 436.2 L 347.7 438.5 L 350.0 438.9610199984163 L 347.7 439.4 L 347.3063102569431 441.7 L 346.9 439.4 L 344.6 438.9610199984163 L 346.9 438.5 Z" fill="#f6e6bf" opacity="0.7736462535802275"/><path d="M 503.90807525627315 334.0 L 504.3 336.2 L 506.5 336.6408397331834 L 504.3 337.1 L 503.90807525627315 339.3 L 503.5 337.1 L 501.3 336.6408397331834 L 503.5 336.2 Z" fill="#f6e6bf" opacity="0.6449054972734303"/><path d="M 145.5 247.8 L 106.3 449.2 L 404.6 217.5 L 78.5 276.6 L 379.0 448.5" fill="none" stroke="#d4af6a" stroke-width="0.6" opacity="0.12"/>
  <rect x="1.5" y="1.5" width="757" height="611" rx="22" fill="none" stroke="#d4af6a" stroke-opacity="0.34" stroke-width="1.2"/>
  <rect x="7" y="7" width="746" height="600" rx="17" fill="none" stroke="#d4af6a" stroke-opacity="0.12" stroke-width="0.8"/>
  <path d="M 16 12.8 L 16.5 15.5 L 19.2 16 L 16.5 16.5 L 16 19.2 L 15.5 16.5 L 12.8 16 L 15.5 15.5 Z" fill="#d4af6a" opacity="0.4"/><path d="M 744 12.8 L 744.5 15.5 L 747.2 16 L 744.5 16.5 L 744 19.2 L 743.5 16.5 L 740.8 16 L 743.5 15.5 Z" fill="#d4af6a" opacity="0.4"/><path d="M 16 594.8 L 16.5 597.5 L 19.2 598 L 16.5 598.5 L 16 601.2 L 15.5 598.5 L 12.8 598 L 15.5 597.5 Z" fill="#d4af6a" opacity="0.4"/><path d="M 744 594.8 L 744.5 597.5 L 747.2 598 L 744.5 598.5 L 744 601.2 L 743.5 598.5 L 740.8 598 L 743.5 597.5 Z" fill="#d4af6a" opacity="0.4"/>
  <text x="380" y="46" text-anchor="middle" font-family="Georgia, 'Times New Roman', serif" font-size="22" letter-spacing="0.4" fill="#efeaf8">Three Approaches to a Birth Chart</text>
  <line x1="230" y1="67" x2="368" y2="67" stroke="url(#lamineyamalbirthchart0en-rule)" stroke-width="1"/>
  <line x1="392" y1="67" x2="530" y2="67" stroke="url(#lamineyamalbirthchart0en-rule)" stroke-width="1"/>
  <path d="M 380 62.0 L 380.8 66.2 L 385.0 67 L 380.8 67.8 L 380 72.0 L 379.2 67.8 L 375.0 67 L 379.2 66.2 Z" fill="#d4af6a" opacity="0.85"/>

  <rect x="46" y="99" width="668" height="143.0" rx="14" fill="#1d1740" fill-opacity="0.5" stroke="#d4af6a" stroke-opacity="0.22" stroke-width="0.9"/>
  <rect x="46" y="99" width="668" height="3.5" rx="1.8" fill="#d4af6a" fill-opacity="0.6"/>
  <path d="M 380 97.1 L 380.5 100.0 L 383.4 100.5 L 380.5 101.0 L 380 103.9 L 379.5 101.0 L 376.6 100.5 L 379.5 100.0 Z" fill="#f6e6bf" opacity="0.7"/>
  <text x="380" y="128.0" text-anchor="middle" font-family="Georgia, 'Times New Roman', serif" font-size="21" font-weight="700" letter-spacing="0.3" fill="#f3effb">Sun-Sign Profile</text>
  <path d="M 70 157.8 L 70.5 160.5 L 73.2 161 L 70.5 161.5 L 70 164.2 L 69.5 161.5 L 66.8 161 L 69.5 160.5 Z" fill="#d4af6a" opacity="0.8"/>
  <text x="84" y="166.0" font-family="Helvetica, Arial, sans-serif" font-size="16" fill="#a59cc0">Labels mood and personality</text>
  <path d="M 70 186.8 L 70.5 189.5 L 73.2 190 L 70.5 190.5 L 70 193.2 L 69.5 190.5 L 66.8 190 L 69.5 189.5 Z" fill="#d4af6a" opacity="0.8"/>
  <text x="84" y="195.0" font-family="Helvetica, Arial, sans-serif" font-size="16" fill="#a59cc0">Stops at adjectives</text>
  <path d="M 70 215.8 L 70.5 218.5 L 73.2 219 L 70.5 219.5 L 70 222.2 L 69.5 219.5 L 66.8 219 L 69.5 218.5 Z" fill="#d4af6a" opacity="0.8"/>
  <text x="84" y="224.0" font-family="Helvetica, Arial, sans-serif" font-size="16" fill="#a59cc0">No growth arc or timing</text>
  <path d="M 380 250.5 L 380.7 254.3 L 384.5 255 L 380.7 255.7 L 380 259.5 L 379.3 255.7 L 375.5 255 L 379.3 254.3 Z" fill="#d4af6a" opacity="0.65"/>
  <rect x="46" y="268" width="668" height="143.0" rx="14" fill="#1d1740" fill-opacity="0.5" stroke="#d4af6a" stroke-opacity="0.22" stroke-width="0.9"/>
  <rect x="46" y="268" width="668" height="3.5" rx="1.8" fill="#d4af6a" fill-opacity="0.6"/>
  <path d="M 380 266.1 L 380.5 269.0 L 383.4 269.5 L 380.5 270.0 L 380 272.9 L 379.5 270.0 L 376.6 269.5 L 379.5 269.0 Z" fill="#f6e6bf" opacity="0.7"/>
  <text x="380" y="297.0" text-anchor="middle" font-family="Georgia, 'Times New Roman', serif" font-size="21" font-weight="700" letter-spacing="0.3" fill="#f3effb">Psychological Chart Reading</text>
  <path d="M 70 326.8 L 70.5 329.5 L 73.2 330 L 70.5 330.5 L 70 333.2 L 69.5 330.5 L 66.8 330 L 69.5 329.5 Z" fill="#d4af6a" opacity="0.8"/>
  <text x="84" y="335.0" font-family="Helvetica, Arial, sans-serif" font-size="16" fill="#a59cc0">Reads a growth direction</text>
  <path d="M 70 355.8 L 70.5 358.5 L 73.2 359 L 70.5 359.5 L 70 362.2 L 69.5 359.5 L 66.8 359 L 69.5 358.5 Z" fill="#d4af6a" opacity="0.8"/>
  <text x="84" y="364.0" font-family="Helvetica, Arial, sans-serif" font-size="16" fill="#a59cc0">Explains how Cancer Sun works</text>
  <path d="M 70 384.8 L 70.5 387.5 L 73.2 388 L 70.5 388.5 L 70 391.2 L 69.5 388.5 L 66.8 388 L 69.5 387.5 Z" fill="#d4af6a" opacity="0.8"/>
  <text x="84" y="393.0" font-family="Helvetica, Arial, sans-serif" font-size="16" fill="#a59cc0">Tracks transits as timing activators</text>
  <path d="M 380 419.5 L 380.7 423.3 L 384.5 424 L 380.7 424.7 L 380 428.5 L 379.3 424.7 L 375.5 424 L 379.3 423.3 Z" fill="#d4af6a" opacity="0.65"/>
  <rect x="46" y="437" width="668" height="143.0" rx="14" fill="#1d1740" fill-opacity="0.5" stroke="#d4af6a" stroke-opacity="0.22" stroke-width="0.9"/>
  <rect x="46" y="437" width="668" height="3.5" rx="1.8" fill="#d4af6a" fill-opacity="0.6"/>
  <path d="M 380 435.1 L 380.5 438.0 L 383.4 438.5 L 380.5 439.0 L 380 441.9 L 379.5 439.0 L 376.6 438.5 L 379.5 438.0 Z" fill="#f6e6bf" opacity="0.7"/>
  <text x="380" y="466.0" text-anchor="middle" font-family="Georgia, 'Times New Roman', serif" font-size="21" font-weight="700" letter-spacing="0.3" fill="#f3effb">Results-Driven Forecast</text>
  <path d="M 70 495.8 L 70.5 498.5 L 73.2 499 L 70.5 499.5 L 70 502.2 L 69.5 499.5 L 66.8 499 L 69.5 498.5 Z" fill="#d4af6a" opacity="0.8"/>
  <text x="84" y="504.0" font-family="Helvetica, Arial, sans-serif" font-size="16" fill="#a59cc0">Names a winner</text>
  <path d="M 70 524.8 L 70.5 527.5 L 73.2 528 L 70.5 528.5 L 70 531.2 L 69.5 528.5 L 66.8 528 L 69.5 527.5 Z" fill="#d4af6a" opacity="0.8"/>
  <text x="84" y="533.0" font-family="Helvetica, Arial, sans-serif" font-size="16" fill="#a59cc0">Stands or falls on verdict</text>
  <path d="M 70 553.8 L 70.5 556.5 L 73.2 557 L 70.5 557.5 L 70 560.2 L 69.5 557.5 L 66.8 557 L 69.5 556.5 Z" fill="#d4af6a" opacity="0.8"/>
  <text x="84" y="562.0" font-family="Helvetica, Arial, sans-serif" font-size="16" fill="#a59cc0">Sacrifices long-term credibility</text>
  <path d="M 202.22749999999988 585.4 L 202.6 587.6 L 204.8 588 L 202.6 588.4 L 202.22749999999988 590.6 L 201.8 588.4 L 199.6 588 L 201.8 587.6 Z" fill="#d4af6a" opacity="0.5"/>
  <text x="380" y="592" text-anchor="middle" font-family="Georgia, 'Times New Roman', serif" font-style="italic" font-size="11.5" fill="#7b738f">A self-reflection framework — tendencies, not predictions</text>
  <path d="M 557.7725000000002 585.4 L 558.2 587.6 L 560.4 588 L 558.2 588.4 L 557.7725000000002 590.6 L 557.4 588.4 L 555.2 588 L 557.4 587.6 Z" fill="#d4af6a" opacity="0.5"/>
</svg>
