<svg xmlns="http://www.w3.org/2000/svg" viewBox="0 0 760 614" role="img" aria-label="Cancer Sun, Cancer-Capricorn Axis, and Jupiter in Cancer">
  <defs>
    <linearGradient id="lionelmessizodiacsign1en-panel" x1="0" y1="0" x2="0.4" y2="1">
      <stop offset="0" stop-color="#1a1433"/><stop offset="0.55" stop-color="#120e26"/><stop offset="1" stop-color="#09081a"/>
    </linearGradient>
    <radialGradient id="lionelmessizodiacsign1en-foil" cx="0.42" cy="0.34" r="0.75">
      <stop offset="0" stop-color="#fbf0d2"/><stop offset="0.5" stop-color="#e8c882"/><stop offset="1" stop-color="#b8923f"/>
    </radialGradient>
    <radialGradient id="lionelmessizodiacsign1en-glow" cx="0.5" cy="0.5" r="0.5">
      <stop offset="0" stop-color="#f6e6bf"/><stop offset="1" stop-color="#f6e6bf" stop-opacity="0"/>
    </radialGradient>
    <radialGradient id="lionelmessizodiacsign1en-neb1" cx="0.5" cy="0.5" r="0.5">
      <stop offset="0" stop-color="#6f4bb0" stop-opacity="0.28"/><stop offset="1" stop-color="#6f4bb0" stop-opacity="0"/>
    </radialGradient>
    <radialGradient id="lionelmessizodiacsign1en-neb2" cx="0.5" cy="0.5" r="0.5">
      <stop offset="0" stop-color="#d4af6a" stop-opacity="0.16"/><stop offset="1" stop-color="#d4af6a" stop-opacity="0"/>
    </radialGradient>
    <linearGradient id="lionelmessizodiacsign1en-rule" x1="0" y1="0" x2="1" y2="0">
      <stop offset="0" stop-color="#d4af6a" stop-opacity="0"/><stop offset="0.5" stop-color="#d4af6a" stop-opacity="0.6"/><stop offset="1" stop-color="#d4af6a" stop-opacity="0"/>
    </linearGradient>
  </defs>
  <rect x="1.5" y="1.5" width="757" height="611" rx="22" fill="url(#lionelmessizodiacsign1en-panel)"/>
  <ellipse cx="198" cy="147" rx="380" ry="209" fill="url(#lionelmessizodiacsign1en-neb1)"/>
  <ellipse cx="623" cy="491" rx="334" ry="196" fill="url(#lionelmessizodiacsign1en-neb2)"/>
  <circle cx="261.3" cy="330.3" r="0.65" fill="#cfc8ea" opacity="0.37"/><circle cx="723.1" cy="422.0" r="0.89" fill="#cfc8ea" opacity="0.14"/><circle cx="317.0" cy="405.2" r="1.01" fill="#cfc8ea" opacity="0.33"/><circle cx="432.9" cy="47.3" r="0.52" fill="#cfc8ea" opacity="0.50"/><circle cx="285.6" cy="47.9" r="1.65" fill="#cfc8ea" opacity="0.26"/><circle cx="273.1" cy="363.0" r="0.77" fill="#cfc8ea" opacity="0.42"/><circle cx="308.9" cy="139.1" r="1.14" fill="#cfc8ea" opacity="0.15"/><circle cx="245.5" cy="251.9" r="0.43" fill="#cfc8ea" opacity="0.52"/><circle cx="13.8" cy="283.7" r="0.45" fill="#cfc8ea" opacity="0.32"/><circle cx="353.0" cy="115.2" r="1.31" fill="#cfc8ea" opacity="0.19"/><circle cx="383.1" cy="114.7" r="0.79" fill="#cfc8ea" opacity="0.18"/><circle cx="298.2" cy="20.7" r="1.59" fill="#cfc8ea" opacity="0.37"/><circle cx="364.2" cy="253.2" r="0.42" fill="#cfc8ea" opacity="0.25"/><circle cx="66.9" cy="60.6" r="1.66" fill="#cfc8ea" opacity="0.38"/><circle cx="179.2" cy="421.4" r="1.54" fill="#cfc8ea" opacity="0.53"/><circle cx="665.3" cy="457.1" r="1.21" fill="#cfc8ea" opacity="0.49"/><circle cx="488.3" cy="209.5" r="1.64" fill="#cfc8ea" opacity="0.21"/><circle cx="202.7" cy="374.4" r="1.36" fill="#cfc8ea" opacity="0.25"/><circle cx="712.2" cy="36.4" r="1.38" fill="#cfc8ea" opacity="0.37"/><circle cx="32.1" cy="479.0" r="1.28" fill="#cfc8ea" opacity="0.39"/><circle cx="387.2" cy="149.4" r="1.08" fill="#cfc8ea" opacity="0.37"/><circle cx="79.2" cy="160.4" r="1.38" fill="#cfc8ea" opacity="0.44"/><circle cx="155.0" cy="279.8" r="0.68" fill="#cfc8ea" opacity="0.29"/><circle cx="288.9" cy="430.4" r="1.00" fill="#cfc8ea" opacity="0.39"/><circle cx="305.6" cy="44.7" r="0.85" fill="#cfc8ea" opacity="0.46"/><circle cx="172.9" cy="470.6" r="1.35" fill="#cfc8ea" opacity="0.43"/><circle cx="135.7" cy="137.5" r="0.76" fill="#cfc8ea" opacity="0.12"/><circle cx="535.2" cy="49.3" r="1.12" fill="#cfc8ea" opacity="0.44"/><circle cx="687.3" cy="318.1" r="0.71" fill="#cfc8ea" opacity="0.22"/><circle cx="278.3" cy="597.5" r="1.04" fill="#cfc8ea" opacity="0.19"/><circle cx="665.2" cy="243.1" r="1.61" fill="#cfc8ea" opacity="0.38"/><circle cx="145.7" cy="315.0" r="1.68" fill="#cfc8ea" opacity="0.38"/><circle cx="35.5" cy="251.4" r="0.77" fill="#cfc8ea" opacity="0.54"/><circle cx="66.1" cy="187.1" r="1.57" fill="#cfc8ea" opacity="0.19"/><circle cx="266.2" cy="590.1" r="1.26" fill="#cfc8ea" opacity="0.19"/><circle cx="561.1" cy="555.1" r="1.22" fill="#cfc8ea" opacity="0.28"/><circle cx="717.5" cy="416.5" r="0.63" fill="#cfc8ea" opacity="0.52"/><circle cx="257.2" cy="395.2" r="0.59" fill="#cfc8ea" opacity="0.29"/><circle cx="395.4" cy="209.1" r="1.47" fill="#cfc8ea" opacity="0.51"/><circle cx="64.4" cy="40.3" r="1.59" fill="#cfc8ea" opacity="0.54"/><circle cx="553.2" cy="33.9" r="0.66" fill="#cfc8ea" opacity="0.43"/><circle cx="606.7" cy="410.2" r="1.06" fill="#cfc8ea" opacity="0.50"/><circle cx="186.1" cy="108.5" r="0.93" fill="#cfc8ea" opacity="0.19"/><circle cx="276.6" cy="462.6" r="1.06" fill="#cfc8ea" opacity="0.33"/><circle cx="467.1" cy="363.5" r="1.30" fill="#cfc8ea" opacity="0.48"/><circle cx="642.8" cy="560.8" r="1.23" fill="#cfc8ea" opacity="0.18"/><circle cx="107.5" cy="307.1" r="0.57" fill="#cfc8ea" opacity="0.17"/><circle cx="600.8" cy="529.8" r="1.48" fill="#cfc8ea" opacity="0.14"/><circle cx="522.7" cy="17.9" r="1.64" fill="#cfc8ea" opacity="0.38"/><circle cx="457.7" cy="365.1" r="1.63" fill="#cfc8ea" opacity="0.22"/><circle cx="198.4" cy="222.7" r="1.61" fill="#cfc8ea" opacity="0.40"/><circle cx="452.8" cy="16.7" r="0.94" fill="#cfc8ea" opacity="0.45"/><path d="M 269.08166663348675 85.0 L 269.7 88.2 L 273.0 88.86841347953305 L 269.7 89.5 L 269.08166663348675 92.8 L 268.5 89.5 L 265.2 88.86841347953305 L 268.5 88.2 Z" fill="#f6e6bf" opacity="0.5410989355994389"/><path d="M 201.88035599142313 403.7 L 202.3 405.9 L 204.5 406.3415757971816 L 202.3 406.8 L 201.88035599142313 408.9 L 201.5 406.8 L 199.3 406.3415757971816 L 201.5 405.9 Z" fill="#f6e6bf" opacity="0.7067150383954868"/><path d="M 307.4563517868519 227.1 L 307.9 229.2 L 310.0 229.5767574212514 L 307.9 230.0 L 307.4563517868519 232.1 L 307.1 230.0 L 304.9 229.5767574212514 L 307.1 229.2 Z" fill="#f6e6bf" opacity="0.5085462483344599"/><path d="M 294.6524560675025 62.3 L 295.1 64.5 L 297.3 64.94758363021538 L 295.1 65.4 L 294.6524560675025 67.6 L 294.2 65.4 L 292.0 64.94758363021538 L 294.2 64.5 Z" fill="#f6e6bf" opacity="0.7378119667759165"/><path d="M 100.49186028540134 256.4 L 101.1 259.4 L 104.0 259.9904375760816 L 101.1 260.6 L 100.49186028540134 263.5 L 99.9 260.6 L 96.9 259.9904375760816 L 99.9 259.4 Z" fill="#f6e6bf" opacity="0.7890316896839067"/><path d="M 261.3 330.3 L 317.0 405.2 L 245.5 251.9 L 202.7 374.4 L 64.4 40.3" fill="none" stroke="#d4af6a" stroke-width="0.6" opacity="0.12"/>
  <rect x="1.5" y="1.5" width="757" height="611" rx="22" fill="none" stroke="#d4af6a" stroke-opacity="0.34" stroke-width="1.2"/>
  <rect x="7" y="7" width="746" height="600" rx="17" fill="none" stroke="#d4af6a" stroke-opacity="0.12" stroke-width="0.8"/>
  <path d="M 16 12.8 L 16.5 15.5 L 19.2 16 L 16.5 16.5 L 16 19.2 L 15.5 16.5 L 12.8 16 L 15.5 15.5 Z" fill="#d4af6a" opacity="0.4"/><path d="M 744 12.8 L 744.5 15.5 L 747.2 16 L 744.5 16.5 L 744 19.2 L 743.5 16.5 L 740.8 16 L 743.5 15.5 Z" fill="#d4af6a" opacity="0.4"/><path d="M 16 594.8 L 16.5 597.5 L 19.2 598 L 16.5 598.5 L 16 601.2 L 15.5 598.5 L 12.8 598 L 15.5 597.5 Z" fill="#d4af6a" opacity="0.4"/><path d="M 744 594.8 L 744.5 597.5 L 747.2 598 L 744.5 598.5 L 744 601.2 L 743.5 598.5 L 740.8 598 L 743.5 597.5 Z" fill="#d4af6a" opacity="0.4"/>
  <text x="380" y="46" text-anchor="middle" font-family="Georgia, 'Times New Roman', serif" font-size="22" letter-spacing="0.4" fill="#efeaf8">Cancer Sun, Cancer-Capricorn Axis, and Jupiter in Cancer</text>
  <line x1="230" y1="67" x2="368" y2="67" stroke="url(#lionelmessizodiacsign1en-rule)" stroke-width="1"/>
  <line x1="392" y1="67" x2="530" y2="67" stroke="url(#lionelmessizodiacsign1en-rule)" stroke-width="1"/>
  <path d="M 380 62.0 L 380.8 66.2 L 385.0 67 L 380.8 67.8 L 380 72.0 L 379.2 67.8 L 375.0 67 L 379.2 66.2 Z" fill="#d4af6a" opacity="0.85"/>

  <rect x="46" y="99" width="668" height="143.0" rx="14" fill="#1d1740" fill-opacity="0.5" stroke="#d4af6a" stroke-opacity="0.22" stroke-width="0.9"/>
  <rect x="46" y="99" width="668" height="3.5" rx="1.8" fill="#d4af6a" fill-opacity="0.6"/>
  <path d="M 380 97.1 L 380.5 100.0 L 383.4 100.5 L 380.5 101.0 L 380 103.9 L 379.5 101.0 L 376.6 100.5 L 379.5 100.0 Z" fill="#f6e6bf" opacity="0.7"/>
  <text x="380" y="128.0" text-anchor="middle" font-family="Georgia, 'Times New Roman', serif" font-size="21" font-weight="700" letter-spacing="0.3" fill="#f3effb">Cancer Sun</text>
  <path d="M 70 157.8 L 70.5 160.5 L 73.2 161 L 70.5 161.5 L 70 164.2 L 69.5 161.5 L 66.8 161 L 69.5 160.5 Z" fill="#d4af6a" opacity="0.8"/>
  <text x="84" y="166.0" font-family="Helvetica, Arial, sans-serif" font-size="16" fill="#a59cc0">Fixed by June 24, 1987 birth date</text>
  <path d="M 70 186.8 L 70.5 189.5 L 73.2 190 L 70.5 190.5 L 70 193.2 L 69.5 190.5 L 66.8 190 L 69.5 189.5 Z" fill="#d4af6a" opacity="0.8"/>
  <text x="84" y="195.0" font-family="Helvetica, Arial, sans-serif" font-size="16" fill="#a59cc0">Ties identity to security and belonging</text>
  <path d="M 70 215.8 L 70.5 218.5 L 73.2 219 L 70.5 219.5 L 70 222.2 L 69.5 219.5 L 66.8 219 L 69.5 218.5 Z" fill="#d4af6a" opacity="0.8"/>
  <text x="84" y="224.0" font-family="Helvetica, Arial, sans-serif" font-size="16" fill="#a59cc0">Moon rules the sign, coloring expression</text>
  <path d="M 380 250.5 L 380.7 254.3 L 384.5 255 L 380.7 255.7 L 380 259.5 L 379.3 255.7 L 375.5 255 L 379.3 254.3 Z" fill="#d4af6a" opacity="0.65"/>
  <rect x="46" y="268" width="668" height="143.0" rx="14" fill="#1d1740" fill-opacity="0.5" stroke="#d4af6a" stroke-opacity="0.22" stroke-width="0.9"/>
  <rect x="46" y="268" width="668" height="3.5" rx="1.8" fill="#d4af6a" fill-opacity="0.6"/>
  <path d="M 380 266.1 L 380.5 269.0 L 383.4 269.5 L 380.5 270.0 L 380 272.9 L 379.5 270.0 L 376.6 269.5 L 379.5 269.0 Z" fill="#f6e6bf" opacity="0.7"/>
  <text x="380" y="297.0" text-anchor="middle" font-family="Georgia, 'Times New Roman', serif" font-size="21" font-weight="700" letter-spacing="0.3" fill="#f3effb">Cancer-Capricorn Axis</text>
  <path d="M 70 326.8 L 70.5 329.5 L 73.2 330 L 70.5 330.5 L 70 333.2 L 69.5 330.5 L 66.8 330 L 69.5 329.5 Z" fill="#d4af6a" opacity="0.8"/>
  <text x="84" y="335.0" font-family="Helvetica, Arial, sans-serif" font-size="16" fill="#a59cc0">Pairs security-seeking Sun with reported Capricorn rising</text>
  <path d="M 70 355.8 L 70.5 358.5 L 73.2 359 L 70.5 359.5 L 70 362.2 L 69.5 359.5 L 66.8 359 L 69.5 358.5 Z" fill="#d4af6a" opacity="0.8"/>
  <text x="84" y="364.0" font-family="Helvetica, Arial, sans-serif" font-size="16" fill="#a59cc0">Growth arc: private care toward earned authority</text>
  <path d="M 70 384.8 L 70.5 387.5 L 73.2 388 L 70.5 388.5 L 70 391.2 L 69.5 388.5 L 66.8 388 L 69.5 387.5 Z" fill="#d4af6a" opacity="0.8"/>
  <text x="84" y="393.0" font-family="Helvetica, Arial, sans-serif" font-size="16" fill="#a59cc0">Provisional until birth time is firmly confirmed</text>
  <path d="M 380 419.5 L 380.7 423.3 L 384.5 424 L 380.7 424.7 L 380 428.5 L 379.3 424.7 L 375.5 424 L 379.3 423.3 Z" fill="#d4af6a" opacity="0.65"/>
  <rect x="46" y="437" width="668" height="143.0" rx="14" fill="#1d1740" fill-opacity="0.5" stroke="#d4af6a" stroke-opacity="0.22" stroke-width="0.9"/>
  <rect x="46" y="437" width="668" height="3.5" rx="1.8" fill="#d4af6a" fill-opacity="0.6"/>
  <path d="M 380 435.1 L 380.5 438.0 L 383.4 438.5 L 380.5 439.0 L 380 441.9 L 379.5 439.0 L 376.6 438.5 L 379.5 438.0 Z" fill="#f6e6bf" opacity="0.7"/>
  <text x="380" y="466.0" text-anchor="middle" font-family="Georgia, 'Times New Roman', serif" font-size="21" font-weight="700" letter-spacing="0.3" fill="#f3effb">Jupiter in Cancer (to Jun 30)</text>
  <path d="M 70 495.8 L 70.5 498.5 L 73.2 499 L 70.5 499.5 L 70 502.2 L 69.5 499.5 L 66.8 499 L 69.5 498.5 Z" fill="#d4af6a" opacity="0.8"/>
  <text x="84" y="504.0" font-family="Helvetica, Arial, sans-serif" font-size="16" fill="#a59cc0">Transiting Jupiter in Cancer through June 30, 2026</text>
  <path d="M 70 524.8 L 70.5 527.5 L 73.2 528 L 70.5 528.5 L 70 531.2 L 69.5 528.5 L 66.8 528 L 69.5 527.5 Z" fill="#d4af6a" opacity="0.8"/>
  <text x="84" y="533.0" font-family="Helvetica, Arial, sans-serif" font-size="16" fill="#a59cc0">Same-sign backdrop, not an exact natal contact</text>
  <path d="M 70 553.8 L 70.5 556.5 L 73.2 557 L 70.5 557.5 L 70 560.2 L 69.5 557.5 L 66.8 557 L 69.5 556.5 Z" fill="#d4af6a" opacity="0.8"/>
  <text x="84" y="562.0" font-family="Helvetica, Arial, sans-serif" font-size="16" fill="#a59cc0">Broad emphasis on belonging and team identity</text>
  <path d="M 202.22749999999988 585.4 L 202.6 587.6 L 204.8 588 L 202.6 588.4 L 202.22749999999988 590.6 L 201.8 588.4 L 199.6 588 L 201.8 587.6 Z" fill="#d4af6a" opacity="0.5"/>
  <text x="380" y="592" text-anchor="middle" font-family="Georgia, 'Times New Roman', serif" font-style="italic" font-size="11.5" fill="#7b738f">A self-reflection framework — tendencies, not predictions</text>
  <path d="M 557.7725000000002 585.4 L 558.2 587.6 L 560.4 588 L 558.2 588.4 L 557.7725000000002 590.6 L 557.4 588.4 L 555.2 588 L 557.4 587.6 Z" fill="#d4af6a" opacity="0.5"/>
</svg>
