<svg xmlns="http://www.w3.org/2000/svg" viewBox="0 0 760 527" role="img" aria-label="Reading a Capricorn Sun: The Method">
  <defs>
    <linearGradient id="luisdiazbirthchart1en-panel" x1="0" y1="0" x2="0.4" y2="1">
      <stop offset="0" stop-color="#1a1433"/><stop offset="0.55" stop-color="#120e26"/><stop offset="1" stop-color="#09081a"/>
    </linearGradient>
    <radialGradient id="luisdiazbirthchart1en-foil" cx="0.42" cy="0.34" r="0.75">
      <stop offset="0" stop-color="#fbf0d2"/><stop offset="0.5" stop-color="#e8c882"/><stop offset="1" stop-color="#b8923f"/>
    </radialGradient>
    <radialGradient id="luisdiazbirthchart1en-glow" cx="0.5" cy="0.5" r="0.5">
      <stop offset="0" stop-color="#f6e6bf"/><stop offset="1" stop-color="#f6e6bf" stop-opacity="0"/>
    </radialGradient>
    <radialGradient id="luisdiazbirthchart1en-neb1" cx="0.5" cy="0.5" r="0.5">
      <stop offset="0" stop-color="#6f4bb0" stop-opacity="0.28"/><stop offset="1" stop-color="#6f4bb0" stop-opacity="0"/>
    </radialGradient>
    <radialGradient id="luisdiazbirthchart1en-neb2" cx="0.5" cy="0.5" r="0.5">
      <stop offset="0" stop-color="#d4af6a" stop-opacity="0.16"/><stop offset="1" stop-color="#d4af6a" stop-opacity="0"/>
    </radialGradient>
    <linearGradient id="luisdiazbirthchart1en-rule" x1="0" y1="0" x2="1" y2="0">
      <stop offset="0" stop-color="#d4af6a" stop-opacity="0"/><stop offset="0.5" stop-color="#d4af6a" stop-opacity="0.6"/><stop offset="1" stop-color="#d4af6a" stop-opacity="0"/>
    </linearGradient>
  </defs>
  <rect x="1.5" y="1.5" width="757" height="524" rx="22" fill="url(#luisdiazbirthchart1en-panel)"/>
  <ellipse cx="198" cy="126" rx="380" ry="179" fill="url(#luisdiazbirthchart1en-neb1)"/>
  <ellipse cx="623" cy="422" rx="334" ry="169" fill="url(#luisdiazbirthchart1en-neb2)"/>
  <circle cx="715.0" cy="136.1" r="0.79" fill="#cfc8ea" opacity="0.35"/><circle cx="408.8" cy="475.6" r="1.04" fill="#cfc8ea" opacity="0.42"/><circle cx="427.8" cy="29.8" r="1.12" fill="#cfc8ea" opacity="0.35"/><circle cx="745.9" cy="213.8" r="1.24" fill="#cfc8ea" opacity="0.28"/><circle cx="682.3" cy="329.8" r="1.61" fill="#cfc8ea" opacity="0.18"/><circle cx="103.0" cy="333.7" r="0.97" fill="#cfc8ea" opacity="0.20"/><circle cx="65.0" cy="194.0" r="0.82" fill="#cfc8ea" opacity="0.48"/><circle cx="174.0" cy="209.0" r="1.20" fill="#cfc8ea" opacity="0.19"/><circle cx="291.8" cy="247.0" r="1.04" fill="#cfc8ea" opacity="0.39"/><circle cx="332.9" cy="182.4" r="0.49" fill="#cfc8ea" opacity="0.44"/><circle cx="683.8" cy="15.5" r="0.85" fill="#cfc8ea" opacity="0.31"/><circle cx="184.5" cy="157.6" r="1.38" fill="#cfc8ea" opacity="0.28"/><circle cx="742.3" cy="172.2" r="0.69" fill="#cfc8ea" opacity="0.25"/><circle cx="115.8" cy="378.8" r="0.44" fill="#cfc8ea" opacity="0.47"/><circle cx="641.6" cy="475.5" r="1.40" fill="#cfc8ea" opacity="0.40"/><circle cx="562.7" cy="170.1" r="0.64" fill="#cfc8ea" opacity="0.42"/><circle cx="202.4" cy="506.4" r="0.67" fill="#cfc8ea" opacity="0.14"/><circle cx="201.7" cy="222.4" r="1.04" fill="#cfc8ea" opacity="0.24"/><circle cx="433.4" cy="127.8" r="1.15" fill="#cfc8ea" opacity="0.43"/><circle cx="246.7" cy="267.1" r="1.47" fill="#cfc8ea" opacity="0.51"/><circle cx="723.9" cy="173.9" r="1.08" fill="#cfc8ea" opacity="0.53"/><circle cx="282.6" cy="246.3" r="0.78" fill="#cfc8ea" opacity="0.24"/><circle cx="129.9" cy="248.9" r="1.39" fill="#cfc8ea" opacity="0.45"/><circle cx="316.6" cy="67.4" r="0.47" fill="#cfc8ea" opacity="0.14"/><circle cx="706.2" cy="203.1" r="1.24" fill="#cfc8ea" opacity="0.36"/><circle cx="58.1" cy="288.6" r="1.17" fill="#cfc8ea" opacity="0.35"/><circle cx="682.5" cy="312.0" r="1.65" fill="#cfc8ea" opacity="0.31"/><circle cx="609.4" cy="455.0" r="0.43" fill="#cfc8ea" opacity="0.46"/><circle cx="385.6" cy="39.5" r="1.06" fill="#cfc8ea" opacity="0.44"/><circle cx="120.7" cy="235.9" r="0.45" fill="#cfc8ea" opacity="0.26"/><circle cx="225.3" cy="77.3" r="1.14" fill="#cfc8ea" opacity="0.42"/><circle cx="737.2" cy="344.7" r="1.43" fill="#cfc8ea" opacity="0.48"/><circle cx="165.7" cy="432.1" r="1.60" fill="#cfc8ea" opacity="0.41"/><circle cx="280.2" cy="398.5" r="1.61" fill="#cfc8ea" opacity="0.43"/><circle cx="244.6" cy="69.4" r="1.28" fill="#cfc8ea" opacity="0.41"/><circle cx="274.7" cy="408.7" r="1.47" fill="#cfc8ea" opacity="0.29"/><circle cx="496.4" cy="199.7" r="0.87" fill="#cfc8ea" opacity="0.13"/><circle cx="490.1" cy="109.6" r="0.42" fill="#cfc8ea" opacity="0.16"/><circle cx="607.0" cy="387.1" r="0.92" fill="#cfc8ea" opacity="0.18"/><circle cx="428.1" cy="95.1" r="1.29" fill="#cfc8ea" opacity="0.26"/><circle cx="412.8" cy="465.4" r="0.71" fill="#cfc8ea" opacity="0.50"/><circle cx="157.1" cy="309.6" r="1.31" fill="#cfc8ea" opacity="0.37"/><circle cx="152.3" cy="431.3" r="0.97" fill="#cfc8ea" opacity="0.40"/><circle cx="113.1" cy="50.7" r="1.51" fill="#cfc8ea" opacity="0.40"/><circle cx="129.2" cy="398.4" r="0.68" fill="#cfc8ea" opacity="0.53"/><path d="M 624.7959143407643 404.3 L 625.4 407.6 L 628.8 408.2480726724025 L 625.4 408.9 L 624.7959143407643 412.2 L 624.2 408.9 L 620.8 408.2480726724025 L 624.2 407.6 Z" fill="#f6e6bf" opacity="0.678443658654578"/><path d="M 20.228232126682997 418.0 L 20.7 420.6 L 23.4 421.10870531830005 L 20.7 421.6 L 20.228232126682997 424.3 L 19.7 421.6 L 17.1 421.10870531830005 L 19.7 420.6 Z" fill="#f6e6bf" opacity="0.7818358538905159"/><path d="M 733.1224733926356 247.7 L 733.6 250.0 L 735.8 250.39532847120427 L 733.6 250.8 L 733.1224733926356 253.1 L 732.7 250.8 L 730.4 250.39532847120427 L 732.7 250.0 Z" fill="#f6e6bf" opacity="0.5239940085681155"/><path d="M 738.9822220467031 215.3 L 739.6 218.4 L 742.6 218.95312717254274 L 739.6 219.5 L 738.9822220467031 222.6 L 738.4 219.5 L 735.3 218.95312717254274 L 738.4 218.4 Z" fill="#f6e6bf" opacity="0.502068043150939"/><path d="M 453.6401330418885 82.9 L 454.3 86.2 L 457.6 86.8684172926005 L 454.3 87.5 L 453.6401330418885 90.8 L 453.0 87.5 L 449.7 86.8684172926005 L 453.0 86.2 Z" fill="#f6e6bf" opacity="0.7401804580586031"/><path d="M 737.2 344.7 L 490.1 109.6 L 428.1 95.1 L 152.3 431.3" fill="none" stroke="#d4af6a" stroke-width="0.6" opacity="0.12"/>
  <rect x="1.5" y="1.5" width="757" height="524" rx="22" fill="none" stroke="#d4af6a" stroke-opacity="0.34" stroke-width="1.2"/>
  <rect x="7" y="7" width="746" height="513" rx="17" fill="none" stroke="#d4af6a" stroke-opacity="0.12" stroke-width="0.8"/>
  <path d="M 16 12.8 L 16.5 15.5 L 19.2 16 L 16.5 16.5 L 16 19.2 L 15.5 16.5 L 12.8 16 L 15.5 15.5 Z" fill="#d4af6a" opacity="0.4"/><path d="M 744 12.8 L 744.5 15.5 L 747.2 16 L 744.5 16.5 L 744 19.2 L 743.5 16.5 L 740.8 16 L 743.5 15.5 Z" fill="#d4af6a" opacity="0.4"/><path d="M 16 507.8 L 16.5 510.5 L 19.2 511 L 16.5 511.5 L 16 514.2 L 15.5 511.5 L 12.8 511 L 15.5 510.5 Z" fill="#d4af6a" opacity="0.4"/><path d="M 744 507.8 L 744.5 510.5 L 747.2 511 L 744.5 511.5 L 744 514.2 L 743.5 511.5 L 740.8 511 L 743.5 510.5 Z" fill="#d4af6a" opacity="0.4"/>
  <text x="380" y="46" text-anchor="middle" font-family="Georgia, 'Times New Roman', serif" font-size="22" letter-spacing="0.4" fill="#efeaf8">Reading a Capricorn Sun: The Method</text>
  <line x1="230" y1="67" x2="368" y2="67" stroke="url(#luisdiazbirthchart1en-rule)" stroke-width="1"/>
  <line x1="392" y1="67" x2="530" y2="67" stroke="url(#luisdiazbirthchart1en-rule)" stroke-width="1"/>
  <path d="M 380 62.0 L 380.8 66.2 L 385.0 67 L 380.8 67.8 L 380 72.0 L 379.2 67.8 L 375.0 67 L 379.2 66.2 Z" fill="#d4af6a" opacity="0.85"/>
  <line x1="92" y1="113" x2="92" y2="410" stroke="#d4af6a" stroke-opacity="0.3" stroke-width="1.6"/>
  <circle cx="92" cy="113" r="13.0" fill="url(#luisdiazbirthchart1en-glow)" opacity="0.5"/>
    <circle cx="92" cy="113" r="8" fill="url(#luisdiazbirthchart1en-foil)" stroke="#f6e6bf" stroke-opacity="0.5" stroke-width="0.8"/>
    <circle cx="92" cy="110.8" r="4.8" fill="#ffffff" opacity="0.10"/>
    <path d="M 92 109.0 L 92.6 112.4 L 96.0 113 L 92.6 113.6 L 92 117.0 L 91.4 113.6 L 88.0 113 L 91.4 112.4 Z" fill="#3a2c12" opacity="0.85"/>
  <text x="132" y="118.0" font-family="Georgia, 'Times New Roman', serif" font-size="19" font-weight="700" letter-spacing="0.4" fill="#f6e6bf">Step 1</text>
  <text x="132" y="141.0" font-family="Georgia, 'Times New Roman', serif" font-size="20.5" fill="#f3effb">Anchor the Verified Date</text>
  <text x="132" y="164.0" font-family="Helvetica, Arial, sans-serif" font-size="14.5" fill="#a59cc0">13 January 1997, Barrancas, La Guajira — fixes the Sun at about 23 degrees of</text>
  <text x="132" y="181.0" font-family="Helvetica, Arial, sans-serif" font-size="14.5" fill="#a59cc0">Capricorn</text>
  <circle cx="92" cy="212" r="13.0" fill="url(#luisdiazbirthchart1en-glow)" opacity="0.5"/>
    <circle cx="92" cy="212" r="8" fill="url(#luisdiazbirthchart1en-foil)" stroke="#f6e6bf" stroke-opacity="0.5" stroke-width="0.8"/>
    <circle cx="92" cy="209.8" r="4.8" fill="#ffffff" opacity="0.10"/>
    <path d="M 92 208.0 L 92.6 211.4 L 96.0 212 L 92.6 212.6 L 92 216.0 L 91.4 212.6 L 88.0 212 L 91.4 211.4 Z" fill="#3a2c12" opacity="0.85"/>
  <text x="132" y="217.0" font-family="Georgia, 'Times New Roman', serif" font-size="19" font-weight="700" letter-spacing="0.4" fill="#f6e6bf">Step 2</text>
  <text x="132" y="240.0" font-family="Georgia, 'Times New Roman', serif" font-size="20.5" fill="#f3effb">Flag the Unknown Birth Time</text>
  <text x="132" y="263.0" font-family="Helvetica, Arial, sans-serif" font-size="14.5" fill="#a59cc0">No public birth time means Moon, Ascendant, and houses stay unverified — never</text>
  <text x="132" y="280.0" font-family="Helvetica, Arial, sans-serif" font-size="14.5" fill="#a59cc0">invented</text>
  <circle cx="92" cy="311" r="13.0" fill="url(#luisdiazbirthchart1en-glow)" opacity="0.5"/>
    <circle cx="92" cy="311" r="8" fill="url(#luisdiazbirthchart1en-foil)" stroke="#f6e6bf" stroke-opacity="0.5" stroke-width="0.8"/>
    <circle cx="92" cy="308.8" r="4.8" fill="#ffffff" opacity="0.10"/>
    <path d="M 92 307.0 L 92.6 310.4 L 96.0 311 L 92.6 311.6 L 92 315.0 L 91.4 311.6 L 88.0 311 L 91.4 310.4 Z" fill="#3a2c12" opacity="0.85"/>
  <text x="132" y="316.0" font-family="Georgia, 'Times New Roman', serif" font-size="19" font-weight="700" letter-spacing="0.4" fill="#f6e6bf">Step 3</text>
  <text x="132" y="339.0" font-family="Georgia, 'Times New Roman', serif" font-size="20.5" fill="#f3effb">Read the Capricorn Arc as Disciplined Ascent</text>
  <text x="132" y="362.0" font-family="Helvetica, Arial, sans-serif" font-size="14.5" fill="#a59cc0">Structured endurance, slow climb from peripheral origins to peak institutions — a</text>
  <text x="132" y="379.0" font-family="Helvetica, Arial, sans-serif" font-size="14.5" fill="#a59cc0">developmental theme, not a personality verdict</text>
  <circle cx="92" cy="410" r="13.0" fill="url(#luisdiazbirthchart1en-glow)" opacity="0.5"/>
    <circle cx="92" cy="410" r="8" fill="url(#luisdiazbirthchart1en-foil)" stroke="#f6e6bf" stroke-opacity="0.5" stroke-width="0.8"/>
    <circle cx="92" cy="407.8" r="4.8" fill="#ffffff" opacity="0.10"/>
    <path d="M 92 406.0 L 92.6 409.4 L 96.0 410 L 92.6 410.6 L 92 414.0 L 91.4 410.6 L 88.0 410 L 91.4 409.4 Z" fill="#3a2c12" opacity="0.85"/>
  <text x="132" y="415.0" font-family="Georgia, 'Times New Roman', serif" font-size="19" font-weight="700" letter-spacing="0.4" fill="#f6e6bf">Step 4</text>
  <text x="132" y="438.0" font-family="Georgia, 'Times New Roman', serif" font-size="20.5" fill="#f3effb">Hold Saturn in Aries as Symbolic Backdrop</text>
  <text x="132" y="461.0" font-family="Helvetica, Arial, sans-serif" font-size="14.5" fill="#a59cc0">Saturn transits Aries 2025–2028, squaring natal Capricorn — a multi-year arc of</text>
  <text x="132" y="478.0" font-family="Helvetica, Arial, sans-serif" font-size="14.5" fill="#a59cc0">earned thresholds, read as theme only, never as match verdict</text>
  <path d="M 202.22749999999988 498.4 L 202.6 500.6 L 204.8 501 L 202.6 501.4 L 202.22749999999988 503.6 L 201.8 501.4 L 199.6 501 L 201.8 500.6 Z" fill="#d4af6a" opacity="0.5"/>
  <text x="380" y="505" text-anchor="middle" font-family="Georgia, 'Times New Roman', serif" font-style="italic" font-size="11.5" fill="#7b738f">A self-reflection framework — tendencies, not predictions</text>
  <path d="M 557.7725000000002 498.4 L 558.2 500.6 L 560.4 501 L 558.2 501.4 L 557.7725000000002 503.6 L 557.4 501.4 L 555.2 501 L 557.4 500.6 Z" fill="#d4af6a" opacity="0.5"/>
</svg>
