<svg xmlns="http://www.w3.org/2000/svg" viewBox="0 0 760 529" role="img" aria-label="6 Steps to Read Your Mars-Return Chart">
  <defs>
    <linearGradient id="marsreturnastrology1en-panel" x1="0" y1="0" x2="0.4" y2="1">
      <stop offset="0" stop-color="#1a1433"/><stop offset="0.55" stop-color="#120e26"/><stop offset="1" stop-color="#09081a"/>
    </linearGradient>
    <radialGradient id="marsreturnastrology1en-foil" cx="0.42" cy="0.34" r="0.75">
      <stop offset="0" stop-color="#fbf0d2"/><stop offset="0.5" stop-color="#e8c882"/><stop offset="1" stop-color="#b8923f"/>
    </radialGradient>
    <radialGradient id="marsreturnastrology1en-glow" cx="0.5" cy="0.5" r="0.5">
      <stop offset="0" stop-color="#f6e6bf"/><stop offset="1" stop-color="#f6e6bf" stop-opacity="0"/>
    </radialGradient>
    <radialGradient id="marsreturnastrology1en-neb1" cx="0.5" cy="0.5" r="0.5">
      <stop offset="0" stop-color="#6f4bb0" stop-opacity="0.28"/><stop offset="1" stop-color="#6f4bb0" stop-opacity="0"/>
    </radialGradient>
    <radialGradient id="marsreturnastrology1en-neb2" cx="0.5" cy="0.5" r="0.5">
      <stop offset="0" stop-color="#d4af6a" stop-opacity="0.16"/><stop offset="1" stop-color="#d4af6a" stop-opacity="0"/>
    </radialGradient>
    <linearGradient id="marsreturnastrology1en-rule" x1="0" y1="0" x2="1" y2="0">
      <stop offset="0" stop-color="#d4af6a" stop-opacity="0"/><stop offset="0.5" stop-color="#d4af6a" stop-opacity="0.6"/><stop offset="1" stop-color="#d4af6a" stop-opacity="0"/>
    </linearGradient>
  </defs>
  <rect x="1.5" y="1.5" width="757" height="526" rx="22" fill="url(#marsreturnastrology1en-panel)"/>
  <ellipse cx="198" cy="127" rx="380" ry="180" fill="url(#marsreturnastrology1en-neb1)"/>
  <ellipse cx="623" cy="423" rx="334" ry="169" fill="url(#marsreturnastrology1en-neb2)"/>
  <circle cx="577.3" cy="185.8" r="0.64" fill="#cfc8ea" opacity="0.25"/><circle cx="429.3" cy="360.8" r="1.09" fill="#cfc8ea" opacity="0.53"/><circle cx="532.5" cy="90.3" r="1.40" fill="#cfc8ea" opacity="0.26"/><circle cx="566.4" cy="397.7" r="1.17" fill="#cfc8ea" opacity="0.45"/><circle cx="408.3" cy="55.0" r="0.67" fill="#cfc8ea" opacity="0.35"/><circle cx="26.5" cy="278.9" r="0.69" fill="#cfc8ea" opacity="0.52"/><circle cx="249.2" cy="396.5" r="1.08" fill="#cfc8ea" opacity="0.14"/><circle cx="564.2" cy="386.9" r="0.72" fill="#cfc8ea" opacity="0.40"/><circle cx="440.6" cy="282.2" r="0.46" fill="#cfc8ea" opacity="0.50"/><circle cx="46.8" cy="468.1" r="1.55" fill="#cfc8ea" opacity="0.14"/><circle cx="273.3" cy="324.5" r="0.67" fill="#cfc8ea" opacity="0.26"/><circle cx="412.3" cy="492.0" r="0.63" fill="#cfc8ea" opacity="0.35"/><circle cx="571.0" cy="78.4" r="1.44" fill="#cfc8ea" opacity="0.37"/><circle cx="708.9" cy="189.9" r="0.43" fill="#cfc8ea" opacity="0.20"/><circle cx="707.2" cy="304.0" r="1.69" fill="#cfc8ea" opacity="0.54"/><circle cx="675.5" cy="500.1" r="1.68" fill="#cfc8ea" opacity="0.39"/><circle cx="600.2" cy="397.9" r="0.98" fill="#cfc8ea" opacity="0.36"/><circle cx="476.8" cy="396.2" r="0.67" fill="#cfc8ea" opacity="0.20"/><circle cx="623.1" cy="418.1" r="1.41" fill="#cfc8ea" opacity="0.26"/><circle cx="740.2" cy="172.2" r="1.24" fill="#cfc8ea" opacity="0.24"/><circle cx="314.4" cy="424.8" r="0.55" fill="#cfc8ea" opacity="0.16"/><circle cx="95.3" cy="453.9" r="1.17" fill="#cfc8ea" opacity="0.32"/><circle cx="16.4" cy="330.7" r="1.50" fill="#cfc8ea" opacity="0.21"/><circle cx="304.3" cy="406.3" r="0.42" fill="#cfc8ea" opacity="0.28"/><circle cx="232.4" cy="241.6" r="0.42" fill="#cfc8ea" opacity="0.44"/><circle cx="745.5" cy="228.7" r="1.58" fill="#cfc8ea" opacity="0.36"/><circle cx="153.9" cy="287.6" r="1.13" fill="#cfc8ea" opacity="0.24"/><circle cx="145.1" cy="216.7" r="0.63" fill="#cfc8ea" opacity="0.16"/><circle cx="544.6" cy="252.1" r="0.77" fill="#cfc8ea" opacity="0.41"/><circle cx="423.1" cy="215.8" r="1.26" fill="#cfc8ea" opacity="0.34"/><circle cx="669.9" cy="138.1" r="1.28" fill="#cfc8ea" opacity="0.40"/><circle cx="103.9" cy="458.1" r="1.60" fill="#cfc8ea" opacity="0.43"/><circle cx="371.8" cy="173.7" r="0.74" fill="#cfc8ea" opacity="0.28"/><circle cx="191.1" cy="101.5" r="1.01" fill="#cfc8ea" opacity="0.41"/><circle cx="48.0" cy="13.5" r="1.37" fill="#cfc8ea" opacity="0.19"/><circle cx="510.0" cy="100.3" r="1.58" fill="#cfc8ea" opacity="0.18"/><circle cx="392.2" cy="39.2" r="0.43" fill="#cfc8ea" opacity="0.30"/><circle cx="490.6" cy="311.1" r="1.32" fill="#cfc8ea" opacity="0.34"/><circle cx="417.8" cy="367.5" r="1.23" fill="#cfc8ea" opacity="0.14"/><circle cx="201.5" cy="273.0" r="0.88" fill="#cfc8ea" opacity="0.53"/><circle cx="290.0" cy="216.5" r="0.50" fill="#cfc8ea" opacity="0.45"/><circle cx="264.8" cy="109.8" r="0.44" fill="#cfc8ea" opacity="0.15"/><circle cx="120.5" cy="217.1" r="0.73" fill="#cfc8ea" opacity="0.39"/><circle cx="676.5" cy="118.6" r="1.07" fill="#cfc8ea" opacity="0.22"/><circle cx="331.2" cy="106.9" r="1.17" fill="#cfc8ea" opacity="0.53"/><path d="M 60.30299057252705 93.2 L 60.8 95.6 L 63.2 96.059546881821 L 60.8 96.5 L 60.30299057252705 98.9 L 59.8 96.5 L 57.4 96.059546881821 L 59.8 95.6 Z" fill="#f6e6bf" opacity="0.7399680841714144"/><path d="M 127.93197862245142 251.1 L 128.4 253.4 L 130.7 253.8840441131033 L 128.4 254.3 L 127.93197862245142 256.7 L 127.5 254.3 L 125.2 253.8840441131033 L 127.5 253.4 Z" fill="#f6e6bf" opacity="0.7316830302588642"/><path d="M 178.0091872829944 403.4 L 178.5 406.0 L 181.1 406.4865040439181 L 178.5 407.0 L 178.0091872829944 409.6 L 177.5 407.0 L 174.9 406.4865040439181 L 177.5 406.0 Z" fill="#f6e6bf" opacity="0.7493607806041837"/><path d="M 559.9508515242487 382.4 L 560.4 384.5 L 562.5 384.92641902389005 L 560.4 385.3 L 559.9508515242487 387.5 L 559.5 385.3 L 557.4 384.92641902389005 L 559.5 384.5 Z" fill="#f6e6bf" opacity="0.6421588354744017"/><path d="M 516.9572334159166 315.2 L 517.5 318.2 L 520.5 318.7353921509348 L 517.5 319.3 L 516.9572334159166 322.2 L 516.4 319.3 L 513.5 318.7353921509348 L 516.4 318.2 Z" fill="#f6e6bf" opacity="0.5142880246043205"/><path d="M 532.5 90.3 L 249.2 396.5 L 675.5 500.1 L 476.8 396.2 L 669.9 138.1" fill="none" stroke="#d4af6a" stroke-width="0.6" opacity="0.12"/>
  <rect x="1.5" y="1.5" width="757" height="526" rx="22" fill="none" stroke="#d4af6a" stroke-opacity="0.34" stroke-width="1.2"/>
  <rect x="7" y="7" width="746" height="515" rx="17" fill="none" stroke="#d4af6a" stroke-opacity="0.12" stroke-width="0.8"/>
  <path d="M 16 12.8 L 16.5 15.5 L 19.2 16 L 16.5 16.5 L 16 19.2 L 15.5 16.5 L 12.8 16 L 15.5 15.5 Z" fill="#d4af6a" opacity="0.4"/><path d="M 744 12.8 L 744.5 15.5 L 747.2 16 L 744.5 16.5 L 744 19.2 L 743.5 16.5 L 740.8 16 L 743.5 15.5 Z" fill="#d4af6a" opacity="0.4"/><path d="M 16 509.8 L 16.5 512.5 L 19.2 513 L 16.5 513.5 L 16 516.2 L 15.5 513.5 L 12.8 513 L 15.5 512.5 Z" fill="#d4af6a" opacity="0.4"/><path d="M 744 509.8 L 744.5 512.5 L 747.2 513 L 744.5 513.5 L 744 516.2 L 743.5 513.5 L 740.8 513 L 743.5 512.5 Z" fill="#d4af6a" opacity="0.4"/>
  <text x="380" y="46" text-anchor="middle" font-family="Georgia, 'Times New Roman', serif" font-size="22" letter-spacing="0.4" fill="#efeaf8">6 Steps to Read Your Mars-Return Chart</text>
  <line x1="230" y1="67" x2="368" y2="67" stroke="url(#marsreturnastrology1en-rule)" stroke-width="1"/>
  <line x1="392" y1="67" x2="530" y2="67" stroke="url(#marsreturnastrology1en-rule)" stroke-width="1"/>
  <path d="M 380 62.0 L 380.8 66.2 L 385.0 67 L 380.8 67.8 L 380 72.0 L 379.2 67.8 L 375.0 67 L 379.2 66.2 Z" fill="#d4af6a" opacity="0.85"/>
  <line x1="76" y1="121" x2="76" y2="439" stroke="#d4af6a" stroke-opacity="0.28" stroke-width="1.5"/>
  <circle cx="76" cy="121" r="20.0" fill="url(#marsreturnastrology1en-glow)" opacity="0.5"/>
    <circle cx="76" cy="121" r="15" fill="url(#marsreturnastrology1en-foil)" stroke="#f6e6bf" stroke-opacity="0.5" stroke-width="0.8"/>
    <circle cx="76" cy="116.8" r="9.0" fill="#ffffff" opacity="0.10"/>
    <text x="76" y="125.5" text-anchor="middle" font-family="Georgia, 'Times New Roman', serif" font-size="13" font-weight="700" fill="#3a2c12">1</text>
  <text x="116" y="117.0" font-family="Georgia, 'Times New Roman', serif" font-size="22" letter-spacing="0.3" fill="#f3effb">Find Natal Mars</text>
  <text x="116" y="139.0" font-family="Helvetica, Arial, sans-serif" font-size="15.5" fill="#a59cc0">Locate the exact degree and sign of Mars in your birth chart</text>
  <circle cx="76" cy="181" r="20.0" fill="url(#marsreturnastrology1en-glow)" opacity="0.5"/>
    <circle cx="76" cy="181" r="15" fill="url(#marsreturnastrology1en-foil)" stroke="#f6e6bf" stroke-opacity="0.5" stroke-width="0.8"/>
    <circle cx="76" cy="176.8" r="9.0" fill="#ffffff" opacity="0.10"/>
    <text x="76" y="185.5" text-anchor="middle" font-family="Georgia, 'Times New Roman', serif" font-size="13" font-weight="700" fill="#3a2c12">2</text>
  <text x="116" y="177.0" font-family="Georgia, 'Times New Roman', serif" font-size="22" letter-spacing="0.3" fill="#f3effb">Identify Return Date</text>
  <text x="116" y="199.0" font-family="Helvetica, Arial, sans-serif" font-size="15.5" fill="#a59cc0">Find when transiting Mars next reaches that same degree — your return moment</text>
  <circle cx="76" cy="241" r="20.0" fill="url(#marsreturnastrology1en-glow)" opacity="0.5"/>
    <circle cx="76" cy="241" r="15" fill="url(#marsreturnastrology1en-foil)" stroke="#f6e6bf" stroke-opacity="0.5" stroke-width="0.8"/>
    <circle cx="76" cy="236.8" r="9.0" fill="#ffffff" opacity="0.10"/>
    <text x="76" y="245.5" text-anchor="middle" font-family="Georgia, 'Times New Roman', serif" font-size="13" font-weight="700" fill="#3a2c12">3</text>
  <text x="116" y="237.0" font-family="Georgia, 'Times New Roman', serif" font-size="22" letter-spacing="0.3" fill="#f3effb">Cast the Return Chart</text>
  <text x="116" y="259.0" font-family="Helvetica, Arial, sans-serif" font-size="15.5" fill="#a59cc0">Cast a chart for that exact date, time, and place as you would a solar return</text>
  <circle cx="76" cy="301" r="20.0" fill="url(#marsreturnastrology1en-glow)" opacity="0.5"/>
    <circle cx="76" cy="301" r="15" fill="url(#marsreturnastrology1en-foil)" stroke="#f6e6bf" stroke-opacity="0.5" stroke-width="0.8"/>
    <circle cx="76" cy="296.8" r="9.0" fill="#ffffff" opacity="0.10"/>
    <text x="76" y="305.5" text-anchor="middle" font-family="Georgia, 'Times New Roman', serif" font-size="13" font-weight="700" fill="#3a2c12">4</text>
  <text x="116" y="297.0" font-family="Georgia, 'Times New Roman', serif" font-size="22" letter-spacing="0.3" fill="#f3effb">Note Mars's House</text>
  <text x="116" y="319.0" font-family="Helvetica, Arial, sans-serif" font-size="15.5" fill="#a59cc0">The house holding Mars in the return chart names the life domain for the cycle</text>
  <circle cx="76" cy="361" r="20.0" fill="url(#marsreturnastrology1en-glow)" opacity="0.5"/>
    <circle cx="76" cy="361" r="15" fill="url(#marsreturnastrology1en-foil)" stroke="#f6e6bf" stroke-opacity="0.5" stroke-width="0.8"/>
    <circle cx="76" cy="356.8" r="9.0" fill="#ffffff" opacity="0.10"/>
    <text x="76" y="365.5" text-anchor="middle" font-family="Georgia, 'Times New Roman', serif" font-size="13" font-weight="700" fill="#3a2c12">5</text>
  <text x="116" y="357.0" font-family="Georgia, 'Times New Roman', serif" font-size="22" letter-spacing="0.3" fill="#f3effb">Read Mars's Aspects</text>
  <text x="116" y="379.0" font-family="Helvetica, Arial, sans-serif" font-size="15.5" fill="#a59cc0">Soft angles ease effort; hard angles flag where friction or conflict is more</text>
  <text x="116" y="397.0" font-family="Helvetica, Arial, sans-serif" font-size="15.5" fill="#a59cc0">likely</text>
  <circle cx="76" cy="439" r="20.0" fill="url(#marsreturnastrology1en-glow)" opacity="0.5"/>
    <circle cx="76" cy="439" r="15" fill="url(#marsreturnastrology1en-foil)" stroke="#f6e6bf" stroke-opacity="0.5" stroke-width="0.8"/>
    <circle cx="76" cy="434.8" r="9.0" fill="#ffffff" opacity="0.10"/>
    <text x="76" y="443.5" text-anchor="middle" font-family="Georgia, 'Times New Roman', serif" font-size="13" font-weight="700" fill="#3a2c12">6</text>
  <text x="116" y="435.0" font-family="Georgia, 'Times New Roman', serif" font-size="22" letter-spacing="0.3" fill="#f3effb">Use as Planning Prompt</text>
  <text x="116" y="457.0" font-family="Helvetica, Arial, sans-serif" font-size="15.5" fill="#a59cc0">Treat the reading as a two-year planning prompt, then revisit at the next</text>
  <text x="116" y="475.0" font-family="Helvetica, Arial, sans-serif" font-size="15.5" fill="#a59cc0">return</text>
  <path d="M 202.22749999999988 500.4 L 202.6 502.6 L 204.8 503 L 202.6 503.4 L 202.22749999999988 505.6 L 201.8 503.4 L 199.6 503 L 201.8 502.6 Z" fill="#d4af6a" opacity="0.5"/>
  <text x="380" y="507" text-anchor="middle" font-family="Georgia, 'Times New Roman', serif" font-style="italic" font-size="11.5" fill="#7b738f">A self-reflection framework — tendencies, not predictions</text>
  <path d="M 557.7725000000002 500.4 L 558.2 502.6 L 560.4 503 L 558.2 503.4 L 557.7725000000002 505.6 L 557.4 503.4 L 555.2 503 L 557.4 502.6 Z" fill="#d4af6a" opacity="0.5"/>
</svg>
