<svg xmlns="http://www.w3.org/2000/svg" viewBox="0 0 760 701" role="img" aria-label="Mars Return vs Solar Return vs Saturn Return">
  <defs>
    <linearGradient id="marsreturnastrology0en-panel" x1="0" y1="0" x2="0.4" y2="1">
      <stop offset="0" stop-color="#1a1433"/><stop offset="0.55" stop-color="#120e26"/><stop offset="1" stop-color="#09081a"/>
    </linearGradient>
    <radialGradient id="marsreturnastrology0en-foil" cx="0.42" cy="0.34" r="0.75">
      <stop offset="0" stop-color="#fbf0d2"/><stop offset="0.5" stop-color="#e8c882"/><stop offset="1" stop-color="#b8923f"/>
    </radialGradient>
    <radialGradient id="marsreturnastrology0en-glow" cx="0.5" cy="0.5" r="0.5">
      <stop offset="0" stop-color="#f6e6bf"/><stop offset="1" stop-color="#f6e6bf" stop-opacity="0"/>
    </radialGradient>
    <radialGradient id="marsreturnastrology0en-neb1" cx="0.5" cy="0.5" r="0.5">
      <stop offset="0" stop-color="#6f4bb0" stop-opacity="0.28"/><stop offset="1" stop-color="#6f4bb0" stop-opacity="0"/>
    </radialGradient>
    <radialGradient id="marsreturnastrology0en-neb2" cx="0.5" cy="0.5" r="0.5">
      <stop offset="0" stop-color="#d4af6a" stop-opacity="0.16"/><stop offset="1" stop-color="#d4af6a" stop-opacity="0"/>
    </radialGradient>
    <linearGradient id="marsreturnastrology0en-rule" x1="0" y1="0" x2="1" y2="0">
      <stop offset="0" stop-color="#d4af6a" stop-opacity="0"/><stop offset="0.5" stop-color="#d4af6a" stop-opacity="0.6"/><stop offset="1" stop-color="#d4af6a" stop-opacity="0"/>
    </linearGradient>
  </defs>
  <rect x="1.5" y="1.5" width="757" height="698" rx="22" fill="url(#marsreturnastrology0en-panel)"/>
  <ellipse cx="198" cy="168" rx="380" ry="238" fill="url(#marsreturnastrology0en-neb1)"/>
  <ellipse cx="623" cy="561" rx="334" ry="224" fill="url(#marsreturnastrology0en-neb2)"/>
  <circle cx="301.0" cy="685.2" r="1.30" fill="#cfc8ea" opacity="0.22"/><circle cx="613.3" cy="58.4" r="0.78" fill="#cfc8ea" opacity="0.50"/><circle cx="391.9" cy="128.8" r="1.32" fill="#cfc8ea" opacity="0.36"/><circle cx="620.2" cy="518.6" r="1.08" fill="#cfc8ea" opacity="0.49"/><circle cx="465.5" cy="543.4" r="1.27" fill="#cfc8ea" opacity="0.30"/><circle cx="565.9" cy="581.5" r="0.57" fill="#cfc8ea" opacity="0.44"/><circle cx="523.5" cy="304.8" r="1.18" fill="#cfc8ea" opacity="0.27"/><circle cx="713.1" cy="635.2" r="1.68" fill="#cfc8ea" opacity="0.14"/><circle cx="466.7" cy="569.4" r="1.17" fill="#cfc8ea" opacity="0.40"/><circle cx="259.0" cy="434.5" r="0.52" fill="#cfc8ea" opacity="0.40"/><circle cx="404.2" cy="259.7" r="1.30" fill="#cfc8ea" opacity="0.25"/><circle cx="76.4" cy="666.9" r="1.54" fill="#cfc8ea" opacity="0.15"/><circle cx="547.4" cy="531.9" r="0.68" fill="#cfc8ea" opacity="0.32"/><circle cx="557.0" cy="276.1" r="0.46" fill="#cfc8ea" opacity="0.36"/><circle cx="198.6" cy="112.0" r="1.08" fill="#cfc8ea" opacity="0.31"/><circle cx="548.0" cy="548.9" r="0.75" fill="#cfc8ea" opacity="0.15"/><circle cx="464.5" cy="124.4" r="1.46" fill="#cfc8ea" opacity="0.38"/><circle cx="30.6" cy="203.1" r="1.69" fill="#cfc8ea" opacity="0.50"/><circle cx="310.1" cy="637.0" r="0.48" fill="#cfc8ea" opacity="0.19"/><circle cx="583.8" cy="594.0" r="0.80" fill="#cfc8ea" opacity="0.13"/><circle cx="436.4" cy="101.7" r="1.19" fill="#cfc8ea" opacity="0.34"/><circle cx="235.8" cy="659.0" r="1.31" fill="#cfc8ea" opacity="0.12"/><circle cx="60.2" cy="149.1" r="0.67" fill="#cfc8ea" opacity="0.14"/><circle cx="241.0" cy="49.0" r="1.02" fill="#cfc8ea" opacity="0.44"/><circle cx="283.2" cy="453.8" r="1.43" fill="#cfc8ea" opacity="0.38"/><circle cx="652.9" cy="534.1" r="1.66" fill="#cfc8ea" opacity="0.41"/><circle cx="318.8" cy="378.8" r="1.00" fill="#cfc8ea" opacity="0.44"/><circle cx="450.1" cy="126.0" r="0.73" fill="#cfc8ea" opacity="0.42"/><circle cx="225.5" cy="449.6" r="1.64" fill="#cfc8ea" opacity="0.46"/><circle cx="499.6" cy="635.4" r="1.04" fill="#cfc8ea" opacity="0.49"/><circle cx="23.5" cy="537.9" r="0.82" fill="#cfc8ea" opacity="0.33"/><circle cx="633.4" cy="476.3" r="0.92" fill="#cfc8ea" opacity="0.52"/><circle cx="360.5" cy="137.9" r="1.70" fill="#cfc8ea" opacity="0.35"/><circle cx="530.9" cy="561.0" r="1.07" fill="#cfc8ea" opacity="0.24"/><circle cx="260.3" cy="230.4" r="0.42" fill="#cfc8ea" opacity="0.40"/><circle cx="388.2" cy="583.6" r="0.62" fill="#cfc8ea" opacity="0.17"/><circle cx="437.5" cy="355.9" r="1.58" fill="#cfc8ea" opacity="0.30"/><circle cx="328.9" cy="203.6" r="1.64" fill="#cfc8ea" opacity="0.22"/><circle cx="324.1" cy="220.2" r="1.17" fill="#cfc8ea" opacity="0.23"/><circle cx="91.0" cy="121.0" r="0.57" fill="#cfc8ea" opacity="0.47"/><circle cx="267.7" cy="492.3" r="1.53" fill="#cfc8ea" opacity="0.21"/><circle cx="17.5" cy="349.8" r="1.18" fill="#cfc8ea" opacity="0.17"/><circle cx="536.2" cy="387.3" r="1.06" fill="#cfc8ea" opacity="0.48"/><circle cx="620.5" cy="610.4" r="1.02" fill="#cfc8ea" opacity="0.51"/><circle cx="547.9" cy="194.3" r="1.29" fill="#cfc8ea" opacity="0.32"/><circle cx="66.6" cy="398.0" r="1.12" fill="#cfc8ea" opacity="0.21"/><circle cx="283.8" cy="470.7" r="0.73" fill="#cfc8ea" opacity="0.46"/><circle cx="370.5" cy="57.7" r="0.44" fill="#cfc8ea" opacity="0.38"/><circle cx="384.6" cy="544.4" r="0.93" fill="#cfc8ea" opacity="0.35"/><circle cx="391.8" cy="185.9" r="0.41" fill="#cfc8ea" opacity="0.47"/><circle cx="540.0" cy="559.5" r="1.19" fill="#cfc8ea" opacity="0.47"/><circle cx="419.3" cy="167.2" r="0.66" fill="#cfc8ea" opacity="0.34"/><circle cx="499.6" cy="399.6" r="1.27" fill="#cfc8ea" opacity="0.31"/><circle cx="142.9" cy="227.8" r="0.42" fill="#cfc8ea" opacity="0.48"/><circle cx="433.0" cy="498.2" r="1.17" fill="#cfc8ea" opacity="0.35"/><circle cx="204.1" cy="544.6" r="1.26" fill="#cfc8ea" opacity="0.43"/><circle cx="675.6" cy="684.7" r="0.69" fill="#cfc8ea" opacity="0.46"/><circle cx="490.7" cy="242.4" r="1.65" fill="#cfc8ea" opacity="0.30"/><circle cx="434.6" cy="247.7" r="0.66" fill="#cfc8ea" opacity="0.33"/><path d="M 90.27871882542968 502.8 L 90.8 505.6 L 93.6 506.09462564089336 L 90.8 506.6 L 90.27871882542968 509.4 L 89.8 506.6 L 87.0 506.09462564089336 L 89.8 505.6 Z" fill="#f6e6bf" opacity="0.7551933683687821"/><path d="M 288.5254383571446 48.5 L 289.1 51.5 L 292.0 52.0308882643003 L 289.1 52.6 L 288.5254383571446 55.5 L 288.0 52.6 L 285.0 52.0308882643003 L 288.0 51.5 Z" fill="#f6e6bf" opacity="0.6477653610752896"/><path d="M 36.53988466784358 250.5 L 37.1 253.3 L 39.8 253.78789076791145 L 37.1 254.3 L 36.53988466784358 257.0 L 36.0 254.3 L 33.3 253.78789076791145 L 36.0 253.3 Z" fill="#f6e6bf" opacity="0.5345481498399749"/><path d="M 573.9702034331858 66.4 L 574.6 69.5 L 577.7 70.13920821924694 L 574.6 70.7 L 573.9702034331858 73.9 L 573.4 70.7 L 570.2 70.13920821924694 L 573.4 69.5 Z" fill="#f6e6bf" opacity="0.7529187822015956"/><path d="M 32.415193405002356 358.2 L 32.9 360.8 L 35.5 361.27904327982105 L 32.9 361.8 L 32.415193405002356 364.4 L 31.9 361.8 L 29.3 361.27904327982105 L 31.9 360.8 Z" fill="#f6e6bf" opacity="0.6563199032330885"/><path d="M 565.9 581.5 L 259.0 434.5 L 436.4 101.7 L 540.0 559.5 L 142.9 227.8" fill="none" stroke="#d4af6a" stroke-width="0.6" opacity="0.12"/>
  <rect x="1.5" y="1.5" width="757" height="698" rx="22" fill="none" stroke="#d4af6a" stroke-opacity="0.34" stroke-width="1.2"/>
  <rect x="7" y="7" width="746" height="687" rx="17" fill="none" stroke="#d4af6a" stroke-opacity="0.12" stroke-width="0.8"/>
  <path d="M 16 12.8 L 16.5 15.5 L 19.2 16 L 16.5 16.5 L 16 19.2 L 15.5 16.5 L 12.8 16 L 15.5 15.5 Z" fill="#d4af6a" opacity="0.4"/><path d="M 744 12.8 L 744.5 15.5 L 747.2 16 L 744.5 16.5 L 744 19.2 L 743.5 16.5 L 740.8 16 L 743.5 15.5 Z" fill="#d4af6a" opacity="0.4"/><path d="M 16 681.8 L 16.5 684.5 L 19.2 685 L 16.5 685.5 L 16 688.2 L 15.5 685.5 L 12.8 685 L 15.5 684.5 Z" fill="#d4af6a" opacity="0.4"/><path d="M 744 681.8 L 744.5 684.5 L 747.2 685 L 744.5 685.5 L 744 688.2 L 743.5 685.5 L 740.8 685 L 743.5 684.5 Z" fill="#d4af6a" opacity="0.4"/>
  <text x="380" y="46" text-anchor="middle" font-family="Georgia, 'Times New Roman', serif" font-size="22" letter-spacing="0.4" fill="#efeaf8">Mars Return vs Solar Return vs Saturn Return</text>
  <line x1="230" y1="67" x2="368" y2="67" stroke="url(#marsreturnastrology0en-rule)" stroke-width="1"/>
  <line x1="392" y1="67" x2="530" y2="67" stroke="url(#marsreturnastrology0en-rule)" stroke-width="1"/>
  <path d="M 380 62.0 L 380.8 66.2 L 385.0 67 L 380.8 67.8 L 380 72.0 L 379.2 67.8 L 375.0 67 L 379.2 66.2 Z" fill="#d4af6a" opacity="0.85"/>

  <rect x="46" y="99" width="668" height="172.0" rx="14" fill="#1d1740" fill-opacity="0.5" stroke="#d4af6a" stroke-opacity="0.22" stroke-width="0.9"/>
  <rect x="46" y="99" width="668" height="3.5" rx="1.8" fill="#d4af6a" fill-opacity="0.6"/>
  <path d="M 380 97.1 L 380.5 100.0 L 383.4 100.5 L 380.5 101.0 L 380 103.9 L 379.5 101.0 L 376.6 100.5 L 379.5 100.0 Z" fill="#f6e6bf" opacity="0.7"/>
  <text x="380" y="128.0" text-anchor="middle" font-family="Georgia, 'Times New Roman', serif" font-size="21" font-weight="700" letter-spacing="0.3" fill="#f3effb">Mars Return</text>
  <path d="M 70 157.8 L 70.5 160.5 L 73.2 161 L 70.5 161.5 L 70 164.2 L 69.5 161.5 L 66.8 161 L 69.5 160.5 Z" fill="#d4af6a" opacity="0.8"/>
  <text x="84" y="166.0" font-family="Helvetica, Arial, sans-serif" font-size="16" fill="#a59cc0">~687 days, every ~2 years</text>
  <path d="M 70 186.8 L 70.5 189.5 L 73.2 190 L 70.5 190.5 L 70 193.2 L 69.5 190.5 L 66.8 190 L 69.5 189.5 Z" fill="#d4af6a" opacity="0.8"/>
  <text x="84" y="195.0" font-family="Helvetica, Arial, sans-serif" font-size="16" fill="#a59cc0">Drive &amp; assertion only</text>
  <path d="M 70 215.8 L 70.5 218.5 L 73.2 219 L 70.5 219.5 L 70 222.2 L 69.5 219.5 L 66.8 219 L 69.5 218.5 Z" fill="#d4af6a" opacity="0.8"/>
  <text x="84" y="224.0" font-family="Helvetica, Arial, sans-serif" font-size="16" fill="#a59cc0">Frequent, lower-stakes</text>
  <path d="M 70 244.8 L 70.5 247.5 L 73.2 248 L 70.5 248.5 L 70 251.2 L 69.5 248.5 L 66.8 248 L 69.5 247.5 Z" fill="#d4af6a" opacity="0.8"/>
  <text x="84" y="253.0" font-family="Helvetica, Arial, sans-serif" font-size="16" fill="#a59cc0">Recurring planning beat</text>
  <path d="M 380 279.5 L 380.7 283.3 L 384.5 284 L 380.7 284.7 L 380 288.5 L 379.3 284.7 L 375.5 284 L 379.3 283.3 Z" fill="#d4af6a" opacity="0.65"/>
  <rect x="46" y="297" width="668" height="172.0" rx="14" fill="#1d1740" fill-opacity="0.5" stroke="#d4af6a" stroke-opacity="0.22" stroke-width="0.9"/>
  <rect x="46" y="297" width="668" height="3.5" rx="1.8" fill="#d4af6a" fill-opacity="0.6"/>
  <path d="M 380 295.1 L 380.5 298.0 L 383.4 298.5 L 380.5 299.0 L 380 301.9 L 379.5 299.0 L 376.6 298.5 L 379.5 298.0 Z" fill="#f6e6bf" opacity="0.7"/>
  <text x="380" y="326.0" text-anchor="middle" font-family="Georgia, 'Times New Roman', serif" font-size="21" font-weight="700" letter-spacing="0.3" fill="#f3effb">Solar Return</text>
  <path d="M 70 355.8 L 70.5 358.5 L 73.2 359 L 70.5 359.5 L 70 362.2 L 69.5 359.5 L 66.8 359 L 69.5 358.5 Z" fill="#d4af6a" opacity="0.8"/>
  <text x="84" y="364.0" font-family="Helvetica, Arial, sans-serif" font-size="16" fill="#a59cc0">~365 days, every year</text>
  <path d="M 70 384.8 L 70.5 387.5 L 73.2 388 L 70.5 388.5 L 70 391.2 L 69.5 388.5 L 66.8 388 L 69.5 387.5 Z" fill="#d4af6a" opacity="0.8"/>
  <text x="84" y="393.0" font-family="Helvetica, Arial, sans-serif" font-size="16" fill="#a59cc0">All life areas</text>
  <path d="M 70 413.8 L 70.5 416.5 L 73.2 417 L 70.5 417.5 L 70 420.2 L 69.5 417.5 L 66.8 417 L 69.5 416.5 Z" fill="#d4af6a" opacity="0.8"/>
  <text x="84" y="422.0" font-family="Helvetica, Arial, sans-serif" font-size="16" fill="#a59cc0">Broad scope, annual</text>
  <path d="M 70 442.8 L 70.5 445.5 L 73.2 446 L 70.5 446.5 L 70 449.2 L 69.5 446.5 L 66.8 446 L 69.5 445.5 Z" fill="#d4af6a" opacity="0.8"/>
  <text x="84" y="451.0" font-family="Helvetica, Arial, sans-serif" font-size="16" fill="#a59cc0">Birthday-year forecast</text>
  <path d="M 380 477.5 L 380.7 481.3 L 384.5 482 L 380.7 482.7 L 380 486.5 L 379.3 482.7 L 375.5 482 L 379.3 481.3 Z" fill="#d4af6a" opacity="0.65"/>
  <rect x="46" y="495" width="668" height="172.0" rx="14" fill="#1d1740" fill-opacity="0.5" stroke="#d4af6a" stroke-opacity="0.22" stroke-width="0.9"/>
  <rect x="46" y="495" width="668" height="3.5" rx="1.8" fill="#d4af6a" fill-opacity="0.6"/>
  <path d="M 380 493.1 L 380.5 496.0 L 383.4 496.5 L 380.5 497.0 L 380 499.9 L 379.5 497.0 L 376.6 496.5 L 379.5 496.0 Z" fill="#f6e6bf" opacity="0.7"/>
  <text x="380" y="524.0" text-anchor="middle" font-family="Georgia, 'Times New Roman', serif" font-size="21" font-weight="700" letter-spacing="0.3" fill="#f3effb">Saturn Return</text>
  <path d="M 70 553.8 L 70.5 556.5 L 73.2 557 L 70.5 557.5 L 70 560.2 L 69.5 557.5 L 66.8 557 L 69.5 556.5 Z" fill="#d4af6a" opacity="0.8"/>
  <text x="84" y="562.0" font-family="Helvetica, Arial, sans-serif" font-size="16" fill="#a59cc0">~29 years per cycle</text>
  <path d="M 70 582.8 L 70.5 585.5 L 73.2 586 L 70.5 586.5 L 70 589.2 L 69.5 586.5 L 66.8 586 L 69.5 585.5 Z" fill="#d4af6a" opacity="0.8"/>
  <text x="84" y="591.0" font-family="Helvetica, Arial, sans-serif" font-size="16" fill="#a59cc0">Structural reckoning</text>
  <path d="M 70 611.8 L 70.5 614.5 L 73.2 615 L 70.5 615.5 L 70 618.2 L 69.5 615.5 L 66.8 615 L 69.5 614.5 Z" fill="#d4af6a" opacity="0.8"/>
  <text x="84" y="620.0" font-family="Helvetica, Arial, sans-serif" font-size="16" fill="#a59cc0">Rare, high-stakes</text>
  <path d="M 70 640.8 L 70.5 643.5 L 73.2 644 L 70.5 644.5 L 70 647.2 L 69.5 644.5 L 66.8 644 L 69.5 643.5 Z" fill="#d4af6a" opacity="0.8"/>
  <text x="84" y="649.0" font-family="Helvetica, Arial, sans-serif" font-size="16" fill="#a59cc0">Once-a-generation event</text>
  <path d="M 202.22749999999988 672.4 L 202.6 674.6 L 204.8 675 L 202.6 675.4 L 202.22749999999988 677.6 L 201.8 675.4 L 199.6 675 L 201.8 674.6 Z" fill="#d4af6a" opacity="0.5"/>
  <text x="380" y="679" text-anchor="middle" font-family="Georgia, 'Times New Roman', serif" font-style="italic" font-size="11.5" fill="#7b738f">A self-reflection framework — tendencies, not predictions</text>
  <path d="M 557.7725000000002 672.4 L 558.2 674.6 L 560.4 675 L 558.2 675.4 L 557.7725000000002 677.6 L 557.4 675.4 L 555.2 675 L 557.4 674.6 Z" fill="#d4af6a" opacity="0.5"/>
</svg>
