<svg xmlns="http://www.w3.org/2000/svg" viewBox="0 0 760 614" role="img" aria-label="Two Mutable Reads, One Honest Limit">
  <defs>
    <linearGradient id="matheuscunhabirthchart0en-panel" x1="0" y1="0" x2="0.4" y2="1">
      <stop offset="0" stop-color="#1a1433"/><stop offset="0.55" stop-color="#120e26"/><stop offset="1" stop-color="#09081a"/>
    </linearGradient>
    <radialGradient id="matheuscunhabirthchart0en-foil" cx="0.42" cy="0.34" r="0.75">
      <stop offset="0" stop-color="#fbf0d2"/><stop offset="0.5" stop-color="#e8c882"/><stop offset="1" stop-color="#b8923f"/>
    </radialGradient>
    <radialGradient id="matheuscunhabirthchart0en-glow" cx="0.5" cy="0.5" r="0.5">
      <stop offset="0" stop-color="#f6e6bf"/><stop offset="1" stop-color="#f6e6bf" stop-opacity="0"/>
    </radialGradient>
    <radialGradient id="matheuscunhabirthchart0en-neb1" cx="0.5" cy="0.5" r="0.5">
      <stop offset="0" stop-color="#6f4bb0" stop-opacity="0.28"/><stop offset="1" stop-color="#6f4bb0" stop-opacity="0"/>
    </radialGradient>
    <radialGradient id="matheuscunhabirthchart0en-neb2" cx="0.5" cy="0.5" r="0.5">
      <stop offset="0" stop-color="#d4af6a" stop-opacity="0.16"/><stop offset="1" stop-color="#d4af6a" stop-opacity="0"/>
    </radialGradient>
    <linearGradient id="matheuscunhabirthchart0en-rule" x1="0" y1="0" x2="1" y2="0">
      <stop offset="0" stop-color="#d4af6a" stop-opacity="0"/><stop offset="0.5" stop-color="#d4af6a" stop-opacity="0.6"/><stop offset="1" stop-color="#d4af6a" stop-opacity="0"/>
    </linearGradient>
  </defs>
  <rect x="1.5" y="1.5" width="757" height="611" rx="22" fill="url(#matheuscunhabirthchart0en-panel)"/>
  <ellipse cx="198" cy="147" rx="380" ry="209" fill="url(#matheuscunhabirthchart0en-neb1)"/>
  <ellipse cx="623" cy="491" rx="334" ry="196" fill="url(#matheuscunhabirthchart0en-neb2)"/>
  <circle cx="720.5" cy="299.5" r="1.54" fill="#cfc8ea" opacity="0.21"/><circle cx="422.5" cy="44.8" r="1.63" fill="#cfc8ea" opacity="0.29"/><circle cx="217.1" cy="289.4" r="0.99" fill="#cfc8ea" opacity="0.23"/><circle cx="29.7" cy="227.8" r="1.07" fill="#cfc8ea" opacity="0.42"/><circle cx="307.5" cy="531.0" r="1.33" fill="#cfc8ea" opacity="0.53"/><circle cx="460.6" cy="527.8" r="0.90" fill="#cfc8ea" opacity="0.34"/><circle cx="305.0" cy="208.3" r="0.82" fill="#cfc8ea" opacity="0.22"/><circle cx="341.3" cy="108.3" r="0.49" fill="#cfc8ea" opacity="0.42"/><circle cx="477.4" cy="418.5" r="0.58" fill="#cfc8ea" opacity="0.18"/><circle cx="138.8" cy="487.4" r="1.67" fill="#cfc8ea" opacity="0.22"/><circle cx="33.8" cy="109.2" r="1.66" fill="#cfc8ea" opacity="0.52"/><circle cx="176.5" cy="54.5" r="1.58" fill="#cfc8ea" opacity="0.54"/><circle cx="482.3" cy="30.1" r="0.66" fill="#cfc8ea" opacity="0.50"/><circle cx="100.9" cy="238.4" r="1.51" fill="#cfc8ea" opacity="0.29"/><circle cx="529.1" cy="481.5" r="0.84" fill="#cfc8ea" opacity="0.45"/><circle cx="312.2" cy="19.7" r="0.57" fill="#cfc8ea" opacity="0.52"/><circle cx="227.9" cy="229.5" r="1.62" fill="#cfc8ea" opacity="0.44"/><circle cx="194.7" cy="449.2" r="0.96" fill="#cfc8ea" opacity="0.26"/><circle cx="154.2" cy="81.3" r="0.72" fill="#cfc8ea" opacity="0.40"/><circle cx="318.9" cy="372.1" r="0.60" fill="#cfc8ea" opacity="0.31"/><circle cx="464.3" cy="220.3" r="0.83" fill="#cfc8ea" opacity="0.25"/><circle cx="739.2" cy="351.1" r="1.30" fill="#cfc8ea" opacity="0.33"/><circle cx="513.0" cy="206.9" r="0.93" fill="#cfc8ea" opacity="0.50"/><circle cx="134.9" cy="215.3" r="0.65" fill="#cfc8ea" opacity="0.46"/><circle cx="631.2" cy="443.6" r="1.37" fill="#cfc8ea" opacity="0.53"/><circle cx="591.2" cy="72.3" r="1.47" fill="#cfc8ea" opacity="0.47"/><circle cx="499.6" cy="340.0" r="1.36" fill="#cfc8ea" opacity="0.34"/><circle cx="586.7" cy="355.5" r="1.15" fill="#cfc8ea" opacity="0.20"/><circle cx="212.0" cy="441.2" r="1.65" fill="#cfc8ea" opacity="0.19"/><circle cx="581.6" cy="212.6" r="1.13" fill="#cfc8ea" opacity="0.35"/><circle cx="163.3" cy="206.0" r="1.21" fill="#cfc8ea" opacity="0.24"/><circle cx="473.8" cy="268.5" r="0.93" fill="#cfc8ea" opacity="0.43"/><circle cx="64.8" cy="321.9" r="0.47" fill="#cfc8ea" opacity="0.41"/><circle cx="462.2" cy="177.3" r="1.32" fill="#cfc8ea" opacity="0.40"/><circle cx="279.8" cy="444.7" r="1.68" fill="#cfc8ea" opacity="0.47"/><circle cx="534.7" cy="394.9" r="0.53" fill="#cfc8ea" opacity="0.29"/><circle cx="384.9" cy="454.8" r="1.36" fill="#cfc8ea" opacity="0.36"/><circle cx="509.3" cy="482.2" r="1.22" fill="#cfc8ea" opacity="0.44"/><circle cx="628.4" cy="131.6" r="1.13" fill="#cfc8ea" opacity="0.37"/><circle cx="504.6" cy="592.8" r="1.40" fill="#cfc8ea" opacity="0.45"/><circle cx="232.4" cy="65.3" r="0.44" fill="#cfc8ea" opacity="0.16"/><circle cx="709.0" cy="222.0" r="1.32" fill="#cfc8ea" opacity="0.45"/><circle cx="162.4" cy="155.8" r="1.24" fill="#cfc8ea" opacity="0.19"/><circle cx="684.9" cy="470.1" r="1.03" fill="#cfc8ea" opacity="0.39"/><circle cx="61.4" cy="271.7" r="0.71" fill="#cfc8ea" opacity="0.17"/><circle cx="205.2" cy="519.4" r="0.45" fill="#cfc8ea" opacity="0.31"/><circle cx="233.7" cy="368.4" r="0.56" fill="#cfc8ea" opacity="0.41"/><circle cx="491.7" cy="392.2" r="1.67" fill="#cfc8ea" opacity="0.36"/><circle cx="41.3" cy="142.0" r="1.29" fill="#cfc8ea" opacity="0.18"/><circle cx="609.7" cy="132.8" r="1.53" fill="#cfc8ea" opacity="0.49"/><circle cx="439.8" cy="394.7" r="1.29" fill="#cfc8ea" opacity="0.21"/><circle cx="619.0" cy="331.3" r="0.71" fill="#cfc8ea" opacity="0.40"/><path d="M 391.4663271512836 451.6 L 392.0 454.6 L 395.0 455.15736142359674 L 392.0 455.7 L 391.4663271512836 458.7 L 390.9 455.7 L 387.9 455.15736142359674 L 390.9 454.6 Z" fill="#f6e6bf" opacity="0.5448511111084372"/><path d="M 662.799276156351 24.7 L 663.3 27.2 L 665.8 27.68538147956133 L 663.3 28.2 L 662.799276156351 30.7 L 662.3 28.2 L 659.8 27.68538147956133 L 662.3 27.2 Z" fill="#f6e6bf" opacity="0.6817638458218426"/><path d="M 589.3897728975862 557.8 L 589.9 560.5 L 592.6 561.0324802491814 L 589.9 561.6 L 589.3897728975862 564.3 L 588.9 561.6 L 586.1 561.0324802491814 L 588.9 560.5 Z" fill="#f6e6bf" opacity="0.7873713970649987"/><path d="M 369.1285549085587 526.4 L 369.5 528.5 L 371.6 528.9367563538253 L 369.5 529.3 L 369.1285549085587 531.4 L 368.7 529.3 L 366.6 528.9367563538253 L 368.7 528.5 Z" fill="#f6e6bf" opacity="0.568424992216751"/><path d="M 455.2023497130722 42.4 L 455.7 44.9 L 458.2 45.40383313409984 L 455.7 45.9 L 455.2023497130722 48.4 L 454.7 45.9 L 452.2 45.40383313409984 L 454.7 44.9 Z" fill="#f6e6bf" opacity="0.7053723766002804"/><path d="M 460.6 527.8 L 628.4 131.6 L 233.7 368.4" fill="none" stroke="#d4af6a" stroke-width="0.6" opacity="0.12"/>
  <rect x="1.5" y="1.5" width="757" height="611" rx="22" fill="none" stroke="#d4af6a" stroke-opacity="0.34" stroke-width="1.2"/>
  <rect x="7" y="7" width="746" height="600" rx="17" fill="none" stroke="#d4af6a" stroke-opacity="0.12" stroke-width="0.8"/>
  <path d="M 16 12.8 L 16.5 15.5 L 19.2 16 L 16.5 16.5 L 16 19.2 L 15.5 16.5 L 12.8 16 L 15.5 15.5 Z" fill="#d4af6a" opacity="0.4"/><path d="M 744 12.8 L 744.5 15.5 L 747.2 16 L 744.5 16.5 L 744 19.2 L 743.5 16.5 L 740.8 16 L 743.5 15.5 Z" fill="#d4af6a" opacity="0.4"/><path d="M 16 594.8 L 16.5 597.5 L 19.2 598 L 16.5 598.5 L 16 601.2 L 15.5 598.5 L 12.8 598 L 15.5 597.5 Z" fill="#d4af6a" opacity="0.4"/><path d="M 744 594.8 L 744.5 597.5 L 747.2 598 L 744.5 598.5 L 744 601.2 L 743.5 598.5 L 740.8 598 L 743.5 597.5 Z" fill="#d4af6a" opacity="0.4"/>
  <text x="380" y="46" text-anchor="middle" font-family="Georgia, 'Times New Roman', serif" font-size="22" letter-spacing="0.4" fill="#efeaf8">Two Mutable Reads, One Honest Limit</text>
  <line x1="230" y1="67" x2="368" y2="67" stroke="url(#matheuscunhabirthchart0en-rule)" stroke-width="1"/>
  <line x1="392" y1="67" x2="530" y2="67" stroke="url(#matheuscunhabirthchart0en-rule)" stroke-width="1"/>
  <path d="M 380 62.0 L 380.8 66.2 L 385.0 67 L 380.8 67.8 L 380 72.0 L 379.2 67.8 L 375.0 67 L 379.2 66.2 Z" fill="#d4af6a" opacity="0.85"/>

  <rect x="46" y="99" width="668" height="143.0" rx="14" fill="#1d1740" fill-opacity="0.5" stroke="#d4af6a" stroke-opacity="0.22" stroke-width="0.9"/>
  <rect x="46" y="99" width="3.5" height="143.0" rx="1.8" fill="#d4af6a" fill-opacity="0.6"/>
  <path d="M 47.75 108.6 L 48.3 111.5 L 51.1 112 L 48.3 112.5 L 47.75 115.4 L 47.2 112.5 L 44.4 112 L 47.2 111.5 Z" fill="#f6e6bf" opacity="0.7"/>
  <text x="380" y="128.0" text-anchor="middle" font-family="Georgia, 'Times New Roman', serif" font-size="21" font-weight="700" letter-spacing="0.3" fill="#f3effb">Gemini Sun (sign-based)</text>
  <path d="M 70 157.8 L 70.5 160.5 L 73.2 161 L 70.5 161.5 L 70 164.2 L 69.5 161.5 L 66.8 161 L 69.5 160.5 Z" fill="#d4af6a" opacity="0.8"/>
  <text x="84" y="166.0" font-family="Helvetica, Arial, sans-serif" font-size="16" fill="#a59cc0">Mercury-ruled, short-range tactical scanning</text>
  <path d="M 70 186.8 L 70.5 189.5 L 73.2 190 L 70.5 190.5 L 70 193.2 L 69.5 190.5 L 66.8 190 L 69.5 189.5 Z" fill="#d4af6a" opacity="0.8"/>
  <text x="84" y="195.0" font-family="Helvetica, Arial, sans-serif" font-size="16" fill="#a59cc0">Reads the gap that exists right now</text>
  <path d="M 70 215.8 L 70.5 218.5 L 73.2 219 L 70.5 219.5 L 70 222.2 L 69.5 219.5 L 66.8 219 L 69.5 218.5 Z" fill="#d4af6a" opacity="0.8"/>
  <text x="84" y="224.0" font-family="Helvetica, Arial, sans-serif" font-size="16" fill="#a59cc0">Sharpest inside tight defensive blocks</text>
  <path d="M 380 250.5 L 380.7 254.3 L 384.5 255 L 380.7 255.7 L 380 259.5 L 379.3 255.7 L 375.5 255 L 379.3 254.3 Z" fill="#d4af6a" opacity="0.65"/>
  <rect x="46" y="268" width="668" height="143.0" rx="14" fill="#1d1740" fill-opacity="0.5" stroke="#d4af6a" stroke-opacity="0.22" stroke-width="0.9"/>
  <rect x="46" y="268" width="3.5" height="143.0" rx="1.8" fill="#d4af6a" fill-opacity="0.6"/>
  <path d="M 47.75 277.6 L 48.3 280.5 L 51.1 281 L 48.3 281.5 L 47.75 284.4 L 47.2 281.5 L 44.4 281 L 47.2 280.5 Z" fill="#f6e6bf" opacity="0.7"/>
  <text x="380" y="297.0" text-anchor="middle" font-family="Georgia, 'Times New Roman', serif" font-size="21" font-weight="700" letter-spacing="0.3" fill="#f3effb">Sagittarius Sun (contrast)</text>
  <path d="M 70 326.8 L 70.5 329.5 L 73.2 330 L 70.5 330.5 L 70 333.2 L 69.5 330.5 L 66.8 330 L 69.5 329.5 Z" fill="#d4af6a" opacity="0.8"/>
  <text x="84" y="335.0" font-family="Helvetica, Arial, sans-serif" font-size="16" fill="#a59cc0">Jupiter-ruled, macro-vision into open space</text>
  <path d="M 70 355.8 L 70.5 358.5 L 73.2 359 L 70.5 359.5 L 70 362.2 L 69.5 359.5 L 66.8 359 L 69.5 358.5 Z" fill="#d4af6a" opacity="0.8"/>
  <text x="84" y="364.0" font-family="Helvetica, Arial, sans-serif" font-size="16" fill="#a59cc0">The expansive run, the bold shot from distance</text>
  <path d="M 70 384.8 L 70.5 387.5 L 73.2 388 L 70.5 388.5 L 70 391.2 L 69.5 388.5 L 66.8 388 L 69.5 387.5 Z" fill="#d4af6a" opacity="0.8"/>
  <text x="84" y="393.0" font-family="Helvetica, Arial, sans-serif" font-size="16" fill="#a59cc0">Restless in tight, possession-heavy systems</text>
  <path d="M 380 419.5 L 380.7 423.3 L 384.5 424 L 380.7 424.7 L 380 428.5 L 379.3 424.7 L 375.5 424 L 379.3 423.3 Z" fill="#d4af6a" opacity="0.65"/>
  <rect x="46" y="437" width="668" height="143.0" rx="14" fill="#1d1740" fill-opacity="0.5" stroke="#d4af6a" stroke-opacity="0.22" stroke-width="0.9"/>
  <rect x="46" y="437" width="3.5" height="143.0" rx="1.8" fill="#d4af6a" fill-opacity="0.6"/>
  <path d="M 47.75 446.6 L 48.3 449.5 L 51.1 450 L 48.3 450.5 L 47.75 453.4 L 47.2 450.5 L 44.4 450 L 47.2 449.5 Z" fill="#f6e6bf" opacity="0.7"/>
  <text x="380" y="466.0" text-anchor="middle" font-family="Georgia, 'Times New Roman', serif" font-size="21" font-weight="700" letter-spacing="0.3" fill="#f3effb">A full natal read</text>
  <path d="M 70 495.8 L 70.5 498.5 L 73.2 499 L 70.5 499.5 L 70 502.2 L 69.5 499.5 L 66.8 499 L 69.5 498.5 Z" fill="#d4af6a" opacity="0.8"/>
  <text x="84" y="504.0" font-family="Helvetica, Arial, sans-serif" font-size="16" fill="#a59cc0">Would weigh Moon, Ascendant, and houses</text>
  <path d="M 70 524.8 L 70.5 527.5 L 73.2 528 L 70.5 528.5 L 70 531.2 L 69.5 528.5 L 66.8 528 L 69.5 527.5 Z" fill="#d4af6a" opacity="0.8"/>
  <text x="84" y="533.0" font-family="Helvetica, Arial, sans-serif" font-size="16" fill="#a59cc0">Needs a recorded birth time — not public for Cunha</text>
  <path d="M 70 553.8 L 70.5 556.5 L 73.2 557 L 70.5 557.5 L 70 560.2 L 69.5 557.5 L 66.8 557 L 69.5 556.5 Z" fill="#d4af6a" opacity="0.8"/>
  <text x="84" y="562.0" font-family="Helvetica, Arial, sans-serif" font-size="16" fill="#a59cc0">So this stays at the Gemini Sun level</text>
  <path d="M 202.22749999999988 585.4 L 202.6 587.6 L 204.8 588 L 202.6 588.4 L 202.22749999999988 590.6 L 201.8 588.4 L 199.6 588 L 201.8 587.6 Z" fill="#d4af6a" opacity="0.5"/>
  <text x="380" y="592" text-anchor="middle" font-family="Georgia, 'Times New Roman', serif" font-style="italic" font-size="11.5" fill="#7b738f">A self-reflection framework — tendencies, not predictions</text>
  <path d="M 557.7725000000002 585.4 L 558.2 587.6 L 560.4 588 L 558.2 588.4 L 557.7725000000002 590.6 L 557.4 588.4 L 555.2 588 L 557.4 587.6 Z" fill="#d4af6a" opacity="0.5"/>
</svg>
