<svg xmlns="http://www.w3.org/2000/svg" viewBox="0 0 760 701" role="img" aria-label="Three Chart Reading Approaches Compared">
  <defs>
    <linearGradient id="mbappebirthchart0en-panel" x1="0" y1="0" x2="0.4" y2="1">
      <stop offset="0" stop-color="#1a1433"/><stop offset="0.55" stop-color="#120e26"/><stop offset="1" stop-color="#09081a"/>
    </linearGradient>
    <radialGradient id="mbappebirthchart0en-foil" cx="0.42" cy="0.34" r="0.75">
      <stop offset="0" stop-color="#fbf0d2"/><stop offset="0.5" stop-color="#e8c882"/><stop offset="1" stop-color="#b8923f"/>
    </radialGradient>
    <radialGradient id="mbappebirthchart0en-glow" cx="0.5" cy="0.5" r="0.5">
      <stop offset="0" stop-color="#f6e6bf"/><stop offset="1" stop-color="#f6e6bf" stop-opacity="0"/>
    </radialGradient>
    <radialGradient id="mbappebirthchart0en-neb1" cx="0.5" cy="0.5" r="0.5">
      <stop offset="0" stop-color="#6f4bb0" stop-opacity="0.28"/><stop offset="1" stop-color="#6f4bb0" stop-opacity="0"/>
    </radialGradient>
    <radialGradient id="mbappebirthchart0en-neb2" cx="0.5" cy="0.5" r="0.5">
      <stop offset="0" stop-color="#d4af6a" stop-opacity="0.16"/><stop offset="1" stop-color="#d4af6a" stop-opacity="0"/>
    </radialGradient>
    <linearGradient id="mbappebirthchart0en-rule" x1="0" y1="0" x2="1" y2="0">
      <stop offset="0" stop-color="#d4af6a" stop-opacity="0"/><stop offset="0.5" stop-color="#d4af6a" stop-opacity="0.6"/><stop offset="1" stop-color="#d4af6a" stop-opacity="0"/>
    </linearGradient>
  </defs>
  <rect x="1.5" y="1.5" width="757" height="698" rx="22" fill="url(#mbappebirthchart0en-panel)"/>
  <ellipse cx="198" cy="168" rx="380" ry="238" fill="url(#mbappebirthchart0en-neb1)"/>
  <ellipse cx="623" cy="561" rx="334" ry="224" fill="url(#mbappebirthchart0en-neb2)"/>
  <circle cx="454.7" cy="653.5" r="1.32" fill="#cfc8ea" opacity="0.31"/><circle cx="746.6" cy="340.5" r="1.54" fill="#cfc8ea" opacity="0.45"/><circle cx="121.6" cy="533.7" r="1.40" fill="#cfc8ea" opacity="0.17"/><circle cx="109.5" cy="430.8" r="0.56" fill="#cfc8ea" opacity="0.47"/><circle cx="165.8" cy="253.5" r="0.51" fill="#cfc8ea" opacity="0.36"/><circle cx="575.5" cy="294.2" r="0.96" fill="#cfc8ea" opacity="0.52"/><circle cx="544.3" cy="295.4" r="0.50" fill="#cfc8ea" opacity="0.42"/><circle cx="597.5" cy="20.2" r="0.56" fill="#cfc8ea" opacity="0.21"/><circle cx="385.6" cy="53.1" r="0.98" fill="#cfc8ea" opacity="0.23"/><circle cx="521.9" cy="312.0" r="1.55" fill="#cfc8ea" opacity="0.31"/><circle cx="21.2" cy="329.9" r="0.53" fill="#cfc8ea" opacity="0.34"/><circle cx="443.8" cy="365.5" r="0.70" fill="#cfc8ea" opacity="0.52"/><circle cx="105.5" cy="464.1" r="0.80" fill="#cfc8ea" opacity="0.21"/><circle cx="87.1" cy="165.9" r="1.48" fill="#cfc8ea" opacity="0.44"/><circle cx="593.0" cy="464.1" r="0.56" fill="#cfc8ea" opacity="0.28"/><circle cx="13.0" cy="35.7" r="0.52" fill="#cfc8ea" opacity="0.28"/><circle cx="630.5" cy="457.3" r="1.06" fill="#cfc8ea" opacity="0.37"/><circle cx="474.0" cy="218.5" r="1.46" fill="#cfc8ea" opacity="0.33"/><circle cx="626.9" cy="669.9" r="1.19" fill="#cfc8ea" opacity="0.42"/><circle cx="31.4" cy="567.3" r="0.70" fill="#cfc8ea" opacity="0.32"/><circle cx="548.0" cy="415.0" r="0.61" fill="#cfc8ea" opacity="0.14"/><circle cx="389.8" cy="467.5" r="0.89" fill="#cfc8ea" opacity="0.34"/><circle cx="194.6" cy="285.7" r="0.69" fill="#cfc8ea" opacity="0.22"/><circle cx="692.8" cy="146.0" r="1.43" fill="#cfc8ea" opacity="0.46"/><circle cx="572.0" cy="209.6" r="1.07" fill="#cfc8ea" opacity="0.36"/><circle cx="653.7" cy="269.7" r="1.14" fill="#cfc8ea" opacity="0.29"/><circle cx="164.7" cy="253.5" r="0.73" fill="#cfc8ea" opacity="0.38"/><circle cx="465.4" cy="308.4" r="1.44" fill="#cfc8ea" opacity="0.53"/><circle cx="518.9" cy="344.3" r="0.48" fill="#cfc8ea" opacity="0.17"/><circle cx="552.7" cy="619.1" r="0.45" fill="#cfc8ea" opacity="0.40"/><circle cx="171.0" cy="384.2" r="0.50" fill="#cfc8ea" opacity="0.17"/><circle cx="86.4" cy="539.2" r="1.14" fill="#cfc8ea" opacity="0.31"/><circle cx="296.0" cy="624.7" r="1.37" fill="#cfc8ea" opacity="0.33"/><circle cx="725.7" cy="185.9" r="1.50" fill="#cfc8ea" opacity="0.18"/><circle cx="69.4" cy="83.2" r="1.11" fill="#cfc8ea" opacity="0.47"/><circle cx="484.3" cy="494.5" r="1.62" fill="#cfc8ea" opacity="0.51"/><circle cx="35.0" cy="476.4" r="0.75" fill="#cfc8ea" opacity="0.32"/><circle cx="303.3" cy="192.1" r="0.93" fill="#cfc8ea" opacity="0.14"/><circle cx="109.5" cy="303.9" r="1.04" fill="#cfc8ea" opacity="0.31"/><circle cx="485.2" cy="635.6" r="1.09" fill="#cfc8ea" opacity="0.52"/><circle cx="581.5" cy="452.2" r="1.43" fill="#cfc8ea" opacity="0.42"/><circle cx="505.3" cy="193.4" r="0.82" fill="#cfc8ea" opacity="0.44"/><circle cx="386.4" cy="603.6" r="1.22" fill="#cfc8ea" opacity="0.40"/><circle cx="336.8" cy="354.5" r="0.93" fill="#cfc8ea" opacity="0.32"/><circle cx="577.4" cy="584.0" r="0.99" fill="#cfc8ea" opacity="0.50"/><circle cx="586.8" cy="179.5" r="0.52" fill="#cfc8ea" opacity="0.21"/><circle cx="318.5" cy="241.2" r="1.24" fill="#cfc8ea" opacity="0.23"/><circle cx="347.2" cy="285.2" r="1.03" fill="#cfc8ea" opacity="0.23"/><circle cx="544.7" cy="198.9" r="1.18" fill="#cfc8ea" opacity="0.41"/><circle cx="171.9" cy="201.6" r="1.41" fill="#cfc8ea" opacity="0.44"/><circle cx="555.2" cy="238.2" r="0.65" fill="#cfc8ea" opacity="0.47"/><circle cx="305.6" cy="97.6" r="1.43" fill="#cfc8ea" opacity="0.38"/><circle cx="274.5" cy="608.7" r="1.22" fill="#cfc8ea" opacity="0.42"/><circle cx="123.1" cy="417.0" r="0.66" fill="#cfc8ea" opacity="0.27"/><circle cx="334.7" cy="108.9" r="0.55" fill="#cfc8ea" opacity="0.44"/><circle cx="387.7" cy="159.8" r="1.03" fill="#cfc8ea" opacity="0.43"/><circle cx="296.3" cy="62.3" r="1.40" fill="#cfc8ea" opacity="0.19"/><circle cx="161.8" cy="543.7" r="0.85" fill="#cfc8ea" opacity="0.23"/><circle cx="422.6" cy="60.4" r="0.58" fill="#cfc8ea" opacity="0.33"/><path d="M 17.780426798388362 56.7 L 18.2 58.7 L 20.2 59.089217307046056 L 18.2 59.5 L 17.780426798388362 61.5 L 17.4 59.5 L 15.4 59.089217307046056 L 17.4 58.7 Z" fill="#f6e6bf" opacity="0.6776206638198345"/><path d="M 516.5366475787014 660.9 L 517.0 663.5 L 519.6 664.0444342037663 L 517.0 664.5 L 516.5366475787014 667.1 L 516.0 664.5 L 513.4 664.0444342037663 L 516.0 663.5 Z" fill="#f6e6bf" opacity="0.6043664211872966"/><path d="M 472.32781515829265 229.1 L 472.9 232.0 L 475.7 232.5251719765365 L 472.9 233.1 L 472.32781515829265 235.9 L 471.8 233.1 L 468.9 232.5251719765365 L 471.8 232.0 Z" fill="#f6e6bf" opacity="0.7600813338067383"/><path d="M 629.8861282523721 169.1 L 630.4 172.0 L 633.3 172.53103318158537 L 630.4 173.1 L 629.8861282523721 176.0 L 629.3 173.1 L 626.4 172.53103318158537 L 629.3 172.0 Z" fill="#f6e6bf" opacity="0.7408785827923566"/><path d="M 729.0586232226342 510.5 L 729.6 513.3 L 732.4 513.8292786087841 L 729.6 514.4 L 729.0586232226342 517.2 L 728.5 514.4 L 725.7 513.8292786087841 L 728.5 513.3 Z" fill="#f6e6bf" opacity="0.7181852988433093"/><path d="M 474.0 218.5 L 653.7 269.7 L 171.0 384.2 L 725.7 185.9 L 484.3 494.5" fill="none" stroke="#d4af6a" stroke-width="0.6" opacity="0.12"/>
  <rect x="1.5" y="1.5" width="757" height="698" rx="22" fill="none" stroke="#d4af6a" stroke-opacity="0.34" stroke-width="1.2"/>
  <rect x="7" y="7" width="746" height="687" rx="17" fill="none" stroke="#d4af6a" stroke-opacity="0.12" stroke-width="0.8"/>
  <path d="M 16 12.8 L 16.5 15.5 L 19.2 16 L 16.5 16.5 L 16 19.2 L 15.5 16.5 L 12.8 16 L 15.5 15.5 Z" fill="#d4af6a" opacity="0.4"/><path d="M 744 12.8 L 744.5 15.5 L 747.2 16 L 744.5 16.5 L 744 19.2 L 743.5 16.5 L 740.8 16 L 743.5 15.5 Z" fill="#d4af6a" opacity="0.4"/><path d="M 16 681.8 L 16.5 684.5 L 19.2 685 L 16.5 685.5 L 16 688.2 L 15.5 685.5 L 12.8 685 L 15.5 684.5 Z" fill="#d4af6a" opacity="0.4"/><path d="M 744 681.8 L 744.5 684.5 L 747.2 685 L 744.5 685.5 L 744 688.2 L 743.5 685.5 L 740.8 685 L 743.5 684.5 Z" fill="#d4af6a" opacity="0.4"/>
  <text x="380" y="46" text-anchor="middle" font-family="Georgia, 'Times New Roman', serif" font-size="22" letter-spacing="0.4" fill="#efeaf8">Three Chart Reading Approaches Compared</text>
  <line x1="230" y1="67" x2="368" y2="67" stroke="url(#mbappebirthchart0en-rule)" stroke-width="1"/>
  <line x1="392" y1="67" x2="530" y2="67" stroke="url(#mbappebirthchart0en-rule)" stroke-width="1"/>
  <path d="M 380 62.0 L 380.8 66.2 L 385.0 67 L 380.8 67.8 L 380 72.0 L 379.2 67.8 L 375.0 67 L 379.2 66.2 Z" fill="#d4af6a" opacity="0.85"/>

  <rect x="46" y="99" width="668" height="172.0" rx="14" fill="#1d1740" fill-opacity="0.5" stroke="#d4af6a" stroke-opacity="0.22" stroke-width="0.9"/>
  <rect x="46" y="99" width="668" height="3.5" rx="1.8" fill="#d4af6a" fill-opacity="0.6"/>
  <path d="M 380 97.1 L 380.5 100.0 L 383.4 100.5 L 380.5 101.0 L 380 103.9 L 379.5 101.0 L 376.6 100.5 L 379.5 100.0 Z" fill="#f6e6bf" opacity="0.7"/>
  <text x="380" y="128.0" text-anchor="middle" font-family="Georgia, 'Times New Roman', serif" font-size="21" font-weight="700" letter-spacing="0.3" fill="#f3effb">Sign-by-Sign Profile</text>
  <path d="M 70 157.8 L 70.5 160.5 L 73.2 161 L 70.5 161.5 L 70 164.2 L 69.5 161.5 L 66.8 161 L 69.5 160.5 Z" fill="#d4af6a" opacity="0.8"/>
  <text x="84" y="166.0" font-family="Helvetica, Arial, sans-serif" font-size="16" fill="#a59cc0">Lists trait labels by sign</text>
  <path d="M 70 186.8 L 70.5 189.5 L 73.2 190 L 70.5 190.5 L 70 193.2 L 69.5 190.5 L 66.8 190 L 69.5 189.5 Z" fill="#d4af6a" opacity="0.8"/>
  <text x="84" y="195.0" font-family="Helvetica, Arial, sans-serif" font-size="16" fill="#a59cc0">Fixed personality verdict</text>
  <path d="M 70 215.8 L 70.5 218.5 L 73.2 219 L 70.5 219.5 L 70 222.2 L 69.5 219.5 L 66.8 219 L 69.5 218.5 Z" fill="#d4af6a" opacity="0.8"/>
  <text x="84" y="224.0" font-family="Helvetica, Arial, sans-serif" font-size="16" fill="#a59cc0">No timing texture</text>
  <path d="M 70 244.8 L 70.5 247.5 L 73.2 248 L 70.5 248.5 L 70 251.2 L 69.5 248.5 L 66.8 248 L 69.5 247.5 Z" fill="#d4af6a" opacity="0.8"/>
  <text x="84" y="253.0" font-family="Helvetica, Arial, sans-serif" font-size="16" fill="#a59cc0">Readers get stuck on labels</text>
  <path d="M 380 279.5 L 380.7 283.3 L 384.5 284 L 380.7 284.7 L 380 288.5 L 379.3 284.7 L 375.5 284 L 379.3 283.3 Z" fill="#d4af6a" opacity="0.65"/>
  <rect x="46" y="297" width="668" height="172.0" rx="14" fill="#1d1740" fill-opacity="0.5" stroke="#d4af6a" stroke-opacity="0.22" stroke-width="0.9"/>
  <rect x="46" y="297" width="668" height="3.5" rx="1.8" fill="#d4af6a" fill-opacity="0.6"/>
  <path d="M 380 295.1 L 380.5 298.0 L 383.4 298.5 L 380.5 299.0 L 380 301.9 L 379.5 299.0 L 376.6 298.5 L 379.5 298.0 Z" fill="#f6e6bf" opacity="0.7"/>
  <text x="380" y="326.0" text-anchor="middle" font-family="Georgia, 'Times New Roman', serif" font-size="21" font-weight="700" letter-spacing="0.3" fill="#f3effb">Natal + Transit Reading</text>
  <path d="M 70 355.8 L 70.5 358.5 L 73.2 359 L 70.5 359.5 L 70 362.2 L 69.5 359.5 L 66.8 359 L 69.5 358.5 Z" fill="#d4af6a" opacity="0.8"/>
  <text x="84" y="364.0" font-family="Helvetica, Arial, sans-serif" font-size="16" fill="#a59cc0">Jupiter rules the Sagittarius Sun</text>
  <path d="M 70 384.8 L 70.5 387.5 L 73.2 388 L 70.5 388.5 L 70 391.2 L 69.5 388.5 L 66.8 388 L 69.5 387.5 Z" fill="#d4af6a" opacity="0.8"/>
  <text x="84" y="393.0" font-family="Helvetica, Arial, sans-serif" font-size="16" fill="#a59cc0">Times high-visibility windows</text>
  <path d="M 70 413.8 L 70.5 416.5 L 73.2 417 L 70.5 417.5 L 70 420.2 L 69.5 417.5 L 66.8 417 L 69.5 416.5 Z" fill="#d4af6a" opacity="0.8"/>
  <text x="84" y="422.0" font-family="Helvetica, Arial, sans-serif" font-size="16" fill="#a59cc0">Describes opportunities, not outcomes</text>
  <path d="M 70 442.8 L 70.5 445.5 L 73.2 446 L 70.5 446.5 L 70 449.2 L 69.5 446.5 L 66.8 446 L 69.5 445.5 Z" fill="#d4af6a" opacity="0.8"/>
  <text x="84" y="451.0" font-family="Helvetica, Arial, sans-serif" font-size="16" fill="#a59cc0">Honest, defensible, repeatable</text>
  <path d="M 380 477.5 L 380.7 481.3 L 384.5 482 L 380.7 482.7 L 380 486.5 L 379.3 482.7 L 375.5 482 L 379.3 481.3 Z" fill="#d4af6a" opacity="0.65"/>
  <rect x="46" y="495" width="668" height="172.0" rx="14" fill="#1d1740" fill-opacity="0.5" stroke="#d4af6a" stroke-opacity="0.22" stroke-width="0.9"/>
  <rect x="46" y="495" width="668" height="3.5" rx="1.8" fill="#d4af6a" fill-opacity="0.6"/>
  <path d="M 380 493.1 L 380.5 496.0 L 383.4 496.5 L 380.5 497.0 L 380 499.9 L 379.5 497.0 L 376.6 496.5 L 379.5 496.0 Z" fill="#f6e6bf" opacity="0.7"/>
  <text x="380" y="524.0" text-anchor="middle" font-family="Georgia, 'Times New Roman', serif" font-size="21" font-weight="700" letter-spacing="0.3" fill="#f3effb">Full Predictive Forecast</text>
  <path d="M 70 553.8 L 70.5 556.5 L 73.2 557 L 70.5 557.5 L 70 560.2 L 69.5 557.5 L 66.8 557 L 69.5 556.5 Z" fill="#d4af6a" opacity="0.8"/>
  <text x="84" y="562.0" font-family="Helvetica, Arial, sans-serif" font-size="16" fill="#a59cc0">Names a winner outright</text>
  <path d="M 70 582.8 L 70.5 585.5 L 73.2 586 L 70.5 586.5 L 70 589.2 L 69.5 586.5 L 66.8 586 L 69.5 585.5 Z" fill="#d4af6a" opacity="0.8"/>
  <text x="84" y="591.0" font-family="Helvetica, Arial, sans-serif" font-size="16" fill="#a59cc0">Stakes credibility on accuracy</text>
  <path d="M 70 611.8 L 70.5 614.5 L 73.2 615 L 70.5 615.5 L 70 618.2 L 69.5 615.5 L 66.8 615 L 69.5 614.5 Z" fill="#d4af6a" opacity="0.8"/>
  <text x="84" y="620.0" font-family="Helvetica, Arial, sans-serif" font-size="16" fill="#a59cc0">Lives or dies on the result</text>
  <path d="M 70 640.8 L 70.5 643.5 L 73.2 644 L 70.5 644.5 L 70 647.2 L 69.5 644.5 L 66.8 644 L 69.5 643.5 Z" fill="#d4af6a" opacity="0.8"/>
  <text x="84" y="649.0" font-family="Helvetica, Arial, sans-serif" font-size="16" fill="#a59cc0">Sacrifices honesty for false thrill</text>
  <path d="M 202.22749999999988 672.4 L 202.6 674.6 L 204.8 675 L 202.6 675.4 L 202.22749999999988 677.6 L 201.8 675.4 L 199.6 675 L 201.8 674.6 Z" fill="#d4af6a" opacity="0.5"/>
  <text x="380" y="679" text-anchor="middle" font-family="Georgia, 'Times New Roman', serif" font-style="italic" font-size="11.5" fill="#7b738f">A self-reflection framework — tendencies, not predictions</text>
  <path d="M 557.7725000000002 672.4 L 558.2 674.6 L 560.4 675 L 558.2 675.4 L 557.7725000000002 677.6 L 557.4 675.4 L 555.2 675 L 557.4 674.6 Z" fill="#d4af6a" opacity="0.5"/>
</svg>
