<svg xmlns="http://www.w3.org/2000/svg" viewBox="0 0 760 614" role="img" aria-label="Three Lenses Compared">
  <defs>
    <linearGradient id="messiworldcuprecordastrology1en-panel" x1="0" y1="0" x2="0.4" y2="1">
      <stop offset="0" stop-color="#1a1433"/><stop offset="0.55" stop-color="#120e26"/><stop offset="1" stop-color="#09081a"/>
    </linearGradient>
    <radialGradient id="messiworldcuprecordastrology1en-foil" cx="0.42" cy="0.34" r="0.75">
      <stop offset="0" stop-color="#fbf0d2"/><stop offset="0.5" stop-color="#e8c882"/><stop offset="1" stop-color="#b8923f"/>
    </radialGradient>
    <radialGradient id="messiworldcuprecordastrology1en-glow" cx="0.5" cy="0.5" r="0.5">
      <stop offset="0" stop-color="#f6e6bf"/><stop offset="1" stop-color="#f6e6bf" stop-opacity="0"/>
    </radialGradient>
    <radialGradient id="messiworldcuprecordastrology1en-neb1" cx="0.5" cy="0.5" r="0.5">
      <stop offset="0" stop-color="#6f4bb0" stop-opacity="0.28"/><stop offset="1" stop-color="#6f4bb0" stop-opacity="0"/>
    </radialGradient>
    <radialGradient id="messiworldcuprecordastrology1en-neb2" cx="0.5" cy="0.5" r="0.5">
      <stop offset="0" stop-color="#d4af6a" stop-opacity="0.16"/><stop offset="1" stop-color="#d4af6a" stop-opacity="0"/>
    </radialGradient>
    <linearGradient id="messiworldcuprecordastrology1en-rule" x1="0" y1="0" x2="1" y2="0">
      <stop offset="0" stop-color="#d4af6a" stop-opacity="0"/><stop offset="0.5" stop-color="#d4af6a" stop-opacity="0.6"/><stop offset="1" stop-color="#d4af6a" stop-opacity="0"/>
    </linearGradient>
  </defs>
  <rect x="1.5" y="1.5" width="757" height="611" rx="22" fill="url(#messiworldcuprecordastrology1en-panel)"/>
  <ellipse cx="198" cy="147" rx="380" ry="209" fill="url(#messiworldcuprecordastrology1en-neb1)"/>
  <ellipse cx="623" cy="491" rx="334" ry="196" fill="url(#messiworldcuprecordastrology1en-neb2)"/>
  <circle cx="535.3" cy="64.8" r="1.27" fill="#cfc8ea" opacity="0.36"/><circle cx="371.6" cy="278.0" r="1.44" fill="#cfc8ea" opacity="0.22"/><circle cx="490.2" cy="171.0" r="1.02" fill="#cfc8ea" opacity="0.43"/><circle cx="113.2" cy="91.4" r="1.12" fill="#cfc8ea" opacity="0.43"/><circle cx="454.9" cy="112.6" r="0.95" fill="#cfc8ea" opacity="0.47"/><circle cx="421.4" cy="105.4" r="1.19" fill="#cfc8ea" opacity="0.28"/><circle cx="496.6" cy="295.9" r="1.50" fill="#cfc8ea" opacity="0.18"/><circle cx="440.9" cy="325.3" r="1.59" fill="#cfc8ea" opacity="0.35"/><circle cx="475.4" cy="384.5" r="1.61" fill="#cfc8ea" opacity="0.48"/><circle cx="200.4" cy="169.9" r="0.85" fill="#cfc8ea" opacity="0.28"/><circle cx="14.8" cy="243.9" r="1.20" fill="#cfc8ea" opacity="0.21"/><circle cx="508.1" cy="265.9" r="0.86" fill="#cfc8ea" opacity="0.36"/><circle cx="126.9" cy="41.1" r="0.90" fill="#cfc8ea" opacity="0.32"/><circle cx="570.6" cy="137.8" r="0.92" fill="#cfc8ea" opacity="0.24"/><circle cx="480.9" cy="93.6" r="0.74" fill="#cfc8ea" opacity="0.46"/><circle cx="431.2" cy="502.5" r="1.25" fill="#cfc8ea" opacity="0.51"/><circle cx="259.9" cy="472.8" r="0.53" fill="#cfc8ea" opacity="0.23"/><circle cx="204.1" cy="264.8" r="0.41" fill="#cfc8ea" opacity="0.35"/><circle cx="683.3" cy="505.1" r="1.60" fill="#cfc8ea" opacity="0.53"/><circle cx="84.2" cy="451.1" r="1.17" fill="#cfc8ea" opacity="0.21"/><circle cx="495.2" cy="538.1" r="0.59" fill="#cfc8ea" opacity="0.23"/><circle cx="309.8" cy="564.4" r="0.74" fill="#cfc8ea" opacity="0.43"/><circle cx="41.7" cy="150.5" r="0.54" fill="#cfc8ea" opacity="0.38"/><circle cx="586.0" cy="193.2" r="0.93" fill="#cfc8ea" opacity="0.38"/><circle cx="21.4" cy="429.5" r="1.24" fill="#cfc8ea" opacity="0.32"/><circle cx="492.4" cy="480.6" r="1.05" fill="#cfc8ea" opacity="0.24"/><circle cx="686.2" cy="393.5" r="1.22" fill="#cfc8ea" opacity="0.15"/><circle cx="75.9" cy="315.7" r="1.36" fill="#cfc8ea" opacity="0.18"/><circle cx="48.8" cy="88.7" r="0.97" fill="#cfc8ea" opacity="0.40"/><circle cx="13.2" cy="288.4" r="1.01" fill="#cfc8ea" opacity="0.35"/><circle cx="479.8" cy="264.1" r="0.74" fill="#cfc8ea" opacity="0.31"/><circle cx="349.2" cy="165.0" r="0.59" fill="#cfc8ea" opacity="0.38"/><circle cx="525.5" cy="72.9" r="0.75" fill="#cfc8ea" opacity="0.41"/><circle cx="510.8" cy="288.1" r="0.75" fill="#cfc8ea" opacity="0.34"/><circle cx="227.6" cy="323.6" r="1.29" fill="#cfc8ea" opacity="0.45"/><circle cx="627.0" cy="388.6" r="1.12" fill="#cfc8ea" opacity="0.17"/><circle cx="97.8" cy="529.1" r="1.43" fill="#cfc8ea" opacity="0.23"/><circle cx="530.1" cy="492.8" r="1.23" fill="#cfc8ea" opacity="0.16"/><circle cx="656.8" cy="530.7" r="1.54" fill="#cfc8ea" opacity="0.35"/><circle cx="553.5" cy="444.2" r="0.86" fill="#cfc8ea" opacity="0.31"/><circle cx="383.1" cy="572.5" r="1.62" fill="#cfc8ea" opacity="0.26"/><circle cx="365.3" cy="118.2" r="1.07" fill="#cfc8ea" opacity="0.38"/><circle cx="266.8" cy="378.2" r="1.60" fill="#cfc8ea" opacity="0.53"/><circle cx="102.5" cy="192.7" r="1.66" fill="#cfc8ea" opacity="0.45"/><circle cx="353.9" cy="511.7" r="1.14" fill="#cfc8ea" opacity="0.49"/><circle cx="576.1" cy="461.1" r="1.19" fill="#cfc8ea" opacity="0.16"/><circle cx="176.1" cy="277.5" r="1.56" fill="#cfc8ea" opacity="0.29"/><circle cx="454.3" cy="91.1" r="0.50" fill="#cfc8ea" opacity="0.54"/><circle cx="669.8" cy="71.3" r="0.91" fill="#cfc8ea" opacity="0.20"/><circle cx="535.4" cy="150.3" r="1.06" fill="#cfc8ea" opacity="0.30"/><circle cx="202.8" cy="364.4" r="0.85" fill="#cfc8ea" opacity="0.24"/><circle cx="517.5" cy="546.7" r="1.49" fill="#cfc8ea" opacity="0.48"/><path d="M 442.77822643332183 68.1 L 443.3 70.8 L 446.0 71.32127173617482 L 443.3 71.8 L 442.77822643332183 74.6 L 442.3 71.8 L 439.5 71.32127173617482 L 442.3 70.8 Z" fill="#f6e6bf" opacity="0.7947406168561428"/><path d="M 734.518681069836 487.1 L 735.0 489.6 L 737.5 490.0970306005329 L 735.0 490.6 L 734.518681069836 493.1 L 734.0 490.6 L 731.6 490.0970306005329 L 734.0 489.6 Z" fill="#f6e6bf" opacity="0.7046070540789515"/><path d="M 325.4270781110972 171.8 L 325.8 173.8 L 327.9 174.2246016189456 L 325.8 174.6 L 325.4270781110972 176.7 L 325.0 174.6 L 323.0 174.2246016189456 L 325.0 173.8 Z" fill="#f6e6bf" opacity="0.5592194715049118"/><path d="M 408.2151084598154 456.1 L 408.7 458.8 L 411.4 459.3491802755743 L 408.7 459.9 L 408.2151084598154 462.6 L 407.7 459.9 L 405.0 459.3491802755743 L 407.7 458.8 Z" fill="#f6e6bf" opacity="0.5548741557169705"/><path d="M 683.0061756651849 476.3 L 683.5 479.1 L 686.3 479.58551314100623 L 683.5 480.1 L 683.0061756651849 482.8 L 682.5 480.1 L 679.8 479.58551314100623 L 682.5 479.1 Z" fill="#f6e6bf" opacity="0.6176735303830355"/><path d="M 535.3 64.8 L 200.4 169.9 L 14.8 243.9 L 495.2 538.1 L 525.5 72.9" fill="none" stroke="#d4af6a" stroke-width="0.6" opacity="0.12"/>
  <rect x="1.5" y="1.5" width="757" height="611" rx="22" fill="none" stroke="#d4af6a" stroke-opacity="0.34" stroke-width="1.2"/>
  <rect x="7" y="7" width="746" height="600" rx="17" fill="none" stroke="#d4af6a" stroke-opacity="0.12" stroke-width="0.8"/>
  <path d="M 16 12.8 L 16.5 15.5 L 19.2 16 L 16.5 16.5 L 16 19.2 L 15.5 16.5 L 12.8 16 L 15.5 15.5 Z" fill="#d4af6a" opacity="0.4"/><path d="M 744 12.8 L 744.5 15.5 L 747.2 16 L 744.5 16.5 L 744 19.2 L 743.5 16.5 L 740.8 16 L 743.5 15.5 Z" fill="#d4af6a" opacity="0.4"/><path d="M 16 594.8 L 16.5 597.5 L 19.2 598 L 16.5 598.5 L 16 601.2 L 15.5 598.5 L 12.8 598 L 15.5 597.5 Z" fill="#d4af6a" opacity="0.4"/><path d="M 744 594.8 L 744.5 597.5 L 747.2 598 L 744.5 598.5 L 744 601.2 L 743.5 598.5 L 740.8 598 L 743.5 597.5 Z" fill="#d4af6a" opacity="0.4"/>
  <text x="380" y="46" text-anchor="middle" font-family="Georgia, 'Times New Roman', serif" font-size="22" letter-spacing="0.4" fill="#efeaf8">Three Lenses Compared</text>
  <line x1="230" y1="67" x2="368" y2="67" stroke="url(#messiworldcuprecordastrology1en-rule)" stroke-width="1"/>
  <line x1="392" y1="67" x2="530" y2="67" stroke="url(#messiworldcuprecordastrology1en-rule)" stroke-width="1"/>
  <path d="M 380 62.0 L 380.8 66.2 L 385.0 67 L 380.8 67.8 L 380 72.0 L 379.2 67.8 L 375.0 67 L 379.2 66.2 Z" fill="#d4af6a" opacity="0.85"/>

  <rect x="46" y="99" width="668" height="143.0" rx="14" fill="#1d1740" fill-opacity="0.5" stroke="#d4af6a" stroke-opacity="0.22" stroke-width="0.9"/>
  <rect x="46" y="99" width="3.5" height="143.0" rx="1.8" fill="#d4af6a" fill-opacity="0.6"/>
  <path d="M 47.75 108.6 L 48.3 111.5 L 51.1 112 L 48.3 112.5 L 47.75 115.4 L 47.2 112.5 L 44.4 112 L 47.2 111.5 Z" fill="#f6e6bf" opacity="0.7"/>
  <text x="380" y="128.0" text-anchor="middle" font-family="Georgia, 'Times New Roman', serif" font-size="21" font-weight="700" letter-spacing="0.3" fill="#f3effb">Career-arc reading</text>
  <path d="M 70 157.8 L 70.5 160.5 L 73.2 161 L 70.5 161.5 L 70 164.2 L 69.5 161.5 L 66.8 161 L 69.5 160.5 Z" fill="#d4af6a" opacity="0.8"/>
  <text x="84" y="166.0" font-family="Helvetica, Arial, sans-serif" font-size="16" fill="#a59cc0">Frames a 16-year wait, durable view</text>
  <path d="M 70 186.8 L 70.5 189.5 L 73.2 190 L 70.5 190.5 L 70 193.2 L 69.5 190.5 L 66.8 190 L 69.5 189.5 Z" fill="#d4af6a" opacity="0.8"/>
  <text x="84" y="195.0" font-family="Helvetica, Arial, sans-serif" font-size="16" fill="#a59cc0">Cannot tell you which game turns</text>
  <path d="M 70 215.8 L 70.5 218.5 L 73.2 219 L 70.5 219.5 L 70 222.2 L 69.5 219.5 L 66.8 219 L 69.5 218.5 Z" fill="#d4af6a" opacity="0.8"/>
  <text x="84" y="224.0" font-family="Helvetica, Arial, sans-serif" font-size="16" fill="#a59cc0">Describes a life's competitive passage</text>
  <path d="M 380 250.5 L 380.7 254.3 L 384.5 255 L 380.7 255.7 L 380 259.5 L 379.3 255.7 L 375.5 255 L 379.3 254.3 Z" fill="#d4af6a" opacity="0.65"/>
  <rect x="46" y="268" width="668" height="143.0" rx="14" fill="#1d1740" fill-opacity="0.5" stroke="#d4af6a" stroke-opacity="0.22" stroke-width="0.9"/>
  <rect x="46" y="268" width="3.5" height="143.0" rx="1.8" fill="#d4af6a" fill-opacity="0.6"/>
  <path d="M 47.75 277.6 L 48.3 280.5 L 51.1 281 L 48.3 281.5 L 47.75 284.4 L 47.2 281.5 L 44.4 281 L 47.2 280.5 Z" fill="#f6e6bf" opacity="0.7"/>
  <text x="380" y="297.0" text-anchor="middle" font-family="Georgia, 'Times New Roman', serif" font-size="21" font-weight="700" letter-spacing="0.3" fill="#f3effb">Single-match horoscope</text>
  <path d="M 70 326.8 L 70.5 329.5 L 73.2 330 L 70.5 330.5 L 70 333.2 L 69.5 330.5 L 66.8 330 L 69.5 329.5 Z" fill="#d4af6a" opacity="0.8"/>
  <text x="84" y="335.0" font-family="Helvetica, Arial, sans-serif" font-size="16" fill="#a59cc0">Thrill of a fixture-by-fixture call</text>
  <path d="M 70 355.8 L 70.5 358.5 L 73.2 359 L 70.5 359.5 L 70 362.2 L 69.5 359.5 L 66.8 359 L 69.5 358.5 Z" fill="#d4af6a" opacity="0.8"/>
  <text x="84" y="364.0" font-family="Helvetica, Arial, sans-serif" font-size="16" fill="#a59cc0">Close-up on a lineup or scoreline</text>
  <path d="M 70 384.8 L 70.5 387.5 L 73.2 388 L 70.5 388.5 L 70 391.2 L 69.5 388.5 L 66.8 388 L 69.5 387.5 Z" fill="#d4af6a" opacity="0.8"/>
  <text x="84" y="393.0" font-family="Helvetica, Arial, sans-serif" font-size="16" fill="#a59cc0">Gives up the long, archetypal view</text>
  <path d="M 380 419.5 L 380.7 423.3 L 384.5 424 L 380.7 424.7 L 380 428.5 L 379.3 424.7 L 375.5 424 L 379.3 423.3 Z" fill="#d4af6a" opacity="0.65"/>
  <rect x="46" y="437" width="668" height="143.0" rx="14" fill="#1d1740" fill-opacity="0.5" stroke="#d4af6a" stroke-opacity="0.22" stroke-width="0.9"/>
  <rect x="46" y="437" width="3.5" height="143.0" rx="1.8" fill="#d4af6a" fill-opacity="0.6"/>
  <path d="M 47.75 446.6 L 48.3 449.5 L 51.1 450 L 48.3 450.5 L 47.75 453.4 L 47.2 450.5 L 44.4 450 L 47.2 449.5 Z" fill="#f6e6bf" opacity="0.7"/>
  <text x="380" y="466.0" text-anchor="middle" font-family="Georgia, 'Times New Roman', serif" font-size="21" font-weight="700" letter-spacing="0.3" fill="#f3effb">Literal natal transit</text>
  <path d="M 70 495.8 L 70.5 498.5 L 73.2 499 L 70.5 499.5 L 70 502.2 L 69.5 499.5 L 66.8 499 L 69.5 498.5 Z" fill="#d4af6a" opacity="0.8"/>
  <text x="84" y="504.0" font-family="Helvetica, Arial, sans-serif" font-size="16" fill="#a59cc0">Promises degree-level precision</text>
  <path d="M 70 524.8 L 70.5 527.5 L 73.2 528 L 70.5 528.5 L 70 531.2 L 69.5 528.5 L 66.8 528 L 69.5 527.5 Z" fill="#d4af6a" opacity="0.8"/>
  <text x="84" y="533.0" font-family="Helvetica, Arial, sans-serif" font-size="16" fill="#a59cc0">Needs a verified birth time Messi lacks</text>
  <path d="M 70 553.8 L 70.5 556.5 L 73.2 557 L 70.5 557.5 L 70 560.2 L 69.5 557.5 L 66.8 557 L 69.5 556.5 Z" fill="#d4af6a" opacity="0.8"/>
  <text x="84" y="562.0" font-family="Helvetica, Arial, sans-serif" font-size="16" fill="#a59cc0">Risks inventing Moon, Ascendant, houses</text>
  <path d="M 202.22749999999988 585.4 L 202.6 587.6 L 204.8 588 L 202.6 588.4 L 202.22749999999988 590.6 L 201.8 588.4 L 199.6 588 L 201.8 587.6 Z" fill="#d4af6a" opacity="0.5"/>
  <text x="380" y="592" text-anchor="middle" font-family="Georgia, 'Times New Roman', serif" font-style="italic" font-size="11.5" fill="#7b738f">A self-reflection framework — tendencies, not predictions</text>
  <path d="M 557.7725000000002 585.4 L 558.2 587.6 L 560.4 588 L 558.2 588.4 L 557.7725000000002 590.6 L 557.4 588.4 L 555.2 588 L 557.4 587.6 Z" fill="#d4af6a" opacity="0.5"/>
</svg>
