<svg xmlns="http://www.w3.org/2000/svg" viewBox="0 0 760 433" role="img" aria-label="How to Read the Record Through Astrology">
  <defs>
    <linearGradient id="messiworldcuprecordastrology0en-panel" x1="0" y1="0" x2="0.4" y2="1">
      <stop offset="0" stop-color="#1a1433"/><stop offset="0.55" stop-color="#120e26"/><stop offset="1" stop-color="#09081a"/>
    </linearGradient>
    <radialGradient id="messiworldcuprecordastrology0en-foil" cx="0.42" cy="0.34" r="0.75">
      <stop offset="0" stop-color="#fbf0d2"/><stop offset="0.5" stop-color="#e8c882"/><stop offset="1" stop-color="#b8923f"/>
    </radialGradient>
    <radialGradient id="messiworldcuprecordastrology0en-glow" cx="0.5" cy="0.5" r="0.5">
      <stop offset="0" stop-color="#f6e6bf"/><stop offset="1" stop-color="#f6e6bf" stop-opacity="0"/>
    </radialGradient>
    <radialGradient id="messiworldcuprecordastrology0en-neb1" cx="0.5" cy="0.5" r="0.5">
      <stop offset="0" stop-color="#6f4bb0" stop-opacity="0.28"/><stop offset="1" stop-color="#6f4bb0" stop-opacity="0"/>
    </radialGradient>
    <radialGradient id="messiworldcuprecordastrology0en-neb2" cx="0.5" cy="0.5" r="0.5">
      <stop offset="0" stop-color="#d4af6a" stop-opacity="0.16"/><stop offset="1" stop-color="#d4af6a" stop-opacity="0"/>
    </radialGradient>
    <linearGradient id="messiworldcuprecordastrology0en-rule" x1="0" y1="0" x2="1" y2="0">
      <stop offset="0" stop-color="#d4af6a" stop-opacity="0"/><stop offset="0.5" stop-color="#d4af6a" stop-opacity="0.6"/><stop offset="1" stop-color="#d4af6a" stop-opacity="0"/>
    </linearGradient>
  </defs>
  <rect x="1.5" y="1.5" width="757" height="430" rx="22" fill="url(#messiworldcuprecordastrology0en-panel)"/>
  <ellipse cx="198" cy="104" rx="380" ry="147" fill="url(#messiworldcuprecordastrology0en-neb1)"/>
  <ellipse cx="623" cy="346" rx="334" ry="139" fill="url(#messiworldcuprecordastrology0en-neb2)"/>
  <circle cx="259.1" cy="314.5" r="0.62" fill="#cfc8ea" opacity="0.33"/><circle cx="555.5" cy="350.9" r="1.13" fill="#cfc8ea" opacity="0.18"/><circle cx="349.6" cy="129.4" r="0.93" fill="#cfc8ea" opacity="0.53"/><circle cx="166.9" cy="60.7" r="1.04" fill="#cfc8ea" opacity="0.47"/><circle cx="512.1" cy="368.0" r="1.55" fill="#cfc8ea" opacity="0.41"/><circle cx="224.8" cy="204.7" r="1.07" fill="#cfc8ea" opacity="0.20"/><circle cx="35.0" cy="74.2" r="1.60" fill="#cfc8ea" opacity="0.32"/><circle cx="589.7" cy="302.1" r="1.25" fill="#cfc8ea" opacity="0.51"/><circle cx="501.6" cy="388.1" r="1.02" fill="#cfc8ea" opacity="0.39"/><circle cx="412.6" cy="416.3" r="1.12" fill="#cfc8ea" opacity="0.12"/><circle cx="145.7" cy="69.3" r="0.52" fill="#cfc8ea" opacity="0.20"/><circle cx="172.2" cy="194.9" r="0.47" fill="#cfc8ea" opacity="0.17"/><circle cx="103.3" cy="292.5" r="1.44" fill="#cfc8ea" opacity="0.26"/><circle cx="418.7" cy="114.7" r="0.95" fill="#cfc8ea" opacity="0.40"/><circle cx="708.3" cy="301.5" r="1.43" fill="#cfc8ea" opacity="0.23"/><circle cx="303.7" cy="281.1" r="1.63" fill="#cfc8ea" opacity="0.26"/><circle cx="124.2" cy="86.8" r="1.01" fill="#cfc8ea" opacity="0.26"/><circle cx="493.9" cy="400.5" r="1.43" fill="#cfc8ea" opacity="0.23"/><circle cx="370.3" cy="402.5" r="0.67" fill="#cfc8ea" opacity="0.46"/><circle cx="663.9" cy="129.2" r="0.74" fill="#cfc8ea" opacity="0.52"/><circle cx="617.2" cy="96.6" r="1.24" fill="#cfc8ea" opacity="0.40"/><circle cx="450.3" cy="18.9" r="0.87" fill="#cfc8ea" opacity="0.23"/><circle cx="85.5" cy="341.7" r="1.01" fill="#cfc8ea" opacity="0.31"/><circle cx="522.7" cy="249.6" r="1.53" fill="#cfc8ea" opacity="0.12"/><circle cx="72.2" cy="382.4" r="0.95" fill="#cfc8ea" opacity="0.27"/><circle cx="399.7" cy="67.7" r="1.13" fill="#cfc8ea" opacity="0.29"/><circle cx="115.1" cy="274.9" r="1.09" fill="#cfc8ea" opacity="0.34"/><circle cx="380.8" cy="125.7" r="1.46" fill="#cfc8ea" opacity="0.43"/><circle cx="465.7" cy="135.1" r="0.54" fill="#cfc8ea" opacity="0.44"/><circle cx="89.6" cy="415.2" r="0.79" fill="#cfc8ea" opacity="0.50"/><circle cx="569.4" cy="402.4" r="1.57" fill="#cfc8ea" opacity="0.25"/><circle cx="142.7" cy="37.3" r="1.21" fill="#cfc8ea" opacity="0.47"/><circle cx="514.1" cy="408.4" r="0.40" fill="#cfc8ea" opacity="0.47"/><circle cx="114.6" cy="53.6" r="0.81" fill="#cfc8ea" opacity="0.16"/><circle cx="439.9" cy="358.7" r="1.64" fill="#cfc8ea" opacity="0.24"/><circle cx="505.3" cy="137.8" r="1.47" fill="#cfc8ea" opacity="0.16"/><circle cx="143.1" cy="147.2" r="1.27" fill="#cfc8ea" opacity="0.23"/><path d="M 368.52352009527385 215.0 L 369.1 218.2 L 372.3 218.80542352423072 L 369.1 219.4 L 368.52352009527385 222.6 L 367.9 219.4 L 364.7 218.80542352423072 L 367.9 218.2 Z" fill="#f6e6bf" opacity="0.7500401624944061"/><path d="M 191.43924743495882 314.1 L 191.9 316.8 L 194.6 317.30169562716037 L 191.9 317.8 L 191.43924743495882 320.5 L 190.9 317.8 L 188.3 317.30169562716037 L 190.9 316.8 Z" fill="#f6e6bf" opacity="0.7476238914299757"/><path d="M 570.9856361430138 36.2 L 571.5 39.0 L 574.3 39.511903716251254 L 571.5 40.0 L 570.9856361430138 42.8 L 570.5 40.0 L 567.6 39.511903716251254 L 570.5 39.0 Z" fill="#f6e6bf" opacity="0.6129985205363482"/><path d="M 96.60454069636762 137.8 L 97.2 140.8 L 100.2 141.374783991836 L 97.2 141.9 L 96.60454069636762 145.0 L 96.0 141.9 L 93.0 141.374783991836 L 96.0 140.8 Z" fill="#f6e6bf" opacity="0.6421910187695176"/><path d="M 201.24620790593326 306.4 L 201.8 309.4 L 204.9 310.0016533732414 L 201.8 310.6 L 201.24620790593326 313.6 L 200.7 310.6 L 197.6 310.0016533732414 L 200.7 309.4 Z" fill="#f6e6bf" opacity="0.6458855663891881"/><path d="M 103.3 292.5 L 124.2 86.8 L 493.9 400.5 L 370.3 402.5 L 114.6 53.6" fill="none" stroke="#d4af6a" stroke-width="0.6" opacity="0.12"/>
  <rect x="1.5" y="1.5" width="757" height="430" rx="22" fill="none" stroke="#d4af6a" stroke-opacity="0.34" stroke-width="1.2"/>
  <rect x="7" y="7" width="746" height="419" rx="17" fill="none" stroke="#d4af6a" stroke-opacity="0.12" stroke-width="0.8"/>
  <path d="M 16 12.8 L 16.5 15.5 L 19.2 16 L 16.5 16.5 L 16 19.2 L 15.5 16.5 L 12.8 16 L 15.5 15.5 Z" fill="#d4af6a" opacity="0.4"/><path d="M 744 12.8 L 744.5 15.5 L 747.2 16 L 744.5 16.5 L 744 19.2 L 743.5 16.5 L 740.8 16 L 743.5 15.5 Z" fill="#d4af6a" opacity="0.4"/><path d="M 16 413.8 L 16.5 416.5 L 19.2 417 L 16.5 417.5 L 16 420.2 L 15.5 417.5 L 12.8 417 L 15.5 416.5 Z" fill="#d4af6a" opacity="0.4"/><path d="M 744 413.8 L 744.5 416.5 L 747.2 417 L 744.5 417.5 L 744 420.2 L 743.5 417.5 L 740.8 417 L 743.5 416.5 Z" fill="#d4af6a" opacity="0.4"/>
  <text x="380" y="46" text-anchor="middle" font-family="Georgia, 'Times New Roman', serif" font-size="22" letter-spacing="0.4" fill="#efeaf8">How to Read the Record Through Astrology</text>
  <line x1="230" y1="67" x2="368" y2="67" stroke="url(#messiworldcuprecordastrology0en-rule)" stroke-width="1"/>
  <line x1="392" y1="67" x2="530" y2="67" stroke="url(#messiworldcuprecordastrology0en-rule)" stroke-width="1"/>
  <path d="M 380 62.0 L 380.8 66.2 L 385.0 67 L 380.8 67.8 L 380 72.0 L 379.2 67.8 L 375.0 67 L 379.2 66.2 Z" fill="#d4af6a" opacity="0.85"/>
  <line x1="76" y1="121" x2="76" y2="361" stroke="#d4af6a" stroke-opacity="0.28" stroke-width="1.5"/>
  <circle cx="76" cy="121" r="20.0" fill="url(#messiworldcuprecordastrology0en-glow)" opacity="0.5"/>
    <circle cx="76" cy="121" r="15" fill="url(#messiworldcuprecordastrology0en-foil)" stroke="#f6e6bf" stroke-opacity="0.5" stroke-width="0.8"/>
    <circle cx="76" cy="116.8" r="9.0" fill="#ffffff" opacity="0.10"/>
    <text x="76" y="125.5" text-anchor="middle" font-family="Georgia, 'Times New Roman', serif" font-size="13" font-weight="700" fill="#3a2c12">1</text>
  <text x="116" y="117.0" font-family="Georgia, 'Times New Roman', serif" font-size="22" letter-spacing="0.3" fill="#f3effb">Anchor the facts</text>
  <text x="116" y="139.0" font-family="Helvetica, Arial, sans-serif" font-size="15.5" fill="#a59cc0">Cancer Sun from a 24 June 1987 Rosario birth; five World Cups 2006-2022</text>
  <circle cx="76" cy="181" r="20.0" fill="url(#messiworldcuprecordastrology0en-glow)" opacity="0.5"/>
    <circle cx="76" cy="181" r="15" fill="url(#messiworldcuprecordastrology0en-foil)" stroke="#f6e6bf" stroke-opacity="0.5" stroke-width="0.8"/>
    <circle cx="76" cy="176.8" r="9.0" fill="#ffffff" opacity="0.10"/>
    <text x="76" y="185.5" text-anchor="middle" font-family="Georgia, 'Times New Roman', serif" font-size="13" font-weight="700" fill="#3a2c12">2</text>
  <text x="116" y="177.0" font-family="Georgia, 'Times New Roman', serif" font-size="22" letter-spacing="0.3" fill="#f3effb">Read the Cancer Sun</text>
  <text x="116" y="199.0" font-family="Helvetica, Arial, sans-serif" font-size="15.5" fill="#a59cc0">Symbolic devotion to nation and family, why the national shirt mattered most</text>
  <circle cx="76" cy="241" r="20.0" fill="url(#messiworldcuprecordastrology0en-glow)" opacity="0.5"/>
    <circle cx="76" cy="241" r="15" fill="url(#messiworldcuprecordastrology0en-foil)" stroke="#f6e6bf" stroke-opacity="0.5" stroke-width="0.8"/>
    <circle cx="76" cy="236.8" r="9.0" fill="#ffffff" opacity="0.10"/>
    <text x="76" y="245.5" text-anchor="middle" font-family="Georgia, 'Times New Roman', serif" font-size="13" font-weight="700" fill="#3a2c12">3</text>
  <text x="116" y="237.0" font-family="Georgia, 'Times New Roman', serif" font-size="22" letter-spacing="0.3" fill="#f3effb">Treat the arc as Saturn-paced</text>
  <text x="116" y="259.0" font-family="Helvetica, Arial, sans-serif" font-size="15.5" fill="#a59cc0">A 16-year apprenticeship, more than half of Saturn's ~29.4-year cycle</text>
  <circle cx="76" cy="301" r="20.0" fill="url(#messiworldcuprecordastrology0en-glow)" opacity="0.5"/>
    <circle cx="76" cy="301" r="15" fill="url(#messiworldcuprecordastrology0en-foil)" stroke="#f6e6bf" stroke-opacity="0.5" stroke-width="0.8"/>
    <circle cx="76" cy="296.8" r="9.0" fill="#ffffff" opacity="0.10"/>
    <text x="76" y="305.5" text-anchor="middle" font-family="Georgia, 'Times New Roman', serif" font-size="13" font-weight="700" fill="#3a2c12">4</text>
  <text x="116" y="297.0" font-family="Georgia, 'Times New Roman', serif" font-size="22" letter-spacing="0.3" fill="#f3effb">Frame the 2022 win</text>
  <text x="116" y="319.0" font-family="Helvetica, Arial, sans-serif" font-size="15.5" fill="#a59cc0">A threshold reached well after his first Saturn return of ~2016-17</text>
  <circle cx="76" cy="361" r="20.0" fill="url(#messiworldcuprecordastrology0en-glow)" opacity="0.5"/>
    <circle cx="76" cy="361" r="15" fill="url(#messiworldcuprecordastrology0en-foil)" stroke="#f6e6bf" stroke-opacity="0.5" stroke-width="0.8"/>
    <circle cx="76" cy="356.8" r="9.0" fill="#ffffff" opacity="0.10"/>
    <text x="76" y="365.5" text-anchor="middle" font-family="Georgia, 'Times New Roman', serif" font-size="13" font-weight="700" fill="#3a2c12">5</text>
  <text x="116" y="357.0" font-family="Georgia, 'Times New Roman', serif" font-size="22" letter-spacing="0.3" fill="#f3effb">Hold the archetype open</text>
  <text x="116" y="379.0" font-family="Helvetica, Arial, sans-serif" font-size="15.5" fill="#a59cc0">A season of meaning, not a fixed outcome; leave the future open</text>
  <path d="M 202.22749999999988 404.4 L 202.6 406.6 L 204.8 407 L 202.6 407.4 L 202.22749999999988 409.6 L 201.8 407.4 L 199.6 407 L 201.8 406.6 Z" fill="#d4af6a" opacity="0.5"/>
  <text x="380" y="411" text-anchor="middle" font-family="Georgia, 'Times New Roman', serif" font-style="italic" font-size="11.5" fill="#7b738f">A self-reflection framework — tendencies, not predictions</text>
  <path d="M 557.7725000000002 404.4 L 558.2 406.6 L 560.4 407 L 558.2 407.4 L 557.7725000000002 409.6 L 557.4 407.4 L 555.2 407 L 557.4 406.6 Z" fill="#d4af6a" opacity="0.5"/>
</svg>
