<svg xmlns="http://www.w3.org/2000/svg" viewBox="0 0 760 614" role="img" aria-label="Moon Sign vs Rising Sign vs Sun Sign">
  <defs>
    <linearGradient id="moonrisingsign1en-panel" x1="0" y1="0" x2="0.4" y2="1">
      <stop offset="0" stop-color="#1a1433"/><stop offset="0.55" stop-color="#120e26"/><stop offset="1" stop-color="#09081a"/>
    </linearGradient>
    <radialGradient id="moonrisingsign1en-foil" cx="0.42" cy="0.34" r="0.75">
      <stop offset="0" stop-color="#fbf0d2"/><stop offset="0.5" stop-color="#e8c882"/><stop offset="1" stop-color="#b8923f"/>
    </radialGradient>
    <radialGradient id="moonrisingsign1en-glow" cx="0.5" cy="0.5" r="0.5">
      <stop offset="0" stop-color="#f6e6bf"/><stop offset="1" stop-color="#f6e6bf" stop-opacity="0"/>
    </radialGradient>
    <radialGradient id="moonrisingsign1en-neb1" cx="0.5" cy="0.5" r="0.5">
      <stop offset="0" stop-color="#6f4bb0" stop-opacity="0.28"/><stop offset="1" stop-color="#6f4bb0" stop-opacity="0"/>
    </radialGradient>
    <radialGradient id="moonrisingsign1en-neb2" cx="0.5" cy="0.5" r="0.5">
      <stop offset="0" stop-color="#d4af6a" stop-opacity="0.16"/><stop offset="1" stop-color="#d4af6a" stop-opacity="0"/>
    </radialGradient>
    <linearGradient id="moonrisingsign1en-rule" x1="0" y1="0" x2="1" y2="0">
      <stop offset="0" stop-color="#d4af6a" stop-opacity="0"/><stop offset="0.5" stop-color="#d4af6a" stop-opacity="0.6"/><stop offset="1" stop-color="#d4af6a" stop-opacity="0"/>
    </linearGradient>
  </defs>
  <rect x="1.5" y="1.5" width="757" height="611" rx="22" fill="url(#moonrisingsign1en-panel)"/>
  <ellipse cx="198" cy="147" rx="380" ry="209" fill="url(#moonrisingsign1en-neb1)"/>
  <ellipse cx="623" cy="491" rx="334" ry="196" fill="url(#moonrisingsign1en-neb2)"/>
  <circle cx="128.0" cy="174.1" r="0.98" fill="#cfc8ea" opacity="0.25"/><circle cx="234.0" cy="220.3" r="1.27" fill="#cfc8ea" opacity="0.20"/><circle cx="205.5" cy="513.0" r="0.92" fill="#cfc8ea" opacity="0.35"/><circle cx="394.4" cy="489.5" r="1.68" fill="#cfc8ea" opacity="0.23"/><circle cx="19.6" cy="486.5" r="0.53" fill="#cfc8ea" opacity="0.38"/><circle cx="589.0" cy="478.5" r="1.43" fill="#cfc8ea" opacity="0.53"/><circle cx="335.7" cy="462.7" r="0.47" fill="#cfc8ea" opacity="0.49"/><circle cx="429.2" cy="354.3" r="0.91" fill="#cfc8ea" opacity="0.36"/><circle cx="362.2" cy="143.2" r="0.97" fill="#cfc8ea" opacity="0.24"/><circle cx="708.0" cy="379.6" r="0.83" fill="#cfc8ea" opacity="0.48"/><circle cx="256.6" cy="423.4" r="0.63" fill="#cfc8ea" opacity="0.16"/><circle cx="200.4" cy="244.5" r="0.52" fill="#cfc8ea" opacity="0.45"/><circle cx="549.2" cy="207.0" r="0.89" fill="#cfc8ea" opacity="0.13"/><circle cx="563.8" cy="528.9" r="1.48" fill="#cfc8ea" opacity="0.38"/><circle cx="691.2" cy="374.9" r="0.58" fill="#cfc8ea" opacity="0.37"/><circle cx="326.4" cy="486.7" r="1.12" fill="#cfc8ea" opacity="0.52"/><circle cx="488.1" cy="517.5" r="1.57" fill="#cfc8ea" opacity="0.25"/><circle cx="364.1" cy="452.0" r="0.66" fill="#cfc8ea" opacity="0.23"/><circle cx="399.9" cy="60.0" r="1.19" fill="#cfc8ea" opacity="0.39"/><circle cx="612.7" cy="162.4" r="0.41" fill="#cfc8ea" opacity="0.25"/><circle cx="232.2" cy="113.8" r="0.75" fill="#cfc8ea" opacity="0.30"/><circle cx="631.6" cy="215.3" r="1.59" fill="#cfc8ea" opacity="0.40"/><circle cx="717.9" cy="241.2" r="1.51" fill="#cfc8ea" opacity="0.43"/><circle cx="120.3" cy="235.8" r="1.21" fill="#cfc8ea" opacity="0.44"/><circle cx="538.7" cy="527.0" r="1.53" fill="#cfc8ea" opacity="0.37"/><circle cx="124.8" cy="499.2" r="1.20" fill="#cfc8ea" opacity="0.32"/><circle cx="722.8" cy="398.2" r="0.52" fill="#cfc8ea" opacity="0.40"/><circle cx="26.2" cy="85.0" r="1.42" fill="#cfc8ea" opacity="0.26"/><circle cx="363.3" cy="447.0" r="1.14" fill="#cfc8ea" opacity="0.13"/><circle cx="260.1" cy="504.7" r="0.92" fill="#cfc8ea" opacity="0.46"/><circle cx="106.4" cy="322.5" r="0.68" fill="#cfc8ea" opacity="0.35"/><circle cx="364.2" cy="170.3" r="0.54" fill="#cfc8ea" opacity="0.44"/><circle cx="732.0" cy="504.9" r="0.95" fill="#cfc8ea" opacity="0.15"/><circle cx="590.7" cy="304.6" r="1.26" fill="#cfc8ea" opacity="0.50"/><circle cx="518.3" cy="235.9" r="1.08" fill="#cfc8ea" opacity="0.23"/><circle cx="316.4" cy="115.4" r="1.52" fill="#cfc8ea" opacity="0.47"/><circle cx="327.6" cy="481.0" r="0.41" fill="#cfc8ea" opacity="0.13"/><circle cx="257.3" cy="235.9" r="0.52" fill="#cfc8ea" opacity="0.17"/><circle cx="746.5" cy="104.6" r="0.59" fill="#cfc8ea" opacity="0.28"/><circle cx="136.1" cy="510.3" r="1.60" fill="#cfc8ea" opacity="0.23"/><circle cx="697.1" cy="303.4" r="1.38" fill="#cfc8ea" opacity="0.34"/><circle cx="638.6" cy="108.0" r="0.79" fill="#cfc8ea" opacity="0.34"/><circle cx="419.5" cy="150.3" r="0.99" fill="#cfc8ea" opacity="0.18"/><circle cx="20.9" cy="366.4" r="0.98" fill="#cfc8ea" opacity="0.44"/><circle cx="160.7" cy="424.5" r="0.54" fill="#cfc8ea" opacity="0.52"/><circle cx="196.9" cy="559.9" r="0.51" fill="#cfc8ea" opacity="0.45"/><circle cx="604.8" cy="576.0" r="1.19" fill="#cfc8ea" opacity="0.22"/><circle cx="271.5" cy="598.5" r="1.38" fill="#cfc8ea" opacity="0.44"/><circle cx="584.6" cy="253.3" r="0.81" fill="#cfc8ea" opacity="0.35"/><circle cx="666.0" cy="195.8" r="0.89" fill="#cfc8ea" opacity="0.44"/><circle cx="164.2" cy="442.2" r="1.50" fill="#cfc8ea" opacity="0.24"/><circle cx="631.8" cy="449.1" r="0.81" fill="#cfc8ea" opacity="0.14"/><path d="M 576.5925551671535 551.3 L 577.0 553.5 L 579.2 553.9145535146818 L 577.0 554.3 L 576.5925551671535 556.6 L 576.2 554.3 L 573.9 553.9145535146818 L 576.2 553.5 Z" fill="#f6e6bf" opacity="0.7575912082567811"/><path d="M 444.89879860915244 390.5 L 445.5 393.8 L 448.8 394.4270011568442 L 445.5 395.1 L 444.89879860915244 398.3 L 444.3 395.1 L 441.0 394.4270011568442 L 444.3 393.8 Z" fill="#f6e6bf" opacity="0.6187440247274936"/><path d="M 425.08727984316647 533.2 L 425.5 535.4 L 427.8 535.8768138838932 L 425.5 536.3 L 425.08727984316647 538.6 L 424.7 536.3 L 422.4 535.8768138838932 L 424.7 535.4 Z" fill="#f6e6bf" opacity="0.7459019027650357"/><path d="M 344.8627470228821 406.3 L 345.4 409.3 L 348.5 409.9088018955663 L 345.4 410.5 L 344.8627470228821 413.6 L 344.3 410.5 L 341.2 409.9088018955663 L 344.3 409.3 Z" fill="#f6e6bf" opacity="0.7276106177829206"/><path d="M 584.7754988390952 417.6 L 585.2 420.1 L 587.7 420.54766583349556 L 585.2 421.0 L 584.7754988390952 423.5 L 584.3 421.0 L 581.8 420.54766583349556 L 584.3 420.1 Z" fill="#f6e6bf" opacity="0.5944199582561851"/><path d="M 19.6 486.5 L 488.1 517.5 L 612.7 162.4 L 120.3 235.8 L 26.2 85.0" fill="none" stroke="#d4af6a" stroke-width="0.6" opacity="0.12"/>
  <rect x="1.5" y="1.5" width="757" height="611" rx="22" fill="none" stroke="#d4af6a" stroke-opacity="0.34" stroke-width="1.2"/>
  <rect x="7" y="7" width="746" height="600" rx="17" fill="none" stroke="#d4af6a" stroke-opacity="0.12" stroke-width="0.8"/>
  <path d="M 16 12.8 L 16.5 15.5 L 19.2 16 L 16.5 16.5 L 16 19.2 L 15.5 16.5 L 12.8 16 L 15.5 15.5 Z" fill="#d4af6a" opacity="0.4"/><path d="M 744 12.8 L 744.5 15.5 L 747.2 16 L 744.5 16.5 L 744 19.2 L 743.5 16.5 L 740.8 16 L 743.5 15.5 Z" fill="#d4af6a" opacity="0.4"/><path d="M 16 594.8 L 16.5 597.5 L 19.2 598 L 16.5 598.5 L 16 601.2 L 15.5 598.5 L 12.8 598 L 15.5 597.5 Z" fill="#d4af6a" opacity="0.4"/><path d="M 744 594.8 L 744.5 597.5 L 747.2 598 L 744.5 598.5 L 744 601.2 L 743.5 598.5 L 740.8 598 L 743.5 597.5 Z" fill="#d4af6a" opacity="0.4"/>
  <text x="380" y="46" text-anchor="middle" font-family="Georgia, 'Times New Roman', serif" font-size="22" letter-spacing="0.4" fill="#efeaf8">Moon Sign vs Rising Sign vs Sun Sign</text>
  <line x1="230" y1="67" x2="368" y2="67" stroke="url(#moonrisingsign1en-rule)" stroke-width="1"/>
  <line x1="392" y1="67" x2="530" y2="67" stroke="url(#moonrisingsign1en-rule)" stroke-width="1"/>
  <path d="M 380 62.0 L 380.8 66.2 L 385.0 67 L 380.8 67.8 L 380 72.0 L 379.2 67.8 L 375.0 67 L 379.2 66.2 Z" fill="#d4af6a" opacity="0.85"/>

  <rect x="46" y="99" width="668" height="143.0" rx="14" fill="#1d1740" fill-opacity="0.5" stroke="#d4af6a" stroke-opacity="0.22" stroke-width="0.9"/>
  <rect x="46" y="99" width="668" height="3.5" rx="1.8" fill="#d4af6a" fill-opacity="0.6"/>
  <path d="M 380 97.1 L 380.5 100.0 L 383.4 100.5 L 380.5 101.0 L 380 103.9 L 379.5 101.0 L 376.6 100.5 L 379.5 100.0 Z" fill="#f6e6bf" opacity="0.7"/>
  <text x="380" y="128.0" text-anchor="middle" font-family="Georgia, 'Times New Roman', serif" font-size="21" font-weight="700" letter-spacing="0.3" fill="#f3effb">Moon Sign</text>
  <path d="M 70 157.8 L 70.5 160.5 L 73.2 161 L 70.5 161.5 L 70 164.2 L 69.5 161.5 L 66.8 161 L 69.5 160.5 Z" fill="#d4af6a" opacity="0.8"/>
  <text x="84" y="166.0" font-family="Helvetica, Arial, sans-serif" font-size="16" fill="#a59cc0">Emotional needs, instincts, inner security</text>
  <path d="M 70 186.8 L 70.5 189.5 L 73.2 190 L 70.5 190.5 L 70 193.2 L 69.5 190.5 L 66.8 190 L 69.5 189.5 Z" fill="#d4af6a" opacity="0.8"/>
  <text x="84" y="195.0" font-family="Helvetica, Arial, sans-serif" font-size="16" fill="#a59cc0">Inner self</text>
  <path d="M 70 215.8 L 70.5 218.5 L 73.2 219 L 70.5 219.5 L 70 222.2 L 69.5 219.5 L 66.8 219 L 69.5 218.5 Z" fill="#d4af6a" opacity="0.8"/>
  <text x="84" y="224.0" font-family="Helvetica, Arial, sans-serif" font-size="16" fill="#a59cc0">What soothes or unsettles you before thought</text>
  <path d="M 380 250.5 L 380.7 254.3 L 384.5 255 L 380.7 255.7 L 380 259.5 L 379.3 255.7 L 375.5 255 L 379.3 254.3 Z" fill="#d4af6a" opacity="0.65"/>
  <rect x="46" y="268" width="668" height="143.0" rx="14" fill="#1d1740" fill-opacity="0.5" stroke="#d4af6a" stroke-opacity="0.22" stroke-width="0.9"/>
  <rect x="46" y="268" width="668" height="3.5" rx="1.8" fill="#d4af6a" fill-opacity="0.6"/>
  <path d="M 380 266.1 L 380.5 269.0 L 383.4 269.5 L 380.5 270.0 L 380 272.9 L 379.5 270.0 L 376.6 269.5 L 379.5 269.0 Z" fill="#f6e6bf" opacity="0.7"/>
  <text x="380" y="297.0" text-anchor="middle" font-family="Georgia, 'Times New Roman', serif" font-size="21" font-weight="700" letter-spacing="0.3" fill="#f3effb">Rising Sign (Ascendant)</text>
  <path d="M 70 326.8 L 70.5 329.5 L 73.2 330 L 70.5 330.5 L 70 333.2 L 69.5 330.5 L 66.8 330 L 69.5 329.5 Z" fill="#d4af6a" opacity="0.8"/>
  <text x="84" y="335.0" font-family="Helvetica, Arial, sans-serif" font-size="16" fill="#a59cc0">Outer personality, appearance, first impression</text>
  <path d="M 70 355.8 L 70.5 358.5 L 73.2 359 L 70.5 359.5 L 70 362.2 L 69.5 359.5 L 66.8 359 L 69.5 358.5 Z" fill="#d4af6a" opacity="0.8"/>
  <text x="84" y="364.0" font-family="Helvetica, Arial, sans-serif" font-size="16" fill="#a59cc0">Outer mask</text>
  <path d="M 70 384.8 L 70.5 387.5 L 73.2 388 L 70.5 388.5 L 70 391.2 L 69.5 388.5 L 66.8 388 L 69.5 387.5 Z" fill="#d4af6a" opacity="0.8"/>
  <text x="84" y="393.0" font-family="Helvetica, Arial, sans-serif" font-size="16" fill="#a59cc0">The manner others meet on first contact</text>
  <path d="M 380 419.5 L 380.7 423.3 L 384.5 424 L 380.7 424.7 L 380 428.5 L 379.3 424.7 L 375.5 424 L 379.3 423.3 Z" fill="#d4af6a" opacity="0.65"/>
  <rect x="46" y="437" width="668" height="143.0" rx="14" fill="#1d1740" fill-opacity="0.5" stroke="#d4af6a" stroke-opacity="0.22" stroke-width="0.9"/>
  <rect x="46" y="437" width="668" height="3.5" rx="1.8" fill="#d4af6a" fill-opacity="0.6"/>
  <path d="M 380 435.1 L 380.5 438.0 L 383.4 438.5 L 380.5 439.0 L 380 441.9 L 379.5 439.0 L 376.6 438.5 L 379.5 438.0 Z" fill="#f6e6bf" opacity="0.7"/>
  <text x="380" y="466.0" text-anchor="middle" font-family="Georgia, 'Times New Roman', serif" font-size="21" font-weight="700" letter-spacing="0.3" fill="#f3effb">Sun Sign</text>
  <path d="M 70 495.8 L 70.5 498.5 L 73.2 499 L 70.5 499.5 L 70 502.2 L 69.5 499.5 L 66.8 499 L 69.5 498.5 Z" fill="#d4af6a" opacity="0.8"/>
  <text x="84" y="504.0" font-family="Helvetica, Arial, sans-serif" font-size="16" fill="#a59cc0">Conscious sense of self and purpose</text>
  <path d="M 70 524.8 L 70.5 527.5 L 73.2 528 L 70.5 528.5 L 70 531.2 L 69.5 528.5 L 66.8 528 L 69.5 527.5 Z" fill="#d4af6a" opacity="0.8"/>
  <text x="84" y="533.0" font-family="Helvetica, Arial, sans-serif" font-size="16" fill="#a59cc0">Core identity</text>
  <path d="M 70 553.8 L 70.5 556.5 L 73.2 557 L 70.5 557.5 L 70 560.2 L 69.5 557.5 L 66.8 557 L 69.5 556.5 Z" fill="#d4af6a" opacity="0.8"/>
  <text x="84" y="562.0" font-family="Helvetica, Arial, sans-serif" font-size="16" fill="#a59cc0">The intentional I you steer toward</text>
  <path d="M 202.22749999999988 585.4 L 202.6 587.6 L 204.8 588 L 202.6 588.4 L 202.22749999999988 590.6 L 201.8 588.4 L 199.6 588 L 201.8 587.6 Z" fill="#d4af6a" opacity="0.5"/>
  <text x="380" y="592" text-anchor="middle" font-family="Georgia, 'Times New Roman', serif" font-style="italic" font-size="11.5" fill="#7b738f">A self-reflection framework — tendencies, not predictions</text>
  <path d="M 557.7725000000002 585.4 L 558.2 587.6 L 560.4 588 L 558.2 588.4 L 557.7725000000002 590.6 L 557.4 588.4 L 555.2 588 L 557.4 587.6 Z" fill="#d4af6a" opacity="0.5"/>
</svg>
