<svg xmlns="http://www.w3.org/2000/svg" viewBox="0 0 760 599" role="img" aria-label="Championship Timeline Patterns: Aquarius vs Capricorn">
  <defs>
    <linearGradient id="nikobirthchart0en-panel" x1="0" y1="0" x2="0.4" y2="1">
      <stop offset="0" stop-color="#1a1433"/><stop offset="0.55" stop-color="#120e26"/><stop offset="1" stop-color="#09081a"/>
    </linearGradient>
    <radialGradient id="nikobirthchart0en-foil" cx="0.42" cy="0.34" r="0.75">
      <stop offset="0" stop-color="#fbf0d2"/><stop offset="0.5" stop-color="#e8c882"/><stop offset="1" stop-color="#b8923f"/>
    </radialGradient>
    <radialGradient id="nikobirthchart0en-glow" cx="0.5" cy="0.5" r="0.5">
      <stop offset="0" stop-color="#f6e6bf"/><stop offset="1" stop-color="#f6e6bf" stop-opacity="0"/>
    </radialGradient>
    <radialGradient id="nikobirthchart0en-neb1" cx="0.5" cy="0.5" r="0.5">
      <stop offset="0" stop-color="#6f4bb0" stop-opacity="0.28"/><stop offset="1" stop-color="#6f4bb0" stop-opacity="0"/>
    </radialGradient>
    <radialGradient id="nikobirthchart0en-neb2" cx="0.5" cy="0.5" r="0.5">
      <stop offset="0" stop-color="#d4af6a" stop-opacity="0.16"/><stop offset="1" stop-color="#d4af6a" stop-opacity="0"/>
    </radialGradient>
    <linearGradient id="nikobirthchart0en-rule" x1="0" y1="0" x2="1" y2="0">
      <stop offset="0" stop-color="#d4af6a" stop-opacity="0"/><stop offset="0.5" stop-color="#d4af6a" stop-opacity="0.6"/><stop offset="1" stop-color="#d4af6a" stop-opacity="0"/>
    </linearGradient>
  </defs>
  <rect x="1.5" y="1.5" width="757" height="596" rx="22" fill="url(#nikobirthchart0en-panel)"/>
  <ellipse cx="198" cy="144" rx="380" ry="204" fill="url(#nikobirthchart0en-neb1)"/>
  <ellipse cx="623" cy="479" rx="334" ry="192" fill="url(#nikobirthchart0en-neb2)"/>
  <circle cx="517.8" cy="222.6" r="0.51" fill="#cfc8ea" opacity="0.46"/><circle cx="259.0" cy="377.9" r="0.46" fill="#cfc8ea" opacity="0.51"/><circle cx="93.3" cy="506.1" r="0.47" fill="#cfc8ea" opacity="0.17"/><circle cx="734.4" cy="416.5" r="1.30" fill="#cfc8ea" opacity="0.50"/><circle cx="656.4" cy="498.2" r="0.92" fill="#cfc8ea" opacity="0.16"/><circle cx="28.3" cy="207.7" r="0.48" fill="#cfc8ea" opacity="0.42"/><circle cx="131.5" cy="163.7" r="1.09" fill="#cfc8ea" opacity="0.14"/><circle cx="30.7" cy="143.7" r="0.70" fill="#cfc8ea" opacity="0.28"/><circle cx="78.9" cy="372.6" r="0.86" fill="#cfc8ea" opacity="0.51"/><circle cx="646.2" cy="252.5" r="1.36" fill="#cfc8ea" opacity="0.42"/><circle cx="730.5" cy="16.2" r="0.50" fill="#cfc8ea" opacity="0.45"/><circle cx="268.8" cy="384.6" r="1.09" fill="#cfc8ea" opacity="0.32"/><circle cx="512.9" cy="50.4" r="0.54" fill="#cfc8ea" opacity="0.13"/><circle cx="159.3" cy="264.9" r="1.34" fill="#cfc8ea" opacity="0.34"/><circle cx="651.0" cy="340.7" r="1.47" fill="#cfc8ea" opacity="0.49"/><circle cx="451.0" cy="217.9" r="1.55" fill="#cfc8ea" opacity="0.49"/><circle cx="436.3" cy="125.9" r="1.15" fill="#cfc8ea" opacity="0.28"/><circle cx="95.0" cy="321.7" r="0.50" fill="#cfc8ea" opacity="0.23"/><circle cx="499.5" cy="497.1" r="1.28" fill="#cfc8ea" opacity="0.17"/><circle cx="194.3" cy="12.2" r="1.30" fill="#cfc8ea" opacity="0.26"/><circle cx="146.2" cy="362.5" r="0.89" fill="#cfc8ea" opacity="0.44"/><circle cx="45.1" cy="421.1" r="1.41" fill="#cfc8ea" opacity="0.51"/><circle cx="689.7" cy="137.3" r="1.59" fill="#cfc8ea" opacity="0.44"/><circle cx="213.0" cy="411.8" r="1.55" fill="#cfc8ea" opacity="0.17"/><circle cx="691.1" cy="252.9" r="0.97" fill="#cfc8ea" opacity="0.28"/><circle cx="702.7" cy="546.8" r="0.73" fill="#cfc8ea" opacity="0.28"/><circle cx="243.0" cy="581.1" r="1.69" fill="#cfc8ea" opacity="0.43"/><circle cx="449.7" cy="156.4" r="1.00" fill="#cfc8ea" opacity="0.28"/><circle cx="539.8" cy="467.8" r="0.65" fill="#cfc8ea" opacity="0.18"/><circle cx="413.8" cy="127.4" r="1.37" fill="#cfc8ea" opacity="0.19"/><circle cx="392.8" cy="79.4" r="1.30" fill="#cfc8ea" opacity="0.52"/><circle cx="512.9" cy="363.5" r="1.28" fill="#cfc8ea" opacity="0.41"/><circle cx="673.3" cy="425.4" r="1.24" fill="#cfc8ea" opacity="0.20"/><circle cx="665.4" cy="567.5" r="1.25" fill="#cfc8ea" opacity="0.37"/><circle cx="217.4" cy="402.7" r="1.39" fill="#cfc8ea" opacity="0.30"/><circle cx="638.4" cy="45.0" r="1.05" fill="#cfc8ea" opacity="0.22"/><circle cx="261.1" cy="576.9" r="1.02" fill="#cfc8ea" opacity="0.14"/><circle cx="51.0" cy="292.8" r="0.50" fill="#cfc8ea" opacity="0.17"/><circle cx="412.8" cy="361.3" r="1.27" fill="#cfc8ea" opacity="0.39"/><circle cx="104.7" cy="548.1" r="0.88" fill="#cfc8ea" opacity="0.53"/><circle cx="598.1" cy="327.3" r="0.43" fill="#cfc8ea" opacity="0.36"/><circle cx="599.3" cy="71.5" r="0.70" fill="#cfc8ea" opacity="0.39"/><circle cx="588.8" cy="311.3" r="0.60" fill="#cfc8ea" opacity="0.29"/><circle cx="518.4" cy="529.4" r="0.91" fill="#cfc8ea" opacity="0.31"/><circle cx="569.5" cy="475.1" r="1.56" fill="#cfc8ea" opacity="0.22"/><circle cx="487.8" cy="293.5" r="1.08" fill="#cfc8ea" opacity="0.28"/><circle cx="679.9" cy="437.6" r="1.29" fill="#cfc8ea" opacity="0.15"/><circle cx="229.2" cy="15.0" r="1.09" fill="#cfc8ea" opacity="0.12"/><circle cx="216.0" cy="226.3" r="0.96" fill="#cfc8ea" opacity="0.44"/><circle cx="338.6" cy="205.9" r="0.90" fill="#cfc8ea" opacity="0.33"/><circle cx="318.7" cy="481.0" r="1.65" fill="#cfc8ea" opacity="0.49"/><path d="M 172.5278476048261 42.0 L 173.0 44.4 L 175.4 44.8966746092774 L 173.0 45.4 L 172.5278476048261 47.8 L 172.1 45.4 L 169.7 44.8966746092774 L 172.1 44.4 Z" fill="#f6e6bf" opacity="0.6933864574879408"/><path d="M 656.5684290919453 350.0 L 657.1 352.6 L 659.6 353.06399972504005 L 657.1 353.6 L 656.5684290919453 356.1 L 656.1 353.6 L 653.5 353.06399972504005 L 656.1 352.6 Z" fill="#f6e6bf" opacity="0.6219259041361511"/><path d="M 711.0036880988628 181.5 L 711.5 184.3 L 714.3 184.82174340309575 L 711.5 185.4 L 711.0036880988628 188.1 L 710.5 185.4 L 707.7 184.82174340309575 L 710.5 184.3 Z" fill="#f6e6bf" opacity="0.5195401469245553"/><path d="M 98.2154357675463 309.6 L 98.6 311.7 L 100.8 312.110989313107 L 98.6 312.5 L 98.2154357675463 314.7 L 97.8 312.5 L 95.7 312.110989313107 L 97.8 311.7 Z" fill="#f6e6bf" opacity="0.7017654702998698"/><path d="M 113.72497908957303 62.5 L 114.3 65.7 L 117.5 66.29713371628895 L 114.3 66.9 L 113.72497908957303 70.1 L 113.1 66.9 L 109.9 66.29713371628895 L 113.1 65.7 Z" fill="#f6e6bf" opacity="0.6735176600515842"/><path d="M 689.7 137.3 L 512.9 363.5 L 217.4 402.7" fill="none" stroke="#d4af6a" stroke-width="0.6" opacity="0.12"/>
  <rect x="1.5" y="1.5" width="757" height="596" rx="22" fill="none" stroke="#d4af6a" stroke-opacity="0.34" stroke-width="1.2"/>
  <rect x="7" y="7" width="746" height="585" rx="17" fill="none" stroke="#d4af6a" stroke-opacity="0.12" stroke-width="0.8"/>
  <path d="M 16 12.8 L 16.5 15.5 L 19.2 16 L 16.5 16.5 L 16 19.2 L 15.5 16.5 L 12.8 16 L 15.5 15.5 Z" fill="#d4af6a" opacity="0.4"/><path d="M 744 12.8 L 744.5 15.5 L 747.2 16 L 744.5 16.5 L 744 19.2 L 743.5 16.5 L 740.8 16 L 743.5 15.5 Z" fill="#d4af6a" opacity="0.4"/><path d="M 16 579.8 L 16.5 582.5 L 19.2 583 L 16.5 583.5 L 16 586.2 L 15.5 583.5 L 12.8 583 L 15.5 582.5 Z" fill="#d4af6a" opacity="0.4"/><path d="M 744 579.8 L 744.5 582.5 L 747.2 583 L 744.5 583.5 L 744 586.2 L 743.5 583.5 L 740.8 583 L 743.5 582.5 Z" fill="#d4af6a" opacity="0.4"/>
  <text x="380" y="46" text-anchor="middle" font-family="Georgia, 'Times New Roman', serif" font-size="22" letter-spacing="0.4" fill="#efeaf8">Championship Timeline Patterns: Aquarius vs Capricorn</text>
  <line x1="230" y1="67" x2="368" y2="67" stroke="url(#nikobirthchart0en-rule)" stroke-width="1"/>
  <line x1="392" y1="67" x2="530" y2="67" stroke="url(#nikobirthchart0en-rule)" stroke-width="1"/>
  <path d="M 380 62.0 L 380.8 66.2 L 385.0 67 L 380.8 67.8 L 380 72.0 L 379.2 67.8 L 375.0 67 L 379.2 66.2 Z" fill="#d4af6a" opacity="0.85"/>

  <rect x="46" y="99" width="668" height="220.0" rx="14" fill="#1d1740" fill-opacity="0.5" stroke="#d4af6a" stroke-opacity="0.22" stroke-width="0.9"/>
  <rect x="46" y="99" width="3.5" height="220.0" rx="1.8" fill="#d4af6a" fill-opacity="0.6"/>
  <path d="M 47.75 108.6 L 48.3 111.5 L 51.1 112 L 48.3 112.5 L 47.75 115.4 L 47.2 112.5 L 44.4 112 L 47.2 111.5 Z" fill="#f6e6bf" opacity="0.7"/>
  <text x="380" y="128.0" text-anchor="middle" font-family="Georgia, 'Times New Roman', serif" font-size="21" font-weight="700" letter-spacing="0.3" fill="#f3effb">Aquarius</text>
  <path d="M 70 157.8 L 70.5 160.5 L 73.2 161 L 70.5 161.5 L 70 164.2 L 69.5 161.5 L 66.8 161 L 69.5 160.5 Z" fill="#d4af6a" opacity="0.8"/>
  <text x="84" y="166.0" font-family="Helvetica, Arial, sans-serif" font-size="16" fill="#a59cc0">Lateral breakthrough pattern</text>
  <path d="M 70 186.8 L 70.5 189.5 L 73.2 190 L 70.5 190.5 L 70 193.2 L 69.5 190.5 L 66.8 190 L 69.5 189.5 Z" fill="#d4af6a" opacity="0.8"/>
  <text x="84" y="195.0" font-family="Helvetica, Arial, sans-serif" font-size="16" fill="#a59cc0">Individual operates above the team's capacity for an extended period</text>
  <path d="M 70 215.8 L 70.5 218.5 L 73.2 219 L 70.5 219.5 L 70 222.2 L 69.5 219.5 L 66.8 219 L 69.5 218.5 Z" fill="#d4af6a" opacity="0.8"/>
  <text x="84" y="224.0" font-family="Helvetica, Arial, sans-serif" font-size="16" fill="#a59cc0">Vision holds fixed while external structures shift around it</text>
  <path d="M 70 244.8 L 70.5 247.5 L 73.2 248 L 70.5 248.5 L 70 251.2 L 69.5 248.5 L 66.8 248 L 69.5 247.5 Z" fill="#d4af6a" opacity="0.8"/>
  <text x="84" y="253.0" font-family="Helvetica, Arial, sans-serif" font-size="16" fill="#a59cc0">Collective title arrives when team finally meets the individual's</text>
  <text x="84" y="272.0" font-family="Helvetica, Arial, sans-serif" font-size="16" fill="#a59cc0">established level</text>
  <path d="M 70 292.8 L 70.5 295.5 L 73.2 296 L 70.5 296.5 L 70 299.2 L 69.5 296.5 L 66.8 296 L 69.5 295.5 Z" fill="#d4af6a" opacity="0.8"/>
  <text x="84" y="301.0" font-family="Helvetica, Arial, sans-serif" font-size="16" fill="#a59cc0">Breakthrough feels sudden to observers, quietly overdue to the chart holder</text>
  <path d="M 380 327.5 L 380.7 331.3 L 384.5 332 L 380.7 332.7 L 380 336.5 L 379.3 332.7 L 375.5 332 L 379.3 331.3 Z" fill="#d4af6a" opacity="0.65"/>
  <rect x="46" y="345" width="668" height="220.0" rx="14" fill="#1d1740" fill-opacity="0.5" stroke="#d4af6a" stroke-opacity="0.22" stroke-width="0.9"/>
  <rect x="46" y="345" width="3.5" height="220.0" rx="1.8" fill="#d4af6a" fill-opacity="0.6"/>
  <path d="M 47.75 354.6 L 48.3 357.5 L 51.1 358 L 48.3 358.5 L 47.75 361.4 L 47.2 358.5 L 44.4 358 L 47.2 357.5 Z" fill="#f6e6bf" opacity="0.7"/>
  <text x="380" y="374.0" text-anchor="middle" font-family="Georgia, 'Times New Roman', serif" font-size="21" font-weight="700" letter-spacing="0.3" fill="#f3effb">Capricorn</text>
  <path d="M 70 403.8 L 70.5 406.5 L 73.2 407 L 70.5 407.5 L 70 410.2 L 69.5 407.5 L 66.8 407 L 69.5 406.5 Z" fill="#d4af6a" opacity="0.8"/>
  <text x="84" y="412.0" font-family="Helvetica, Arial, sans-serif" font-size="16" fill="#a59cc0">Incremental climb pattern</text>
  <path d="M 70 432.8 L 70.5 435.5 L 73.2 436 L 70.5 436.5 L 70 439.2 L 69.5 436.5 L 66.8 436 L 69.5 435.5 Z" fill="#d4af6a" opacity="0.8"/>
  <text x="84" y="441.0" font-family="Helvetica, Arial, sans-serif" font-size="16" fill="#a59cc0">Rung-by-rung accumulation of secured positions before advancing</text>
  <path d="M 70 461.8 L 70.5 464.5 L 73.2 465 L 70.5 465.5 L 70 468.2 L 69.5 465.5 L 66.8 465 L 69.5 464.5 Z" fill="#d4af6a" opacity="0.8"/>
  <text x="84" y="470.0" font-family="Helvetica, Arial, sans-serif" font-size="16" fill="#a59cc0">Peaks through disciplined preparation rather than a sudden context shift</text>
  <path d="M 70 490.8 L 70.5 493.5 L 73.2 494 L 70.5 494.5 L 70 497.2 L 69.5 494.5 L 66.8 494 L 69.5 493.5 Z" fill="#d4af6a" opacity="0.8"/>
  <text x="84" y="499.0" font-family="Helvetica, Arial, sans-serif" font-size="16" fill="#a59cc0">Consistent tournament results traded for predictability over surprise</text>
  <path d="M 70 519.8 L 70.5 522.5 L 73.2 523 L 70.5 523.5 L 70 526.2 L 69.5 523.5 L 66.8 523 L 69.5 522.5 Z" fill="#d4af6a" opacity="0.8"/>
  <text x="84" y="528.0" font-family="Helvetica, Arial, sans-serif" font-size="16" fill="#a59cc0">Reliable path that reduces capacity for the unexpected collective</text>
  <text x="84" y="547.0" font-family="Helvetica, Arial, sans-serif" font-size="16" fill="#a59cc0">breakthrough</text>
  <path d="M 202.22749999999988 570.4 L 202.6 572.6 L 204.8 573 L 202.6 573.4 L 202.22749999999988 575.6 L 201.8 573.4 L 199.6 573 L 201.8 572.6 Z" fill="#d4af6a" opacity="0.5"/>
  <text x="380" y="577" text-anchor="middle" font-family="Georgia, 'Times New Roman', serif" font-style="italic" font-size="11.5" fill="#7b738f">A self-reflection framework — tendencies, not predictions</text>
  <path d="M 557.7725000000002 570.4 L 558.2 572.6 L 560.4 573 L 558.2 573.4 L 557.7725000000002 575.6 L 557.4 573.4 L 555.2 573 L 557.4 572.6 Z" fill="#d4af6a" opacity="0.5"/>
</svg>
