<svg xmlns="http://www.w3.org/2000/svg" viewBox="0 0 760 550" role="img" aria-label="Five Signals of the Aquarius Breakthrough Pattern in a Natal Chart">
  <defs>
    <linearGradient id="nikobirthchart1en-panel" x1="0" y1="0" x2="0.4" y2="1">
      <stop offset="0" stop-color="#1a1433"/><stop offset="0.55" stop-color="#120e26"/><stop offset="1" stop-color="#09081a"/>
    </linearGradient>
    <radialGradient id="nikobirthchart1en-foil" cx="0.42" cy="0.34" r="0.75">
      <stop offset="0" stop-color="#fbf0d2"/><stop offset="0.5" stop-color="#e8c882"/><stop offset="1" stop-color="#b8923f"/>
    </radialGradient>
    <radialGradient id="nikobirthchart1en-glow" cx="0.5" cy="0.5" r="0.5">
      <stop offset="0" stop-color="#f6e6bf"/><stop offset="1" stop-color="#f6e6bf" stop-opacity="0"/>
    </radialGradient>
    <radialGradient id="nikobirthchart1en-neb1" cx="0.5" cy="0.5" r="0.5">
      <stop offset="0" stop-color="#6f4bb0" stop-opacity="0.28"/><stop offset="1" stop-color="#6f4bb0" stop-opacity="0"/>
    </radialGradient>
    <radialGradient id="nikobirthchart1en-neb2" cx="0.5" cy="0.5" r="0.5">
      <stop offset="0" stop-color="#d4af6a" stop-opacity="0.16"/><stop offset="1" stop-color="#d4af6a" stop-opacity="0"/>
    </radialGradient>
    <linearGradient id="nikobirthchart1en-rule" x1="0" y1="0" x2="1" y2="0">
      <stop offset="0" stop-color="#d4af6a" stop-opacity="0"/><stop offset="0.5" stop-color="#d4af6a" stop-opacity="0.6"/><stop offset="1" stop-color="#d4af6a" stop-opacity="0"/>
    </linearGradient>
  </defs>
  <rect x="1.5" y="1.5" width="757" height="547" rx="22" fill="url(#nikobirthchart1en-panel)"/>
  <ellipse cx="198" cy="132" rx="380" ry="187" fill="url(#nikobirthchart1en-neb1)"/>
  <ellipse cx="623" cy="440" rx="334" ry="176" fill="url(#nikobirthchart1en-neb2)"/>
  <circle cx="58.0" cy="388.7" r="1.15" fill="#cfc8ea" opacity="0.49"/><circle cx="75.1" cy="148.0" r="0.77" fill="#cfc8ea" opacity="0.12"/><circle cx="233.9" cy="454.8" r="0.55" fill="#cfc8ea" opacity="0.50"/><circle cx="680.7" cy="390.2" r="1.39" fill="#cfc8ea" opacity="0.46"/><circle cx="599.3" cy="88.7" r="1.61" fill="#cfc8ea" opacity="0.22"/><circle cx="225.0" cy="26.6" r="0.60" fill="#cfc8ea" opacity="0.50"/><circle cx="593.2" cy="323.8" r="0.99" fill="#cfc8ea" opacity="0.42"/><circle cx="617.8" cy="38.7" r="1.04" fill="#cfc8ea" opacity="0.54"/><circle cx="52.8" cy="190.3" r="1.45" fill="#cfc8ea" opacity="0.19"/><circle cx="433.9" cy="378.8" r="1.09" fill="#cfc8ea" opacity="0.16"/><circle cx="599.6" cy="148.8" r="1.18" fill="#cfc8ea" opacity="0.46"/><circle cx="604.7" cy="344.0" r="1.48" fill="#cfc8ea" opacity="0.51"/><circle cx="536.6" cy="238.3" r="1.30" fill="#cfc8ea" opacity="0.19"/><circle cx="311.2" cy="223.5" r="1.31" fill="#cfc8ea" opacity="0.18"/><circle cx="423.7" cy="13.1" r="0.78" fill="#cfc8ea" opacity="0.30"/><circle cx="578.5" cy="291.6" r="1.18" fill="#cfc8ea" opacity="0.32"/><circle cx="571.9" cy="430.8" r="0.67" fill="#cfc8ea" opacity="0.26"/><circle cx="541.2" cy="21.0" r="0.78" fill="#cfc8ea" opacity="0.35"/><circle cx="76.4" cy="393.2" r="0.91" fill="#cfc8ea" opacity="0.23"/><circle cx="350.6" cy="252.8" r="0.43" fill="#cfc8ea" opacity="0.37"/><circle cx="24.3" cy="166.9" r="1.55" fill="#cfc8ea" opacity="0.26"/><circle cx="640.6" cy="343.8" r="1.28" fill="#cfc8ea" opacity="0.28"/><circle cx="645.9" cy="352.0" r="1.12" fill="#cfc8ea" opacity="0.51"/><circle cx="276.2" cy="233.7" r="0.95" fill="#cfc8ea" opacity="0.43"/><circle cx="640.3" cy="128.2" r="1.26" fill="#cfc8ea" opacity="0.33"/><circle cx="59.3" cy="321.3" r="0.64" fill="#cfc8ea" opacity="0.23"/><circle cx="78.1" cy="534.6" r="0.53" fill="#cfc8ea" opacity="0.24"/><circle cx="144.7" cy="268.7" r="0.91" fill="#cfc8ea" opacity="0.45"/><circle cx="122.8" cy="339.0" r="1.08" fill="#cfc8ea" opacity="0.14"/><circle cx="337.4" cy="371.4" r="1.59" fill="#cfc8ea" opacity="0.45"/><circle cx="303.3" cy="322.4" r="0.47" fill="#cfc8ea" opacity="0.16"/><circle cx="719.4" cy="437.4" r="0.66" fill="#cfc8ea" opacity="0.32"/><circle cx="684.7" cy="460.7" r="1.59" fill="#cfc8ea" opacity="0.14"/><circle cx="325.7" cy="186.8" r="1.19" fill="#cfc8ea" opacity="0.12"/><circle cx="741.1" cy="201.3" r="1.04" fill="#cfc8ea" opacity="0.50"/><circle cx="24.2" cy="216.1" r="0.70" fill="#cfc8ea" opacity="0.22"/><circle cx="215.9" cy="289.8" r="1.18" fill="#cfc8ea" opacity="0.14"/><circle cx="212.7" cy="431.5" r="1.48" fill="#cfc8ea" opacity="0.28"/><circle cx="506.5" cy="14.1" r="1.33" fill="#cfc8ea" opacity="0.30"/><circle cx="215.2" cy="163.6" r="1.19" fill="#cfc8ea" opacity="0.17"/><circle cx="620.4" cy="140.3" r="0.70" fill="#cfc8ea" opacity="0.18"/><circle cx="110.6" cy="431.8" r="1.25" fill="#cfc8ea" opacity="0.37"/><circle cx="173.0" cy="207.8" r="1.56" fill="#cfc8ea" opacity="0.19"/><circle cx="574.3" cy="131.4" r="0.96" fill="#cfc8ea" opacity="0.44"/><circle cx="352.7" cy="392.8" r="1.44" fill="#cfc8ea" opacity="0.44"/><circle cx="477.9" cy="55.7" r="0.75" fill="#cfc8ea" opacity="0.52"/><path d="M 28.30782867409289 163.6 L 28.7 165.8 L 31.0 166.28434255439788 L 28.7 166.7 L 28.30782867409289 169.0 L 27.9 166.7 L 25.6 166.28434255439788 L 27.9 165.8 Z" fill="#f6e6bf" opacity="0.6473837099038064"/><path d="M 357.0632080156356 136.7 L 357.6 139.7 L 360.7 140.3266602596268 L 357.6 140.9 L 357.0632080156356 144.0 L 356.5 140.9 L 353.4 140.3266602596268 L 356.5 139.7 Z" fill="#f6e6bf" opacity="0.5737873358651996"/><path d="M 103.48476260341704 271.0 L 103.9 273.4 L 106.3 273.8025097558275 L 103.9 274.2 L 103.48476260341704 276.6 L 103.0 274.2 L 100.7 273.8025097558275 L 103.0 273.4 Z" fill="#f6e6bf" opacity="0.582327162194997"/><path d="M 478.2145269680768 485.9 L 478.8 489.1 L 481.9 489.6502879736945 L 478.8 490.2 L 478.2145269680768 493.4 L 477.6 490.2 L 474.5 489.6502879736945 L 477.6 489.1 Z" fill="#f6e6bf" opacity="0.523269621655345"/><path d="M 593.076511958614 232.8 L 593.5 235.1 L 595.8 235.50969341862947 L 593.5 235.9 L 593.076511958614 238.2 L 592.6 235.9 L 590.3 235.50969341862947 L 592.6 235.1 Z" fill="#f6e6bf" opacity="0.6144527870230376"/><path d="M 75.1 148.0 L 599.3 88.7 L 541.2 21.0 L 640.3 128.2 L 684.7 460.7" fill="none" stroke="#d4af6a" stroke-width="0.6" opacity="0.12"/>
  <rect x="1.5" y="1.5" width="757" height="547" rx="22" fill="none" stroke="#d4af6a" stroke-opacity="0.34" stroke-width="1.2"/>
  <rect x="7" y="7" width="746" height="536" rx="17" fill="none" stroke="#d4af6a" stroke-opacity="0.12" stroke-width="0.8"/>
  <path d="M 16 12.8 L 16.5 15.5 L 19.2 16 L 16.5 16.5 L 16 19.2 L 15.5 16.5 L 12.8 16 L 15.5 15.5 Z" fill="#d4af6a" opacity="0.4"/><path d="M 744 12.8 L 744.5 15.5 L 747.2 16 L 744.5 16.5 L 744 19.2 L 743.5 16.5 L 740.8 16 L 743.5 15.5 Z" fill="#d4af6a" opacity="0.4"/><path d="M 16 530.8 L 16.5 533.5 L 19.2 534 L 16.5 534.5 L 16 537.2 L 15.5 534.5 L 12.8 534 L 15.5 533.5 Z" fill="#d4af6a" opacity="0.4"/><path d="M 744 530.8 L 744.5 533.5 L 747.2 534 L 744.5 534.5 L 744 537.2 L 743.5 534.5 L 740.8 534 L 743.5 533.5 Z" fill="#d4af6a" opacity="0.4"/>
  <text x="380" y="46" text-anchor="middle" font-family="Georgia, 'Times New Roman', serif" font-size="22" letter-spacing="0.4" fill="#efeaf8">Five Signals of the Aquarius Breakthrough Pattern in a</text>
  <text x="380" y="73" text-anchor="middle" font-family="Georgia, 'Times New Roman', serif" font-size="22" letter-spacing="0.4" fill="#efeaf8">Natal Chart</text>
  <line x1="230" y1="94" x2="368" y2="94" stroke="url(#nikobirthchart1en-rule)" stroke-width="1"/>
  <line x1="392" y1="94" x2="530" y2="94" stroke="url(#nikobirthchart1en-rule)" stroke-width="1"/>
  <path d="M 380 89.0 L 380.8 93.2 L 385.0 94 L 380.8 94.8 L 380 99.0 L 379.2 94.8 L 375.0 94 L 379.2 93.2 Z" fill="#d4af6a" opacity="0.85"/>
  <line x1="76" y1="148" x2="76" y2="460" stroke="#d4af6a" stroke-opacity="0.28" stroke-width="1.5"/>
  <circle cx="76" cy="148" r="20.0" fill="url(#nikobirthchart1en-glow)" opacity="0.5"/>
    <circle cx="76" cy="148" r="15" fill="url(#nikobirthchart1en-foil)" stroke="#f6e6bf" stroke-opacity="0.5" stroke-width="0.8"/>
    <circle cx="76" cy="143.8" r="9.0" fill="#ffffff" opacity="0.10"/>
    <text x="76" y="152.5" text-anchor="middle" font-family="Georgia, 'Times New Roman', serif" font-size="13" font-weight="700" fill="#3a2c12">1</text>
  <text x="116" y="144.0" font-family="Georgia, 'Times New Roman', serif" font-size="22" letter-spacing="0.3" fill="#f3effb">Sun in Late Aquarius — Third Decan (Feb 10–18)</text>
  <text x="116" y="166.0" font-family="Helvetica, Arial, sans-serif" font-size="15.5" fill="#a59cc0">Fixed quality intensifies; individual is consistently the strongest performer</text>
  <text x="116" y="184.0" font-family="Helvetica, Arial, sans-serif" font-size="15.5" fill="#a59cc0">but described as difficult to build around — the group lacks vocabulary for wh…</text>
  <circle cx="76" cy="226" r="20.0" fill="url(#nikobirthchart1en-glow)" opacity="0.5"/>
    <circle cx="76" cy="226" r="15" fill="url(#nikobirthchart1en-foil)" stroke="#f6e6bf" stroke-opacity="0.5" stroke-width="0.8"/>
    <circle cx="76" cy="221.8" r="9.0" fill="#ffffff" opacity="0.10"/>
    <text x="76" y="230.5" text-anchor="middle" font-family="Georgia, 'Times New Roman', serif" font-size="13" font-weight="700" fill="#3a2c12">2</text>
  <text x="116" y="222.0" font-family="Georgia, 'Times New Roman', serif" font-size="22" letter-spacing="0.3" fill="#f3effb">Jupiter-Neptune Career House Contact</text>
  <text x="116" y="244.0" font-family="Helvetica, Arial, sans-serif" font-size="15.5" fill="#a59cc0">Talent amplified (Jupiter) while structural framing dissolves (Neptune);</text>
  <text x="116" y="262.0" font-family="Helvetica, Arial, sans-serif" font-size="15.5" fill="#a59cc0">exceptional output but team structural fit lags until a stable configuration f…</text>
  <circle cx="76" cy="304" r="20.0" fill="url(#nikobirthchart1en-glow)" opacity="0.5"/>
    <circle cx="76" cy="304" r="15" fill="url(#nikobirthchart1en-foil)" stroke="#f6e6bf" stroke-opacity="0.5" stroke-width="0.8"/>
    <circle cx="76" cy="299.8" r="9.0" fill="#ffffff" opacity="0.10"/>
    <text x="76" y="308.5" text-anchor="middle" font-family="Georgia, 'Times New Roman', serif" font-size="13" font-weight="700" fill="#3a2c12">3</text>
  <text x="116" y="300.0" font-family="Georgia, 'Times New Roman', serif" font-size="22" letter-spacing="0.3" fill="#f3effb">Fixed Sun with Mutable House Emphasis</text>
  <text x="116" y="322.0" font-family="Helvetica, Arial, sans-serif" font-size="15.5" fill="#a59cc0">Stable core identity meets shifting external situations across many seasons;</text>
  <text x="116" y="340.0" font-family="Helvetica, Arial, sans-serif" font-size="15.5" fill="#a59cc0">breakthrough follows context stabilization rather than the individual adapti…</text>
  <circle cx="76" cy="382" r="20.0" fill="url(#nikobirthchart1en-glow)" opacity="0.5"/>
    <circle cx="76" cy="382" r="15" fill="url(#nikobirthchart1en-foil)" stroke="#f6e6bf" stroke-opacity="0.5" stroke-width="0.8"/>
    <circle cx="76" cy="377.8" r="9.0" fill="#ffffff" opacity="0.10"/>
    <text x="76" y="386.5" text-anchor="middle" font-family="Georgia, 'Times New Roman', serif" font-size="13" font-weight="700" fill="#3a2c12">4</text>
  <text x="116" y="378.0" font-family="Georgia, 'Times New Roman', serif" font-size="22" letter-spacing="0.3" fill="#f3effb">Minimal Seventh-House Energy</text>
  <text x="116" y="400.0" font-family="Helvetica, Arial, sans-serif" font-size="15.5" fill="#a59cc0">Aquarius defers genuine collective partnership until a team configuration</text>
  <text x="116" y="418.0" font-family="Helvetica, Arial, sans-serif" font-size="15.5" fill="#a59cc0">capable of holding the individual's level emerges; look for patterns of near-m…</text>
  <circle cx="76" cy="460" r="20.0" fill="url(#nikobirthchart1en-glow)" opacity="0.5"/>
    <circle cx="76" cy="460" r="15" fill="url(#nikobirthchart1en-foil)" stroke="#f6e6bf" stroke-opacity="0.5" stroke-width="0.8"/>
    <circle cx="76" cy="455.8" r="9.0" fill="#ffffff" opacity="0.10"/>
    <text x="76" y="464.5" text-anchor="middle" font-family="Georgia, 'Times New Roman', serif" font-size="13" font-weight="700" fill="#3a2c12">5</text>
  <text x="116" y="456.0" font-family="Georgia, 'Times New Roman', serif" font-size="22" letter-spacing="0.3" fill="#f3effb">Saturn Return Timing Window (Ages 27–30)</text>
  <text x="116" y="478.0" font-family="Helvetica, Arial, sans-serif" font-size="15.5" fill="#a59cc0">This transit frequently acts as the structural trigger for Aquarius</text>
  <text x="116" y="496.0" font-family="Helvetica, Arial, sans-serif" font-size="15.5" fill="#a59cc0">breakthroughs — the moment a long-held vision crystallizes into collective fo…</text>
  <path d="M 202.22749999999988 521.4 L 202.6 523.6 L 204.8 524 L 202.6 524.4 L 202.22749999999988 526.6 L 201.8 524.4 L 199.6 524 L 201.8 523.6 Z" fill="#d4af6a" opacity="0.5"/>
  <text x="380" y="528" text-anchor="middle" font-family="Georgia, 'Times New Roman', serif" font-style="italic" font-size="11.5" fill="#7b738f">A self-reflection framework — tendencies, not predictions</text>
  <path d="M 557.7725000000002 521.4 L 558.2 523.6 L 560.4 524 L 558.2 524.4 L 557.7725000000002 526.6 L 557.4 524.4 L 555.2 524 L 557.4 523.6 Z" fill="#d4af6a" opacity="0.5"/>
</svg>
