<svg xmlns="http://www.w3.org/2000/svg" viewBox="0 0 760 614" role="img" aria-label="Leo North Node vs Leo Sun vs Fifth House">
  <defs>
    <linearGradient id="northnodeinleo0en-panel" x1="0" y1="0" x2="0.4" y2="1">
      <stop offset="0" stop-color="#1a1433"/><stop offset="0.55" stop-color="#120e26"/><stop offset="1" stop-color="#09081a"/>
    </linearGradient>
    <radialGradient id="northnodeinleo0en-foil" cx="0.42" cy="0.34" r="0.75">
      <stop offset="0" stop-color="#fbf0d2"/><stop offset="0.5" stop-color="#e8c882"/><stop offset="1" stop-color="#b8923f"/>
    </radialGradient>
    <radialGradient id="northnodeinleo0en-glow" cx="0.5" cy="0.5" r="0.5">
      <stop offset="0" stop-color="#f6e6bf"/><stop offset="1" stop-color="#f6e6bf" stop-opacity="0"/>
    </radialGradient>
    <radialGradient id="northnodeinleo0en-neb1" cx="0.5" cy="0.5" r="0.5">
      <stop offset="0" stop-color="#6f4bb0" stop-opacity="0.28"/><stop offset="1" stop-color="#6f4bb0" stop-opacity="0"/>
    </radialGradient>
    <radialGradient id="northnodeinleo0en-neb2" cx="0.5" cy="0.5" r="0.5">
      <stop offset="0" stop-color="#d4af6a" stop-opacity="0.16"/><stop offset="1" stop-color="#d4af6a" stop-opacity="0"/>
    </radialGradient>
    <linearGradient id="northnodeinleo0en-rule" x1="0" y1="0" x2="1" y2="0">
      <stop offset="0" stop-color="#d4af6a" stop-opacity="0"/><stop offset="0.5" stop-color="#d4af6a" stop-opacity="0.6"/><stop offset="1" stop-color="#d4af6a" stop-opacity="0"/>
    </linearGradient>
  </defs>
  <rect x="1.5" y="1.5" width="757" height="611" rx="22" fill="url(#northnodeinleo0en-panel)"/>
  <ellipse cx="198" cy="147" rx="380" ry="209" fill="url(#northnodeinleo0en-neb1)"/>
  <ellipse cx="623" cy="491" rx="334" ry="196" fill="url(#northnodeinleo0en-neb2)"/>
  <circle cx="536.1" cy="351.0" r="1.30" fill="#cfc8ea" opacity="0.17"/><circle cx="14.0" cy="62.4" r="1.07" fill="#cfc8ea" opacity="0.25"/><circle cx="498.1" cy="409.5" r="0.75" fill="#cfc8ea" opacity="0.25"/><circle cx="422.2" cy="572.2" r="1.57" fill="#cfc8ea" opacity="0.26"/><circle cx="66.5" cy="190.6" r="0.43" fill="#cfc8ea" opacity="0.31"/><circle cx="513.5" cy="595.0" r="1.04" fill="#cfc8ea" opacity="0.37"/><circle cx="502.3" cy="564.6" r="0.51" fill="#cfc8ea" opacity="0.54"/><circle cx="115.4" cy="126.2" r="0.93" fill="#cfc8ea" opacity="0.28"/><circle cx="395.2" cy="591.7" r="1.16" fill="#cfc8ea" opacity="0.26"/><circle cx="361.8" cy="440.7" r="0.67" fill="#cfc8ea" opacity="0.47"/><circle cx="620.4" cy="280.6" r="0.89" fill="#cfc8ea" opacity="0.20"/><circle cx="173.5" cy="500.7" r="0.76" fill="#cfc8ea" opacity="0.43"/><circle cx="522.5" cy="68.9" r="0.46" fill="#cfc8ea" opacity="0.51"/><circle cx="205.0" cy="351.7" r="1.36" fill="#cfc8ea" opacity="0.16"/><circle cx="543.8" cy="433.7" r="1.23" fill="#cfc8ea" opacity="0.41"/><circle cx="654.9" cy="248.7" r="0.61" fill="#cfc8ea" opacity="0.37"/><circle cx="551.4" cy="210.6" r="0.81" fill="#cfc8ea" opacity="0.25"/><circle cx="366.1" cy="140.1" r="1.68" fill="#cfc8ea" opacity="0.19"/><circle cx="135.5" cy="568.3" r="0.84" fill="#cfc8ea" opacity="0.15"/><circle cx="281.7" cy="319.1" r="0.54" fill="#cfc8ea" opacity="0.14"/><circle cx="59.9" cy="424.9" r="1.40" fill="#cfc8ea" opacity="0.48"/><circle cx="453.3" cy="184.8" r="1.57" fill="#cfc8ea" opacity="0.32"/><circle cx="280.7" cy="446.1" r="1.42" fill="#cfc8ea" opacity="0.15"/><circle cx="607.0" cy="411.9" r="0.55" fill="#cfc8ea" opacity="0.27"/><circle cx="444.7" cy="145.5" r="0.77" fill="#cfc8ea" opacity="0.20"/><circle cx="280.4" cy="383.0" r="0.41" fill="#cfc8ea" opacity="0.25"/><circle cx="607.8" cy="540.4" r="0.65" fill="#cfc8ea" opacity="0.52"/><circle cx="229.2" cy="472.4" r="0.88" fill="#cfc8ea" opacity="0.36"/><circle cx="207.4" cy="354.8" r="1.44" fill="#cfc8ea" opacity="0.39"/><circle cx="224.3" cy="21.1" r="1.27" fill="#cfc8ea" opacity="0.28"/><circle cx="70.8" cy="193.7" r="1.53" fill="#cfc8ea" opacity="0.29"/><circle cx="456.3" cy="251.7" r="0.94" fill="#cfc8ea" opacity="0.47"/><circle cx="306.5" cy="563.5" r="0.71" fill="#cfc8ea" opacity="0.26"/><circle cx="64.9" cy="420.3" r="1.62" fill="#cfc8ea" opacity="0.45"/><circle cx="680.1" cy="565.6" r="0.82" fill="#cfc8ea" opacity="0.40"/><circle cx="579.4" cy="41.4" r="1.30" fill="#cfc8ea" opacity="0.34"/><circle cx="83.2" cy="510.3" r="1.55" fill="#cfc8ea" opacity="0.19"/><circle cx="689.6" cy="554.1" r="0.54" fill="#cfc8ea" opacity="0.29"/><circle cx="134.2" cy="173.8" r="1.41" fill="#cfc8ea" opacity="0.47"/><circle cx="110.8" cy="525.3" r="0.54" fill="#cfc8ea" opacity="0.12"/><circle cx="516.6" cy="64.8" r="1.39" fill="#cfc8ea" opacity="0.23"/><circle cx="715.6" cy="178.5" r="0.78" fill="#cfc8ea" opacity="0.44"/><circle cx="502.7" cy="478.8" r="0.96" fill="#cfc8ea" opacity="0.33"/><circle cx="499.8" cy="431.8" r="1.26" fill="#cfc8ea" opacity="0.47"/><circle cx="98.9" cy="403.1" r="1.01" fill="#cfc8ea" opacity="0.44"/><circle cx="138.9" cy="378.7" r="1.08" fill="#cfc8ea" opacity="0.18"/><circle cx="681.1" cy="173.0" r="0.83" fill="#cfc8ea" opacity="0.25"/><circle cx="495.0" cy="254.2" r="0.70" fill="#cfc8ea" opacity="0.31"/><circle cx="455.0" cy="233.3" r="1.07" fill="#cfc8ea" opacity="0.13"/><circle cx="488.5" cy="435.8" r="0.85" fill="#cfc8ea" opacity="0.34"/><circle cx="136.2" cy="47.4" r="1.49" fill="#cfc8ea" opacity="0.50"/><circle cx="115.5" cy="397.1" r="0.56" fill="#cfc8ea" opacity="0.24"/><path d="M 738.1732595749199 462.7 L 738.6 464.9 L 740.9 465.3740888950415 L 738.6 465.8 L 738.1732595749199 468.1 L 737.7 465.8 L 735.5 465.3740888950415 L 737.7 464.9 Z" fill="#f6e6bf" opacity="0.6836477644043043"/><path d="M 418.50019873306155 570.9 L 418.9 573.1 L 421.1 573.5604797215201 L 418.9 574.0 L 418.50019873306155 576.2 L 418.1 574.0 L 415.9 573.5604797215201 L 418.1 573.1 Z" fill="#f6e6bf" opacity="0.7518829049775377"/><path d="M 412.1002567447722 538.5 L 412.6 541.3 L 415.4 541.815010488499 L 412.6 542.3 L 412.1002567447722 545.1 L 411.6 542.3 L 408.8 541.815010488499 L 411.6 541.3 Z" fill="#f6e6bf" opacity="0.6678242248715833"/><path d="M 716.6387606821954 320.3 L 717.2 323.3 L 720.3 323.8893696763553 L 717.2 324.5 L 716.6387606821954 327.5 L 716.1 324.5 L 713.0 323.8893696763553 L 716.1 323.3 Z" fill="#f6e6bf" opacity="0.6611060805851594"/><path d="M 670.2448742873967 539.3 L 670.8 542.4 L 674.0 543.0346125257201 L 670.8 543.6 L 670.2448742873967 546.8 L 669.6 543.6 L 666.5 543.0346125257201 L 669.6 542.4 Z" fill="#f6e6bf" opacity="0.6657035726355389"/><path d="M 536.1 351.0 L 366.1 140.1 L 607.8 540.4 L 456.3 251.7 L 680.1 565.6" fill="none" stroke="#d4af6a" stroke-width="0.6" opacity="0.12"/>
  <rect x="1.5" y="1.5" width="757" height="611" rx="22" fill="none" stroke="#d4af6a" stroke-opacity="0.34" stroke-width="1.2"/>
  <rect x="7" y="7" width="746" height="600" rx="17" fill="none" stroke="#d4af6a" stroke-opacity="0.12" stroke-width="0.8"/>
  <path d="M 16 12.8 L 16.5 15.5 L 19.2 16 L 16.5 16.5 L 16 19.2 L 15.5 16.5 L 12.8 16 L 15.5 15.5 Z" fill="#d4af6a" opacity="0.4"/><path d="M 744 12.8 L 744.5 15.5 L 747.2 16 L 744.5 16.5 L 744 19.2 L 743.5 16.5 L 740.8 16 L 743.5 15.5 Z" fill="#d4af6a" opacity="0.4"/><path d="M 16 594.8 L 16.5 597.5 L 19.2 598 L 16.5 598.5 L 16 601.2 L 15.5 598.5 L 12.8 598 L 15.5 597.5 Z" fill="#d4af6a" opacity="0.4"/><path d="M 744 594.8 L 744.5 597.5 L 747.2 598 L 744.5 598.5 L 744 601.2 L 743.5 598.5 L 740.8 598 L 743.5 597.5 Z" fill="#d4af6a" opacity="0.4"/>
  <text x="380" y="46" text-anchor="middle" font-family="Georgia, 'Times New Roman', serif" font-size="22" letter-spacing="0.4" fill="#efeaf8">Leo North Node vs Leo Sun vs Fifth House</text>
  <line x1="230" y1="67" x2="368" y2="67" stroke="url(#northnodeinleo0en-rule)" stroke-width="1"/>
  <line x1="392" y1="67" x2="530" y2="67" stroke="url(#northnodeinleo0en-rule)" stroke-width="1"/>
  <path d="M 380 62.0 L 380.8 66.2 L 385.0 67 L 380.8 67.8 L 380 72.0 L 379.2 67.8 L 375.0 67 L 379.2 66.2 Z" fill="#d4af6a" opacity="0.85"/>

  <rect x="46" y="99" width="668" height="143.0" rx="14" fill="#1d1740" fill-opacity="0.5" stroke="#d4af6a" stroke-opacity="0.22" stroke-width="0.9"/>
  <rect x="46" y="99" width="668" height="3.5" rx="1.8" fill="#d4af6a" fill-opacity="0.6"/>
  <path d="M 380 97.1 L 380.5 100.0 L 383.4 100.5 L 380.5 101.0 L 380 103.9 L 379.5 101.0 L 376.6 100.5 L 379.5 100.0 Z" fill="#f6e6bf" opacity="0.7"/>
  <text x="380" y="128.0" text-anchor="middle" font-family="Georgia, 'Times New Roman', serif" font-size="21" font-weight="700" letter-spacing="0.3" fill="#f3effb">Leo North Node Axis</text>
  <path d="M 70 157.8 L 70.5 160.5 L 73.2 161 L 70.5 161.5 L 70 164.2 L 69.5 161.5 L 66.8 161 L 69.5 160.5 Z" fill="#d4af6a" opacity="0.8"/>
  <text x="84" y="166.0" font-family="Helvetica, Arial, sans-serif" font-size="16" fill="#a59cc0">Directional pull between past habit and future stretch</text>
  <path d="M 70 186.8 L 70.5 189.5 L 73.2 190 L 70.5 190.5 L 70 193.2 L 69.5 190.5 L 66.8 190 L 69.5 189.5 Z" fill="#d4af6a" opacity="0.8"/>
  <text x="84" y="195.0" font-family="Helvetica, Arial, sans-serif" font-size="16" fill="#a59cc0">Both poles read together, never in isolation</text>
  <path d="M 70 215.8 L 70.5 218.5 L 73.2 219 L 70.5 219.5 L 70 222.2 L 69.5 219.5 L 66.8 219 L 69.5 218.5 Z" fill="#d4af6a" opacity="0.8"/>
  <text x="84" y="224.0" font-family="Helvetica, Arial, sans-serif" font-size="16" fill="#a59cc0">Growth theme resolving over decades</text>
  <path d="M 380 250.5 L 380.7 254.3 L 384.5 255 L 380.7 255.7 L 380 259.5 L 379.3 255.7 L 375.5 255 L 379.3 254.3 Z" fill="#d4af6a" opacity="0.65"/>
  <rect x="46" y="268" width="668" height="143.0" rx="14" fill="#1d1740" fill-opacity="0.5" stroke="#d4af6a" stroke-opacity="0.22" stroke-width="0.9"/>
  <rect x="46" y="268" width="668" height="3.5" rx="1.8" fill="#d4af6a" fill-opacity="0.6"/>
  <path d="M 380 266.1 L 380.5 269.0 L 383.4 269.5 L 380.5 270.0 L 380 272.9 L 379.5 270.0 L 376.6 269.5 L 379.5 269.0 Z" fill="#f6e6bf" opacity="0.7"/>
  <text x="380" y="297.0" text-anchor="middle" font-family="Georgia, 'Times New Roman', serif" font-size="21" font-weight="700" letter-spacing="0.3" fill="#f3effb">Leo Sun</text>
  <path d="M 70 326.8 L 70.5 329.5 L 73.2 330 L 70.5 330.5 L 70 333.2 L 69.5 330.5 L 66.8 330 L 69.5 329.5 Z" fill="#d4af6a" opacity="0.8"/>
  <text x="84" y="335.0" font-family="Helvetica, Arial, sans-serif" font-size="16" fill="#a59cc0">Warmth and recognition need already native</text>
  <path d="M 70 355.8 L 70.5 358.5 L 73.2 359 L 70.5 359.5 L 70 362.2 L 69.5 359.5 L 66.8 359 L 69.5 358.5 Z" fill="#d4af6a" opacity="0.8"/>
  <text x="84" y="364.0" font-family="Helvetica, Arial, sans-serif" font-size="16" fill="#a59cc0">Standing trait true on any single day</text>
  <path d="M 70 384.8 L 70.5 387.5 L 73.2 388 L 70.5 388.5 L 70 391.2 L 69.5 388.5 L 66.8 388 L 69.5 387.5 Z" fill="#d4af6a" opacity="0.8"/>
  <text x="84" y="393.0" font-family="Helvetica, Arial, sans-serif" font-size="16" fill="#a59cc0">No developmental tension — already present</text>
  <path d="M 380 419.5 L 380.7 423.3 L 384.5 424 L 380.7 424.7 L 380 428.5 L 379.3 424.7 L 375.5 424 L 379.3 423.3 Z" fill="#d4af6a" opacity="0.65"/>
  <rect x="46" y="437" width="668" height="143.0" rx="14" fill="#1d1740" fill-opacity="0.5" stroke="#d4af6a" stroke-opacity="0.22" stroke-width="0.9"/>
  <rect x="46" y="437" width="668" height="3.5" rx="1.8" fill="#d4af6a" fill-opacity="0.6"/>
  <path d="M 380 435.1 L 380.5 438.0 L 383.4 438.5 L 380.5 439.0 L 380 441.9 L 379.5 439.0 L 376.6 438.5 L 379.5 438.0 Z" fill="#f6e6bf" opacity="0.7"/>
  <text x="380" y="466.0" text-anchor="middle" font-family="Georgia, 'Times New Roman', serif" font-size="21" font-weight="700" letter-spacing="0.3" fill="#f3effb">Fifth House</text>
  <path d="M 70 495.8 L 70.5 498.5 L 73.2 499 L 70.5 499.5 L 70 502.2 L 69.5 499.5 L 66.8 499 L 69.5 498.5 Z" fill="#d4af6a" opacity="0.8"/>
  <text x="84" y="504.0" font-family="Helvetica, Arial, sans-serif" font-size="16" fill="#a59cc0">Leo's domain: creativity, romance, personal joy</text>
  <path d="M 70 524.8 L 70.5 527.5 L 73.2 528 L 70.5 528.5 L 70 531.2 L 69.5 528.5 L 66.8 528 L 69.5 527.5 Z" fill="#d4af6a" opacity="0.8"/>
  <text x="84" y="533.0" font-family="Helvetica, Arial, sans-serif" font-size="16" fill="#a59cc0">Static placement, not a directional arc</text>
  <path d="M 70 553.8 L 70.5 556.5 L 73.2 557 L 70.5 557.5 L 70 560.2 L 69.5 557.5 L 66.8 557 L 69.5 556.5 Z" fill="#d4af6a" opacity="0.8"/>
  <text x="84" y="562.0" font-family="Helvetica, Arial, sans-serif" font-size="16" fill="#a59cc0">Misses the past-to-future developmental pull</text>
  <path d="M 202.22749999999988 585.4 L 202.6 587.6 L 204.8 588 L 202.6 588.4 L 202.22749999999988 590.6 L 201.8 588.4 L 199.6 588 L 201.8 587.6 Z" fill="#d4af6a" opacity="0.5"/>
  <text x="380" y="592" text-anchor="middle" font-family="Georgia, 'Times New Roman', serif" font-style="italic" font-size="11.5" fill="#7b738f">A self-reflection framework — tendencies, not predictions</text>
  <path d="M 557.7725000000002 585.4 L 558.2 587.6 L 560.4 588 L 558.2 588.4 L 557.7725000000002 590.6 L 557.4 588.4 L 555.2 588 L 557.4 587.6 Z" fill="#d4af6a" opacity="0.5"/>
</svg>
