<svg xmlns="http://www.w3.org/2000/svg" viewBox="0 0 760 433" role="img" aria-label="Five Signals the Leo North Node Is Active">
  <defs>
    <linearGradient id="northnodeinleo1en-panel" x1="0" y1="0" x2="0.4" y2="1">
      <stop offset="0" stop-color="#1a1433"/><stop offset="0.55" stop-color="#120e26"/><stop offset="1" stop-color="#09081a"/>
    </linearGradient>
    <radialGradient id="northnodeinleo1en-foil" cx="0.42" cy="0.34" r="0.75">
      <stop offset="0" stop-color="#fbf0d2"/><stop offset="0.5" stop-color="#e8c882"/><stop offset="1" stop-color="#b8923f"/>
    </radialGradient>
    <radialGradient id="northnodeinleo1en-glow" cx="0.5" cy="0.5" r="0.5">
      <stop offset="0" stop-color="#f6e6bf"/><stop offset="1" stop-color="#f6e6bf" stop-opacity="0"/>
    </radialGradient>
    <radialGradient id="northnodeinleo1en-neb1" cx="0.5" cy="0.5" r="0.5">
      <stop offset="0" stop-color="#6f4bb0" stop-opacity="0.28"/><stop offset="1" stop-color="#6f4bb0" stop-opacity="0"/>
    </radialGradient>
    <radialGradient id="northnodeinleo1en-neb2" cx="0.5" cy="0.5" r="0.5">
      <stop offset="0" stop-color="#d4af6a" stop-opacity="0.16"/><stop offset="1" stop-color="#d4af6a" stop-opacity="0"/>
    </radialGradient>
    <linearGradient id="northnodeinleo1en-rule" x1="0" y1="0" x2="1" y2="0">
      <stop offset="0" stop-color="#d4af6a" stop-opacity="0"/><stop offset="0.5" stop-color="#d4af6a" stop-opacity="0.6"/><stop offset="1" stop-color="#d4af6a" stop-opacity="0"/>
    </linearGradient>
  </defs>
  <rect x="1.5" y="1.5" width="757" height="430" rx="22" fill="url(#northnodeinleo1en-panel)"/>
  <ellipse cx="198" cy="104" rx="380" ry="147" fill="url(#northnodeinleo1en-neb1)"/>
  <ellipse cx="623" cy="346" rx="334" ry="139" fill="url(#northnodeinleo1en-neb2)"/>
  <circle cx="76.3" cy="390.1" r="0.64" fill="#cfc8ea" opacity="0.20"/><circle cx="566.0" cy="301.4" r="1.39" fill="#cfc8ea" opacity="0.28"/><circle cx="638.6" cy="280.4" r="0.83" fill="#cfc8ea" opacity="0.16"/><circle cx="368.4" cy="406.7" r="1.66" fill="#cfc8ea" opacity="0.22"/><circle cx="745.3" cy="258.6" r="1.12" fill="#cfc8ea" opacity="0.36"/><circle cx="710.2" cy="288.3" r="1.17" fill="#cfc8ea" opacity="0.44"/><circle cx="228.0" cy="120.6" r="0.41" fill="#cfc8ea" opacity="0.40"/><circle cx="702.5" cy="18.3" r="1.28" fill="#cfc8ea" opacity="0.54"/><circle cx="369.0" cy="296.0" r="0.45" fill="#cfc8ea" opacity="0.36"/><circle cx="149.6" cy="14.3" r="1.70" fill="#cfc8ea" opacity="0.21"/><circle cx="489.5" cy="301.7" r="1.56" fill="#cfc8ea" opacity="0.21"/><circle cx="509.4" cy="343.8" r="1.15" fill="#cfc8ea" opacity="0.20"/><circle cx="546.1" cy="200.1" r="1.22" fill="#cfc8ea" opacity="0.14"/><circle cx="356.9" cy="232.0" r="1.33" fill="#cfc8ea" opacity="0.42"/><circle cx="316.5" cy="71.4" r="0.54" fill="#cfc8ea" opacity="0.22"/><circle cx="46.4" cy="247.0" r="1.53" fill="#cfc8ea" opacity="0.20"/><circle cx="687.0" cy="394.3" r="1.63" fill="#cfc8ea" opacity="0.22"/><circle cx="76.3" cy="296.5" r="0.67" fill="#cfc8ea" opacity="0.31"/><circle cx="448.5" cy="349.0" r="0.47" fill="#cfc8ea" opacity="0.22"/><circle cx="438.1" cy="412.0" r="0.97" fill="#cfc8ea" opacity="0.25"/><circle cx="673.9" cy="169.4" r="0.76" fill="#cfc8ea" opacity="0.31"/><circle cx="312.8" cy="98.8" r="1.44" fill="#cfc8ea" opacity="0.51"/><circle cx="236.9" cy="79.3" r="0.95" fill="#cfc8ea" opacity="0.23"/><circle cx="670.2" cy="177.3" r="1.25" fill="#cfc8ea" opacity="0.53"/><circle cx="394.0" cy="23.6" r="1.06" fill="#cfc8ea" opacity="0.25"/><circle cx="373.0" cy="129.2" r="1.63" fill="#cfc8ea" opacity="0.20"/><circle cx="442.9" cy="379.9" r="0.79" fill="#cfc8ea" opacity="0.33"/><circle cx="660.3" cy="19.0" r="0.79" fill="#cfc8ea" opacity="0.53"/><circle cx="526.4" cy="179.7" r="0.57" fill="#cfc8ea" opacity="0.35"/><circle cx="147.9" cy="215.7" r="1.49" fill="#cfc8ea" opacity="0.13"/><circle cx="717.2" cy="331.3" r="0.69" fill="#cfc8ea" opacity="0.35"/><circle cx="662.8" cy="258.9" r="1.62" fill="#cfc8ea" opacity="0.38"/><circle cx="317.8" cy="40.2" r="1.05" fill="#cfc8ea" opacity="0.20"/><circle cx="461.1" cy="35.9" r="1.55" fill="#cfc8ea" opacity="0.21"/><circle cx="467.8" cy="265.1" r="0.47" fill="#cfc8ea" opacity="0.19"/><circle cx="701.1" cy="167.6" r="0.95" fill="#cfc8ea" opacity="0.35"/><circle cx="37.9" cy="171.7" r="0.41" fill="#cfc8ea" opacity="0.20"/><path d="M 118.16426315903664 102.6 L 118.8 105.7 L 122.0 106.34460614505224 L 118.8 107.0 L 118.16426315903664 110.1 L 117.6 107.0 L 114.4 106.34460614505224 L 117.6 105.7 Z" fill="#f6e6bf" opacity="0.7015472489176318"/><path d="M 271.58869805186987 129.3 L 272.1 132.2 L 275.1 132.76417655847035 L 272.1 133.3 L 271.58869805186987 136.2 L 271.0 133.3 L 268.1 132.76417655847035 L 271.0 132.2 Z" fill="#f6e6bf" opacity="0.7476080065360293"/><path d="M 471.9701230674982 207.5 L 472.4 209.9 L 474.8 210.35624551097862 L 472.4 210.8 L 471.9701230674982 213.2 L 471.5 210.8 L 469.1 210.35624551097862 L 471.5 209.9 Z" fill="#f6e6bf" opacity="0.5677326776785776"/><path d="M 273.5502049997449 72.3 L 274.1 75.1 L 276.9 75.65940557955764 L 274.1 76.2 L 273.5502049997449 79.0 L 273.0 76.2 L 270.2 75.65940557955764 L 273.0 75.1 Z" fill="#f6e6bf" opacity="0.7147579427575692"/><path d="M 587.45314848423 401.8 L 588.1 405.0 L 591.2 405.5583377506118 L 588.1 406.2 L 587.45314848423 409.3 L 586.9 406.2 L 583.7 405.5583377506118 L 586.9 405.0 Z" fill="#f6e6bf" opacity="0.6671228228835389"/><path d="M 76.3 390.1 L 673.9 169.4 L 312.8 98.8 L 147.9 215.7 L 37.9 171.7" fill="none" stroke="#d4af6a" stroke-width="0.6" opacity="0.12"/>
  <rect x="1.5" y="1.5" width="757" height="430" rx="22" fill="none" stroke="#d4af6a" stroke-opacity="0.34" stroke-width="1.2"/>
  <rect x="7" y="7" width="746" height="419" rx="17" fill="none" stroke="#d4af6a" stroke-opacity="0.12" stroke-width="0.8"/>
  <path d="M 16 12.8 L 16.5 15.5 L 19.2 16 L 16.5 16.5 L 16 19.2 L 15.5 16.5 L 12.8 16 L 15.5 15.5 Z" fill="#d4af6a" opacity="0.4"/><path d="M 744 12.8 L 744.5 15.5 L 747.2 16 L 744.5 16.5 L 744 19.2 L 743.5 16.5 L 740.8 16 L 743.5 15.5 Z" fill="#d4af6a" opacity="0.4"/><path d="M 16 413.8 L 16.5 416.5 L 19.2 417 L 16.5 417.5 L 16 420.2 L 15.5 417.5 L 12.8 417 L 15.5 416.5 Z" fill="#d4af6a" opacity="0.4"/><path d="M 744 413.8 L 744.5 416.5 L 747.2 417 L 744.5 417.5 L 744 420.2 L 743.5 417.5 L 740.8 417 L 743.5 416.5 Z" fill="#d4af6a" opacity="0.4"/>
  <text x="380" y="46" text-anchor="middle" font-family="Georgia, 'Times New Roman', serif" font-size="22" letter-spacing="0.4" fill="#efeaf8">Five Signals the Leo North Node Is Active</text>
  <line x1="230" y1="67" x2="368" y2="67" stroke="url(#northnodeinleo1en-rule)" stroke-width="1"/>
  <line x1="392" y1="67" x2="530" y2="67" stroke="url(#northnodeinleo1en-rule)" stroke-width="1"/>
  <path d="M 380 62.0 L 380.8 66.2 L 385.0 67 L 380.8 67.8 L 380 72.0 L 379.2 67.8 L 375.0 67 L 379.2 66.2 Z" fill="#d4af6a" opacity="0.85"/>
  <line x1="76" y1="121" x2="76" y2="361" stroke="#d4af6a" stroke-opacity="0.28" stroke-width="1.5"/>
  <circle cx="76" cy="121" r="20.0" fill="url(#northnodeinleo1en-glow)" opacity="0.5"/>
    <circle cx="76" cy="121" r="15" fill="url(#northnodeinleo1en-foil)" stroke="#f6e6bf" stroke-opacity="0.5" stroke-width="0.8"/>
    <circle cx="76" cy="116.8" r="9.0" fill="#ffffff" opacity="0.10"/>
    <text x="76" y="125.5" text-anchor="middle" font-family="Georgia, 'Times New Roman', serif" font-size="13" font-weight="700" fill="#3a2c12">1</text>
  <text x="116" y="117.0" font-family="Georgia, 'Times New Roman', serif" font-size="22" letter-spacing="0.3" fill="#f3effb">The Instinct to Defer</text>
  <text x="116" y="139.0" font-family="Helvetica, Arial, sans-serif" font-size="15.5" fill="#a59cc0">Reaching for group consensus before naming your own preference</text>
  <circle cx="76" cy="181" r="20.0" fill="url(#northnodeinleo1en-glow)" opacity="0.5"/>
    <circle cx="76" cy="181" r="15" fill="url(#northnodeinleo1en-foil)" stroke="#f6e6bf" stroke-opacity="0.5" stroke-width="0.8"/>
    <circle cx="76" cy="176.8" r="9.0" fill="#ffffff" opacity="0.10"/>
    <text x="76" y="185.5" text-anchor="middle" font-family="Georgia, 'Times New Roman', serif" font-size="13" font-weight="700" fill="#3a2c12">2</text>
  <text x="116" y="177.0" font-family="Georgia, 'Times New Roman', serif" font-size="22" letter-spacing="0.3" fill="#f3effb">Warmth You Admire but Withhold</text>
  <text x="116" y="199.0" font-family="Helvetica, Arial, sans-serif" font-size="15.5" fill="#a59cc0">Respecting open-hearted people while feeling clumsy doing it yourself</text>
  <circle cx="76" cy="241" r="20.0" fill="url(#northnodeinleo1en-glow)" opacity="0.5"/>
    <circle cx="76" cy="241" r="15" fill="url(#northnodeinleo1en-foil)" stroke="#f6e6bf" stroke-opacity="0.5" stroke-width="0.8"/>
    <circle cx="76" cy="236.8" r="9.0" fill="#ffffff" opacity="0.10"/>
    <text x="76" y="245.5" text-anchor="middle" font-family="Georgia, 'Times New Roman', serif" font-size="13" font-weight="700" fill="#3a2c12">3</text>
  <text x="116" y="237.0" font-family="Georgia, 'Times New Roman', serif" font-size="22" letter-spacing="0.3" fill="#f3effb">Discomfort of Being Looked At</text>
  <text x="116" y="259.0" font-family="Helvetica, Arial, sans-serif" font-size="15.5" fill="#a59cc0">Wanting to deflect attention when a contribution is clearly yours</text>
  <circle cx="76" cy="301" r="20.0" fill="url(#northnodeinleo1en-glow)" opacity="0.5"/>
    <circle cx="76" cy="301" r="15" fill="url(#northnodeinleo1en-foil)" stroke="#f6e6bf" stroke-opacity="0.5" stroke-width="0.8"/>
    <circle cx="76" cy="296.8" r="9.0" fill="#ffffff" opacity="0.10"/>
    <text x="76" y="305.5" text-anchor="middle" font-family="Georgia, 'Times New Roman', serif" font-size="13" font-weight="700" fill="#3a2c12">4</text>
  <text x="116" y="297.0" font-family="Georgia, 'Times New Roman', serif" font-size="22" letter-spacing="0.3" fill="#f3effb">The Creative Project You Postpone</text>
  <text x="116" y="319.0" font-family="Helvetica, Arial, sans-serif" font-size="15.5" fill="#a59cc0">A personal piece of expression you circle for years without finishing</text>
  <circle cx="76" cy="361" r="20.0" fill="url(#northnodeinleo1en-glow)" opacity="0.5"/>
    <circle cx="76" cy="361" r="15" fill="url(#northnodeinleo1en-foil)" stroke="#f6e6bf" stroke-opacity="0.5" stroke-width="0.8"/>
    <circle cx="76" cy="356.8" r="9.0" fill="#ffffff" opacity="0.10"/>
    <text x="76" y="365.5" text-anchor="middle" font-family="Georgia, 'Times New Roman', serif" font-size="13" font-weight="700" fill="#3a2c12">5</text>
  <text x="116" y="357.0" font-family="Georgia, 'Times New Roman', serif" font-size="22" letter-spacing="0.3" fill="#f3effb">Recurring Self-Erasure Theme</text>
  <text x="116" y="379.0" font-family="Helvetica, Arial, sans-serif" font-size="15.5" fill="#a59cc0">Disappearing into causes or collectives decade after decade</text>
  <path d="M 202.22749999999988 404.4 L 202.6 406.6 L 204.8 407 L 202.6 407.4 L 202.22749999999988 409.6 L 201.8 407.4 L 199.6 407 L 201.8 406.6 Z" fill="#d4af6a" opacity="0.5"/>
  <text x="380" y="411" text-anchor="middle" font-family="Georgia, 'Times New Roman', serif" font-style="italic" font-size="11.5" fill="#7b738f">A self-reflection framework — tendencies, not predictions</text>
  <path d="M 557.7725000000002 404.4 L 558.2 406.6 L 560.4 407 L 558.2 407.4 L 557.7725000000002 409.6 L 557.4 407.4 L 555.2 407 L 557.4 406.6 Z" fill="#d4af6a" opacity="0.5"/>
</svg>
