<svg xmlns="http://www.w3.org/2000/svg" viewBox="0 0 760 561" role="img" aria-label="Gemini Season vs. Cancer Season">
  <defs>
    <linearGradient id="pridemonthastrology0en-panel" x1="0" y1="0" x2="0.4" y2="1">
      <stop offset="0" stop-color="#1a1433"/><stop offset="0.55" stop-color="#120e26"/><stop offset="1" stop-color="#09081a"/>
    </linearGradient>
    <radialGradient id="pridemonthastrology0en-foil" cx="0.42" cy="0.34" r="0.75">
      <stop offset="0" stop-color="#fbf0d2"/><stop offset="0.5" stop-color="#e8c882"/><stop offset="1" stop-color="#b8923f"/>
    </radialGradient>
    <radialGradient id="pridemonthastrology0en-glow" cx="0.5" cy="0.5" r="0.5">
      <stop offset="0" stop-color="#f6e6bf"/><stop offset="1" stop-color="#f6e6bf" stop-opacity="0"/>
    </radialGradient>
    <radialGradient id="pridemonthastrology0en-neb1" cx="0.5" cy="0.5" r="0.5">
      <stop offset="0" stop-color="#6f4bb0" stop-opacity="0.28"/><stop offset="1" stop-color="#6f4bb0" stop-opacity="0"/>
    </radialGradient>
    <radialGradient id="pridemonthastrology0en-neb2" cx="0.5" cy="0.5" r="0.5">
      <stop offset="0" stop-color="#d4af6a" stop-opacity="0.16"/><stop offset="1" stop-color="#d4af6a" stop-opacity="0"/>
    </radialGradient>
    <linearGradient id="pridemonthastrology0en-rule" x1="0" y1="0" x2="1" y2="0">
      <stop offset="0" stop-color="#d4af6a" stop-opacity="0"/><stop offset="0.5" stop-color="#d4af6a" stop-opacity="0.6"/><stop offset="1" stop-color="#d4af6a" stop-opacity="0"/>
    </linearGradient>
  </defs>
  <rect x="1.5" y="1.5" width="757" height="558" rx="22" fill="url(#pridemonthastrology0en-panel)"/>
  <ellipse cx="198" cy="135" rx="380" ry="191" fill="url(#pridemonthastrology0en-neb1)"/>
  <ellipse cx="623" cy="449" rx="334" ry="180" fill="url(#pridemonthastrology0en-neb2)"/>
  <circle cx="404.4" cy="349.7" r="0.46" fill="#cfc8ea" opacity="0.16"/><circle cx="606.1" cy="61.9" r="1.35" fill="#cfc8ea" opacity="0.14"/><circle cx="154.2" cy="433.7" r="0.88" fill="#cfc8ea" opacity="0.47"/><circle cx="260.9" cy="284.7" r="1.39" fill="#cfc8ea" opacity="0.50"/><circle cx="209.2" cy="462.9" r="1.51" fill="#cfc8ea" opacity="0.38"/><circle cx="190.2" cy="281.8" r="0.41" fill="#cfc8ea" opacity="0.25"/><circle cx="687.7" cy="303.2" r="1.04" fill="#cfc8ea" opacity="0.18"/><circle cx="223.7" cy="169.1" r="0.58" fill="#cfc8ea" opacity="0.38"/><circle cx="486.3" cy="514.0" r="1.26" fill="#cfc8ea" opacity="0.52"/><circle cx="70.9" cy="253.9" r="1.37" fill="#cfc8ea" opacity="0.35"/><circle cx="602.8" cy="212.8" r="0.61" fill="#cfc8ea" opacity="0.32"/><circle cx="278.3" cy="137.9" r="1.23" fill="#cfc8ea" opacity="0.42"/><circle cx="176.6" cy="56.4" r="1.09" fill="#cfc8ea" opacity="0.14"/><circle cx="648.4" cy="441.3" r="1.48" fill="#cfc8ea" opacity="0.42"/><circle cx="317.5" cy="238.4" r="0.55" fill="#cfc8ea" opacity="0.18"/><circle cx="529.5" cy="201.3" r="1.10" fill="#cfc8ea" opacity="0.32"/><circle cx="530.6" cy="499.9" r="0.66" fill="#cfc8ea" opacity="0.34"/><circle cx="309.2" cy="91.6" r="1.23" fill="#cfc8ea" opacity="0.33"/><circle cx="164.9" cy="271.1" r="1.22" fill="#cfc8ea" opacity="0.26"/><circle cx="396.3" cy="497.2" r="1.35" fill="#cfc8ea" opacity="0.36"/><circle cx="399.5" cy="108.3" r="1.60" fill="#cfc8ea" opacity="0.35"/><circle cx="734.3" cy="44.1" r="0.53" fill="#cfc8ea" opacity="0.24"/><circle cx="659.5" cy="173.7" r="0.43" fill="#cfc8ea" opacity="0.24"/><circle cx="624.2" cy="90.7" r="1.09" fill="#cfc8ea" opacity="0.15"/><circle cx="581.9" cy="500.8" r="0.81" fill="#cfc8ea" opacity="0.12"/><circle cx="478.4" cy="341.8" r="1.06" fill="#cfc8ea" opacity="0.54"/><circle cx="483.5" cy="68.2" r="1.48" fill="#cfc8ea" opacity="0.23"/><circle cx="152.5" cy="398.3" r="1.61" fill="#cfc8ea" opacity="0.21"/><circle cx="674.7" cy="332.6" r="0.87" fill="#cfc8ea" opacity="0.13"/><circle cx="336.6" cy="375.3" r="0.49" fill="#cfc8ea" opacity="0.53"/><circle cx="26.4" cy="392.6" r="1.55" fill="#cfc8ea" opacity="0.22"/><circle cx="36.8" cy="90.4" r="0.40" fill="#cfc8ea" opacity="0.51"/><circle cx="34.3" cy="295.5" r="1.61" fill="#cfc8ea" opacity="0.50"/><circle cx="41.7" cy="292.8" r="1.24" fill="#cfc8ea" opacity="0.54"/><circle cx="91.9" cy="427.6" r="1.58" fill="#cfc8ea" opacity="0.46"/><circle cx="317.0" cy="141.1" r="1.05" fill="#cfc8ea" opacity="0.14"/><circle cx="649.3" cy="215.2" r="1.03" fill="#cfc8ea" opacity="0.39"/><circle cx="608.0" cy="394.1" r="0.63" fill="#cfc8ea" opacity="0.17"/><circle cx="291.9" cy="32.3" r="0.68" fill="#cfc8ea" opacity="0.23"/><circle cx="193.2" cy="237.1" r="1.44" fill="#cfc8ea" opacity="0.19"/><circle cx="346.5" cy="301.6" r="1.44" fill="#cfc8ea" opacity="0.45"/><circle cx="328.0" cy="196.6" r="1.24" fill="#cfc8ea" opacity="0.14"/><circle cx="360.4" cy="336.9" r="1.30" fill="#cfc8ea" opacity="0.19"/><circle cx="276.8" cy="116.1" r="1.16" fill="#cfc8ea" opacity="0.38"/><circle cx="259.1" cy="487.7" r="1.63" fill="#cfc8ea" opacity="0.33"/><circle cx="579.7" cy="66.3" r="1.30" fill="#cfc8ea" opacity="0.53"/><circle cx="440.4" cy="344.5" r="0.78" fill="#cfc8ea" opacity="0.37"/><path d="M 716.8088175226003 199.4 L 717.2 201.6 L 719.4 202.04671267559752 L 717.2 202.5 L 716.8088175226003 204.6 L 716.4 202.5 L 714.2 202.04671267559752 L 716.4 201.6 Z" fill="#f6e6bf" opacity="0.6011604774743319"/><path d="M 536.7344059143215 455.9 L 537.4 459.2 L 540.6 459.77397914463654 L 537.4 460.4 L 536.7344059143215 463.7 L 536.1 460.4 L 532.8 459.77397914463654 L 536.1 459.2 Z" fill="#f6e6bf" opacity="0.7451379205100238"/><path d="M 423.5764766354114 297.1 L 424.0 299.5 L 426.5 299.99626315711066 L 424.0 300.5 L 423.5764766354114 302.9 L 423.1 300.5 L 420.7 299.99626315711066 L 423.1 299.5 Z" fill="#f6e6bf" opacity="0.7108972596004606"/><path d="M 93.30595215596259 173.4 L 93.8 176.0 L 96.4 176.44045360805467 L 93.8 176.9 L 93.30595215596259 179.5 L 92.8 176.9 L 90.2 176.44045360805467 L 92.8 176.0 Z" fill="#f6e6bf" opacity="0.6033577137626708"/><path d="M 669.5527820456773 266.4 L 670.0 268.6 L 672.3 269.07276205485687 L 670.0 269.5 L 669.5527820456773 271.8 L 669.1 269.5 L 666.8 269.07276205485687 L 669.1 268.6 Z" fill="#f6e6bf" opacity="0.6371793314814568"/><path d="M 154.2 433.7 L 190.2 281.8 L 483.5 68.2 L 26.4 392.6 L 34.3 295.5" fill="none" stroke="#d4af6a" stroke-width="0.6" opacity="0.12"/>
  <rect x="1.5" y="1.5" width="757" height="558" rx="22" fill="none" stroke="#d4af6a" stroke-opacity="0.34" stroke-width="1.2"/>
  <rect x="7" y="7" width="746" height="547" rx="17" fill="none" stroke="#d4af6a" stroke-opacity="0.12" stroke-width="0.8"/>
  <path d="M 16 12.8 L 16.5 15.5 L 19.2 16 L 16.5 16.5 L 16 19.2 L 15.5 16.5 L 12.8 16 L 15.5 15.5 Z" fill="#d4af6a" opacity="0.4"/><path d="M 744 12.8 L 744.5 15.5 L 747.2 16 L 744.5 16.5 L 744 19.2 L 743.5 16.5 L 740.8 16 L 743.5 15.5 Z" fill="#d4af6a" opacity="0.4"/><path d="M 16 541.8 L 16.5 544.5 L 19.2 545 L 16.5 545.5 L 16 548.2 L 15.5 545.5 L 12.8 545 L 15.5 544.5 Z" fill="#d4af6a" opacity="0.4"/><path d="M 744 541.8 L 744.5 544.5 L 747.2 545 L 744.5 545.5 L 744 548.2 L 743.5 545.5 L 740.8 545 L 743.5 544.5 Z" fill="#d4af6a" opacity="0.4"/>
  <text x="380" y="46" text-anchor="middle" font-family="Georgia, 'Times New Roman', serif" font-size="22" letter-spacing="0.4" fill="#efeaf8">Gemini Season vs. Cancer Season</text>
  <line x1="230" y1="67" x2="368" y2="67" stroke="url(#pridemonthastrology0en-rule)" stroke-width="1"/>
  <line x1="392" y1="67" x2="530" y2="67" stroke="url(#pridemonthastrology0en-rule)" stroke-width="1"/>
  <path d="M 380 62.0 L 380.8 66.2 L 385.0 67 L 380.8 67.8 L 380 72.0 L 379.2 67.8 L 375.0 67 L 379.2 66.2 Z" fill="#d4af6a" opacity="0.85"/>

  <rect x="46" y="99" width="668" height="201.0" rx="14" fill="#1d1740" fill-opacity="0.5" stroke="#d4af6a" stroke-opacity="0.22" stroke-width="0.9"/>
  <rect x="46" y="99" width="3.5" height="201.0" rx="1.8" fill="#d4af6a" fill-opacity="0.6"/>
  <path d="M 47.75 108.6 L 48.3 111.5 L 51.1 112 L 48.3 112.5 L 47.75 115.4 L 47.2 112.5 L 44.4 112 L 47.2 111.5 Z" fill="#f6e6bf" opacity="0.7"/>
  <text x="380" y="128.0" text-anchor="middle" font-family="Georgia, 'Times New Roman', serif" font-size="21" font-weight="700" letter-spacing="0.3" fill="#f3effb">Gemini Season</text>
  <path d="M 70 157.8 L 70.5 160.5 L 73.2 161 L 70.5 161.5 L 70 164.2 L 69.5 161.5 L 66.8 161 L 69.5 160.5 Z" fill="#d4af6a" opacity="0.8"/>
  <text x="84" y="166.0" font-family="Helvetica, Arial, sans-serif" font-size="16" fill="#a59cc0">Element: Air</text>
  <path d="M 70 186.8 L 70.5 189.5 L 73.2 190 L 70.5 190.5 L 70 193.2 L 69.5 190.5 L 66.8 190 L 69.5 189.5 Z" fill="#d4af6a" opacity="0.8"/>
  <text x="84" y="195.0" font-family="Helvetica, Arial, sans-serif" font-size="16" fill="#a59cc0">Favors talk, curiosity, and visibility</text>
  <path d="M 70 215.8 L 70.5 218.5 L 73.2 219 L 70.5 219.5 L 70 222.2 L 69.5 219.5 L 66.8 219 L 69.5 218.5 Z" fill="#d4af6a" opacity="0.8"/>
  <text x="84" y="224.0" font-family="Helvetica, Arial, sans-serif" font-size="16" fill="#a59cc0">Archetype: the messenger</text>
  <path d="M 70 244.8 L 70.5 247.5 L 73.2 248 L 70.5 248.5 L 70 251.2 L 69.5 248.5 L 66.8 248 L 69.5 247.5 Z" fill="#d4af6a" opacity="0.8"/>
  <text x="84" y="253.0" font-family="Helvetica, Arial, sans-serif" font-size="16" fill="#a59cc0">Mode: reaching out, staying in motion</text>
  <path d="M 70 273.8 L 70.5 276.5 L 73.2 277 L 70.5 277.5 L 70 280.2 L 69.5 277.5 L 66.8 277 L 69.5 276.5 Z" fill="#d4af6a" opacity="0.8"/>
  <text x="84" y="282.0" font-family="Helvetica, Arial, sans-serif" font-size="16" fill="#a59cc0">Energy: social, verbal, outward-facing</text>
  <path d="M 380 308.5 L 380.7 312.3 L 384.5 313 L 380.7 313.7 L 380 317.5 L 379.3 313.7 L 375.5 313 L 379.3 312.3 Z" fill="#d4af6a" opacity="0.65"/>
  <rect x="46" y="326" width="668" height="201.0" rx="14" fill="#1d1740" fill-opacity="0.5" stroke="#d4af6a" stroke-opacity="0.22" stroke-width="0.9"/>
  <rect x="46" y="326" width="3.5" height="201.0" rx="1.8" fill="#d4af6a" fill-opacity="0.6"/>
  <path d="M 47.75 335.6 L 48.3 338.5 L 51.1 339 L 48.3 339.5 L 47.75 342.4 L 47.2 339.5 L 44.4 339 L 47.2 338.5 Z" fill="#f6e6bf" opacity="0.7"/>
  <text x="380" y="355.0" text-anchor="middle" font-family="Georgia, 'Times New Roman', serif" font-size="21" font-weight="700" letter-spacing="0.3" fill="#f3effb">Cancer Season</text>
  <path d="M 70 384.8 L 70.5 387.5 L 73.2 388 L 70.5 388.5 L 70 391.2 L 69.5 388.5 L 66.8 388 L 69.5 387.5 Z" fill="#d4af6a" opacity="0.8"/>
  <text x="84" y="393.0" font-family="Helvetica, Arial, sans-serif" font-size="16" fill="#a59cc0">Element: Water</text>
  <path d="M 70 413.8 L 70.5 416.5 L 73.2 417 L 70.5 417.5 L 70 420.2 L 69.5 417.5 L 66.8 417 L 69.5 416.5 Z" fill="#d4af6a" opacity="0.8"/>
  <text x="84" y="422.0" font-family="Helvetica, Arial, sans-serif" font-size="16" fill="#a59cc0">Favors care, memory, and belonging</text>
  <path d="M 70 442.8 L 70.5 445.5 L 73.2 446 L 70.5 446.5 L 70 449.2 L 69.5 446.5 L 66.8 446 L 69.5 445.5 Z" fill="#d4af6a" opacity="0.8"/>
  <text x="84" y="451.0" font-family="Helvetica, Arial, sans-serif" font-size="16" fill="#a59cc0">Archetype: the protector</text>
  <path d="M 70 471.8 L 70.5 474.5 L 73.2 475 L 70.5 475.5 L 70 478.2 L 69.5 475.5 L 66.8 475 L 69.5 474.5 Z" fill="#d4af6a" opacity="0.8"/>
  <text x="84" y="480.0" font-family="Helvetica, Arial, sans-serif" font-size="16" fill="#a59cc0">Mode: settling in, seeking shelter</text>
  <path d="M 70 500.8 L 70.5 503.5 L 73.2 504 L 70.5 504.5 L 70 507.2 L 69.5 504.5 L 66.8 504 L 69.5 503.5 Z" fill="#d4af6a" opacity="0.8"/>
  <text x="84" y="509.0" font-family="Helvetica, Arial, sans-serif" font-size="16" fill="#a59cc0">Energy: tender, inward, selective company</text>
  <path d="M 202.22749999999988 532.4 L 202.6 534.6 L 204.8 535 L 202.6 535.4 L 202.22749999999988 537.6 L 201.8 535.4 L 199.6 535 L 201.8 534.6 Z" fill="#d4af6a" opacity="0.5"/>
  <text x="380" y="539" text-anchor="middle" font-family="Georgia, 'Times New Roman', serif" font-style="italic" font-size="11.5" fill="#7b738f">A self-reflection framework — tendencies, not predictions</text>
  <path d="M 557.7725000000002 532.4 L 558.2 534.6 L 560.4 535 L 558.2 535.4 L 557.7725000000002 537.6 L 557.4 535.4 L 555.2 535 L 557.4 534.6 Z" fill="#d4af6a" opacity="0.5"/>
</svg>
