<svg xmlns="http://www.w3.org/2000/svg" viewBox="0 0 760 561" role="img" aria-label="Public Face vs. Private Interior">
  <defs>
    <linearGradient id="princewilliambirthchart0en-panel" x1="0" y1="0" x2="0.4" y2="1">
      <stop offset="0" stop-color="#1a1433"/><stop offset="0.55" stop-color="#120e26"/><stop offset="1" stop-color="#09081a"/>
    </linearGradient>
    <radialGradient id="princewilliambirthchart0en-foil" cx="0.42" cy="0.34" r="0.75">
      <stop offset="0" stop-color="#fbf0d2"/><stop offset="0.5" stop-color="#e8c882"/><stop offset="1" stop-color="#b8923f"/>
    </radialGradient>
    <radialGradient id="princewilliambirthchart0en-glow" cx="0.5" cy="0.5" r="0.5">
      <stop offset="0" stop-color="#f6e6bf"/><stop offset="1" stop-color="#f6e6bf" stop-opacity="0"/>
    </radialGradient>
    <radialGradient id="princewilliambirthchart0en-neb1" cx="0.5" cy="0.5" r="0.5">
      <stop offset="0" stop-color="#6f4bb0" stop-opacity="0.28"/><stop offset="1" stop-color="#6f4bb0" stop-opacity="0"/>
    </radialGradient>
    <radialGradient id="princewilliambirthchart0en-neb2" cx="0.5" cy="0.5" r="0.5">
      <stop offset="0" stop-color="#d4af6a" stop-opacity="0.16"/><stop offset="1" stop-color="#d4af6a" stop-opacity="0"/>
    </radialGradient>
    <linearGradient id="princewilliambirthchart0en-rule" x1="0" y1="0" x2="1" y2="0">
      <stop offset="0" stop-color="#d4af6a" stop-opacity="0"/><stop offset="0.5" stop-color="#d4af6a" stop-opacity="0.6"/><stop offset="1" stop-color="#d4af6a" stop-opacity="0"/>
    </linearGradient>
  </defs>
  <rect x="1.5" y="1.5" width="757" height="558" rx="22" fill="url(#princewilliambirthchart0en-panel)"/>
  <ellipse cx="198" cy="135" rx="380" ry="191" fill="url(#princewilliambirthchart0en-neb1)"/>
  <ellipse cx="623" cy="449" rx="334" ry="180" fill="url(#princewilliambirthchart0en-neb2)"/>
  <circle cx="187.6" cy="461.5" r="0.66" fill="#cfc8ea" opacity="0.54"/><circle cx="217.9" cy="64.6" r="0.96" fill="#cfc8ea" opacity="0.48"/><circle cx="156.3" cy="322.2" r="0.47" fill="#cfc8ea" opacity="0.33"/><circle cx="611.1" cy="289.0" r="1.39" fill="#cfc8ea" opacity="0.25"/><circle cx="39.2" cy="121.4" r="0.41" fill="#cfc8ea" opacity="0.29"/><circle cx="620.3" cy="403.1" r="0.63" fill="#cfc8ea" opacity="0.20"/><circle cx="276.2" cy="208.3" r="1.46" fill="#cfc8ea" opacity="0.44"/><circle cx="510.5" cy="507.2" r="1.43" fill="#cfc8ea" opacity="0.30"/><circle cx="431.0" cy="526.8" r="0.94" fill="#cfc8ea" opacity="0.19"/><circle cx="666.8" cy="324.7" r="0.61" fill="#cfc8ea" opacity="0.43"/><circle cx="656.4" cy="64.5" r="0.67" fill="#cfc8ea" opacity="0.40"/><circle cx="181.9" cy="440.3" r="0.64" fill="#cfc8ea" opacity="0.34"/><circle cx="296.6" cy="35.5" r="1.22" fill="#cfc8ea" opacity="0.17"/><circle cx="59.4" cy="437.9" r="1.45" fill="#cfc8ea" opacity="0.27"/><circle cx="364.0" cy="425.1" r="1.25" fill="#cfc8ea" opacity="0.25"/><circle cx="377.0" cy="218.1" r="1.35" fill="#cfc8ea" opacity="0.16"/><circle cx="43.8" cy="253.7" r="1.16" fill="#cfc8ea" opacity="0.33"/><circle cx="391.9" cy="255.3" r="0.54" fill="#cfc8ea" opacity="0.26"/><circle cx="688.6" cy="181.6" r="1.20" fill="#cfc8ea" opacity="0.44"/><circle cx="156.0" cy="56.1" r="1.27" fill="#cfc8ea" opacity="0.36"/><circle cx="527.6" cy="438.0" r="1.37" fill="#cfc8ea" opacity="0.51"/><circle cx="605.8" cy="115.6" r="0.51" fill="#cfc8ea" opacity="0.19"/><circle cx="667.6" cy="29.7" r="0.60" fill="#cfc8ea" opacity="0.30"/><circle cx="653.1" cy="305.4" r="1.24" fill="#cfc8ea" opacity="0.36"/><circle cx="730.3" cy="306.9" r="0.43" fill="#cfc8ea" opacity="0.24"/><circle cx="257.9" cy="143.7" r="0.55" fill="#cfc8ea" opacity="0.41"/><circle cx="63.1" cy="83.2" r="1.34" fill="#cfc8ea" opacity="0.39"/><circle cx="536.1" cy="324.1" r="1.12" fill="#cfc8ea" opacity="0.34"/><circle cx="277.0" cy="128.2" r="0.71" fill="#cfc8ea" opacity="0.17"/><circle cx="675.7" cy="386.0" r="0.62" fill="#cfc8ea" opacity="0.46"/><circle cx="189.4" cy="456.8" r="0.93" fill="#cfc8ea" opacity="0.23"/><circle cx="560.2" cy="105.4" r="1.33" fill="#cfc8ea" opacity="0.41"/><circle cx="590.5" cy="506.8" r="1.46" fill="#cfc8ea" opacity="0.44"/><circle cx="148.3" cy="485.2" r="0.93" fill="#cfc8ea" opacity="0.23"/><circle cx="532.3" cy="328.6" r="1.41" fill="#cfc8ea" opacity="0.21"/><circle cx="208.1" cy="140.0" r="1.38" fill="#cfc8ea" opacity="0.37"/><circle cx="140.4" cy="136.6" r="1.33" fill="#cfc8ea" opacity="0.45"/><circle cx="91.0" cy="76.6" r="1.34" fill="#cfc8ea" opacity="0.39"/><circle cx="325.5" cy="255.9" r="0.53" fill="#cfc8ea" opacity="0.49"/><circle cx="502.9" cy="495.0" r="0.41" fill="#cfc8ea" opacity="0.41"/><circle cx="38.0" cy="115.7" r="1.37" fill="#cfc8ea" opacity="0.17"/><circle cx="300.8" cy="150.6" r="0.70" fill="#cfc8ea" opacity="0.21"/><circle cx="449.7" cy="303.7" r="1.16" fill="#cfc8ea" opacity="0.25"/><circle cx="34.8" cy="224.0" r="1.00" fill="#cfc8ea" opacity="0.36"/><circle cx="345.5" cy="470.4" r="1.37" fill="#cfc8ea" opacity="0.46"/><circle cx="609.5" cy="387.4" r="1.26" fill="#cfc8ea" opacity="0.32"/><circle cx="468.3" cy="100.7" r="1.49" fill="#cfc8ea" opacity="0.24"/><path d="M 129.66193963587284 502.7 L 130.2 505.4 L 132.9 505.9486661485862 L 130.2 506.5 L 129.66193963587284 509.2 L 129.1 506.5 L 126.4 505.9486661485862 L 129.1 505.4 Z" fill="#f6e6bf" opacity="0.7944414862198754"/><path d="M 223.89381981641054 28.1 L 224.5 31.2 L 227.6 31.781842758646235 L 224.5 32.4 L 223.89381981641054 35.5 L 223.3 32.4 L 220.2 31.781842758646235 L 223.3 31.2 Z" fill="#f6e6bf" opacity="0.595301141939126"/><path d="M 511.29872024059296 427.6 L 511.9 430.8 L 515.1 431.4429329659324 L 511.9 432.1 L 511.29872024059296 435.3 L 510.7 432.1 L 507.5 431.4429329659324 L 510.7 430.8 Z" fill="#f6e6bf" opacity="0.76980256724637"/><path d="M 232.13387166708708 212.7 L 232.7 215.9 L 236.0 216.50642564869486 L 232.7 217.1 L 232.13387166708708 220.3 L 231.5 217.1 L 228.3 216.50642564869486 L 231.5 215.9 Z" fill="#f6e6bf" opacity="0.7054649071535095"/><path d="M 126.17087863385677 456.8 L 126.7 459.8 L 129.7 460.32563735242 L 126.7 460.9 L 126.17087863385677 463.9 L 125.6 460.9 L 122.6 460.32563735242 L 125.6 459.8 Z" fill="#f6e6bf" opacity="0.7419111122144386"/><path d="M 156.3 322.2 L 510.5 507.2 L 377.0 218.1 L 675.7 386.0 L 560.2 105.4" fill="none" stroke="#d4af6a" stroke-width="0.6" opacity="0.12"/>
  <rect x="1.5" y="1.5" width="757" height="558" rx="22" fill="none" stroke="#d4af6a" stroke-opacity="0.34" stroke-width="1.2"/>
  <rect x="7" y="7" width="746" height="547" rx="17" fill="none" stroke="#d4af6a" stroke-opacity="0.12" stroke-width="0.8"/>
  <path d="M 16 12.8 L 16.5 15.5 L 19.2 16 L 16.5 16.5 L 16 19.2 L 15.5 16.5 L 12.8 16 L 15.5 15.5 Z" fill="#d4af6a" opacity="0.4"/><path d="M 744 12.8 L 744.5 15.5 L 747.2 16 L 744.5 16.5 L 744 19.2 L 743.5 16.5 L 740.8 16 L 743.5 15.5 Z" fill="#d4af6a" opacity="0.4"/><path d="M 16 541.8 L 16.5 544.5 L 19.2 545 L 16.5 545.5 L 16 548.2 L 15.5 545.5 L 12.8 545 L 15.5 544.5 Z" fill="#d4af6a" opacity="0.4"/><path d="M 744 541.8 L 744.5 544.5 L 747.2 545 L 744.5 545.5 L 744 548.2 L 743.5 545.5 L 740.8 545 L 743.5 544.5 Z" fill="#d4af6a" opacity="0.4"/>
  <text x="380" y="46" text-anchor="middle" font-family="Georgia, 'Times New Roman', serif" font-size="22" letter-spacing="0.4" fill="#efeaf8">Public Face vs. Private Interior</text>
  <line x1="230" y1="67" x2="368" y2="67" stroke="url(#princewilliambirthchart0en-rule)" stroke-width="1"/>
  <line x1="392" y1="67" x2="530" y2="67" stroke="url(#princewilliambirthchart0en-rule)" stroke-width="1"/>
  <path d="M 380 62.0 L 380.8 66.2 L 385.0 67 L 380.8 67.8 L 380 72.0 L 379.2 67.8 L 375.0 67 L 379.2 66.2 Z" fill="#d4af6a" opacity="0.85"/>

  <rect x="46" y="99" width="668" height="201.0" rx="14" fill="#1d1740" fill-opacity="0.5" stroke="#d4af6a" stroke-opacity="0.22" stroke-width="0.9"/>
  <rect x="46" y="99" width="3.5" height="201.0" rx="1.8" fill="#d4af6a" fill-opacity="0.6"/>
  <path d="M 47.75 108.6 L 48.3 111.5 L 51.1 112 L 48.3 112.5 L 47.75 115.4 L 47.2 112.5 L 44.4 112 L 47.2 111.5 Z" fill="#f6e6bf" opacity="0.7"/>
  <text x="380" y="128.0" text-anchor="middle" font-family="Georgia, 'Times New Roman', serif" font-size="21" font-weight="700" letter-spacing="0.3" fill="#f3effb">Sagittarius Rising</text>
  <path d="M 70 157.8 L 70.5 160.5 L 73.2 161 L 70.5 161.5 L 70 164.2 L 69.5 161.5 L 66.8 161 L 69.5 160.5 Z" fill="#d4af6a" opacity="0.8"/>
  <text x="84" y="166.0" font-family="Helvetica, Arial, sans-serif" font-size="16" fill="#a59cc0">Public interface layer for the Cancer interior</text>
  <path d="M 70 186.8 L 70.5 189.5 L 73.2 190 L 70.5 190.5 L 70 193.2 L 69.5 190.5 L 66.8 190 L 69.5 189.5 Z" fill="#d4af6a" opacity="0.8"/>
  <text x="84" y="195.0" font-family="Helvetica, Arial, sans-serif" font-size="16" fill="#a59cc0">Reads as expansive, idealistic, and socially at ease</text>
  <path d="M 70 215.8 L 70.5 218.5 L 73.2 219 L 70.5 219.5 L 70 222.2 L 69.5 219.5 L 66.8 219 L 69.5 218.5 Z" fill="#d4af6a" opacity="0.8"/>
  <text x="84" y="224.0" font-family="Helvetica, Arial, sans-serif" font-size="16" fill="#a59cc0">Neptune on the Ascendant softens it into something impressionistic</text>
  <path d="M 70 244.8 L 70.5 247.5 L 73.2 248 L 70.5 248.5 L 70 251.2 L 69.5 248.5 L 66.8 248 L 69.5 247.5 Z" fill="#d4af6a" opacity="0.8"/>
  <text x="84" y="253.0" font-family="Helvetica, Arial, sans-serif" font-size="16" fill="#a59cc0">Observers fill in the gaps with their own projections</text>
  <path d="M 70 273.8 L 70.5 276.5 L 73.2 277 L 70.5 277.5 L 70 280.2 L 69.5 277.5 L 66.8 277 L 69.5 276.5 Z" fill="#d4af6a" opacity="0.8"/>
  <text x="84" y="282.0" font-family="Helvetica, Arial, sans-serif" font-size="16" fill="#a59cc0">Warm and approachable — genuine, but filtered</text>
  <path d="M 380 308.5 L 380.7 312.3 L 384.5 313 L 380.7 313.7 L 380 317.5 L 379.3 313.7 L 375.5 313 L 379.3 312.3 Z" fill="#d4af6a" opacity="0.65"/>
  <rect x="46" y="326" width="668" height="201.0" rx="14" fill="#1d1740" fill-opacity="0.5" stroke="#d4af6a" stroke-opacity="0.22" stroke-width="0.9"/>
  <rect x="46" y="326" width="3.5" height="201.0" rx="1.8" fill="#d4af6a" fill-opacity="0.6"/>
  <path d="M 47.75 335.6 L 48.3 338.5 L 51.1 339 L 48.3 339.5 L 47.75 342.4 L 47.2 339.5 L 44.4 339 L 47.2 338.5 Z" fill="#f6e6bf" opacity="0.7"/>
  <text x="380" y="355.0" text-anchor="middle" font-family="Georgia, 'Times New Roman', serif" font-size="21" font-weight="700" letter-spacing="0.3" fill="#f3effb">Cancer Moon</text>
  <path d="M 70 384.8 L 70.5 387.5 L 73.2 388 L 70.5 388.5 L 70 391.2 L 69.5 388.5 L 66.8 388 L 69.5 387.5 Z" fill="#d4af6a" opacity="0.8"/>
  <text x="84" y="393.0" font-family="Helvetica, Arial, sans-serif" font-size="16" fill="#a59cc0">Unguarded emotional interior behind the Rising</text>
  <path d="M 70 413.8 L 70.5 416.5 L 73.2 417 L 70.5 417.5 L 70 420.2 L 69.5 417.5 L 66.8 417 L 69.5 416.5 Z" fill="#d4af6a" opacity="0.8"/>
  <text x="84" y="422.0" font-family="Helvetica, Arial, sans-serif" font-size="16" fill="#a59cc0">Needs security, belonging, and privacy to function</text>
  <path d="M 70 442.8 L 70.5 445.5 L 73.2 446 L 70.5 446.5 L 70 449.2 L 69.5 446.5 L 66.8 446 L 69.5 445.5 Z" fill="#d4af6a" opacity="0.8"/>
  <text x="84" y="451.0" font-family="Helvetica, Arial, sans-serif" font-size="16" fill="#a59cc0">Processes internally and protects what it processes</text>
  <path d="M 70 471.8 L 70.5 474.5 L 73.2 475 L 70.5 475.5 L 70 478.2 L 69.5 475.5 L 66.8 475 L 69.5 474.5 Z" fill="#d4af6a" opacity="0.8"/>
  <text x="84" y="480.0" font-family="Helvetica, Arial, sans-serif" font-size="16" fill="#a59cc0">Emotionally self-contained — not unavailable</text>
  <path d="M 70 500.8 L 70.5 503.5 L 73.2 504 L 70.5 504.5 L 70 507.2 L 69.5 504.5 L 66.8 504 L 69.5 503.5 Z" fill="#d4af6a" opacity="0.8"/>
  <text x="84" y="509.0" font-family="Helvetica, Arial, sans-serif" font-size="16" fill="#a59cc0">Deep privacy is what this placement naturally generates</text>
  <path d="M 202.22749999999988 532.4 L 202.6 534.6 L 204.8 535 L 202.6 535.4 L 202.22749999999988 537.6 L 201.8 535.4 L 199.6 535 L 201.8 534.6 Z" fill="#d4af6a" opacity="0.5"/>
  <text x="380" y="539" text-anchor="middle" font-family="Georgia, 'Times New Roman', serif" font-style="italic" font-size="11.5" fill="#7b738f">A self-reflection framework — tendencies, not predictions</text>
  <path d="M 557.7725000000002 532.4 L 558.2 534.6 L 560.4 535 L 558.2 535.4 L 557.7725000000002 537.6 L 557.4 535.4 L 555.2 535 L 557.4 534.6 Z" fill="#d4af6a" opacity="0.5"/>
</svg>
