<svg xmlns="http://www.w3.org/2000/svg" viewBox="0 0 760 701" role="img" aria-label="Punarvasu Renewal vs. Neighboring Concepts">
  <defs>
    <linearGradient id="punarvasunakshatra0en-panel" x1="0" y1="0" x2="0.4" y2="1">
      <stop offset="0" stop-color="#1a1433"/><stop offset="0.55" stop-color="#120e26"/><stop offset="1" stop-color="#09081a"/>
    </linearGradient>
    <radialGradient id="punarvasunakshatra0en-foil" cx="0.42" cy="0.34" r="0.75">
      <stop offset="0" stop-color="#fbf0d2"/><stop offset="0.5" stop-color="#e8c882"/><stop offset="1" stop-color="#b8923f"/>
    </radialGradient>
    <radialGradient id="punarvasunakshatra0en-glow" cx="0.5" cy="0.5" r="0.5">
      <stop offset="0" stop-color="#f6e6bf"/><stop offset="1" stop-color="#f6e6bf" stop-opacity="0"/>
    </radialGradient>
    <radialGradient id="punarvasunakshatra0en-neb1" cx="0.5" cy="0.5" r="0.5">
      <stop offset="0" stop-color="#6f4bb0" stop-opacity="0.28"/><stop offset="1" stop-color="#6f4bb0" stop-opacity="0"/>
    </radialGradient>
    <radialGradient id="punarvasunakshatra0en-neb2" cx="0.5" cy="0.5" r="0.5">
      <stop offset="0" stop-color="#d4af6a" stop-opacity="0.16"/><stop offset="1" stop-color="#d4af6a" stop-opacity="0"/>
    </radialGradient>
    <linearGradient id="punarvasunakshatra0en-rule" x1="0" y1="0" x2="1" y2="0">
      <stop offset="0" stop-color="#d4af6a" stop-opacity="0"/><stop offset="0.5" stop-color="#d4af6a" stop-opacity="0.6"/><stop offset="1" stop-color="#d4af6a" stop-opacity="0"/>
    </linearGradient>
  </defs>
  <rect x="1.5" y="1.5" width="757" height="698" rx="22" fill="url(#punarvasunakshatra0en-panel)"/>
  <ellipse cx="198" cy="168" rx="380" ry="238" fill="url(#punarvasunakshatra0en-neb1)"/>
  <ellipse cx="623" cy="561" rx="334" ry="224" fill="url(#punarvasunakshatra0en-neb2)"/>
  <circle cx="19.6" cy="540.6" r="1.32" fill="#cfc8ea" opacity="0.48"/><circle cx="46.4" cy="346.9" r="1.05" fill="#cfc8ea" opacity="0.33"/><circle cx="47.8" cy="524.6" r="1.53" fill="#cfc8ea" opacity="0.47"/><circle cx="533.8" cy="538.0" r="1.02" fill="#cfc8ea" opacity="0.46"/><circle cx="139.8" cy="413.2" r="1.28" fill="#cfc8ea" opacity="0.44"/><circle cx="51.7" cy="74.6" r="0.67" fill="#cfc8ea" opacity="0.49"/><circle cx="627.8" cy="61.8" r="1.52" fill="#cfc8ea" opacity="0.45"/><circle cx="139.8" cy="663.4" r="1.48" fill="#cfc8ea" opacity="0.32"/><circle cx="75.8" cy="63.6" r="0.76" fill="#cfc8ea" opacity="0.27"/><circle cx="570.7" cy="40.5" r="0.82" fill="#cfc8ea" opacity="0.53"/><circle cx="688.3" cy="492.7" r="0.73" fill="#cfc8ea" opacity="0.29"/><circle cx="452.8" cy="630.4" r="0.73" fill="#cfc8ea" opacity="0.35"/><circle cx="151.1" cy="565.0" r="1.08" fill="#cfc8ea" opacity="0.48"/><circle cx="319.5" cy="388.5" r="1.64" fill="#cfc8ea" opacity="0.12"/><circle cx="84.5" cy="222.6" r="1.22" fill="#cfc8ea" opacity="0.27"/><circle cx="477.1" cy="499.8" r="1.68" fill="#cfc8ea" opacity="0.28"/><circle cx="281.9" cy="572.5" r="0.53" fill="#cfc8ea" opacity="0.31"/><circle cx="180.8" cy="49.1" r="0.61" fill="#cfc8ea" opacity="0.22"/><circle cx="324.8" cy="320.2" r="0.71" fill="#cfc8ea" opacity="0.39"/><circle cx="48.3" cy="193.7" r="0.55" fill="#cfc8ea" opacity="0.44"/><circle cx="450.5" cy="20.1" r="1.13" fill="#cfc8ea" opacity="0.47"/><circle cx="245.9" cy="446.4" r="1.05" fill="#cfc8ea" opacity="0.19"/><circle cx="68.1" cy="668.3" r="0.47" fill="#cfc8ea" opacity="0.15"/><circle cx="706.6" cy="103.6" r="0.85" fill="#cfc8ea" opacity="0.52"/><circle cx="705.8" cy="523.0" r="1.42" fill="#cfc8ea" opacity="0.30"/><circle cx="646.8" cy="25.8" r="1.42" fill="#cfc8ea" opacity="0.33"/><circle cx="112.9" cy="273.1" r="0.62" fill="#cfc8ea" opacity="0.33"/><circle cx="153.9" cy="457.9" r="0.93" fill="#cfc8ea" opacity="0.28"/><circle cx="609.0" cy="169.4" r="0.62" fill="#cfc8ea" opacity="0.43"/><circle cx="163.7" cy="432.7" r="0.47" fill="#cfc8ea" opacity="0.25"/><circle cx="223.7" cy="514.5" r="0.64" fill="#cfc8ea" opacity="0.31"/><circle cx="500.7" cy="53.7" r="1.51" fill="#cfc8ea" opacity="0.29"/><circle cx="436.9" cy="186.4" r="0.88" fill="#cfc8ea" opacity="0.22"/><circle cx="26.2" cy="655.1" r="1.67" fill="#cfc8ea" opacity="0.13"/><circle cx="504.6" cy="135.3" r="1.01" fill="#cfc8ea" opacity="0.34"/><circle cx="642.8" cy="539.1" r="1.48" fill="#cfc8ea" opacity="0.46"/><circle cx="13.6" cy="515.4" r="1.11" fill="#cfc8ea" opacity="0.32"/><circle cx="635.5" cy="299.8" r="0.51" fill="#cfc8ea" opacity="0.13"/><circle cx="338.3" cy="48.2" r="0.93" fill="#cfc8ea" opacity="0.28"/><circle cx="702.6" cy="264.7" r="0.59" fill="#cfc8ea" opacity="0.26"/><circle cx="59.6" cy="90.7" r="0.94" fill="#cfc8ea" opacity="0.24"/><circle cx="468.5" cy="163.1" r="1.13" fill="#cfc8ea" opacity="0.18"/><circle cx="605.6" cy="325.6" r="0.53" fill="#cfc8ea" opacity="0.42"/><circle cx="284.9" cy="476.6" r="1.41" fill="#cfc8ea" opacity="0.15"/><circle cx="87.3" cy="180.2" r="1.28" fill="#cfc8ea" opacity="0.34"/><circle cx="713.2" cy="615.4" r="1.17" fill="#cfc8ea" opacity="0.23"/><circle cx="365.9" cy="342.8" r="0.47" fill="#cfc8ea" opacity="0.52"/><circle cx="446.5" cy="83.7" r="0.98" fill="#cfc8ea" opacity="0.45"/><circle cx="309.5" cy="519.0" r="0.92" fill="#cfc8ea" opacity="0.29"/><circle cx="241.3" cy="518.0" r="0.92" fill="#cfc8ea" opacity="0.52"/><circle cx="706.3" cy="349.6" r="1.49" fill="#cfc8ea" opacity="0.54"/><circle cx="331.5" cy="81.0" r="0.68" fill="#cfc8ea" opacity="0.25"/><circle cx="484.8" cy="472.4" r="1.23" fill="#cfc8ea" opacity="0.39"/><circle cx="291.2" cy="236.8" r="1.00" fill="#cfc8ea" opacity="0.40"/><circle cx="681.2" cy="207.7" r="1.47" fill="#cfc8ea" opacity="0.14"/><circle cx="212.5" cy="290.5" r="1.63" fill="#cfc8ea" opacity="0.40"/><circle cx="591.4" cy="36.0" r="0.86" fill="#cfc8ea" opacity="0.43"/><circle cx="154.5" cy="301.4" r="1.16" fill="#cfc8ea" opacity="0.51"/><circle cx="628.0" cy="678.4" r="0.84" fill="#cfc8ea" opacity="0.26"/><path d="M 51.46274789981544 361.1 L 51.9 363.3 L 54.1 363.72465756349266 L 51.9 364.2 L 51.46274789981544 366.4 L 51.0 364.2 L 48.8 363.72465756349266 L 51.0 363.3 Z" fill="#f6e6bf" opacity="0.6893215670716017"/><path d="M 142.79393940232694 275.0 L 143.3 277.7 L 146.1 278.24600122403353 L 143.3 278.8 L 142.79393940232694 281.5 L 142.3 278.8 L 139.5 278.24600122403353 L 142.3 277.7 Z" fill="#f6e6bf" opacity="0.55471853450872"/><path d="M 354.45573963038623 302.2 L 355.1 305.4 L 358.3 306.0022687986493 L 355.1 306.6 L 354.45573963038623 309.8 L 353.8 306.6 L 350.6 306.0022687986493 L 353.8 305.4 Z" fill="#f6e6bf" opacity="0.6228957114275545"/><path d="M 634.5193365570158 527.9 L 634.9 530.0 L 636.9 530.3426569597796 L 634.9 530.7 L 634.5193365570158 532.7 L 634.1 530.7 L 632.1 530.3426569597796 L 634.1 530.0 Z" fill="#f6e6bf" opacity="0.6405110177118332"/><path d="M 677.4539589267224 17.2 L 677.9 19.8 L 680.5 20.323229597881436 L 677.9 20.8 L 677.4539589267224 23.4 L 677.0 20.8 L 674.4 20.323229597881436 L 677.0 19.8 Z" fill="#f6e6bf" opacity="0.5216505806427449"/><path d="M 319.5 388.5 L 84.5 222.6 L 609.0 169.4" fill="none" stroke="#d4af6a" stroke-width="0.6" opacity="0.12"/>
  <rect x="1.5" y="1.5" width="757" height="698" rx="22" fill="none" stroke="#d4af6a" stroke-opacity="0.34" stroke-width="1.2"/>
  <rect x="7" y="7" width="746" height="687" rx="17" fill="none" stroke="#d4af6a" stroke-opacity="0.12" stroke-width="0.8"/>
  <path d="M 16 12.8 L 16.5 15.5 L 19.2 16 L 16.5 16.5 L 16 19.2 L 15.5 16.5 L 12.8 16 L 15.5 15.5 Z" fill="#d4af6a" opacity="0.4"/><path d="M 744 12.8 L 744.5 15.5 L 747.2 16 L 744.5 16.5 L 744 19.2 L 743.5 16.5 L 740.8 16 L 743.5 15.5 Z" fill="#d4af6a" opacity="0.4"/><path d="M 16 681.8 L 16.5 684.5 L 19.2 685 L 16.5 685.5 L 16 688.2 L 15.5 685.5 L 12.8 685 L 15.5 684.5 Z" fill="#d4af6a" opacity="0.4"/><path d="M 744 681.8 L 744.5 684.5 L 747.2 685 L 744.5 685.5 L 744 688.2 L 743.5 685.5 L 740.8 685 L 743.5 684.5 Z" fill="#d4af6a" opacity="0.4"/>
  <text x="380" y="46" text-anchor="middle" font-family="Georgia, 'Times New Roman', serif" font-size="22" letter-spacing="0.4" fill="#efeaf8">Punarvasu Renewal vs. Neighboring Concepts</text>
  <line x1="230" y1="67" x2="368" y2="67" stroke="url(#punarvasunakshatra0en-rule)" stroke-width="1"/>
  <line x1="392" y1="67" x2="530" y2="67" stroke="url(#punarvasunakshatra0en-rule)" stroke-width="1"/>
  <path d="M 380 62.0 L 380.8 66.2 L 385.0 67 L 380.8 67.8 L 380 72.0 L 379.2 67.8 L 375.0 67 L 379.2 66.2 Z" fill="#d4af6a" opacity="0.85"/>

  <rect x="46" y="99" width="668" height="172.0" rx="14" fill="#1d1740" fill-opacity="0.5" stroke="#d4af6a" stroke-opacity="0.22" stroke-width="0.9"/>
  <rect x="46" y="99" width="668" height="3.5" rx="1.8" fill="#d4af6a" fill-opacity="0.6"/>
  <path d="M 380 97.1 L 380.5 100.0 L 383.4 100.5 L 380.5 101.0 L 380 103.9 L 379.5 101.0 L 376.6 100.5 L 379.5 100.0 Z" fill="#f6e6bf" opacity="0.7"/>
  <text x="380" y="128.0" text-anchor="middle" font-family="Georgia, 'Times New Roman', serif" font-size="21" font-weight="700" letter-spacing="0.3" fill="#f3effb">Punarvasu Renewal</text>
  <path d="M 70 157.8 L 70.5 160.5 L 73.2 161 L 70.5 161.5 L 70 164.2 L 69.5 161.5 L 66.8 161 L 69.5 160.5 Z" fill="#d4af6a" opacity="0.8"/>
  <text x="84" y="166.0" font-family="Helvetica, Arial, sans-serif" font-size="16" fill="#a59cc0">Carries lesson forward</text>
  <path d="M 70 186.8 L 70.5 189.5 L 73.2 190 L 70.5 190.5 L 70 193.2 L 69.5 190.5 L 66.8 190 L 69.5 189.5 Z" fill="#d4af6a" opacity="0.8"/>
  <text x="84" y="195.0" font-family="Helvetica, Arial, sans-serif" font-size="16" fill="#a59cc0">Returns wiser, not blank</text>
  <path d="M 70 215.8 L 70.5 218.5 L 73.2 219 L 70.5 219.5 L 70 222.2 L 69.5 219.5 L 66.8 219 L 69.5 218.5 Z" fill="#d4af6a" opacity="0.8"/>
  <text x="84" y="224.0" font-family="Helvetica, Arial, sans-serif" font-size="16" fill="#a59cc0">Durable growth each cycle</text>
  <path d="M 70 244.8 L 70.5 247.5 L 73.2 248 L 70.5 248.5 L 70 251.2 L 69.5 248.5 L 66.8 248 L 69.5 247.5 Z" fill="#d4af6a" opacity="0.8"/>
  <text x="84" y="253.0" font-family="Helvetica, Arial, sans-serif" font-size="16" fill="#a59cc0">Jupiter-ruled expansion</text>
  <path d="M 380 279.5 L 380.7 283.3 L 384.5 284 L 380.7 284.7 L 380 288.5 L 379.3 284.7 L 375.5 284 L 379.3 283.3 Z" fill="#d4af6a" opacity="0.65"/>
  <rect x="46" y="297" width="668" height="172.0" rx="14" fill="#1d1740" fill-opacity="0.5" stroke="#d4af6a" stroke-opacity="0.22" stroke-width="0.9"/>
  <rect x="46" y="297" width="668" height="3.5" rx="1.8" fill="#d4af6a" fill-opacity="0.6"/>
  <path d="M 380 295.1 L 380.5 298.0 L 383.4 298.5 L 380.5 299.0 L 380 301.9 L 379.5 299.0 L 376.6 298.5 L 379.5 298.0 Z" fill="#f6e6bf" opacity="0.7"/>
  <text x="380" y="326.0" text-anchor="middle" font-family="Georgia, 'Times New Roman', serif" font-size="21" font-weight="700" letter-spacing="0.3" fill="#f3effb">Simple Fresh Start</text>
  <path d="M 70 355.8 L 70.5 358.5 L 73.2 359 L 70.5 359.5 L 70 362.2 L 69.5 359.5 L 66.8 359 L 69.5 358.5 Z" fill="#d4af6a" opacity="0.8"/>
  <text x="84" y="364.0" font-family="Helvetica, Arial, sans-serif" font-size="16" fill="#a59cc0">Implies erasure</text>
  <path d="M 70 384.8 L 70.5 387.5 L 73.2 388 L 70.5 388.5 L 70 391.2 L 69.5 388.5 L 66.8 388 L 69.5 387.5 Z" fill="#d4af6a" opacity="0.8"/>
  <text x="84" y="393.0" font-family="Helvetica, Arial, sans-serif" font-size="16" fill="#a59cc0">Wipe the slate clean</text>
  <path d="M 70 413.8 L 70.5 416.5 L 73.2 417 L 70.5 417.5 L 70 420.2 L 69.5 417.5 L 66.8 417 L 69.5 416.5 Z" fill="#d4af6a" opacity="0.8"/>
  <text x="84" y="422.0" font-family="Helvetica, Arial, sans-serif" font-size="16" fill="#a59cc0">Fantasy of a clean reset</text>
  <path d="M 70 442.8 L 70.5 445.5 L 73.2 446 L 70.5 446.5 L 70 449.2 L 69.5 446.5 L 66.8 446 L 69.5 445.5 Z" fill="#d4af6a" opacity="0.8"/>
  <text x="84" y="451.0" font-family="Helvetica, Arial, sans-serif" font-size="16" fill="#a59cc0">Nothing carried forward</text>
  <path d="M 380 477.5 L 380.7 481.3 L 384.5 482 L 380.7 482.7 L 380 486.5 L 379.3 482.7 L 375.5 482 L 379.3 481.3 Z" fill="#d4af6a" opacity="0.65"/>
  <rect x="46" y="495" width="668" height="172.0" rx="14" fill="#1d1740" fill-opacity="0.5" stroke="#d4af6a" stroke-opacity="0.22" stroke-width="0.9"/>
  <rect x="46" y="495" width="668" height="3.5" rx="1.8" fill="#d4af6a" fill-opacity="0.6"/>
  <path d="M 380 493.1 L 380.5 496.0 L 383.4 496.5 L 380.5 497.0 L 380 499.9 L 379.5 497.0 L 376.6 496.5 L 379.5 496.0 Z" fill="#f6e6bf" opacity="0.7"/>
  <text x="380" y="524.0" text-anchor="middle" font-family="Georgia, 'Times New Roman', serif" font-size="21" font-weight="700" letter-spacing="0.3" fill="#f3effb">Cancer-Moon Nurture</text>
  <path d="M 70 553.8 L 70.5 556.5 L 73.2 557 L 70.5 557.5 L 70 560.2 L 69.5 557.5 L 66.8 557 L 69.5 556.5 Z" fill="#d4af6a" opacity="0.8"/>
  <text x="84" y="562.0" font-family="Helvetica, Arial, sans-serif" font-size="16" fill="#a59cc0">Soothes and protects</text>
  <path d="M 70 582.8 L 70.5 585.5 L 73.2 586 L 70.5 586.5 L 70 589.2 L 69.5 586.5 L 66.8 586 L 69.5 585.5 Z" fill="#d4af6a" opacity="0.8"/>
  <text x="84" y="591.0" font-family="Helvetica, Arial, sans-serif" font-size="16" fill="#a59cc0">Moon-ruled comfort</text>
  <path d="M 70 611.8 L 70.5 614.5 L 73.2 615 L 70.5 615.5 L 70 618.2 L 69.5 615.5 L 66.8 615 L 69.5 614.5 Z" fill="#d4af6a" opacity="0.8"/>
  <text x="84" y="620.0" font-family="Helvetica, Arial, sans-serif" font-size="16" fill="#a59cc0">Emotional reassurance</text>
  <path d="M 70 640.8 L 70.5 643.5 L 73.2 644 L 70.5 644.5 L 70 647.2 L 69.5 644.5 L 66.8 644 L 69.5 643.5 Z" fill="#d4af6a" opacity="0.8"/>
  <text x="84" y="649.0" font-family="Helvetica, Arial, sans-serif" font-size="16" fill="#a59cc0">Secondary layer in Punarvasu</text>
  <path d="M 202.22749999999988 672.4 L 202.6 674.6 L 204.8 675 L 202.6 675.4 L 202.22749999999988 677.6 L 201.8 675.4 L 199.6 675 L 201.8 674.6 Z" fill="#d4af6a" opacity="0.5"/>
  <text x="380" y="679" text-anchor="middle" font-family="Georgia, 'Times New Roman', serif" font-style="italic" font-size="11.5" fill="#7b738f">A self-reflection framework — tendencies, not predictions</text>
  <path d="M 557.7725000000002 672.4 L 558.2 674.6 L 560.4 675 L 558.2 675.4 L 557.7725000000002 677.6 L 557.4 675.4 L 555.2 675 L 557.4 674.6 Z" fill="#d4af6a" opacity="0.5"/>
</svg>
