<svg xmlns="http://www.w3.org/2000/svg" viewBox="0 0 760 433" role="img" aria-label="5 Steps to Read Punarvasu in Your Vedic Chart">
  <defs>
    <linearGradient id="punarvasunakshatra1en-panel" x1="0" y1="0" x2="0.4" y2="1">
      <stop offset="0" stop-color="#1a1433"/><stop offset="0.55" stop-color="#120e26"/><stop offset="1" stop-color="#09081a"/>
    </linearGradient>
    <radialGradient id="punarvasunakshatra1en-foil" cx="0.42" cy="0.34" r="0.75">
      <stop offset="0" stop-color="#fbf0d2"/><stop offset="0.5" stop-color="#e8c882"/><stop offset="1" stop-color="#b8923f"/>
    </radialGradient>
    <radialGradient id="punarvasunakshatra1en-glow" cx="0.5" cy="0.5" r="0.5">
      <stop offset="0" stop-color="#f6e6bf"/><stop offset="1" stop-color="#f6e6bf" stop-opacity="0"/>
    </radialGradient>
    <radialGradient id="punarvasunakshatra1en-neb1" cx="0.5" cy="0.5" r="0.5">
      <stop offset="0" stop-color="#6f4bb0" stop-opacity="0.28"/><stop offset="1" stop-color="#6f4bb0" stop-opacity="0"/>
    </radialGradient>
    <radialGradient id="punarvasunakshatra1en-neb2" cx="0.5" cy="0.5" r="0.5">
      <stop offset="0" stop-color="#d4af6a" stop-opacity="0.16"/><stop offset="1" stop-color="#d4af6a" stop-opacity="0"/>
    </radialGradient>
    <linearGradient id="punarvasunakshatra1en-rule" x1="0" y1="0" x2="1" y2="0">
      <stop offset="0" stop-color="#d4af6a" stop-opacity="0"/><stop offset="0.5" stop-color="#d4af6a" stop-opacity="0.6"/><stop offset="1" stop-color="#d4af6a" stop-opacity="0"/>
    </linearGradient>
  </defs>
  <rect x="1.5" y="1.5" width="757" height="430" rx="22" fill="url(#punarvasunakshatra1en-panel)"/>
  <ellipse cx="198" cy="104" rx="380" ry="147" fill="url(#punarvasunakshatra1en-neb1)"/>
  <ellipse cx="623" cy="346" rx="334" ry="139" fill="url(#punarvasunakshatra1en-neb2)"/>
  <circle cx="295.9" cy="65.4" r="0.67" fill="#cfc8ea" opacity="0.51"/><circle cx="598.4" cy="59.8" r="1.36" fill="#cfc8ea" opacity="0.37"/><circle cx="188.3" cy="314.6" r="1.61" fill="#cfc8ea" opacity="0.37"/><circle cx="480.1" cy="336.1" r="1.11" fill="#cfc8ea" opacity="0.42"/><circle cx="82.7" cy="377.2" r="0.67" fill="#cfc8ea" opacity="0.50"/><circle cx="248.4" cy="330.9" r="0.79" fill="#cfc8ea" opacity="0.15"/><circle cx="353.4" cy="176.6" r="1.42" fill="#cfc8ea" opacity="0.31"/><circle cx="727.0" cy="332.7" r="0.53" fill="#cfc8ea" opacity="0.16"/><circle cx="49.6" cy="334.3" r="1.34" fill="#cfc8ea" opacity="0.37"/><circle cx="358.4" cy="143.4" r="0.56" fill="#cfc8ea" opacity="0.27"/><circle cx="557.4" cy="405.9" r="1.40" fill="#cfc8ea" opacity="0.30"/><circle cx="52.7" cy="378.7" r="1.12" fill="#cfc8ea" opacity="0.12"/><circle cx="174.8" cy="85.8" r="0.54" fill="#cfc8ea" opacity="0.53"/><circle cx="471.4" cy="224.0" r="1.61" fill="#cfc8ea" opacity="0.38"/><circle cx="593.1" cy="315.3" r="0.52" fill="#cfc8ea" opacity="0.50"/><circle cx="604.6" cy="377.6" r="1.30" fill="#cfc8ea" opacity="0.53"/><circle cx="417.5" cy="186.3" r="1.36" fill="#cfc8ea" opacity="0.28"/><circle cx="627.0" cy="230.2" r="0.90" fill="#cfc8ea" opacity="0.35"/><circle cx="637.7" cy="149.5" r="1.64" fill="#cfc8ea" opacity="0.46"/><circle cx="204.6" cy="308.9" r="0.98" fill="#cfc8ea" opacity="0.13"/><circle cx="328.5" cy="297.0" r="0.49" fill="#cfc8ea" opacity="0.30"/><circle cx="105.4" cy="241.4" r="0.92" fill="#cfc8ea" opacity="0.39"/><circle cx="24.3" cy="174.8" r="1.30" fill="#cfc8ea" opacity="0.23"/><circle cx="33.8" cy="364.4" r="1.55" fill="#cfc8ea" opacity="0.36"/><circle cx="655.1" cy="239.8" r="0.41" fill="#cfc8ea" opacity="0.35"/><circle cx="739.4" cy="289.4" r="1.34" fill="#cfc8ea" opacity="0.28"/><circle cx="684.0" cy="171.4" r="0.75" fill="#cfc8ea" opacity="0.14"/><circle cx="585.0" cy="378.3" r="0.84" fill="#cfc8ea" opacity="0.45"/><circle cx="192.1" cy="37.2" r="1.05" fill="#cfc8ea" opacity="0.39"/><circle cx="87.3" cy="54.6" r="0.69" fill="#cfc8ea" opacity="0.52"/><circle cx="134.1" cy="100.0" r="1.11" fill="#cfc8ea" opacity="0.38"/><circle cx="707.2" cy="117.9" r="0.89" fill="#cfc8ea" opacity="0.20"/><circle cx="448.2" cy="172.2" r="1.23" fill="#cfc8ea" opacity="0.15"/><circle cx="422.4" cy="141.3" r="1.61" fill="#cfc8ea" opacity="0.30"/><circle cx="292.3" cy="364.8" r="0.66" fill="#cfc8ea" opacity="0.13"/><circle cx="28.5" cy="56.7" r="1.13" fill="#cfc8ea" opacity="0.47"/><circle cx="704.4" cy="130.4" r="1.26" fill="#cfc8ea" opacity="0.32"/><path d="M 64.68035908415914 307.6 L 65.3 310.8 L 68.4 311.3868515214417 L 65.3 312.0 L 64.68035908415914 315.1 L 64.1 312.0 L 60.9 311.3868515214417 L 64.1 310.8 Z" fill="#f6e6bf" opacity="0.5858566276030615"/><path d="M 437.9521434418857 242.0 L 438.5 244.6 L 441.1 245.10595612903126 L 438.5 245.6 L 437.9521434418857 248.2 L 437.5 245.6 L 434.8 245.10595612903126 L 437.5 244.6 Z" fill="#f6e6bf" opacity="0.6375920342514292"/><path d="M 141.2954780496657 115.7 L 141.7 117.9 L 143.8 118.28644522675313 L 141.7 118.7 L 141.2954780496657 120.8 L 140.9 118.7 L 138.8 118.28644522675313 L 140.9 117.9 Z" fill="#f6e6bf" opacity="0.71874405418057"/><path d="M 301.38887357339263 201.3 L 301.9 204.1 L 304.7 204.6182766717393 L 301.9 205.2 L 301.38887357339263 208.0 L 300.9 205.2 L 298.1 204.6182766717393 L 300.9 204.1 Z" fill="#f6e6bf" opacity="0.5284721903735772"/><path d="M 606.898114848882 264.2 L 607.5 267.3 L 610.7 267.9463041035924 L 607.5 268.6 L 606.898114848882 271.7 L 606.3 268.6 L 603.1 267.9463041035924 L 606.3 267.3 Z" fill="#f6e6bf" opacity="0.7209602835820987"/><path d="M 604.6 377.6 L 417.5 186.3 L 33.8 364.4 L 739.4 289.4 L 707.2 117.9" fill="none" stroke="#d4af6a" stroke-width="0.6" opacity="0.12"/>
  <rect x="1.5" y="1.5" width="757" height="430" rx="22" fill="none" stroke="#d4af6a" stroke-opacity="0.34" stroke-width="1.2"/>
  <rect x="7" y="7" width="746" height="419" rx="17" fill="none" stroke="#d4af6a" stroke-opacity="0.12" stroke-width="0.8"/>
  <path d="M 16 12.8 L 16.5 15.5 L 19.2 16 L 16.5 16.5 L 16 19.2 L 15.5 16.5 L 12.8 16 L 15.5 15.5 Z" fill="#d4af6a" opacity="0.4"/><path d="M 744 12.8 L 744.5 15.5 L 747.2 16 L 744.5 16.5 L 744 19.2 L 743.5 16.5 L 740.8 16 L 743.5 15.5 Z" fill="#d4af6a" opacity="0.4"/><path d="M 16 413.8 L 16.5 416.5 L 19.2 417 L 16.5 417.5 L 16 420.2 L 15.5 417.5 L 12.8 417 L 15.5 416.5 Z" fill="#d4af6a" opacity="0.4"/><path d="M 744 413.8 L 744.5 416.5 L 747.2 417 L 744.5 417.5 L 744 420.2 L 743.5 417.5 L 740.8 417 L 743.5 416.5 Z" fill="#d4af6a" opacity="0.4"/>
  <text x="380" y="46" text-anchor="middle" font-family="Georgia, 'Times New Roman', serif" font-size="22" letter-spacing="0.4" fill="#efeaf8">5 Steps to Read Punarvasu in Your Vedic Chart</text>
  <line x1="230" y1="67" x2="368" y2="67" stroke="url(#punarvasunakshatra1en-rule)" stroke-width="1"/>
  <line x1="392" y1="67" x2="530" y2="67" stroke="url(#punarvasunakshatra1en-rule)" stroke-width="1"/>
  <path d="M 380 62.0 L 380.8 66.2 L 385.0 67 L 380.8 67.8 L 380 72.0 L 379.2 67.8 L 375.0 67 L 379.2 66.2 Z" fill="#d4af6a" opacity="0.85"/>
  <line x1="76" y1="121" x2="76" y2="361" stroke="#d4af6a" stroke-opacity="0.28" stroke-width="1.5"/>
  <circle cx="76" cy="121" r="20.0" fill="url(#punarvasunakshatra1en-glow)" opacity="0.5"/>
    <circle cx="76" cy="121" r="15" fill="url(#punarvasunakshatra1en-foil)" stroke="#f6e6bf" stroke-opacity="0.5" stroke-width="0.8"/>
    <circle cx="76" cy="116.8" r="9.0" fill="#ffffff" opacity="0.10"/>
    <text x="76" y="125.5" text-anchor="middle" font-family="Georgia, 'Times New Roman', serif" font-size="13" font-weight="700" fill="#3a2c12">1</text>
  <text x="116" y="117.0" font-family="Georgia, 'Times New Roman', serif" font-size="22" letter-spacing="0.3" fill="#f3effb">Confirm Moon Degree</text>
  <text x="116" y="139.0" font-family="Helvetica, Arial, sans-serif" font-size="15.5" fill="#a59cc0">Moon between 20° Gemini and 3°20' Cancer in Vedic chart</text>
  <circle cx="76" cy="181" r="20.0" fill="url(#punarvasunakshatra1en-glow)" opacity="0.5"/>
    <circle cx="76" cy="181" r="15" fill="url(#punarvasunakshatra1en-foil)" stroke="#f6e6bf" stroke-opacity="0.5" stroke-width="0.8"/>
    <circle cx="76" cy="176.8" r="9.0" fill="#ffffff" opacity="0.10"/>
    <text x="76" y="185.5" text-anchor="middle" font-family="Georgia, 'Times New Roman', serif" font-size="13" font-weight="700" fill="#3a2c12">2</text>
  <text x="116" y="177.0" font-family="Georgia, 'Times New Roman', serif" font-size="22" letter-spacing="0.3" fill="#f3effb">Read Jupiter's Condition</text>
  <text x="116" y="199.0" font-family="Helvetica, Arial, sans-serif" font-size="15.5" fill="#a59cc0">Jupiter's placement, sign, and aspects color the renewal theme</text>
  <circle cx="76" cy="241" r="20.0" fill="url(#punarvasunakshatra1en-glow)" opacity="0.5"/>
    <circle cx="76" cy="241" r="15" fill="url(#punarvasunakshatra1en-foil)" stroke="#f6e6bf" stroke-opacity="0.5" stroke-width="0.8"/>
    <circle cx="76" cy="236.8" r="9.0" fill="#ffffff" opacity="0.10"/>
    <text x="76" y="245.5" text-anchor="middle" font-family="Georgia, 'Times New Roman', serif" font-size="13" font-weight="700" fill="#3a2c12">3</text>
  <text x="116" y="237.0" font-family="Georgia, 'Times New Roman', serif" font-size="22" letter-spacing="0.3" fill="#f3effb">Note Which Half</text>
  <text x="116" y="259.0" font-family="Helvetica, Arial, sans-serif" font-size="15.5" fill="#a59cc0">Gemini side = intellectual recovery; Cancer side = emotional recovery</text>
  <circle cx="76" cy="301" r="20.0" fill="url(#punarvasunakshatra1en-glow)" opacity="0.5"/>
    <circle cx="76" cy="301" r="15" fill="url(#punarvasunakshatra1en-foil)" stroke="#f6e6bf" stroke-opacity="0.5" stroke-width="0.8"/>
    <circle cx="76" cy="296.8" r="9.0" fill="#ffffff" opacity="0.10"/>
    <text x="76" y="305.5" text-anchor="middle" font-family="Georgia, 'Times New Roman', serif" font-size="13" font-weight="700" fill="#3a2c12">4</text>
  <text x="116" y="297.0" font-family="Georgia, 'Times New Roman', serif" font-size="22" letter-spacing="0.3" fill="#f3effb">Watch the Return Pattern</text>
  <text x="116" y="319.0" font-family="Helvetica, Arial, sans-serif" font-size="15.5" fill="#a59cc0">Observe where setbacks have historically returned as growth</text>
  <circle cx="76" cy="361" r="20.0" fill="url(#punarvasunakshatra1en-glow)" opacity="0.5"/>
    <circle cx="76" cy="361" r="15" fill="url(#punarvasunakshatra1en-foil)" stroke="#f6e6bf" stroke-opacity="0.5" stroke-width="0.8"/>
    <circle cx="76" cy="356.8" r="9.0" fill="#ffffff" opacity="0.10"/>
    <text x="76" y="365.5" text-anchor="middle" font-family="Georgia, 'Times New Roman', serif" font-size="13" font-weight="700" fill="#3a2c12">5</text>
  <text x="116" y="357.0" font-family="Georgia, 'Times New Roman', serif" font-size="22" letter-spacing="0.3" fill="#f3effb">Hold Aditi Theme Lightly</text>
  <text x="116" y="379.0" font-family="Helvetica, Arial, sans-serif" font-size="15.5" fill="#a59cc0">Renewal potential is a lens for resilience, not a guarantee</text>
  <path d="M 202.22749999999988 404.4 L 202.6 406.6 L 204.8 407 L 202.6 407.4 L 202.22749999999988 409.6 L 201.8 407.4 L 199.6 407 L 201.8 406.6 Z" fill="#d4af6a" opacity="0.5"/>
  <text x="380" y="411" text-anchor="middle" font-family="Georgia, 'Times New Roman', serif" font-style="italic" font-size="11.5" fill="#7b738f">A self-reflection framework — tendencies, not predictions</text>
  <path d="M 557.7725000000002 404.4 L 558.2 406.6 L 560.4 407 L 558.2 407.4 L 557.7725000000002 409.6 L 557.4 407.4 L 555.2 407 L 557.4 406.6 Z" fill="#d4af6a" opacity="0.5"/>
</svg>
