<svg xmlns="http://www.w3.org/2000/svg" viewBox="0 0 760 614" role="img" aria-label="Three Neighboring Nakshatras Compared">
  <defs>
    <linearGradient id="purvabhadrapadanakshatra0en-panel" x1="0" y1="0" x2="0.4" y2="1">
      <stop offset="0" stop-color="#1a1433"/><stop offset="0.55" stop-color="#120e26"/><stop offset="1" stop-color="#09081a"/>
    </linearGradient>
    <radialGradient id="purvabhadrapadanakshatra0en-foil" cx="0.42" cy="0.34" r="0.75">
      <stop offset="0" stop-color="#fbf0d2"/><stop offset="0.5" stop-color="#e8c882"/><stop offset="1" stop-color="#b8923f"/>
    </radialGradient>
    <radialGradient id="purvabhadrapadanakshatra0en-glow" cx="0.5" cy="0.5" r="0.5">
      <stop offset="0" stop-color="#f6e6bf"/><stop offset="1" stop-color="#f6e6bf" stop-opacity="0"/>
    </radialGradient>
    <radialGradient id="purvabhadrapadanakshatra0en-neb1" cx="0.5" cy="0.5" r="0.5">
      <stop offset="0" stop-color="#6f4bb0" stop-opacity="0.28"/><stop offset="1" stop-color="#6f4bb0" stop-opacity="0"/>
    </radialGradient>
    <radialGradient id="purvabhadrapadanakshatra0en-neb2" cx="0.5" cy="0.5" r="0.5">
      <stop offset="0" stop-color="#d4af6a" stop-opacity="0.16"/><stop offset="1" stop-color="#d4af6a" stop-opacity="0"/>
    </radialGradient>
    <linearGradient id="purvabhadrapadanakshatra0en-rule" x1="0" y1="0" x2="1" y2="0">
      <stop offset="0" stop-color="#d4af6a" stop-opacity="0"/><stop offset="0.5" stop-color="#d4af6a" stop-opacity="0.6"/><stop offset="1" stop-color="#d4af6a" stop-opacity="0"/>
    </linearGradient>
  </defs>
  <rect x="1.5" y="1.5" width="757" height="611" rx="22" fill="url(#purvabhadrapadanakshatra0en-panel)"/>
  <ellipse cx="198" cy="147" rx="380" ry="209" fill="url(#purvabhadrapadanakshatra0en-neb1)"/>
  <ellipse cx="623" cy="491" rx="334" ry="196" fill="url(#purvabhadrapadanakshatra0en-neb2)"/>
  <circle cx="529.8" cy="246.0" r="0.45" fill="#cfc8ea" opacity="0.31"/><circle cx="719.2" cy="115.9" r="1.26" fill="#cfc8ea" opacity="0.15"/><circle cx="692.6" cy="491.6" r="1.57" fill="#cfc8ea" opacity="0.33"/><circle cx="486.7" cy="311.0" r="0.57" fill="#cfc8ea" opacity="0.45"/><circle cx="412.5" cy="189.4" r="0.84" fill="#cfc8ea" opacity="0.27"/><circle cx="710.6" cy="253.4" r="1.29" fill="#cfc8ea" opacity="0.34"/><circle cx="50.3" cy="498.1" r="0.77" fill="#cfc8ea" opacity="0.32"/><circle cx="500.2" cy="530.6" r="0.88" fill="#cfc8ea" opacity="0.48"/><circle cx="367.2" cy="342.9" r="0.81" fill="#cfc8ea" opacity="0.35"/><circle cx="210.5" cy="308.1" r="0.89" fill="#cfc8ea" opacity="0.13"/><circle cx="162.9" cy="384.8" r="1.11" fill="#cfc8ea" opacity="0.23"/><circle cx="380.2" cy="77.3" r="1.01" fill="#cfc8ea" opacity="0.22"/><circle cx="690.6" cy="314.1" r="1.58" fill="#cfc8ea" opacity="0.30"/><circle cx="487.4" cy="360.1" r="0.47" fill="#cfc8ea" opacity="0.42"/><circle cx="592.0" cy="83.1" r="0.59" fill="#cfc8ea" opacity="0.42"/><circle cx="264.3" cy="412.3" r="1.40" fill="#cfc8ea" opacity="0.43"/><circle cx="194.9" cy="92.8" r="1.30" fill="#cfc8ea" opacity="0.25"/><circle cx="243.0" cy="566.2" r="1.43" fill="#cfc8ea" opacity="0.30"/><circle cx="313.8" cy="155.8" r="1.43" fill="#cfc8ea" opacity="0.51"/><circle cx="399.7" cy="199.6" r="0.70" fill="#cfc8ea" opacity="0.19"/><circle cx="31.2" cy="50.0" r="0.41" fill="#cfc8ea" opacity="0.40"/><circle cx="563.2" cy="593.2" r="1.26" fill="#cfc8ea" opacity="0.17"/><circle cx="442.8" cy="222.8" r="1.23" fill="#cfc8ea" opacity="0.15"/><circle cx="272.1" cy="594.7" r="0.95" fill="#cfc8ea" opacity="0.29"/><circle cx="84.7" cy="521.2" r="0.83" fill="#cfc8ea" opacity="0.17"/><circle cx="574.4" cy="430.5" r="1.48" fill="#cfc8ea" opacity="0.19"/><circle cx="39.3" cy="533.1" r="0.69" fill="#cfc8ea" opacity="0.43"/><circle cx="705.9" cy="485.8" r="1.19" fill="#cfc8ea" opacity="0.36"/><circle cx="50.5" cy="318.2" r="1.20" fill="#cfc8ea" opacity="0.32"/><circle cx="101.6" cy="119.1" r="0.84" fill="#cfc8ea" opacity="0.45"/><circle cx="513.8" cy="203.0" r="1.10" fill="#cfc8ea" opacity="0.18"/><circle cx="297.9" cy="244.2" r="1.58" fill="#cfc8ea" opacity="0.26"/><circle cx="556.8" cy="152.2" r="0.76" fill="#cfc8ea" opacity="0.52"/><circle cx="47.3" cy="215.4" r="1.10" fill="#cfc8ea" opacity="0.19"/><circle cx="469.9" cy="535.6" r="1.03" fill="#cfc8ea" opacity="0.53"/><circle cx="549.2" cy="239.0" r="1.03" fill="#cfc8ea" opacity="0.45"/><circle cx="619.9" cy="580.6" r="0.47" fill="#cfc8ea" opacity="0.25"/><circle cx="226.9" cy="230.9" r="0.91" fill="#cfc8ea" opacity="0.36"/><circle cx="546.9" cy="158.6" r="1.16" fill="#cfc8ea" opacity="0.33"/><circle cx="385.4" cy="578.7" r="0.87" fill="#cfc8ea" opacity="0.35"/><circle cx="413.1" cy="162.7" r="1.66" fill="#cfc8ea" opacity="0.52"/><circle cx="467.0" cy="111.2" r="0.84" fill="#cfc8ea" opacity="0.27"/><circle cx="472.3" cy="128.7" r="1.44" fill="#cfc8ea" opacity="0.41"/><circle cx="686.4" cy="429.2" r="0.83" fill="#cfc8ea" opacity="0.38"/><circle cx="114.8" cy="251.7" r="0.44" fill="#cfc8ea" opacity="0.22"/><circle cx="656.5" cy="520.2" r="0.68" fill="#cfc8ea" opacity="0.25"/><circle cx="156.9" cy="134.7" r="1.33" fill="#cfc8ea" opacity="0.36"/><circle cx="619.2" cy="125.7" r="1.67" fill="#cfc8ea" opacity="0.30"/><circle cx="505.2" cy="576.0" r="0.95" fill="#cfc8ea" opacity="0.53"/><circle cx="35.4" cy="208.7" r="1.12" fill="#cfc8ea" opacity="0.33"/><circle cx="658.3" cy="114.8" r="1.09" fill="#cfc8ea" opacity="0.28"/><circle cx="139.2" cy="593.0" r="1.52" fill="#cfc8ea" opacity="0.17"/><path d="M 128.17187128029764 584.1 L 128.6 586.6 L 131.1 587.0406435299665 L 128.6 587.5 L 128.17187128029764 590.0 L 127.7 587.5 L 125.2 587.0406435299665 L 127.7 586.6 Z" fill="#f6e6bf" opacity="0.6629109587986022"/><path d="M 99.75551479868591 488.0 L 100.2 490.2 L 102.4 490.63031785562634 L 100.2 491.1 L 99.75551479868591 493.3 L 99.3 491.1 L 97.1 490.63031785562634 L 99.3 490.2 Z" fill="#f6e6bf" opacity="0.5697847079019993"/><path d="M 651.1580807175487 117.4 L 651.6 119.9 L 654.2 120.3846471812576 L 651.6 120.9 L 651.1580807175487 123.4 L 650.7 120.9 L 648.2 120.3846471812576 L 650.7 119.9 Z" fill="#f6e6bf" opacity="0.7540128747466952"/><path d="M 382.8104066681117 332.6 L 383.4 335.4 L 386.2 335.99148293584585 L 383.4 336.5 L 382.8104066681117 339.4 L 382.3 336.5 L 379.4 335.99148293584585 L 382.3 335.4 Z" fill="#f6e6bf" opacity="0.6541315072681755"/><path d="M 59.57310933433473 207.9 L 60.2 211.1 L 63.4 211.75263681448996 L 60.2 212.4 L 59.57310933433473 215.6 L 59.0 212.4 L 55.7 211.75263681448996 L 59.0 211.1 Z" fill="#f6e6bf" opacity="0.736535769002512"/><path d="M 210.5 308.1 L 380.2 77.3 L 264.3 412.3 L 442.8 222.8 L 469.9 535.6" fill="none" stroke="#d4af6a" stroke-width="0.6" opacity="0.12"/>
  <rect x="1.5" y="1.5" width="757" height="611" rx="22" fill="none" stroke="#d4af6a" stroke-opacity="0.34" stroke-width="1.2"/>
  <rect x="7" y="7" width="746" height="600" rx="17" fill="none" stroke="#d4af6a" stroke-opacity="0.12" stroke-width="0.8"/>
  <path d="M 16 12.8 L 16.5 15.5 L 19.2 16 L 16.5 16.5 L 16 19.2 L 15.5 16.5 L 12.8 16 L 15.5 15.5 Z" fill="#d4af6a" opacity="0.4"/><path d="M 744 12.8 L 744.5 15.5 L 747.2 16 L 744.5 16.5 L 744 19.2 L 743.5 16.5 L 740.8 16 L 743.5 15.5 Z" fill="#d4af6a" opacity="0.4"/><path d="M 16 594.8 L 16.5 597.5 L 19.2 598 L 16.5 598.5 L 16 601.2 L 15.5 598.5 L 12.8 598 L 15.5 597.5 Z" fill="#d4af6a" opacity="0.4"/><path d="M 744 594.8 L 744.5 597.5 L 747.2 598 L 744.5 598.5 L 744 601.2 L 743.5 598.5 L 740.8 598 L 743.5 597.5 Z" fill="#d4af6a" opacity="0.4"/>
  <text x="380" y="46" text-anchor="middle" font-family="Georgia, 'Times New Roman', serif" font-size="22" letter-spacing="0.4" fill="#efeaf8">Three Neighboring Nakshatras Compared</text>
  <line x1="230" y1="67" x2="368" y2="67" stroke="url(#purvabhadrapadanakshatra0en-rule)" stroke-width="1"/>
  <line x1="392" y1="67" x2="530" y2="67" stroke="url(#purvabhadrapadanakshatra0en-rule)" stroke-width="1"/>
  <path d="M 380 62.0 L 380.8 66.2 L 385.0 67 L 380.8 67.8 L 380 72.0 L 379.2 67.8 L 375.0 67 L 379.2 66.2 Z" fill="#d4af6a" opacity="0.85"/>

  <rect x="46" y="99" width="668" height="143.0" rx="14" fill="#1d1740" fill-opacity="0.5" stroke="#d4af6a" stroke-opacity="0.22" stroke-width="0.9"/>
  <rect x="46" y="99" width="668" height="3.5" rx="1.8" fill="#d4af6a" fill-opacity="0.6"/>
  <path d="M 380 97.1 L 380.5 100.0 L 383.4 100.5 L 380.5 101.0 L 380 103.9 L 379.5 101.0 L 376.6 100.5 L 379.5 100.0 Z" fill="#f6e6bf" opacity="0.7"/>
  <text x="380" y="128.0" text-anchor="middle" font-family="Georgia, 'Times New Roman', serif" font-size="21" font-weight="700" letter-spacing="0.3" fill="#f3effb">Shatabhisha (24th)</text>
  <path d="M 70 157.8 L 70.5 160.5 L 73.2 161 L 70.5 161.5 L 70 164.2 L 69.5 161.5 L 66.8 161 L 69.5 160.5 Z" fill="#d4af6a" opacity="0.8"/>
  <text x="84" y="166.0" font-family="Helvetica, Arial, sans-serif" font-size="16" fill="#a59cc0">Fully in Aquarius</text>
  <path d="M 70 186.8 L 70.5 189.5 L 73.2 190 L 70.5 190.5 L 70 193.2 L 69.5 190.5 L 66.8 190 L 69.5 189.5 Z" fill="#d4af6a" opacity="0.8"/>
  <text x="84" y="195.0" font-family="Helvetica, Arial, sans-serif" font-size="16" fill="#a59cc0">Detached, healing-oriented</text>
  <path d="M 70 215.8 L 70.5 218.5 L 73.2 219 L 70.5 219.5 L 70 222.2 L 69.5 219.5 L 66.8 219 L 69.5 218.5 Z" fill="#d4af6a" opacity="0.8"/>
  <text x="84" y="224.0" font-family="Helvetica, Arial, sans-serif" font-size="16" fill="#a59cc0">Cool withdrawal</text>
  <path d="M 380 250.5 L 380.7 254.3 L 384.5 255 L 380.7 255.7 L 380 259.5 L 379.3 255.7 L 375.5 255 L 379.3 254.3 Z" fill="#d4af6a" opacity="0.65"/>
  <rect x="46" y="268" width="668" height="143.0" rx="14" fill="#1d1740" fill-opacity="0.5" stroke="#d4af6a" stroke-opacity="0.22" stroke-width="0.9"/>
  <rect x="46" y="268" width="668" height="3.5" rx="1.8" fill="#d4af6a" fill-opacity="0.6"/>
  <path d="M 380 266.1 L 380.5 269.0 L 383.4 269.5 L 380.5 270.0 L 380 272.9 L 379.5 270.0 L 376.6 269.5 L 379.5 269.0 Z" fill="#f6e6bf" opacity="0.7"/>
  <text x="380" y="297.0" text-anchor="middle" font-family="Georgia, 'Times New Roman', serif" font-size="21" font-weight="700" letter-spacing="0.3" fill="#f3effb">Purva Bhadrapada (25th)</text>
  <path d="M 70 326.8 L 70.5 329.5 L 73.2 330 L 70.5 330.5 L 70 333.2 L 69.5 330.5 L 66.8 330 L 69.5 329.5 Z" fill="#d4af6a" opacity="0.8"/>
  <text x="84" y="335.0" font-family="Helvetica, Arial, sans-serif" font-size="16" fill="#a59cc0">Aquarius-Pisces crossing</text>
  <path d="M 70 355.8 L 70.5 358.5 L 73.2 359 L 70.5 359.5 L 70 362.2 L 69.5 359.5 L 66.8 359 L 69.5 358.5 Z" fill="#d4af6a" opacity="0.8"/>
  <text x="84" y="364.0" font-family="Helvetica, Arial, sans-serif" font-size="16" fill="#a59cc0">Volatile spiritual fire</text>
  <path d="M 70 384.8 L 70.5 387.5 L 73.2 388 L 70.5 388.5 L 70 391.2 L 69.5 388.5 L 66.8 388 L 69.5 387.5 Z" fill="#d4af6a" opacity="0.8"/>
  <text x="84" y="393.0" font-family="Helvetica, Arial, sans-serif" font-size="16" fill="#a59cc0">Jupiter + Aja Ekapada</text>
  <path d="M 380 419.5 L 380.7 423.3 L 384.5 424 L 380.7 424.7 L 380 428.5 L 379.3 424.7 L 375.5 424 L 379.3 423.3 Z" fill="#d4af6a" opacity="0.65"/>
  <rect x="46" y="437" width="668" height="143.0" rx="14" fill="#1d1740" fill-opacity="0.5" stroke="#d4af6a" stroke-opacity="0.22" stroke-width="0.9"/>
  <rect x="46" y="437" width="668" height="3.5" rx="1.8" fill="#d4af6a" fill-opacity="0.6"/>
  <path d="M 380 435.1 L 380.5 438.0 L 383.4 438.5 L 380.5 439.0 L 380 441.9 L 379.5 439.0 L 376.6 438.5 L 379.5 438.0 Z" fill="#f6e6bf" opacity="0.7"/>
  <text x="380" y="466.0" text-anchor="middle" font-family="Georgia, 'Times New Roman', serif" font-size="21" font-weight="700" letter-spacing="0.3" fill="#f3effb">Uttara Bhadrapada (26th)</text>
  <path d="M 70 495.8 L 70.5 498.5 L 73.2 499 L 70.5 499.5 L 70 502.2 L 69.5 499.5 L 66.8 499 L 69.5 498.5 Z" fill="#d4af6a" opacity="0.8"/>
  <text x="84" y="504.0" font-family="Helvetica, Arial, sans-serif" font-size="16" fill="#a59cc0">Primarily in Pisces</text>
  <path d="M 70 524.8 L 70.5 527.5 L 73.2 528 L 70.5 528.5 L 70 531.2 L 69.5 528.5 L 66.8 528 L 69.5 527.5 Z" fill="#d4af6a" opacity="0.8"/>
  <text x="84" y="533.0" font-family="Helvetica, Arial, sans-serif" font-size="16" fill="#a59cc0">Calmer, grounded depth</text>
  <path d="M 70 553.8 L 70.5 556.5 L 73.2 557 L 70.5 557.5 L 70 560.2 L 69.5 557.5 L 66.8 557 L 69.5 556.5 Z" fill="#d4af6a" opacity="0.8"/>
  <text x="84" y="562.0" font-family="Helvetica, Arial, sans-serif" font-size="16" fill="#a59cc0">Fire cooled into steady wisdom</text>
  <path d="M 202.22749999999988 585.4 L 202.6 587.6 L 204.8 588 L 202.6 588.4 L 202.22749999999988 590.6 L 201.8 588.4 L 199.6 588 L 201.8 587.6 Z" fill="#d4af6a" opacity="0.5"/>
  <text x="380" y="592" text-anchor="middle" font-family="Georgia, 'Times New Roman', serif" font-style="italic" font-size="11.5" fill="#7b738f">A self-reflection framework — tendencies, not predictions</text>
  <path d="M 557.7725000000002 585.4 L 558.2 587.6 L 560.4 588 L 558.2 588.4 L 557.7725000000002 590.6 L 557.4 588.4 L 555.2 588 L 557.4 587.6 Z" fill="#d4af6a" opacity="0.5"/>
</svg>
