<svg xmlns="http://www.w3.org/2000/svg" viewBox="0 0 760 503" role="img" aria-label="Rahu vs Ketu: Key Properties">
  <defs>
    <linearGradient id="rahuandketuastrology1en-panel" x1="0" y1="0" x2="0.4" y2="1">
      <stop offset="0" stop-color="#1a1433"/><stop offset="0.55" stop-color="#120e26"/><stop offset="1" stop-color="#09081a"/>
    </linearGradient>
    <radialGradient id="rahuandketuastrology1en-foil" cx="0.42" cy="0.34" r="0.75">
      <stop offset="0" stop-color="#fbf0d2"/><stop offset="0.5" stop-color="#e8c882"/><stop offset="1" stop-color="#b8923f"/>
    </radialGradient>
    <radialGradient id="rahuandketuastrology1en-glow" cx="0.5" cy="0.5" r="0.5">
      <stop offset="0" stop-color="#f6e6bf"/><stop offset="1" stop-color="#f6e6bf" stop-opacity="0"/>
    </radialGradient>
    <radialGradient id="rahuandketuastrology1en-neb1" cx="0.5" cy="0.5" r="0.5">
      <stop offset="0" stop-color="#6f4bb0" stop-opacity="0.28"/><stop offset="1" stop-color="#6f4bb0" stop-opacity="0"/>
    </radialGradient>
    <radialGradient id="rahuandketuastrology1en-neb2" cx="0.5" cy="0.5" r="0.5">
      <stop offset="0" stop-color="#d4af6a" stop-opacity="0.16"/><stop offset="1" stop-color="#d4af6a" stop-opacity="0"/>
    </radialGradient>
    <linearGradient id="rahuandketuastrology1en-rule" x1="0" y1="0" x2="1" y2="0">
      <stop offset="0" stop-color="#d4af6a" stop-opacity="0"/><stop offset="0.5" stop-color="#d4af6a" stop-opacity="0.6"/><stop offset="1" stop-color="#d4af6a" stop-opacity="0"/>
    </linearGradient>
  </defs>
  <rect x="1.5" y="1.5" width="757" height="500" rx="22" fill="url(#rahuandketuastrology1en-panel)"/>
  <ellipse cx="198" cy="121" rx="380" ry="171" fill="url(#rahuandketuastrology1en-neb1)"/>
  <ellipse cx="623" cy="402" rx="334" ry="161" fill="url(#rahuandketuastrology1en-neb2)"/>
  <circle cx="589.9" cy="140.1" r="0.49" fill="#cfc8ea" opacity="0.28"/><circle cx="332.5" cy="223.0" r="1.31" fill="#cfc8ea" opacity="0.27"/><circle cx="702.8" cy="19.6" r="1.09" fill="#cfc8ea" opacity="0.38"/><circle cx="685.9" cy="277.0" r="1.37" fill="#cfc8ea" opacity="0.44"/><circle cx="382.0" cy="28.0" r="1.51" fill="#cfc8ea" opacity="0.42"/><circle cx="407.6" cy="372.2" r="1.54" fill="#cfc8ea" opacity="0.47"/><circle cx="343.6" cy="351.0" r="0.69" fill="#cfc8ea" opacity="0.26"/><circle cx="262.4" cy="81.1" r="0.82" fill="#cfc8ea" opacity="0.42"/><circle cx="312.2" cy="308.4" r="1.20" fill="#cfc8ea" opacity="0.23"/><circle cx="229.5" cy="383.1" r="1.49" fill="#cfc8ea" opacity="0.41"/><circle cx="316.8" cy="417.1" r="1.21" fill="#cfc8ea" opacity="0.53"/><circle cx="101.1" cy="129.2" r="1.67" fill="#cfc8ea" opacity="0.23"/><circle cx="650.7" cy="131.3" r="1.11" fill="#cfc8ea" opacity="0.15"/><circle cx="719.1" cy="64.5" r="1.46" fill="#cfc8ea" opacity="0.38"/><circle cx="655.0" cy="375.6" r="1.22" fill="#cfc8ea" opacity="0.35"/><circle cx="409.0" cy="185.3" r="1.63" fill="#cfc8ea" opacity="0.16"/><circle cx="393.7" cy="97.5" r="1.70" fill="#cfc8ea" opacity="0.24"/><circle cx="617.0" cy="177.1" r="0.80" fill="#cfc8ea" opacity="0.32"/><circle cx="222.3" cy="230.5" r="0.53" fill="#cfc8ea" opacity="0.39"/><circle cx="188.0" cy="168.1" r="1.12" fill="#cfc8ea" opacity="0.42"/><circle cx="348.1" cy="72.3" r="1.35" fill="#cfc8ea" opacity="0.25"/><circle cx="364.3" cy="343.3" r="1.23" fill="#cfc8ea" opacity="0.32"/><circle cx="739.9" cy="226.9" r="1.60" fill="#cfc8ea" opacity="0.24"/><circle cx="394.3" cy="460.8" r="1.18" fill="#cfc8ea" opacity="0.13"/><circle cx="430.7" cy="36.3" r="0.53" fill="#cfc8ea" opacity="0.28"/><circle cx="219.1" cy="164.4" r="1.65" fill="#cfc8ea" opacity="0.22"/><circle cx="295.6" cy="169.1" r="0.84" fill="#cfc8ea" opacity="0.35"/><circle cx="626.8" cy="402.6" r="1.55" fill="#cfc8ea" opacity="0.20"/><circle cx="166.1" cy="448.9" r="1.09" fill="#cfc8ea" opacity="0.20"/><circle cx="625.3" cy="470.1" r="0.93" fill="#cfc8ea" opacity="0.12"/><circle cx="499.2" cy="426.0" r="1.17" fill="#cfc8ea" opacity="0.17"/><circle cx="396.1" cy="328.2" r="1.09" fill="#cfc8ea" opacity="0.40"/><circle cx="507.3" cy="154.5" r="1.37" fill="#cfc8ea" opacity="0.39"/><circle cx="521.2" cy="304.8" r="1.69" fill="#cfc8ea" opacity="0.27"/><circle cx="107.9" cy="319.1" r="0.41" fill="#cfc8ea" opacity="0.30"/><circle cx="17.4" cy="187.9" r="1.68" fill="#cfc8ea" opacity="0.17"/><circle cx="137.6" cy="43.7" r="1.39" fill="#cfc8ea" opacity="0.14"/><circle cx="497.9" cy="228.5" r="0.96" fill="#cfc8ea" opacity="0.26"/><circle cx="389.1" cy="246.6" r="0.41" fill="#cfc8ea" opacity="0.21"/><circle cx="35.6" cy="352.8" r="1.55" fill="#cfc8ea" opacity="0.16"/><circle cx="202.0" cy="201.0" r="1.14" fill="#cfc8ea" opacity="0.21"/><circle cx="240.8" cy="112.8" r="0.50" fill="#cfc8ea" opacity="0.37"/><path d="M 562.9251340199262 126.9 L 563.5 129.9 L 566.5 130.50680067250505 L 563.5 131.1 L 562.9251340199262 134.1 L 562.4 131.1 L 559.4 130.50680067250505 L 562.4 129.9 Z" fill="#f6e6bf" opacity="0.7689268689602613"/><path d="M 422.16690264083445 313.1 L 422.7 315.9 L 425.4 316.40517392521724 L 422.7 316.9 L 422.16690264083445 319.7 L 421.6 316.9 L 418.9 316.40517392521724 L 421.6 315.9 Z" fill="#f6e6bf" opacity="0.5182146447710693"/><path d="M 507.176639797166 443.5 L 507.8 446.8 L 511.1 447.38260223390535 L 507.8 448.0 L 507.176639797166 451.3 L 506.6 448.0 L 503.3 447.38260223390535 L 506.6 446.8 Z" fill="#f6e6bf" opacity="0.7600299755111337"/><path d="M 661.0275628808886 65.6 L 661.5 68.3 L 664.2 68.78276478825137 L 661.5 69.3 L 661.0275628808886 71.9 L 660.5 69.3 L 657.9 68.78276478825137 L 660.5 68.3 Z" fill="#f6e6bf" opacity="0.6894501612521708"/><path d="M 502.4948851335794 192.9 L 503.0 195.3 L 505.4 195.73608012730256 L 503.0 196.2 L 502.4948851335794 198.6 L 502.0 196.2 L 499.6 195.73608012730256 L 502.0 195.3 Z" fill="#f6e6bf" opacity="0.5823382534086704"/><path d="M 685.9 277.0 L 229.5 383.1 L 316.8 417.1 L 719.1 64.5 L 188.0 168.1" fill="none" stroke="#d4af6a" stroke-width="0.6" opacity="0.12"/>
  <rect x="1.5" y="1.5" width="757" height="500" rx="22" fill="none" stroke="#d4af6a" stroke-opacity="0.34" stroke-width="1.2"/>
  <rect x="7" y="7" width="746" height="489" rx="17" fill="none" stroke="#d4af6a" stroke-opacity="0.12" stroke-width="0.8"/>
  <path d="M 16 12.8 L 16.5 15.5 L 19.2 16 L 16.5 16.5 L 16 19.2 L 15.5 16.5 L 12.8 16 L 15.5 15.5 Z" fill="#d4af6a" opacity="0.4"/><path d="M 744 12.8 L 744.5 15.5 L 747.2 16 L 744.5 16.5 L 744 19.2 L 743.5 16.5 L 740.8 16 L 743.5 15.5 Z" fill="#d4af6a" opacity="0.4"/><path d="M 16 483.8 L 16.5 486.5 L 19.2 487 L 16.5 487.5 L 16 490.2 L 15.5 487.5 L 12.8 487 L 15.5 486.5 Z" fill="#d4af6a" opacity="0.4"/><path d="M 744 483.8 L 744.5 486.5 L 747.2 487 L 744.5 487.5 L 744 490.2 L 743.5 487.5 L 740.8 487 L 743.5 486.5 Z" fill="#d4af6a" opacity="0.4"/>
  <text x="380" y="46" text-anchor="middle" font-family="Georgia, 'Times New Roman', serif" font-size="22" letter-spacing="0.4" fill="#efeaf8">Rahu vs Ketu: Key Properties</text>
  <line x1="230" y1="67" x2="368" y2="67" stroke="url(#rahuandketuastrology1en-rule)" stroke-width="1"/>
  <line x1="392" y1="67" x2="530" y2="67" stroke="url(#rahuandketuastrology1en-rule)" stroke-width="1"/>
  <path d="M 380 62.0 L 380.8 66.2 L 385.0 67 L 380.8 67.8 L 380 72.0 L 379.2 67.8 L 375.0 67 L 379.2 66.2 Z" fill="#d4af6a" opacity="0.85"/>

  <rect x="46" y="99" width="668" height="172.0" rx="14" fill="#1d1740" fill-opacity="0.5" stroke="#d4af6a" stroke-opacity="0.22" stroke-width="0.9"/>
  <rect x="46" y="99" width="668" height="3.5" rx="1.8" fill="#d4af6a" fill-opacity="0.6"/>
  <path d="M 380 97.1 L 380.5 100.0 L 383.4 100.5 L 380.5 101.0 L 380 103.9 L 379.5 101.0 L 376.6 100.5 L 379.5 100.0 Z" fill="#f6e6bf" opacity="0.7"/>
  <text x="380" y="128.0" text-anchor="middle" font-family="Georgia, 'Times New Roman', serif" font-size="21" font-weight="700" letter-spacing="0.3" fill="#f3effb">Rahu (North Node)</text>
  <path d="M 70 157.8 L 70.5 160.5 L 73.2 161 L 70.5 161.5 L 70 164.2 L 69.5 161.5 L 66.8 161 L 69.5 160.5 Z" fill="#d4af6a" opacity="0.8"/>
  <text x="84" y="166.0" font-family="Helvetica, Arial, sans-serif" font-size="16" fill="#a59cc0">Shadow planet — no physical body</text>
  <path d="M 70 186.8 L 70.5 189.5 L 73.2 190 L 70.5 190.5 L 70 193.2 L 69.5 190.5 L 66.8 190 L 69.5 189.5 Z" fill="#d4af6a" opacity="0.8"/>
  <text x="84" y="195.0" font-family="Helvetica, Arial, sans-serif" font-size="16" fill="#a59cc0">Insatiable worldly desire &amp; ambition</text>
  <path d="M 70 215.8 L 70.5 218.5 L 73.2 219 L 70.5 219.5 L 70 222.2 L 69.5 219.5 L 66.8 219 L 69.5 218.5 Z" fill="#d4af6a" opacity="0.8"/>
  <text x="84" y="224.0" font-family="Helvetica, Arial, sans-serif" font-size="16" fill="#a59cc0">Amplifies the house it occupies</text>
  <path d="M 70 244.8 L 70.5 247.5 L 73.2 248 L 70.5 248.5 L 70 251.2 L 69.5 248.5 L 66.8 248 L 69.5 247.5 Z" fill="#d4af6a" opacity="0.8"/>
  <text x="84" y="253.0" font-family="Helvetica, Arial, sans-serif" font-size="16" fill="#a59cc0">18-year major Dasha period</text>
  <path d="M 380 279.5 L 380.7 283.3 L 384.5 284 L 380.7 284.7 L 380 288.5 L 379.3 284.7 L 375.5 284 L 379.3 283.3 Z" fill="#d4af6a" opacity="0.65"/>
  <rect x="46" y="297" width="668" height="172.0" rx="14" fill="#1d1740" fill-opacity="0.5" stroke="#d4af6a" stroke-opacity="0.22" stroke-width="0.9"/>
  <rect x="46" y="297" width="668" height="3.5" rx="1.8" fill="#d4af6a" fill-opacity="0.6"/>
  <path d="M 380 295.1 L 380.5 298.0 L 383.4 298.5 L 380.5 299.0 L 380 301.9 L 379.5 299.0 L 376.6 298.5 L 379.5 298.0 Z" fill="#f6e6bf" opacity="0.7"/>
  <text x="380" y="326.0" text-anchor="middle" font-family="Georgia, 'Times New Roman', serif" font-size="21" font-weight="700" letter-spacing="0.3" fill="#f3effb">Ketu (South Node)</text>
  <path d="M 70 355.8 L 70.5 358.5 L 73.2 359 L 70.5 359.5 L 70 362.2 L 69.5 359.5 L 66.8 359 L 69.5 358.5 Z" fill="#d4af6a" opacity="0.8"/>
  <text x="84" y="364.0" font-family="Helvetica, Arial, sans-serif" font-size="16" fill="#a59cc0">Shadow planet — no physical body</text>
  <path d="M 70 384.8 L 70.5 387.5 L 73.2 388 L 70.5 388.5 L 70 391.2 L 69.5 388.5 L 66.8 388 L 69.5 387.5 Z" fill="#d4af6a" opacity="0.8"/>
  <text x="84" y="393.0" font-family="Helvetica, Arial, sans-serif" font-size="16" fill="#a59cc0">Past-life mastery, detachment &amp; moksha</text>
  <path d="M 70 413.8 L 70.5 416.5 L 73.2 417 L 70.5 417.5 L 70 420.2 L 69.5 417.5 L 66.8 417 L 69.5 416.5 Z" fill="#d4af6a" opacity="0.8"/>
  <text x="84" y="422.0" font-family="Helvetica, Arial, sans-serif" font-size="16" fill="#a59cc0">Tends toward release in its house</text>
  <path d="M 70 442.8 L 70.5 445.5 L 73.2 446 L 70.5 446.5 L 70 449.2 L 69.5 446.5 L 66.8 446 L 69.5 445.5 Z" fill="#d4af6a" opacity="0.8"/>
  <text x="84" y="451.0" font-family="Helvetica, Arial, sans-serif" font-size="16" fill="#a59cc0">7-year major Dasha period</text>
  <path d="M 202.22749999999988 474.4 L 202.6 476.6 L 204.8 477 L 202.6 477.4 L 202.22749999999988 479.6 L 201.8 477.4 L 199.6 477 L 201.8 476.6 Z" fill="#d4af6a" opacity="0.5"/>
  <text x="380" y="481" text-anchor="middle" font-family="Georgia, 'Times New Roman', serif" font-style="italic" font-size="11.5" fill="#7b738f">A self-reflection framework — tendencies, not predictions</text>
  <path d="M 557.7725000000002 474.4 L 558.2 476.6 L 560.4 477 L 558.2 477.4 L 557.7725000000002 479.6 L 557.4 477.4 L 555.2 477 L 557.4 476.6 Z" fill="#d4af6a" opacity="0.5"/>
</svg>
