<svg xmlns="http://www.w3.org/2000/svg" viewBox="0 0 760 614" role="img" aria-label="Revati Nakshatra: Four Core Properties">
  <defs>
    <linearGradient id="revatinakshatra1en-panel" x1="0" y1="0" x2="0.4" y2="1">
      <stop offset="0" stop-color="#1a1433"/><stop offset="0.55" stop-color="#120e26"/><stop offset="1" stop-color="#09081a"/>
    </linearGradient>
    <radialGradient id="revatinakshatra1en-foil" cx="0.42" cy="0.34" r="0.75">
      <stop offset="0" stop-color="#fbf0d2"/><stop offset="0.5" stop-color="#e8c882"/><stop offset="1" stop-color="#b8923f"/>
    </radialGradient>
    <radialGradient id="revatinakshatra1en-glow" cx="0.5" cy="0.5" r="0.5">
      <stop offset="0" stop-color="#f6e6bf"/><stop offset="1" stop-color="#f6e6bf" stop-opacity="0"/>
    </radialGradient>
    <radialGradient id="revatinakshatra1en-neb1" cx="0.5" cy="0.5" r="0.5">
      <stop offset="0" stop-color="#6f4bb0" stop-opacity="0.28"/><stop offset="1" stop-color="#6f4bb0" stop-opacity="0"/>
    </radialGradient>
    <radialGradient id="revatinakshatra1en-neb2" cx="0.5" cy="0.5" r="0.5">
      <stop offset="0" stop-color="#d4af6a" stop-opacity="0.16"/><stop offset="1" stop-color="#d4af6a" stop-opacity="0"/>
    </radialGradient>
    <linearGradient id="revatinakshatra1en-rule" x1="0" y1="0" x2="1" y2="0">
      <stop offset="0" stop-color="#d4af6a" stop-opacity="0"/><stop offset="0.5" stop-color="#d4af6a" stop-opacity="0.6"/><stop offset="1" stop-color="#d4af6a" stop-opacity="0"/>
    </linearGradient>
  </defs>
  <rect x="1.5" y="1.5" width="757" height="611" rx="22" fill="url(#revatinakshatra1en-panel)"/>
  <ellipse cx="198" cy="147" rx="380" ry="209" fill="url(#revatinakshatra1en-neb1)"/>
  <ellipse cx="623" cy="491" rx="334" ry="196" fill="url(#revatinakshatra1en-neb2)"/>
  <circle cx="538.5" cy="444.2" r="1.27" fill="#cfc8ea" opacity="0.45"/><circle cx="375.1" cy="420.8" r="0.42" fill="#cfc8ea" opacity="0.48"/><circle cx="201.4" cy="443.3" r="1.59" fill="#cfc8ea" opacity="0.37"/><circle cx="466.6" cy="386.1" r="1.14" fill="#cfc8ea" opacity="0.23"/><circle cx="315.9" cy="581.7" r="0.90" fill="#cfc8ea" opacity="0.49"/><circle cx="362.9" cy="396.0" r="1.26" fill="#cfc8ea" opacity="0.22"/><circle cx="502.0" cy="62.0" r="1.58" fill="#cfc8ea" opacity="0.49"/><circle cx="94.3" cy="349.6" r="1.11" fill="#cfc8ea" opacity="0.39"/><circle cx="264.6" cy="457.0" r="0.65" fill="#cfc8ea" opacity="0.17"/><circle cx="17.6" cy="521.6" r="1.53" fill="#cfc8ea" opacity="0.50"/><circle cx="262.6" cy="463.5" r="1.54" fill="#cfc8ea" opacity="0.47"/><circle cx="327.4" cy="400.7" r="0.68" fill="#cfc8ea" opacity="0.14"/><circle cx="415.7" cy="175.1" r="1.53" fill="#cfc8ea" opacity="0.51"/><circle cx="485.6" cy="433.8" r="0.97" fill="#cfc8ea" opacity="0.14"/><circle cx="97.3" cy="27.2" r="0.69" fill="#cfc8ea" opacity="0.48"/><circle cx="91.5" cy="374.9" r="1.21" fill="#cfc8ea" opacity="0.31"/><circle cx="97.3" cy="399.5" r="0.77" fill="#cfc8ea" opacity="0.24"/><circle cx="141.6" cy="365.6" r="1.59" fill="#cfc8ea" opacity="0.38"/><circle cx="120.1" cy="130.3" r="0.76" fill="#cfc8ea" opacity="0.25"/><circle cx="487.7" cy="260.1" r="1.62" fill="#cfc8ea" opacity="0.40"/><circle cx="320.1" cy="352.1" r="0.83" fill="#cfc8ea" opacity="0.53"/><circle cx="539.9" cy="386.6" r="1.07" fill="#cfc8ea" opacity="0.25"/><circle cx="35.5" cy="319.1" r="1.32" fill="#cfc8ea" opacity="0.31"/><circle cx="415.1" cy="202.8" r="0.43" fill="#cfc8ea" opacity="0.28"/><circle cx="23.2" cy="557.2" r="0.49" fill="#cfc8ea" opacity="0.22"/><circle cx="679.7" cy="284.5" r="1.38" fill="#cfc8ea" opacity="0.15"/><circle cx="224.3" cy="19.6" r="1.18" fill="#cfc8ea" opacity="0.18"/><circle cx="130.3" cy="349.3" r="1.57" fill="#cfc8ea" opacity="0.49"/><circle cx="496.4" cy="238.4" r="0.95" fill="#cfc8ea" opacity="0.32"/><circle cx="295.4" cy="575.9" r="0.97" fill="#cfc8ea" opacity="0.37"/><circle cx="202.6" cy="306.1" r="0.70" fill="#cfc8ea" opacity="0.32"/><circle cx="430.7" cy="199.1" r="1.69" fill="#cfc8ea" opacity="0.52"/><circle cx="97.9" cy="69.0" r="0.89" fill="#cfc8ea" opacity="0.37"/><circle cx="684.2" cy="563.6" r="0.47" fill="#cfc8ea" opacity="0.27"/><circle cx="582.9" cy="574.4" r="0.57" fill="#cfc8ea" opacity="0.51"/><circle cx="46.2" cy="244.2" r="0.69" fill="#cfc8ea" opacity="0.42"/><circle cx="575.7" cy="477.8" r="1.38" fill="#cfc8ea" opacity="0.13"/><circle cx="597.5" cy="122.7" r="1.56" fill="#cfc8ea" opacity="0.13"/><circle cx="131.6" cy="454.8" r="0.49" fill="#cfc8ea" opacity="0.53"/><circle cx="636.1" cy="559.2" r="0.91" fill="#cfc8ea" opacity="0.48"/><circle cx="119.2" cy="17.1" r="1.47" fill="#cfc8ea" opacity="0.47"/><circle cx="364.3" cy="248.6" r="0.75" fill="#cfc8ea" opacity="0.13"/><circle cx="307.8" cy="335.5" r="1.61" fill="#cfc8ea" opacity="0.20"/><circle cx="267.3" cy="588.5" r="1.00" fill="#cfc8ea" opacity="0.52"/><circle cx="705.5" cy="219.4" r="0.98" fill="#cfc8ea" opacity="0.21"/><circle cx="366.6" cy="492.9" r="1.47" fill="#cfc8ea" opacity="0.46"/><circle cx="412.9" cy="505.9" r="1.32" fill="#cfc8ea" opacity="0.40"/><circle cx="592.1" cy="401.5" r="1.29" fill="#cfc8ea" opacity="0.19"/><circle cx="82.9" cy="505.4" r="0.96" fill="#cfc8ea" opacity="0.28"/><circle cx="40.5" cy="415.5" r="1.27" fill="#cfc8ea" opacity="0.34"/><circle cx="520.9" cy="257.2" r="1.68" fill="#cfc8ea" opacity="0.30"/><circle cx="137.1" cy="288.0" r="1.28" fill="#cfc8ea" opacity="0.34"/><path d="M 736.5038611646742 479.1 L 737.0 481.5 L 739.4 481.96496086008847 L 737.0 482.4 L 736.5038611646742 484.9 L 736.0 482.4 L 733.6 481.96496086008847 L 736.0 481.5 Z" fill="#f6e6bf" opacity="0.7006014090497047"/><path d="M 334.42441302351654 68.1 L 335.0 71.3 L 338.2 71.91213669255376 L 335.0 72.5 L 334.42441302351654 75.7 L 333.8 72.5 L 330.6 71.91213669255376 L 333.8 71.3 Z" fill="#f6e6bf" opacity="0.7654324497561902"/><path d="M 62.71530940197408 465.6 L 63.1 467.8 L 65.3 468.1820409502834 L 63.1 468.6 L 62.71530940197408 470.8 L 62.3 468.6 L 60.1 468.1820409502834 L 62.3 467.8 Z" fill="#f6e6bf" opacity="0.5924266392830759"/><path d="M 556.1106105875224 172.6 L 556.7 175.9 L 560.1 176.5551764294505 L 556.7 177.2 L 556.1106105875224 180.5 L 555.5 177.2 L 552.1 176.5551764294505 L 555.5 175.9 Z" fill="#f6e6bf" opacity="0.5066983947064727"/><path d="M 540.8132184203714 467.0 L 541.3 469.4 L 543.6 469.79905306734145 L 541.3 470.2 L 540.8132184203714 472.6 L 540.4 470.2 L 538.1 469.79905306734145 L 540.4 469.4 Z" fill="#f6e6bf" opacity="0.6269439049530774"/><path d="M 201.4 443.3 L 466.6 386.1 L 120.1 130.3 L 97.9 69.0 L 582.9 574.4" fill="none" stroke="#d4af6a" stroke-width="0.6" opacity="0.12"/>
  <rect x="1.5" y="1.5" width="757" height="611" rx="22" fill="none" stroke="#d4af6a" stroke-opacity="0.34" stroke-width="1.2"/>
  <rect x="7" y="7" width="746" height="600" rx="17" fill="none" stroke="#d4af6a" stroke-opacity="0.12" stroke-width="0.8"/>
  <path d="M 16 12.8 L 16.5 15.5 L 19.2 16 L 16.5 16.5 L 16 19.2 L 15.5 16.5 L 12.8 16 L 15.5 15.5 Z" fill="#d4af6a" opacity="0.4"/><path d="M 744 12.8 L 744.5 15.5 L 747.2 16 L 744.5 16.5 L 744 19.2 L 743.5 16.5 L 740.8 16 L 743.5 15.5 Z" fill="#d4af6a" opacity="0.4"/><path d="M 16 594.8 L 16.5 597.5 L 19.2 598 L 16.5 598.5 L 16 601.2 L 15.5 598.5 L 12.8 598 L 15.5 597.5 Z" fill="#d4af6a" opacity="0.4"/><path d="M 744 594.8 L 744.5 597.5 L 747.2 598 L 744.5 598.5 L 744 601.2 L 743.5 598.5 L 740.8 598 L 743.5 597.5 Z" fill="#d4af6a" opacity="0.4"/>
  <text x="380" y="46" text-anchor="middle" font-family="Georgia, 'Times New Roman', serif" font-size="22" letter-spacing="0.4" fill="#efeaf8">Revati Nakshatra: Four Core Properties</text>
  <line x1="230" y1="67" x2="368" y2="67" stroke="url(#revatinakshatra1en-rule)" stroke-width="1"/>
  <line x1="392" y1="67" x2="530" y2="67" stroke="url(#revatinakshatra1en-rule)" stroke-width="1"/>
  <path d="M 380 62.0 L 380.8 66.2 L 385.0 67 L 380.8 67.8 L 380 72.0 L 379.2 67.8 L 375.0 67 L 379.2 66.2 Z" fill="#d4af6a" opacity="0.85"/>

  <rect x="46" y="99" width="668" height="143.0" rx="14" fill="#1d1740" fill-opacity="0.5" stroke="#d4af6a" stroke-opacity="0.22" stroke-width="0.9"/>
  <rect x="46" y="99" width="668" height="3.5" rx="1.8" fill="#d4af6a" fill-opacity="0.6"/>
  <path d="M 380 97.1 L 380.5 100.0 L 383.4 100.5 L 380.5 101.0 L 380 103.9 L 379.5 101.0 L 376.6 100.5 L 379.5 100.0 Z" fill="#f6e6bf" opacity="0.7"/>
  <text x="380" y="128.0" text-anchor="middle" font-family="Georgia, 'Times New Roman', serif" font-size="21" font-weight="700" letter-spacing="0.3" fill="#f3effb">Cycle Position</text>
  <path d="M 70 157.8 L 70.5 160.5 L 73.2 161 L 70.5 161.5 L 70 164.2 L 69.5 161.5 L 66.8 161 L 69.5 160.5 Z" fill="#d4af6a" opacity="0.8"/>
  <text x="84" y="166.0" font-family="Helvetica, Arial, sans-serif" font-size="16" fill="#a59cc0">27th and final lunar mansion</text>
  <path d="M 70 186.8 L 70.5 189.5 L 73.2 190 L 70.5 190.5 L 70 193.2 L 69.5 190.5 L 66.8 190 L 69.5 189.5 Z" fill="#d4af6a" opacity="0.8"/>
  <text x="84" y="195.0" font-family="Helvetica, Arial, sans-serif" font-size="16" fill="#a59cc0">16°40'–30° Pisces</text>
  <path d="M 70 215.8 L 70.5 218.5 L 73.2 219 L 70.5 219.5 L 70 222.2 L 69.5 219.5 L 66.8 219 L 69.5 218.5 Z" fill="#d4af6a" opacity="0.8"/>
  <text x="84" y="224.0" font-family="Helvetica, Arial, sans-serif" font-size="16" fill="#a59cc0">Completion touching a fresh beginning</text>
  <path d="M 380 250.5 L 380.7 254.3 L 384.5 255 L 380.7 255.7 L 380 259.5 L 379.3 255.7 L 375.5 255 L 379.3 254.3 Z" fill="#d4af6a" opacity="0.65"/>
  <rect x="46" y="268" width="668" height="143.0" rx="14" fill="#1d1740" fill-opacity="0.5" stroke="#d4af6a" stroke-opacity="0.22" stroke-width="0.9"/>
  <rect x="46" y="268" width="668" height="3.5" rx="1.8" fill="#d4af6a" fill-opacity="0.6"/>
  <path d="M 380 266.1 L 380.5 269.0 L 383.4 269.5 L 380.5 270.0 L 380 272.9 L 379.5 270.0 L 376.6 269.5 L 379.5 269.0 Z" fill="#f6e6bf" opacity="0.7"/>
  <text x="380" y="297.0" text-anchor="middle" font-family="Georgia, 'Times New Roman', serif" font-size="21" font-weight="700" letter-spacing="0.3" fill="#f3effb">Ruling Planet &amp; Deity</text>
  <path d="M 70 326.8 L 70.5 329.5 L 73.2 330 L 70.5 330.5 L 70 333.2 L 69.5 330.5 L 66.8 330 L 69.5 329.5 Z" fill="#d4af6a" opacity="0.8"/>
  <text x="84" y="335.0" font-family="Helvetica, Arial, sans-serif" font-size="16" fill="#a59cc0">Mercury: communication and bridging</text>
  <path d="M 70 355.8 L 70.5 358.5 L 73.2 359 L 70.5 359.5 L 70 362.2 L 69.5 359.5 L 66.8 359 L 69.5 358.5 Z" fill="#d4af6a" opacity="0.8"/>
  <text x="84" y="364.0" font-family="Helvetica, Arial, sans-serif" font-size="16" fill="#a59cc0">Pushan: divine shepherd and escort</text>
  <path d="M 70 384.8 L 70.5 387.5 L 73.2 388 L 70.5 388.5 L 70 391.2 L 69.5 388.5 L 66.8 388 L 69.5 387.5 Z" fill="#d4af6a" opacity="0.8"/>
  <text x="84" y="393.0" font-family="Helvetica, Arial, sans-serif" font-size="16" fill="#a59cc0">Clarity paired with oceanic compassion</text>
  <path d="M 380 419.5 L 380.7 423.3 L 384.5 424 L 380.7 424.7 L 380 428.5 L 379.3 424.7 L 375.5 424 L 379.3 423.3 Z" fill="#d4af6a" opacity="0.65"/>
  <rect x="46" y="437" width="668" height="143.0" rx="14" fill="#1d1740" fill-opacity="0.5" stroke="#d4af6a" stroke-opacity="0.22" stroke-width="0.9"/>
  <rect x="46" y="437" width="668" height="3.5" rx="1.8" fill="#d4af6a" fill-opacity="0.6"/>
  <path d="M 380 435.1 L 380.5 438.0 L 383.4 438.5 L 380.5 439.0 L 380 441.9 L 379.5 439.0 L 376.6 438.5 L 379.5 438.0 Z" fill="#f6e6bf" opacity="0.7"/>
  <text x="380" y="466.0" text-anchor="middle" font-family="Georgia, 'Times New Roman', serif" font-size="21" font-weight="700" letter-spacing="0.3" fill="#f3effb">Symbolic Key</text>
  <path d="M 70 495.8 L 70.5 498.5 L 73.2 499 L 70.5 499.5 L 70 502.2 L 69.5 499.5 L 66.8 499 L 69.5 498.5 Z" fill="#d4af6a" opacity="0.8"/>
  <text x="84" y="504.0" font-family="Helvetica, Arial, sans-serif" font-size="16" fill="#a59cc0">Threshold between end and start</text>
  <path d="M 70 524.8 L 70.5 527.5 L 73.2 528 L 70.5 528.5 L 70 531.2 L 69.5 528.5 L 66.8 528 L 69.5 527.5 Z" fill="#d4af6a" opacity="0.8"/>
  <text x="84" y="533.0" font-family="Helvetica, Arial, sans-serif" font-size="16" fill="#a59cc0">Rebirth encoded inside completion</text>
  <path d="M 70 553.8 L 70.5 556.5 L 73.2 557 L 70.5 557.5 L 70 560.2 L 69.5 557.5 L 66.8 557 L 69.5 556.5 Z" fill="#d4af6a" opacity="0.8"/>
  <text x="84" y="562.0" font-family="Helvetica, Arial, sans-serif" font-size="16" fill="#a59cc0">Guided crossing, not heavy finality</text>
  <path d="M 202.22749999999988 585.4 L 202.6 587.6 L 204.8 588 L 202.6 588.4 L 202.22749999999988 590.6 L 201.8 588.4 L 199.6 588 L 201.8 587.6 Z" fill="#d4af6a" opacity="0.5"/>
  <text x="380" y="592" text-anchor="middle" font-family="Georgia, 'Times New Roman', serif" font-style="italic" font-size="11.5" fill="#7b738f">A self-reflection framework — tendencies, not predictions</text>
  <path d="M 557.7725000000002 585.4 L 558.2 587.6 L 560.4 588 L 558.2 588.4 L 557.7725000000002 590.6 L 557.4 588.4 L 555.2 588 L 557.4 587.6 Z" fill="#d4af6a" opacity="0.5"/>
</svg>
