<svg xmlns="http://www.w3.org/2000/svg" viewBox="0 0 760 459" role="img" aria-label="Scotland's Group C Window">
  <defs>
    <linearGradient id="scotlandbrazilworldcupastrology1en-panel" x1="0" y1="0" x2="0.4" y2="1">
      <stop offset="0" stop-color="#1a1433"/><stop offset="0.55" stop-color="#120e26"/><stop offset="1" stop-color="#09081a"/>
    </linearGradient>
    <radialGradient id="scotlandbrazilworldcupastrology1en-foil" cx="0.42" cy="0.34" r="0.75">
      <stop offset="0" stop-color="#fbf0d2"/><stop offset="0.5" stop-color="#e8c882"/><stop offset="1" stop-color="#b8923f"/>
    </radialGradient>
    <radialGradient id="scotlandbrazilworldcupastrology1en-glow" cx="0.5" cy="0.5" r="0.5">
      <stop offset="0" stop-color="#f6e6bf"/><stop offset="1" stop-color="#f6e6bf" stop-opacity="0"/>
    </radialGradient>
    <radialGradient id="scotlandbrazilworldcupastrology1en-neb1" cx="0.5" cy="0.5" r="0.5">
      <stop offset="0" stop-color="#6f4bb0" stop-opacity="0.28"/><stop offset="1" stop-color="#6f4bb0" stop-opacity="0"/>
    </radialGradient>
    <radialGradient id="scotlandbrazilworldcupastrology1en-neb2" cx="0.5" cy="0.5" r="0.5">
      <stop offset="0" stop-color="#d4af6a" stop-opacity="0.16"/><stop offset="1" stop-color="#d4af6a" stop-opacity="0"/>
    </radialGradient>
    <linearGradient id="scotlandbrazilworldcupastrology1en-rule" x1="0" y1="0" x2="1" y2="0">
      <stop offset="0" stop-color="#d4af6a" stop-opacity="0"/><stop offset="0.5" stop-color="#d4af6a" stop-opacity="0.6"/><stop offset="1" stop-color="#d4af6a" stop-opacity="0"/>
    </linearGradient>
  </defs>
  <rect x="1.5" y="1.5" width="757" height="456" rx="22" fill="url(#scotlandbrazilworldcupastrology1en-panel)"/>
  <ellipse cx="198" cy="110" rx="380" ry="156" fill="url(#scotlandbrazilworldcupastrology1en-neb1)"/>
  <ellipse cx="623" cy="367" rx="334" ry="147" fill="url(#scotlandbrazilworldcupastrology1en-neb2)"/>
  <circle cx="31.8" cy="108.3" r="0.68" fill="#cfc8ea" opacity="0.35"/><circle cx="707.7" cy="213.8" r="0.68" fill="#cfc8ea" opacity="0.22"/><circle cx="242.3" cy="32.5" r="0.95" fill="#cfc8ea" opacity="0.19"/><circle cx="236.4" cy="337.9" r="1.47" fill="#cfc8ea" opacity="0.38"/><circle cx="97.7" cy="154.9" r="0.98" fill="#cfc8ea" opacity="0.46"/><circle cx="124.0" cy="77.2" r="1.58" fill="#cfc8ea" opacity="0.36"/><circle cx="122.0" cy="106.3" r="1.11" fill="#cfc8ea" opacity="0.36"/><circle cx="76.8" cy="445.6" r="0.60" fill="#cfc8ea" opacity="0.42"/><circle cx="516.8" cy="257.1" r="0.88" fill="#cfc8ea" opacity="0.39"/><circle cx="504.2" cy="155.4" r="0.49" fill="#cfc8ea" opacity="0.52"/><circle cx="526.2" cy="143.2" r="0.44" fill="#cfc8ea" opacity="0.50"/><circle cx="646.9" cy="394.4" r="1.41" fill="#cfc8ea" opacity="0.19"/><circle cx="66.7" cy="343.0" r="1.27" fill="#cfc8ea" opacity="0.43"/><circle cx="547.2" cy="128.3" r="0.89" fill="#cfc8ea" opacity="0.29"/><circle cx="273.6" cy="19.4" r="1.10" fill="#cfc8ea" opacity="0.47"/><circle cx="665.3" cy="206.5" r="1.51" fill="#cfc8ea" opacity="0.32"/><circle cx="409.1" cy="363.7" r="0.68" fill="#cfc8ea" opacity="0.45"/><circle cx="36.1" cy="52.2" r="0.51" fill="#cfc8ea" opacity="0.33"/><circle cx="42.3" cy="265.3" r="1.54" fill="#cfc8ea" opacity="0.51"/><circle cx="377.0" cy="138.4" r="0.42" fill="#cfc8ea" opacity="0.43"/><circle cx="430.8" cy="85.6" r="1.63" fill="#cfc8ea" opacity="0.20"/><circle cx="297.9" cy="238.1" r="0.54" fill="#cfc8ea" opacity="0.40"/><circle cx="349.9" cy="126.1" r="1.57" fill="#cfc8ea" opacity="0.19"/><circle cx="377.8" cy="63.1" r="0.91" fill="#cfc8ea" opacity="0.16"/><circle cx="361.4" cy="261.8" r="1.03" fill="#cfc8ea" opacity="0.24"/><circle cx="430.0" cy="133.8" r="1.44" fill="#cfc8ea" opacity="0.44"/><circle cx="253.1" cy="63.6" r="1.20" fill="#cfc8ea" opacity="0.48"/><circle cx="373.9" cy="308.4" r="1.23" fill="#cfc8ea" opacity="0.33"/><circle cx="543.4" cy="347.8" r="1.62" fill="#cfc8ea" opacity="0.45"/><circle cx="434.7" cy="52.4" r="0.87" fill="#cfc8ea" opacity="0.54"/><circle cx="504.4" cy="439.7" r="1.28" fill="#cfc8ea" opacity="0.17"/><circle cx="278.6" cy="231.7" r="1.45" fill="#cfc8ea" opacity="0.17"/><circle cx="525.6" cy="221.3" r="1.58" fill="#cfc8ea" opacity="0.51"/><circle cx="512.0" cy="122.8" r="1.28" fill="#cfc8ea" opacity="0.20"/><circle cx="367.2" cy="413.3" r="1.42" fill="#cfc8ea" opacity="0.20"/><circle cx="347.3" cy="57.5" r="0.68" fill="#cfc8ea" opacity="0.39"/><circle cx="652.3" cy="417.1" r="1.21" fill="#cfc8ea" opacity="0.38"/><circle cx="659.4" cy="88.8" r="0.44" fill="#cfc8ea" opacity="0.18"/><circle cx="290.6" cy="318.5" r="1.13" fill="#cfc8ea" opacity="0.32"/><path d="M 179.69385601207614 299.0 L 180.3 302.1 L 183.4 302.63737589283846 L 180.3 303.2 L 179.69385601207614 306.3 L 179.1 303.2 L 176.0 302.63737589283846 L 179.1 302.1 Z" fill="#f6e6bf" opacity="0.5428836630890146"/><path d="M 501.633351508528 244.0 L 502.2 246.9 L 505.1 247.4251104898285 L 502.2 248.0 L 501.633351508528 250.8 L 501.1 248.0 L 498.2 247.4251104898285 L 501.1 246.9 Z" fill="#f6e6bf" opacity="0.6664806750835851"/><path d="M 298.7403883896768 389.9 L 299.3 392.8 L 302.2 393.39947877801023 L 299.3 394.0 L 298.7403883896768 396.9 L 298.2 394.0 L 295.3 393.39947877801023 L 298.2 392.8 Z" fill="#f6e6bf" opacity="0.632783442013897"/><path d="M 87.92293899133801 180.7 L 88.3 182.9 L 90.4 183.2515930372756 L 88.3 183.7 L 87.92293899133801 185.8 L 87.5 183.7 L 85.4 183.2515930372756 L 87.5 182.9 Z" fill="#f6e6bf" opacity="0.5009562733815983"/><path d="M 44.564042787998915 42.9 L 45.2 46.1 L 48.3 46.66789254336618 L 45.2 47.3 L 44.564042787998915 50.5 L 44.0 47.3 L 40.8 46.66789254336618 L 44.0 46.1 Z" fill="#f6e6bf" opacity="0.7451182363787666"/>
  <rect x="1.5" y="1.5" width="757" height="456" rx="22" fill="none" stroke="#d4af6a" stroke-opacity="0.34" stroke-width="1.2"/>
  <rect x="7" y="7" width="746" height="445" rx="17" fill="none" stroke="#d4af6a" stroke-opacity="0.12" stroke-width="0.8"/>
  <path d="M 16 12.8 L 16.5 15.5 L 19.2 16 L 16.5 16.5 L 16 19.2 L 15.5 16.5 L 12.8 16 L 15.5 15.5 Z" fill="#d4af6a" opacity="0.4"/><path d="M 744 12.8 L 744.5 15.5 L 747.2 16 L 744.5 16.5 L 744 19.2 L 743.5 16.5 L 740.8 16 L 743.5 15.5 Z" fill="#d4af6a" opacity="0.4"/><path d="M 16 439.8 L 16.5 442.5 L 19.2 443 L 16.5 443.5 L 16 446.2 L 15.5 443.5 L 12.8 443 L 15.5 442.5 Z" fill="#d4af6a" opacity="0.4"/><path d="M 744 439.8 L 744.5 442.5 L 747.2 443 L 744.5 443.5 L 744 446.2 L 743.5 443.5 L 740.8 443 L 743.5 442.5 Z" fill="#d4af6a" opacity="0.4"/>
  <text x="380" y="46" text-anchor="middle" font-family="Georgia, 'Times New Roman', serif" font-size="22" letter-spacing="0.4" fill="#efeaf8">Scotland's Group C Window</text>
  <line x1="230" y1="67" x2="368" y2="67" stroke="url(#scotlandbrazilworldcupastrology1en-rule)" stroke-width="1"/>
  <line x1="392" y1="67" x2="530" y2="67" stroke="url(#scotlandbrazilworldcupastrology1en-rule)" stroke-width="1"/>
  <path d="M 380 62.0 L 380.8 66.2 L 385.0 67 L 380.8 67.8 L 380 72.0 L 379.2 67.8 L 375.0 67 L 379.2 66.2 Z" fill="#d4af6a" opacity="0.85"/>
  <line x1="92" y1="113" x2="92" y2="359" stroke="#d4af6a" stroke-opacity="0.3" stroke-width="1.6"/>
  <circle cx="92" cy="113" r="13.0" fill="url(#scotlandbrazilworldcupastrology1en-glow)" opacity="0.5"/>
    <circle cx="92" cy="113" r="8" fill="url(#scotlandbrazilworldcupastrology1en-foil)" stroke="#f6e6bf" stroke-opacity="0.5" stroke-width="0.8"/>
    <circle cx="92" cy="110.8" r="4.8" fill="#ffffff" opacity="0.10"/>
    <path d="M 92 109.0 L 92.6 112.4 L 96.0 113 L 92.6 113.6 L 92 117.0 L 91.4 113.6 L 88.0 113 L 91.4 112.4 Z" fill="#3a2c12" opacity="0.85"/>
  <text x="132" y="118.0" font-family="Georgia, 'Times New Roman', serif" font-size="19" font-weight="700" letter-spacing="0.4" fill="#f6e6bf">14 June</text>
  <text x="132" y="141.0" font-family="Georgia, 'Times New Roman', serif" font-size="20.5" fill="#f3effb">Scotland 1–0 Haiti at Foxborough</text>
  <text x="132" y="164.0" font-family="Helvetica, Arial, sans-serif" font-size="14.5" fill="#a59cc0">Opening win keeps the Round of 32 within reach</text>
  <circle cx="92" cy="195" r="13.0" fill="url(#scotlandbrazilworldcupastrology1en-glow)" opacity="0.5"/>
    <circle cx="92" cy="195" r="8" fill="url(#scotlandbrazilworldcupastrology1en-foil)" stroke="#f6e6bf" stroke-opacity="0.5" stroke-width="0.8"/>
    <circle cx="92" cy="192.8" r="4.8" fill="#ffffff" opacity="0.10"/>
    <path d="M 92 191.0 L 92.6 194.4 L 96.0 195 L 92.6 195.6 L 92 199.0 L 91.4 195.6 L 88.0 195 L 91.4 194.4 Z" fill="#3a2c12" opacity="0.85"/>
  <text x="132" y="200.0" font-family="Georgia, 'Times New Roman', serif" font-size="19" font-weight="700" letter-spacing="0.4" fill="#f6e6bf">19 June</text>
  <text x="132" y="223.0" font-family="Georgia, 'Times New Roman', serif" font-size="20.5" fill="#f3effb">Scotland 0–1 Morocco; Chiron Enters Taurus</text>
  <text x="132" y="246.0" font-family="Helvetica, Arial, sans-serif" font-size="14.5" fill="#a59cc0">Loss and the slow self-worth theme arrive the same week</text>
  <circle cx="92" cy="277" r="13.0" fill="url(#scotlandbrazilworldcupastrology1en-glow)" opacity="0.5"/>
    <circle cx="92" cy="277" r="8" fill="url(#scotlandbrazilworldcupastrology1en-foil)" stroke="#f6e6bf" stroke-opacity="0.5" stroke-width="0.8"/>
    <circle cx="92" cy="274.8" r="4.8" fill="#ffffff" opacity="0.10"/>
    <path d="M 92 273.0 L 92.6 276.4 L 96.0 277 L 92.6 277.6 L 92 281.0 L 91.4 277.6 L 88.0 277 L 91.4 276.4 Z" fill="#3a2c12" opacity="0.85"/>
  <text x="132" y="282.0" font-family="Georgia, 'Times New Roman', serif" font-size="19" font-weight="700" letter-spacing="0.4" fill="#f6e6bf">24 June</text>
  <text x="132" y="305.0" font-family="Georgia, 'Times New Roman', serif" font-size="20.5" fill="#f3effb">Brazil Decider at Hard Rock Stadium, Miami</text>
  <text x="132" y="328.0" font-family="Helvetica, Arial, sans-serif" font-size="14.5" fill="#a59cc0">Scotland must win to guarantee a Round of 32 place</text>
  <circle cx="92" cy="359" r="13.0" fill="url(#scotlandbrazilworldcupastrology1en-glow)" opacity="0.5"/>
    <circle cx="92" cy="359" r="8" fill="url(#scotlandbrazilworldcupastrology1en-foil)" stroke="#f6e6bf" stroke-opacity="0.5" stroke-width="0.8"/>
    <circle cx="92" cy="356.8" r="4.8" fill="#ffffff" opacity="0.10"/>
    <path d="M 92 355.0 L 92.6 358.4 L 96.0 359 L 92.6 359.6 L 92 363.0 L 91.4 359.6 L 88.0 359 L 91.4 358.4 Z" fill="#3a2c12" opacity="0.85"/>
  <text x="132" y="364.0" font-family="Georgia, 'Times New Roman', serif" font-size="19" font-weight="700" letter-spacing="0.4" fill="#f6e6bf">~30 June</text>
  <text x="132" y="387.0" font-family="Georgia, 'Times New Roman', serif" font-size="20.5" fill="#f3effb">Jupiter Enters Leo</text>
  <text x="132" y="410.0" font-family="Helvetica, Arial, sans-serif" font-size="14.5" fill="#a59cc0">Late-Cancer belonging theme shifts toward Leo's spotlight</text>
  <path d="M 202.22749999999988 430.4 L 202.6 432.6 L 204.8 433 L 202.6 433.4 L 202.22749999999988 435.6 L 201.8 433.4 L 199.6 433 L 201.8 432.6 Z" fill="#d4af6a" opacity="0.5"/>
  <text x="380" y="437" text-anchor="middle" font-family="Georgia, 'Times New Roman', serif" font-style="italic" font-size="11.5" fill="#7b738f">A self-reflection framework — tendencies, not predictions</text>
  <path d="M 557.7725000000002 430.4 L 558.2 432.6 L 560.4 433 L 558.2 433.4 L 557.7725000000002 435.6 L 557.4 433.4 L 555.2 433 L 557.4 432.6 Z" fill="#d4af6a" opacity="0.5"/>
</svg>
