<svg xmlns="http://www.w3.org/2000/svg" viewBox="0 0 760 614" role="img" aria-label="Saturn Return Readings: Three Comparisons">
  <defs>
    <linearGradient id="scotlandworldcup2026astrologysaturnreturn0en-panel" x1="0" y1="0" x2="0.4" y2="1">
      <stop offset="0" stop-color="#1a1433"/><stop offset="0.55" stop-color="#120e26"/><stop offset="1" stop-color="#09081a"/>
    </linearGradient>
    <radialGradient id="scotlandworldcup2026astrologysaturnreturn0en-foil" cx="0.42" cy="0.34" r="0.75">
      <stop offset="0" stop-color="#fbf0d2"/><stop offset="0.5" stop-color="#e8c882"/><stop offset="1" stop-color="#b8923f"/>
    </radialGradient>
    <radialGradient id="scotlandworldcup2026astrologysaturnreturn0en-glow" cx="0.5" cy="0.5" r="0.5">
      <stop offset="0" stop-color="#f6e6bf"/><stop offset="1" stop-color="#f6e6bf" stop-opacity="0"/>
    </radialGradient>
    <radialGradient id="scotlandworldcup2026astrologysaturnreturn0en-neb1" cx="0.5" cy="0.5" r="0.5">
      <stop offset="0" stop-color="#6f4bb0" stop-opacity="0.28"/><stop offset="1" stop-color="#6f4bb0" stop-opacity="0"/>
    </radialGradient>
    <radialGradient id="scotlandworldcup2026astrologysaturnreturn0en-neb2" cx="0.5" cy="0.5" r="0.5">
      <stop offset="0" stop-color="#d4af6a" stop-opacity="0.16"/><stop offset="1" stop-color="#d4af6a" stop-opacity="0"/>
    </radialGradient>
    <linearGradient id="scotlandworldcup2026astrologysaturnreturn0en-rule" x1="0" y1="0" x2="1" y2="0">
      <stop offset="0" stop-color="#d4af6a" stop-opacity="0"/><stop offset="0.5" stop-color="#d4af6a" stop-opacity="0.6"/><stop offset="1" stop-color="#d4af6a" stop-opacity="0"/>
    </linearGradient>
  </defs>
  <rect x="1.5" y="1.5" width="757" height="611" rx="22" fill="url(#scotlandworldcup2026astrologysaturnreturn0en-panel)"/>
  <ellipse cx="198" cy="147" rx="380" ry="209" fill="url(#scotlandworldcup2026astrologysaturnreturn0en-neb1)"/>
  <ellipse cx="623" cy="491" rx="334" ry="196" fill="url(#scotlandworldcup2026astrologysaturnreturn0en-neb2)"/>
  <circle cx="347.7" cy="88.1" r="1.25" fill="#cfc8ea" opacity="0.27"/><circle cx="362.7" cy="486.9" r="1.67" fill="#cfc8ea" opacity="0.22"/><circle cx="709.2" cy="318.5" r="1.29" fill="#cfc8ea" opacity="0.40"/><circle cx="257.6" cy="522.7" r="1.68" fill="#cfc8ea" opacity="0.17"/><circle cx="411.5" cy="437.3" r="1.58" fill="#cfc8ea" opacity="0.40"/><circle cx="721.2" cy="97.2" r="0.47" fill="#cfc8ea" opacity="0.37"/><circle cx="437.1" cy="213.3" r="1.33" fill="#cfc8ea" opacity="0.15"/><circle cx="681.1" cy="244.7" r="0.96" fill="#cfc8ea" opacity="0.20"/><circle cx="691.8" cy="163.2" r="0.65" fill="#cfc8ea" opacity="0.34"/><circle cx="124.7" cy="139.0" r="0.73" fill="#cfc8ea" opacity="0.46"/><circle cx="576.5" cy="317.9" r="1.68" fill="#cfc8ea" opacity="0.47"/><circle cx="687.0" cy="331.1" r="1.45" fill="#cfc8ea" opacity="0.31"/><circle cx="482.0" cy="502.3" r="0.41" fill="#cfc8ea" opacity="0.48"/><circle cx="40.1" cy="53.6" r="1.24" fill="#cfc8ea" opacity="0.28"/><circle cx="77.3" cy="227.7" r="0.54" fill="#cfc8ea" opacity="0.37"/><circle cx="455.5" cy="261.3" r="1.48" fill="#cfc8ea" opacity="0.37"/><circle cx="398.3" cy="510.3" r="0.53" fill="#cfc8ea" opacity="0.44"/><circle cx="185.1" cy="364.4" r="1.30" fill="#cfc8ea" opacity="0.30"/><circle cx="234.0" cy="441.5" r="0.51" fill="#cfc8ea" opacity="0.48"/><circle cx="430.2" cy="322.1" r="0.83" fill="#cfc8ea" opacity="0.44"/><circle cx="180.6" cy="532.1" r="0.68" fill="#cfc8ea" opacity="0.29"/><circle cx="580.7" cy="373.6" r="0.94" fill="#cfc8ea" opacity="0.52"/><circle cx="614.9" cy="328.9" r="1.23" fill="#cfc8ea" opacity="0.52"/><circle cx="697.1" cy="205.8" r="0.50" fill="#cfc8ea" opacity="0.52"/><circle cx="651.6" cy="327.6" r="1.26" fill="#cfc8ea" opacity="0.18"/><circle cx="214.2" cy="367.6" r="1.05" fill="#cfc8ea" opacity="0.46"/><circle cx="717.3" cy="31.2" r="1.29" fill="#cfc8ea" opacity="0.16"/><circle cx="177.5" cy="95.4" r="1.57" fill="#cfc8ea" opacity="0.19"/><circle cx="139.6" cy="565.9" r="1.14" fill="#cfc8ea" opacity="0.29"/><circle cx="421.9" cy="190.4" r="1.44" fill="#cfc8ea" opacity="0.23"/><circle cx="325.9" cy="333.0" r="1.15" fill="#cfc8ea" opacity="0.17"/><circle cx="154.0" cy="591.8" r="1.46" fill="#cfc8ea" opacity="0.37"/><circle cx="142.3" cy="25.6" r="0.47" fill="#cfc8ea" opacity="0.40"/><circle cx="673.1" cy="352.7" r="0.74" fill="#cfc8ea" opacity="0.49"/><circle cx="560.4" cy="587.3" r="0.41" fill="#cfc8ea" opacity="0.27"/><circle cx="641.7" cy="351.7" r="0.67" fill="#cfc8ea" opacity="0.33"/><circle cx="600.5" cy="459.2" r="1.38" fill="#cfc8ea" opacity="0.51"/><circle cx="383.8" cy="192.3" r="0.85" fill="#cfc8ea" opacity="0.43"/><circle cx="428.0" cy="233.0" r="1.10" fill="#cfc8ea" opacity="0.12"/><circle cx="380.0" cy="478.6" r="0.74" fill="#cfc8ea" opacity="0.43"/><circle cx="664.3" cy="545.7" r="0.92" fill="#cfc8ea" opacity="0.19"/><circle cx="699.8" cy="136.6" r="0.86" fill="#cfc8ea" opacity="0.41"/><circle cx="69.4" cy="155.5" r="0.60" fill="#cfc8ea" opacity="0.16"/><circle cx="363.2" cy="77.7" r="0.77" fill="#cfc8ea" opacity="0.19"/><circle cx="408.8" cy="31.9" r="0.95" fill="#cfc8ea" opacity="0.41"/><circle cx="372.0" cy="518.1" r="0.81" fill="#cfc8ea" opacity="0.25"/><circle cx="728.7" cy="283.1" r="0.91" fill="#cfc8ea" opacity="0.33"/><circle cx="711.5" cy="574.6" r="1.11" fill="#cfc8ea" opacity="0.28"/><circle cx="612.4" cy="503.8" r="1.42" fill="#cfc8ea" opacity="0.52"/><circle cx="640.3" cy="160.2" r="0.74" fill="#cfc8ea" opacity="0.50"/><circle cx="490.4" cy="583.6" r="1.61" fill="#cfc8ea" opacity="0.52"/><circle cx="736.5" cy="552.6" r="1.38" fill="#cfc8ea" opacity="0.38"/><path d="M 106.64578267373145 576.9 L 107.2 579.6 L 109.8 580.0876532429829 L 107.2 580.6 L 106.64578267373145 583.3 L 106.1 580.6 L 103.5 580.0876532429829 L 106.1 579.6 Z" fill="#f6e6bf" opacity="0.5968863614834845"/><path d="M 117.11601840145886 294.0 L 117.7 297.1 L 120.7 297.65231196116656 L 117.7 298.2 L 117.11601840145886 301.3 L 116.5 298.2 L 113.5 297.65231196116656 L 116.5 297.1 Z" fill="#f6e6bf" opacity="0.5422456502914429"/><path d="M 530.1421274039894 20.6 L 530.7 23.5 L 533.5 24.04137542564422 L 530.7 24.6 L 530.1421274039894 27.4 L 529.6 24.6 L 526.7 24.04137542564422 L 529.6 23.5 Z" fill="#f6e6bf" opacity="0.688192496355623"/><path d="M 466.91527751274407 542.9 L 467.3 545.0 L 469.4 545.3920320710167 L 467.3 545.8 L 466.91527751274407 547.9 L 466.5 545.8 L 464.4 545.3920320710167 L 466.5 545.0 Z" fill="#f6e6bf" opacity="0.6845546422526241"/><path d="M 226.43068319000304 250.0 L 226.9 252.4 L 229.3 252.90312346909195 L 226.9 253.4 L 226.43068319000304 255.8 L 226.0 253.4 L 223.6 252.90312346909195 L 226.0 252.4 Z" fill="#f6e6bf" opacity="0.7931772713549434"/><path d="M 124.7 139.0 L 455.5 261.3 L 180.6 532.1 L 421.9 190.4 L 560.4 587.3" fill="none" stroke="#d4af6a" stroke-width="0.6" opacity="0.12"/>
  <rect x="1.5" y="1.5" width="757" height="611" rx="22" fill="none" stroke="#d4af6a" stroke-opacity="0.34" stroke-width="1.2"/>
  <rect x="7" y="7" width="746" height="600" rx="17" fill="none" stroke="#d4af6a" stroke-opacity="0.12" stroke-width="0.8"/>
  <path d="M 16 12.8 L 16.5 15.5 L 19.2 16 L 16.5 16.5 L 16 19.2 L 15.5 16.5 L 12.8 16 L 15.5 15.5 Z" fill="#d4af6a" opacity="0.4"/><path d="M 744 12.8 L 744.5 15.5 L 747.2 16 L 744.5 16.5 L 744 19.2 L 743.5 16.5 L 740.8 16 L 743.5 15.5 Z" fill="#d4af6a" opacity="0.4"/><path d="M 16 594.8 L 16.5 597.5 L 19.2 598 L 16.5 598.5 L 16 601.2 L 15.5 598.5 L 12.8 598 L 15.5 597.5 Z" fill="#d4af6a" opacity="0.4"/><path d="M 744 594.8 L 744.5 597.5 L 747.2 598 L 744.5 598.5 L 744 601.2 L 743.5 598.5 L 740.8 598 L 743.5 597.5 Z" fill="#d4af6a" opacity="0.4"/>
  <text x="380" y="46" text-anchor="middle" font-family="Georgia, 'Times New Roman', serif" font-size="22" letter-spacing="0.4" fill="#efeaf8">Saturn Return Readings: Three Comparisons</text>
  <line x1="230" y1="67" x2="368" y2="67" stroke="url(#scotlandworldcup2026astrologysaturnreturn0en-rule)" stroke-width="1"/>
  <line x1="392" y1="67" x2="530" y2="67" stroke="url(#scotlandworldcup2026astrologysaturnreturn0en-rule)" stroke-width="1"/>
  <path d="M 380 62.0 L 380.8 66.2 L 385.0 67 L 380.8 67.8 L 380 72.0 L 379.2 67.8 L 375.0 67 L 379.2 66.2 Z" fill="#d4af6a" opacity="0.85"/>

  <rect x="46" y="99" width="668" height="143.0" rx="14" fill="#1d1740" fill-opacity="0.5" stroke="#d4af6a" stroke-opacity="0.22" stroke-width="0.9"/>
  <rect x="46" y="99" width="3.5" height="143.0" rx="1.8" fill="#d4af6a" fill-opacity="0.6"/>
  <path d="M 47.75 108.6 L 48.3 111.5 L 51.1 112 L 48.3 112.5 L 47.75 115.4 L 47.2 112.5 L 44.4 112 L 47.2 111.5 Z" fill="#f6e6bf" opacity="0.7"/>
  <text x="380" y="128.0" text-anchor="middle" font-family="Georgia, 'Times New Roman', serif" font-size="21" font-weight="700" letter-spacing="0.3" fill="#f3effb">vs Player's Natal Transit</text>
  <path d="M 70 157.8 L 70.5 160.5 L 73.2 161 L 70.5 161.5 L 70 164.2 L 69.5 161.5 L 66.8 161 L 69.5 160.5 Z" fill="#d4af6a" opacity="0.8"/>
  <text x="84" y="166.0" font-family="Helvetica, Arial, sans-serif" font-size="16" fill="#a59cc0">Trades intimate detail for collective scale</text>
  <path d="M 70 186.8 L 70.5 189.5 L 73.2 190 L 70.5 190.5 L 70 193.2 L 69.5 190.5 L 66.8 190 L 69.5 189.5 Z" fill="#d4af6a" opacity="0.8"/>
  <text x="84" y="195.0" font-family="Helvetica, Arial, sans-serif" font-size="16" fill="#a59cc0">Frames how a whole nation metabolizes a long delay</text>
  <path d="M 70 215.8 L 70.5 218.5 L 73.2 219 L 70.5 219.5 L 70 222.2 L 69.5 219.5 L 66.8 219 L 69.5 218.5 Z" fill="#d4af6a" opacity="0.8"/>
  <text x="84" y="224.0" font-family="Helvetica, Arial, sans-serif" font-size="16" fill="#a59cc0">Cannot tell which fixture turns; gives up personal close-up</text>
  <path d="M 380 250.5 L 380.7 254.3 L 384.5 255 L 380.7 255.7 L 380 259.5 L 379.3 255.7 L 375.5 255 L 379.3 254.3 Z" fill="#d4af6a" opacity="0.65"/>
  <rect x="46" y="268" width="668" height="143.0" rx="14" fill="#1d1740" fill-opacity="0.5" stroke="#d4af6a" stroke-opacity="0.22" stroke-width="0.9"/>
  <rect x="46" y="268" width="3.5" height="143.0" rx="1.8" fill="#d4af6a" fill-opacity="0.6"/>
  <path d="M 47.75 277.6 L 48.3 280.5 L 51.1 281 L 48.3 281.5 L 47.75 284.4 L 47.2 281.5 L 44.4 281 L 47.2 280.5 Z" fill="#f6e6bf" opacity="0.7"/>
  <text x="380" y="297.0" text-anchor="middle" font-family="Georgia, 'Times New Roman', serif" font-size="21" font-weight="700" letter-spacing="0.3" fill="#f3effb">vs Literal Natal Saturn Return</text>
  <path d="M 70 326.8 L 70.5 329.5 L 73.2 330 L 70.5 330.5 L 70 333.2 L 69.5 330.5 L 66.8 330 L 69.5 329.5 Z" fill="#d4af6a" opacity="0.8"/>
  <text x="84" y="335.0" font-family="Helvetica, Arial, sans-serif" font-size="16" fill="#a59cc0">No verified Scottish FA founding chart is claimed</text>
  <path d="M 70 355.8 L 70.5 358.5 L 73.2 359 L 70.5 359.5 L 70 362.2 L 69.5 359.5 L 66.8 359 L 69.5 358.5 Z" fill="#d4af6a" opacity="0.8"/>
  <text x="84" y="364.0" font-family="Helvetica, Arial, sans-serif" font-size="16" fill="#a59cc0">Maps archetype onto the 28-year gap, not an exact natal degree</text>
  <path d="M 70 384.8 L 70.5 387.5 L 73.2 388 L 70.5 388.5 L 70 391.2 L 69.5 388.5 L 66.8 388 L 69.5 387.5 Z" fill="#d4af6a" opacity="0.8"/>
  <text x="84" y="393.0" font-family="Helvetica, Arial, sans-serif" font-size="16" fill="#a59cc0">Calls it the rhythm rather than a completed literal return</text>
  <path d="M 380 419.5 L 380.7 423.3 L 384.5 424 L 380.7 424.7 L 380 428.5 L 379.3 424.7 L 375.5 424 L 379.3 423.3 Z" fill="#d4af6a" opacity="0.65"/>
  <rect x="46" y="437" width="668" height="143.0" rx="14" fill="#1d1740" fill-opacity="0.5" stroke="#d4af6a" stroke-opacity="0.22" stroke-width="0.9"/>
  <rect x="46" y="437" width="3.5" height="143.0" rx="1.8" fill="#d4af6a" fill-opacity="0.6"/>
  <path d="M 47.75 446.6 L 48.3 449.5 L 51.1 450 L 48.3 450.5 L 47.75 453.4 L 47.2 450.5 L 44.4 450 L 47.2 449.5 Z" fill="#f6e6bf" opacity="0.7"/>
  <text x="380" y="466.0" text-anchor="middle" font-family="Georgia, 'Times New Roman', serif" font-size="21" font-weight="700" letter-spacing="0.3" fill="#f3effb">vs Tipster's Prediction</text>
  <path d="M 70 495.8 L 70.5 498.5 L 73.2 499 L 70.5 499.5 L 70 502.2 L 69.5 499.5 L 66.8 499 L 69.5 498.5 Z" fill="#d4af6a" opacity="0.8"/>
  <text x="84" y="504.0" font-family="Helvetica, Arial, sans-serif" font-size="16" fill="#a59cc0">Names a season of earned re-entry, not a fixed result</text>
  <path d="M 70 524.8 L 70.5 527.5 L 73.2 528 L 70.5 528.5 L 70 531.2 L 69.5 528.5 L 66.8 528 L 69.5 527.5 Z" fill="#d4af6a" opacity="0.8"/>
  <text x="84" y="533.0" font-family="Helvetica, Arial, sans-serif" font-size="16" fill="#a59cc0">Restraint is the point: refuses to call the score</text>
  <path d="M 70 553.8 L 70.5 556.5 L 73.2 557 L 70.5 557.5 L 70 560.2 L 69.5 557.5 L 66.8 557 L 69.5 556.5 Z" fill="#d4af6a" opacity="0.8"/>
  <text x="84" y="562.0" font-family="Helvetica, Arial, sans-serif" font-size="16" fill="#a59cc0">Keeps credibility for the next cycle and the next nation</text>
  <path d="M 202.22749999999988 585.4 L 202.6 587.6 L 204.8 588 L 202.6 588.4 L 202.22749999999988 590.6 L 201.8 588.4 L 199.6 588 L 201.8 587.6 Z" fill="#d4af6a" opacity="0.5"/>
  <text x="380" y="592" text-anchor="middle" font-family="Georgia, 'Times New Roman', serif" font-style="italic" font-size="11.5" fill="#7b738f">A self-reflection framework — tendencies, not predictions</text>
  <path d="M 557.7725000000002 585.4 L 558.2 587.6 L 560.4 588 L 558.2 588.4 L 557.7725000000002 590.6 L 557.4 588.4 L 555.2 588 L 557.4 587.6 Z" fill="#d4af6a" opacity="0.5"/>
</svg>
