<svg xmlns="http://www.w3.org/2000/svg" viewBox="0 0 760 523" role="img" aria-label="5 Steps to Apply the Saturn-Cycle Method">
  <defs>
    <linearGradient id="scotlandworldcup2026astrologysaturnreturn1en-panel" x1="0" y1="0" x2="0.4" y2="1">
      <stop offset="0" stop-color="#1a1433"/><stop offset="0.55" stop-color="#120e26"/><stop offset="1" stop-color="#09081a"/>
    </linearGradient>
    <radialGradient id="scotlandworldcup2026astrologysaturnreturn1en-foil" cx="0.42" cy="0.34" r="0.75">
      <stop offset="0" stop-color="#fbf0d2"/><stop offset="0.5" stop-color="#e8c882"/><stop offset="1" stop-color="#b8923f"/>
    </radialGradient>
    <radialGradient id="scotlandworldcup2026astrologysaturnreturn1en-glow" cx="0.5" cy="0.5" r="0.5">
      <stop offset="0" stop-color="#f6e6bf"/><stop offset="1" stop-color="#f6e6bf" stop-opacity="0"/>
    </radialGradient>
    <radialGradient id="scotlandworldcup2026astrologysaturnreturn1en-neb1" cx="0.5" cy="0.5" r="0.5">
      <stop offset="0" stop-color="#6f4bb0" stop-opacity="0.28"/><stop offset="1" stop-color="#6f4bb0" stop-opacity="0"/>
    </radialGradient>
    <radialGradient id="scotlandworldcup2026astrologysaturnreturn1en-neb2" cx="0.5" cy="0.5" r="0.5">
      <stop offset="0" stop-color="#d4af6a" stop-opacity="0.16"/><stop offset="1" stop-color="#d4af6a" stop-opacity="0"/>
    </radialGradient>
    <linearGradient id="scotlandworldcup2026astrologysaturnreturn1en-rule" x1="0" y1="0" x2="1" y2="0">
      <stop offset="0" stop-color="#d4af6a" stop-opacity="0"/><stop offset="0.5" stop-color="#d4af6a" stop-opacity="0.6"/><stop offset="1" stop-color="#d4af6a" stop-opacity="0"/>
    </linearGradient>
  </defs>
  <rect x="1.5" y="1.5" width="757" height="520" rx="22" fill="url(#scotlandworldcup2026astrologysaturnreturn1en-panel)"/>
  <ellipse cx="198" cy="126" rx="380" ry="178" fill="url(#scotlandworldcup2026astrologysaturnreturn1en-neb1)"/>
  <ellipse cx="623" cy="418" rx="334" ry="167" fill="url(#scotlandworldcup2026astrologysaturnreturn1en-neb2)"/>
  <circle cx="624.0" cy="250.9" r="0.59" fill="#cfc8ea" opacity="0.30"/><circle cx="178.8" cy="225.2" r="0.69" fill="#cfc8ea" opacity="0.25"/><circle cx="113.7" cy="262.5" r="1.37" fill="#cfc8ea" opacity="0.30"/><circle cx="203.8" cy="451.7" r="0.47" fill="#cfc8ea" opacity="0.13"/><circle cx="354.4" cy="22.5" r="0.98" fill="#cfc8ea" opacity="0.46"/><circle cx="181.9" cy="427.0" r="0.60" fill="#cfc8ea" opacity="0.45"/><circle cx="162.8" cy="346.4" r="1.23" fill="#cfc8ea" opacity="0.43"/><circle cx="532.3" cy="119.9" r="1.31" fill="#cfc8ea" opacity="0.46"/><circle cx="665.6" cy="495.0" r="1.23" fill="#cfc8ea" opacity="0.43"/><circle cx="648.4" cy="258.7" r="0.46" fill="#cfc8ea" opacity="0.20"/><circle cx="445.6" cy="396.9" r="1.05" fill="#cfc8ea" opacity="0.47"/><circle cx="286.9" cy="273.4" r="0.54" fill="#cfc8ea" opacity="0.50"/><circle cx="505.7" cy="109.0" r="1.17" fill="#cfc8ea" opacity="0.53"/><circle cx="192.0" cy="28.3" r="1.21" fill="#cfc8ea" opacity="0.12"/><circle cx="585.9" cy="409.2" r="1.15" fill="#cfc8ea" opacity="0.18"/><circle cx="583.0" cy="309.4" r="1.11" fill="#cfc8ea" opacity="0.20"/><circle cx="534.0" cy="232.9" r="1.36" fill="#cfc8ea" opacity="0.41"/><circle cx="631.3" cy="49.8" r="1.58" fill="#cfc8ea" opacity="0.42"/><circle cx="547.0" cy="315.9" r="1.44" fill="#cfc8ea" opacity="0.13"/><circle cx="586.5" cy="502.6" r="1.26" fill="#cfc8ea" opacity="0.13"/><circle cx="58.7" cy="294.6" r="1.34" fill="#cfc8ea" opacity="0.53"/><circle cx="440.2" cy="277.6" r="0.81" fill="#cfc8ea" opacity="0.29"/><circle cx="571.1" cy="493.9" r="0.76" fill="#cfc8ea" opacity="0.17"/><circle cx="24.4" cy="39.3" r="1.20" fill="#cfc8ea" opacity="0.36"/><circle cx="600.8" cy="180.2" r="1.55" fill="#cfc8ea" opacity="0.23"/><circle cx="306.8" cy="142.1" r="0.97" fill="#cfc8ea" opacity="0.41"/><circle cx="552.4" cy="30.2" r="1.42" fill="#cfc8ea" opacity="0.39"/><circle cx="608.5" cy="200.7" r="1.47" fill="#cfc8ea" opacity="0.36"/><circle cx="458.7" cy="395.2" r="1.57" fill="#cfc8ea" opacity="0.24"/><circle cx="345.5" cy="403.7" r="1.66" fill="#cfc8ea" opacity="0.49"/><circle cx="236.4" cy="20.5" r="1.61" fill="#cfc8ea" opacity="0.24"/><circle cx="360.4" cy="101.9" r="0.84" fill="#cfc8ea" opacity="0.28"/><circle cx="153.7" cy="90.4" r="0.82" fill="#cfc8ea" opacity="0.34"/><circle cx="333.3" cy="482.9" r="0.67" fill="#cfc8ea" opacity="0.24"/><circle cx="348.1" cy="339.1" r="1.36" fill="#cfc8ea" opacity="0.48"/><circle cx="27.5" cy="464.3" r="1.62" fill="#cfc8ea" opacity="0.34"/><circle cx="555.3" cy="163.6" r="1.54" fill="#cfc8ea" opacity="0.52"/><circle cx="545.5" cy="318.8" r="0.53" fill="#cfc8ea" opacity="0.12"/><circle cx="521.6" cy="396.7" r="1.17" fill="#cfc8ea" opacity="0.46"/><circle cx="490.5" cy="85.2" r="1.06" fill="#cfc8ea" opacity="0.49"/><circle cx="686.6" cy="311.4" r="1.19" fill="#cfc8ea" opacity="0.43"/><circle cx="211.1" cy="464.0" r="1.42" fill="#cfc8ea" opacity="0.39"/><circle cx="389.7" cy="59.5" r="1.56" fill="#cfc8ea" opacity="0.48"/><circle cx="419.1" cy="230.8" r="0.82" fill="#cfc8ea" opacity="0.32"/><path d="M 194.0923743955791 482.5 L 194.6 485.0 L 197.0 485.4387381018605 L 194.6 485.9 L 194.0923743955791 488.4 L 193.6 485.9 L 191.2 485.4387381018605 L 193.6 485.0 Z" fill="#f6e6bf" opacity="0.5641240472206845"/><path d="M 138.5961751975119 246.4 L 139.1 249.0 L 141.7 249.51809170166962 L 139.1 250.0 L 138.5961751975119 252.6 L 138.1 250.0 L 135.5 249.51809170166962 L 138.1 249.0 Z" fill="#f6e6bf" opacity="0.5177412127377465"/><path d="M 654.0985262952745 170.1 L 654.5 172.3 L 656.6 172.65778485662304 L 654.5 173.1 L 654.0985262952745 175.2 L 653.7 173.1 L 651.6 172.65778485662304 L 653.7 172.3 Z" fill="#f6e6bf" opacity="0.5032961964840069"/><path d="M 676.7156519778073 465.7 L 677.2 468.1 L 679.5 468.5200449589174 L 677.2 469.0 L 676.7156519778073 471.3 L 676.3 469.0 L 673.9 468.5200449589174 L 676.3 468.1 Z" fill="#f6e6bf" opacity="0.7691653440939262"/><path d="M 538.2146249227226 140.3 L 538.7 143.0 L 541.4 143.46628381847404 L 538.7 144.0 L 538.2146249227226 146.7 L 537.7 144.0 L 535.0 143.46628381847404 L 537.7 143.0 Z" fill="#f6e6bf" opacity="0.5681817120173946"/><path d="M 162.8 346.4 L 458.7 395.2 L 555.3 163.6" fill="none" stroke="#d4af6a" stroke-width="0.6" opacity="0.12"/>
  <rect x="1.5" y="1.5" width="757" height="520" rx="22" fill="none" stroke="#d4af6a" stroke-opacity="0.34" stroke-width="1.2"/>
  <rect x="7" y="7" width="746" height="509" rx="17" fill="none" stroke="#d4af6a" stroke-opacity="0.12" stroke-width="0.8"/>
  <path d="M 16 12.8 L 16.5 15.5 L 19.2 16 L 16.5 16.5 L 16 19.2 L 15.5 16.5 L 12.8 16 L 15.5 15.5 Z" fill="#d4af6a" opacity="0.4"/><path d="M 744 12.8 L 744.5 15.5 L 747.2 16 L 744.5 16.5 L 744 19.2 L 743.5 16.5 L 740.8 16 L 743.5 15.5 Z" fill="#d4af6a" opacity="0.4"/><path d="M 16 503.8 L 16.5 506.5 L 19.2 507 L 16.5 507.5 L 16 510.2 L 15.5 507.5 L 12.8 507 L 15.5 506.5 Z" fill="#d4af6a" opacity="0.4"/><path d="M 744 503.8 L 744.5 506.5 L 747.2 507 L 744.5 507.5 L 744 510.2 L 743.5 507.5 L 740.8 507 L 743.5 506.5 Z" fill="#d4af6a" opacity="0.4"/>
  <text x="380" y="46" text-anchor="middle" font-family="Georgia, 'Times New Roman', serif" font-size="22" letter-spacing="0.4" fill="#efeaf8">5 Steps to Apply the Saturn-Cycle Method</text>
  <line x1="230" y1="67" x2="368" y2="67" stroke="url(#scotlandworldcup2026astrologysaturnreturn1en-rule)" stroke-width="1"/>
  <line x1="392" y1="67" x2="530" y2="67" stroke="url(#scotlandworldcup2026astrologysaturnreturn1en-rule)" stroke-width="1"/>
  <path d="M 380 62.0 L 380.8 66.2 L 385.0 67 L 380.8 67.8 L 380 72.0 L 379.2 67.8 L 375.0 67 L 379.2 66.2 Z" fill="#d4af6a" opacity="0.85"/>
  <line x1="76" y1="121" x2="76" y2="433" stroke="#d4af6a" stroke-opacity="0.28" stroke-width="1.5"/>
  <circle cx="76" cy="121" r="20.0" fill="url(#scotlandworldcup2026astrologysaturnreturn1en-glow)" opacity="0.5"/>
    <circle cx="76" cy="121" r="15" fill="url(#scotlandworldcup2026astrologysaturnreturn1en-foil)" stroke="#f6e6bf" stroke-opacity="0.5" stroke-width="0.8"/>
    <circle cx="76" cy="116.8" r="9.0" fill="#ffffff" opacity="0.10"/>
    <text x="76" y="125.5" text-anchor="middle" font-family="Georgia, 'Times New Roman', serif" font-size="13" font-weight="700" fill="#3a2c12">1</text>
  <text x="116" y="117.0" font-family="Georgia, 'Times New Roman', serif" font-size="22" letter-spacing="0.3" fill="#f3effb">Anchor in Saturn's Clock</text>
  <text x="116" y="139.0" font-family="Helvetica, Arial, sans-serif" font-size="15.5" fill="#a59cc0">29.4 years per cycle; Scotland's 28-year gap from 1998 to 2026 sits just short</text>
  <text x="116" y="157.0" font-family="Helvetica, Arial, sans-serif" font-size="15.5" fill="#a59cc0">of one full return</text>
  <circle cx="76" cy="199" r="20.0" fill="url(#scotlandworldcup2026astrologysaturnreturn1en-glow)" opacity="0.5"/>
    <circle cx="76" cy="199" r="15" fill="url(#scotlandworldcup2026astrologysaturnreturn1en-foil)" stroke="#f6e6bf" stroke-opacity="0.5" stroke-width="0.8"/>
    <circle cx="76" cy="194.8" r="9.0" fill="#ffffff" opacity="0.10"/>
    <text x="76" y="203.5" text-anchor="middle" font-family="Georgia, 'Times New Roman', serif" font-size="13" font-weight="700" fill="#3a2c12">2</text>
  <text x="116" y="195.0" font-family="Georgia, 'Times New Roman', serif" font-size="22" letter-spacing="0.3" fill="#f3effb">Read the Contraction</text>
  <text x="116" y="217.0" font-family="Helvetica, Arial, sans-serif" font-size="15.5" fill="#a59cc0">Six qualifying failures after six finals in seven (1974–1998): Saturn's</text>
  <text x="116" y="235.0" font-family="Helvetica, Arial, sans-serif" font-size="15.5" fill="#a59cc0">testing phase of patience</text>
  <circle cx="76" cy="277" r="20.0" fill="url(#scotlandworldcup2026astrologysaturnreturn1en-glow)" opacity="0.5"/>
    <circle cx="76" cy="277" r="15" fill="url(#scotlandworldcup2026astrologysaturnreturn1en-foil)" stroke="#f6e6bf" stroke-opacity="0.5" stroke-width="0.8"/>
    <circle cx="76" cy="272.8" r="9.0" fill="#ffffff" opacity="0.10"/>
    <text x="76" y="281.5" text-anchor="middle" font-family="Georgia, 'Times New Roman', serif" font-size="13" font-weight="700" fill="#3a2c12">3</text>
  <text x="116" y="273.0" font-family="Georgia, 'Times New Roman', serif" font-size="22" letter-spacing="0.3" fill="#f3effb">Mark the Threshold</text>
  <text x="116" y="295.0" font-family="Helvetica, Arial, sans-serif" font-size="15.5" fill="#a59cc0">The 4-2 win over Denmark on 18 November 2025 sealed qualification: the doorway</text>
  <text x="116" y="313.0" font-family="Helvetica, Arial, sans-serif" font-size="15.5" fill="#a59cc0">reached and earned</text>
  <circle cx="76" cy="355" r="20.0" fill="url(#scotlandworldcup2026astrologysaturnreturn1en-glow)" opacity="0.5"/>
    <circle cx="76" cy="355" r="15" fill="url(#scotlandworldcup2026astrologysaturnreturn1en-foil)" stroke="#f6e6bf" stroke-opacity="0.5" stroke-width="0.8"/>
    <circle cx="76" cy="350.8" r="9.0" fill="#ffffff" opacity="0.10"/>
    <text x="76" y="359.5" text-anchor="middle" font-family="Georgia, 'Times New Roman', serif" font-size="13" font-weight="700" fill="#3a2c12">4</text>
  <text x="116" y="351.0" font-family="Georgia, 'Times New Roman', serif" font-size="22" letter-spacing="0.3" fill="#f3effb">Map Saturn in Aries</text>
  <text x="116" y="373.0" font-family="Helvetica, Arial, sans-serif" font-size="15.5" fill="#a59cc0">Saturn in Aries (2025–28): cardinal sign of fresh starts mirrors the symbolism</text>
  <text x="116" y="391.0" font-family="Helvetica, Arial, sans-serif" font-size="15.5" fill="#a59cc0">of beginning again on merit</text>
  <circle cx="76" cy="433" r="20.0" fill="url(#scotlandworldcup2026astrologysaturnreturn1en-glow)" opacity="0.5"/>
    <circle cx="76" cy="433" r="15" fill="url(#scotlandworldcup2026astrologysaturnreturn1en-foil)" stroke="#f6e6bf" stroke-opacity="0.5" stroke-width="0.8"/>
    <circle cx="76" cy="428.8" r="9.0" fill="#ffffff" opacity="0.10"/>
    <text x="76" y="437.5" text-anchor="middle" font-family="Georgia, 'Times New Roman', serif" font-size="13" font-weight="700" fill="#3a2c12">5</text>
  <text x="116" y="429.0" font-family="Georgia, 'Times New Roman', serif" font-size="22" letter-spacing="0.3" fill="#f3effb">Hold the Archetype Open</text>
  <text x="116" y="451.0" font-family="Helvetica, Arial, sans-serif" font-size="15.5" fill="#a59cc0">A season of maturity and earned return, not a fixed result: leave the outcome</text>
  <text x="116" y="469.0" font-family="Helvetica, Arial, sans-serif" font-size="15.5" fill="#a59cc0">open for the squad</text>
  <path d="M 202.22749999999988 494.4 L 202.6 496.6 L 204.8 497 L 202.6 497.4 L 202.22749999999988 499.6 L 201.8 497.4 L 199.6 497 L 201.8 496.6 Z" fill="#d4af6a" opacity="0.5"/>
  <text x="380" y="501" text-anchor="middle" font-family="Georgia, 'Times New Roman', serif" font-style="italic" font-size="11.5" fill="#7b738f">A self-reflection framework — tendencies, not predictions</text>
  <path d="M 557.7725000000002 494.4 L 558.2 496.6 L 560.4 497 L 558.2 497.4 L 557.7725000000002 499.6 L 557.4 497.4 L 555.2 497 L 557.4 496.6 Z" fill="#d4af6a" opacity="0.5"/>
</svg>
