<svg xmlns="http://www.w3.org/2000/svg" viewBox="0 0 760 614" role="img" aria-label="Two Ways to Read June 24">
  <defs>
    <linearGradient id="scotlandbrazilworldcupastrology0en-panel" x1="0" y1="0" x2="0.4" y2="1">
      <stop offset="0" stop-color="#1a1433"/><stop offset="0.55" stop-color="#120e26"/><stop offset="1" stop-color="#09081a"/>
    </linearGradient>
    <radialGradient id="scotlandbrazilworldcupastrology0en-foil" cx="0.42" cy="0.34" r="0.75">
      <stop offset="0" stop-color="#fbf0d2"/><stop offset="0.5" stop-color="#e8c882"/><stop offset="1" stop-color="#b8923f"/>
    </radialGradient>
    <radialGradient id="scotlandbrazilworldcupastrology0en-glow" cx="0.5" cy="0.5" r="0.5">
      <stop offset="0" stop-color="#f6e6bf"/><stop offset="1" stop-color="#f6e6bf" stop-opacity="0"/>
    </radialGradient>
    <radialGradient id="scotlandbrazilworldcupastrology0en-neb1" cx="0.5" cy="0.5" r="0.5">
      <stop offset="0" stop-color="#6f4bb0" stop-opacity="0.28"/><stop offset="1" stop-color="#6f4bb0" stop-opacity="0"/>
    </radialGradient>
    <radialGradient id="scotlandbrazilworldcupastrology0en-neb2" cx="0.5" cy="0.5" r="0.5">
      <stop offset="0" stop-color="#d4af6a" stop-opacity="0.16"/><stop offset="1" stop-color="#d4af6a" stop-opacity="0"/>
    </radialGradient>
    <linearGradient id="scotlandbrazilworldcupastrology0en-rule" x1="0" y1="0" x2="1" y2="0">
      <stop offset="0" stop-color="#d4af6a" stop-opacity="0"/><stop offset="0.5" stop-color="#d4af6a" stop-opacity="0.6"/><stop offset="1" stop-color="#d4af6a" stop-opacity="0"/>
    </linearGradient>
  </defs>
  <rect x="1.5" y="1.5" width="757" height="611" rx="22" fill="url(#scotlandbrazilworldcupastrology0en-panel)"/>
  <ellipse cx="198" cy="147" rx="380" ry="209" fill="url(#scotlandbrazilworldcupastrology0en-neb1)"/>
  <ellipse cx="623" cy="491" rx="334" ry="196" fill="url(#scotlandbrazilworldcupastrology0en-neb2)"/>
  <circle cx="491.5" cy="526.3" r="1.34" fill="#cfc8ea" opacity="0.32"/><circle cx="155.6" cy="508.6" r="1.67" fill="#cfc8ea" opacity="0.18"/><circle cx="101.8" cy="50.1" r="0.86" fill="#cfc8ea" opacity="0.29"/><circle cx="290.1" cy="444.9" r="1.39" fill="#cfc8ea" opacity="0.42"/><circle cx="154.8" cy="28.6" r="1.59" fill="#cfc8ea" opacity="0.41"/><circle cx="663.3" cy="284.9" r="1.46" fill="#cfc8ea" opacity="0.28"/><circle cx="396.4" cy="535.9" r="1.20" fill="#cfc8ea" opacity="0.50"/><circle cx="225.7" cy="115.3" r="1.55" fill="#cfc8ea" opacity="0.16"/><circle cx="542.9" cy="514.5" r="1.59" fill="#cfc8ea" opacity="0.29"/><circle cx="716.4" cy="41.8" r="0.75" fill="#cfc8ea" opacity="0.36"/><circle cx="657.1" cy="40.7" r="1.06" fill="#cfc8ea" opacity="0.49"/><circle cx="311.1" cy="540.6" r="1.02" fill="#cfc8ea" opacity="0.42"/><circle cx="43.1" cy="246.5" r="0.51" fill="#cfc8ea" opacity="0.37"/><circle cx="395.3" cy="192.1" r="0.92" fill="#cfc8ea" opacity="0.44"/><circle cx="501.0" cy="358.0" r="0.49" fill="#cfc8ea" opacity="0.24"/><circle cx="537.9" cy="173.5" r="0.58" fill="#cfc8ea" opacity="0.49"/><circle cx="273.4" cy="136.1" r="1.16" fill="#cfc8ea" opacity="0.47"/><circle cx="325.9" cy="374.2" r="1.53" fill="#cfc8ea" opacity="0.21"/><circle cx="465.3" cy="425.7" r="0.61" fill="#cfc8ea" opacity="0.44"/><circle cx="220.6" cy="503.4" r="1.29" fill="#cfc8ea" opacity="0.32"/><circle cx="552.8" cy="297.8" r="0.98" fill="#cfc8ea" opacity="0.37"/><circle cx="438.4" cy="366.2" r="0.67" fill="#cfc8ea" opacity="0.20"/><circle cx="393.7" cy="503.9" r="0.74" fill="#cfc8ea" opacity="0.53"/><circle cx="314.6" cy="242.8" r="1.51" fill="#cfc8ea" opacity="0.32"/><circle cx="412.2" cy="467.6" r="0.73" fill="#cfc8ea" opacity="0.18"/><circle cx="337.4" cy="379.1" r="1.52" fill="#cfc8ea" opacity="0.49"/><circle cx="418.0" cy="79.7" r="1.06" fill="#cfc8ea" opacity="0.25"/><circle cx="678.9" cy="274.3" r="1.33" fill="#cfc8ea" opacity="0.17"/><circle cx="224.4" cy="568.3" r="1.19" fill="#cfc8ea" opacity="0.49"/><circle cx="511.1" cy="371.9" r="0.65" fill="#cfc8ea" opacity="0.27"/><circle cx="594.0" cy="313.1" r="0.82" fill="#cfc8ea" opacity="0.52"/><circle cx="72.1" cy="193.4" r="0.77" fill="#cfc8ea" opacity="0.26"/><circle cx="514.2" cy="216.7" r="1.24" fill="#cfc8ea" opacity="0.16"/><circle cx="115.8" cy="536.2" r="1.34" fill="#cfc8ea" opacity="0.45"/><circle cx="579.5" cy="154.8" r="0.47" fill="#cfc8ea" opacity="0.41"/><circle cx="225.5" cy="468.6" r="1.03" fill="#cfc8ea" opacity="0.38"/><circle cx="697.5" cy="239.4" r="1.05" fill="#cfc8ea" opacity="0.37"/><circle cx="497.7" cy="523.7" r="0.76" fill="#cfc8ea" opacity="0.48"/><circle cx="197.0" cy="193.8" r="1.07" fill="#cfc8ea" opacity="0.41"/><circle cx="67.0" cy="197.2" r="1.11" fill="#cfc8ea" opacity="0.12"/><circle cx="388.3" cy="567.8" r="0.85" fill="#cfc8ea" opacity="0.46"/><circle cx="253.4" cy="453.3" r="1.27" fill="#cfc8ea" opacity="0.31"/><circle cx="430.1" cy="122.6" r="0.84" fill="#cfc8ea" opacity="0.16"/><circle cx="209.3" cy="54.5" r="0.83" fill="#cfc8ea" opacity="0.48"/><circle cx="709.4" cy="234.4" r="0.77" fill="#cfc8ea" opacity="0.49"/><circle cx="190.9" cy="384.2" r="0.78" fill="#cfc8ea" opacity="0.23"/><circle cx="175.3" cy="42.1" r="0.95" fill="#cfc8ea" opacity="0.32"/><circle cx="464.8" cy="120.6" r="0.75" fill="#cfc8ea" opacity="0.20"/><circle cx="282.2" cy="34.5" r="1.02" fill="#cfc8ea" opacity="0.26"/><circle cx="679.5" cy="406.6" r="1.21" fill="#cfc8ea" opacity="0.17"/><circle cx="442.9" cy="47.5" r="0.49" fill="#cfc8ea" opacity="0.53"/><circle cx="563.1" cy="115.1" r="1.58" fill="#cfc8ea" opacity="0.17"/><path d="M 624.5377403534949 299.7 L 624.9 301.9 L 627.1 302.26642827736214 L 624.9 302.7 L 624.5377403534949 304.8 L 624.1 302.7 L 622.0 302.26642827736214 L 624.1 301.9 Z" fill="#f6e6bf" opacity="0.5894142498495057"/><path d="M 562.1241006217897 441.6 L 562.5 443.8 L 564.8 444.19883471215144 L 562.5 444.6 L 562.1241006217897 446.8 L 561.7 444.6 L 559.5 444.19883471215144 L 561.7 443.8 Z" fill="#f6e6bf" opacity="0.6409881249302998"/><path d="M 87.51386462524533 51.6 L 88.1 54.7 L 91.3 55.35229799570516 L 88.1 56.0 L 87.51386462524533 59.2 L 86.9 56.0 L 83.7 55.35229799570516 L 86.9 54.7 Z" fill="#f6e6bf" opacity="0.6743169750319794"/><path d="M 340.4101401977241 56.3 L 340.9 58.9 L 343.6 59.455328507814556 L 340.9 60.0 L 340.4101401977241 62.6 L 339.9 60.0 L 337.2 59.455328507814556 L 339.9 58.9 Z" fill="#f6e6bf" opacity="0.6785192569950595"/><path d="M 348.6234265305102 143.2 L 349.2 146.2 L 352.2 146.7380006541498 L 349.2 147.3 L 348.6234265305102 150.3 L 348.1 147.3 L 345.1 146.7380006541498 L 348.1 146.2 Z" fill="#f6e6bf" opacity="0.5145224333973601"/><path d="M 225.7 115.3 L 465.3 425.7 L 220.6 503.4 L 197.0 193.8 L 253.4 453.3" fill="none" stroke="#d4af6a" stroke-width="0.6" opacity="0.12"/>
  <rect x="1.5" y="1.5" width="757" height="611" rx="22" fill="none" stroke="#d4af6a" stroke-opacity="0.34" stroke-width="1.2"/>
  <rect x="7" y="7" width="746" height="600" rx="17" fill="none" stroke="#d4af6a" stroke-opacity="0.12" stroke-width="0.8"/>
  <path d="M 16 12.8 L 16.5 15.5 L 19.2 16 L 16.5 16.5 L 16 19.2 L 15.5 16.5 L 12.8 16 L 15.5 15.5 Z" fill="#d4af6a" opacity="0.4"/><path d="M 744 12.8 L 744.5 15.5 L 747.2 16 L 744.5 16.5 L 744 19.2 L 743.5 16.5 L 740.8 16 L 743.5 15.5 Z" fill="#d4af6a" opacity="0.4"/><path d="M 16 594.8 L 16.5 597.5 L 19.2 598 L 16.5 598.5 L 16 601.2 L 15.5 598.5 L 12.8 598 L 15.5 597.5 Z" fill="#d4af6a" opacity="0.4"/><path d="M 744 594.8 L 744.5 597.5 L 747.2 598 L 744.5 598.5 L 744 601.2 L 743.5 598.5 L 740.8 598 L 743.5 597.5 Z" fill="#d4af6a" opacity="0.4"/>
  <text x="380" y="46" text-anchor="middle" font-family="Georgia, 'Times New Roman', serif" font-size="22" letter-spacing="0.4" fill="#efeaf8">Two Ways to Read June 24</text>
  <line x1="230" y1="67" x2="368" y2="67" stroke="url(#scotlandbrazilworldcupastrology0en-rule)" stroke-width="1"/>
  <line x1="392" y1="67" x2="530" y2="67" stroke="url(#scotlandbrazilworldcupastrology0en-rule)" stroke-width="1"/>
  <path d="M 380 62.0 L 380.8 66.2 L 385.0 67 L 380.8 67.8 L 380 72.0 L 379.2 67.8 L 375.0 67 L 379.2 66.2 Z" fill="#d4af6a" opacity="0.85"/>

  <rect x="46" y="99" width="668" height="143.0" rx="14" fill="#1d1740" fill-opacity="0.5" stroke="#d4af6a" stroke-opacity="0.22" stroke-width="0.9"/>
  <rect x="46" y="99" width="3.5" height="143.0" rx="1.8" fill="#d4af6a" fill-opacity="0.6"/>
  <path d="M 47.75 108.6 L 48.3 111.5 L 51.1 112 L 48.3 112.5 L 47.75 115.4 L 47.2 112.5 L 44.4 112 L 47.2 111.5 Z" fill="#f6e6bf" opacity="0.7"/>
  <text x="380" y="128.0" text-anchor="middle" font-family="Georgia, 'Times New Roman', serif" font-size="21" font-weight="700" letter-spacing="0.3" fill="#f3effb">Symbolic fixture reading</text>
  <path d="M 70 157.8 L 70.5 160.5 L 73.2 161 L 70.5 161.5 L 70 164.2 L 69.5 161.5 L 66.8 161 L 69.5 160.5 Z" fill="#d4af6a" opacity="0.8"/>
  <text x="84" y="166.0" font-family="Helvetica, Arial, sans-serif" font-size="16" fill="#a59cc0">Anchors to verified June 24 facts</text>
  <path d="M 70 186.8 L 70.5 189.5 L 73.2 190 L 70.5 190.5 L 70 193.2 L 69.5 190.5 L 66.8 190 L 69.5 189.5 Z" fill="#d4af6a" opacity="0.8"/>
  <text x="84" y="195.0" font-family="Helvetica, Arial, sans-serif" font-size="16" fill="#a59cc0">Names themes, not the winner</text>
  <path d="M 70 215.8 L 70.5 218.5 L 73.2 219 L 70.5 219.5 L 70 222.2 L 69.5 219.5 L 66.8 219 L 69.5 218.5 Z" fill="#d4af6a" opacity="0.8"/>
  <text x="84" y="224.0" font-family="Helvetica, Arial, sans-serif" font-size="16" fill="#a59cc0">Leaves the outcome openly undecided</text>
  <path d="M 380 250.5 L 380.7 254.3 L 384.5 255 L 380.7 255.7 L 380 259.5 L 379.3 255.7 L 375.5 255 L 379.3 254.3 Z" fill="#d4af6a" opacity="0.65"/>
  <rect x="46" y="268" width="668" height="143.0" rx="14" fill="#1d1740" fill-opacity="0.5" stroke="#d4af6a" stroke-opacity="0.22" stroke-width="0.9"/>
  <rect x="46" y="268" width="3.5" height="143.0" rx="1.8" fill="#d4af6a" fill-opacity="0.6"/>
  <path d="M 47.75 277.6 L 48.3 280.5 L 51.1 281 L 48.3 281.5 L 47.75 284.4 L 47.2 281.5 L 44.4 281 L 47.2 280.5 Z" fill="#f6e6bf" opacity="0.7"/>
  <text x="380" y="297.0" text-anchor="middle" font-family="Georgia, 'Times New Roman', serif" font-size="21" font-weight="700" letter-spacing="0.3" fill="#f3effb">Straight match prediction</text>
  <path d="M 70 326.8 L 70.5 329.5 L 73.2 330 L 70.5 330.5 L 70 333.2 L 69.5 330.5 L 66.8 330 L 69.5 329.5 Z" fill="#d4af6a" opacity="0.8"/>
  <text x="84" y="335.0" font-family="Helvetica, Arial, sans-serif" font-size="16" fill="#a59cc0">Names a likely winner or scoreline</text>
  <path d="M 70 355.8 L 70.5 358.5 L 73.2 359 L 70.5 359.5 L 70 362.2 L 69.5 359.5 L 66.8 359 L 69.5 358.5 Z" fill="#d4af6a" opacity="0.8"/>
  <text x="84" y="364.0" font-family="Helvetica, Arial, sans-serif" font-size="16" fill="#a59cc0">Lives or dies on the result</text>
  <path d="M 70 384.8 L 70.5 387.5 L 73.2 388 L 70.5 388.5 L 70 391.2 L 69.5 388.5 L 66.8 388 L 69.5 387.5 Z" fill="#d4af6a" opacity="0.8"/>
  <text x="84" y="393.0" font-family="Helvetica, Arial, sans-serif" font-size="16" fill="#a59cc0">Offers false comfort of a forecast</text>
  <path d="M 380 419.5 L 380.7 423.3 L 384.5 424 L 380.7 424.7 L 380 428.5 L 379.3 424.7 L 375.5 424 L 379.3 423.3 Z" fill="#d4af6a" opacity="0.65"/>
  <rect x="46" y="437" width="668" height="143.0" rx="14" fill="#1d1740" fill-opacity="0.5" stroke="#d4af6a" stroke-opacity="0.22" stroke-width="0.9"/>
  <rect x="46" y="437" width="3.5" height="143.0" rx="1.8" fill="#d4af6a" fill-opacity="0.6"/>
  <path d="M 47.75 446.6 L 48.3 449.5 L 51.1 450 L 48.3 450.5 L 47.75 453.4 L 47.2 450.5 L 44.4 450 L 47.2 449.5 Z" fill="#f6e6bf" opacity="0.7"/>
  <text x="380" y="466.0" text-anchor="middle" font-family="Georgia, 'Times New Roman', serif" font-size="21" font-weight="700" letter-spacing="0.3" fill="#f3effb">Full player chart reading</text>
  <path d="M 70 495.8 L 70.5 498.5 L 73.2 499 L 70.5 499.5 L 70 502.2 L 69.5 499.5 L 66.8 499 L 69.5 498.5 Z" fill="#d4af6a" opacity="0.8"/>
  <text x="84" y="504.0" font-family="Helvetica, Arial, sans-serif" font-size="16" fill="#a59cc0">Needs a recorded birth time, not public</text>
  <path d="M 70 524.8 L 70.5 527.5 L 73.2 528 L 70.5 528.5 L 70 531.2 L 69.5 528.5 L 66.8 528 L 69.5 527.5 Z" fill="#d4af6a" opacity="0.8"/>
  <text x="84" y="533.0" font-family="Helvetica, Arial, sans-serif" font-size="16" fill="#a59cc0">Would weigh Moon and Ascendant</text>
  <path d="M 70 553.8 L 70.5 556.5 L 73.2 557 L 70.5 557.5 L 70 560.2 L 69.5 557.5 L 66.8 557 L 69.5 556.5 Z" fill="#d4af6a" opacity="0.8"/>
  <text x="84" y="562.0" font-family="Helvetica, Arial, sans-serif" font-size="16" fill="#a59cc0">Invents data this method refuses</text>
  <path d="M 202.22749999999988 585.4 L 202.6 587.6 L 204.8 588 L 202.6 588.4 L 202.22749999999988 590.6 L 201.8 588.4 L 199.6 588 L 201.8 587.6 Z" fill="#d4af6a" opacity="0.5"/>
  <text x="380" y="592" text-anchor="middle" font-family="Georgia, 'Times New Roman', serif" font-style="italic" font-size="11.5" fill="#7b738f">A self-reflection framework — tendencies, not predictions</text>
  <path d="M 557.7725000000002 585.4 L 558.2 587.6 L 560.4 588 L 558.2 588.4 L 557.7725000000002 590.6 L 557.4 588.4 L 555.2 588 L 557.4 587.6 Z" fill="#d4af6a" opacity="0.5"/>
</svg>
