<svg xmlns="http://www.w3.org/2000/svg" viewBox="0 0 760 523" role="img" aria-label="5 Signals to Watch: Spain June 21 Chart Pressure">
  <defs>
    <linearGradient id="spainworldcup2026astrology0en-panel" x1="0" y1="0" x2="0.4" y2="1">
      <stop offset="0" stop-color="#1a1433"/><stop offset="0.55" stop-color="#120e26"/><stop offset="1" stop-color="#09081a"/>
    </linearGradient>
    <radialGradient id="spainworldcup2026astrology0en-foil" cx="0.42" cy="0.34" r="0.75">
      <stop offset="0" stop-color="#fbf0d2"/><stop offset="0.5" stop-color="#e8c882"/><stop offset="1" stop-color="#b8923f"/>
    </radialGradient>
    <radialGradient id="spainworldcup2026astrology0en-glow" cx="0.5" cy="0.5" r="0.5">
      <stop offset="0" stop-color="#f6e6bf"/><stop offset="1" stop-color="#f6e6bf" stop-opacity="0"/>
    </radialGradient>
    <radialGradient id="spainworldcup2026astrology0en-neb1" cx="0.5" cy="0.5" r="0.5">
      <stop offset="0" stop-color="#6f4bb0" stop-opacity="0.28"/><stop offset="1" stop-color="#6f4bb0" stop-opacity="0"/>
    </radialGradient>
    <radialGradient id="spainworldcup2026astrology0en-neb2" cx="0.5" cy="0.5" r="0.5">
      <stop offset="0" stop-color="#d4af6a" stop-opacity="0.16"/><stop offset="1" stop-color="#d4af6a" stop-opacity="0"/>
    </radialGradient>
    <linearGradient id="spainworldcup2026astrology0en-rule" x1="0" y1="0" x2="1" y2="0">
      <stop offset="0" stop-color="#d4af6a" stop-opacity="0"/><stop offset="0.5" stop-color="#d4af6a" stop-opacity="0.6"/><stop offset="1" stop-color="#d4af6a" stop-opacity="0"/>
    </linearGradient>
  </defs>
  <rect x="1.5" y="1.5" width="757" height="520" rx="22" fill="url(#spainworldcup2026astrology0en-panel)"/>
  <ellipse cx="198" cy="126" rx="380" ry="178" fill="url(#spainworldcup2026astrology0en-neb1)"/>
  <ellipse cx="623" cy="418" rx="334" ry="167" fill="url(#spainworldcup2026astrology0en-neb2)"/>
  <circle cx="124.5" cy="422.6" r="0.56" fill="#cfc8ea" opacity="0.30"/><circle cx="485.2" cy="490.3" r="0.56" fill="#cfc8ea" opacity="0.53"/><circle cx="525.1" cy="99.8" r="1.29" fill="#cfc8ea" opacity="0.45"/><circle cx="375.4" cy="403.2" r="1.39" fill="#cfc8ea" opacity="0.29"/><circle cx="108.2" cy="32.1" r="0.42" fill="#cfc8ea" opacity="0.23"/><circle cx="670.4" cy="467.0" r="1.17" fill="#cfc8ea" opacity="0.18"/><circle cx="634.0" cy="308.7" r="0.61" fill="#cfc8ea" opacity="0.19"/><circle cx="209.5" cy="79.1" r="1.43" fill="#cfc8ea" opacity="0.20"/><circle cx="568.6" cy="440.1" r="0.98" fill="#cfc8ea" opacity="0.48"/><circle cx="609.7" cy="101.6" r="1.50" fill="#cfc8ea" opacity="0.27"/><circle cx="140.5" cy="463.8" r="1.18" fill="#cfc8ea" opacity="0.23"/><circle cx="299.4" cy="452.7" r="1.06" fill="#cfc8ea" opacity="0.19"/><circle cx="223.5" cy="334.2" r="1.44" fill="#cfc8ea" opacity="0.50"/><circle cx="202.6" cy="328.0" r="1.27" fill="#cfc8ea" opacity="0.44"/><circle cx="315.8" cy="200.8" r="1.60" fill="#cfc8ea" opacity="0.27"/><circle cx="312.8" cy="424.8" r="1.01" fill="#cfc8ea" opacity="0.34"/><circle cx="736.2" cy="174.2" r="0.93" fill="#cfc8ea" opacity="0.28"/><circle cx="197.3" cy="326.4" r="1.23" fill="#cfc8ea" opacity="0.41"/><circle cx="318.4" cy="152.7" r="0.64" fill="#cfc8ea" opacity="0.12"/><circle cx="671.8" cy="358.2" r="0.70" fill="#cfc8ea" opacity="0.13"/><circle cx="116.2" cy="397.2" r="0.91" fill="#cfc8ea" opacity="0.28"/><circle cx="527.8" cy="382.4" r="1.48" fill="#cfc8ea" opacity="0.14"/><circle cx="184.2" cy="223.8" r="1.62" fill="#cfc8ea" opacity="0.34"/><circle cx="721.1" cy="326.7" r="1.28" fill="#cfc8ea" opacity="0.51"/><circle cx="576.4" cy="42.9" r="1.61" fill="#cfc8ea" opacity="0.49"/><circle cx="616.2" cy="353.4" r="1.12" fill="#cfc8ea" opacity="0.26"/><circle cx="293.5" cy="486.1" r="0.97" fill="#cfc8ea" opacity="0.32"/><circle cx="361.4" cy="212.3" r="0.43" fill="#cfc8ea" opacity="0.24"/><circle cx="83.4" cy="110.7" r="0.81" fill="#cfc8ea" opacity="0.16"/><circle cx="86.6" cy="18.5" r="1.36" fill="#cfc8ea" opacity="0.52"/><circle cx="130.8" cy="90.0" r="1.15" fill="#cfc8ea" opacity="0.47"/><circle cx="743.3" cy="254.8" r="0.55" fill="#cfc8ea" opacity="0.18"/><circle cx="319.3" cy="115.6" r="0.82" fill="#cfc8ea" opacity="0.32"/><circle cx="729.5" cy="227.9" r="1.10" fill="#cfc8ea" opacity="0.20"/><circle cx="76.0" cy="184.9" r="1.53" fill="#cfc8ea" opacity="0.47"/><circle cx="537.6" cy="284.4" r="1.58" fill="#cfc8ea" opacity="0.13"/><circle cx="660.5" cy="389.2" r="1.37" fill="#cfc8ea" opacity="0.38"/><circle cx="438.7" cy="399.9" r="0.92" fill="#cfc8ea" opacity="0.17"/><circle cx="579.4" cy="503.9" r="1.39" fill="#cfc8ea" opacity="0.26"/><circle cx="672.7" cy="483.5" r="0.73" fill="#cfc8ea" opacity="0.47"/><circle cx="218.3" cy="340.7" r="0.67" fill="#cfc8ea" opacity="0.32"/><circle cx="196.7" cy="14.6" r="1.24" fill="#cfc8ea" opacity="0.23"/><circle cx="619.8" cy="347.2" r="0.59" fill="#cfc8ea" opacity="0.51"/><circle cx="439.6" cy="159.8" r="0.97" fill="#cfc8ea" opacity="0.40"/><path d="M 727.2926428001374 477.4 L 727.8 480.0 L 730.5 480.5200818050653 L 727.8 481.0 L 727.2926428001374 483.7 L 726.8 481.0 L 724.1 480.5200818050653 L 726.8 480.0 Z" fill="#f6e6bf" opacity="0.7868277370464056"/><path d="M 39.84821288846433 324.8 L 40.4 327.8 L 43.5 328.41723816562444 L 40.4 329.0 L 39.84821288846433 332.1 L 39.3 329.0 L 36.2 328.41723816562444 L 39.3 327.8 Z" fill="#f6e6bf" opacity="0.5799925296101719"/><path d="M 103.77195884101093 86.5 L 104.3 89.4 L 107.2 89.91404173523188 L 104.3 90.5 L 103.77195884101093 93.3 L 103.2 90.5 L 100.4 89.91404173523188 L 103.2 89.4 Z" fill="#f6e6bf" opacity="0.707298539346084"/><path d="M 676.1150490995497 346.4 L 676.7 349.3 L 679.6 349.8655995829031 L 676.7 350.4 L 676.1150490995497 353.4 L 675.6 350.4 L 672.6 349.8655995829031 L 675.6 349.3 Z" fill="#f6e6bf" opacity="0.670939574809745"/><path d="M 177.56888037733734 34.8 L 178.2 38.2 L 181.5 38.79594501666725 L 178.2 39.4 L 177.56888037733734 42.8 L 176.9 39.4 L 173.6 38.79594501666725 L 176.9 38.2 Z" fill="#f6e6bf" opacity="0.7080181207042188"/><path d="M 671.8 358.2 L 576.4 42.9 L 130.8 90.0 L 319.3 115.6 L 660.5 389.2" fill="none" stroke="#d4af6a" stroke-width="0.6" opacity="0.12"/>
  <rect x="1.5" y="1.5" width="757" height="520" rx="22" fill="none" stroke="#d4af6a" stroke-opacity="0.34" stroke-width="1.2"/>
  <rect x="7" y="7" width="746" height="509" rx="17" fill="none" stroke="#d4af6a" stroke-opacity="0.12" stroke-width="0.8"/>
  <path d="M 16 12.8 L 16.5 15.5 L 19.2 16 L 16.5 16.5 L 16 19.2 L 15.5 16.5 L 12.8 16 L 15.5 15.5 Z" fill="#d4af6a" opacity="0.4"/><path d="M 744 12.8 L 744.5 15.5 L 747.2 16 L 744.5 16.5 L 744 19.2 L 743.5 16.5 L 740.8 16 L 743.5 15.5 Z" fill="#d4af6a" opacity="0.4"/><path d="M 16 503.8 L 16.5 506.5 L 19.2 507 L 16.5 507.5 L 16 510.2 L 15.5 507.5 L 12.8 507 L 15.5 506.5 Z" fill="#d4af6a" opacity="0.4"/><path d="M 744 503.8 L 744.5 506.5 L 747.2 507 L 744.5 507.5 L 744 510.2 L 743.5 507.5 L 740.8 507 L 743.5 506.5 Z" fill="#d4af6a" opacity="0.4"/>
  <text x="380" y="46" text-anchor="middle" font-family="Georgia, 'Times New Roman', serif" font-size="22" letter-spacing="0.4" fill="#efeaf8">5 Signals to Watch: Spain June 21 Chart Pressure</text>
  <line x1="230" y1="67" x2="368" y2="67" stroke="url(#spainworldcup2026astrology0en-rule)" stroke-width="1"/>
  <line x1="392" y1="67" x2="530" y2="67" stroke="url(#spainworldcup2026astrology0en-rule)" stroke-width="1"/>
  <path d="M 380 62.0 L 380.8 66.2 L 385.0 67 L 380.8 67.8 L 380 72.0 L 379.2 67.8 L 375.0 67 L 379.2 66.2 Z" fill="#d4af6a" opacity="0.85"/>
  <line x1="76" y1="121" x2="76" y2="433" stroke="#d4af6a" stroke-opacity="0.28" stroke-width="1.5"/>
  <circle cx="76" cy="121" r="20.0" fill="url(#spainworldcup2026astrology0en-glow)" opacity="0.5"/>
    <circle cx="76" cy="121" r="15" fill="url(#spainworldcup2026astrology0en-foil)" stroke="#f6e6bf" stroke-opacity="0.5" stroke-width="0.8"/>
    <circle cx="76" cy="116.8" r="9.0" fill="#ffffff" opacity="0.10"/>
    <text x="76" y="125.5" text-anchor="middle" font-family="Georgia, 'Times New Roman', serif" font-size="13" font-weight="700" fill="#3a2c12">1</text>
  <text x="116" y="117.0" font-family="Georgia, 'Times New Roman', serif" font-size="22" letter-spacing="0.3" fill="#f3effb">Urgency Activates</text>
  <text x="116" y="139.0" font-family="Helvetica, Arial, sans-serif" font-size="15.5" fill="#a59cc0">Does match pressure make Spain more urgent or more cautious? Activation signals</text>
  <text x="116" y="157.0" font-family="Helvetica, Arial, sans-serif" font-size="15.5" fill="#a59cc0">the opposition beginning to resolve.</text>
  <circle cx="76" cy="199" r="20.0" fill="url(#spainworldcup2026astrology0en-glow)" opacity="0.5"/>
    <circle cx="76" cy="199" r="15" fill="url(#spainworldcup2026astrology0en-foil)" stroke="#f6e6bf" stroke-opacity="0.5" stroke-width="0.8"/>
    <circle cx="76" cy="194.8" r="9.0" fill="#ffffff" opacity="0.10"/>
    <text x="76" y="203.5" text-anchor="middle" font-family="Georgia, 'Times New Roman', serif" font-size="13" font-weight="700" fill="#3a2c12">2</text>
  <text x="116" y="195.0" font-family="Georgia, 'Times New Roman', serif" font-size="22" letter-spacing="0.3" fill="#f3effb">Earned Possession</text>
  <text x="116" y="217.0" font-family="Helvetica, Arial, sans-serif" font-size="15.5" fill="#a59cc0">Does every passing sequence carry genuine intentionality — earned, not</text>
  <text x="116" y="235.0" font-family="Helvetica, Arial, sans-serif" font-size="15.5" fill="#a59cc0">inherited? Inherited possession looks labored under transit pressure.</text>
  <circle cx="76" cy="277" r="20.0" fill="url(#spainworldcup2026astrology0en-glow)" opacity="0.5"/>
    <circle cx="76" cy="277" r="15" fill="url(#spainworldcup2026astrology0en-foil)" stroke="#f6e6bf" stroke-opacity="0.5" stroke-width="0.8"/>
    <circle cx="76" cy="272.8" r="9.0" fill="#ffffff" opacity="0.10"/>
    <text x="76" y="281.5" text-anchor="middle" font-family="Georgia, 'Times New Roman', serif" font-size="13" font-weight="700" fill="#3a2c12">3</text>
  <text x="116" y="273.0" font-family="Georgia, 'Times New Roman', serif" font-size="22" letter-spacing="0.3" fill="#f3effb">Finishing and Discipline Together</text>
  <text x="116" y="295.0" font-family="Helvetica, Arial, sans-serif" font-size="15.5" fill="#a59cc0">June 15 showed possession intact but finishing absent. Both arriving together</text>
  <text x="116" y="313.0" font-family="Helvetica, Arial, sans-serif" font-size="15.5" fill="#a59cc0">signals Cancer-Capricorn opposition integrating.</text>
  <circle cx="76" cy="355" r="20.0" fill="url(#spainworldcup2026astrology0en-glow)" opacity="0.5"/>
    <circle cx="76" cy="355" r="15" fill="url(#spainworldcup2026astrology0en-foil)" stroke="#f6e6bf" stroke-opacity="0.5" stroke-width="0.8"/>
    <circle cx="76" cy="350.8" r="9.0" fill="#ffffff" opacity="0.10"/>
    <text x="76" y="359.5" text-anchor="middle" font-family="Georgia, 'Times New Roman', serif" font-size="13" font-weight="700" fill="#3a2c12">4</text>
  <text x="116" y="351.0" font-family="Georgia, 'Times New Roman', serif" font-size="22" letter-spacing="0.3" fill="#f3effb">Unscripted Risk Rewarded</text>
  <text x="116" y="373.0" font-family="Helvetica, Arial, sans-serif" font-size="15.5" fill="#a59cc0">Does La Roja take the trusting through ball over the managed pass? Paid-off</text>
  <text x="116" y="391.0" font-family="Helvetica, Arial, sans-serif" font-size="15.5" fill="#a59cc0">responsive risk signals the transit entering resolution phase.</text>
  <circle cx="76" cy="433" r="20.0" fill="url(#spainworldcup2026astrology0en-glow)" opacity="0.5"/>
    <circle cx="76" cy="433" r="15" fill="url(#spainworldcup2026astrology0en-foil)" stroke="#f6e6bf" stroke-opacity="0.5" stroke-width="0.8"/>
    <circle cx="76" cy="428.8" r="9.0" fill="#ffffff" opacity="0.10"/>
    <text x="76" y="437.5" text-anchor="middle" font-family="Georgia, 'Times New Roman', serif" font-size="13" font-weight="700" fill="#3a2c12">5</text>
  <text x="116" y="429.0" font-family="Georgia, 'Times New Roman', serif" font-size="22" letter-spacing="0.3" fill="#f3effb">Second Half Authentic Energy</text>
  <text x="116" y="451.0" font-family="Helvetica, Arial, sans-serif" font-size="15.5" fill="#a59cc0">Capricorn-associated charts under opposition often produce cautious first</text>
  <text x="116" y="469.0" font-family="Helvetica, Arial, sans-serif" font-size="15.5" fill="#a59cc0">halves. The chart's real expression arrives when necessity can no longer be de…</text>
  <path d="M 202.22749999999988 494.4 L 202.6 496.6 L 204.8 497 L 202.6 497.4 L 202.22749999999988 499.6 L 201.8 497.4 L 199.6 497 L 201.8 496.6 Z" fill="#d4af6a" opacity="0.5"/>
  <text x="380" y="501" text-anchor="middle" font-family="Georgia, 'Times New Roman', serif" font-style="italic" font-size="11.5" fill="#7b738f">A self-reflection framework — tendencies, not predictions</text>
  <path d="M 557.7725000000002 494.4 L 558.2 496.6 L 560.4 497 L 558.2 497.4 L 557.7725000000002 499.6 L 557.4 497.4 L 555.2 497 L 557.4 496.6 Z" fill="#d4af6a" opacity="0.5"/>
</svg>
