<svg xmlns="http://www.w3.org/2000/svg" viewBox="0 0 760 503" role="img" aria-label="Solar Eclipse vs Lunar Eclipse: How They Work Differently">
  <defs>
    <linearGradient id="totalsolareclipse20260en-panel" x1="0" y1="0" x2="0.4" y2="1">
      <stop offset="0" stop-color="#1a1433"/><stop offset="0.55" stop-color="#120e26"/><stop offset="1" stop-color="#09081a"/>
    </linearGradient>
    <radialGradient id="totalsolareclipse20260en-foil" cx="0.42" cy="0.34" r="0.75">
      <stop offset="0" stop-color="#fbf0d2"/><stop offset="0.5" stop-color="#e8c882"/><stop offset="1" stop-color="#b8923f"/>
    </radialGradient>
    <radialGradient id="totalsolareclipse20260en-glow" cx="0.5" cy="0.5" r="0.5">
      <stop offset="0" stop-color="#f6e6bf"/><stop offset="1" stop-color="#f6e6bf" stop-opacity="0"/>
    </radialGradient>
    <radialGradient id="totalsolareclipse20260en-neb1" cx="0.5" cy="0.5" r="0.5">
      <stop offset="0" stop-color="#6f4bb0" stop-opacity="0.28"/><stop offset="1" stop-color="#6f4bb0" stop-opacity="0"/>
    </radialGradient>
    <radialGradient id="totalsolareclipse20260en-neb2" cx="0.5" cy="0.5" r="0.5">
      <stop offset="0" stop-color="#d4af6a" stop-opacity="0.16"/><stop offset="1" stop-color="#d4af6a" stop-opacity="0"/>
    </radialGradient>
    <linearGradient id="totalsolareclipse20260en-rule" x1="0" y1="0" x2="1" y2="0">
      <stop offset="0" stop-color="#d4af6a" stop-opacity="0"/><stop offset="0.5" stop-color="#d4af6a" stop-opacity="0.6"/><stop offset="1" stop-color="#d4af6a" stop-opacity="0"/>
    </linearGradient>
  </defs>
  <rect x="1.5" y="1.5" width="757" height="500" rx="22" fill="url(#totalsolareclipse20260en-panel)"/>
  <ellipse cx="198" cy="121" rx="380" ry="171" fill="url(#totalsolareclipse20260en-neb1)"/>
  <ellipse cx="623" cy="402" rx="334" ry="161" fill="url(#totalsolareclipse20260en-neb2)"/>
  <circle cx="611.8" cy="416.2" r="0.99" fill="#cfc8ea" opacity="0.40"/><circle cx="31.4" cy="231.2" r="1.18" fill="#cfc8ea" opacity="0.12"/><circle cx="521.7" cy="295.2" r="1.10" fill="#cfc8ea" opacity="0.23"/><circle cx="711.7" cy="49.4" r="1.38" fill="#cfc8ea" opacity="0.34"/><circle cx="376.2" cy="458.4" r="1.04" fill="#cfc8ea" opacity="0.34"/><circle cx="445.6" cy="312.7" r="0.54" fill="#cfc8ea" opacity="0.38"/><circle cx="625.2" cy="108.3" r="1.50" fill="#cfc8ea" opacity="0.40"/><circle cx="416.2" cy="350.3" r="0.48" fill="#cfc8ea" opacity="0.18"/><circle cx="244.9" cy="222.6" r="0.62" fill="#cfc8ea" opacity="0.16"/><circle cx="441.1" cy="454.6" r="1.54" fill="#cfc8ea" opacity="0.13"/><circle cx="450.2" cy="363.1" r="1.61" fill="#cfc8ea" opacity="0.17"/><circle cx="254.0" cy="321.7" r="0.75" fill="#cfc8ea" opacity="0.21"/><circle cx="161.3" cy="288.0" r="1.03" fill="#cfc8ea" opacity="0.46"/><circle cx="744.0" cy="112.3" r="1.63" fill="#cfc8ea" opacity="0.17"/><circle cx="304.5" cy="446.2" r="1.50" fill="#cfc8ea" opacity="0.32"/><circle cx="414.0" cy="53.0" r="1.25" fill="#cfc8ea" opacity="0.14"/><circle cx="309.1" cy="173.5" r="1.32" fill="#cfc8ea" opacity="0.18"/><circle cx="104.3" cy="70.3" r="0.69" fill="#cfc8ea" opacity="0.43"/><circle cx="591.9" cy="89.4" r="0.93" fill="#cfc8ea" opacity="0.25"/><circle cx="634.0" cy="474.3" r="1.35" fill="#cfc8ea" opacity="0.33"/><circle cx="40.6" cy="215.7" r="0.88" fill="#cfc8ea" opacity="0.32"/><circle cx="273.6" cy="232.9" r="1.22" fill="#cfc8ea" opacity="0.44"/><circle cx="33.5" cy="416.5" r="0.80" fill="#cfc8ea" opacity="0.51"/><circle cx="525.1" cy="460.6" r="1.05" fill="#cfc8ea" opacity="0.22"/><circle cx="570.1" cy="88.5" r="1.12" fill="#cfc8ea" opacity="0.49"/><circle cx="403.3" cy="115.4" r="0.45" fill="#cfc8ea" opacity="0.45"/><circle cx="673.0" cy="347.7" r="1.38" fill="#cfc8ea" opacity="0.28"/><circle cx="685.5" cy="367.5" r="1.41" fill="#cfc8ea" opacity="0.20"/><circle cx="33.7" cy="45.9" r="1.10" fill="#cfc8ea" opacity="0.48"/><circle cx="701.0" cy="307.2" r="0.45" fill="#cfc8ea" opacity="0.36"/><circle cx="263.3" cy="12.2" r="1.44" fill="#cfc8ea" opacity="0.26"/><circle cx="611.1" cy="270.8" r="0.67" fill="#cfc8ea" opacity="0.16"/><circle cx="617.4" cy="77.9" r="0.96" fill="#cfc8ea" opacity="0.45"/><circle cx="39.1" cy="422.4" r="1.66" fill="#cfc8ea" opacity="0.47"/><circle cx="659.4" cy="431.4" r="1.65" fill="#cfc8ea" opacity="0.45"/><circle cx="638.5" cy="459.8" r="0.45" fill="#cfc8ea" opacity="0.50"/><circle cx="531.0" cy="429.4" r="0.63" fill="#cfc8ea" opacity="0.50"/><circle cx="359.8" cy="193.4" r="1.22" fill="#cfc8ea" opacity="0.19"/><circle cx="673.0" cy="346.4" r="1.51" fill="#cfc8ea" opacity="0.39"/><circle cx="616.4" cy="363.2" r="1.42" fill="#cfc8ea" opacity="0.27"/><circle cx="464.0" cy="344.6" r="1.62" fill="#cfc8ea" opacity="0.51"/><circle cx="731.4" cy="420.5" r="1.31" fill="#cfc8ea" opacity="0.39"/><path d="M 173.64116232842207 284.0 L 174.2 287.2 L 177.4 287.76585915335454 L 174.2 288.4 L 173.64116232842207 291.5 L 173.0 288.4 L 169.9 287.76585915335454 L 173.0 287.2 Z" fill="#f6e6bf" opacity="0.5611135745188222"/><path d="M 606.7631044834852 454.4 L 607.3 457.3 L 610.3 457.90828612376936 L 607.3 458.5 L 606.7631044834852 461.4 L 606.2 458.5 L 603.3 457.90828612376936 L 606.2 457.3 Z" fill="#f6e6bf" opacity="0.5818600234342739"/><path d="M 565.2209792509675 270.2 L 565.8 273.3 L 568.9 273.90930004627444 L 565.8 274.5 L 565.2209792509675 277.6 L 564.6 274.5 L 561.5 273.90930004627444 L 564.6 273.3 Z" fill="#f6e6bf" opacity="0.5966965690022334"/><path d="M 82.34223833680153 239.2 L 82.9 241.9 L 85.6 242.44697551918216 L 82.9 243.0 L 82.34223833680153 245.7 L 81.8 243.0 L 79.1 242.44697551918216 L 81.8 241.9 Z" fill="#f6e6bf" opacity="0.5590332406340167"/><path d="M 199.6664611324668 363.1 L 200.2 365.9 L 203.0 366.3834500985686 L 200.2 366.9 L 199.6664611324668 369.7 L 199.1 366.9 L 196.3 366.3834500985686 L 199.1 365.9 Z" fill="#f6e6bf" opacity="0.7110110705485567"/><path d="M 711.7 49.4 L 441.1 454.6 L 304.5 446.2 L 273.6 232.9 L 33.5 416.5" fill="none" stroke="#d4af6a" stroke-width="0.6" opacity="0.12"/>
  <rect x="1.5" y="1.5" width="757" height="500" rx="22" fill="none" stroke="#d4af6a" stroke-opacity="0.34" stroke-width="1.2"/>
  <rect x="7" y="7" width="746" height="489" rx="17" fill="none" stroke="#d4af6a" stroke-opacity="0.12" stroke-width="0.8"/>
  <path d="M 16 12.8 L 16.5 15.5 L 19.2 16 L 16.5 16.5 L 16 19.2 L 15.5 16.5 L 12.8 16 L 15.5 15.5 Z" fill="#d4af6a" opacity="0.4"/><path d="M 744 12.8 L 744.5 15.5 L 747.2 16 L 744.5 16.5 L 744 19.2 L 743.5 16.5 L 740.8 16 L 743.5 15.5 Z" fill="#d4af6a" opacity="0.4"/><path d="M 16 483.8 L 16.5 486.5 L 19.2 487 L 16.5 487.5 L 16 490.2 L 15.5 487.5 L 12.8 487 L 15.5 486.5 Z" fill="#d4af6a" opacity="0.4"/><path d="M 744 483.8 L 744.5 486.5 L 747.2 487 L 744.5 487.5 L 744 490.2 L 743.5 487.5 L 740.8 487 L 743.5 486.5 Z" fill="#d4af6a" opacity="0.4"/>
  <text x="380" y="46" text-anchor="middle" font-family="Georgia, 'Times New Roman', serif" font-size="22" letter-spacing="0.4" fill="#efeaf8">Solar Eclipse vs Lunar Eclipse: How They Work Differently</text>
  <line x1="230" y1="67" x2="368" y2="67" stroke="url(#totalsolareclipse20260en-rule)" stroke-width="1"/>
  <line x1="392" y1="67" x2="530" y2="67" stroke="url(#totalsolareclipse20260en-rule)" stroke-width="1"/>
  <path d="M 380 62.0 L 380.8 66.2 L 385.0 67 L 380.8 67.8 L 380 72.0 L 379.2 67.8 L 375.0 67 L 379.2 66.2 Z" fill="#d4af6a" opacity="0.85"/>

  <rect x="46" y="99" width="668" height="172.0" rx="14" fill="#1d1740" fill-opacity="0.5" stroke="#d4af6a" stroke-opacity="0.22" stroke-width="0.9"/>
  <rect x="46" y="99" width="3.5" height="172.0" rx="1.8" fill="#d4af6a" fill-opacity="0.6"/>
  <path d="M 47.75 108.6 L 48.3 111.5 L 51.1 112 L 48.3 112.5 L 47.75 115.4 L 47.2 112.5 L 44.4 112 L 47.2 111.5 Z" fill="#f6e6bf" opacity="0.7"/>
  <text x="380" y="128.0" text-anchor="middle" font-family="Georgia, 'Times New Roman', serif" font-size="21" font-weight="700" letter-spacing="0.3" fill="#f3effb">Solar Eclipse (New Moon)</text>
  <path d="M 70 157.8 L 70.5 160.5 L 73.2 161 L 70.5 161.5 L 70 164.2 L 69.5 161.5 L 66.8 161 L 69.5 160.5 Z" fill="#d4af6a" opacity="0.8"/>
  <text x="84" y="166.0" font-family="Helvetica, Arial, sans-serif" font-size="16" fill="#a59cc0">Seeds beginnings and launches</text>
  <path d="M 70 186.8 L 70.5 189.5 L 73.2 190 L 70.5 190.5 L 70 193.2 L 69.5 190.5 L 66.8 190 L 69.5 189.5 Z" fill="#d4af6a" opacity="0.8"/>
  <text x="84" y="195.0" font-family="Helvetica, Arial, sans-serif" font-size="16" fill="#a59cc0">Initiatory energy</text>
  <path d="M 70 215.8 L 70.5 218.5 L 73.2 219 L 70.5 219.5 L 70 222.2 L 69.5 219.5 L 66.8 219 L 69.5 218.5 Z" fill="#d4af6a" opacity="0.8"/>
  <text x="84" y="224.0" font-family="Helvetica, Arial, sans-serif" font-size="16" fill="#a59cc0">&quot;Plant it&quot; moment</text>
  <path d="M 70 244.8 L 70.5 247.5 L 73.2 248 L 70.5 248.5 L 70 251.2 L 69.5 248.5 L 66.8 248 L 69.5 247.5 Z" fill="#d4af6a" opacity="0.8"/>
  <text x="84" y="253.0" font-family="Helvetica, Arial, sans-serif" font-size="16" fill="#a59cc0">Open-ended possibility</text>
  <path d="M 380 279.5 L 380.7 283.3 L 384.5 284 L 380.7 284.7 L 380 288.5 L 379.3 284.7 L 375.5 284 L 379.3 283.3 Z" fill="#d4af6a" opacity="0.65"/>
  <rect x="46" y="297" width="668" height="172.0" rx="14" fill="#1d1740" fill-opacity="0.5" stroke="#d4af6a" stroke-opacity="0.22" stroke-width="0.9"/>
  <rect x="46" y="297" width="3.5" height="172.0" rx="1.8" fill="#d4af6a" fill-opacity="0.6"/>
  <path d="M 47.75 306.6 L 48.3 309.5 L 51.1 310 L 48.3 310.5 L 47.75 313.4 L 47.2 310.5 L 44.4 310 L 47.2 309.5 Z" fill="#f6e6bf" opacity="0.7"/>
  <text x="380" y="326.0" text-anchor="middle" font-family="Georgia, 'Times New Roman', serif" font-size="21" font-weight="700" letter-spacing="0.3" fill="#f3effb">Lunar Eclipse (Full Moon)</text>
  <path d="M 70 355.8 L 70.5 358.5 L 73.2 359 L 70.5 359.5 L 70 362.2 L 69.5 359.5 L 66.8 359 L 69.5 358.5 Z" fill="#d4af6a" opacity="0.8"/>
  <text x="84" y="364.0" font-family="Helvetica, Arial, sans-serif" font-size="16" fill="#a59cc0">Brings things to culmination</text>
  <path d="M 70 384.8 L 70.5 387.5 L 73.2 388 L 70.5 388.5 L 70 391.2 L 69.5 388.5 L 66.8 388 L 69.5 387.5 Z" fill="#d4af6a" opacity="0.8"/>
  <text x="84" y="393.0" font-family="Helvetica, Arial, sans-serif" font-size="16" fill="#a59cc0">Release and visible endings</text>
  <path d="M 70 413.8 L 70.5 416.5 L 73.2 417 L 70.5 417.5 L 70 420.2 L 69.5 417.5 L 66.8 417 L 69.5 416.5 Z" fill="#d4af6a" opacity="0.8"/>
  <text x="84" y="422.0" font-family="Helvetica, Arial, sans-serif" font-size="16" fill="#a59cc0">&quot;Harvest or release it&quot; moment</text>
  <path d="M 70 442.8 L 70.5 445.5 L 73.2 446 L 70.5 446.5 L 70 449.2 L 69.5 446.5 L 66.8 446 L 69.5 445.5 Z" fill="#d4af6a" opacity="0.8"/>
  <text x="84" y="451.0" font-family="Helvetica, Arial, sans-serif" font-size="16" fill="#a59cc0">Closure and clarity</text>
  <path d="M 202.22749999999988 474.4 L 202.6 476.6 L 204.8 477 L 202.6 477.4 L 202.22749999999988 479.6 L 201.8 477.4 L 199.6 477 L 201.8 476.6 Z" fill="#d4af6a" opacity="0.5"/>
  <text x="380" y="481" text-anchor="middle" font-family="Georgia, 'Times New Roman', serif" font-style="italic" font-size="11.5" fill="#7b738f">A self-reflection framework — tendencies, not predictions</text>
  <path d="M 557.7725000000002 474.4 L 558.2 476.6 L 560.4 477 L 558.2 477.4 L 557.7725000000002 479.6 L 557.4 477.4 L 555.2 477 L 557.4 476.6 Z" fill="#d4af6a" opacity="0.5"/>
</svg>
