<svg xmlns="http://www.w3.org/2000/svg" viewBox="0 0 760 487" role="img" aria-label="5 Steps to Read the 2026 Eclipse in Your Birth Chart">
  <defs>
    <linearGradient id="totalsolareclipse20261en-panel" x1="0" y1="0" x2="0.4" y2="1">
      <stop offset="0" stop-color="#1a1433"/><stop offset="0.55" stop-color="#120e26"/><stop offset="1" stop-color="#09081a"/>
    </linearGradient>
    <radialGradient id="totalsolareclipse20261en-foil" cx="0.42" cy="0.34" r="0.75">
      <stop offset="0" stop-color="#fbf0d2"/><stop offset="0.5" stop-color="#e8c882"/><stop offset="1" stop-color="#b8923f"/>
    </radialGradient>
    <radialGradient id="totalsolareclipse20261en-glow" cx="0.5" cy="0.5" r="0.5">
      <stop offset="0" stop-color="#f6e6bf"/><stop offset="1" stop-color="#f6e6bf" stop-opacity="0"/>
    </radialGradient>
    <radialGradient id="totalsolareclipse20261en-neb1" cx="0.5" cy="0.5" r="0.5">
      <stop offset="0" stop-color="#6f4bb0" stop-opacity="0.28"/><stop offset="1" stop-color="#6f4bb0" stop-opacity="0"/>
    </radialGradient>
    <radialGradient id="totalsolareclipse20261en-neb2" cx="0.5" cy="0.5" r="0.5">
      <stop offset="0" stop-color="#d4af6a" stop-opacity="0.16"/><stop offset="1" stop-color="#d4af6a" stop-opacity="0"/>
    </radialGradient>
    <linearGradient id="totalsolareclipse20261en-rule" x1="0" y1="0" x2="1" y2="0">
      <stop offset="0" stop-color="#d4af6a" stop-opacity="0"/><stop offset="0.5" stop-color="#d4af6a" stop-opacity="0.6"/><stop offset="1" stop-color="#d4af6a" stop-opacity="0"/>
    </linearGradient>
  </defs>
  <rect x="1.5" y="1.5" width="757" height="484" rx="22" fill="url(#totalsolareclipse20261en-panel)"/>
  <ellipse cx="198" cy="117" rx="380" ry="166" fill="url(#totalsolareclipse20261en-neb1)"/>
  <ellipse cx="623" cy="390" rx="334" ry="156" fill="url(#totalsolareclipse20261en-neb2)"/>
  <circle cx="152.0" cy="101.6" r="1.64" fill="#cfc8ea" opacity="0.43"/><circle cx="583.4" cy="49.0" r="1.50" fill="#cfc8ea" opacity="0.16"/><circle cx="662.2" cy="277.6" r="1.18" fill="#cfc8ea" opacity="0.14"/><circle cx="657.9" cy="55.4" r="1.46" fill="#cfc8ea" opacity="0.30"/><circle cx="319.1" cy="119.5" r="0.43" fill="#cfc8ea" opacity="0.39"/><circle cx="642.3" cy="157.9" r="0.66" fill="#cfc8ea" opacity="0.45"/><circle cx="350.9" cy="257.4" r="1.40" fill="#cfc8ea" opacity="0.27"/><circle cx="267.4" cy="256.5" r="0.83" fill="#cfc8ea" opacity="0.44"/><circle cx="218.7" cy="82.1" r="1.21" fill="#cfc8ea" opacity="0.25"/><circle cx="228.9" cy="106.1" r="1.27" fill="#cfc8ea" opacity="0.29"/><circle cx="319.3" cy="468.5" r="0.98" fill="#cfc8ea" opacity="0.18"/><circle cx="589.9" cy="303.5" r="1.14" fill="#cfc8ea" opacity="0.40"/><circle cx="185.0" cy="447.1" r="0.49" fill="#cfc8ea" opacity="0.52"/><circle cx="159.9" cy="91.5" r="1.60" fill="#cfc8ea" opacity="0.43"/><circle cx="77.2" cy="168.1" r="0.81" fill="#cfc8ea" opacity="0.14"/><circle cx="541.5" cy="132.0" r="0.88" fill="#cfc8ea" opacity="0.39"/><circle cx="444.7" cy="445.0" r="0.84" fill="#cfc8ea" opacity="0.15"/><circle cx="550.5" cy="289.9" r="0.98" fill="#cfc8ea" opacity="0.14"/><circle cx="168.8" cy="31.7" r="0.56" fill="#cfc8ea" opacity="0.31"/><circle cx="54.3" cy="207.7" r="0.48" fill="#cfc8ea" opacity="0.43"/><circle cx="654.7" cy="63.0" r="1.54" fill="#cfc8ea" opacity="0.15"/><circle cx="133.1" cy="188.1" r="1.09" fill="#cfc8ea" opacity="0.22"/><circle cx="725.7" cy="138.4" r="1.64" fill="#cfc8ea" opacity="0.16"/><circle cx="588.3" cy="318.8" r="0.45" fill="#cfc8ea" opacity="0.48"/><circle cx="519.3" cy="457.3" r="1.41" fill="#cfc8ea" opacity="0.13"/><circle cx="495.9" cy="416.6" r="1.67" fill="#cfc8ea" opacity="0.40"/><circle cx="508.1" cy="338.3" r="1.52" fill="#cfc8ea" opacity="0.51"/><circle cx="380.6" cy="465.3" r="1.32" fill="#cfc8ea" opacity="0.37"/><circle cx="352.7" cy="428.6" r="1.53" fill="#cfc8ea" opacity="0.44"/><circle cx="624.6" cy="57.8" r="0.67" fill="#cfc8ea" opacity="0.21"/><circle cx="173.7" cy="231.2" r="0.60" fill="#cfc8ea" opacity="0.33"/><circle cx="81.6" cy="353.6" r="1.35" fill="#cfc8ea" opacity="0.49"/><circle cx="628.8" cy="137.8" r="1.31" fill="#cfc8ea" opacity="0.38"/><circle cx="435.3" cy="115.3" r="1.59" fill="#cfc8ea" opacity="0.23"/><circle cx="447.1" cy="269.4" r="1.29" fill="#cfc8ea" opacity="0.24"/><circle cx="24.3" cy="134.9" r="1.40" fill="#cfc8ea" opacity="0.51"/><circle cx="485.7" cy="205.1" r="0.78" fill="#cfc8ea" opacity="0.50"/><circle cx="521.5" cy="330.5" r="0.90" fill="#cfc8ea" opacity="0.30"/><circle cx="30.7" cy="55.8" r="1.57" fill="#cfc8ea" opacity="0.30"/><circle cx="726.9" cy="53.2" r="0.44" fill="#cfc8ea" opacity="0.33"/><circle cx="486.3" cy="192.5" r="0.59" fill="#cfc8ea" opacity="0.33"/><path d="M 244.13472116738558 262.7 L 244.6 264.9 L 246.7 265.3205489835236 L 244.6 265.7 L 244.13472116738558 267.9 L 243.7 265.7 L 241.5 265.3205489835236 L 243.7 264.9 Z" fill="#f6e6bf" opacity="0.6750402342295274"/><path d="M 299.1951448917389 310.0 L 299.7 312.6 L 302.3 313.11189328623004 L 299.7 313.6 L 299.1951448917389 316.2 L 298.7 313.6 L 296.1 313.11189328623004 L 298.7 312.6 Z" fill="#f6e6bf" opacity="0.6773662282852456"/><path d="M 724.4820537492633 338.4 L 724.9 340.4 L 726.9 340.8322593497578 L 724.9 341.2 L 724.4820537492633 343.2 L 724.1 341.2 L 722.1 340.8322593497578 L 724.1 340.4 Z" fill="#f6e6bf" opacity="0.5047260464867577"/><path d="M 242.52632962167263 40.3 L 243.0 42.9 L 245.7 43.42580835078843 L 243.0 43.9 L 242.52632962167263 46.6 L 242.0 43.9 L 239.4 43.42580835078843 L 242.0 42.9 Z" fill="#f6e6bf" opacity="0.6578205202473327"/><path d="M 191.41180238872766 469.5 L 191.8 471.5 L 193.8 471.88313014642335 L 191.8 472.3 L 191.41180238872766 474.3 L 191.0 472.3 L 189.0 471.88313014642335 L 191.0 471.5 Z" fill="#f6e6bf" opacity="0.774824159569107"/><path d="M 350.9 257.4 L 508.1 338.3 L 380.6 465.3 L 352.7 428.6" fill="none" stroke="#d4af6a" stroke-width="0.6" opacity="0.12"/>
  <rect x="1.5" y="1.5" width="757" height="484" rx="22" fill="none" stroke="#d4af6a" stroke-opacity="0.34" stroke-width="1.2"/>
  <rect x="7" y="7" width="746" height="473" rx="17" fill="none" stroke="#d4af6a" stroke-opacity="0.12" stroke-width="0.8"/>
  <path d="M 16 12.8 L 16.5 15.5 L 19.2 16 L 16.5 16.5 L 16 19.2 L 15.5 16.5 L 12.8 16 L 15.5 15.5 Z" fill="#d4af6a" opacity="0.4"/><path d="M 744 12.8 L 744.5 15.5 L 747.2 16 L 744.5 16.5 L 744 19.2 L 743.5 16.5 L 740.8 16 L 743.5 15.5 Z" fill="#d4af6a" opacity="0.4"/><path d="M 16 467.8 L 16.5 470.5 L 19.2 471 L 16.5 471.5 L 16 474.2 L 15.5 471.5 L 12.8 471 L 15.5 470.5 Z" fill="#d4af6a" opacity="0.4"/><path d="M 744 467.8 L 744.5 470.5 L 747.2 471 L 744.5 471.5 L 744 474.2 L 743.5 471.5 L 740.8 471 L 743.5 470.5 Z" fill="#d4af6a" opacity="0.4"/>
  <text x="380" y="46" text-anchor="middle" font-family="Georgia, 'Times New Roman', serif" font-size="22" letter-spacing="0.4" fill="#efeaf8">5 Steps to Read the 2026 Eclipse in Your Birth Chart</text>
  <line x1="230" y1="67" x2="368" y2="67" stroke="url(#totalsolareclipse20261en-rule)" stroke-width="1"/>
  <line x1="392" y1="67" x2="530" y2="67" stroke="url(#totalsolareclipse20261en-rule)" stroke-width="1"/>
  <path d="M 380 62.0 L 380.8 66.2 L 385.0 67 L 380.8 67.8 L 380 72.0 L 379.2 67.8 L 375.0 67 L 379.2 66.2 Z" fill="#d4af6a" opacity="0.85"/>
  <line x1="76" y1="121" x2="76" y2="397" stroke="#d4af6a" stroke-opacity="0.28" stroke-width="1.5"/>
  <circle cx="76" cy="121" r="20.0" fill="url(#totalsolareclipse20261en-glow)" opacity="0.5"/>
    <circle cx="76" cy="121" r="15" fill="url(#totalsolareclipse20261en-foil)" stroke="#f6e6bf" stroke-opacity="0.5" stroke-width="0.8"/>
    <circle cx="76" cy="116.8" r="9.0" fill="#ffffff" opacity="0.10"/>
    <text x="76" y="125.5" text-anchor="middle" font-family="Georgia, 'Times New Roman', serif" font-size="13" font-weight="700" fill="#3a2c12">1</text>
  <text x="116" y="117.0" font-family="Georgia, 'Times New Roman', serif" font-size="22" letter-spacing="0.3" fill="#f3effb">Find the Leo House</text>
  <text x="116" y="139.0" font-family="Helvetica, Arial, sans-serif" font-size="15.5" fill="#a59cc0">Locate the house holding ~20° Leo — that life area surfaces the reset theme</text>
  <circle cx="76" cy="181" r="20.0" fill="url(#totalsolareclipse20261en-glow)" opacity="0.5"/>
    <circle cx="76" cy="181" r="15" fill="url(#totalsolareclipse20261en-foil)" stroke="#f6e6bf" stroke-opacity="0.5" stroke-width="0.8"/>
    <circle cx="76" cy="176.8" r="9.0" fill="#ffffff" opacity="0.10"/>
    <text x="76" y="185.5" text-anchor="middle" font-family="Georgia, 'Times New Roman', serif" font-size="13" font-weight="700" fill="#3a2c12">2</text>
  <text x="116" y="177.0" font-family="Georgia, 'Times New Roman', serif" font-size="22" letter-spacing="0.3" fill="#f3effb">Check Natal Planets</text>
  <text x="116" y="199.0" font-family="Helvetica, Arial, sans-serif" font-size="15.5" fill="#a59cc0">Note any natal planet near 20° Leo; a close contact makes the eclipse feel</text>
  <text x="116" y="217.0" font-family="Helvetica, Arial, sans-serif" font-size="15.5" fill="#a59cc0">personal</text>
  <circle cx="76" cy="259" r="20.0" fill="url(#totalsolareclipse20261en-glow)" opacity="0.5"/>
    <circle cx="76" cy="259" r="15" fill="url(#totalsolareclipse20261en-foil)" stroke="#f6e6bf" stroke-opacity="0.5" stroke-width="0.8"/>
    <circle cx="76" cy="254.8" r="9.0" fill="#ffffff" opacity="0.10"/>
    <text x="76" y="263.5" text-anchor="middle" font-family="Georgia, 'Times New Roman', serif" font-size="13" font-weight="700" fill="#3a2c12">3</text>
  <text x="116" y="255.0" font-family="Georgia, 'Times New Roman', serif" font-size="22" letter-spacing="0.3" fill="#f3effb">Watch the Two-Week Window</text>
  <text x="116" y="277.0" font-family="Helvetica, Arial, sans-serif" font-size="15.5" fill="#a59cc0">Track developments in the two weeks on either side of August 12, 2026</text>
  <circle cx="76" cy="319" r="20.0" fill="url(#totalsolareclipse20261en-glow)" opacity="0.5"/>
    <circle cx="76" cy="319" r="15" fill="url(#totalsolareclipse20261en-foil)" stroke="#f6e6bf" stroke-opacity="0.5" stroke-width="0.8"/>
    <circle cx="76" cy="314.8" r="9.0" fill="#ffffff" opacity="0.10"/>
    <text x="76" y="323.5" text-anchor="middle" font-family="Georgia, 'Times New Roman', serif" font-size="13" font-weight="700" fill="#3a2c12">4</text>
  <text x="116" y="315.0" font-family="Georgia, 'Times New Roman', serif" font-size="22" letter-spacing="0.3" fill="#f3effb">Track Your Impulses</text>
  <text x="116" y="337.0" font-family="Helvetica, Arial, sans-serif" font-size="15.5" fill="#a59cc0">Notice what you feel pulled to start or reveal rather than what a headline</text>
  <text x="116" y="355.0" font-family="Helvetica, Arial, sans-serif" font-size="15.5" fill="#a59cc0">promises will happen</text>
  <circle cx="76" cy="397" r="20.0" fill="url(#totalsolareclipse20261en-glow)" opacity="0.5"/>
    <circle cx="76" cy="397" r="15" fill="url(#totalsolareclipse20261en-foil)" stroke="#f6e6bf" stroke-opacity="0.5" stroke-width="0.8"/>
    <circle cx="76" cy="392.8" r="9.0" fill="#ffffff" opacity="0.10"/>
    <text x="76" y="401.5" text-anchor="middle" font-family="Georgia, 'Times New Roman', serif" font-size="13" font-weight="700" fill="#3a2c12">5</text>
  <text x="116" y="393.0" font-family="Georgia, 'Times New Roman', serif" font-size="22" letter-spacing="0.3" fill="#f3effb">Journal the Date</text>
  <text x="116" y="415.0" font-family="Helvetica, Arial, sans-serif" font-size="15.5" fill="#a59cc0">Write expectations on August 12 and revisit later to compare with what actually</text>
  <text x="116" y="433.0" font-family="Helvetica, Arial, sans-serif" font-size="15.5" fill="#a59cc0">unfolded</text>
  <path d="M 202.22749999999988 458.4 L 202.6 460.6 L 204.8 461 L 202.6 461.4 L 202.22749999999988 463.6 L 201.8 461.4 L 199.6 461 L 201.8 460.6 Z" fill="#d4af6a" opacity="0.5"/>
  <text x="380" y="465" text-anchor="middle" font-family="Georgia, 'Times New Roman', serif" font-style="italic" font-size="11.5" fill="#7b738f">A self-reflection framework — tendencies, not predictions</text>
  <path d="M 557.7725000000002 458.4 L 558.2 460.6 L 560.4 461 L 558.2 461.4 L 557.7725000000002 463.6 L 557.4 461.4 L 555.2 461 L 557.4 460.6 Z" fill="#d4af6a" opacity="0.5"/>
</svg>
