<svg xmlns="http://www.w3.org/2000/svg" viewBox="0 0 760 433" role="img" aria-label="Five Steps to a Playful Pick">
  <defs>
    <linearGradient id="toystory5zodiacsigns1en-panel" x1="0" y1="0" x2="0.4" y2="1">
      <stop offset="0" stop-color="#1a1433"/><stop offset="0.55" stop-color="#120e26"/><stop offset="1" stop-color="#09081a"/>
    </linearGradient>
    <radialGradient id="toystory5zodiacsigns1en-foil" cx="0.42" cy="0.34" r="0.75">
      <stop offset="0" stop-color="#fbf0d2"/><stop offset="0.5" stop-color="#e8c882"/><stop offset="1" stop-color="#b8923f"/>
    </radialGradient>
    <radialGradient id="toystory5zodiacsigns1en-glow" cx="0.5" cy="0.5" r="0.5">
      <stop offset="0" stop-color="#f6e6bf"/><stop offset="1" stop-color="#f6e6bf" stop-opacity="0"/>
    </radialGradient>
    <radialGradient id="toystory5zodiacsigns1en-neb1" cx="0.5" cy="0.5" r="0.5">
      <stop offset="0" stop-color="#6f4bb0" stop-opacity="0.28"/><stop offset="1" stop-color="#6f4bb0" stop-opacity="0"/>
    </radialGradient>
    <radialGradient id="toystory5zodiacsigns1en-neb2" cx="0.5" cy="0.5" r="0.5">
      <stop offset="0" stop-color="#d4af6a" stop-opacity="0.16"/><stop offset="1" stop-color="#d4af6a" stop-opacity="0"/>
    </radialGradient>
    <linearGradient id="toystory5zodiacsigns1en-rule" x1="0" y1="0" x2="1" y2="0">
      <stop offset="0" stop-color="#d4af6a" stop-opacity="0"/><stop offset="0.5" stop-color="#d4af6a" stop-opacity="0.6"/><stop offset="1" stop-color="#d4af6a" stop-opacity="0"/>
    </linearGradient>
  </defs>
  <rect x="1.5" y="1.5" width="757" height="430" rx="22" fill="url(#toystory5zodiacsigns1en-panel)"/>
  <ellipse cx="198" cy="104" rx="380" ry="147" fill="url(#toystory5zodiacsigns1en-neb1)"/>
  <ellipse cx="623" cy="346" rx="334" ry="139" fill="url(#toystory5zodiacsigns1en-neb2)"/>
  <circle cx="352.4" cy="378.0" r="1.21" fill="#cfc8ea" opacity="0.45"/><circle cx="331.9" cy="266.8" r="0.54" fill="#cfc8ea" opacity="0.48"/><circle cx="723.7" cy="396.5" r="1.23" fill="#cfc8ea" opacity="0.17"/><circle cx="632.6" cy="261.4" r="0.73" fill="#cfc8ea" opacity="0.22"/><circle cx="540.6" cy="308.7" r="0.64" fill="#cfc8ea" opacity="0.20"/><circle cx="30.9" cy="97.9" r="1.00" fill="#cfc8ea" opacity="0.46"/><circle cx="55.1" cy="251.8" r="1.50" fill="#cfc8ea" opacity="0.44"/><circle cx="614.9" cy="334.9" r="0.73" fill="#cfc8ea" opacity="0.35"/><circle cx="560.0" cy="135.4" r="0.90" fill="#cfc8ea" opacity="0.45"/><circle cx="247.7" cy="291.5" r="1.46" fill="#cfc8ea" opacity="0.50"/><circle cx="678.4" cy="310.1" r="1.19" fill="#cfc8ea" opacity="0.36"/><circle cx="325.0" cy="319.6" r="1.20" fill="#cfc8ea" opacity="0.42"/><circle cx="483.0" cy="368.4" r="1.55" fill="#cfc8ea" opacity="0.24"/><circle cx="132.7" cy="32.3" r="1.67" fill="#cfc8ea" opacity="0.48"/><circle cx="571.5" cy="300.7" r="0.85" fill="#cfc8ea" opacity="0.37"/><circle cx="443.4" cy="187.6" r="0.94" fill="#cfc8ea" opacity="0.17"/><circle cx="490.0" cy="218.3" r="1.53" fill="#cfc8ea" opacity="0.32"/><circle cx="154.0" cy="181.3" r="1.45" fill="#cfc8ea" opacity="0.31"/><circle cx="543.3" cy="297.4" r="0.78" fill="#cfc8ea" opacity="0.19"/><circle cx="510.2" cy="85.1" r="1.11" fill="#cfc8ea" opacity="0.28"/><circle cx="476.8" cy="165.7" r="1.19" fill="#cfc8ea" opacity="0.21"/><circle cx="639.8" cy="251.9" r="1.10" fill="#cfc8ea" opacity="0.53"/><circle cx="548.8" cy="257.1" r="0.89" fill="#cfc8ea" opacity="0.41"/><circle cx="344.1" cy="389.7" r="1.40" fill="#cfc8ea" opacity="0.14"/><circle cx="289.9" cy="271.7" r="0.50" fill="#cfc8ea" opacity="0.18"/><circle cx="532.3" cy="383.0" r="0.99" fill="#cfc8ea" opacity="0.43"/><circle cx="132.2" cy="144.7" r="0.83" fill="#cfc8ea" opacity="0.37"/><circle cx="549.0" cy="303.0" r="1.30" fill="#cfc8ea" opacity="0.34"/><circle cx="645.9" cy="368.1" r="1.51" fill="#cfc8ea" opacity="0.28"/><circle cx="226.9" cy="315.0" r="1.47" fill="#cfc8ea" opacity="0.26"/><circle cx="573.6" cy="293.7" r="1.34" fill="#cfc8ea" opacity="0.45"/><circle cx="190.9" cy="325.1" r="1.23" fill="#cfc8ea" opacity="0.24"/><circle cx="562.0" cy="193.1" r="1.40" fill="#cfc8ea" opacity="0.25"/><circle cx="45.5" cy="156.5" r="0.70" fill="#cfc8ea" opacity="0.28"/><circle cx="607.8" cy="116.0" r="0.44" fill="#cfc8ea" opacity="0.14"/><circle cx="210.5" cy="157.3" r="1.29" fill="#cfc8ea" opacity="0.50"/><circle cx="554.3" cy="90.6" r="1.68" fill="#cfc8ea" opacity="0.37"/><path d="M 61.633423160761595 55.9 L 62.2 58.8 L 65.1 59.36453451146372 L 62.2 59.9 L 61.633423160761595 62.8 L 61.1 59.9 L 58.2 59.36453451146372 L 61.1 58.8 Z" fill="#f6e6bf" opacity="0.7962317312369123"/><path d="M 242.30489898100495 325.1 L 242.9 328.2 L 246.0 328.7839365492109 L 242.9 329.4 L 242.30489898100495 332.4 L 241.7 329.4 L 238.7 328.7839365492109 L 241.7 328.2 Z" fill="#f6e6bf" opacity="0.5540995662333443"/><path d="M 140.50001054629683 201.4 L 141.1 204.7 L 144.4 205.3247031357605 L 141.1 206.0 L 140.50001054629683 209.3 L 139.9 206.0 L 136.6 205.3247031357605 L 139.9 204.7 Z" fill="#f6e6bf" opacity="0.5204669565195218"/><path d="M 335.40041183307767 276.9 L 335.9 279.6 L 338.6 280.1227950884495 L 335.9 280.6 L 335.40041183307767 283.3 L 334.9 280.6 L 332.2 280.1227950884495 L 334.9 279.6 Z" fill="#f6e6bf" opacity="0.673483196948655"/><path d="M 232.51048020645976 201.0 L 233.1 204.2 L 236.3 204.7745499641169 L 233.1 205.4 L 232.51048020645976 208.6 L 231.9 205.4 L 228.7 204.7745499641169 L 231.9 204.2 Z" fill="#f6e6bf" opacity="0.6361839806893841"/>
  <rect x="1.5" y="1.5" width="757" height="430" rx="22" fill="none" stroke="#d4af6a" stroke-opacity="0.34" stroke-width="1.2"/>
  <rect x="7" y="7" width="746" height="419" rx="17" fill="none" stroke="#d4af6a" stroke-opacity="0.12" stroke-width="0.8"/>
  <path d="M 16 12.8 L 16.5 15.5 L 19.2 16 L 16.5 16.5 L 16 19.2 L 15.5 16.5 L 12.8 16 L 15.5 15.5 Z" fill="#d4af6a" opacity="0.4"/><path d="M 744 12.8 L 744.5 15.5 L 747.2 16 L 744.5 16.5 L 744 19.2 L 743.5 16.5 L 740.8 16 L 743.5 15.5 Z" fill="#d4af6a" opacity="0.4"/><path d="M 16 413.8 L 16.5 416.5 L 19.2 417 L 16.5 417.5 L 16 420.2 L 15.5 417.5 L 12.8 417 L 15.5 416.5 Z" fill="#d4af6a" opacity="0.4"/><path d="M 744 413.8 L 744.5 416.5 L 747.2 417 L 744.5 417.5 L 744 420.2 L 743.5 417.5 L 740.8 417 L 743.5 416.5 Z" fill="#d4af6a" opacity="0.4"/>
  <text x="380" y="46" text-anchor="middle" font-family="Georgia, 'Times New Roman', serif" font-size="22" letter-spacing="0.4" fill="#efeaf8">Five Steps to a Playful Pick</text>
  <line x1="230" y1="67" x2="368" y2="67" stroke="url(#toystory5zodiacsigns1en-rule)" stroke-width="1"/>
  <line x1="392" y1="67" x2="530" y2="67" stroke="url(#toystory5zodiacsigns1en-rule)" stroke-width="1"/>
  <path d="M 380 62.0 L 380.8 66.2 L 385.0 67 L 380.8 67.8 L 380 72.0 L 379.2 67.8 L 375.0 67 L 379.2 66.2 Z" fill="#d4af6a" opacity="0.85"/>
  <line x1="76" y1="121" x2="76" y2="361" stroke="#d4af6a" stroke-opacity="0.28" stroke-width="1.5"/>
  <circle cx="76" cy="121" r="20.0" fill="url(#toystory5zodiacsigns1en-glow)" opacity="0.5"/>
    <circle cx="76" cy="121" r="15" fill="url(#toystory5zodiacsigns1en-foil)" stroke="#f6e6bf" stroke-opacity="0.5" stroke-width="0.8"/>
    <circle cx="76" cy="116.8" r="9.0" fill="#ffffff" opacity="0.10"/>
    <text x="76" y="125.5" text-anchor="middle" font-family="Georgia, 'Times New Roman', serif" font-size="13" font-weight="700" fill="#3a2c12">1</text>
  <text x="116" y="117.0" font-family="Georgia, 'Times New Roman', serif" font-size="22" letter-spacing="0.3" fill="#f3effb">Start from on-screen traits</text>
  <text x="116" y="139.0" font-family="Helvetica, Arial, sans-serif" font-size="15.5" fill="#a59cc0">Name the trait before the sign</text>
  <circle cx="76" cy="181" r="20.0" fill="url(#toystory5zodiacsigns1en-glow)" opacity="0.5"/>
    <circle cx="76" cy="181" r="15" fill="url(#toystory5zodiacsigns1en-foil)" stroke="#f6e6bf" stroke-opacity="0.5" stroke-width="0.8"/>
    <circle cx="76" cy="176.8" r="9.0" fill="#ffffff" opacity="0.10"/>
    <text x="76" y="185.5" text-anchor="middle" font-family="Georgia, 'Times New Roman', serif" font-size="13" font-weight="700" fill="#3a2c12">2</text>
  <text x="116" y="177.0" font-family="Georgia, 'Times New Roman', serif" font-size="22" letter-spacing="0.3" fill="#f3effb">Pick the fitting archetype</text>
  <text x="116" y="199.0" font-family="Helvetica, Arial, sans-serif" font-size="15.5" fill="#a59cc0">Loyalty reads earth; courage reads fire</text>
  <circle cx="76" cy="241" r="20.0" fill="url(#toystory5zodiacsigns1en-glow)" opacity="0.5"/>
    <circle cx="76" cy="241" r="15" fill="url(#toystory5zodiacsigns1en-foil)" stroke="#f6e6bf" stroke-opacity="0.5" stroke-width="0.8"/>
    <circle cx="76" cy="236.8" r="9.0" fill="#ffffff" opacity="0.10"/>
    <text x="76" y="245.5" text-anchor="middle" font-family="Georgia, 'Times New Roman', serif" font-size="13" font-weight="700" fill="#3a2c12">3</text>
  <text x="116" y="237.0" font-family="Georgia, 'Times New Roman', serif" font-size="22" letter-spacing="0.3" fill="#f3effb">Use the cast's setup</text>
  <text x="116" y="259.0" font-family="Helvetica, Arial, sans-serif" font-size="15.5" fill="#a59cc0">Match new toys, not guesswork</text>
  <circle cx="76" cy="301" r="20.0" fill="url(#toystory5zodiacsigns1en-glow)" opacity="0.5"/>
    <circle cx="76" cy="301" r="15" fill="url(#toystory5zodiacsigns1en-foil)" stroke="#f6e6bf" stroke-opacity="0.5" stroke-width="0.8"/>
    <circle cx="76" cy="296.8" r="9.0" fill="#ffffff" opacity="0.10"/>
    <text x="76" y="305.5" text-anchor="middle" font-family="Georgia, 'Times New Roman', serif" font-size="13" font-weight="700" fill="#3a2c12">4</text>
  <text x="116" y="297.0" font-family="Georgia, 'Times New Roman', serif" font-size="22" letter-spacing="0.3" fill="#f3effb">Keep one sign, stay honest</text>
  <text x="116" y="319.0" font-family="Helvetica, Arial, sans-serif" font-size="15.5" fill="#a59cc0">Say it is a playful pick, not a chart</text>
  <circle cx="76" cy="361" r="20.0" fill="url(#toystory5zodiacsigns1en-glow)" opacity="0.5"/>
    <circle cx="76" cy="361" r="15" fill="url(#toystory5zodiacsigns1en-foil)" stroke="#f6e6bf" stroke-opacity="0.5" stroke-width="0.8"/>
    <circle cx="76" cy="356.8" r="9.0" fill="#ffffff" opacity="0.10"/>
    <text x="76" y="365.5" text-anchor="middle" font-family="Georgia, 'Times New Roman', serif" font-size="13" font-weight="700" fill="#3a2c12">5</text>
  <text x="116" y="357.0" font-family="Georgia, 'Times New Roman', serif" font-size="22" letter-spacing="0.3" fill="#f3effb">Re-check against the writing</text>
  <text x="116" y="379.0" font-family="Helvetica, Arial, sans-serif" font-size="15.5" fill="#a59cc0">Behavior is the tiebreaker, not a birthday</text>
  <path d="M 202.22749999999988 404.4 L 202.6 406.6 L 204.8 407 L 202.6 407.4 L 202.22749999999988 409.6 L 201.8 407.4 L 199.6 407 L 201.8 406.6 Z" fill="#d4af6a" opacity="0.5"/>
  <text x="380" y="411" text-anchor="middle" font-family="Georgia, 'Times New Roman', serif" font-style="italic" font-size="11.5" fill="#7b738f">A self-reflection framework — tendencies, not predictions</text>
  <path d="M 557.7725000000002 404.4 L 558.2 406.6 L 560.4 407 L 558.2 407.4 L 557.7725000000002 409.6 L 557.4 407.4 L 555.2 407 L 557.4 406.6 Z" fill="#d4af6a" opacity="0.5"/>
</svg>
