<svg xmlns="http://www.w3.org/2000/svg" viewBox="0 0 760 614" role="img" aria-label="Three Ways to Read a Sign">
  <defs>
    <linearGradient id="toystory5zodiacsigns0en-panel" x1="0" y1="0" x2="0.4" y2="1">
      <stop offset="0" stop-color="#1a1433"/><stop offset="0.55" stop-color="#120e26"/><stop offset="1" stop-color="#09081a"/>
    </linearGradient>
    <radialGradient id="toystory5zodiacsigns0en-foil" cx="0.42" cy="0.34" r="0.75">
      <stop offset="0" stop-color="#fbf0d2"/><stop offset="0.5" stop-color="#e8c882"/><stop offset="1" stop-color="#b8923f"/>
    </radialGradient>
    <radialGradient id="toystory5zodiacsigns0en-glow" cx="0.5" cy="0.5" r="0.5">
      <stop offset="0" stop-color="#f6e6bf"/><stop offset="1" stop-color="#f6e6bf" stop-opacity="0"/>
    </radialGradient>
    <radialGradient id="toystory5zodiacsigns0en-neb1" cx="0.5" cy="0.5" r="0.5">
      <stop offset="0" stop-color="#6f4bb0" stop-opacity="0.28"/><stop offset="1" stop-color="#6f4bb0" stop-opacity="0"/>
    </radialGradient>
    <radialGradient id="toystory5zodiacsigns0en-neb2" cx="0.5" cy="0.5" r="0.5">
      <stop offset="0" stop-color="#d4af6a" stop-opacity="0.16"/><stop offset="1" stop-color="#d4af6a" stop-opacity="0"/>
    </radialGradient>
    <linearGradient id="toystory5zodiacsigns0en-rule" x1="0" y1="0" x2="1" y2="0">
      <stop offset="0" stop-color="#d4af6a" stop-opacity="0"/><stop offset="0.5" stop-color="#d4af6a" stop-opacity="0.6"/><stop offset="1" stop-color="#d4af6a" stop-opacity="0"/>
    </linearGradient>
  </defs>
  <rect x="1.5" y="1.5" width="757" height="611" rx="22" fill="url(#toystory5zodiacsigns0en-panel)"/>
  <ellipse cx="198" cy="147" rx="380" ry="209" fill="url(#toystory5zodiacsigns0en-neb1)"/>
  <ellipse cx="623" cy="491" rx="334" ry="196" fill="url(#toystory5zodiacsigns0en-neb2)"/>
  <circle cx="76.1" cy="333.5" r="0.57" fill="#cfc8ea" opacity="0.42"/><circle cx="515.9" cy="12.4" r="1.53" fill="#cfc8ea" opacity="0.45"/><circle cx="583.1" cy="576.9" r="1.15" fill="#cfc8ea" opacity="0.26"/><circle cx="686.3" cy="362.6" r="0.65" fill="#cfc8ea" opacity="0.26"/><circle cx="597.7" cy="262.9" r="1.25" fill="#cfc8ea" opacity="0.14"/><circle cx="570.2" cy="320.4" r="0.88" fill="#cfc8ea" opacity="0.38"/><circle cx="329.5" cy="163.8" r="1.60" fill="#cfc8ea" opacity="0.16"/><circle cx="27.7" cy="582.9" r="1.68" fill="#cfc8ea" opacity="0.51"/><circle cx="586.2" cy="360.0" r="1.61" fill="#cfc8ea" opacity="0.36"/><circle cx="459.9" cy="250.6" r="0.42" fill="#cfc8ea" opacity="0.34"/><circle cx="73.3" cy="292.9" r="0.52" fill="#cfc8ea" opacity="0.36"/><circle cx="725.2" cy="465.6" r="0.81" fill="#cfc8ea" opacity="0.23"/><circle cx="459.3" cy="311.7" r="0.79" fill="#cfc8ea" opacity="0.19"/><circle cx="716.8" cy="63.6" r="1.70" fill="#cfc8ea" opacity="0.22"/><circle cx="62.8" cy="174.5" r="1.54" fill="#cfc8ea" opacity="0.14"/><circle cx="315.9" cy="163.0" r="1.31" fill="#cfc8ea" opacity="0.34"/><circle cx="354.3" cy="546.7" r="0.71" fill="#cfc8ea" opacity="0.34"/><circle cx="443.8" cy="563.8" r="1.16" fill="#cfc8ea" opacity="0.19"/><circle cx="230.4" cy="493.9" r="1.15" fill="#cfc8ea" opacity="0.12"/><circle cx="353.9" cy="437.5" r="0.68" fill="#cfc8ea" opacity="0.17"/><circle cx="598.7" cy="419.7" r="0.54" fill="#cfc8ea" opacity="0.38"/><circle cx="44.3" cy="405.7" r="1.24" fill="#cfc8ea" opacity="0.34"/><circle cx="592.6" cy="112.7" r="1.35" fill="#cfc8ea" opacity="0.33"/><circle cx="280.9" cy="128.3" r="0.71" fill="#cfc8ea" opacity="0.30"/><circle cx="340.7" cy="503.4" r="1.51" fill="#cfc8ea" opacity="0.13"/><circle cx="439.7" cy="159.0" r="1.08" fill="#cfc8ea" opacity="0.48"/><circle cx="297.1" cy="201.2" r="0.70" fill="#cfc8ea" opacity="0.14"/><circle cx="118.0" cy="292.0" r="1.40" fill="#cfc8ea" opacity="0.18"/><circle cx="326.9" cy="36.5" r="1.08" fill="#cfc8ea" opacity="0.32"/><circle cx="303.4" cy="164.3" r="1.26" fill="#cfc8ea" opacity="0.41"/><circle cx="663.2" cy="139.4" r="0.87" fill="#cfc8ea" opacity="0.38"/><circle cx="720.5" cy="347.2" r="0.55" fill="#cfc8ea" opacity="0.33"/><circle cx="550.6" cy="194.1" r="1.05" fill="#cfc8ea" opacity="0.31"/><circle cx="385.3" cy="594.3" r="0.77" fill="#cfc8ea" opacity="0.53"/><circle cx="84.1" cy="350.6" r="0.79" fill="#cfc8ea" opacity="0.35"/><circle cx="88.8" cy="26.6" r="1.63" fill="#cfc8ea" opacity="0.50"/><circle cx="599.5" cy="393.4" r="1.52" fill="#cfc8ea" opacity="0.37"/><circle cx="632.5" cy="485.7" r="1.59" fill="#cfc8ea" opacity="0.42"/><circle cx="490.4" cy="240.8" r="0.57" fill="#cfc8ea" opacity="0.28"/><circle cx="604.9" cy="432.3" r="0.65" fill="#cfc8ea" opacity="0.34"/><circle cx="415.3" cy="367.1" r="0.74" fill="#cfc8ea" opacity="0.24"/><circle cx="283.1" cy="322.8" r="1.24" fill="#cfc8ea" opacity="0.17"/><circle cx="362.0" cy="212.8" r="0.66" fill="#cfc8ea" opacity="0.20"/><circle cx="296.5" cy="591.2" r="0.65" fill="#cfc8ea" opacity="0.16"/><circle cx="97.0" cy="231.5" r="0.61" fill="#cfc8ea" opacity="0.50"/><circle cx="255.4" cy="513.3" r="0.90" fill="#cfc8ea" opacity="0.37"/><circle cx="244.4" cy="353.9" r="1.26" fill="#cfc8ea" opacity="0.38"/><circle cx="293.0" cy="212.1" r="0.48" fill="#cfc8ea" opacity="0.22"/><circle cx="506.8" cy="366.7" r="0.90" fill="#cfc8ea" opacity="0.21"/><circle cx="713.4" cy="40.6" r="1.08" fill="#cfc8ea" opacity="0.15"/><circle cx="540.1" cy="339.6" r="0.89" fill="#cfc8ea" opacity="0.40"/><circle cx="472.8" cy="26.8" r="0.80" fill="#cfc8ea" opacity="0.28"/><path d="M 730.4452547878027 120.2 L 730.9 122.7 L 733.4 123.1369873448275 L 730.9 123.6 L 730.4452547878027 126.1 L 730.0 123.6 L 727.5 123.1369873448275 L 730.0 122.7 Z" fill="#f6e6bf" opacity="0.5152321119559928"/><path d="M 263.45676324516535 98.3 L 264.0 101.0 L 266.7 101.49603275535628 L 264.0 102.0 L 263.45676324516535 104.7 L 262.9 102.0 L 260.2 101.49603275535628 L 262.9 101.0 Z" fill="#f6e6bf" opacity="0.7213727094000205"/><path d="M 209.97429212927818 557.2 L 210.4 559.7 L 212.9 560.1262184134685 L 210.4 560.6 L 209.97429212927818 563.0 L 209.5 560.6 L 207.1 560.1262184134685 L 209.5 559.7 Z" fill="#f6e6bf" opacity="0.762802396225743"/><path d="M 330.0059266909957 313.1 L 330.4 315.4 L 332.8 315.84056168748066 L 330.4 316.3 L 330.0059266909957 318.6 L 329.6 316.3 L 327.2 315.84056168748066 L 329.6 315.4 Z" fill="#f6e6bf" opacity="0.6489076880505309"/><path d="M 113.72842283546925 576.3 L 114.3 579.2 L 117.3 579.7779237567447 L 114.3 580.3 L 113.72842283546925 583.3 L 113.2 580.3 L 110.2 579.7779237567447 L 113.2 579.2 Z" fill="#f6e6bf" opacity="0.7389083982212469"/><path d="M 570.2 320.4 L 315.9 163.0 L 439.7 159.0 L 385.3 594.3 L 97.0 231.5" fill="none" stroke="#d4af6a" stroke-width="0.6" opacity="0.12"/>
  <rect x="1.5" y="1.5" width="757" height="611" rx="22" fill="none" stroke="#d4af6a" stroke-opacity="0.34" stroke-width="1.2"/>
  <rect x="7" y="7" width="746" height="600" rx="17" fill="none" stroke="#d4af6a" stroke-opacity="0.12" stroke-width="0.8"/>
  <path d="M 16 12.8 L 16.5 15.5 L 19.2 16 L 16.5 16.5 L 16 19.2 L 15.5 16.5 L 12.8 16 L 15.5 15.5 Z" fill="#d4af6a" opacity="0.4"/><path d="M 744 12.8 L 744.5 15.5 L 747.2 16 L 744.5 16.5 L 744 19.2 L 743.5 16.5 L 740.8 16 L 743.5 15.5 Z" fill="#d4af6a" opacity="0.4"/><path d="M 16 594.8 L 16.5 597.5 L 19.2 598 L 16.5 598.5 L 16 601.2 L 15.5 598.5 L 12.8 598 L 15.5 597.5 Z" fill="#d4af6a" opacity="0.4"/><path d="M 744 594.8 L 744.5 597.5 L 747.2 598 L 744.5 598.5 L 744 601.2 L 743.5 598.5 L 740.8 598 L 743.5 597.5 Z" fill="#d4af6a" opacity="0.4"/>
  <text x="380" y="46" text-anchor="middle" font-family="Georgia, 'Times New Roman', serif" font-size="22" letter-spacing="0.4" fill="#efeaf8">Three Ways to Read a Sign</text>
  <line x1="230" y1="67" x2="368" y2="67" stroke="url(#toystory5zodiacsigns0en-rule)" stroke-width="1"/>
  <line x1="392" y1="67" x2="530" y2="67" stroke="url(#toystory5zodiacsigns0en-rule)" stroke-width="1"/>
  <path d="M 380 62.0 L 380.8 66.2 L 385.0 67 L 380.8 67.8 L 380 72.0 L 379.2 67.8 L 375.0 67 L 379.2 66.2 Z" fill="#d4af6a" opacity="0.85"/>

  <rect x="46" y="99" width="668" height="143.0" rx="14" fill="#1d1740" fill-opacity="0.5" stroke="#d4af6a" stroke-opacity="0.22" stroke-width="0.9"/>
  <rect x="46" y="99" width="3.5" height="143.0" rx="1.8" fill="#d4af6a" fill-opacity="0.6"/>
  <path d="M 47.75 108.6 L 48.3 111.5 L 51.1 112 L 48.3 112.5 L 47.75 115.4 L 47.2 112.5 L 44.4 112 L 47.2 111.5 Z" fill="#f6e6bf" opacity="0.7"/>
  <text x="380" y="128.0" text-anchor="middle" font-family="Georgia, 'Times New Roman', serif" font-size="21" font-weight="700" letter-spacing="0.3" fill="#f3effb">Character-archetype read</text>
  <path d="M 70 157.8 L 70.5 160.5 L 73.2 161 L 70.5 161.5 L 70 164.2 L 69.5 161.5 L 66.8 161 L 69.5 160.5 Z" fill="#d4af6a" opacity="0.8"/>
  <text x="84" y="166.0" font-family="Helvetica, Arial, sans-serif" font-size="16" fill="#a59cc0">Matches a toy to a sign by traits</text>
  <path d="M 70 186.8 L 70.5 189.5 L 73.2 190 L 70.5 190.5 L 70 193.2 L 69.5 190.5 L 66.8 190 L 69.5 189.5 Z" fill="#d4af6a" opacity="0.8"/>
  <text x="84" y="195.0" font-family="Helvetica, Arial, sans-serif" font-size="16" fill="#a59cc0">Instant, shareable fun</text>
  <path d="M 70 215.8 L 70.5 218.5 L 73.2 219 L 70.5 219.5 L 70 222.2 L 69.5 219.5 L 66.8 219 L 69.5 218.5 Z" fill="#d4af6a" opacity="0.8"/>
  <text x="84" y="224.0" font-family="Helvetica, Arial, sans-serif" font-size="16" fill="#a59cc0">No factual grounding, openly symbolic</text>
  <path d="M 380 250.5 L 380.7 254.3 L 384.5 255 L 380.7 255.7 L 380 259.5 L 379.3 255.7 L 375.5 255 L 379.3 254.3 Z" fill="#d4af6a" opacity="0.65"/>
  <rect x="46" y="268" width="668" height="143.0" rx="14" fill="#1d1740" fill-opacity="0.5" stroke="#d4af6a" stroke-opacity="0.22" stroke-width="0.9"/>
  <rect x="46" y="268" width="3.5" height="143.0" rx="1.8" fill="#d4af6a" fill-opacity="0.6"/>
  <path d="M 47.75 277.6 L 48.3 280.5 L 51.1 281 L 48.3 281.5 L 47.75 284.4 L 47.2 281.5 L 44.4 281 L 47.2 280.5 Z" fill="#f6e6bf" opacity="0.7"/>
  <text x="380" y="297.0" text-anchor="middle" font-family="Georgia, 'Times New Roman', serif" font-size="21" font-weight="700" letter-spacing="0.3" fill="#f3effb">Real birth chart</text>
  <path d="M 70 326.8 L 70.5 329.5 L 73.2 330 L 70.5 330.5 L 70 333.2 L 69.5 330.5 L 66.8 330 L 69.5 329.5 Z" fill="#d4af6a" opacity="0.8"/>
  <text x="84" y="335.0" font-family="Helvetica, Arial, sans-serif" font-size="16" fill="#a59cc0">Needs verified date, time, place</text>
  <path d="M 70 355.8 L 70.5 358.5 L 73.2 359 L 70.5 359.5 L 70 362.2 L 69.5 359.5 L 66.8 359 L 69.5 358.5 Z" fill="#d4af6a" opacity="0.8"/>
  <text x="84" y="364.0" font-family="Helvetica, Arial, sans-serif" font-size="16" fill="#a59cc0">Builds Sun, Moon, Ascendant</text>
  <path d="M 70 384.8 L 70.5 387.5 L 73.2 388 L 70.5 388.5 L 70 391.2 L 69.5 388.5 L 66.8 388 L 69.5 387.5 Z" fill="#d4af6a" opacity="0.8"/>
  <text x="84" y="393.0" font-family="Helvetica, Arial, sans-serif" font-size="16" fill="#a59cc0">Precise and falsifiable</text>
  <path d="M 380 419.5 L 380.7 423.3 L 384.5 424 L 380.7 424.7 L 380 428.5 L 379.3 424.7 L 375.5 424 L 379.3 423.3 Z" fill="#d4af6a" opacity="0.65"/>
  <rect x="46" y="437" width="668" height="143.0" rx="14" fill="#1d1740" fill-opacity="0.5" stroke="#d4af6a" stroke-opacity="0.22" stroke-width="0.9"/>
  <rect x="46" y="437" width="3.5" height="143.0" rx="1.8" fill="#d4af6a" fill-opacity="0.6"/>
  <path d="M 47.75 446.6 L 48.3 449.5 L 51.1 450 L 48.3 450.5 L 47.75 453.4 L 47.2 450.5 L 44.4 450 L 47.2 449.5 Z" fill="#f6e6bf" opacity="0.7"/>
  <text x="380" y="466.0" text-anchor="middle" font-family="Georgia, 'Times New Roman', serif" font-size="21" font-weight="700" letter-spacing="0.3" fill="#f3effb">Daily horoscope</text>
  <path d="M 70 495.8 L 70.5 498.5 L 73.2 499 L 70.5 499.5 L 70 502.2 L 69.5 499.5 L 66.8 499 L 69.5 498.5 Z" fill="#d4af6a" opacity="0.8"/>
  <text x="84" y="504.0" font-family="Helvetica, Arial, sans-serif" font-size="16" fill="#a59cc0">Speaks to a shared Sun sign</text>
  <path d="M 70 524.8 L 70.5 527.5 L 73.2 528 L 70.5 528.5 L 70 531.2 L 69.5 528.5 L 66.8 528 L 69.5 527.5 Z" fill="#d4af6a" opacity="0.8"/>
  <text x="84" y="533.0" font-family="Helvetica, Arial, sans-serif" font-size="16" fill="#a59cc0">Reasons forward to advice</text>
  <path d="M 70 553.8 L 70.5 556.5 L 73.2 557 L 70.5 557.5 L 70 560.2 L 69.5 557.5 L 66.8 557 L 69.5 556.5 Z" fill="#d4af6a" opacity="0.8"/>
  <text x="84" y="562.0" font-family="Helvetica, Arial, sans-serif" font-size="16" fill="#a59cc0">Opposite direction from this game</text>
  <path d="M 202.22749999999988 585.4 L 202.6 587.6 L 204.8 588 L 202.6 588.4 L 202.22749999999988 590.6 L 201.8 588.4 L 199.6 588 L 201.8 587.6 Z" fill="#d4af6a" opacity="0.5"/>
  <text x="380" y="592" text-anchor="middle" font-family="Georgia, 'Times New Roman', serif" font-style="italic" font-size="11.5" fill="#7b738f">A self-reflection framework — tendencies, not predictions</text>
  <path d="M 557.7725000000002 585.4 L 558.2 587.6 L 560.4 588 L 558.2 588.4 L 557.7725000000002 590.6 L 557.4 588.4 L 555.2 588 L 557.4 587.6 Z" fill="#d4af6a" opacity="0.5"/>
</svg>
