<svg xmlns="http://www.w3.org/2000/svg" viewBox="0 0 760 433" role="img" aria-label="5 Steps to Reading Your Uranus Opposition">
  <defs>
    <linearGradient id="uranusopposition0en-panel" x1="0" y1="0" x2="0.4" y2="1">
      <stop offset="0" stop-color="#1a1433"/><stop offset="0.55" stop-color="#120e26"/><stop offset="1" stop-color="#09081a"/>
    </linearGradient>
    <radialGradient id="uranusopposition0en-foil" cx="0.42" cy="0.34" r="0.75">
      <stop offset="0" stop-color="#fbf0d2"/><stop offset="0.5" stop-color="#e8c882"/><stop offset="1" stop-color="#b8923f"/>
    </radialGradient>
    <radialGradient id="uranusopposition0en-glow" cx="0.5" cy="0.5" r="0.5">
      <stop offset="0" stop-color="#f6e6bf"/><stop offset="1" stop-color="#f6e6bf" stop-opacity="0"/>
    </radialGradient>
    <radialGradient id="uranusopposition0en-neb1" cx="0.5" cy="0.5" r="0.5">
      <stop offset="0" stop-color="#6f4bb0" stop-opacity="0.28"/><stop offset="1" stop-color="#6f4bb0" stop-opacity="0"/>
    </radialGradient>
    <radialGradient id="uranusopposition0en-neb2" cx="0.5" cy="0.5" r="0.5">
      <stop offset="0" stop-color="#d4af6a" stop-opacity="0.16"/><stop offset="1" stop-color="#d4af6a" stop-opacity="0"/>
    </radialGradient>
    <linearGradient id="uranusopposition0en-rule" x1="0" y1="0" x2="1" y2="0">
      <stop offset="0" stop-color="#d4af6a" stop-opacity="0"/><stop offset="0.5" stop-color="#d4af6a" stop-opacity="0.6"/><stop offset="1" stop-color="#d4af6a" stop-opacity="0"/>
    </linearGradient>
  </defs>
  <rect x="1.5" y="1.5" width="757" height="430" rx="22" fill="url(#uranusopposition0en-panel)"/>
  <ellipse cx="198" cy="104" rx="380" ry="147" fill="url(#uranusopposition0en-neb1)"/>
  <ellipse cx="623" cy="346" rx="334" ry="139" fill="url(#uranusopposition0en-neb2)"/>
  <circle cx="346.2" cy="27.0" r="0.94" fill="#cfc8ea" opacity="0.16"/><circle cx="99.1" cy="221.2" r="1.48" fill="#cfc8ea" opacity="0.14"/><circle cx="104.7" cy="84.8" r="1.18" fill="#cfc8ea" opacity="0.14"/><circle cx="256.6" cy="69.5" r="0.70" fill="#cfc8ea" opacity="0.37"/><circle cx="311.5" cy="391.9" r="1.17" fill="#cfc8ea" opacity="0.30"/><circle cx="75.1" cy="251.4" r="1.54" fill="#cfc8ea" opacity="0.38"/><circle cx="742.1" cy="298.7" r="0.80" fill="#cfc8ea" opacity="0.35"/><circle cx="331.1" cy="270.4" r="1.47" fill="#cfc8ea" opacity="0.16"/><circle cx="135.5" cy="105.4" r="0.69" fill="#cfc8ea" opacity="0.29"/><circle cx="560.3" cy="165.2" r="0.63" fill="#cfc8ea" opacity="0.41"/><circle cx="338.1" cy="38.2" r="1.12" fill="#cfc8ea" opacity="0.38"/><circle cx="408.4" cy="217.8" r="1.45" fill="#cfc8ea" opacity="0.13"/><circle cx="700.3" cy="67.8" r="1.16" fill="#cfc8ea" opacity="0.18"/><circle cx="674.5" cy="370.0" r="0.51" fill="#cfc8ea" opacity="0.20"/><circle cx="196.7" cy="341.3" r="1.69" fill="#cfc8ea" opacity="0.18"/><circle cx="546.0" cy="295.1" r="0.56" fill="#cfc8ea" opacity="0.26"/><circle cx="349.9" cy="296.6" r="1.13" fill="#cfc8ea" opacity="0.18"/><circle cx="105.5" cy="184.0" r="0.77" fill="#cfc8ea" opacity="0.33"/><circle cx="231.6" cy="38.1" r="0.52" fill="#cfc8ea" opacity="0.39"/><circle cx="167.6" cy="129.9" r="0.75" fill="#cfc8ea" opacity="0.53"/><circle cx="578.2" cy="51.8" r="1.28" fill="#cfc8ea" opacity="0.46"/><circle cx="461.2" cy="26.5" r="1.00" fill="#cfc8ea" opacity="0.34"/><circle cx="60.6" cy="215.4" r="1.43" fill="#cfc8ea" opacity="0.17"/><circle cx="535.4" cy="184.6" r="1.21" fill="#cfc8ea" opacity="0.44"/><circle cx="162.8" cy="181.1" r="0.45" fill="#cfc8ea" opacity="0.19"/><circle cx="45.2" cy="58.0" r="1.34" fill="#cfc8ea" opacity="0.35"/><circle cx="28.2" cy="192.2" r="1.40" fill="#cfc8ea" opacity="0.34"/><circle cx="604.6" cy="325.6" r="0.91" fill="#cfc8ea" opacity="0.31"/><circle cx="204.7" cy="197.9" r="1.02" fill="#cfc8ea" opacity="0.15"/><circle cx="419.1" cy="341.8" r="1.43" fill="#cfc8ea" opacity="0.28"/><circle cx="420.6" cy="272.8" r="1.30" fill="#cfc8ea" opacity="0.23"/><circle cx="670.8" cy="82.1" r="1.20" fill="#cfc8ea" opacity="0.29"/><circle cx="29.0" cy="301.1" r="0.65" fill="#cfc8ea" opacity="0.42"/><circle cx="616.0" cy="332.9" r="0.86" fill="#cfc8ea" opacity="0.27"/><circle cx="265.0" cy="62.1" r="1.54" fill="#cfc8ea" opacity="0.33"/><circle cx="433.6" cy="89.0" r="0.93" fill="#cfc8ea" opacity="0.42"/><circle cx="150.0" cy="237.5" r="1.11" fill="#cfc8ea" opacity="0.49"/><path d="M 677.0302485134453 101.6 L 677.5 103.9 L 679.7 104.27067625429481 L 677.5 104.7 L 677.0302485134453 106.9 L 676.6 104.7 L 674.4 104.27067625429481 L 676.6 103.9 Z" fill="#f6e6bf" opacity="0.6380412837956101"/><path d="M 595.3188120853156 132.5 L 595.7 134.6 L 597.8 135.02367669343948 L 595.7 135.4 L 595.3188120853156 137.5 L 594.9 135.4 L 592.8 135.02367669343948 L 594.9 134.6 Z" fill="#f6e6bf" opacity="0.5446653281804175"/><path d="M 79.60269347392023 289.7 L 80.1 292.3 L 82.8 292.8336886325851 L 80.1 293.3 L 79.60269347392023 296.0 L 79.1 293.3 L 76.4 292.8336886325851 L 79.1 292.3 Z" fill="#f6e6bf" opacity="0.6536871348042042"/><path d="M 377.283006189391 215.7 L 377.7 218.1 L 380.2 218.5777836907655 L 377.7 219.0 L 377.283006189391 221.5 L 376.8 219.0 L 374.4 218.5777836907655 L 376.8 218.1 Z" fill="#f6e6bf" opacity="0.7887295741122216"/><path d="M 174.14474435709417 409.7 L 174.6 412.1 L 177.0 412.57923481147736 L 174.6 413.0 L 174.14474435709417 415.4 L 173.7 413.0 L 171.3 412.57923481147736 L 173.7 412.1 Z" fill="#f6e6bf" opacity="0.7981130110565573"/><path d="M 346.2 27.0 L 204.7 197.9 L 419.1 341.8" fill="none" stroke="#d4af6a" stroke-width="0.6" opacity="0.12"/>
  <rect x="1.5" y="1.5" width="757" height="430" rx="22" fill="none" stroke="#d4af6a" stroke-opacity="0.34" stroke-width="1.2"/>
  <rect x="7" y="7" width="746" height="419" rx="17" fill="none" stroke="#d4af6a" stroke-opacity="0.12" stroke-width="0.8"/>
  <path d="M 16 12.8 L 16.5 15.5 L 19.2 16 L 16.5 16.5 L 16 19.2 L 15.5 16.5 L 12.8 16 L 15.5 15.5 Z" fill="#d4af6a" opacity="0.4"/><path d="M 744 12.8 L 744.5 15.5 L 747.2 16 L 744.5 16.5 L 744 19.2 L 743.5 16.5 L 740.8 16 L 743.5 15.5 Z" fill="#d4af6a" opacity="0.4"/><path d="M 16 413.8 L 16.5 416.5 L 19.2 417 L 16.5 417.5 L 16 420.2 L 15.5 417.5 L 12.8 417 L 15.5 416.5 Z" fill="#d4af6a" opacity="0.4"/><path d="M 744 413.8 L 744.5 416.5 L 747.2 417 L 744.5 417.5 L 744 420.2 L 743.5 417.5 L 740.8 417 L 743.5 416.5 Z" fill="#d4af6a" opacity="0.4"/>
  <text x="380" y="46" text-anchor="middle" font-family="Georgia, 'Times New Roman', serif" font-size="22" letter-spacing="0.4" fill="#efeaf8">5 Steps to Reading Your Uranus Opposition</text>
  <line x1="230" y1="67" x2="368" y2="67" stroke="url(#uranusopposition0en-rule)" stroke-width="1"/>
  <line x1="392" y1="67" x2="530" y2="67" stroke="url(#uranusopposition0en-rule)" stroke-width="1"/>
  <path d="M 380 62.0 L 380.8 66.2 L 385.0 67 L 380.8 67.8 L 380 72.0 L 379.2 67.8 L 375.0 67 L 379.2 66.2 Z" fill="#d4af6a" opacity="0.85"/>
  <line x1="76" y1="121" x2="76" y2="361" stroke="#d4af6a" stroke-opacity="0.28" stroke-width="1.5"/>
  <circle cx="76" cy="121" r="20.0" fill="url(#uranusopposition0en-glow)" opacity="0.5"/>
    <circle cx="76" cy="121" r="15" fill="url(#uranusopposition0en-foil)" stroke="#f6e6bf" stroke-opacity="0.5" stroke-width="0.8"/>
    <circle cx="76" cy="116.8" r="9.0" fill="#ffffff" opacity="0.10"/>
    <text x="76" y="125.5" text-anchor="middle" font-family="Georgia, 'Times New Roman', serif" font-size="13" font-weight="700" fill="#3a2c12">1</text>
  <text x="116" y="117.0" font-family="Georgia, 'Times New Roman', serif" font-size="22" letter-spacing="0.3" fill="#f3effb">Locate Natal Uranus</text>
  <text x="116" y="139.0" font-family="Helvetica, Arial, sans-serif" font-size="15.5" fill="#a59cc0">Find its house and sign in your birth chart</text>
  <circle cx="76" cy="181" r="20.0" fill="url(#uranusopposition0en-glow)" opacity="0.5"/>
    <circle cx="76" cy="181" r="15" fill="url(#uranusopposition0en-foil)" stroke="#f6e6bf" stroke-opacity="0.5" stroke-width="0.8"/>
    <circle cx="76" cy="176.8" r="9.0" fill="#ffffff" opacity="0.10"/>
    <text x="76" y="185.5" text-anchor="middle" font-family="Georgia, 'Times New Roman', serif" font-size="13" font-weight="700" fill="#3a2c12">2</text>
  <text x="116" y="177.0" font-family="Georgia, 'Times New Roman', serif" font-size="22" letter-spacing="0.3" fill="#f3effb">Identify the Opposite House</text>
  <text x="116" y="199.0" font-family="Helvetica, Arial, sans-serif" font-size="15.5" fill="#a59cc0">The transiting planet activates this complementary domain at the opposition</text>
  <circle cx="76" cy="241" r="20.0" fill="url(#uranusopposition0en-glow)" opacity="0.5"/>
    <circle cx="76" cy="241" r="15" fill="url(#uranusopposition0en-foil)" stroke="#f6e6bf" stroke-opacity="0.5" stroke-width="0.8"/>
    <circle cx="76" cy="236.8" r="9.0" fill="#ffffff" opacity="0.10"/>
    <text x="76" y="245.5" text-anchor="middle" font-family="Georgia, 'Times New Roman', serif" font-size="13" font-weight="700" fill="#3a2c12">3</text>
  <text x="116" y="237.0" font-family="Georgia, 'Times New Roman', serif" font-size="22" letter-spacing="0.3" fill="#f3effb">Estimate Your Timing Window</text>
  <text x="116" y="259.0" font-family="Helvetica, Arial, sans-serif" font-size="15.5" fill="#a59cc0">Exact near ages 40–42; widen to the 38–44 band for the planet's uneven pace</text>
  <circle cx="76" cy="301" r="20.0" fill="url(#uranusopposition0en-glow)" opacity="0.5"/>
    <circle cx="76" cy="301" r="15" fill="url(#uranusopposition0en-foil)" stroke="#f6e6bf" stroke-opacity="0.5" stroke-width="0.8"/>
    <circle cx="76" cy="296.8" r="9.0" fill="#ffffff" opacity="0.10"/>
    <text x="76" y="305.5" text-anchor="middle" font-family="Georgia, 'Times New Roman', serif" font-size="13" font-weight="700" fill="#3a2c12">4</text>
  <text x="116" y="297.0" font-family="Georgia, 'Times New Roman', serif" font-size="22" letter-spacing="0.3" fill="#f3effb">Read the Activated House</text>
  <text x="116" y="319.0" font-family="Helvetica, Arial, sans-serif" font-size="15.5" fill="#a59cc0">A life area asking for attention, not a forecast of a specific outcome</text>
  <circle cx="76" cy="361" r="20.0" fill="url(#uranusopposition0en-glow)" opacity="0.5"/>
    <circle cx="76" cy="361" r="15" fill="url(#uranusopposition0en-foil)" stroke="#f6e6bf" stroke-opacity="0.5" stroke-width="0.8"/>
    <circle cx="76" cy="356.8" r="9.0" fill="#ffffff" opacity="0.10"/>
    <text x="76" y="365.5" text-anchor="middle" font-family="Georgia, 'Times New Roman', serif" font-size="13" font-weight="700" fill="#3a2c12">5</text>
  <text x="116" y="357.0" font-family="Georgia, 'Times New Roman', serif" font-size="22" letter-spacing="0.3" fill="#f3effb">Reject Single Predictions</text>
  <text x="116" y="379.0" font-family="Helvetica, Arial, sans-serif" font-size="15.5" fill="#a59cc0">The transit unfolds gradually over one to three years, not all at once</text>
  <path d="M 202.22749999999988 404.4 L 202.6 406.6 L 204.8 407 L 202.6 407.4 L 202.22749999999988 409.6 L 201.8 407.4 L 199.6 407 L 201.8 406.6 Z" fill="#d4af6a" opacity="0.5"/>
  <text x="380" y="411" text-anchor="middle" font-family="Georgia, 'Times New Roman', serif" font-style="italic" font-size="11.5" fill="#7b738f">A self-reflection framework — tendencies, not predictions</text>
  <path d="M 557.7725000000002 404.4 L 558.2 406.6 L 560.4 407 L 558.2 407.4 L 557.7725000000002 409.6 L 557.4 407.4 L 555.2 407 L 557.4 406.6 Z" fill="#d4af6a" opacity="0.5"/>
</svg>
