<svg xmlns="http://www.w3.org/2000/svg" viewBox="0 0 760 614" role="img" aria-label="Uranus Opposition: Three Layers at a Glance">
  <defs>
    <linearGradient id="uranusopposition1en-panel" x1="0" y1="0" x2="0.4" y2="1">
      <stop offset="0" stop-color="#1a1433"/><stop offset="0.55" stop-color="#120e26"/><stop offset="1" stop-color="#09081a"/>
    </linearGradient>
    <radialGradient id="uranusopposition1en-foil" cx="0.42" cy="0.34" r="0.75">
      <stop offset="0" stop-color="#fbf0d2"/><stop offset="0.5" stop-color="#e8c882"/><stop offset="1" stop-color="#b8923f"/>
    </radialGradient>
    <radialGradient id="uranusopposition1en-glow" cx="0.5" cy="0.5" r="0.5">
      <stop offset="0" stop-color="#f6e6bf"/><stop offset="1" stop-color="#f6e6bf" stop-opacity="0"/>
    </radialGradient>
    <radialGradient id="uranusopposition1en-neb1" cx="0.5" cy="0.5" r="0.5">
      <stop offset="0" stop-color="#6f4bb0" stop-opacity="0.28"/><stop offset="1" stop-color="#6f4bb0" stop-opacity="0"/>
    </radialGradient>
    <radialGradient id="uranusopposition1en-neb2" cx="0.5" cy="0.5" r="0.5">
      <stop offset="0" stop-color="#d4af6a" stop-opacity="0.16"/><stop offset="1" stop-color="#d4af6a" stop-opacity="0"/>
    </radialGradient>
    <linearGradient id="uranusopposition1en-rule" x1="0" y1="0" x2="1" y2="0">
      <stop offset="0" stop-color="#d4af6a" stop-opacity="0"/><stop offset="0.5" stop-color="#d4af6a" stop-opacity="0.6"/><stop offset="1" stop-color="#d4af6a" stop-opacity="0"/>
    </linearGradient>
  </defs>
  <rect x="1.5" y="1.5" width="757" height="611" rx="22" fill="url(#uranusopposition1en-panel)"/>
  <ellipse cx="198" cy="147" rx="380" ry="209" fill="url(#uranusopposition1en-neb1)"/>
  <ellipse cx="623" cy="491" rx="334" ry="196" fill="url(#uranusopposition1en-neb2)"/>
  <circle cx="622.5" cy="240.1" r="1.58" fill="#cfc8ea" opacity="0.19"/><circle cx="651.1" cy="90.9" r="0.49" fill="#cfc8ea" opacity="0.17"/><circle cx="245.2" cy="106.7" r="1.27" fill="#cfc8ea" opacity="0.47"/><circle cx="202.8" cy="104.1" r="0.79" fill="#cfc8ea" opacity="0.33"/><circle cx="254.4" cy="147.2" r="0.56" fill="#cfc8ea" opacity="0.36"/><circle cx="271.7" cy="172.8" r="1.66" fill="#cfc8ea" opacity="0.46"/><circle cx="467.7" cy="29.7" r="0.71" fill="#cfc8ea" opacity="0.22"/><circle cx="182.2" cy="279.6" r="0.52" fill="#cfc8ea" opacity="0.42"/><circle cx="109.4" cy="566.6" r="1.28" fill="#cfc8ea" opacity="0.39"/><circle cx="348.1" cy="397.7" r="1.66" fill="#cfc8ea" opacity="0.15"/><circle cx="207.2" cy="199.0" r="0.50" fill="#cfc8ea" opacity="0.39"/><circle cx="744.2" cy="298.9" r="0.54" fill="#cfc8ea" opacity="0.32"/><circle cx="724.0" cy="307.0" r="0.62" fill="#cfc8ea" opacity="0.23"/><circle cx="90.4" cy="506.0" r="0.48" fill="#cfc8ea" opacity="0.46"/><circle cx="705.3" cy="151.0" r="1.00" fill="#cfc8ea" opacity="0.41"/><circle cx="673.5" cy="522.7" r="1.49" fill="#cfc8ea" opacity="0.51"/><circle cx="485.6" cy="185.4" r="0.65" fill="#cfc8ea" opacity="0.16"/><circle cx="551.7" cy="542.5" r="1.06" fill="#cfc8ea" opacity="0.45"/><circle cx="544.5" cy="569.5" r="1.46" fill="#cfc8ea" opacity="0.46"/><circle cx="323.9" cy="452.1" r="1.18" fill="#cfc8ea" opacity="0.21"/><circle cx="456.2" cy="473.6" r="0.64" fill="#cfc8ea" opacity="0.29"/><circle cx="320.7" cy="575.3" r="0.87" fill="#cfc8ea" opacity="0.53"/><circle cx="16.8" cy="558.3" r="0.96" fill="#cfc8ea" opacity="0.25"/><circle cx="598.6" cy="99.5" r="0.61" fill="#cfc8ea" opacity="0.28"/><circle cx="112.0" cy="139.1" r="0.74" fill="#cfc8ea" opacity="0.24"/><circle cx="137.8" cy="466.5" r="1.26" fill="#cfc8ea" opacity="0.30"/><circle cx="599.3" cy="274.3" r="1.54" fill="#cfc8ea" opacity="0.15"/><circle cx="299.6" cy="14.1" r="0.81" fill="#cfc8ea" opacity="0.48"/><circle cx="523.8" cy="179.3" r="1.45" fill="#cfc8ea" opacity="0.52"/><circle cx="342.7" cy="182.6" r="1.65" fill="#cfc8ea" opacity="0.13"/><circle cx="331.0" cy="77.3" r="0.47" fill="#cfc8ea" opacity="0.29"/><circle cx="141.2" cy="229.6" r="0.58" fill="#cfc8ea" opacity="0.20"/><circle cx="40.4" cy="508.2" r="0.99" fill="#cfc8ea" opacity="0.36"/><circle cx="276.2" cy="101.0" r="0.80" fill="#cfc8ea" opacity="0.45"/><circle cx="52.7" cy="485.7" r="1.19" fill="#cfc8ea" opacity="0.54"/><circle cx="555.4" cy="318.1" r="0.58" fill="#cfc8ea" opacity="0.43"/><circle cx="104.7" cy="69.2" r="1.27" fill="#cfc8ea" opacity="0.49"/><circle cx="106.0" cy="325.9" r="1.57" fill="#cfc8ea" opacity="0.42"/><circle cx="325.6" cy="291.1" r="0.66" fill="#cfc8ea" opacity="0.49"/><circle cx="479.0" cy="524.2" r="1.36" fill="#cfc8ea" opacity="0.39"/><circle cx="742.6" cy="550.5" r="0.65" fill="#cfc8ea" opacity="0.48"/><circle cx="579.6" cy="535.0" r="1.59" fill="#cfc8ea" opacity="0.37"/><circle cx="680.6" cy="363.4" r="1.33" fill="#cfc8ea" opacity="0.26"/><circle cx="78.0" cy="557.0" r="1.20" fill="#cfc8ea" opacity="0.15"/><circle cx="43.8" cy="68.0" r="1.67" fill="#cfc8ea" opacity="0.48"/><circle cx="73.7" cy="255.3" r="0.80" fill="#cfc8ea" opacity="0.37"/><circle cx="517.6" cy="176.4" r="1.09" fill="#cfc8ea" opacity="0.37"/><circle cx="242.8" cy="439.3" r="1.54" fill="#cfc8ea" opacity="0.37"/><circle cx="358.9" cy="500.3" r="0.88" fill="#cfc8ea" opacity="0.51"/><circle cx="265.8" cy="204.3" r="1.16" fill="#cfc8ea" opacity="0.18"/><circle cx="426.3" cy="189.9" r="0.89" fill="#cfc8ea" opacity="0.18"/><circle cx="707.9" cy="287.6" r="0.64" fill="#cfc8ea" opacity="0.25"/><path d="M 568.8257543798536 381.3 L 569.4 384.2 L 572.3 384.81130974180996 L 569.4 385.4 L 568.8257543798536 388.3 L 568.3 385.4 L 565.3 384.81130974180996 L 568.3 384.2 Z" fill="#f6e6bf" opacity="0.6587136906106025"/><path d="M 687.4198520760983 234.2 L 687.9 236.6 L 690.2 237.07800652459264 L 687.9 237.5 L 687.4198520760983 239.9 L 687.0 237.5 L 684.6 237.07800652459264 L 687.0 236.6 Z" fill="#f6e6bf" opacity="0.7442050363402813"/><path d="M 401.6815355028957 108.2 L 402.3 111.4 L 405.5 111.9943665470928 L 402.3 112.6 L 401.6815355028957 115.8 L 401.1 112.6 L 397.8 111.9943665470928 L 401.1 111.4 Z" fill="#f6e6bf" opacity="0.6784913057927042"/><path d="M 286.80384932272136 453.0 L 287.3 455.5 L 289.9 456.03669338673353 L 287.3 456.5 L 286.80384932272136 459.1 L 286.3 456.5 L 283.7 456.03669338673353 L 286.3 455.5 Z" fill="#f6e6bf" opacity="0.6183031269814819"/><path d="M 218.04242975078523 133.2 L 218.5 135.3 L 220.6 135.73861026205122 L 218.5 136.1 L 218.04242975078523 138.3 L 217.6 136.1 L 215.5 135.73861026205122 L 217.6 135.3 Z" fill="#f6e6bf" opacity="0.6229372747708112"/><path d="M 622.5 240.1 L 202.8 104.1 L 348.1 397.7 L 705.3 151.0 L 320.7 575.3" fill="none" stroke="#d4af6a" stroke-width="0.6" opacity="0.12"/>
  <rect x="1.5" y="1.5" width="757" height="611" rx="22" fill="none" stroke="#d4af6a" stroke-opacity="0.34" stroke-width="1.2"/>
  <rect x="7" y="7" width="746" height="600" rx="17" fill="none" stroke="#d4af6a" stroke-opacity="0.12" stroke-width="0.8"/>
  <path d="M 16 12.8 L 16.5 15.5 L 19.2 16 L 16.5 16.5 L 16 19.2 L 15.5 16.5 L 12.8 16 L 15.5 15.5 Z" fill="#d4af6a" opacity="0.4"/><path d="M 744 12.8 L 744.5 15.5 L 747.2 16 L 744.5 16.5 L 744 19.2 L 743.5 16.5 L 740.8 16 L 743.5 15.5 Z" fill="#d4af6a" opacity="0.4"/><path d="M 16 594.8 L 16.5 597.5 L 19.2 598 L 16.5 598.5 L 16 601.2 L 15.5 598.5 L 12.8 598 L 15.5 597.5 Z" fill="#d4af6a" opacity="0.4"/><path d="M 744 594.8 L 744.5 597.5 L 747.2 598 L 744.5 598.5 L 744 601.2 L 743.5 598.5 L 740.8 598 L 743.5 597.5 Z" fill="#d4af6a" opacity="0.4"/>
  <text x="380" y="46" text-anchor="middle" font-family="Georgia, 'Times New Roman', serif" font-size="22" letter-spacing="0.4" fill="#efeaf8">Uranus Opposition: Three Layers at a Glance</text>
  <line x1="230" y1="67" x2="368" y2="67" stroke="url(#uranusopposition1en-rule)" stroke-width="1"/>
  <line x1="392" y1="67" x2="530" y2="67" stroke="url(#uranusopposition1en-rule)" stroke-width="1"/>
  <path d="M 380 62.0 L 380.8 66.2 L 385.0 67 L 380.8 67.8 L 380 72.0 L 379.2 67.8 L 375.0 67 L 379.2 66.2 Z" fill="#d4af6a" opacity="0.85"/>

  <rect x="46" y="99" width="668" height="143.0" rx="14" fill="#1d1740" fill-opacity="0.5" stroke="#d4af6a" stroke-opacity="0.22" stroke-width="0.9"/>
  <rect x="46" y="99" width="668" height="3.5" rx="1.8" fill="#d4af6a" fill-opacity="0.6"/>
  <path d="M 380 97.1 L 380.5 100.0 L 383.4 100.5 L 380.5 101.0 L 380 103.9 L 379.5 101.0 L 376.6 100.5 L 379.5 100.0 Z" fill="#f6e6bf" opacity="0.7"/>
  <text x="380" y="128.0" text-anchor="middle" font-family="Georgia, 'Times New Roman', serif" font-size="21" font-weight="700" letter-spacing="0.3" fill="#f3effb">Geometric Basis</text>
  <path d="M 70 157.8 L 70.5 160.5 L 73.2 161 L 70.5 161.5 L 70 164.2 L 69.5 161.5 L 66.8 161 L 69.5 160.5 Z" fill="#d4af6a" opacity="0.8"/>
  <text x="84" y="166.0" font-family="Helvetica, Arial, sans-serif" font-size="16" fill="#a59cc0">180° angle: transiting Uranus opposite natal position</text>
  <path d="M 70 186.8 L 70.5 189.5 L 73.2 190 L 70.5 190.5 L 70 193.2 L 69.5 190.5 L 66.8 190 L 69.5 189.5 Z" fill="#d4af6a" opacity="0.8"/>
  <text x="84" y="195.0" font-family="Helvetica, Arial, sans-serif" font-size="16" fill="#a59cc0">Once-per-lifetime geometric event</text>
  <path d="M 70 215.8 L 70.5 218.5 L 73.2 219 L 70.5 219.5 L 70 222.2 L 69.5 219.5 L 66.8 219 L 69.5 218.5 Z" fill="#d4af6a" opacity="0.8"/>
  <text x="84" y="224.0" font-family="Helvetica, Arial, sans-serif" font-size="16" fill="#a59cc0">Exact near ages 40 to 42</text>
  <path d="M 380 250.5 L 380.7 254.3 L 384.5 255 L 380.7 255.7 L 380 259.5 L 379.3 255.7 L 375.5 255 L 379.3 254.3 Z" fill="#d4af6a" opacity="0.65"/>
  <rect x="46" y="268" width="668" height="143.0" rx="14" fill="#1d1740" fill-opacity="0.5" stroke="#d4af6a" stroke-opacity="0.22" stroke-width="0.9"/>
  <rect x="46" y="268" width="668" height="3.5" rx="1.8" fill="#d4af6a" fill-opacity="0.6"/>
  <path d="M 380 266.1 L 380.5 269.0 L 383.4 269.5 L 380.5 270.0 L 380 272.9 L 379.5 270.0 L 376.6 269.5 L 379.5 269.0 Z" fill="#f6e6bf" opacity="0.7"/>
  <text x="380" y="297.0" text-anchor="middle" font-family="Georgia, 'Times New Roman', serif" font-size="21" font-weight="700" letter-spacing="0.3" fill="#f3effb">Timing Window</text>
  <path d="M 70 326.8 L 70.5 329.5 L 73.2 330 L 70.5 330.5 L 70 333.2 L 69.5 330.5 L 66.8 330 L 69.5 329.5 Z" fill="#d4af6a" opacity="0.8"/>
  <text x="84" y="335.0" font-family="Helvetica, Arial, sans-serif" font-size="16" fill="#a59cc0">Orbital basis: half of Uranus's 84-year orbit</text>
  <path d="M 70 355.8 L 70.5 358.5 L 73.2 359 L 70.5 359.5 L 70 362.2 L 69.5 359.5 L 66.8 359 L 69.5 358.5 Z" fill="#d4af6a" opacity="0.8"/>
  <text x="84" y="364.0" font-family="Helvetica, Arial, sans-serif" font-size="16" fill="#a59cc0">Felt across the 38–44 band</text>
  <path d="M 70 384.8 L 70.5 387.5 L 73.2 388 L 70.5 388.5 L 70 391.2 L 69.5 388.5 L 66.8 388 L 69.5 387.5 Z" fill="#d4af6a" opacity="0.8"/>
  <text x="84" y="393.0" font-family="Helvetica, Arial, sans-serif" font-size="16" fill="#a59cc0">Read as a range, not a single birthday</text>
  <path d="M 380 419.5 L 380.7 423.3 L 384.5 424 L 380.7 424.7 L 380 428.5 L 379.3 424.7 L 375.5 424 L 379.3 423.3 Z" fill="#d4af6a" opacity="0.65"/>
  <rect x="46" y="437" width="668" height="143.0" rx="14" fill="#1d1740" fill-opacity="0.5" stroke="#d4af6a" stroke-opacity="0.22" stroke-width="0.9"/>
  <rect x="46" y="437" width="668" height="3.5" rx="1.8" fill="#d4af6a" fill-opacity="0.6"/>
  <path d="M 380 435.1 L 380.5 438.0 L 383.4 438.5 L 380.5 439.0 L 380 441.9 L 379.5 439.0 L 376.6 438.5 L 379.5 438.0 Z" fill="#f6e6bf" opacity="0.7"/>
  <text x="380" y="466.0" text-anchor="middle" font-family="Georgia, 'Times New Roman', serif" font-size="21" font-weight="700" letter-spacing="0.3" fill="#f3effb">Polarity Integration</text>
  <path d="M 70 495.8 L 70.5 498.5 L 73.2 499 L 70.5 499.5 L 70 502.2 L 69.5 499.5 L 66.8 499 L 69.5 498.5 Z" fill="#d4af6a" opacity="0.8"/>
  <text x="84" y="504.0" font-family="Helvetica, Arial, sans-serif" font-size="16" fill="#a59cc0">Opposite house activated for 1–3 years</text>
  <path d="M 70 524.8 L 70.5 527.5 L 73.2 528 L 70.5 528.5 L 70 531.2 L 69.5 528.5 L 66.8 528 L 69.5 527.5 Z" fill="#d4af6a" opacity="0.8"/>
  <text x="84" y="533.0" font-family="Helvetica, Arial, sans-serif" font-size="16" fill="#a59cc0">Suppressed life domain asks to be integrated</text>
  <path d="M 70 553.8 L 70.5 556.5 L 73.2 557 L 70.5 557.5 L 70 560.2 L 69.5 557.5 L 66.8 557 L 69.5 556.5 Z" fill="#d4af6a" opacity="0.8"/>
  <text x="84" y="562.0" font-family="Helvetica, Arial, sans-serif" font-size="16" fill="#a59cc0">Authenticity pressure peaks at exact opposition</text>
  <path d="M 202.22749999999988 585.4 L 202.6 587.6 L 204.8 588 L 202.6 588.4 L 202.22749999999988 590.6 L 201.8 588.4 L 199.6 588 L 201.8 587.6 Z" fill="#d4af6a" opacity="0.5"/>
  <text x="380" y="592" text-anchor="middle" font-family="Georgia, 'Times New Roman', serif" font-style="italic" font-size="11.5" fill="#7b738f">A self-reflection framework — tendencies, not predictions</text>
  <path d="M 557.7725000000002 585.4 L 558.2 587.6 L 560.4 588 L 558.2 588.4 L 557.7725000000002 590.6 L 557.4 588.4 L 555.2 588 L 557.4 587.6 Z" fill="#d4af6a" opacity="0.5"/>
</svg>
