<svg xmlns="http://www.w3.org/2000/svg" viewBox="0 0 760 503" role="img" aria-label="National Return vs Personal Transit: Two Different Scales">
  <defs>
    <linearGradient id="usaplutoreturnastrology0en-panel" x1="0" y1="0" x2="0.4" y2="1">
      <stop offset="0" stop-color="#1a1433"/><stop offset="0.55" stop-color="#120e26"/><stop offset="1" stop-color="#09081a"/>
    </linearGradient>
    <radialGradient id="usaplutoreturnastrology0en-foil" cx="0.42" cy="0.34" r="0.75">
      <stop offset="0" stop-color="#fbf0d2"/><stop offset="0.5" stop-color="#e8c882"/><stop offset="1" stop-color="#b8923f"/>
    </radialGradient>
    <radialGradient id="usaplutoreturnastrology0en-glow" cx="0.5" cy="0.5" r="0.5">
      <stop offset="0" stop-color="#f6e6bf"/><stop offset="1" stop-color="#f6e6bf" stop-opacity="0"/>
    </radialGradient>
    <radialGradient id="usaplutoreturnastrology0en-neb1" cx="0.5" cy="0.5" r="0.5">
      <stop offset="0" stop-color="#6f4bb0" stop-opacity="0.28"/><stop offset="1" stop-color="#6f4bb0" stop-opacity="0"/>
    </radialGradient>
    <radialGradient id="usaplutoreturnastrology0en-neb2" cx="0.5" cy="0.5" r="0.5">
      <stop offset="0" stop-color="#d4af6a" stop-opacity="0.16"/><stop offset="1" stop-color="#d4af6a" stop-opacity="0"/>
    </radialGradient>
    <linearGradient id="usaplutoreturnastrology0en-rule" x1="0" y1="0" x2="1" y2="0">
      <stop offset="0" stop-color="#d4af6a" stop-opacity="0"/><stop offset="0.5" stop-color="#d4af6a" stop-opacity="0.6"/><stop offset="1" stop-color="#d4af6a" stop-opacity="0"/>
    </linearGradient>
  </defs>
  <rect x="1.5" y="1.5" width="757" height="500" rx="22" fill="url(#usaplutoreturnastrology0en-panel)"/>
  <ellipse cx="198" cy="121" rx="380" ry="171" fill="url(#usaplutoreturnastrology0en-neb1)"/>
  <ellipse cx="623" cy="402" rx="334" ry="161" fill="url(#usaplutoreturnastrology0en-neb2)"/>
  <circle cx="197.8" cy="413.0" r="1.29" fill="#cfc8ea" opacity="0.34"/><circle cx="674.4" cy="472.2" r="1.26" fill="#cfc8ea" opacity="0.46"/><circle cx="261.8" cy="406.7" r="0.44" fill="#cfc8ea" opacity="0.27"/><circle cx="329.1" cy="68.2" r="0.73" fill="#cfc8ea" opacity="0.42"/><circle cx="351.2" cy="126.9" r="1.30" fill="#cfc8ea" opacity="0.28"/><circle cx="47.5" cy="279.2" r="1.28" fill="#cfc8ea" opacity="0.50"/><circle cx="583.3" cy="407.9" r="1.00" fill="#cfc8ea" opacity="0.36"/><circle cx="129.7" cy="220.4" r="0.99" fill="#cfc8ea" opacity="0.31"/><circle cx="337.2" cy="193.9" r="0.57" fill="#cfc8ea" opacity="0.41"/><circle cx="58.8" cy="46.7" r="1.50" fill="#cfc8ea" opacity="0.36"/><circle cx="419.3" cy="426.0" r="1.30" fill="#cfc8ea" opacity="0.36"/><circle cx="411.3" cy="436.8" r="1.57" fill="#cfc8ea" opacity="0.49"/><circle cx="739.5" cy="224.5" r="0.65" fill="#cfc8ea" opacity="0.27"/><circle cx="355.9" cy="26.1" r="1.43" fill="#cfc8ea" opacity="0.24"/><circle cx="98.0" cy="98.9" r="1.01" fill="#cfc8ea" opacity="0.15"/><circle cx="437.7" cy="219.9" r="0.74" fill="#cfc8ea" opacity="0.38"/><circle cx="571.4" cy="44.2" r="0.71" fill="#cfc8ea" opacity="0.54"/><circle cx="176.8" cy="131.6" r="1.53" fill="#cfc8ea" opacity="0.28"/><circle cx="345.7" cy="141.3" r="1.29" fill="#cfc8ea" opacity="0.41"/><circle cx="303.3" cy="304.4" r="0.70" fill="#cfc8ea" opacity="0.32"/><circle cx="425.6" cy="215.1" r="0.40" fill="#cfc8ea" opacity="0.43"/><circle cx="217.5" cy="216.4" r="0.89" fill="#cfc8ea" opacity="0.23"/><circle cx="138.1" cy="85.4" r="1.57" fill="#cfc8ea" opacity="0.38"/><circle cx="372.9" cy="465.0" r="0.99" fill="#cfc8ea" opacity="0.53"/><circle cx="379.7" cy="110.0" r="1.65" fill="#cfc8ea" opacity="0.15"/><circle cx="425.8" cy="136.1" r="1.05" fill="#cfc8ea" opacity="0.33"/><circle cx="677.9" cy="177.5" r="0.62" fill="#cfc8ea" opacity="0.46"/><circle cx="630.3" cy="168.1" r="0.65" fill="#cfc8ea" opacity="0.43"/><circle cx="720.1" cy="430.6" r="1.35" fill="#cfc8ea" opacity="0.40"/><circle cx="82.4" cy="235.5" r="0.71" fill="#cfc8ea" opacity="0.23"/><circle cx="464.9" cy="13.5" r="1.49" fill="#cfc8ea" opacity="0.34"/><circle cx="504.2" cy="130.6" r="0.55" fill="#cfc8ea" opacity="0.31"/><circle cx="481.9" cy="417.5" r="1.65" fill="#cfc8ea" opacity="0.36"/><circle cx="86.5" cy="141.2" r="1.52" fill="#cfc8ea" opacity="0.47"/><circle cx="470.3" cy="28.7" r="0.84" fill="#cfc8ea" opacity="0.47"/><circle cx="651.5" cy="91.3" r="1.40" fill="#cfc8ea" opacity="0.48"/><circle cx="25.7" cy="238.2" r="0.74" fill="#cfc8ea" opacity="0.15"/><circle cx="192.3" cy="87.0" r="1.14" fill="#cfc8ea" opacity="0.22"/><circle cx="336.0" cy="101.3" r="0.53" fill="#cfc8ea" opacity="0.43"/><circle cx="271.2" cy="198.3" r="1.33" fill="#cfc8ea" opacity="0.27"/><circle cx="73.5" cy="477.6" r="1.57" fill="#cfc8ea" opacity="0.31"/><circle cx="313.2" cy="21.9" r="1.13" fill="#cfc8ea" opacity="0.51"/><path d="M 557.8627194110304 182.9 L 558.3 185.1 L 560.4 185.52532496256754 L 558.3 185.9 L 557.8627194110304 188.1 L 557.4 185.9 L 555.3 185.52532496256754 L 557.4 185.1 Z" fill="#f6e6bf" opacity="0.6913784337230027"/><path d="M 399.93063284642994 410.9 L 400.4 413.2 L 402.7 413.6369358734228 L 400.4 414.1 L 399.93063284642994 416.4 L 399.5 414.1 L 397.2 413.6369358734228 L 399.5 413.2 Z" fill="#f6e6bf" opacity="0.6090310577303171"/><path d="M 725.0451803598553 137.1 L 725.5 139.3 L 727.7 139.72882812237367 L 725.5 140.1 L 725.0451803598553 142.3 L 724.6 140.1 L 722.4 139.72882812237367 L 724.6 139.3 Z" fill="#f6e6bf" opacity="0.7140724818222225"/><path d="M 425.19794482178986 447.1 L 425.7 449.9 L 428.6 450.47930995794013 L 425.7 451.0 L 425.19794482178986 453.8 L 424.7 451.0 L 421.8 450.47930995794013 L 424.7 449.9 Z" fill="#f6e6bf" opacity="0.6902553142979742"/><path d="M 738.7880713585764 247.6 L 739.2 250.0 L 741.6 250.41403688816354 L 739.2 250.9 L 738.7880713585764 253.2 L 738.3 250.9 L 736.0 250.41403688816354 L 738.3 250.0 Z" fill="#f6e6bf" opacity="0.6993896433152258"/><path d="M 47.5 279.2 L 425.8 136.1 L 630.3 168.1 L 481.9 417.5 L 271.2 198.3" fill="none" stroke="#d4af6a" stroke-width="0.6" opacity="0.12"/>
  <rect x="1.5" y="1.5" width="757" height="500" rx="22" fill="none" stroke="#d4af6a" stroke-opacity="0.34" stroke-width="1.2"/>
  <rect x="7" y="7" width="746" height="489" rx="17" fill="none" stroke="#d4af6a" stroke-opacity="0.12" stroke-width="0.8"/>
  <path d="M 16 12.8 L 16.5 15.5 L 19.2 16 L 16.5 16.5 L 16 19.2 L 15.5 16.5 L 12.8 16 L 15.5 15.5 Z" fill="#d4af6a" opacity="0.4"/><path d="M 744 12.8 L 744.5 15.5 L 747.2 16 L 744.5 16.5 L 744 19.2 L 743.5 16.5 L 740.8 16 L 743.5 15.5 Z" fill="#d4af6a" opacity="0.4"/><path d="M 16 483.8 L 16.5 486.5 L 19.2 487 L 16.5 487.5 L 16 490.2 L 15.5 487.5 L 12.8 487 L 15.5 486.5 Z" fill="#d4af6a" opacity="0.4"/><path d="M 744 483.8 L 744.5 486.5 L 747.2 487 L 744.5 487.5 L 744 490.2 L 743.5 487.5 L 740.8 487 L 743.5 486.5 Z" fill="#d4af6a" opacity="0.4"/>
  <text x="380" y="46" text-anchor="middle" font-family="Georgia, 'Times New Roman', serif" font-size="22" letter-spacing="0.4" fill="#efeaf8">National Return vs Personal Transit: Two Different Scales</text>
  <line x1="230" y1="67" x2="368" y2="67" stroke="url(#usaplutoreturnastrology0en-rule)" stroke-width="1"/>
  <line x1="392" y1="67" x2="530" y2="67" stroke="url(#usaplutoreturnastrology0en-rule)" stroke-width="1"/>
  <path d="M 380 62.0 L 380.8 66.2 L 385.0 67 L 380.8 67.8 L 380 72.0 L 379.2 67.8 L 375.0 67 L 379.2 66.2 Z" fill="#d4af6a" opacity="0.85"/>

  <rect x="46" y="99" width="668" height="172.0" rx="14" fill="#1d1740" fill-opacity="0.5" stroke="#d4af6a" stroke-opacity="0.22" stroke-width="0.9"/>
  <rect x="46" y="99" width="3.5" height="172.0" rx="1.8" fill="#d4af6a" fill-opacity="0.6"/>
  <path d="M 47.75 108.6 L 48.3 111.5 L 51.1 112 L 48.3 112.5 L 47.75 115.4 L 47.2 112.5 L 44.4 112 L 47.2 111.5 Z" fill="#f6e6bf" opacity="0.7"/>
  <text x="380" y="128.0" text-anchor="middle" font-family="Georgia, 'Times New Roman', serif" font-size="21" font-weight="700" letter-spacing="0.3" fill="#f3effb">National Pluto Return</text>
  <path d="M 70 157.8 L 70.5 160.5 L 73.2 161 L 70.5 161.5 L 70 164.2 L 69.5 161.5 L 66.8 161 L 69.5 160.5 Z" fill="#d4af6a" opacity="0.8"/>
  <text x="84" y="166.0" font-family="Helvetica, Arial, sans-serif" font-size="16" fill="#a59cc0">Describes a whole country's founding chart</text>
  <path d="M 70 186.8 L 70.5 189.5 L 73.2 190 L 70.5 190.5 L 70 193.2 L 69.5 190.5 L 66.8 190 L 69.5 189.5 Z" fill="#d4af6a" opacity="0.8"/>
  <text x="84" y="195.0" font-family="Helvetica, Arial, sans-serif" font-size="16" fill="#a59cc0">Collective scale: institutions, shared power, public identity</text>
  <path d="M 70 215.8 L 70.5 218.5 L 73.2 219 L 70.5 219.5 L 70 222.2 L 69.5 219.5 L 66.8 219 L 69.5 218.5 Z" fill="#d4af6a" opacity="0.8"/>
  <text x="84" y="224.0" font-family="Helvetica, Arial, sans-serif" font-size="16" fill="#a59cc0">Maps slow generational shifts across the whole nation</text>
  <path d="M 70 244.8 L 70.5 247.5 L 73.2 248 L 70.5 248.5 L 70 251.2 L 69.5 248.5 L 66.8 248 L 69.5 247.5 Z" fill="#d4af6a" opacity="0.8"/>
  <text x="84" y="253.0" font-family="Helvetica, Arial, sans-serif" font-size="16" fill="#a59cc0">Reads the story of a nation, not any single person</text>
  <path d="M 380 279.5 L 380.7 283.3 L 384.5 284 L 380.7 284.7 L 380 288.5 L 379.3 284.7 L 375.5 284 L 379.3 283.3 Z" fill="#d4af6a" opacity="0.65"/>
  <rect x="46" y="297" width="668" height="172.0" rx="14" fill="#1d1740" fill-opacity="0.5" stroke="#d4af6a" stroke-opacity="0.22" stroke-width="0.9"/>
  <rect x="46" y="297" width="3.5" height="172.0" rx="1.8" fill="#d4af6a" fill-opacity="0.6"/>
  <path d="M 47.75 306.6 L 48.3 309.5 L 51.1 310 L 48.3 310.5 L 47.75 313.4 L 47.2 310.5 L 44.4 310 L 47.2 309.5 Z" fill="#f6e6bf" opacity="0.7"/>
  <text x="380" y="326.0" text-anchor="middle" font-family="Georgia, 'Times New Roman', serif" font-size="21" font-weight="700" letter-spacing="0.3" fill="#f3effb">Personal Pluto Transit</text>
  <path d="M 70 355.8 L 70.5 358.5 L 73.2 359 L 70.5 359.5 L 70 362.2 L 69.5 359.5 L 66.8 359 L 69.5 358.5 Z" fill="#d4af6a" opacity="0.8"/>
  <text x="84" y="364.0" font-family="Helvetica, Arial, sans-serif" font-size="16" fill="#a59cc0">Describes a single individual's birth chart</text>
  <path d="M 70 384.8 L 70.5 387.5 L 73.2 388 L 70.5 388.5 L 70 391.2 L 69.5 388.5 L 66.8 388 L 69.5 387.5 Z" fill="#d4af6a" opacity="0.8"/>
  <text x="84" y="393.0" font-family="Helvetica, Arial, sans-serif" font-size="16" fill="#a59cc0">Personal scale: control, intimacy, ambition</text>
  <path d="M 70 413.8 L 70.5 416.5 L 73.2 417 L 70.5 417.5 L 70 420.2 L 69.5 417.5 L 66.8 417 L 69.5 416.5 Z" fill="#d4af6a" opacity="0.8"/>
  <text x="84" y="422.0" font-family="Helvetica, Arial, sans-serif" font-size="16" fill="#a59cc0">Marks private turning points in one person's life</text>
  <path d="M 70 442.8 L 70.5 445.5 L 73.2 446 L 70.5 446.5 L 70 449.2 L 69.5 446.5 L 66.8 446 L 69.5 445.5 Z" fill="#d4af6a" opacity="0.8"/>
  <text x="84" y="451.0" font-family="Helvetica, Arial, sans-serif" font-size="16" fill="#a59cc0">Reads the story of a single life, not a nation</text>
  <path d="M 202.22749999999988 474.4 L 202.6 476.6 L 204.8 477 L 202.6 477.4 L 202.22749999999988 479.6 L 201.8 477.4 L 199.6 477 L 201.8 476.6 Z" fill="#d4af6a" opacity="0.5"/>
  <text x="380" y="481" text-anchor="middle" font-family="Georgia, 'Times New Roman', serif" font-style="italic" font-size="11.5" fill="#7b738f">A self-reflection framework — tendencies, not predictions</text>
  <path d="M 557.7725000000002 474.4 L 558.2 476.6 L 560.4 477 L 558.2 477.4 L 557.7725000000002 479.6 L 557.4 477.4 L 555.2 477 L 557.4 476.6 Z" fill="#d4af6a" opacity="0.5"/>
</svg>
