<svg xmlns="http://www.w3.org/2000/svg" viewBox="0 0 760 503" role="img" aria-label="Purva Phalguni vs Uttara Phalguni">
  <defs>
    <linearGradient id="uttaraphalguninakshatra0en-panel" x1="0" y1="0" x2="0.4" y2="1">
      <stop offset="0" stop-color="#1a1433"/><stop offset="0.55" stop-color="#120e26"/><stop offset="1" stop-color="#09081a"/>
    </linearGradient>
    <radialGradient id="uttaraphalguninakshatra0en-foil" cx="0.42" cy="0.34" r="0.75">
      <stop offset="0" stop-color="#fbf0d2"/><stop offset="0.5" stop-color="#e8c882"/><stop offset="1" stop-color="#b8923f"/>
    </radialGradient>
    <radialGradient id="uttaraphalguninakshatra0en-glow" cx="0.5" cy="0.5" r="0.5">
      <stop offset="0" stop-color="#f6e6bf"/><stop offset="1" stop-color="#f6e6bf" stop-opacity="0"/>
    </radialGradient>
    <radialGradient id="uttaraphalguninakshatra0en-neb1" cx="0.5" cy="0.5" r="0.5">
      <stop offset="0" stop-color="#6f4bb0" stop-opacity="0.28"/><stop offset="1" stop-color="#6f4bb0" stop-opacity="0"/>
    </radialGradient>
    <radialGradient id="uttaraphalguninakshatra0en-neb2" cx="0.5" cy="0.5" r="0.5">
      <stop offset="0" stop-color="#d4af6a" stop-opacity="0.16"/><stop offset="1" stop-color="#d4af6a" stop-opacity="0"/>
    </radialGradient>
    <linearGradient id="uttaraphalguninakshatra0en-rule" x1="0" y1="0" x2="1" y2="0">
      <stop offset="0" stop-color="#d4af6a" stop-opacity="0"/><stop offset="0.5" stop-color="#d4af6a" stop-opacity="0.6"/><stop offset="1" stop-color="#d4af6a" stop-opacity="0"/>
    </linearGradient>
  </defs>
  <rect x="1.5" y="1.5" width="757" height="500" rx="22" fill="url(#uttaraphalguninakshatra0en-panel)"/>
  <ellipse cx="198" cy="121" rx="380" ry="171" fill="url(#uttaraphalguninakshatra0en-neb1)"/>
  <ellipse cx="623" cy="402" rx="334" ry="161" fill="url(#uttaraphalguninakshatra0en-neb2)"/>
  <circle cx="549.2" cy="213.7" r="0.47" fill="#cfc8ea" opacity="0.38"/><circle cx="44.1" cy="14.7" r="0.92" fill="#cfc8ea" opacity="0.41"/><circle cx="700.2" cy="15.0" r="0.81" fill="#cfc8ea" opacity="0.25"/><circle cx="410.6" cy="147.9" r="1.69" fill="#cfc8ea" opacity="0.27"/><circle cx="83.4" cy="287.9" r="1.54" fill="#cfc8ea" opacity="0.18"/><circle cx="262.4" cy="132.4" r="1.59" fill="#cfc8ea" opacity="0.51"/><circle cx="63.3" cy="298.0" r="0.46" fill="#cfc8ea" opacity="0.33"/><circle cx="453.1" cy="27.5" r="1.36" fill="#cfc8ea" opacity="0.50"/><circle cx="693.5" cy="270.5" r="1.11" fill="#cfc8ea" opacity="0.18"/><circle cx="616.3" cy="369.2" r="0.47" fill="#cfc8ea" opacity="0.47"/><circle cx="351.5" cy="233.6" r="0.46" fill="#cfc8ea" opacity="0.19"/><circle cx="75.5" cy="198.6" r="0.52" fill="#cfc8ea" opacity="0.35"/><circle cx="23.2" cy="260.8" r="0.48" fill="#cfc8ea" opacity="0.52"/><circle cx="98.8" cy="165.0" r="1.63" fill="#cfc8ea" opacity="0.51"/><circle cx="53.3" cy="78.2" r="0.80" fill="#cfc8ea" opacity="0.23"/><circle cx="67.3" cy="129.5" r="1.35" fill="#cfc8ea" opacity="0.44"/><circle cx="534.2" cy="322.9" r="0.67" fill="#cfc8ea" opacity="0.42"/><circle cx="15.2" cy="242.1" r="0.91" fill="#cfc8ea" opacity="0.51"/><circle cx="512.5" cy="80.9" r="1.57" fill="#cfc8ea" opacity="0.39"/><circle cx="35.0" cy="359.6" r="0.50" fill="#cfc8ea" opacity="0.25"/><circle cx="481.9" cy="460.5" r="0.85" fill="#cfc8ea" opacity="0.42"/><circle cx="182.5" cy="133.0" r="0.82" fill="#cfc8ea" opacity="0.24"/><circle cx="330.5" cy="117.8" r="0.78" fill="#cfc8ea" opacity="0.40"/><circle cx="546.2" cy="386.0" r="0.84" fill="#cfc8ea" opacity="0.23"/><circle cx="189.9" cy="458.2" r="0.48" fill="#cfc8ea" opacity="0.38"/><circle cx="362.4" cy="468.0" r="0.41" fill="#cfc8ea" opacity="0.28"/><circle cx="267.2" cy="243.5" r="1.68" fill="#cfc8ea" opacity="0.32"/><circle cx="438.1" cy="428.0" r="0.66" fill="#cfc8ea" opacity="0.41"/><circle cx="266.1" cy="284.7" r="1.16" fill="#cfc8ea" opacity="0.43"/><circle cx="84.5" cy="28.7" r="1.25" fill="#cfc8ea" opacity="0.39"/><circle cx="526.5" cy="280.9" r="1.28" fill="#cfc8ea" opacity="0.15"/><circle cx="573.3" cy="14.2" r="1.50" fill="#cfc8ea" opacity="0.12"/><circle cx="237.4" cy="435.8" r="0.49" fill="#cfc8ea" opacity="0.31"/><circle cx="505.7" cy="210.4" r="1.21" fill="#cfc8ea" opacity="0.21"/><circle cx="465.3" cy="44.3" r="1.66" fill="#cfc8ea" opacity="0.39"/><circle cx="482.8" cy="343.6" r="1.49" fill="#cfc8ea" opacity="0.50"/><circle cx="372.2" cy="280.4" r="0.62" fill="#cfc8ea" opacity="0.41"/><circle cx="360.1" cy="434.1" r="1.05" fill="#cfc8ea" opacity="0.46"/><circle cx="647.7" cy="472.8" r="0.89" fill="#cfc8ea" opacity="0.13"/><circle cx="282.8" cy="249.8" r="1.70" fill="#cfc8ea" opacity="0.30"/><circle cx="80.6" cy="253.5" r="1.08" fill="#cfc8ea" opacity="0.49"/><circle cx="315.0" cy="263.1" r="1.24" fill="#cfc8ea" opacity="0.47"/><path d="M 717.8551150560379 317.4 L 718.3 319.7 L 720.6 320.17021218058653 L 718.3 320.6 L 717.8551150560379 322.9 L 717.4 320.6 L 715.1 320.17021218058653 L 717.4 319.7 Z" fill="#f6e6bf" opacity="0.7818722842959687"/><path d="M 100.54055105894804 366.5 L 101.0 368.9 L 103.4 369.34233223297633 L 101.0 369.8 L 100.54055105894804 372.2 L 100.1 369.8 L 97.7 369.34233223297633 L 100.1 368.9 Z" fill="#f6e6bf" opacity="0.5785253869136795"/><path d="M 599.54753254354 483.3 L 600.1 486.2 L 602.9 486.6931965269614 L 600.1 487.2 L 599.54753254354 490.0 L 599.0 487.2 L 596.2 486.6931965269614 L 599.0 486.2 Z" fill="#f6e6bf" opacity="0.7740008373511955"/><path d="M 51.45940110832453 423.3 L 51.9 425.6 L 54.2 426.02812651754357 L 51.9 426.5 L 51.45940110832453 428.8 L 51.0 426.5 L 48.7 426.02812651754357 L 51.0 425.6 Z" fill="#f6e6bf" opacity="0.5198703624075278"/><path d="M 224.22445806860924 19.4 L 224.6 21.4 L 226.6 21.78017116826959 L 224.6 22.2 L 224.22445806860924 24.2 L 223.8 22.2 L 221.8 21.78017116826959 L 223.8 21.4 Z" fill="#f6e6bf" opacity="0.60685783426743"/><path d="M 44.1 14.7 L 453.1 27.5 L 98.8 165.0 L 67.3 129.5 L 534.2 322.9" fill="none" stroke="#d4af6a" stroke-width="0.6" opacity="0.12"/>
  <rect x="1.5" y="1.5" width="757" height="500" rx="22" fill="none" stroke="#d4af6a" stroke-opacity="0.34" stroke-width="1.2"/>
  <rect x="7" y="7" width="746" height="489" rx="17" fill="none" stroke="#d4af6a" stroke-opacity="0.12" stroke-width="0.8"/>
  <path d="M 16 12.8 L 16.5 15.5 L 19.2 16 L 16.5 16.5 L 16 19.2 L 15.5 16.5 L 12.8 16 L 15.5 15.5 Z" fill="#d4af6a" opacity="0.4"/><path d="M 744 12.8 L 744.5 15.5 L 747.2 16 L 744.5 16.5 L 744 19.2 L 743.5 16.5 L 740.8 16 L 743.5 15.5 Z" fill="#d4af6a" opacity="0.4"/><path d="M 16 483.8 L 16.5 486.5 L 19.2 487 L 16.5 487.5 L 16 490.2 L 15.5 487.5 L 12.8 487 L 15.5 486.5 Z" fill="#d4af6a" opacity="0.4"/><path d="M 744 483.8 L 744.5 486.5 L 747.2 487 L 744.5 487.5 L 744 490.2 L 743.5 487.5 L 740.8 487 L 743.5 486.5 Z" fill="#d4af6a" opacity="0.4"/>
  <text x="380" y="46" text-anchor="middle" font-family="Georgia, 'Times New Roman', serif" font-size="22" letter-spacing="0.4" fill="#efeaf8">Purva Phalguni vs Uttara Phalguni</text>
  <line x1="230" y1="67" x2="368" y2="67" stroke="url(#uttaraphalguninakshatra0en-rule)" stroke-width="1"/>
  <line x1="392" y1="67" x2="530" y2="67" stroke="url(#uttaraphalguninakshatra0en-rule)" stroke-width="1"/>
  <path d="M 380 62.0 L 380.8 66.2 L 385.0 67 L 380.8 67.8 L 380 72.0 L 379.2 67.8 L 375.0 67 L 379.2 66.2 Z" fill="#d4af6a" opacity="0.85"/>

  <rect x="46" y="99" width="668" height="172.0" rx="14" fill="#1d1740" fill-opacity="0.5" stroke="#d4af6a" stroke-opacity="0.22" stroke-width="0.9"/>
  <rect x="46" y="99" width="668" height="3.5" rx="1.8" fill="#d4af6a" fill-opacity="0.6"/>
  <path d="M 380 97.1 L 380.5 100.0 L 383.4 100.5 L 380.5 101.0 L 380 103.9 L 379.5 101.0 L 376.6 100.5 L 379.5 100.0 Z" fill="#f6e6bf" opacity="0.7"/>
  <text x="380" y="128.0" text-anchor="middle" font-family="Georgia, 'Times New Roman', serif" font-size="21" font-weight="700" letter-spacing="0.3" fill="#f3effb">Purva Phalguni</text>
  <path d="M 70 157.8 L 70.5 160.5 L 73.2 161 L 70.5 161.5 L 70 164.2 L 69.5 161.5 L 66.8 161 L 69.5 160.5 Z" fill="#d4af6a" opacity="0.8"/>
  <text x="84" y="166.0" font-family="Helvetica, Arial, sans-serif" font-size="16" fill="#a59cc0">Ruled by Venus</text>
  <path d="M 70 186.8 L 70.5 189.5 L 73.2 190 L 70.5 190.5 L 70 193.2 L 69.5 190.5 L 66.8 190 L 69.5 189.5 Z" fill="#d4af6a" opacity="0.8"/>
  <text x="84" y="195.0" font-family="Helvetica, Arial, sans-serif" font-size="16" fill="#a59cc0">Free pleasure, rest, enjoyment</text>
  <path d="M 70 215.8 L 70.5 218.5 L 73.2 219 L 70.5 219.5 L 70 222.2 L 69.5 219.5 L 66.8 219 L 69.5 218.5 Z" fill="#d4af6a" opacity="0.8"/>
  <text x="84" y="224.0" font-family="Helvetica, Arial, sans-serif" font-size="16" fill="#a59cc0">Warmth that asks nothing in return</text>
  <path d="M 70 244.8 L 70.5 247.5 L 73.2 248 L 70.5 248.5 L 70 251.2 L 69.5 248.5 L 66.8 248 L 69.5 247.5 Z" fill="#d4af6a" opacity="0.8"/>
  <text x="84" y="253.0" font-family="Helvetica, Arial, sans-serif" font-size="16" fill="#a59cc0">Lightness — delight for its own sake</text>
  <path d="M 380 279.5 L 380.7 283.3 L 384.5 284 L 380.7 284.7 L 380 288.5 L 379.3 284.7 L 375.5 284 L 379.3 283.3 Z" fill="#d4af6a" opacity="0.65"/>
  <rect x="46" y="297" width="668" height="172.0" rx="14" fill="#1d1740" fill-opacity="0.5" stroke="#d4af6a" stroke-opacity="0.22" stroke-width="0.9"/>
  <rect x="46" y="297" width="668" height="3.5" rx="1.8" fill="#d4af6a" fill-opacity="0.6"/>
  <path d="M 380 295.1 L 380.5 298.0 L 383.4 298.5 L 380.5 299.0 L 380 301.9 L 379.5 299.0 L 376.6 298.5 L 379.5 298.0 Z" fill="#f6e6bf" opacity="0.7"/>
  <text x="380" y="326.0" text-anchor="middle" font-family="Georgia, 'Times New Roman', serif" font-size="21" font-weight="700" letter-spacing="0.3" fill="#f3effb">Uttara Phalguni</text>
  <path d="M 70 355.8 L 70.5 358.5 L 73.2 359 L 70.5 359.5 L 70 362.2 L 69.5 359.5 L 66.8 359 L 69.5 358.5 Z" fill="#d4af6a" opacity="0.8"/>
  <text x="84" y="364.0" font-family="Helvetica, Arial, sans-serif" font-size="16" fill="#a59cc0">Ruled by the Sun</text>
  <path d="M 70 384.8 L 70.5 387.5 L 73.2 388 L 70.5 388.5 L 70 391.2 L 69.5 388.5 L 66.8 388 L 69.5 387.5 Z" fill="#d4af6a" opacity="0.8"/>
  <text x="84" y="393.0" font-family="Helvetica, Arial, sans-serif" font-size="16" fill="#a59cc0">Committed service, durable patronage</text>
  <path d="M 70 413.8 L 70.5 416.5 L 73.2 417 L 70.5 417.5 L 70 420.2 L 69.5 417.5 L 66.8 417 L 69.5 416.5 Z" fill="#d4af6a" opacity="0.8"/>
  <text x="84" y="422.0" font-family="Helvetica, Arial, sans-serif" font-size="16" fill="#a59cc0">Warmth bound to obligation</text>
  <path d="M 70 442.8 L 70.5 445.5 L 73.2 446 L 70.5 446.5 L 70 449.2 L 69.5 446.5 L 66.8 446 L 69.5 445.5 Z" fill="#d4af6a" opacity="0.8"/>
  <text x="84" y="451.0" font-family="Helvetica, Arial, sans-serif" font-size="16" fill="#a59cc0">Leo authority + Virgo discipline</text>
  <path d="M 202.22749999999988 474.4 L 202.6 476.6 L 204.8 477 L 202.6 477.4 L 202.22749999999988 479.6 L 201.8 477.4 L 199.6 477 L 201.8 476.6 Z" fill="#d4af6a" opacity="0.5"/>
  <text x="380" y="481" text-anchor="middle" font-family="Georgia, 'Times New Roman', serif" font-style="italic" font-size="11.5" fill="#7b738f">A self-reflection framework — tendencies, not predictions</text>
  <path d="M 557.7725000000002 474.4 L 558.2 476.6 L 560.4 477 L 558.2 477.4 L 557.7725000000002 479.6 L 557.4 477.4 L 555.2 477 L 557.4 476.6 Z" fill="#d4af6a" opacity="0.5"/>
</svg>
