<svg xmlns="http://www.w3.org/2000/svg" viewBox="0 0 760 433" role="img" aria-label="Five Signals of Uttara Bhadrapada">
  <defs>
    <linearGradient id="uttarabhadrapadanakshatra1en-panel" x1="0" y1="0" x2="0.4" y2="1">
      <stop offset="0" stop-color="#1a1433"/><stop offset="0.55" stop-color="#120e26"/><stop offset="1" stop-color="#09081a"/>
    </linearGradient>
    <radialGradient id="uttarabhadrapadanakshatra1en-foil" cx="0.42" cy="0.34" r="0.75">
      <stop offset="0" stop-color="#fbf0d2"/><stop offset="0.5" stop-color="#e8c882"/><stop offset="1" stop-color="#b8923f"/>
    </radialGradient>
    <radialGradient id="uttarabhadrapadanakshatra1en-glow" cx="0.5" cy="0.5" r="0.5">
      <stop offset="0" stop-color="#f6e6bf"/><stop offset="1" stop-color="#f6e6bf" stop-opacity="0"/>
    </radialGradient>
    <radialGradient id="uttarabhadrapadanakshatra1en-neb1" cx="0.5" cy="0.5" r="0.5">
      <stop offset="0" stop-color="#6f4bb0" stop-opacity="0.28"/><stop offset="1" stop-color="#6f4bb0" stop-opacity="0"/>
    </radialGradient>
    <radialGradient id="uttarabhadrapadanakshatra1en-neb2" cx="0.5" cy="0.5" r="0.5">
      <stop offset="0" stop-color="#d4af6a" stop-opacity="0.16"/><stop offset="1" stop-color="#d4af6a" stop-opacity="0"/>
    </radialGradient>
    <linearGradient id="uttarabhadrapadanakshatra1en-rule" x1="0" y1="0" x2="1" y2="0">
      <stop offset="0" stop-color="#d4af6a" stop-opacity="0"/><stop offset="0.5" stop-color="#d4af6a" stop-opacity="0.6"/><stop offset="1" stop-color="#d4af6a" stop-opacity="0"/>
    </linearGradient>
  </defs>
  <rect x="1.5" y="1.5" width="757" height="430" rx="22" fill="url(#uttarabhadrapadanakshatra1en-panel)"/>
  <ellipse cx="198" cy="104" rx="380" ry="147" fill="url(#uttarabhadrapadanakshatra1en-neb1)"/>
  <ellipse cx="623" cy="346" rx="334" ry="139" fill="url(#uttarabhadrapadanakshatra1en-neb2)"/>
  <circle cx="224.6" cy="152.5" r="0.57" fill="#cfc8ea" opacity="0.33"/><circle cx="533.5" cy="336.9" r="1.24" fill="#cfc8ea" opacity="0.29"/><circle cx="33.5" cy="260.6" r="0.80" fill="#cfc8ea" opacity="0.19"/><circle cx="55.6" cy="330.1" r="0.87" fill="#cfc8ea" opacity="0.27"/><circle cx="297.4" cy="236.1" r="1.67" fill="#cfc8ea" opacity="0.49"/><circle cx="712.0" cy="97.0" r="1.59" fill="#cfc8ea" opacity="0.28"/><circle cx="18.0" cy="265.8" r="0.71" fill="#cfc8ea" opacity="0.28"/><circle cx="240.0" cy="344.1" r="1.05" fill="#cfc8ea" opacity="0.41"/><circle cx="60.5" cy="194.6" r="0.56" fill="#cfc8ea" opacity="0.37"/><circle cx="308.6" cy="187.9" r="1.43" fill="#cfc8ea" opacity="0.27"/><circle cx="32.5" cy="241.7" r="0.79" fill="#cfc8ea" opacity="0.54"/><circle cx="284.4" cy="127.5" r="1.44" fill="#cfc8ea" opacity="0.40"/><circle cx="324.8" cy="115.6" r="1.34" fill="#cfc8ea" opacity="0.49"/><circle cx="488.7" cy="186.5" r="0.92" fill="#cfc8ea" opacity="0.39"/><circle cx="206.8" cy="130.2" r="0.84" fill="#cfc8ea" opacity="0.48"/><circle cx="442.9" cy="87.3" r="1.47" fill="#cfc8ea" opacity="0.43"/><circle cx="612.8" cy="122.6" r="0.54" fill="#cfc8ea" opacity="0.51"/><circle cx="608.5" cy="105.2" r="1.54" fill="#cfc8ea" opacity="0.54"/><circle cx="700.0" cy="195.8" r="1.66" fill="#cfc8ea" opacity="0.13"/><circle cx="711.6" cy="95.1" r="0.84" fill="#cfc8ea" opacity="0.46"/><circle cx="675.9" cy="386.2" r="0.42" fill="#cfc8ea" opacity="0.37"/><circle cx="733.0" cy="313.6" r="0.88" fill="#cfc8ea" opacity="0.44"/><circle cx="396.6" cy="185.0" r="1.02" fill="#cfc8ea" opacity="0.35"/><circle cx="23.2" cy="248.8" r="1.39" fill="#cfc8ea" opacity="0.53"/><circle cx="731.2" cy="263.0" r="1.05" fill="#cfc8ea" opacity="0.23"/><circle cx="522.9" cy="388.0" r="0.93" fill="#cfc8ea" opacity="0.28"/><circle cx="215.8" cy="106.5" r="1.30" fill="#cfc8ea" opacity="0.37"/><circle cx="440.9" cy="334.8" r="1.39" fill="#cfc8ea" opacity="0.45"/><circle cx="105.4" cy="42.6" r="0.90" fill="#cfc8ea" opacity="0.53"/><circle cx="206.6" cy="139.7" r="0.53" fill="#cfc8ea" opacity="0.37"/><circle cx="141.4" cy="33.7" r="0.81" fill="#cfc8ea" opacity="0.14"/><circle cx="81.9" cy="271.3" r="1.15" fill="#cfc8ea" opacity="0.15"/><circle cx="48.9" cy="301.3" r="0.42" fill="#cfc8ea" opacity="0.15"/><circle cx="705.5" cy="43.4" r="1.28" fill="#cfc8ea" opacity="0.40"/><circle cx="611.5" cy="109.5" r="0.62" fill="#cfc8ea" opacity="0.16"/><circle cx="630.4" cy="235.3" r="1.42" fill="#cfc8ea" opacity="0.25"/><circle cx="472.4" cy="93.9" r="1.22" fill="#cfc8ea" opacity="0.15"/><path d="M 164.22714280709624 22.5 L 164.7 25.1 L 167.3 25.537196115823463 L 164.7 26.0 L 164.22714280709624 28.6 L 163.7 26.0 L 161.2 25.537196115823463 L 163.7 25.1 Z" fill="#f6e6bf" opacity="0.5186578445369378"/><path d="M 548.6490580327809 382.3 L 549.3 385.6 L 552.6 386.2770563571248 L 549.3 386.9 L 548.6490580327809 390.2 L 548.0 386.9 L 544.7 386.2770563571248 L 548.0 385.6 Z" fill="#f6e6bf" opacity="0.5675059917615727"/><path d="M 457.0644385628402 253.8 L 457.5 256.3 L 460.1 256.8087909624446 L 457.5 257.3 L 457.0644385628402 259.8 L 456.6 257.3 L 454.1 256.8087909624446 L 456.6 256.3 Z" fill="#f6e6bf" opacity="0.5625672696391121"/><path d="M 392.90121522918344 226.0 L 393.4 228.8 L 396.3 229.37145675742067 L 393.4 229.9 L 392.90121522918344 232.8 L 392.4 229.9 L 389.5 229.37145675742067 L 392.4 228.8 Z" fill="#f6e6bf" opacity="0.6646135010989382"/><path d="M 401.2020344398916 342.1 L 401.8 345.1 L 404.8 345.69585937750526 L 401.8 346.3 L 401.2020344398916 349.3 L 400.6 346.3 L 397.6 345.69585937750526 L 400.6 345.1 Z" fill="#f6e6bf" opacity="0.5927672628546133"/><path d="M 297.4 236.1 L 60.5 194.6 L 733.0 313.6 L 396.6 185.0 L 731.2 263.0" fill="none" stroke="#d4af6a" stroke-width="0.6" opacity="0.12"/>
  <rect x="1.5" y="1.5" width="757" height="430" rx="22" fill="none" stroke="#d4af6a" stroke-opacity="0.34" stroke-width="1.2"/>
  <rect x="7" y="7" width="746" height="419" rx="17" fill="none" stroke="#d4af6a" stroke-opacity="0.12" stroke-width="0.8"/>
  <path d="M 16 12.8 L 16.5 15.5 L 19.2 16 L 16.5 16.5 L 16 19.2 L 15.5 16.5 L 12.8 16 L 15.5 15.5 Z" fill="#d4af6a" opacity="0.4"/><path d="M 744 12.8 L 744.5 15.5 L 747.2 16 L 744.5 16.5 L 744 19.2 L 743.5 16.5 L 740.8 16 L 743.5 15.5 Z" fill="#d4af6a" opacity="0.4"/><path d="M 16 413.8 L 16.5 416.5 L 19.2 417 L 16.5 417.5 L 16 420.2 L 15.5 417.5 L 12.8 417 L 15.5 416.5 Z" fill="#d4af6a" opacity="0.4"/><path d="M 744 413.8 L 744.5 416.5 L 747.2 417 L 744.5 417.5 L 744 420.2 L 743.5 417.5 L 740.8 417 L 743.5 416.5 Z" fill="#d4af6a" opacity="0.4"/>
  <text x="380" y="46" text-anchor="middle" font-family="Georgia, 'Times New Roman', serif" font-size="22" letter-spacing="0.4" fill="#efeaf8">Five Signals of Uttara Bhadrapada</text>
  <line x1="230" y1="67" x2="368" y2="67" stroke="url(#uttarabhadrapadanakshatra1en-rule)" stroke-width="1"/>
  <line x1="392" y1="67" x2="530" y2="67" stroke="url(#uttarabhadrapadanakshatra1en-rule)" stroke-width="1"/>
  <path d="M 380 62.0 L 380.8 66.2 L 385.0 67 L 380.8 67.8 L 380 72.0 L 379.2 67.8 L 375.0 67 L 379.2 66.2 Z" fill="#d4af6a" opacity="0.85"/>
  <line x1="76" y1="121" x2="76" y2="361" stroke="#d4af6a" stroke-opacity="0.28" stroke-width="1.5"/>
  <circle cx="76" cy="121" r="20.0" fill="url(#uttarabhadrapadanakshatra1en-glow)" opacity="0.5"/>
    <circle cx="76" cy="121" r="15" fill="url(#uttarabhadrapadanakshatra1en-foil)" stroke="#f6e6bf" stroke-opacity="0.5" stroke-width="0.8"/>
    <circle cx="76" cy="116.8" r="9.0" fill="#ffffff" opacity="0.10"/>
    <text x="76" y="125.5" text-anchor="middle" font-family="Georgia, 'Times New Roman', serif" font-size="13" font-weight="700" fill="#3a2c12">1</text>
  <text x="116" y="117.0" font-family="Georgia, 'Times New Roman', serif" font-size="22" letter-spacing="0.3" fill="#f3effb">Still Surface, Deep Current</text>
  <text x="116" y="139.0" font-family="Helvetica, Arial, sans-serif" font-size="15.5" fill="#a59cc0">Steady composure over genuine intensity held in check</text>
  <circle cx="76" cy="181" r="20.0" fill="url(#uttarabhadrapadanakshatra1en-glow)" opacity="0.5"/>
    <circle cx="76" cy="181" r="15" fill="url(#uttarabhadrapadanakshatra1en-foil)" stroke="#f6e6bf" stroke-opacity="0.5" stroke-width="0.8"/>
    <circle cx="76" cy="176.8" r="9.0" fill="#ffffff" opacity="0.10"/>
    <text x="76" y="185.5" text-anchor="middle" font-family="Georgia, 'Times New Roman', serif" font-size="13" font-weight="700" fill="#3a2c12">2</text>
  <text x="116" y="177.0" font-family="Georgia, 'Times New Roman', serif" font-size="22" letter-spacing="0.3" fill="#f3effb">Wisdom That Waits</text>
  <text x="116" y="199.0" font-family="Helvetica, Arial, sans-serif" font-size="15.5" fill="#a59cc0">Insight surfaces late and whole, never early and tentative</text>
  <circle cx="76" cy="241" r="20.0" fill="url(#uttarabhadrapadanakshatra1en-glow)" opacity="0.5"/>
    <circle cx="76" cy="241" r="15" fill="url(#uttarabhadrapadanakshatra1en-foil)" stroke="#f6e6bf" stroke-opacity="0.5" stroke-width="0.8"/>
    <circle cx="76" cy="236.8" r="9.0" fill="#ffffff" opacity="0.10"/>
    <text x="76" y="245.5" text-anchor="middle" font-family="Georgia, 'Times New Roman', serif" font-size="13" font-weight="700" fill="#3a2c12">3</text>
  <text x="116" y="237.0" font-family="Georgia, 'Times New Roman', serif" font-size="22" letter-spacing="0.3" fill="#f3effb">Saturn's Long Horizon</text>
  <text x="116" y="259.0" font-family="Helvetica, Arial, sans-serif" font-size="15.5" fill="#a59cc0">Natural pull toward enduring work and commitments over quick wins</text>
  <circle cx="76" cy="301" r="20.0" fill="url(#uttarabhadrapadanakshatra1en-glow)" opacity="0.5"/>
    <circle cx="76" cy="301" r="15" fill="url(#uttarabhadrapadanakshatra1en-foil)" stroke="#f6e6bf" stroke-opacity="0.5" stroke-width="0.8"/>
    <circle cx="76" cy="296.8" r="9.0" fill="#ffffff" opacity="0.10"/>
    <text x="76" y="305.5" text-anchor="middle" font-family="Georgia, 'Times New Roman', serif" font-size="13" font-weight="700" fill="#3a2c12">4</text>
  <text x="116" y="297.0" font-family="Georgia, 'Times New Roman', serif" font-size="22" letter-spacing="0.3" fill="#f3effb">The Reservoir, Not the Spark</text>
  <text x="116" y="319.0" font-family="Helvetica, Arial, sans-serif" font-size="15.5" fill="#a59cc0">Energy accumulates slowly and releases under pressure</text>
  <circle cx="76" cy="361" r="20.0" fill="url(#uttarabhadrapadanakshatra1en-glow)" opacity="0.5"/>
    <circle cx="76" cy="361" r="15" fill="url(#uttarabhadrapadanakshatra1en-foil)" stroke="#f6e6bf" stroke-opacity="0.5" stroke-width="0.8"/>
    <circle cx="76" cy="356.8" r="9.0" fill="#ffffff" opacity="0.10"/>
    <text x="76" y="365.5" text-anchor="middle" font-family="Georgia, 'Times New Roman', serif" font-size="13" font-weight="700" fill="#3a2c12">5</text>
  <text x="116" y="357.0" font-family="Georgia, 'Times New Roman', serif" font-size="22" letter-spacing="0.3" fill="#f3effb">Late-Blooming Depth</text>
  <text x="116" y="379.0" font-family="Helvetica, Arial, sans-serif" font-size="15.5" fill="#a59cc0">Gifts mature with time, rarely announcing themselves early</text>
  <path d="M 202.22749999999988 404.4 L 202.6 406.6 L 204.8 407 L 202.6 407.4 L 202.22749999999988 409.6 L 201.8 407.4 L 199.6 407 L 201.8 406.6 Z" fill="#d4af6a" opacity="0.5"/>
  <text x="380" y="411" text-anchor="middle" font-family="Georgia, 'Times New Roman', serif" font-style="italic" font-size="11.5" fill="#7b738f">A self-reflection framework — tendencies, not predictions</text>
  <path d="M 557.7725000000002 404.4 L 558.2 406.6 L 560.4 407 L 558.2 407.4 L 557.7725000000002 409.6 L 557.4 407.4 L 555.2 407 L 557.4 406.6 Z" fill="#d4af6a" opacity="0.5"/>
</svg>
