<svg xmlns="http://www.w3.org/2000/svg" viewBox="0 0 760 561" role="img" aria-label="Purva vs Uttara Bhadrapada: Fire and Depth">
  <defs>
    <linearGradient id="uttarabhadrapadanakshatra0en-panel" x1="0" y1="0" x2="0.4" y2="1">
      <stop offset="0" stop-color="#1a1433"/><stop offset="0.55" stop-color="#120e26"/><stop offset="1" stop-color="#09081a"/>
    </linearGradient>
    <radialGradient id="uttarabhadrapadanakshatra0en-foil" cx="0.42" cy="0.34" r="0.75">
      <stop offset="0" stop-color="#fbf0d2"/><stop offset="0.5" stop-color="#e8c882"/><stop offset="1" stop-color="#b8923f"/>
    </radialGradient>
    <radialGradient id="uttarabhadrapadanakshatra0en-glow" cx="0.5" cy="0.5" r="0.5">
      <stop offset="0" stop-color="#f6e6bf"/><stop offset="1" stop-color="#f6e6bf" stop-opacity="0"/>
    </radialGradient>
    <radialGradient id="uttarabhadrapadanakshatra0en-neb1" cx="0.5" cy="0.5" r="0.5">
      <stop offset="0" stop-color="#6f4bb0" stop-opacity="0.28"/><stop offset="1" stop-color="#6f4bb0" stop-opacity="0"/>
    </radialGradient>
    <radialGradient id="uttarabhadrapadanakshatra0en-neb2" cx="0.5" cy="0.5" r="0.5">
      <stop offset="0" stop-color="#d4af6a" stop-opacity="0.16"/><stop offset="1" stop-color="#d4af6a" stop-opacity="0"/>
    </radialGradient>
    <linearGradient id="uttarabhadrapadanakshatra0en-rule" x1="0" y1="0" x2="1" y2="0">
      <stop offset="0" stop-color="#d4af6a" stop-opacity="0"/><stop offset="0.5" stop-color="#d4af6a" stop-opacity="0.6"/><stop offset="1" stop-color="#d4af6a" stop-opacity="0"/>
    </linearGradient>
  </defs>
  <rect x="1.5" y="1.5" width="757" height="558" rx="22" fill="url(#uttarabhadrapadanakshatra0en-panel)"/>
  <ellipse cx="198" cy="135" rx="380" ry="191" fill="url(#uttarabhadrapadanakshatra0en-neb1)"/>
  <ellipse cx="623" cy="449" rx="334" ry="180" fill="url(#uttarabhadrapadanakshatra0en-neb2)"/>
  <circle cx="684.3" cy="545.6" r="1.23" fill="#cfc8ea" opacity="0.30"/><circle cx="717.5" cy="104.5" r="0.93" fill="#cfc8ea" opacity="0.26"/><circle cx="629.0" cy="347.7" r="0.71" fill="#cfc8ea" opacity="0.28"/><circle cx="109.3" cy="421.3" r="0.78" fill="#cfc8ea" opacity="0.31"/><circle cx="354.5" cy="145.1" r="0.97" fill="#cfc8ea" opacity="0.44"/><circle cx="515.3" cy="291.5" r="1.47" fill="#cfc8ea" opacity="0.21"/><circle cx="292.3" cy="168.5" r="0.81" fill="#cfc8ea" opacity="0.42"/><circle cx="388.9" cy="543.7" r="0.71" fill="#cfc8ea" opacity="0.15"/><circle cx="86.6" cy="406.5" r="1.27" fill="#cfc8ea" opacity="0.27"/><circle cx="520.9" cy="93.1" r="1.70" fill="#cfc8ea" opacity="0.53"/><circle cx="163.4" cy="177.7" r="1.42" fill="#cfc8ea" opacity="0.53"/><circle cx="684.6" cy="172.7" r="1.05" fill="#cfc8ea" opacity="0.21"/><circle cx="301.2" cy="489.8" r="0.58" fill="#cfc8ea" opacity="0.44"/><circle cx="336.8" cy="261.5" r="0.95" fill="#cfc8ea" opacity="0.12"/><circle cx="434.2" cy="473.0" r="1.53" fill="#cfc8ea" opacity="0.25"/><circle cx="315.4" cy="17.8" r="0.54" fill="#cfc8ea" opacity="0.18"/><circle cx="477.1" cy="373.0" r="1.02" fill="#cfc8ea" opacity="0.53"/><circle cx="162.3" cy="414.4" r="1.26" fill="#cfc8ea" opacity="0.42"/><circle cx="387.0" cy="317.3" r="0.73" fill="#cfc8ea" opacity="0.48"/><circle cx="555.3" cy="412.4" r="0.41" fill="#cfc8ea" opacity="0.35"/><circle cx="61.8" cy="135.5" r="1.06" fill="#cfc8ea" opacity="0.12"/><circle cx="137.5" cy="451.3" r="1.01" fill="#cfc8ea" opacity="0.25"/><circle cx="440.4" cy="546.0" r="1.49" fill="#cfc8ea" opacity="0.27"/><circle cx="695.9" cy="469.9" r="0.69" fill="#cfc8ea" opacity="0.27"/><circle cx="45.9" cy="447.8" r="0.76" fill="#cfc8ea" opacity="0.18"/><circle cx="430.2" cy="152.3" r="1.02" fill="#cfc8ea" opacity="0.33"/><circle cx="380.8" cy="134.0" r="1.17" fill="#cfc8ea" opacity="0.14"/><circle cx="745.9" cy="308.6" r="1.48" fill="#cfc8ea" opacity="0.28"/><circle cx="522.4" cy="144.0" r="0.47" fill="#cfc8ea" opacity="0.15"/><circle cx="283.1" cy="457.4" r="1.61" fill="#cfc8ea" opacity="0.52"/><circle cx="231.0" cy="323.5" r="1.65" fill="#cfc8ea" opacity="0.49"/><circle cx="611.4" cy="246.4" r="0.47" fill="#cfc8ea" opacity="0.24"/><circle cx="37.6" cy="319.8" r="1.37" fill="#cfc8ea" opacity="0.21"/><circle cx="309.3" cy="393.5" r="1.34" fill="#cfc8ea" opacity="0.23"/><circle cx="87.8" cy="311.6" r="0.97" fill="#cfc8ea" opacity="0.37"/><circle cx="508.6" cy="127.6" r="0.47" fill="#cfc8ea" opacity="0.24"/><circle cx="517.6" cy="363.4" r="1.07" fill="#cfc8ea" opacity="0.15"/><circle cx="736.2" cy="398.3" r="1.24" fill="#cfc8ea" opacity="0.46"/><circle cx="594.9" cy="313.4" r="0.63" fill="#cfc8ea" opacity="0.46"/><circle cx="180.2" cy="469.9" r="0.76" fill="#cfc8ea" opacity="0.28"/><circle cx="393.6" cy="459.7" r="1.19" fill="#cfc8ea" opacity="0.19"/><circle cx="253.0" cy="368.4" r="1.03" fill="#cfc8ea" opacity="0.33"/><circle cx="16.1" cy="27.6" r="1.47" fill="#cfc8ea" opacity="0.33"/><circle cx="562.5" cy="269.3" r="0.97" fill="#cfc8ea" opacity="0.18"/><circle cx="685.0" cy="541.6" r="1.38" fill="#cfc8ea" opacity="0.46"/><circle cx="304.4" cy="227.7" r="1.27" fill="#cfc8ea" opacity="0.36"/><circle cx="247.3" cy="534.9" r="1.61" fill="#cfc8ea" opacity="0.26"/><path d="M 688.6411168854684 396.7 L 689.1 399.3 L 691.7 399.7962858360261 L 689.1 400.3 L 688.6411168854684 402.9 L 688.1 400.3 L 685.6 399.7962858360261 L 688.1 399.3 Z" fill="#f6e6bf" opacity="0.5645661450456828"/><path d="M 97.05687164328992 298.6 L 97.6 301.3 L 100.3 301.82697833981365 L 97.6 302.3 L 97.05687164328992 305.1 L 96.5 302.3 L 93.8 301.82697833981365 L 96.5 301.3 Z" fill="#f6e6bf" opacity="0.6341606503818185"/><path d="M 325.1505099069327 499.4 L 325.8 502.7 L 329.1 503.33523531258106 L 325.8 504.0 L 325.1505099069327 507.3 L 324.5 504.0 L 321.2 503.33523531258106 L 324.5 502.7 Z" fill="#f6e6bf" opacity="0.6076757689472287"/><path d="M 210.4421942587942 415.7 L 211.0 418.5 L 213.8 419.06250444147736 L 211.0 419.6 L 210.4421942587942 422.4 L 209.9 419.6 L 207.1 419.06250444147736 L 209.9 418.5 Z" fill="#f6e6bf" opacity="0.6724035758990794"/><path d="M 96.06497180275619 343.3 L 96.7 346.5 L 99.9 347.1597526092082 L 96.7 347.8 L 96.06497180275619 351.0 L 95.5 347.8 L 92.2 347.1597526092082 L 95.5 346.5 Z" fill="#f6e6bf" opacity="0.6757889631669969"/><path d="M 717.5 104.5 L 434.2 473.0 L 61.8 135.5 L 440.4 546.0 L 508.6 127.6" fill="none" stroke="#d4af6a" stroke-width="0.6" opacity="0.12"/>
  <rect x="1.5" y="1.5" width="757" height="558" rx="22" fill="none" stroke="#d4af6a" stroke-opacity="0.34" stroke-width="1.2"/>
  <rect x="7" y="7" width="746" height="547" rx="17" fill="none" stroke="#d4af6a" stroke-opacity="0.12" stroke-width="0.8"/>
  <path d="M 16 12.8 L 16.5 15.5 L 19.2 16 L 16.5 16.5 L 16 19.2 L 15.5 16.5 L 12.8 16 L 15.5 15.5 Z" fill="#d4af6a" opacity="0.4"/><path d="M 744 12.8 L 744.5 15.5 L 747.2 16 L 744.5 16.5 L 744 19.2 L 743.5 16.5 L 740.8 16 L 743.5 15.5 Z" fill="#d4af6a" opacity="0.4"/><path d="M 16 541.8 L 16.5 544.5 L 19.2 545 L 16.5 545.5 L 16 548.2 L 15.5 545.5 L 12.8 545 L 15.5 544.5 Z" fill="#d4af6a" opacity="0.4"/><path d="M 744 541.8 L 744.5 544.5 L 747.2 545 L 744.5 545.5 L 744 548.2 L 743.5 545.5 L 740.8 545 L 743.5 544.5 Z" fill="#d4af6a" opacity="0.4"/>
  <text x="380" y="46" text-anchor="middle" font-family="Georgia, 'Times New Roman', serif" font-size="22" letter-spacing="0.4" fill="#efeaf8">Purva vs Uttara Bhadrapada: Fire and Depth</text>
  <line x1="230" y1="67" x2="368" y2="67" stroke="url(#uttarabhadrapadanakshatra0en-rule)" stroke-width="1"/>
  <line x1="392" y1="67" x2="530" y2="67" stroke="url(#uttarabhadrapadanakshatra0en-rule)" stroke-width="1"/>
  <path d="M 380 62.0 L 380.8 66.2 L 385.0 67 L 380.8 67.8 L 380 72.0 L 379.2 67.8 L 375.0 67 L 379.2 66.2 Z" fill="#d4af6a" opacity="0.85"/>

  <rect x="46" y="99" width="668" height="201.0" rx="14" fill="#1d1740" fill-opacity="0.5" stroke="#d4af6a" stroke-opacity="0.22" stroke-width="0.9"/>
  <rect x="46" y="99" width="668" height="3.5" rx="1.8" fill="#d4af6a" fill-opacity="0.6"/>
  <path d="M 380 97.1 L 380.5 100.0 L 383.4 100.5 L 380.5 101.0 L 380 103.9 L 379.5 101.0 L 376.6 100.5 L 379.5 100.0 Z" fill="#f6e6bf" opacity="0.7"/>
  <text x="380" y="128.0" text-anchor="middle" font-family="Georgia, 'Times New Roman', serif" font-size="21" font-weight="700" letter-spacing="0.3" fill="#f3effb">Purva Bhadrapada</text>
  <path d="M 70 157.8 L 70.5 160.5 L 73.2 161 L 70.5 161.5 L 70 164.2 L 69.5 161.5 L 66.8 161 L 69.5 160.5 Z" fill="#d4af6a" opacity="0.8"/>
  <text x="84" y="166.0" font-family="Helvetica, Arial, sans-serif" font-size="16" fill="#a59cc0">Ruled by Jupiter</text>
  <path d="M 70 186.8 L 70.5 189.5 L 73.2 190 L 70.5 190.5 L 70 193.2 L 69.5 190.5 L 66.8 190 L 69.5 189.5 Z" fill="#d4af6a" opacity="0.8"/>
  <text x="84" y="195.0" font-family="Helvetica, Arial, sans-serif" font-size="16" fill="#a59cc0">Deity: Ajaikapada</text>
  <path d="M 70 215.8 L 70.5 218.5 L 73.2 219 L 70.5 219.5 L 70 222.2 L 69.5 219.5 L 66.8 219 L 69.5 218.5 Z" fill="#d4af6a" opacity="0.8"/>
  <text x="84" y="224.0" font-family="Helvetica, Arial, sans-serif" font-size="16" fill="#a59cc0">Spiritual fire</text>
  <path d="M 70 244.8 L 70.5 247.5 L 73.2 248 L 70.5 248.5 L 70 251.2 L 69.5 248.5 L 66.8 248 L 69.5 247.5 Z" fill="#d4af6a" opacity="0.8"/>
  <text x="84" y="253.0" font-family="Helvetica, Arial, sans-serif" font-size="16" fill="#a59cc0">Volatile, igniting</text>
  <path d="M 70 273.8 L 70.5 276.5 L 73.2 277 L 70.5 277.5 L 70 280.2 L 69.5 277.5 L 66.8 277 L 69.5 276.5 Z" fill="#d4af6a" opacity="0.8"/>
  <text x="84" y="282.0" font-family="Helvetica, Arial, sans-serif" font-size="16" fill="#a59cc0">Blazes</text>
  <path d="M 380 308.5 L 380.7 312.3 L 384.5 313 L 380.7 313.7 L 380 317.5 L 379.3 313.7 L 375.5 313 L 379.3 312.3 Z" fill="#d4af6a" opacity="0.65"/>
  <rect x="46" y="326" width="668" height="201.0" rx="14" fill="#1d1740" fill-opacity="0.5" stroke="#d4af6a" stroke-opacity="0.22" stroke-width="0.9"/>
  <rect x="46" y="326" width="668" height="3.5" rx="1.8" fill="#d4af6a" fill-opacity="0.6"/>
  <path d="M 380 324.1 L 380.5 327.0 L 383.4 327.5 L 380.5 328.0 L 380 330.9 L 379.5 328.0 L 376.6 327.5 L 379.5 327.0 Z" fill="#f6e6bf" opacity="0.7"/>
  <text x="380" y="355.0" text-anchor="middle" font-family="Georgia, 'Times New Roman', serif" font-size="21" font-weight="700" letter-spacing="0.3" fill="#f3effb">Uttara Bhadrapada</text>
  <path d="M 70 384.8 L 70.5 387.5 L 73.2 388 L 70.5 388.5 L 70 391.2 L 69.5 388.5 L 66.8 388 L 69.5 387.5 Z" fill="#d4af6a" opacity="0.8"/>
  <text x="84" y="393.0" font-family="Helvetica, Arial, sans-serif" font-size="16" fill="#a59cc0">Ruled by Saturn</text>
  <path d="M 70 413.8 L 70.5 416.5 L 73.2 417 L 70.5 417.5 L 70 420.2 L 69.5 417.5 L 66.8 417 L 69.5 416.5 Z" fill="#d4af6a" opacity="0.8"/>
  <text x="84" y="422.0" font-family="Helvetica, Arial, sans-serif" font-size="16" fill="#a59cc0">Deity: Ahirbudhnya</text>
  <path d="M 70 442.8 L 70.5 445.5 L 73.2 446 L 70.5 446.5 L 70 449.2 L 69.5 446.5 L 66.8 446 L 69.5 445.5 Z" fill="#d4af6a" opacity="0.8"/>
  <text x="84" y="451.0" font-family="Helvetica, Arial, sans-serif" font-size="16" fill="#a59cc0">Still depth</text>
  <path d="M 70 471.8 L 70.5 474.5 L 73.2 475 L 70.5 475.5 L 70 478.2 L 69.5 475.5 L 66.8 475 L 69.5 474.5 Z" fill="#d4af6a" opacity="0.8"/>
  <text x="84" y="480.0" font-family="Helvetica, Arial, sans-serif" font-size="16" fill="#a59cc0">Grounded, enduring</text>
  <path d="M 70 500.8 L 70.5 503.5 L 73.2 504 L 70.5 504.5 L 70 507.2 L 69.5 504.5 L 66.8 504 L 69.5 503.5 Z" fill="#d4af6a" opacity="0.8"/>
  <text x="84" y="509.0" font-family="Helvetica, Arial, sans-serif" font-size="16" fill="#a59cc0">Deepens</text>
  <path d="M 202.22749999999988 532.4 L 202.6 534.6 L 204.8 535 L 202.6 535.4 L 202.22749999999988 537.6 L 201.8 535.4 L 199.6 535 L 201.8 534.6 Z" fill="#d4af6a" opacity="0.5"/>
  <text x="380" y="539" text-anchor="middle" font-family="Georgia, 'Times New Roman', serif" font-style="italic" font-size="11.5" fill="#7b738f">A self-reflection framework — tendencies, not predictions</text>
  <path d="M 557.7725000000002 532.4 L 558.2 534.6 L 560.4 535 L 558.2 535.4 L 557.7725000000002 537.6 L 557.4 535.4 L 555.2 535 L 557.4 534.6 Z" fill="#d4af6a" opacity="0.5"/>
</svg>
