<svg xmlns="http://www.w3.org/2000/svg" viewBox="0 0 760 433" role="img" aria-label="How to Synthesise the Vinicius Jr Luminaries">
  <defs>
    <linearGradient id="viniciusjrbirthchartastrology0en-panel" x1="0" y1="0" x2="0.4" y2="1">
      <stop offset="0" stop-color="#1a1433"/><stop offset="0.55" stop-color="#120e26"/><stop offset="1" stop-color="#09081a"/>
    </linearGradient>
    <radialGradient id="viniciusjrbirthchartastrology0en-foil" cx="0.42" cy="0.34" r="0.75">
      <stop offset="0" stop-color="#fbf0d2"/><stop offset="0.5" stop-color="#e8c882"/><stop offset="1" stop-color="#b8923f"/>
    </radialGradient>
    <radialGradient id="viniciusjrbirthchartastrology0en-glow" cx="0.5" cy="0.5" r="0.5">
      <stop offset="0" stop-color="#f6e6bf"/><stop offset="1" stop-color="#f6e6bf" stop-opacity="0"/>
    </radialGradient>
    <radialGradient id="viniciusjrbirthchartastrology0en-neb1" cx="0.5" cy="0.5" r="0.5">
      <stop offset="0" stop-color="#6f4bb0" stop-opacity="0.28"/><stop offset="1" stop-color="#6f4bb0" stop-opacity="0"/>
    </radialGradient>
    <radialGradient id="viniciusjrbirthchartastrology0en-neb2" cx="0.5" cy="0.5" r="0.5">
      <stop offset="0" stop-color="#d4af6a" stop-opacity="0.16"/><stop offset="1" stop-color="#d4af6a" stop-opacity="0"/>
    </radialGradient>
    <linearGradient id="viniciusjrbirthchartastrology0en-rule" x1="0" y1="0" x2="1" y2="0">
      <stop offset="0" stop-color="#d4af6a" stop-opacity="0"/><stop offset="0.5" stop-color="#d4af6a" stop-opacity="0.6"/><stop offset="1" stop-color="#d4af6a" stop-opacity="0"/>
    </linearGradient>
  </defs>
  <rect x="1.5" y="1.5" width="757" height="430" rx="22" fill="url(#viniciusjrbirthchartastrology0en-panel)"/>
  <ellipse cx="198" cy="104" rx="380" ry="147" fill="url(#viniciusjrbirthchartastrology0en-neb1)"/>
  <ellipse cx="623" cy="346" rx="334" ry="139" fill="url(#viniciusjrbirthchartastrology0en-neb2)"/>
  <circle cx="553.7" cy="178.6" r="0.54" fill="#cfc8ea" opacity="0.16"/><circle cx="635.2" cy="306.5" r="0.48" fill="#cfc8ea" opacity="0.19"/><circle cx="454.0" cy="13.2" r="0.73" fill="#cfc8ea" opacity="0.49"/><circle cx="727.5" cy="167.4" r="1.63" fill="#cfc8ea" opacity="0.36"/><circle cx="98.4" cy="387.6" r="0.90" fill="#cfc8ea" opacity="0.34"/><circle cx="738.5" cy="275.2" r="1.14" fill="#cfc8ea" opacity="0.27"/><circle cx="605.4" cy="61.9" r="1.10" fill="#cfc8ea" opacity="0.30"/><circle cx="509.8" cy="19.8" r="0.62" fill="#cfc8ea" opacity="0.46"/><circle cx="559.3" cy="128.6" r="0.42" fill="#cfc8ea" opacity="0.47"/><circle cx="92.8" cy="349.4" r="1.34" fill="#cfc8ea" opacity="0.26"/><circle cx="116.1" cy="172.0" r="1.51" fill="#cfc8ea" opacity="0.37"/><circle cx="55.6" cy="74.5" r="1.59" fill="#cfc8ea" opacity="0.40"/><circle cx="628.3" cy="70.1" r="0.59" fill="#cfc8ea" opacity="0.37"/><circle cx="290.2" cy="296.1" r="0.65" fill="#cfc8ea" opacity="0.23"/><circle cx="260.0" cy="300.1" r="1.37" fill="#cfc8ea" opacity="0.45"/><circle cx="277.4" cy="71.6" r="1.33" fill="#cfc8ea" opacity="0.42"/><circle cx="471.2" cy="121.8" r="0.81" fill="#cfc8ea" opacity="0.48"/><circle cx="187.5" cy="46.5" r="0.62" fill="#cfc8ea" opacity="0.41"/><circle cx="34.6" cy="179.8" r="0.73" fill="#cfc8ea" opacity="0.13"/><circle cx="243.1" cy="159.2" r="1.11" fill="#cfc8ea" opacity="0.42"/><circle cx="461.9" cy="300.5" r="0.44" fill="#cfc8ea" opacity="0.22"/><circle cx="115.3" cy="80.8" r="0.84" fill="#cfc8ea" opacity="0.41"/><circle cx="558.3" cy="92.8" r="0.82" fill="#cfc8ea" opacity="0.39"/><circle cx="301.7" cy="299.6" r="1.00" fill="#cfc8ea" opacity="0.44"/><circle cx="492.7" cy="233.0" r="1.18" fill="#cfc8ea" opacity="0.13"/><circle cx="12.7" cy="261.8" r="0.42" fill="#cfc8ea" opacity="0.12"/><circle cx="250.9" cy="294.5" r="1.48" fill="#cfc8ea" opacity="0.39"/><circle cx="359.3" cy="22.6" r="1.29" fill="#cfc8ea" opacity="0.20"/><circle cx="193.8" cy="115.0" r="1.31" fill="#cfc8ea" opacity="0.49"/><circle cx="423.7" cy="321.9" r="0.86" fill="#cfc8ea" opacity="0.49"/><circle cx="727.4" cy="325.8" r="1.16" fill="#cfc8ea" opacity="0.32"/><circle cx="125.4" cy="344.2" r="0.50" fill="#cfc8ea" opacity="0.48"/><circle cx="579.5" cy="320.9" r="1.11" fill="#cfc8ea" opacity="0.50"/><circle cx="18.2" cy="398.5" r="1.13" fill="#cfc8ea" opacity="0.50"/><circle cx="93.7" cy="365.6" r="1.28" fill="#cfc8ea" opacity="0.43"/><circle cx="236.7" cy="369.7" r="0.56" fill="#cfc8ea" opacity="0.37"/><circle cx="462.3" cy="231.8" r="1.40" fill="#cfc8ea" opacity="0.16"/><path d="M 412.98869301378727 113.3 L 413.5 115.9 L 416.1 116.41618775646202 L 413.5 116.9 L 412.98869301378727 119.5 L 412.5 116.9 L 409.9 116.41618775646202 L 412.5 115.9 Z" fill="#f6e6bf" opacity="0.5365400888724252"/><path d="M 652.395190961659 315.8 L 653.0 318.9 L 656.1 319.4706600809004 L 653.0 320.1 L 652.395190961659 323.1 L 651.8 320.1 L 648.7 319.4706600809004 L 651.8 318.9 Z" fill="#f6e6bf" opacity="0.7494009252404794"/><path d="M 370.0659567117691 86.7 L 370.6 89.4 L 373.3 89.91143185156398 L 370.6 90.4 L 370.0659567117691 93.2 L 369.5 90.4 L 366.8 89.91143185156398 L 369.5 89.4 Z" fill="#f6e6bf" opacity="0.5002673922805115"/><path d="M 627.4134944602847 301.0 L 628.0 304.2 L 631.2 304.8011206088122 L 628.0 305.4 L 627.4134944602847 308.6 L 626.8 305.4 L 623.6 304.8011206088122 L 626.8 304.2 Z" fill="#f6e6bf" opacity="0.6163436935981735"/><path d="M 397.97405718266964 115.6 L 398.4 117.8 L 400.6 118.24826140399091 L 398.4 118.7 L 397.97405718266964 120.9 L 397.6 118.7 L 395.3 118.24826140399091 L 397.6 117.8 Z" fill="#f6e6bf" opacity="0.7072112758411094"/><path d="M 738.5 275.2 L 605.4 61.9 L 509.8 19.8 L 116.1 172.0 L 301.7 299.6" fill="none" stroke="#d4af6a" stroke-width="0.6" opacity="0.12"/>
  <rect x="1.5" y="1.5" width="757" height="430" rx="22" fill="none" stroke="#d4af6a" stroke-opacity="0.34" stroke-width="1.2"/>
  <rect x="7" y="7" width="746" height="419" rx="17" fill="none" stroke="#d4af6a" stroke-opacity="0.12" stroke-width="0.8"/>
  <path d="M 16 12.8 L 16.5 15.5 L 19.2 16 L 16.5 16.5 L 16 19.2 L 15.5 16.5 L 12.8 16 L 15.5 15.5 Z" fill="#d4af6a" opacity="0.4"/><path d="M 744 12.8 L 744.5 15.5 L 747.2 16 L 744.5 16.5 L 744 19.2 L 743.5 16.5 L 740.8 16 L 743.5 15.5 Z" fill="#d4af6a" opacity="0.4"/><path d="M 16 413.8 L 16.5 416.5 L 19.2 417 L 16.5 417.5 L 16 420.2 L 15.5 417.5 L 12.8 417 L 15.5 416.5 Z" fill="#d4af6a" opacity="0.4"/><path d="M 744 413.8 L 744.5 416.5 L 747.2 417 L 744.5 417.5 L 744 420.2 L 743.5 417.5 L 740.8 417 L 743.5 416.5 Z" fill="#d4af6a" opacity="0.4"/>
  <text x="380" y="46" text-anchor="middle" font-family="Georgia, 'Times New Roman', serif" font-size="22" letter-spacing="0.4" fill="#efeaf8">How to Synthesise the Vinicius Jr Luminaries</text>
  <line x1="230" y1="67" x2="368" y2="67" stroke="url(#viniciusjrbirthchartastrology0en-rule)" stroke-width="1"/>
  <line x1="392" y1="67" x2="530" y2="67" stroke="url(#viniciusjrbirthchartastrology0en-rule)" stroke-width="1"/>
  <path d="M 380 62.0 L 380.8 66.2 L 385.0 67 L 380.8 67.8 L 380 72.0 L 379.2 67.8 L 375.0 67 L 379.2 66.2 Z" fill="#d4af6a" opacity="0.85"/>
  <line x1="76" y1="121" x2="76" y2="361" stroke="#d4af6a" stroke-opacity="0.28" stroke-width="1.5"/>
  <circle cx="76" cy="121" r="20.0" fill="url(#viniciusjrbirthchartastrology0en-glow)" opacity="0.5"/>
    <circle cx="76" cy="121" r="15" fill="url(#viniciusjrbirthchartastrology0en-foil)" stroke="#f6e6bf" stroke-opacity="0.5" stroke-width="0.8"/>
    <circle cx="76" cy="116.8" r="9.0" fill="#ffffff" opacity="0.10"/>
    <text x="76" y="125.5" text-anchor="middle" font-family="Georgia, 'Times New Roman', serif" font-size="13" font-weight="700" fill="#3a2c12">1</text>
  <text x="116" y="117.0" font-family="Georgia, 'Times New Roman', serif" font-size="22" letter-spacing="0.3" fill="#f3effb">Locate the Cancer Sun</text>
  <text x="116" y="139.0" font-family="Helvetica, Arial, sans-serif" font-size="15.5" fill="#a59cc0">The emotional core, the protective and instinctive centre</text>
  <circle cx="76" cy="181" r="20.0" fill="url(#viniciusjrbirthchartastrology0en-glow)" opacity="0.5"/>
    <circle cx="76" cy="181" r="15" fill="url(#viniciusjrbirthchartastrology0en-foil)" stroke="#f6e6bf" stroke-opacity="0.5" stroke-width="0.8"/>
    <circle cx="76" cy="176.8" r="9.0" fill="#ffffff" opacity="0.10"/>
    <text x="76" y="185.5" text-anchor="middle" font-family="Georgia, 'Times New Roman', serif" font-size="13" font-weight="700" fill="#3a2c12">2</text>
  <text x="116" y="177.0" font-family="Georgia, 'Times New Roman', serif" font-size="22" letter-spacing="0.3" fill="#f3effb">Locate the Sagittarius Moon</text>
  <text x="116" y="199.0" font-family="Helvetica, Arial, sans-serif" font-size="15.5" fill="#a59cc0">Inner needs: freedom, risk appetite, and flair</text>
  <circle cx="76" cy="241" r="20.0" fill="url(#viniciusjrbirthchartastrology0en-glow)" opacity="0.5"/>
    <circle cx="76" cy="241" r="15" fill="url(#viniciusjrbirthchartastrology0en-foil)" stroke="#f6e6bf" stroke-opacity="0.5" stroke-width="0.8"/>
    <circle cx="76" cy="236.8" r="9.0" fill="#ffffff" opacity="0.10"/>
    <text x="76" y="245.5" text-anchor="middle" font-family="Georgia, 'Times New Roman', serif" font-size="13" font-weight="700" fill="#3a2c12">3</text>
  <text x="116" y="237.0" font-family="Georgia, 'Times New Roman', serif" font-size="22" letter-spacing="0.3" fill="#f3effb">Blend the Two Lights</text>
  <text x="116" y="259.0" font-family="Helvetica, Arial, sans-serif" font-size="15.5" fill="#a59cc0">Feeling-led Cancer core finding joy in the bold Sagittarian gamble</text>
  <circle cx="76" cy="301" r="20.0" fill="url(#viniciusjrbirthchartastrology0en-glow)" opacity="0.5"/>
    <circle cx="76" cy="301" r="15" fill="url(#viniciusjrbirthchartastrology0en-foil)" stroke="#f6e6bf" stroke-opacity="0.5" stroke-width="0.8"/>
    <circle cx="76" cy="296.8" r="9.0" fill="#ffffff" opacity="0.10"/>
    <text x="76" y="305.5" text-anchor="middle" font-family="Georgia, 'Times New Roman', serif" font-size="13" font-weight="700" fill="#3a2c12">4</text>
  <text x="116" y="297.0" font-family="Georgia, 'Times New Roman', serif" font-size="22" letter-spacing="0.3" fill="#f3effb">Track 2026 Transits</text>
  <text x="116" y="319.0" font-family="Helvetica, Arial, sans-serif" font-size="15.5" fill="#a59cc0">Jupiter touching the Cancer Sun, Saturn touching both the Sun and Moon</text>
  <circle cx="76" cy="361" r="20.0" fill="url(#viniciusjrbirthchartastrology0en-glow)" opacity="0.5"/>
    <circle cx="76" cy="361" r="15" fill="url(#viniciusjrbirthchartastrology0en-foil)" stroke="#f6e6bf" stroke-opacity="0.5" stroke-width="0.8"/>
    <circle cx="76" cy="356.8" r="9.0" fill="#ffffff" opacity="0.10"/>
    <text x="76" y="365.5" text-anchor="middle" font-family="Georgia, 'Times New Roman', serif" font-size="13" font-weight="700" fill="#3a2c12">5</text>
  <text x="116" y="357.0" font-family="Georgia, 'Times New Roman', serif" font-size="22" letter-spacing="0.3" fill="#f3effb">Hold the Synthesis as Theme</text>
  <text x="116" y="379.0" font-family="Helvetica, Arial, sans-serif" font-size="15.5" fill="#a59cc0">Read the synthesis as a theme the chart carries, not a fixed outcome</text>
  <path d="M 202.22749999999988 404.4 L 202.6 406.6 L 204.8 407 L 202.6 407.4 L 202.22749999999988 409.6 L 201.8 407.4 L 199.6 407 L 201.8 406.6 Z" fill="#d4af6a" opacity="0.5"/>
  <text x="380" y="411" text-anchor="middle" font-family="Georgia, 'Times New Roman', serif" font-style="italic" font-size="11.5" fill="#7b738f">A self-reflection framework — tendencies, not predictions</text>
  <path d="M 557.7725000000002 404.4 L 558.2 406.6 L 560.4 407 L 558.2 407.4 L 557.7725000000002 409.6 L 557.4 407.4 L 555.2 407 L 557.4 406.6 Z" fill="#d4af6a" opacity="0.5"/>
</svg>
