<svg xmlns="http://www.w3.org/2000/svg" viewBox="0 0 760 505" role="img" aria-label="Five Steps to Read a Cancer Sun, Sagittarius Moon Chart">
  <defs>
    <linearGradient id="viniciusjrzodiacsign0en-panel" x1="0" y1="0" x2="0.4" y2="1">
      <stop offset="0" stop-color="#1a1433"/><stop offset="0.55" stop-color="#120e26"/><stop offset="1" stop-color="#09081a"/>
    </linearGradient>
    <radialGradient id="viniciusjrzodiacsign0en-foil" cx="0.42" cy="0.34" r="0.75">
      <stop offset="0" stop-color="#fbf0d2"/><stop offset="0.5" stop-color="#e8c882"/><stop offset="1" stop-color="#b8923f"/>
    </radialGradient>
    <radialGradient id="viniciusjrzodiacsign0en-glow" cx="0.5" cy="0.5" r="0.5">
      <stop offset="0" stop-color="#f6e6bf"/><stop offset="1" stop-color="#f6e6bf" stop-opacity="0"/>
    </radialGradient>
    <radialGradient id="viniciusjrzodiacsign0en-neb1" cx="0.5" cy="0.5" r="0.5">
      <stop offset="0" stop-color="#6f4bb0" stop-opacity="0.28"/><stop offset="1" stop-color="#6f4bb0" stop-opacity="0"/>
    </radialGradient>
    <radialGradient id="viniciusjrzodiacsign0en-neb2" cx="0.5" cy="0.5" r="0.5">
      <stop offset="0" stop-color="#d4af6a" stop-opacity="0.16"/><stop offset="1" stop-color="#d4af6a" stop-opacity="0"/>
    </radialGradient>
    <linearGradient id="viniciusjrzodiacsign0en-rule" x1="0" y1="0" x2="1" y2="0">
      <stop offset="0" stop-color="#d4af6a" stop-opacity="0"/><stop offset="0.5" stop-color="#d4af6a" stop-opacity="0.6"/><stop offset="1" stop-color="#d4af6a" stop-opacity="0"/>
    </linearGradient>
  </defs>
  <rect x="1.5" y="1.5" width="757" height="502" rx="22" fill="url(#viniciusjrzodiacsign0en-panel)"/>
  <ellipse cx="198" cy="121" rx="380" ry="172" fill="url(#viniciusjrzodiacsign0en-neb1)"/>
  <ellipse cx="623" cy="404" rx="334" ry="162" fill="url(#viniciusjrzodiacsign0en-neb2)"/>
  <circle cx="453.8" cy="128.6" r="1.36" fill="#cfc8ea" opacity="0.46"/><circle cx="30.6" cy="315.9" r="0.88" fill="#cfc8ea" opacity="0.24"/><circle cx="694.2" cy="440.3" r="1.01" fill="#cfc8ea" opacity="0.36"/><circle cx="635.9" cy="135.6" r="0.85" fill="#cfc8ea" opacity="0.35"/><circle cx="321.7" cy="161.0" r="0.47" fill="#cfc8ea" opacity="0.34"/><circle cx="273.5" cy="193.1" r="1.68" fill="#cfc8ea" opacity="0.31"/><circle cx="196.8" cy="158.4" r="0.82" fill="#cfc8ea" opacity="0.21"/><circle cx="66.1" cy="278.4" r="0.96" fill="#cfc8ea" opacity="0.48"/><circle cx="213.3" cy="215.5" r="1.69" fill="#cfc8ea" opacity="0.22"/><circle cx="261.7" cy="309.7" r="1.42" fill="#cfc8ea" opacity="0.43"/><circle cx="80.9" cy="360.7" r="0.93" fill="#cfc8ea" opacity="0.26"/><circle cx="646.1" cy="72.8" r="0.49" fill="#cfc8ea" opacity="0.24"/><circle cx="235.0" cy="108.5" r="0.46" fill="#cfc8ea" opacity="0.27"/><circle cx="732.0" cy="471.0" r="1.18" fill="#cfc8ea" opacity="0.49"/><circle cx="85.5" cy="143.2" r="0.55" fill="#cfc8ea" opacity="0.37"/><circle cx="308.0" cy="115.2" r="0.89" fill="#cfc8ea" opacity="0.41"/><circle cx="602.1" cy="90.0" r="0.46" fill="#cfc8ea" opacity="0.49"/><circle cx="702.8" cy="138.7" r="0.80" fill="#cfc8ea" opacity="0.42"/><circle cx="656.4" cy="469.1" r="0.97" fill="#cfc8ea" opacity="0.50"/><circle cx="495.0" cy="466.4" r="0.81" fill="#cfc8ea" opacity="0.50"/><circle cx="95.1" cy="336.5" r="0.93" fill="#cfc8ea" opacity="0.35"/><circle cx="69.0" cy="442.0" r="1.18" fill="#cfc8ea" opacity="0.14"/><circle cx="29.9" cy="59.5" r="1.12" fill="#cfc8ea" opacity="0.40"/><circle cx="350.2" cy="388.7" r="1.51" fill="#cfc8ea" opacity="0.51"/><circle cx="364.1" cy="350.0" r="0.57" fill="#cfc8ea" opacity="0.20"/><circle cx="729.1" cy="206.4" r="1.27" fill="#cfc8ea" opacity="0.35"/><circle cx="482.5" cy="134.7" r="1.68" fill="#cfc8ea" opacity="0.30"/><circle cx="643.7" cy="251.1" r="0.61" fill="#cfc8ea" opacity="0.19"/><circle cx="314.9" cy="431.7" r="1.09" fill="#cfc8ea" opacity="0.49"/><circle cx="182.5" cy="408.6" r="0.43" fill="#cfc8ea" opacity="0.16"/><circle cx="344.5" cy="38.6" r="0.42" fill="#cfc8ea" opacity="0.41"/><circle cx="430.1" cy="110.4" r="0.98" fill="#cfc8ea" opacity="0.25"/><circle cx="323.3" cy="311.5" r="1.10" fill="#cfc8ea" opacity="0.52"/><circle cx="426.1" cy="319.2" r="0.76" fill="#cfc8ea" opacity="0.45"/><circle cx="78.4" cy="46.2" r="1.17" fill="#cfc8ea" opacity="0.49"/><circle cx="522.6" cy="173.9" r="0.71" fill="#cfc8ea" opacity="0.51"/><circle cx="141.9" cy="228.6" r="1.34" fill="#cfc8ea" opacity="0.51"/><circle cx="696.9" cy="462.3" r="1.11" fill="#cfc8ea" opacity="0.51"/><circle cx="124.6" cy="359.3" r="1.49" fill="#cfc8ea" opacity="0.51"/><circle cx="88.7" cy="298.2" r="0.44" fill="#cfc8ea" opacity="0.49"/><circle cx="309.2" cy="264.2" r="1.21" fill="#cfc8ea" opacity="0.43"/><circle cx="199.7" cy="225.3" r="1.48" fill="#cfc8ea" opacity="0.29"/><circle cx="46.8" cy="326.5" r="0.40" fill="#cfc8ea" opacity="0.35"/><path d="M 88.82164700329304 120.6 L 89.4 123.4 L 92.2 123.96923152985983 L 89.4 124.5 L 88.82164700329304 127.3 L 88.3 124.5 L 85.5 123.96923152985983 L 88.3 123.4 Z" fill="#f6e6bf" opacity="0.7660632745129987"/><path d="M 119.93204910308123 85.9 L 120.4 88.2 L 122.6 88.62349872640334 L 120.4 89.1 L 119.93204910308123 91.3 L 119.5 89.1 L 117.3 88.62349872640334 L 119.5 88.2 Z" fill="#f6e6bf" opacity="0.786659899703227"/><path d="M 599.3073446154594 402.5 L 599.8 405.1 L 602.4 405.5944157920312 L 599.8 406.1 L 599.3073446154594 408.7 L 598.8 406.1 L 596.2 405.5944157920312 L 598.8 405.1 Z" fill="#f6e6bf" opacity="0.6142297840444371"/><path d="M 506.4462193772197 417.0 L 507.1 420.4 L 510.4 421.00047985999845 L 507.1 421.6 L 506.4462193772197 425.0 L 505.8 421.6 L 502.5 421.00047985999845 L 505.8 420.4 Z" fill="#f6e6bf" opacity="0.7394933664938435"/><path d="M 177.8187642544508 198.2 L 178.4 201.1 L 181.3 201.6733724202495 L 178.4 202.2 L 177.8187642544508 205.1 L 177.3 202.2 L 174.4 201.6733724202495 L 177.3 201.1 Z" fill="#f6e6bf" opacity="0.6779799696756527"/><path d="M 646.1 72.8 L 308.0 115.2 L 729.1 206.4 L 182.5 408.6 L 344.5 38.6" fill="none" stroke="#d4af6a" stroke-width="0.6" opacity="0.12"/>
  <rect x="1.5" y="1.5" width="757" height="502" rx="22" fill="none" stroke="#d4af6a" stroke-opacity="0.34" stroke-width="1.2"/>
  <rect x="7" y="7" width="746" height="491" rx="17" fill="none" stroke="#d4af6a" stroke-opacity="0.12" stroke-width="0.8"/>
  <path d="M 16 12.8 L 16.5 15.5 L 19.2 16 L 16.5 16.5 L 16 19.2 L 15.5 16.5 L 12.8 16 L 15.5 15.5 Z" fill="#d4af6a" opacity="0.4"/><path d="M 744 12.8 L 744.5 15.5 L 747.2 16 L 744.5 16.5 L 744 19.2 L 743.5 16.5 L 740.8 16 L 743.5 15.5 Z" fill="#d4af6a" opacity="0.4"/><path d="M 16 485.8 L 16.5 488.5 L 19.2 489 L 16.5 489.5 L 16 492.2 L 15.5 489.5 L 12.8 489 L 15.5 488.5 Z" fill="#d4af6a" opacity="0.4"/><path d="M 744 485.8 L 744.5 488.5 L 747.2 489 L 744.5 489.5 L 744 492.2 L 743.5 489.5 L 740.8 489 L 743.5 488.5 Z" fill="#d4af6a" opacity="0.4"/>
  <text x="380" y="46" text-anchor="middle" font-family="Georgia, 'Times New Roman', serif" font-size="22" letter-spacing="0.4" fill="#efeaf8">Five Steps to Read a Cancer Sun, Sagittarius Moon Chart</text>
  <line x1="230" y1="67" x2="368" y2="67" stroke="url(#viniciusjrzodiacsign0en-rule)" stroke-width="1"/>
  <line x1="392" y1="67" x2="530" y2="67" stroke="url(#viniciusjrzodiacsign0en-rule)" stroke-width="1"/>
  <path d="M 380 62.0 L 380.8 66.2 L 385.0 67 L 380.8 67.8 L 380 72.0 L 379.2 67.8 L 375.0 67 L 379.2 66.2 Z" fill="#d4af6a" opacity="0.85"/>
  <line x1="76" y1="121" x2="76" y2="433" stroke="#d4af6a" stroke-opacity="0.28" stroke-width="1.5"/>
  <circle cx="76" cy="121" r="20.0" fill="url(#viniciusjrzodiacsign0en-glow)" opacity="0.5"/>
    <circle cx="76" cy="121" r="15" fill="url(#viniciusjrzodiacsign0en-foil)" stroke="#f6e6bf" stroke-opacity="0.5" stroke-width="0.8"/>
    <circle cx="76" cy="116.8" r="9.0" fill="#ffffff" opacity="0.10"/>
    <text x="76" y="125.5" text-anchor="middle" font-family="Georgia, 'Times New Roman', serif" font-size="13" font-weight="700" fill="#3a2c12">1</text>
  <text x="116" y="117.0" font-family="Georgia, 'Times New Roman', serif" font-size="22" letter-spacing="0.3" fill="#f3effb">Step 1</text>
  <text x="116" y="139.0" font-family="Helvetica, Arial, sans-serif" font-size="15.5" fill="#a59cc0">Locate the Sun in Cancer — read it as a security-and-feeling theme, not a fixed</text>
  <text x="116" y="157.0" font-family="Helvetica, Arial, sans-serif" font-size="15.5" fill="#a59cc0">mood</text>
  <circle cx="76" cy="199" r="20.0" fill="url(#viniciusjrzodiacsign0en-glow)" opacity="0.5"/>
    <circle cx="76" cy="199" r="15" fill="url(#viniciusjrzodiacsign0en-foil)" stroke="#f6e6bf" stroke-opacity="0.5" stroke-width="0.8"/>
    <circle cx="76" cy="194.8" r="9.0" fill="#ffffff" opacity="0.10"/>
    <text x="76" y="203.5" text-anchor="middle" font-family="Georgia, 'Times New Roman', serif" font-size="13" font-weight="700" fill="#3a2c12">2</text>
  <text x="116" y="195.0" font-family="Georgia, 'Times New Roman', serif" font-size="22" letter-spacing="0.3" fill="#f3effb">Step 2</text>
  <text x="116" y="217.0" font-family="Helvetica, Arial, sans-serif" font-size="15.5" fill="#a59cc0">Check the Moon in Sagittarius, ruled by Jupiter, for the appetite that pulls</text>
  <text x="116" y="235.0" font-family="Helvetica, Arial, sans-serif" font-size="15.5" fill="#a59cc0">against security</text>
  <circle cx="76" cy="277" r="20.0" fill="url(#viniciusjrzodiacsign0en-glow)" opacity="0.5"/>
    <circle cx="76" cy="277" r="15" fill="url(#viniciusjrzodiacsign0en-foil)" stroke="#f6e6bf" stroke-opacity="0.5" stroke-width="0.8"/>
    <circle cx="76" cy="272.8" r="9.0" fill="#ffffff" opacity="0.10"/>
    <text x="76" y="281.5" text-anchor="middle" font-family="Georgia, 'Times New Roman', serif" font-size="13" font-weight="700" fill="#3a2c12">3</text>
  <text x="116" y="273.0" font-family="Georgia, 'Times New Roman', serif" font-size="22" letter-spacing="0.3" fill="#f3effb">Step 3</text>
  <text x="116" y="295.0" font-family="Helvetica, Arial, sans-serif" font-size="15.5" fill="#a59cc0">Note Jupiter in Cancer 2025–26, ruling the Moon and lighting the Sun's sign,</text>
  <text x="116" y="313.0" font-family="Helvetica, Arial, sans-serif" font-size="15.5" fill="#a59cc0">exact contact earlier in the year</text>
  <circle cx="76" cy="355" r="20.0" fill="url(#viniciusjrzodiacsign0en-glow)" opacity="0.5"/>
    <circle cx="76" cy="355" r="15" fill="url(#viniciusjrzodiacsign0en-foil)" stroke="#f6e6bf" stroke-opacity="0.5" stroke-width="0.8"/>
    <circle cx="76" cy="350.8" r="9.0" fill="#ffffff" opacity="0.10"/>
    <text x="76" y="359.5" text-anchor="middle" font-family="Georgia, 'Times New Roman', serif" font-size="13" font-weight="700" fill="#3a2c12">4</text>
  <text x="116" y="351.0" font-family="Georgia, 'Times New Roman', serif" font-size="22" letter-spacing="0.3" fill="#f3effb">Step 4</text>
  <text x="116" y="373.0" font-family="Helvetica, Arial, sans-serif" font-size="15.5" fill="#a59cc0">In Vedic astrology the sidereal Sun shifts to Gemini, reframing the entire</text>
  <text x="116" y="391.0" font-family="Helvetica, Arial, sans-serif" font-size="15.5" fill="#a59cc0">reading</text>
  <circle cx="76" cy="433" r="20.0" fill="url(#viniciusjrzodiacsign0en-glow)" opacity="0.5"/>
    <circle cx="76" cy="433" r="15" fill="url(#viniciusjrzodiacsign0en-foil)" stroke="#f6e6bf" stroke-opacity="0.5" stroke-width="0.8"/>
    <circle cx="76" cy="428.8" r="9.0" fill="#ffffff" opacity="0.10"/>
    <text x="76" y="437.5" text-anchor="middle" font-family="Georgia, 'Times New Roman', serif" font-size="13" font-weight="700" fill="#3a2c12">5</text>
  <text x="116" y="429.0" font-family="Georgia, 'Times New Roman', serif" font-size="22" letter-spacing="0.3" fill="#f3effb">Step 5</text>
  <text x="116" y="451.0" font-family="Helvetica, Arial, sans-serif" font-size="15.5" fill="#a59cc0">Read each transit as a chapter still to be lived, not a fixed outcome</text>
  <path d="M 202.22749999999988 476.4 L 202.6 478.6 L 204.8 479 L 202.6 479.4 L 202.22749999999988 481.6 L 201.8 479.4 L 199.6 479 L 201.8 478.6 Z" fill="#d4af6a" opacity="0.5"/>
  <text x="380" y="483" text-anchor="middle" font-family="Georgia, 'Times New Roman', serif" font-style="italic" font-size="11.5" fill="#7b738f">A self-reflection framework — tendencies, not predictions</text>
  <path d="M 557.7725000000002 476.4 L 558.2 478.6 L 560.4 479 L 558.2 479.4 L 557.7725000000002 481.6 L 557.4 479.4 L 555.2 479 L 557.4 478.6 Z" fill="#d4af6a" opacity="0.5"/>
</svg>
