<svg xmlns="http://www.w3.org/2000/svg" viewBox="0 0 760 391" role="img" aria-label="Vinicius Jr Birth Chart Placements at a Glance">
  <defs>
    <linearGradient id="viniciusjrbirthchartastrology1en-panel" x1="0" y1="0" x2="0.4" y2="1">
      <stop offset="0" stop-color="#1a1433"/><stop offset="0.55" stop-color="#120e26"/><stop offset="1" stop-color="#09081a"/>
    </linearGradient>
    <radialGradient id="viniciusjrbirthchartastrology1en-foil" cx="0.42" cy="0.34" r="0.75">
      <stop offset="0" stop-color="#fbf0d2"/><stop offset="0.5" stop-color="#e8c882"/><stop offset="1" stop-color="#b8923f"/>
    </radialGradient>
    <radialGradient id="viniciusjrbirthchartastrology1en-glow" cx="0.5" cy="0.5" r="0.5">
      <stop offset="0" stop-color="#f6e6bf"/><stop offset="1" stop-color="#f6e6bf" stop-opacity="0"/>
    </radialGradient>
    <radialGradient id="viniciusjrbirthchartastrology1en-neb1" cx="0.5" cy="0.5" r="0.5">
      <stop offset="0" stop-color="#6f4bb0" stop-opacity="0.28"/><stop offset="1" stop-color="#6f4bb0" stop-opacity="0"/>
    </radialGradient>
    <radialGradient id="viniciusjrbirthchartastrology1en-neb2" cx="0.5" cy="0.5" r="0.5">
      <stop offset="0" stop-color="#d4af6a" stop-opacity="0.16"/><stop offset="1" stop-color="#d4af6a" stop-opacity="0"/>
    </radialGradient>
    <linearGradient id="viniciusjrbirthchartastrology1en-rule" x1="0" y1="0" x2="1" y2="0">
      <stop offset="0" stop-color="#d4af6a" stop-opacity="0"/><stop offset="0.5" stop-color="#d4af6a" stop-opacity="0.6"/><stop offset="1" stop-color="#d4af6a" stop-opacity="0"/>
    </linearGradient>
  </defs>
  <rect x="1.5" y="1.5" width="757" height="388" rx="22" fill="url(#viniciusjrbirthchartastrology1en-panel)"/>
  <ellipse cx="198" cy="94" rx="380" ry="133" fill="url(#viniciusjrbirthchartastrology1en-neb1)"/>
  <ellipse cx="623" cy="313" rx="334" ry="125" fill="url(#viniciusjrbirthchartastrology1en-neb2)"/>
  <circle cx="93.9" cy="289.8" r="1.18" fill="#cfc8ea" opacity="0.19"/><circle cx="451.2" cy="137.6" r="0.79" fill="#cfc8ea" opacity="0.23"/><circle cx="594.6" cy="373.7" r="0.81" fill="#cfc8ea" opacity="0.39"/><circle cx="673.7" cy="157.1" r="0.42" fill="#cfc8ea" opacity="0.32"/><circle cx="41.3" cy="92.2" r="1.59" fill="#cfc8ea" opacity="0.40"/><circle cx="199.1" cy="133.4" r="1.26" fill="#cfc8ea" opacity="0.35"/><circle cx="331.1" cy="177.5" r="1.00" fill="#cfc8ea" opacity="0.16"/><circle cx="360.9" cy="320.6" r="0.97" fill="#cfc8ea" opacity="0.30"/><circle cx="533.1" cy="377.9" r="1.01" fill="#cfc8ea" opacity="0.14"/><circle cx="616.5" cy="50.2" r="1.08" fill="#cfc8ea" opacity="0.42"/><circle cx="721.2" cy="248.4" r="0.88" fill="#cfc8ea" opacity="0.38"/><circle cx="391.5" cy="61.9" r="0.68" fill="#cfc8ea" opacity="0.18"/><circle cx="652.0" cy="197.5" r="1.35" fill="#cfc8ea" opacity="0.42"/><circle cx="442.1" cy="253.0" r="0.62" fill="#cfc8ea" opacity="0.50"/><circle cx="32.6" cy="61.5" r="0.68" fill="#cfc8ea" opacity="0.27"/><circle cx="404.9" cy="129.2" r="0.95" fill="#cfc8ea" opacity="0.25"/><circle cx="606.9" cy="330.0" r="1.63" fill="#cfc8ea" opacity="0.46"/><circle cx="633.7" cy="218.6" r="0.91" fill="#cfc8ea" opacity="0.53"/><circle cx="347.5" cy="118.9" r="1.66" fill="#cfc8ea" opacity="0.20"/><circle cx="399.5" cy="312.0" r="1.54" fill="#cfc8ea" opacity="0.53"/><circle cx="340.0" cy="155.2" r="1.10" fill="#cfc8ea" opacity="0.47"/><circle cx="710.8" cy="44.2" r="0.71" fill="#cfc8ea" opacity="0.18"/><circle cx="514.5" cy="241.8" r="1.65" fill="#cfc8ea" opacity="0.46"/><circle cx="364.9" cy="169.6" r="0.40" fill="#cfc8ea" opacity="0.28"/><circle cx="442.0" cy="137.7" r="1.47" fill="#cfc8ea" opacity="0.18"/><circle cx="105.3" cy="110.6" r="1.64" fill="#cfc8ea" opacity="0.49"/><circle cx="86.0" cy="266.9" r="1.61" fill="#cfc8ea" opacity="0.20"/><circle cx="54.4" cy="108.4" r="1.20" fill="#cfc8ea" opacity="0.36"/><circle cx="512.9" cy="41.7" r="0.44" fill="#cfc8ea" opacity="0.44"/><circle cx="347.3" cy="100.2" r="1.08" fill="#cfc8ea" opacity="0.34"/><circle cx="637.8" cy="100.1" r="1.63" fill="#cfc8ea" opacity="0.39"/><circle cx="331.9" cy="15.6" r="1.18" fill="#cfc8ea" opacity="0.39"/><circle cx="590.9" cy="338.4" r="1.46" fill="#cfc8ea" opacity="0.44"/><path d="M 413.9998994935304 123.7 L 414.5 126.5 L 417.2 126.96976498002186 L 414.5 127.5 L 413.9998994935304 130.2 L 413.5 127.5 L 410.8 126.96976498002186 L 413.5 126.5 Z" fill="#f6e6bf" opacity="0.5928150713443756"/><path d="M 689.2783964965492 309.3 L 689.8 312.0 L 692.6 312.5704433261417 L 689.8 313.1 L 689.2783964965492 315.8 L 688.8 313.1 L 686.0 312.5704433261417 L 688.8 312.0 Z" fill="#f6e6bf" opacity="0.620995060261339"/><path d="M 194.36460355110466 151.3 L 194.9 153.9 L 197.5 154.40490299509838 L 194.9 154.9 L 194.36460355110466 157.6 L 193.9 154.9 L 191.2 154.40490299509838 L 193.9 153.9 Z" fill="#f6e6bf" opacity="0.5615486619994045"/><path d="M 640.7088132444769 230.5 L 641.3 233.4 L 644.2 234.00554769439623 L 641.3 234.6 L 640.7088132444769 237.5 L 640.1 234.6 L 637.2 234.00554769439623 L 640.1 233.4 Z" fill="#f6e6bf" opacity="0.6651150052435696"/><path d="M 76.48089213855565 335.0 L 76.9 337.1 L 79.0 337.530936984811 L 76.9 337.9 L 76.48089213855565 340.1 L 76.1 337.9 L 73.9 337.530936984811 L 76.1 337.1 Z" fill="#f6e6bf" opacity="0.7683191653341055"/><path d="M 41.3 92.2 L 442.0 137.7 L 105.3 110.6" fill="none" stroke="#d4af6a" stroke-width="0.6" opacity="0.12"/>
  <rect x="1.5" y="1.5" width="757" height="388" rx="22" fill="none" stroke="#d4af6a" stroke-opacity="0.34" stroke-width="1.2"/>
  <rect x="7" y="7" width="746" height="377" rx="17" fill="none" stroke="#d4af6a" stroke-opacity="0.12" stroke-width="0.8"/>
  <path d="M 16 12.8 L 16.5 15.5 L 19.2 16 L 16.5 16.5 L 16 19.2 L 15.5 16.5 L 12.8 16 L 15.5 15.5 Z" fill="#d4af6a" opacity="0.4"/><path d="M 744 12.8 L 744.5 15.5 L 747.2 16 L 744.5 16.5 L 744 19.2 L 743.5 16.5 L 740.8 16 L 743.5 15.5 Z" fill="#d4af6a" opacity="0.4"/><path d="M 16 371.8 L 16.5 374.5 L 19.2 375 L 16.5 375.5 L 16 378.2 L 15.5 375.5 L 12.8 375 L 15.5 374.5 Z" fill="#d4af6a" opacity="0.4"/><path d="M 744 371.8 L 744.5 374.5 L 747.2 375 L 744.5 375.5 L 744 378.2 L 743.5 375.5 L 740.8 375 L 743.5 374.5 Z" fill="#d4af6a" opacity="0.4"/>
  <text x="380" y="46" text-anchor="middle" font-family="Georgia, 'Times New Roman', serif" font-size="22" letter-spacing="0.4" fill="#efeaf8">Vinicius Jr Birth Chart Placements at a Glance</text>
  <line x1="230" y1="67" x2="368" y2="67" stroke="url(#viniciusjrbirthchartastrology1en-rule)" stroke-width="1"/>
  <line x1="392" y1="67" x2="530" y2="67" stroke="url(#viniciusjrbirthchartastrology1en-rule)" stroke-width="1"/>
  <path d="M 380 62.0 L 380.8 66.2 L 385.0 67 L 380.8 67.8 L 380 72.0 L 379.2 67.8 L 375.0 67 L 379.2 66.2 Z" fill="#d4af6a" opacity="0.85"/>
  <line x1="76" y1="121" x2="76" y2="319" stroke="#d4af6a" stroke-opacity="0.28" stroke-width="1.5"/>
  <circle cx="76" cy="121" r="20.0" fill="url(#viniciusjrbirthchartastrology1en-glow)" opacity="0.5"/>
    <circle cx="76" cy="121" r="15" fill="url(#viniciusjrbirthchartastrology1en-foil)" stroke="#f6e6bf" stroke-opacity="0.5" stroke-width="0.8"/>
    <circle cx="76" cy="116.8" r="9.0" fill="#ffffff" opacity="0.10"/>
    <text x="76" y="125.5" text-anchor="middle" font-family="Georgia, 'Times New Roman', serif" font-size="13" font-weight="700" fill="#3a2c12">1</text>
  <text x="116" y="117.0" font-family="Georgia, 'Times New Roman', serif" font-size="22" letter-spacing="0.3" fill="#f3effb">Cancer Sun</text>
  <text x="116" y="139.0" font-family="Helvetica, Arial, sans-serif" font-size="15.5" fill="#a59cc0">Emotional, protective core — playing from feeling and instinct, fiercely loyal</text>
  <circle cx="76" cy="181" r="20.0" fill="url(#viniciusjrbirthchartastrology1en-glow)" opacity="0.5"/>
    <circle cx="76" cy="181" r="15" fill="url(#viniciusjrbirthchartastrology1en-foil)" stroke="#f6e6bf" stroke-opacity="0.5" stroke-width="0.8"/>
    <circle cx="76" cy="176.8" r="9.0" fill="#ffffff" opacity="0.10"/>
    <text x="76" y="185.5" text-anchor="middle" font-family="Georgia, 'Times New Roman', serif" font-size="13" font-weight="700" fill="#3a2c12">2</text>
  <text x="116" y="177.0" font-family="Georgia, 'Times New Roman', serif" font-size="22" letter-spacing="0.3" fill="#f3effb">Sagittarius Moon</text>
  <text x="116" y="199.0" font-family="Helvetica, Arial, sans-serif" font-size="15.5" fill="#a59cc0">Risk appetite and flair — joy in the bold gamble, a hunger for freedom</text>
  <circle cx="76" cy="241" r="20.0" fill="url(#viniciusjrbirthchartastrology1en-glow)" opacity="0.5"/>
    <circle cx="76" cy="241" r="15" fill="url(#viniciusjrbirthchartastrology1en-foil)" stroke="#f6e6bf" stroke-opacity="0.5" stroke-width="0.8"/>
    <circle cx="76" cy="236.8" r="9.0" fill="#ffffff" opacity="0.10"/>
    <text x="76" y="245.5" text-anchor="middle" font-family="Georgia, 'Times New Roman', serif" font-size="13" font-weight="700" fill="#3a2c12">3</text>
  <text x="116" y="237.0" font-family="Georgia, 'Times New Roman', serif" font-size="22" letter-spacing="0.3" fill="#f3effb">Sun-Moon Synthesis</text>
  <text x="116" y="259.0" font-family="Helvetica, Arial, sans-serif" font-size="15.5" fill="#a59cc0">Tender core with daring instinct — feeling-led courage rather than one mode</text>
  <text x="116" y="277.0" font-family="Helvetica, Arial, sans-serif" font-size="15.5" fill="#a59cc0">alone</text>
  <circle cx="76" cy="319" r="20.0" fill="url(#viniciusjrbirthchartastrology1en-glow)" opacity="0.5"/>
    <circle cx="76" cy="319" r="15" fill="url(#viniciusjrbirthchartastrology1en-foil)" stroke="#f6e6bf" stroke-opacity="0.5" stroke-width="0.8"/>
    <circle cx="76" cy="314.8" r="9.0" fill="#ffffff" opacity="0.10"/>
    <text x="76" y="323.5" text-anchor="middle" font-family="Georgia, 'Times New Roman', serif" font-size="13" font-weight="700" fill="#3a2c12">4</text>
  <text x="116" y="315.0" font-family="Georgia, 'Times New Roman', serif" font-size="22" letter-spacing="0.3" fill="#f3effb">Unknown Birth Time</text>
  <text x="116" y="337.0" font-family="Helvetica, Arial, sans-serif" font-size="15.5" fill="#a59cc0">No reliable Ascendant or houses — a reading kept honest to the luminaries</text>
  <path d="M 202.22749999999988 362.4 L 202.6 364.6 L 204.8 365 L 202.6 365.4 L 202.22749999999988 367.6 L 201.8 365.4 L 199.6 365 L 201.8 364.6 Z" fill="#d4af6a" opacity="0.5"/>
  <text x="380" y="369" text-anchor="middle" font-family="Georgia, 'Times New Roman', serif" font-style="italic" font-size="11.5" fill="#7b738f">A self-reflection framework — tendencies, not predictions</text>
  <path d="M 557.7725000000002 362.4 L 558.2 364.6 L 560.4 365 L 558.2 365.4 L 557.7725000000002 367.6 L 557.4 365.4 L 555.2 365 L 557.4 364.6 Z" fill="#d4af6a" opacity="0.5"/>
</svg>
