<svg xmlns="http://www.w3.org/2000/svg" viewBox="0 0 760 469" role="img" aria-label="5 Steps to Read the Virgo Ascendant">
  <defs>
    <linearGradient id="virgorising1en-panel" x1="0" y1="0" x2="0.4" y2="1">
      <stop offset="0" stop-color="#1a1433"/><stop offset="0.55" stop-color="#120e26"/><stop offset="1" stop-color="#09081a"/>
    </linearGradient>
    <radialGradient id="virgorising1en-foil" cx="0.42" cy="0.34" r="0.75">
      <stop offset="0" stop-color="#fbf0d2"/><stop offset="0.5" stop-color="#e8c882"/><stop offset="1" stop-color="#b8923f"/>
    </radialGradient>
    <radialGradient id="virgorising1en-glow" cx="0.5" cy="0.5" r="0.5">
      <stop offset="0" stop-color="#f6e6bf"/><stop offset="1" stop-color="#f6e6bf" stop-opacity="0"/>
    </radialGradient>
    <radialGradient id="virgorising1en-neb1" cx="0.5" cy="0.5" r="0.5">
      <stop offset="0" stop-color="#6f4bb0" stop-opacity="0.28"/><stop offset="1" stop-color="#6f4bb0" stop-opacity="0"/>
    </radialGradient>
    <radialGradient id="virgorising1en-neb2" cx="0.5" cy="0.5" r="0.5">
      <stop offset="0" stop-color="#d4af6a" stop-opacity="0.16"/><stop offset="1" stop-color="#d4af6a" stop-opacity="0"/>
    </radialGradient>
    <linearGradient id="virgorising1en-rule" x1="0" y1="0" x2="1" y2="0">
      <stop offset="0" stop-color="#d4af6a" stop-opacity="0"/><stop offset="0.5" stop-color="#d4af6a" stop-opacity="0.6"/><stop offset="1" stop-color="#d4af6a" stop-opacity="0"/>
    </linearGradient>
  </defs>
  <rect x="1.5" y="1.5" width="757" height="466" rx="22" fill="url(#virgorising1en-panel)"/>
  <ellipse cx="198" cy="113" rx="380" ry="159" fill="url(#virgorising1en-neb1)"/>
  <ellipse cx="623" cy="375" rx="334" ry="150" fill="url(#virgorising1en-neb2)"/>
  <circle cx="216.1" cy="168.0" r="0.49" fill="#cfc8ea" opacity="0.30"/><circle cx="112.9" cy="265.3" r="1.59" fill="#cfc8ea" opacity="0.49"/><circle cx="458.1" cy="278.5" r="0.81" fill="#cfc8ea" opacity="0.14"/><circle cx="346.3" cy="100.3" r="1.29" fill="#cfc8ea" opacity="0.28"/><circle cx="121.3" cy="398.7" r="0.45" fill="#cfc8ea" opacity="0.42"/><circle cx="46.5" cy="393.3" r="1.24" fill="#cfc8ea" opacity="0.25"/><circle cx="552.1" cy="131.5" r="1.62" fill="#cfc8ea" opacity="0.48"/><circle cx="684.6" cy="37.1" r="1.40" fill="#cfc8ea" opacity="0.22"/><circle cx="478.5" cy="58.7" r="1.10" fill="#cfc8ea" opacity="0.23"/><circle cx="107.6" cy="131.7" r="0.63" fill="#cfc8ea" opacity="0.29"/><circle cx="666.8" cy="305.6" r="0.93" fill="#cfc8ea" opacity="0.31"/><circle cx="726.2" cy="191.6" r="0.50" fill="#cfc8ea" opacity="0.19"/><circle cx="600.3" cy="330.7" r="0.52" fill="#cfc8ea" opacity="0.52"/><circle cx="573.7" cy="440.3" r="0.66" fill="#cfc8ea" opacity="0.42"/><circle cx="327.0" cy="14.3" r="1.60" fill="#cfc8ea" opacity="0.37"/><circle cx="57.9" cy="350.4" r="1.47" fill="#cfc8ea" opacity="0.30"/><circle cx="336.1" cy="407.7" r="1.30" fill="#cfc8ea" opacity="0.21"/><circle cx="120.7" cy="450.0" r="0.76" fill="#cfc8ea" opacity="0.18"/><circle cx="123.1" cy="405.2" r="0.48" fill="#cfc8ea" opacity="0.32"/><circle cx="403.6" cy="287.3" r="1.40" fill="#cfc8ea" opacity="0.22"/><circle cx="208.5" cy="274.5" r="1.70" fill="#cfc8ea" opacity="0.35"/><circle cx="489.9" cy="89.1" r="1.28" fill="#cfc8ea" opacity="0.54"/><circle cx="495.9" cy="171.9" r="0.84" fill="#cfc8ea" opacity="0.13"/><circle cx="210.5" cy="28.0" r="1.44" fill="#cfc8ea" opacity="0.28"/><circle cx="345.6" cy="33.7" r="0.60" fill="#cfc8ea" opacity="0.43"/><circle cx="24.0" cy="435.6" r="0.73" fill="#cfc8ea" opacity="0.19"/><circle cx="129.2" cy="314.0" r="0.94" fill="#cfc8ea" opacity="0.53"/><circle cx="511.6" cy="416.1" r="1.45" fill="#cfc8ea" opacity="0.17"/><circle cx="61.2" cy="94.5" r="0.71" fill="#cfc8ea" opacity="0.48"/><circle cx="325.0" cy="187.9" r="0.99" fill="#cfc8ea" opacity="0.24"/><circle cx="308.3" cy="388.7" r="0.90" fill="#cfc8ea" opacity="0.34"/><circle cx="410.8" cy="205.3" r="1.13" fill="#cfc8ea" opacity="0.36"/><circle cx="117.2" cy="423.5" r="1.51" fill="#cfc8ea" opacity="0.40"/><circle cx="423.8" cy="110.0" r="1.33" fill="#cfc8ea" opacity="0.18"/><circle cx="444.3" cy="310.0" r="1.04" fill="#cfc8ea" opacity="0.45"/><circle cx="462.4" cy="251.5" r="1.14" fill="#cfc8ea" opacity="0.16"/><circle cx="321.9" cy="281.9" r="0.96" fill="#cfc8ea" opacity="0.20"/><circle cx="139.3" cy="271.3" r="0.40" fill="#cfc8ea" opacity="0.14"/><circle cx="323.8" cy="50.2" r="0.64" fill="#cfc8ea" opacity="0.31"/><circle cx="21.1" cy="129.9" r="0.44" fill="#cfc8ea" opacity="0.20"/><path d="M 21.448090758174658 427.6 L 21.9 429.8 L 24.1 430.2402336432133 L 21.9 430.7 L 21.448090758174658 432.9 L 21.0 430.7 L 18.8 430.2402336432133 L 21.0 429.8 Z" fill="#f6e6bf" opacity="0.5002487633610144"/><path d="M 364.6000927872956 381.8 L 365.2 384.9 L 368.3 385.52084823627956 L 365.2 386.1 L 364.6000927872956 389.2 L 364.0 386.1 L 360.9 385.52084823627956 L 364.0 384.9 Z" fill="#f6e6bf" opacity="0.5146974190371111"/><path d="M 482.5100178234279 131.2 L 483.1 134.1 L 486.1 134.7146789582912 L 483.1 135.3 L 482.5100178234279 138.3 L 481.9 135.3 L 479.0 134.7146789582912 L 481.9 134.1 Z" fill="#f6e6bf" opacity="0.7590470830211415"/><path d="M 299.15840900316834 301.2 L 299.6 303.5 L 301.9 303.9232637521345 L 299.6 304.4 L 299.15840900316834 306.6 L 298.7 304.4 L 296.4 303.9232637521345 L 298.7 303.5 Z" fill="#f6e6bf" opacity="0.730206968379207"/><path d="M 318.9979469142854 222.3 L 319.5 225.1 L 322.4 225.68301986367442 L 319.5 226.2 L 318.9979469142854 229.1 L 318.5 226.2 L 315.6 225.68301986367442 L 318.5 225.1 Z" fill="#f6e6bf" opacity="0.607924346649088"/><path d="M 346.3 100.3 L 336.1 407.7 L 489.9 89.1 L 24.0 435.6 L 325.0 187.9" fill="none" stroke="#d4af6a" stroke-width="0.6" opacity="0.12"/>
  <rect x="1.5" y="1.5" width="757" height="466" rx="22" fill="none" stroke="#d4af6a" stroke-opacity="0.34" stroke-width="1.2"/>
  <rect x="7" y="7" width="746" height="455" rx="17" fill="none" stroke="#d4af6a" stroke-opacity="0.12" stroke-width="0.8"/>
  <path d="M 16 12.8 L 16.5 15.5 L 19.2 16 L 16.5 16.5 L 16 19.2 L 15.5 16.5 L 12.8 16 L 15.5 15.5 Z" fill="#d4af6a" opacity="0.4"/><path d="M 744 12.8 L 744.5 15.5 L 747.2 16 L 744.5 16.5 L 744 19.2 L 743.5 16.5 L 740.8 16 L 743.5 15.5 Z" fill="#d4af6a" opacity="0.4"/><path d="M 16 449.8 L 16.5 452.5 L 19.2 453 L 16.5 453.5 L 16 456.2 L 15.5 453.5 L 12.8 453 L 15.5 452.5 Z" fill="#d4af6a" opacity="0.4"/><path d="M 744 449.8 L 744.5 452.5 L 747.2 453 L 744.5 453.5 L 744 456.2 L 743.5 453.5 L 740.8 453 L 743.5 452.5 Z" fill="#d4af6a" opacity="0.4"/>
  <text x="380" y="46" text-anchor="middle" font-family="Georgia, 'Times New Roman', serif" font-size="22" letter-spacing="0.4" fill="#efeaf8">5 Steps to Read the Virgo Ascendant</text>
  <line x1="230" y1="67" x2="368" y2="67" stroke="url(#virgorising1en-rule)" stroke-width="1"/>
  <line x1="392" y1="67" x2="530" y2="67" stroke="url(#virgorising1en-rule)" stroke-width="1"/>
  <path d="M 380 62.0 L 380.8 66.2 L 385.0 67 L 380.8 67.8 L 380 72.0 L 379.2 67.8 L 375.0 67 L 379.2 66.2 Z" fill="#d4af6a" opacity="0.85"/>
  <line x1="76" y1="121" x2="76" y2="379" stroke="#d4af6a" stroke-opacity="0.28" stroke-width="1.5"/>
  <circle cx="76" cy="121" r="20.0" fill="url(#virgorising1en-glow)" opacity="0.5"/>
    <circle cx="76" cy="121" r="15" fill="url(#virgorising1en-foil)" stroke="#f6e6bf" stroke-opacity="0.5" stroke-width="0.8"/>
    <circle cx="76" cy="116.8" r="9.0" fill="#ffffff" opacity="0.10"/>
    <text x="76" y="125.5" text-anchor="middle" font-family="Georgia, 'Times New Roman', serif" font-size="13" font-weight="700" fill="#3a2c12">1</text>
  <text x="116" y="117.0" font-family="Georgia, 'Times New Roman', serif" font-size="22" letter-spacing="0.3" fill="#f3effb">Step 1</text>
  <text x="116" y="139.0" font-family="Helvetica, Arial, sans-serif" font-size="15.5" fill="#a59cc0">Confirm Virgo on the 1st-house cusp — sets Mercury as chart ruler</text>
  <circle cx="76" cy="181" r="20.0" fill="url(#virgorising1en-glow)" opacity="0.5"/>
    <circle cx="76" cy="181" r="15" fill="url(#virgorising1en-foil)" stroke="#f6e6bf" stroke-opacity="0.5" stroke-width="0.8"/>
    <circle cx="76" cy="176.8" r="9.0" fill="#ffffff" opacity="0.10"/>
    <text x="76" y="185.5" text-anchor="middle" font-family="Georgia, 'Times New Roman', serif" font-size="13" font-weight="700" fill="#3a2c12">2</text>
  <text x="116" y="177.0" font-family="Georgia, 'Times New Roman', serif" font-size="22" letter-spacing="0.3" fill="#f3effb">Step 2</text>
  <text x="116" y="199.0" font-family="Helvetica, Arial, sans-serif" font-size="15.5" fill="#a59cc0">Find Mercury's sign and house — modifies the whole expression</text>
  <circle cx="76" cy="241" r="20.0" fill="url(#virgorising1en-glow)" opacity="0.5"/>
    <circle cx="76" cy="241" r="15" fill="url(#virgorising1en-foil)" stroke="#f6e6bf" stroke-opacity="0.5" stroke-width="0.8"/>
    <circle cx="76" cy="236.8" r="9.0" fill="#ffffff" opacity="0.10"/>
    <text x="76" y="245.5" text-anchor="middle" font-family="Georgia, 'Times New Roman', serif" font-size="13" font-weight="700" fill="#3a2c12">3</text>
  <text x="116" y="237.0" font-family="Georgia, 'Times New Roman', serif" font-size="22" letter-spacing="0.3" fill="#f3effb">Step 3</text>
  <text x="116" y="259.0" font-family="Helvetica, Arial, sans-serif" font-size="15.5" fill="#a59cc0">Note 6th-house weight — routine, health, work, and service gain prominence</text>
  <circle cx="76" cy="301" r="20.0" fill="url(#virgorising1en-glow)" opacity="0.5"/>
    <circle cx="76" cy="301" r="15" fill="url(#virgorising1en-foil)" stroke="#f6e6bf" stroke-opacity="0.5" stroke-width="0.8"/>
    <circle cx="76" cy="296.8" r="9.0" fill="#ffffff" opacity="0.10"/>
    <text x="76" y="305.5" text-anchor="middle" font-family="Georgia, 'Times New Roman', serif" font-size="13" font-weight="700" fill="#3a2c12">4</text>
  <text x="116" y="297.0" font-family="Georgia, 'Times New Roman', serif" font-size="22" letter-spacing="0.3" fill="#f3effb">Step 4</text>
  <text x="116" y="319.0" font-family="Helvetica, Arial, sans-serif" font-size="15.5" fill="#a59cc0">Watch the first impression — a noticing quality, spotting misalignments before</text>
  <text x="116" y="337.0" font-family="Helvetica, Arial, sans-serif" font-size="15.5" fill="#a59cc0">commenting</text>
  <circle cx="76" cy="379" r="20.0" fill="url(#virgorising1en-glow)" opacity="0.5"/>
    <circle cx="76" cy="379" r="15" fill="url(#virgorising1en-foil)" stroke="#f6e6bf" stroke-opacity="0.5" stroke-width="0.8"/>
    <circle cx="76" cy="374.8" r="9.0" fill="#ffffff" opacity="0.10"/>
    <text x="76" y="383.5" text-anchor="middle" font-family="Georgia, 'Times New Roman', serif" font-size="13" font-weight="700" fill="#3a2c12">5</text>
  <text x="116" y="375.0" font-family="Georgia, 'Times New Roman', serif" font-size="22" letter-spacing="0.3" fill="#f3effb">Step 5</text>
  <text x="116" y="397.0" font-family="Helvetica, Arial, sans-serif" font-size="15.5" fill="#a59cc0">Read the rest of the chart for contrast — the Virgo doorway is not the whole</text>
  <text x="116" y="415.0" font-family="Helvetica, Arial, sans-serif" font-size="15.5" fill="#a59cc0">person</text>
  <path d="M 202.22749999999988 440.4 L 202.6 442.6 L 204.8 443 L 202.6 443.4 L 202.22749999999988 445.6 L 201.8 443.4 L 199.6 443 L 201.8 442.6 Z" fill="#d4af6a" opacity="0.5"/>
  <text x="380" y="447" text-anchor="middle" font-family="Georgia, 'Times New Roman', serif" font-style="italic" font-size="11.5" fill="#7b738f">A self-reflection framework — tendencies, not predictions</text>
  <path d="M 557.7725000000002 440.4 L 558.2 442.6 L 560.4 443 L 558.2 443.4 L 557.7725000000002 445.6 L 557.4 443.4 L 555.2 443 L 557.4 442.6 Z" fill="#d4af6a" opacity="0.5"/>
</svg>
