<svg xmlns="http://www.w3.org/2000/svg" viewBox="0 0 760 469" role="img" aria-label="5 Steps to Read Any Chart Without a Birth Time">
  <defs>
    <linearGradient id="vozinhabirthchart1en-panel" x1="0" y1="0" x2="0.4" y2="1">
      <stop offset="0" stop-color="#1a1433"/><stop offset="0.55" stop-color="#120e26"/><stop offset="1" stop-color="#09081a"/>
    </linearGradient>
    <radialGradient id="vozinhabirthchart1en-foil" cx="0.42" cy="0.34" r="0.75">
      <stop offset="0" stop-color="#fbf0d2"/><stop offset="0.5" stop-color="#e8c882"/><stop offset="1" stop-color="#b8923f"/>
    </radialGradient>
    <radialGradient id="vozinhabirthchart1en-glow" cx="0.5" cy="0.5" r="0.5">
      <stop offset="0" stop-color="#f6e6bf"/><stop offset="1" stop-color="#f6e6bf" stop-opacity="0"/>
    </radialGradient>
    <radialGradient id="vozinhabirthchart1en-neb1" cx="0.5" cy="0.5" r="0.5">
      <stop offset="0" stop-color="#6f4bb0" stop-opacity="0.28"/><stop offset="1" stop-color="#6f4bb0" stop-opacity="0"/>
    </radialGradient>
    <radialGradient id="vozinhabirthchart1en-neb2" cx="0.5" cy="0.5" r="0.5">
      <stop offset="0" stop-color="#d4af6a" stop-opacity="0.16"/><stop offset="1" stop-color="#d4af6a" stop-opacity="0"/>
    </radialGradient>
    <linearGradient id="vozinhabirthchart1en-rule" x1="0" y1="0" x2="1" y2="0">
      <stop offset="0" stop-color="#d4af6a" stop-opacity="0"/><stop offset="0.5" stop-color="#d4af6a" stop-opacity="0.6"/><stop offset="1" stop-color="#d4af6a" stop-opacity="0"/>
    </linearGradient>
  </defs>
  <rect x="1.5" y="1.5" width="757" height="466" rx="22" fill="url(#vozinhabirthchart1en-panel)"/>
  <ellipse cx="198" cy="113" rx="380" ry="159" fill="url(#vozinhabirthchart1en-neb1)"/>
  <ellipse cx="623" cy="375" rx="334" ry="150" fill="url(#vozinhabirthchart1en-neb2)"/>
  <circle cx="407.3" cy="32.1" r="1.26" fill="#cfc8ea" opacity="0.24"/><circle cx="196.1" cy="228.9" r="0.92" fill="#cfc8ea" opacity="0.34"/><circle cx="668.1" cy="276.6" r="1.17" fill="#cfc8ea" opacity="0.43"/><circle cx="517.3" cy="144.5" r="1.14" fill="#cfc8ea" opacity="0.31"/><circle cx="525.4" cy="103.1" r="0.99" fill="#cfc8ea" opacity="0.37"/><circle cx="225.4" cy="180.9" r="0.82" fill="#cfc8ea" opacity="0.14"/><circle cx="214.3" cy="182.3" r="1.63" fill="#cfc8ea" opacity="0.18"/><circle cx="370.9" cy="275.7" r="0.43" fill="#cfc8ea" opacity="0.29"/><circle cx="297.9" cy="169.3" r="1.33" fill="#cfc8ea" opacity="0.53"/><circle cx="667.4" cy="39.9" r="0.76" fill="#cfc8ea" opacity="0.44"/><circle cx="492.1" cy="71.2" r="1.03" fill="#cfc8ea" opacity="0.16"/><circle cx="64.3" cy="396.0" r="1.11" fill="#cfc8ea" opacity="0.46"/><circle cx="478.2" cy="51.7" r="1.39" fill="#cfc8ea" opacity="0.17"/><circle cx="675.9" cy="25.0" r="1.62" fill="#cfc8ea" opacity="0.28"/><circle cx="336.8" cy="424.5" r="0.52" fill="#cfc8ea" opacity="0.23"/><circle cx="18.4" cy="31.0" r="1.45" fill="#cfc8ea" opacity="0.54"/><circle cx="392.9" cy="245.5" r="0.43" fill="#cfc8ea" opacity="0.40"/><circle cx="535.7" cy="72.9" r="1.43" fill="#cfc8ea" opacity="0.52"/><circle cx="68.7" cy="110.3" r="0.91" fill="#cfc8ea" opacity="0.25"/><circle cx="715.5" cy="355.1" r="1.35" fill="#cfc8ea" opacity="0.19"/><circle cx="220.6" cy="356.1" r="0.67" fill="#cfc8ea" opacity="0.22"/><circle cx="698.3" cy="423.1" r="1.30" fill="#cfc8ea" opacity="0.51"/><circle cx="238.2" cy="303.0" r="1.57" fill="#cfc8ea" opacity="0.39"/><circle cx="550.9" cy="252.6" r="1.29" fill="#cfc8ea" opacity="0.15"/><circle cx="12.8" cy="173.1" r="1.69" fill="#cfc8ea" opacity="0.19"/><circle cx="177.7" cy="61.1" r="0.85" fill="#cfc8ea" opacity="0.25"/><circle cx="429.7" cy="182.0" r="0.99" fill="#cfc8ea" opacity="0.30"/><circle cx="570.9" cy="448.5" r="1.47" fill="#cfc8ea" opacity="0.29"/><circle cx="296.1" cy="50.4" r="0.40" fill="#cfc8ea" opacity="0.48"/><circle cx="20.8" cy="120.3" r="0.62" fill="#cfc8ea" opacity="0.39"/><circle cx="480.4" cy="271.1" r="0.82" fill="#cfc8ea" opacity="0.23"/><circle cx="560.7" cy="390.4" r="0.73" fill="#cfc8ea" opacity="0.31"/><circle cx="449.2" cy="44.6" r="1.67" fill="#cfc8ea" opacity="0.33"/><circle cx="88.2" cy="316.1" r="0.49" fill="#cfc8ea" opacity="0.26"/><circle cx="33.0" cy="19.3" r="1.30" fill="#cfc8ea" opacity="0.45"/><circle cx="569.8" cy="266.4" r="1.29" fill="#cfc8ea" opacity="0.13"/><circle cx="66.3" cy="42.4" r="0.82" fill="#cfc8ea" opacity="0.23"/><circle cx="381.8" cy="186.9" r="0.66" fill="#cfc8ea" opacity="0.36"/><circle cx="618.8" cy="365.6" r="0.55" fill="#cfc8ea" opacity="0.20"/><circle cx="65.7" cy="182.5" r="1.20" fill="#cfc8ea" opacity="0.48"/><path d="M 599.1308209840208 103.8 L 599.7 106.6 L 602.4 107.08002331340685 L 599.7 107.6 L 599.1308209840208 110.4 L 598.6 107.6 L 595.8 107.08002331340685 L 598.6 106.6 Z" fill="#f6e6bf" opacity="0.6771734950132668"/><path d="M 459.1271687913686 407.7 L 459.6 410.0 L 461.9 410.46986571652815 L 459.6 410.9 L 459.1271687913686 413.2 L 458.7 410.9 L 456.4 410.46986571652815 L 458.7 410.0 Z" fill="#f6e6bf" opacity="0.6826023746281862"/><path d="M 230.63471976853907 303.8 L 231.2 307.1 L 234.5 307.6649359506555 L 231.2 308.3 L 230.63471976853907 311.5 L 230.0 308.3 L 226.8 307.6649359506555 L 230.0 307.1 Z" fill="#f6e6bf" opacity="0.7190399731509387"/><path d="M 215.30081850476563 315.8 L 215.8 318.1 L 218.1 318.5681263669394 L 215.8 319.0 L 215.30081850476563 321.4 L 214.9 319.0 L 212.5 318.5681263669394 L 214.9 318.1 Z" fill="#f6e6bf" opacity="0.6340267406776547"/><path d="M 334.73505934514105 174.0 L 335.4 177.2 L 338.6 177.86903051892295 L 335.4 178.5 L 334.73505934514105 181.8 L 334.1 178.5 L 330.8 177.86903051892295 L 334.1 177.2 Z" fill="#f6e6bf" opacity="0.596422325912863"/><path d="M 492.1 71.2 L 535.7 72.9 L 238.2 303.0 L 429.7 182.0 L 296.1 50.4" fill="none" stroke="#d4af6a" stroke-width="0.6" opacity="0.12"/>
  <rect x="1.5" y="1.5" width="757" height="466" rx="22" fill="none" stroke="#d4af6a" stroke-opacity="0.34" stroke-width="1.2"/>
  <rect x="7" y="7" width="746" height="455" rx="17" fill="none" stroke="#d4af6a" stroke-opacity="0.12" stroke-width="0.8"/>
  <path d="M 16 12.8 L 16.5 15.5 L 19.2 16 L 16.5 16.5 L 16 19.2 L 15.5 16.5 L 12.8 16 L 15.5 15.5 Z" fill="#d4af6a" opacity="0.4"/><path d="M 744 12.8 L 744.5 15.5 L 747.2 16 L 744.5 16.5 L 744 19.2 L 743.5 16.5 L 740.8 16 L 743.5 15.5 Z" fill="#d4af6a" opacity="0.4"/><path d="M 16 449.8 L 16.5 452.5 L 19.2 453 L 16.5 453.5 L 16 456.2 L 15.5 453.5 L 12.8 453 L 15.5 452.5 Z" fill="#d4af6a" opacity="0.4"/><path d="M 744 449.8 L 744.5 452.5 L 747.2 453 L 744.5 453.5 L 744 456.2 L 743.5 453.5 L 740.8 453 L 743.5 452.5 Z" fill="#d4af6a" opacity="0.4"/>
  <text x="380" y="46" text-anchor="middle" font-family="Georgia, 'Times New Roman', serif" font-size="22" letter-spacing="0.4" fill="#efeaf8">5 Steps to Read Any Chart Without a Birth Time</text>
  <line x1="230" y1="67" x2="368" y2="67" stroke="url(#vozinhabirthchart1en-rule)" stroke-width="1"/>
  <line x1="392" y1="67" x2="530" y2="67" stroke="url(#vozinhabirthchart1en-rule)" stroke-width="1"/>
  <path d="M 380 62.0 L 380.8 66.2 L 385.0 67 L 380.8 67.8 L 380 72.0 L 379.2 67.8 L 375.0 67 L 379.2 66.2 Z" fill="#d4af6a" opacity="0.85"/>
  <line x1="76" y1="121" x2="76" y2="379" stroke="#d4af6a" stroke-opacity="0.28" stroke-width="1.5"/>
  <circle cx="76" cy="121" r="20.0" fill="url(#vozinhabirthchart1en-glow)" opacity="0.5"/>
    <circle cx="76" cy="121" r="15" fill="url(#vozinhabirthchart1en-foil)" stroke="#f6e6bf" stroke-opacity="0.5" stroke-width="0.8"/>
    <circle cx="76" cy="116.8" r="9.0" fill="#ffffff" opacity="0.10"/>
    <text x="76" y="125.5" text-anchor="middle" font-family="Georgia, 'Times New Roman', serif" font-size="13" font-weight="700" fill="#3a2c12">1</text>
  <text x="116" y="117.0" font-family="Georgia, 'Times New Roman', serif" font-size="22" letter-spacing="0.3" fill="#f3effb">Locate the Sun</text>
  <text x="116" y="139.0" font-family="Helvetica, Arial, sans-serif" font-size="15.5" fill="#a59cc0">Gemini Sun, born 3 June 1986 — read as core temperament, not fate</text>
  <circle cx="76" cy="181" r="20.0" fill="url(#vozinhabirthchart1en-glow)" opacity="0.5"/>
    <circle cx="76" cy="181" r="15" fill="url(#vozinhabirthchart1en-foil)" stroke="#f6e6bf" stroke-opacity="0.5" stroke-width="0.8"/>
    <circle cx="76" cy="176.8" r="9.0" fill="#ffffff" opacity="0.10"/>
    <text x="76" y="185.5" text-anchor="middle" font-family="Georgia, 'Times New Roman', serif" font-size="13" font-weight="700" fill="#3a2c12">2</text>
  <text x="116" y="177.0" font-family="Georgia, 'Times New Roman', serif" font-size="22" letter-spacing="0.3" fill="#f3effb">Name what the Sun can and cannot show</text>
  <text x="116" y="199.0" font-family="Helvetica, Arial, sans-serif" font-size="15.5" fill="#a59cc0">Gemini adaptability and quick reactions: yes. Moon and rising without birth</text>
  <text x="116" y="217.0" font-family="Helvetica, Arial, sans-serif" font-size="15.5" fill="#a59cc0">time: no</text>
  <circle cx="76" cy="259" r="20.0" fill="url(#vozinhabirthchart1en-glow)" opacity="0.5"/>
    <circle cx="76" cy="259" r="15" fill="url(#vozinhabirthchart1en-foil)" stroke="#f6e6bf" stroke-opacity="0.5" stroke-width="0.8"/>
    <circle cx="76" cy="254.8" r="9.0" fill="#ffffff" opacity="0.10"/>
    <text x="76" y="263.5" text-anchor="middle" font-family="Georgia, 'Times New Roman', serif" font-size="13" font-weight="700" fill="#3a2c12">3</text>
  <text x="116" y="255.0" font-family="Georgia, 'Times New Roman', serif" font-size="22" letter-spacing="0.3" fill="#f3effb">Place the person in their age cycle</text>
  <text x="116" y="277.0" font-family="Helvetica, Arial, sans-serif" font-size="15.5" fill="#a59cc0">At 40, Vozinha is in the Uranus-opposition window, not a Saturn return</text>
  <circle cx="76" cy="319" r="20.0" fill="url(#vozinhabirthchart1en-glow)" opacity="0.5"/>
    <circle cx="76" cy="319" r="15" fill="url(#vozinhabirthchart1en-foil)" stroke="#f6e6bf" stroke-opacity="0.5" stroke-width="0.8"/>
    <circle cx="76" cy="314.8" r="9.0" fill="#ffffff" opacity="0.10"/>
    <text x="76" y="323.5" text-anchor="middle" font-family="Georgia, 'Times New Roman', serif" font-size="13" font-weight="700" fill="#3a2c12">4</text>
  <text x="116" y="315.0" font-family="Georgia, 'Times New Roman', serif" font-size="22" letter-spacing="0.3" fill="#f3effb">Add only clean current transits</text>
  <text x="116" y="337.0" font-family="Helvetica, Arial, sans-serif" font-size="15.5" fill="#a59cc0">Saturn sextile from Aries; Jupiter sextile after it enters Leo on June 30, 2026</text>
  <circle cx="76" cy="379" r="20.0" fill="url(#vozinhabirthchart1en-glow)" opacity="0.5"/>
    <circle cx="76" cy="379" r="15" fill="url(#vozinhabirthchart1en-foil)" stroke="#f6e6bf" stroke-opacity="0.5" stroke-width="0.8"/>
    <circle cx="76" cy="374.8" r="9.0" fill="#ffffff" opacity="0.10"/>
    <text x="76" y="383.5" text-anchor="middle" font-family="Georgia, 'Times New Roman', serif" font-size="13" font-weight="700" fill="#3a2c12">5</text>
  <text x="116" y="375.0" font-family="Georgia, 'Times New Roman', serif" font-size="22" letter-spacing="0.3" fill="#f3effb">Hold all of it as theme and timing</text>
  <text x="116" y="397.0" font-family="Helvetica, Arial, sans-serif" font-size="15.5" fill="#a59cc0">Never a forecast of a specific match or trophy — only temperament and gentle</text>
  <text x="116" y="415.0" font-family="Helvetica, Arial, sans-serif" font-size="15.5" fill="#a59cc0">timing notes</text>
  <path d="M 202.22749999999988 440.4 L 202.6 442.6 L 204.8 443 L 202.6 443.4 L 202.22749999999988 445.6 L 201.8 443.4 L 199.6 443 L 201.8 442.6 Z" fill="#d4af6a" opacity="0.5"/>
  <text x="380" y="447" text-anchor="middle" font-family="Georgia, 'Times New Roman', serif" font-style="italic" font-size="11.5" fill="#7b738f">A self-reflection framework — tendencies, not predictions</text>
  <path d="M 557.7725000000002 440.4 L 558.2 442.6 L 560.4 443 L 558.2 443.4 L 557.7725000000002 445.6 L 557.4 443.4 L 555.2 443 L 557.4 442.6 Z" fill="#d4af6a" opacity="0.5"/>
</svg>
