<svg xmlns="http://www.w3.org/2000/svg" viewBox="0 0 760 701" role="img" aria-label="Three Approaches to the Vozinha Chart">
  <defs>
    <linearGradient id="vozinhabirthchart0en-panel" x1="0" y1="0" x2="0.4" y2="1">
      <stop offset="0" stop-color="#1a1433"/><stop offset="0.55" stop-color="#120e26"/><stop offset="1" stop-color="#09081a"/>
    </linearGradient>
    <radialGradient id="vozinhabirthchart0en-foil" cx="0.42" cy="0.34" r="0.75">
      <stop offset="0" stop-color="#fbf0d2"/><stop offset="0.5" stop-color="#e8c882"/><stop offset="1" stop-color="#b8923f"/>
    </radialGradient>
    <radialGradient id="vozinhabirthchart0en-glow" cx="0.5" cy="0.5" r="0.5">
      <stop offset="0" stop-color="#f6e6bf"/><stop offset="1" stop-color="#f6e6bf" stop-opacity="0"/>
    </radialGradient>
    <radialGradient id="vozinhabirthchart0en-neb1" cx="0.5" cy="0.5" r="0.5">
      <stop offset="0" stop-color="#6f4bb0" stop-opacity="0.28"/><stop offset="1" stop-color="#6f4bb0" stop-opacity="0"/>
    </radialGradient>
    <radialGradient id="vozinhabirthchart0en-neb2" cx="0.5" cy="0.5" r="0.5">
      <stop offset="0" stop-color="#d4af6a" stop-opacity="0.16"/><stop offset="1" stop-color="#d4af6a" stop-opacity="0"/>
    </radialGradient>
    <linearGradient id="vozinhabirthchart0en-rule" x1="0" y1="0" x2="1" y2="0">
      <stop offset="0" stop-color="#d4af6a" stop-opacity="0"/><stop offset="0.5" stop-color="#d4af6a" stop-opacity="0.6"/><stop offset="1" stop-color="#d4af6a" stop-opacity="0"/>
    </linearGradient>
  </defs>
  <rect x="1.5" y="1.5" width="757" height="698" rx="22" fill="url(#vozinhabirthchart0en-panel)"/>
  <ellipse cx="198" cy="168" rx="380" ry="238" fill="url(#vozinhabirthchart0en-neb1)"/>
  <ellipse cx="623" cy="561" rx="334" ry="224" fill="url(#vozinhabirthchart0en-neb2)"/>
  <circle cx="131.0" cy="482.7" r="0.62" fill="#cfc8ea" opacity="0.21"/><circle cx="380.0" cy="597.6" r="0.60" fill="#cfc8ea" opacity="0.31"/><circle cx="527.6" cy="426.3" r="1.09" fill="#cfc8ea" opacity="0.53"/><circle cx="571.0" cy="203.1" r="1.05" fill="#cfc8ea" opacity="0.35"/><circle cx="582.5" cy="624.3" r="1.59" fill="#cfc8ea" opacity="0.32"/><circle cx="28.7" cy="480.6" r="0.69" fill="#cfc8ea" opacity="0.48"/><circle cx="488.7" cy="48.3" r="0.42" fill="#cfc8ea" opacity="0.32"/><circle cx="519.8" cy="533.8" r="1.38" fill="#cfc8ea" opacity="0.46"/><circle cx="324.0" cy="446.4" r="0.74" fill="#cfc8ea" opacity="0.44"/><circle cx="143.6" cy="542.6" r="1.03" fill="#cfc8ea" opacity="0.27"/><circle cx="623.0" cy="607.8" r="1.66" fill="#cfc8ea" opacity="0.15"/><circle cx="464.4" cy="607.7" r="0.72" fill="#cfc8ea" opacity="0.27"/><circle cx="454.6" cy="503.4" r="0.63" fill="#cfc8ea" opacity="0.54"/><circle cx="524.0" cy="57.4" r="1.65" fill="#cfc8ea" opacity="0.44"/><circle cx="564.2" cy="348.1" r="1.21" fill="#cfc8ea" opacity="0.41"/><circle cx="626.9" cy="600.5" r="0.52" fill="#cfc8ea" opacity="0.29"/><circle cx="257.2" cy="639.3" r="0.91" fill="#cfc8ea" opacity="0.42"/><circle cx="89.5" cy="457.6" r="1.14" fill="#cfc8ea" opacity="0.40"/><circle cx="491.7" cy="242.1" r="1.28" fill="#cfc8ea" opacity="0.18"/><circle cx="559.1" cy="224.1" r="0.92" fill="#cfc8ea" opacity="0.50"/><circle cx="342.5" cy="71.9" r="1.31" fill="#cfc8ea" opacity="0.39"/><circle cx="102.8" cy="15.0" r="1.43" fill="#cfc8ea" opacity="0.31"/><circle cx="282.0" cy="164.6" r="0.74" fill="#cfc8ea" opacity="0.31"/><circle cx="487.6" cy="563.4" r="0.59" fill="#cfc8ea" opacity="0.31"/><circle cx="63.6" cy="391.1" r="1.40" fill="#cfc8ea" opacity="0.13"/><circle cx="85.1" cy="318.3" r="0.93" fill="#cfc8ea" opacity="0.30"/><circle cx="594.6" cy="268.0" r="0.85" fill="#cfc8ea" opacity="0.50"/><circle cx="139.8" cy="515.7" r="1.56" fill="#cfc8ea" opacity="0.12"/><circle cx="713.1" cy="186.1" r="1.27" fill="#cfc8ea" opacity="0.53"/><circle cx="97.2" cy="526.9" r="1.70" fill="#cfc8ea" opacity="0.12"/><circle cx="569.9" cy="86.0" r="1.66" fill="#cfc8ea" opacity="0.17"/><circle cx="354.2" cy="454.0" r="1.35" fill="#cfc8ea" opacity="0.40"/><circle cx="437.9" cy="647.8" r="1.32" fill="#cfc8ea" opacity="0.39"/><circle cx="427.9" cy="226.7" r="0.56" fill="#cfc8ea" opacity="0.50"/><circle cx="245.3" cy="239.4" r="1.65" fill="#cfc8ea" opacity="0.24"/><circle cx="448.0" cy="175.2" r="1.64" fill="#cfc8ea" opacity="0.13"/><circle cx="111.5" cy="365.7" r="0.66" fill="#cfc8ea" opacity="0.23"/><circle cx="220.1" cy="68.8" r="0.98" fill="#cfc8ea" opacity="0.25"/><circle cx="525.1" cy="281.5" r="0.49" fill="#cfc8ea" opacity="0.29"/><circle cx="691.2" cy="30.5" r="0.89" fill="#cfc8ea" opacity="0.42"/><circle cx="579.2" cy="361.0" r="0.85" fill="#cfc8ea" opacity="0.12"/><circle cx="426.4" cy="369.6" r="0.64" fill="#cfc8ea" opacity="0.27"/><circle cx="348.7" cy="606.6" r="1.09" fill="#cfc8ea" opacity="0.51"/><circle cx="284.9" cy="86.9" r="0.83" fill="#cfc8ea" opacity="0.38"/><circle cx="579.3" cy="619.7" r="0.91" fill="#cfc8ea" opacity="0.28"/><circle cx="481.4" cy="52.8" r="1.22" fill="#cfc8ea" opacity="0.54"/><circle cx="451.2" cy="264.9" r="1.23" fill="#cfc8ea" opacity="0.29"/><circle cx="561.3" cy="460.4" r="1.24" fill="#cfc8ea" opacity="0.26"/><circle cx="412.3" cy="27.5" r="1.14" fill="#cfc8ea" opacity="0.43"/><circle cx="339.2" cy="513.0" r="1.31" fill="#cfc8ea" opacity="0.32"/><circle cx="481.2" cy="300.3" r="1.37" fill="#cfc8ea" opacity="0.13"/><circle cx="491.5" cy="39.0" r="0.69" fill="#cfc8ea" opacity="0.52"/><circle cx="421.8" cy="267.9" r="1.31" fill="#cfc8ea" opacity="0.41"/><circle cx="573.9" cy="196.0" r="1.30" fill="#cfc8ea" opacity="0.22"/><circle cx="710.1" cy="54.1" r="1.43" fill="#cfc8ea" opacity="0.53"/><circle cx="473.1" cy="461.7" r="0.45" fill="#cfc8ea" opacity="0.47"/><circle cx="461.9" cy="193.5" r="0.80" fill="#cfc8ea" opacity="0.21"/><circle cx="48.4" cy="383.5" r="1.36" fill="#cfc8ea" opacity="0.53"/><circle cx="617.4" cy="451.0" r="0.89" fill="#cfc8ea" opacity="0.52"/><path d="M 380.2800492402166 44.6 L 380.8 47.5 L 383.7 48.037396353669465 L 380.8 48.6 L 380.2800492402166 51.4 L 379.7 48.6 L 376.9 48.037396353669465 L 379.7 47.5 Z" fill="#f6e6bf" opacity="0.5035405431408435"/><path d="M 485.2976880054921 78.8 L 485.9 81.8 L 488.9 82.39531300403178 L 485.9 83.0 L 485.2976880054921 86.0 L 484.7 83.0 L 481.7 82.39531300403178 L 484.7 81.8 Z" fill="#f6e6bf" opacity="0.6978479284327477"/><path d="M 729.1849846448749 454.9 L 729.7 457.6 L 732.4 458.12776362057775 L 729.7 458.7 L 729.1849846448749 461.4 L 728.7 458.7 L 725.9 458.12776362057775 L 728.7 457.6 Z" fill="#f6e6bf" opacity="0.5799942361656576"/><path d="M 444.9716537427157 164.2 L 445.5 166.8 L 448.0 167.27720888331532 L 445.5 167.8 L 444.9716537427157 170.3 L 444.5 167.8 L 441.9 167.27720888331532 L 444.5 166.8 Z" fill="#f6e6bf" opacity="0.5224541129078716"/><path d="M 23.54297018609941 515.4 L 24.1 518.4 L 27.2 519.0333453426138 L 24.1 519.6 L 23.54297018609941 522.7 L 23.0 519.6 L 19.9 519.0333453426138 L 23.0 518.4 Z" fill="#f6e6bf" opacity="0.5056882739532739"/><path d="M 380.0 597.6 L 527.6 426.3 L 571.0 203.1 L 582.5 624.3 L 28.7 480.6" fill="none" stroke="#d4af6a" stroke-width="0.6" opacity="0.12"/>
  <rect x="1.5" y="1.5" width="757" height="698" rx="22" fill="none" stroke="#d4af6a" stroke-opacity="0.34" stroke-width="1.2"/>
  <rect x="7" y="7" width="746" height="687" rx="17" fill="none" stroke="#d4af6a" stroke-opacity="0.12" stroke-width="0.8"/>
  <path d="M 16 12.8 L 16.5 15.5 L 19.2 16 L 16.5 16.5 L 16 19.2 L 15.5 16.5 L 12.8 16 L 15.5 15.5 Z" fill="#d4af6a" opacity="0.4"/><path d="M 744 12.8 L 744.5 15.5 L 747.2 16 L 744.5 16.5 L 744 19.2 L 743.5 16.5 L 740.8 16 L 743.5 15.5 Z" fill="#d4af6a" opacity="0.4"/><path d="M 16 681.8 L 16.5 684.5 L 19.2 685 L 16.5 685.5 L 16 688.2 L 15.5 685.5 L 12.8 685 L 15.5 684.5 Z" fill="#d4af6a" opacity="0.4"/><path d="M 744 681.8 L 744.5 684.5 L 747.2 685 L 744.5 685.5 L 744 688.2 L 743.5 685.5 L 740.8 685 L 743.5 684.5 Z" fill="#d4af6a" opacity="0.4"/>
  <text x="380" y="46" text-anchor="middle" font-family="Georgia, 'Times New Roman', serif" font-size="22" letter-spacing="0.4" fill="#efeaf8">Three Approaches to the Vozinha Chart</text>
  <line x1="230" y1="67" x2="368" y2="67" stroke="url(#vozinhabirthchart0en-rule)" stroke-width="1"/>
  <line x1="392" y1="67" x2="530" y2="67" stroke="url(#vozinhabirthchart0en-rule)" stroke-width="1"/>
  <path d="M 380 62.0 L 380.8 66.2 L 385.0 67 L 380.8 67.8 L 380 72.0 L 379.2 67.8 L 375.0 67 L 379.2 66.2 Z" fill="#d4af6a" opacity="0.85"/>

  <rect x="46" y="99" width="668" height="172.0" rx="14" fill="#1d1740" fill-opacity="0.5" stroke="#d4af6a" stroke-opacity="0.22" stroke-width="0.9"/>
  <rect x="46" y="99" width="3.5" height="172.0" rx="1.8" fill="#d4af6a" fill-opacity="0.6"/>
  <path d="M 47.75 108.6 L 48.3 111.5 L 51.1 112 L 48.3 112.5 L 47.75 115.4 L 47.2 112.5 L 44.4 112 L 47.2 111.5 Z" fill="#f6e6bf" opacity="0.7"/>
  <text x="380" y="128.0" text-anchor="middle" font-family="Georgia, 'Times New Roman', serif" font-size="21" font-weight="700" letter-spacing="0.3" fill="#f3effb">Sun-Sign Reading</text>
  <path d="M 70 157.8 L 70.5 160.5 L 73.2 161 L 70.5 161.5 L 70 164.2 L 69.5 161.5 L 66.8 161 L 69.5 160.5 Z" fill="#d4af6a" opacity="0.8"/>
  <text x="84" y="166.0" font-family="Helvetica, Arial, sans-serif" font-size="16" fill="#a59cc0">Reads Gemini temperament</text>
  <path d="M 70 186.8 L 70.5 189.5 L 73.2 190 L 70.5 190.5 L 70 193.2 L 69.5 190.5 L 66.8 190 L 69.5 189.5 Z" fill="#d4af6a" opacity="0.8"/>
  <text x="84" y="195.0" font-family="Helvetica, Arial, sans-serif" font-size="16" fill="#a59cc0">Adaptable, quick reactions</text>
  <path d="M 70 215.8 L 70.5 218.5 L 73.2 219 L 70.5 219.5 L 70 222.2 L 69.5 219.5 L 66.8 219 L 69.5 218.5 Z" fill="#d4af6a" opacity="0.8"/>
  <text x="84" y="224.0" font-family="Helvetica, Arial, sans-serif" font-size="16" fill="#a59cc0">Honest — no birth time needed</text>
  <path d="M 70 244.8 L 70.5 247.5 L 73.2 248 L 70.5 248.5 L 70 251.2 L 69.5 248.5 L 66.8 248 L 69.5 247.5 Z" fill="#d4af6a" opacity="0.8"/>
  <text x="84" y="253.0" font-family="Helvetica, Arial, sans-serif" font-size="16" fill="#a59cc0">Narrower picture, intentional</text>
  <path d="M 380 279.5 L 380.7 283.3 L 384.5 284 L 380.7 284.7 L 380 288.5 L 379.3 284.7 L 375.5 284 L 379.3 283.3 Z" fill="#d4af6a" opacity="0.65"/>
  <rect x="46" y="297" width="668" height="172.0" rx="14" fill="#1d1740" fill-opacity="0.5" stroke="#d4af6a" stroke-opacity="0.22" stroke-width="0.9"/>
  <rect x="46" y="297" width="3.5" height="172.0" rx="1.8" fill="#d4af6a" fill-opacity="0.6"/>
  <path d="M 47.75 306.6 L 48.3 309.5 L 51.1 310 L 48.3 310.5 L 47.75 313.4 L 47.2 310.5 L 44.4 310 L 47.2 309.5 Z" fill="#f6e6bf" opacity="0.7"/>
  <text x="380" y="326.0" text-anchor="middle" font-family="Georgia, 'Times New Roman', serif" font-size="21" font-weight="700" letter-spacing="0.3" fill="#f3effb">Full Timed Natal Chart</text>
  <path d="M 70 355.8 L 70.5 358.5 L 73.2 359 L 70.5 359.5 L 70 362.2 L 69.5 359.5 L 66.8 359 L 69.5 358.5 Z" fill="#d4af6a" opacity="0.8"/>
  <text x="84" y="364.0" font-family="Helvetica, Arial, sans-serif" font-size="16" fill="#a59cc0">Adds Moon and Ascendant</text>
  <path d="M 70 384.8 L 70.5 387.5 L 73.2 388 L 70.5 388.5 L 70 391.2 L 69.5 388.5 L 66.8 388 L 69.5 387.5 Z" fill="#d4af6a" opacity="0.8"/>
  <text x="84" y="393.0" font-family="Helvetica, Arial, sans-serif" font-size="16" fill="#a59cc0">Reveals houses and angles</text>
  <path d="M 70 413.8 L 70.5 416.5 L 73.2 417 L 70.5 417.5 L 70 420.2 L 69.5 417.5 L 66.8 417 L 69.5 416.5 Z" fill="#d4af6a" opacity="0.8"/>
  <text x="84" y="422.0" font-family="Helvetica, Arial, sans-serif" font-size="16" fill="#a59cc0">Requires verified birth time</text>
  <path d="M 70 442.8 L 70.5 445.5 L 73.2 446 L 70.5 446.5 L 70 449.2 L 69.5 446.5 L 66.8 446 L 69.5 445.5 Z" fill="#d4af6a" opacity="0.8"/>
  <text x="84" y="451.0" font-family="Helvetica, Arial, sans-serif" font-size="16" fill="#a59cc0">Richer but unavailable here</text>
  <path d="M 380 477.5 L 380.7 481.3 L 384.5 482 L 380.7 482.7 L 380 486.5 L 379.3 482.7 L 375.5 482 L 379.3 481.3 Z" fill="#d4af6a" opacity="0.65"/>
  <rect x="46" y="495" width="668" height="172.0" rx="14" fill="#1d1740" fill-opacity="0.5" stroke="#d4af6a" stroke-opacity="0.22" stroke-width="0.9"/>
  <rect x="46" y="495" width="3.5" height="172.0" rx="1.8" fill="#d4af6a" fill-opacity="0.6"/>
  <path d="M 47.75 504.6 L 48.3 507.5 L 51.1 508 L 48.3 508.5 L 47.75 511.4 L 47.2 508.5 L 44.4 508 L 47.2 507.5 Z" fill="#f6e6bf" opacity="0.7"/>
  <text x="380" y="524.0" text-anchor="middle" font-family="Georgia, 'Times New Roman', serif" font-size="21" font-weight="700" letter-spacing="0.3" fill="#f3effb">Results Prediction</text>
  <path d="M 70 553.8 L 70.5 556.5 L 73.2 557 L 70.5 557.5 L 70 560.2 L 69.5 557.5 L 66.8 557 L 69.5 556.5 Z" fill="#d4af6a" opacity="0.8"/>
  <text x="84" y="562.0" font-family="Helvetica, Arial, sans-serif" font-size="16" fill="#a59cc0">Claims a specific outcome</text>
  <path d="M 70 582.8 L 70.5 585.5 L 73.2 586 L 70.5 586.5 L 70 589.2 L 69.5 586.5 L 66.8 586 L 69.5 585.5 Z" fill="#d4af6a" opacity="0.8"/>
  <text x="84" y="591.0" font-family="Helvetica, Arial, sans-serif" font-size="16" fill="#a59cc0">Lives or dies on the call</text>
  <path d="M 70 611.8 L 70.5 614.5 L 73.2 615 L 70.5 615.5 L 70 618.2 L 69.5 615.5 L 66.8 615 L 69.5 614.5 Z" fill="#d4af6a" opacity="0.8"/>
  <text x="84" y="620.0" font-family="Helvetica, Arial, sans-serif" font-size="16" fill="#a59cc0">No symbolic depth</text>
  <path d="M 70 640.8 L 70.5 643.5 L 73.2 644 L 70.5 644.5 L 70 647.2 L 69.5 644.5 L 66.8 644 L 69.5 643.5 Z" fill="#d4af6a" opacity="0.8"/>
  <text x="84" y="649.0" font-family="Helvetica, Arial, sans-serif" font-size="16" fill="#a59cc0">Loses credibility over time</text>
  <path d="M 202.22749999999988 672.4 L 202.6 674.6 L 204.8 675 L 202.6 675.4 L 202.22749999999988 677.6 L 201.8 675.4 L 199.6 675 L 201.8 674.6 Z" fill="#d4af6a" opacity="0.5"/>
  <text x="380" y="679" text-anchor="middle" font-family="Georgia, 'Times New Roman', serif" font-style="italic" font-size="11.5" fill="#7b738f">A self-reflection framework — tendencies, not predictions</text>
  <path d="M 557.7725000000002 672.4 L 558.2 674.6 L 560.4 675 L 558.2 675.4 L 557.7725000000002 677.6 L 557.4 675.4 L 555.2 675 L 557.4 674.6 Z" fill="#d4af6a" opacity="0.5"/>
</svg>
