<svg xmlns="http://www.w3.org/2000/svg" viewBox="0 0 760 496" role="img" aria-label="5 Steps for Reading 2026 World Cup Astrology Through Transits">
  <defs>
    <linearGradient id="worldcup2026astrologyprediction0en-panel" x1="0" y1="0" x2="0.4" y2="1">
      <stop offset="0" stop-color="#1a1433"/><stop offset="0.55" stop-color="#120e26"/><stop offset="1" stop-color="#09081a"/>
    </linearGradient>
    <radialGradient id="worldcup2026astrologyprediction0en-foil" cx="0.42" cy="0.34" r="0.75">
      <stop offset="0" stop-color="#fbf0d2"/><stop offset="0.5" stop-color="#e8c882"/><stop offset="1" stop-color="#b8923f"/>
    </radialGradient>
    <radialGradient id="worldcup2026astrologyprediction0en-glow" cx="0.5" cy="0.5" r="0.5">
      <stop offset="0" stop-color="#f6e6bf"/><stop offset="1" stop-color="#f6e6bf" stop-opacity="0"/>
    </radialGradient>
    <radialGradient id="worldcup2026astrologyprediction0en-neb1" cx="0.5" cy="0.5" r="0.5">
      <stop offset="0" stop-color="#6f4bb0" stop-opacity="0.28"/><stop offset="1" stop-color="#6f4bb0" stop-opacity="0"/>
    </radialGradient>
    <radialGradient id="worldcup2026astrologyprediction0en-neb2" cx="0.5" cy="0.5" r="0.5">
      <stop offset="0" stop-color="#d4af6a" stop-opacity="0.16"/><stop offset="1" stop-color="#d4af6a" stop-opacity="0"/>
    </radialGradient>
    <linearGradient id="worldcup2026astrologyprediction0en-rule" x1="0" y1="0" x2="1" y2="0">
      <stop offset="0" stop-color="#d4af6a" stop-opacity="0"/><stop offset="0.5" stop-color="#d4af6a" stop-opacity="0.6"/><stop offset="1" stop-color="#d4af6a" stop-opacity="0"/>
    </linearGradient>
  </defs>
  <rect x="1.5" y="1.5" width="757" height="493" rx="22" fill="url(#worldcup2026astrologyprediction0en-panel)"/>
  <ellipse cx="198" cy="119" rx="380" ry="169" fill="url(#worldcup2026astrologyprediction0en-neb1)"/>
  <ellipse cx="623" cy="397" rx="334" ry="159" fill="url(#worldcup2026astrologyprediction0en-neb2)"/>
  <circle cx="170.6" cy="350.4" r="1.20" fill="#cfc8ea" opacity="0.37"/><circle cx="551.4" cy="130.8" r="1.57" fill="#cfc8ea" opacity="0.30"/><circle cx="627.8" cy="364.1" r="1.33" fill="#cfc8ea" opacity="0.41"/><circle cx="120.4" cy="329.2" r="0.91" fill="#cfc8ea" opacity="0.28"/><circle cx="717.9" cy="307.7" r="1.11" fill="#cfc8ea" opacity="0.19"/><circle cx="275.1" cy="235.6" r="0.76" fill="#cfc8ea" opacity="0.24"/><circle cx="739.9" cy="229.3" r="0.85" fill="#cfc8ea" opacity="0.28"/><circle cx="266.6" cy="15.9" r="1.24" fill="#cfc8ea" opacity="0.46"/><circle cx="342.6" cy="475.5" r="1.27" fill="#cfc8ea" opacity="0.20"/><circle cx="86.7" cy="198.8" r="1.40" fill="#cfc8ea" opacity="0.26"/><circle cx="385.2" cy="260.3" r="1.46" fill="#cfc8ea" opacity="0.33"/><circle cx="251.0" cy="202.2" r="0.84" fill="#cfc8ea" opacity="0.34"/><circle cx="78.2" cy="145.2" r="0.99" fill="#cfc8ea" opacity="0.18"/><circle cx="227.5" cy="352.3" r="1.51" fill="#cfc8ea" opacity="0.25"/><circle cx="297.5" cy="446.3" r="0.87" fill="#cfc8ea" opacity="0.13"/><circle cx="402.1" cy="455.4" r="0.76" fill="#cfc8ea" opacity="0.34"/><circle cx="608.6" cy="313.3" r="1.13" fill="#cfc8ea" opacity="0.53"/><circle cx="541.5" cy="172.4" r="0.47" fill="#cfc8ea" opacity="0.38"/><circle cx="233.4" cy="44.5" r="0.74" fill="#cfc8ea" opacity="0.27"/><circle cx="104.0" cy="463.2" r="1.38" fill="#cfc8ea" opacity="0.21"/><circle cx="291.4" cy="48.9" r="1.24" fill="#cfc8ea" opacity="0.38"/><circle cx="366.6" cy="366.2" r="1.52" fill="#cfc8ea" opacity="0.36"/><circle cx="717.7" cy="316.0" r="1.44" fill="#cfc8ea" opacity="0.30"/><circle cx="125.8" cy="147.7" r="1.59" fill="#cfc8ea" opacity="0.42"/><circle cx="662.9" cy="246.1" r="0.47" fill="#cfc8ea" opacity="0.26"/><circle cx="154.9" cy="254.1" r="1.25" fill="#cfc8ea" opacity="0.23"/><circle cx="683.9" cy="180.2" r="1.28" fill="#cfc8ea" opacity="0.29"/><circle cx="38.8" cy="121.4" r="1.70" fill="#cfc8ea" opacity="0.12"/><circle cx="345.3" cy="136.5" r="1.16" fill="#cfc8ea" opacity="0.48"/><circle cx="599.8" cy="100.3" r="0.80" fill="#cfc8ea" opacity="0.26"/><circle cx="359.2" cy="431.2" r="1.35" fill="#cfc8ea" opacity="0.34"/><circle cx="576.0" cy="164.7" r="1.25" fill="#cfc8ea" opacity="0.28"/><circle cx="415.6" cy="374.7" r="1.53" fill="#cfc8ea" opacity="0.28"/><circle cx="387.9" cy="229.5" r="1.51" fill="#cfc8ea" opacity="0.46"/><circle cx="528.8" cy="178.7" r="1.67" fill="#cfc8ea" opacity="0.24"/><circle cx="366.3" cy="125.5" r="0.97" fill="#cfc8ea" opacity="0.27"/><circle cx="315.0" cy="196.8" r="1.55" fill="#cfc8ea" opacity="0.51"/><circle cx="497.3" cy="209.3" r="0.99" fill="#cfc8ea" opacity="0.36"/><circle cx="534.2" cy="448.6" r="0.92" fill="#cfc8ea" opacity="0.19"/><circle cx="210.2" cy="212.1" r="0.49" fill="#cfc8ea" opacity="0.12"/><circle cx="367.3" cy="341.7" r="1.48" fill="#cfc8ea" opacity="0.17"/><circle cx="334.8" cy="84.1" r="0.78" fill="#cfc8ea" opacity="0.26"/><path d="M 493.18788429163396 257.8 L 493.6 259.8 L 495.6 260.18729616329074 L 493.6 260.6 L 493.18788429163396 262.6 L 492.8 260.6 L 490.8 260.18729616329074 L 492.8 259.8 Z" fill="#f6e6bf" opacity="0.6509295629803091"/><path d="M 262.64686326496303 182.2 L 263.1 184.5 L 265.4 184.95731224119663 L 263.1 185.4 L 262.64686326496303 187.7 L 262.2 185.4 L 259.9 184.95731224119663 L 262.2 184.5 Z" fill="#f6e6bf" opacity="0.5665161372628063"/><path d="M 365.9199085291475 251.7 L 366.5 254.9 L 369.7 255.45840509608388 L 366.5 256.1 L 365.9199085291475 259.3 L 365.3 256.1 L 362.1 255.45840509608388 L 365.3 254.9 Z" fill="#f6e6bf" opacity="0.754757183836773"/><path d="M 191.31767949275672 381.0 L 191.9 383.9 L 194.8 384.48832043260336 L 191.9 385.0 L 191.31767949275672 387.9 L 190.8 385.0 L 187.9 384.48832043260336 L 190.8 383.9 Z" fill="#f6e6bf" opacity="0.7507974847685546"/><path d="M 147.4155755545944 228.8 L 147.9 231.3 L 150.4 231.7726756595075 L 147.9 232.3 L 147.4155755545944 234.8 L 146.9 232.3 L 144.4 231.7726756595075 L 146.9 231.3 Z" fill="#f6e6bf" opacity="0.633400215068832"/>
  <rect x="1.5" y="1.5" width="757" height="493" rx="22" fill="none" stroke="#d4af6a" stroke-opacity="0.34" stroke-width="1.2"/>
  <rect x="7" y="7" width="746" height="482" rx="17" fill="none" stroke="#d4af6a" stroke-opacity="0.12" stroke-width="0.8"/>
  <path d="M 16 12.8 L 16.5 15.5 L 19.2 16 L 16.5 16.5 L 16 19.2 L 15.5 16.5 L 12.8 16 L 15.5 15.5 Z" fill="#d4af6a" opacity="0.4"/><path d="M 744 12.8 L 744.5 15.5 L 747.2 16 L 744.5 16.5 L 744 19.2 L 743.5 16.5 L 740.8 16 L 743.5 15.5 Z" fill="#d4af6a" opacity="0.4"/><path d="M 16 476.8 L 16.5 479.5 L 19.2 480 L 16.5 480.5 L 16 483.2 L 15.5 480.5 L 12.8 480 L 15.5 479.5 Z" fill="#d4af6a" opacity="0.4"/><path d="M 744 476.8 L 744.5 479.5 L 747.2 480 L 744.5 480.5 L 744 483.2 L 743.5 480.5 L 740.8 480 L 743.5 479.5 Z" fill="#d4af6a" opacity="0.4"/>
  <text x="380" y="46" text-anchor="middle" font-family="Georgia, 'Times New Roman', serif" font-size="22" letter-spacing="0.4" fill="#efeaf8">5 Steps for Reading 2026 World Cup Astrology Through</text>
  <text x="380" y="73" text-anchor="middle" font-family="Georgia, 'Times New Roman', serif" font-size="22" letter-spacing="0.4" fill="#efeaf8">Transits</text>
  <line x1="230" y1="94" x2="368" y2="94" stroke="url(#worldcup2026astrologyprediction0en-rule)" stroke-width="1"/>
  <line x1="392" y1="94" x2="530" y2="94" stroke="url(#worldcup2026astrologyprediction0en-rule)" stroke-width="1"/>
  <path d="M 380 89.0 L 380.8 93.2 L 385.0 94 L 380.8 94.8 L 380 99.0 L 379.2 94.8 L 375.0 94 L 379.2 93.2 Z" fill="#d4af6a" opacity="0.85"/>
  <line x1="76" y1="148" x2="76" y2="424" stroke="#d4af6a" stroke-opacity="0.28" stroke-width="1.5"/>
  <circle cx="76" cy="148" r="20.0" fill="url(#worldcup2026astrologyprediction0en-glow)" opacity="0.5"/>
    <circle cx="76" cy="148" r="15" fill="url(#worldcup2026astrologyprediction0en-foil)" stroke="#f6e6bf" stroke-opacity="0.5" stroke-width="0.8"/>
    <circle cx="76" cy="143.8" r="9.0" fill="#ffffff" opacity="0.10"/>
    <text x="76" y="152.5" text-anchor="middle" font-family="Georgia, 'Times New Roman', serif" font-size="13" font-weight="700" fill="#3a2c12">1</text>
  <text x="116" y="144.0" font-family="Georgia, 'Times New Roman', serif" font-size="22" letter-spacing="0.3" fill="#f3effb">Track Jupiter in Cancer</text>
  <text x="116" y="166.0" font-family="Helvetica, Arial, sans-serif" font-size="15.5" fill="#a59cc0">Follow through June 30; note which national charts have natal Cancer placements</text>
  <text x="116" y="184.0" font-family="Helvetica, Arial, sans-serif" font-size="15.5" fill="#a59cc0">it touches</text>
  <circle cx="76" cy="226" r="20.0" fill="url(#worldcup2026astrologyprediction0en-glow)" opacity="0.5"/>
    <circle cx="76" cy="226" r="15" fill="url(#worldcup2026astrologyprediction0en-foil)" stroke="#f6e6bf" stroke-opacity="0.5" stroke-width="0.8"/>
    <circle cx="76" cy="221.8" r="9.0" fill="#ffffff" opacity="0.10"/>
    <text x="76" y="230.5" text-anchor="middle" font-family="Georgia, 'Times New Roman', serif" font-size="13" font-weight="700" fill="#3a2c12">2</text>
  <text x="116" y="222.0" font-family="Georgia, 'Times New Roman', serif" font-size="22" letter-spacing="0.3" fill="#f3effb">Read the June 11 Opening Chart</text>
  <text x="116" y="244.0" font-family="Helvetica, Arial, sans-serif" font-size="15.5" fill="#a59cc0">Estadio Azteca chart as symbolic opening tone, not a rule for every later stage</text>
  <circle cx="76" cy="286" r="20.0" fill="url(#worldcup2026astrologyprediction0en-glow)" opacity="0.5"/>
    <circle cx="76" cy="286" r="15" fill="url(#worldcup2026astrologyprediction0en-foil)" stroke="#f6e6bf" stroke-opacity="0.5" stroke-width="0.8"/>
    <circle cx="76" cy="281.8" r="9.0" fill="#ffffff" opacity="0.10"/>
    <text x="76" y="290.5" text-anchor="middle" font-family="Georgia, 'Times New Roman', serif" font-size="13" font-weight="700" fill="#3a2c12">3</text>
  <text x="116" y="282.0" font-family="Georgia, 'Times New Roman', serif" font-size="22" letter-spacing="0.3" fill="#f3effb">Use Solar Arcs and Lunar Transits</text>
  <text x="116" y="304.0" font-family="Helvetica, Arial, sans-serif" font-size="15.5" fill="#a59cc0">Solar arcs give the slow year-theme; lunar transits give week-to-week windows</text>
  <circle cx="76" cy="346" r="20.0" fill="url(#worldcup2026astrologyprediction0en-glow)" opacity="0.5"/>
    <circle cx="76" cy="346" r="15" fill="url(#worldcup2026astrologyprediction0en-foil)" stroke="#f6e6bf" stroke-opacity="0.5" stroke-width="0.8"/>
    <circle cx="76" cy="341.8" r="9.0" fill="#ffffff" opacity="0.10"/>
    <text x="76" y="350.5" text-anchor="middle" font-family="Georgia, 'Times New Roman', serif" font-size="13" font-weight="700" fill="#3a2c12">4</text>
  <text x="116" y="342.0" font-family="Georgia, 'Times New Roman', serif" font-size="22" letter-spacing="0.3" fill="#f3effb">Flag Capricorn-Emphasis Nations</text>
  <text x="116" y="364.0" font-family="Helvetica, Arial, sans-serif" font-size="15.5" fill="#a59cc0">Cancer transit may show as pressure or exposure for them, not automatic</text>
  <text x="116" y="382.0" font-family="Helvetica, Arial, sans-serif" font-size="15.5" fill="#a59cc0">weakness</text>
  <circle cx="76" cy="424" r="20.0" fill="url(#worldcup2026astrologyprediction0en-glow)" opacity="0.5"/>
    <circle cx="76" cy="424" r="15" fill="url(#worldcup2026astrologyprediction0en-foil)" stroke="#f6e6bf" stroke-opacity="0.5" stroke-width="0.8"/>
    <circle cx="76" cy="419.8" r="9.0" fill="#ffffff" opacity="0.10"/>
    <text x="76" y="428.5" text-anchor="middle" font-family="Georgia, 'Times New Roman', serif" font-size="13" font-weight="700" fill="#3a2c12">5</text>
  <text x="116" y="420.0" font-family="Georgia, 'Times New Roman', serif" font-size="22" letter-spacing="0.3" fill="#f3effb">Treat Each Window as a Live Question</text>
  <text x="116" y="442.0" font-family="Helvetica, Arial, sans-serif" font-size="15.5" fill="#a59cc0">Ask: is this team's chart lit right now? Not a settled outcome</text>
  <path d="M 202.22749999999988 467.4 L 202.6 469.6 L 204.8 470 L 202.6 470.4 L 202.22749999999988 472.6 L 201.8 470.4 L 199.6 470 L 201.8 469.6 Z" fill="#d4af6a" opacity="0.5"/>
  <text x="380" y="474" text-anchor="middle" font-family="Georgia, 'Times New Roman', serif" font-style="italic" font-size="11.5" fill="#7b738f">A self-reflection framework — tendencies, not predictions</text>
  <path d="M 557.7725000000002 467.4 L 558.2 469.6 L 560.4 470 L 558.2 470.4 L 557.7725000000002 472.6 L 557.4 470.4 L 555.2 470 L 557.4 469.6 Z" fill="#d4af6a" opacity="0.5"/>
</svg>
