<svg xmlns="http://www.w3.org/2000/svg" viewBox="0 0 760 614" role="img" aria-label="Jupiter in Cancer vs Jupiter in Leo vs Capricorn Opposition">
  <defs>
    <linearGradient id="worldcup2026astrologyprediction1en-panel" x1="0" y1="0" x2="0.4" y2="1">
      <stop offset="0" stop-color="#1a1433"/><stop offset="0.55" stop-color="#120e26"/><stop offset="1" stop-color="#09081a"/>
    </linearGradient>
    <radialGradient id="worldcup2026astrologyprediction1en-foil" cx="0.42" cy="0.34" r="0.75">
      <stop offset="0" stop-color="#fbf0d2"/><stop offset="0.5" stop-color="#e8c882"/><stop offset="1" stop-color="#b8923f"/>
    </radialGradient>
    <radialGradient id="worldcup2026astrologyprediction1en-glow" cx="0.5" cy="0.5" r="0.5">
      <stop offset="0" stop-color="#f6e6bf"/><stop offset="1" stop-color="#f6e6bf" stop-opacity="0"/>
    </radialGradient>
    <radialGradient id="worldcup2026astrologyprediction1en-neb1" cx="0.5" cy="0.5" r="0.5">
      <stop offset="0" stop-color="#6f4bb0" stop-opacity="0.28"/><stop offset="1" stop-color="#6f4bb0" stop-opacity="0"/>
    </radialGradient>
    <radialGradient id="worldcup2026astrologyprediction1en-neb2" cx="0.5" cy="0.5" r="0.5">
      <stop offset="0" stop-color="#d4af6a" stop-opacity="0.16"/><stop offset="1" stop-color="#d4af6a" stop-opacity="0"/>
    </radialGradient>
    <linearGradient id="worldcup2026astrologyprediction1en-rule" x1="0" y1="0" x2="1" y2="0">
      <stop offset="0" stop-color="#d4af6a" stop-opacity="0"/><stop offset="0.5" stop-color="#d4af6a" stop-opacity="0.6"/><stop offset="1" stop-color="#d4af6a" stop-opacity="0"/>
    </linearGradient>
  </defs>
  <rect x="1.5" y="1.5" width="757" height="611" rx="22" fill="url(#worldcup2026astrologyprediction1en-panel)"/>
  <ellipse cx="198" cy="147" rx="380" ry="209" fill="url(#worldcup2026astrologyprediction1en-neb1)"/>
  <ellipse cx="623" cy="491" rx="334" ry="196" fill="url(#worldcup2026astrologyprediction1en-neb2)"/>
  <circle cx="446.9" cy="51.4" r="0.54" fill="#cfc8ea" opacity="0.40"/><circle cx="367.4" cy="527.6" r="0.58" fill="#cfc8ea" opacity="0.34"/><circle cx="32.4" cy="441.8" r="1.41" fill="#cfc8ea" opacity="0.31"/><circle cx="66.6" cy="417.7" r="1.00" fill="#cfc8ea" opacity="0.24"/><circle cx="660.8" cy="558.7" r="0.50" fill="#cfc8ea" opacity="0.24"/><circle cx="471.7" cy="107.0" r="0.89" fill="#cfc8ea" opacity="0.32"/><circle cx="465.5" cy="477.7" r="0.75" fill="#cfc8ea" opacity="0.14"/><circle cx="117.7" cy="501.7" r="1.59" fill="#cfc8ea" opacity="0.29"/><circle cx="316.4" cy="421.3" r="0.55" fill="#cfc8ea" opacity="0.30"/><circle cx="610.5" cy="410.1" r="1.14" fill="#cfc8ea" opacity="0.42"/><circle cx="254.3" cy="471.5" r="0.83" fill="#cfc8ea" opacity="0.34"/><circle cx="586.9" cy="239.8" r="1.23" fill="#cfc8ea" opacity="0.53"/><circle cx="101.8" cy="392.9" r="0.44" fill="#cfc8ea" opacity="0.23"/><circle cx="379.4" cy="415.0" r="1.48" fill="#cfc8ea" opacity="0.51"/><circle cx="70.1" cy="218.9" r="1.48" fill="#cfc8ea" opacity="0.37"/><circle cx="529.6" cy="78.6" r="1.68" fill="#cfc8ea" opacity="0.17"/><circle cx="744.2" cy="151.5" r="0.65" fill="#cfc8ea" opacity="0.51"/><circle cx="251.7" cy="494.8" r="0.75" fill="#cfc8ea" opacity="0.51"/><circle cx="546.4" cy="572.5" r="1.67" fill="#cfc8ea" opacity="0.34"/><circle cx="260.3" cy="256.0" r="0.51" fill="#cfc8ea" opacity="0.32"/><circle cx="169.5" cy="462.2" r="0.60" fill="#cfc8ea" opacity="0.21"/><circle cx="226.2" cy="407.2" r="1.39" fill="#cfc8ea" opacity="0.14"/><circle cx="673.9" cy="54.8" r="0.97" fill="#cfc8ea" opacity="0.37"/><circle cx="189.0" cy="20.1" r="0.99" fill="#cfc8ea" opacity="0.26"/><circle cx="612.2" cy="187.9" r="0.76" fill="#cfc8ea" opacity="0.31"/><circle cx="247.6" cy="112.8" r="1.16" fill="#cfc8ea" opacity="0.18"/><circle cx="518.9" cy="224.5" r="1.42" fill="#cfc8ea" opacity="0.52"/><circle cx="469.8" cy="288.6" r="1.60" fill="#cfc8ea" opacity="0.29"/><circle cx="664.4" cy="66.8" r="1.59" fill="#cfc8ea" opacity="0.44"/><circle cx="523.4" cy="407.2" r="1.01" fill="#cfc8ea" opacity="0.53"/><circle cx="269.7" cy="225.1" r="0.51" fill="#cfc8ea" opacity="0.40"/><circle cx="46.5" cy="319.3" r="0.63" fill="#cfc8ea" opacity="0.19"/><circle cx="426.9" cy="544.5" r="0.57" fill="#cfc8ea" opacity="0.22"/><circle cx="48.1" cy="500.0" r="1.45" fill="#cfc8ea" opacity="0.21"/><circle cx="316.5" cy="31.9" r="1.31" fill="#cfc8ea" opacity="0.45"/><circle cx="488.1" cy="349.0" r="0.62" fill="#cfc8ea" opacity="0.28"/><circle cx="269.7" cy="565.0" r="0.41" fill="#cfc8ea" opacity="0.51"/><circle cx="659.0" cy="441.1" r="0.67" fill="#cfc8ea" opacity="0.47"/><circle cx="627.9" cy="201.7" r="0.98" fill="#cfc8ea" opacity="0.52"/><circle cx="320.7" cy="472.1" r="0.81" fill="#cfc8ea" opacity="0.18"/><circle cx="389.6" cy="244.5" r="0.45" fill="#cfc8ea" opacity="0.42"/><circle cx="582.1" cy="512.0" r="1.34" fill="#cfc8ea" opacity="0.24"/><circle cx="78.7" cy="234.9" r="1.38" fill="#cfc8ea" opacity="0.23"/><circle cx="336.8" cy="344.5" r="0.74" fill="#cfc8ea" opacity="0.45"/><circle cx="440.4" cy="465.0" r="0.59" fill="#cfc8ea" opacity="0.25"/><circle cx="617.5" cy="468.8" r="0.67" fill="#cfc8ea" opacity="0.52"/><circle cx="249.1" cy="170.0" r="1.06" fill="#cfc8ea" opacity="0.29"/><circle cx="67.7" cy="308.6" r="1.14" fill="#cfc8ea" opacity="0.19"/><circle cx="167.2" cy="248.6" r="0.79" fill="#cfc8ea" opacity="0.19"/><circle cx="664.8" cy="487.5" r="1.42" fill="#cfc8ea" opacity="0.35"/><circle cx="735.3" cy="145.0" r="1.17" fill="#cfc8ea" opacity="0.52"/><circle cx="379.8" cy="558.5" r="1.22" fill="#cfc8ea" opacity="0.31"/><path d="M 685.4134926982224 578.5 L 686.0 581.5 L 689.1 582.1229695347138 L 686.0 582.7 L 685.4134926982224 585.8 L 684.8 582.7 L 681.8 582.1229695347138 L 684.8 581.5 Z" fill="#f6e6bf" opacity="0.7532095431583001"/><path d="M 223.83419997617602 430.1 L 224.4 433.2 L 227.6 433.8374691964127 L 224.4 434.4 L 223.83419997617602 437.6 L 223.2 434.4 L 220.1 433.8374691964127 L 223.2 433.2 Z" fill="#f6e6bf" opacity="0.619812267483212"/><path d="M 465.78966856375337 171.6 L 466.3 174.4 L 469.1 174.92748566018417 L 466.3 175.5 L 465.78966856375337 178.2 L 465.3 175.5 L 462.5 174.92748566018417 L 465.3 174.4 Z" fill="#f6e6bf" opacity="0.7387047206284478"/><path d="M 370.110020454973 560.2 L 370.5 562.3 L 372.6 562.6950614103116 L 370.5 563.1 L 370.110020454973 565.2 L 369.7 563.1 L 367.6 562.6950614103116 L 369.7 562.3 Z" fill="#f6e6bf" opacity="0.5398355901474133"/><path d="M 517.1321830637753 374.0 L 517.6 376.5 L 520.0 376.92695725383237 L 517.6 377.4 L 517.1321830637753 379.8 L 516.7 377.4 L 514.2 376.92695725383237 L 516.7 376.5 Z" fill="#f6e6bf" opacity="0.691039229487069"/><path d="M 367.4 527.6 L 70.1 218.9 L 260.3 256.0 L 226.2 407.2 L 46.5 319.3" fill="none" stroke="#d4af6a" stroke-width="0.6" opacity="0.12"/>
  <rect x="1.5" y="1.5" width="757" height="611" rx="22" fill="none" stroke="#d4af6a" stroke-opacity="0.34" stroke-width="1.2"/>
  <rect x="7" y="7" width="746" height="600" rx="17" fill="none" stroke="#d4af6a" stroke-opacity="0.12" stroke-width="0.8"/>
  <path d="M 16 12.8 L 16.5 15.5 L 19.2 16 L 16.5 16.5 L 16 19.2 L 15.5 16.5 L 12.8 16 L 15.5 15.5 Z" fill="#d4af6a" opacity="0.4"/><path d="M 744 12.8 L 744.5 15.5 L 747.2 16 L 744.5 16.5 L 744 19.2 L 743.5 16.5 L 740.8 16 L 743.5 15.5 Z" fill="#d4af6a" opacity="0.4"/><path d="M 16 594.8 L 16.5 597.5 L 19.2 598 L 16.5 598.5 L 16 601.2 L 15.5 598.5 L 12.8 598 L 15.5 597.5 Z" fill="#d4af6a" opacity="0.4"/><path d="M 744 594.8 L 744.5 597.5 L 747.2 598 L 744.5 598.5 L 744 601.2 L 743.5 598.5 L 740.8 598 L 743.5 597.5 Z" fill="#d4af6a" opacity="0.4"/>
  <text x="380" y="46" text-anchor="middle" font-family="Georgia, 'Times New Roman', serif" font-size="22" letter-spacing="0.4" fill="#efeaf8">Jupiter in Cancer vs Jupiter in Leo vs Capricorn Opposition</text>
  <line x1="230" y1="67" x2="368" y2="67" stroke="url(#worldcup2026astrologyprediction1en-rule)" stroke-width="1"/>
  <line x1="392" y1="67" x2="530" y2="67" stroke="url(#worldcup2026astrologyprediction1en-rule)" stroke-width="1"/>
  <path d="M 380 62.0 L 380.8 66.2 L 385.0 67 L 380.8 67.8 L 380 72.0 L 379.2 67.8 L 375.0 67 L 379.2 66.2 Z" fill="#d4af6a" opacity="0.85"/>

  <rect x="46" y="99" width="668" height="143.0" rx="14" fill="#1d1740" fill-opacity="0.5" stroke="#d4af6a" stroke-opacity="0.22" stroke-width="0.9"/>
  <rect x="46" y="99" width="668" height="3.5" rx="1.8" fill="#d4af6a" fill-opacity="0.6"/>
  <path d="M 380 97.1 L 380.5 100.0 L 383.4 100.5 L 380.5 101.0 L 380 103.9 L 379.5 101.0 L 376.6 100.5 L 379.5 100.0 Z" fill="#f6e6bf" opacity="0.7"/>
  <text x="380" y="128.0" text-anchor="middle" font-family="Georgia, 'Times New Roman', serif" font-size="21" font-weight="700" letter-spacing="0.3" fill="#f3effb">Jupiter in Cancer (Jun 11–30)</text>
  <path d="M 70 157.8 L 70.5 160.5 L 73.2 161 L 70.5 161.5 L 70 164.2 L 69.5 161.5 L 66.8 161 L 69.5 160.5 Z" fill="#d4af6a" opacity="0.8"/>
  <text x="84" y="166.0" font-family="Helvetica, Arial, sans-serif" font-size="16" fill="#a59cc0">Amplifies collective home-territory feeling</text>
  <path d="M 70 186.8 L 70.5 189.5 L 73.2 190 L 70.5 190.5 L 70 193.2 L 69.5 190.5 L 66.8 190 L 69.5 189.5 Z" fill="#d4af6a" opacity="0.8"/>
  <text x="84" y="195.0" font-family="Helvetica, Arial, sans-serif" font-size="16" fill="#a59cc0">Favors host nations in the group stage</text>
  <path d="M 70 215.8 L 70.5 218.5 L 73.2 219 L 70.5 219.5 L 70 222.2 L 69.5 219.5 L 66.8 219 L 69.5 218.5 Z" fill="#d4af6a" opacity="0.8"/>
  <text x="84" y="224.0" font-family="Helvetica, Arial, sans-serif" font-size="16" fill="#a59cc0">Activates natal Cancer placements</text>
  <path d="M 380 250.5 L 380.7 254.3 L 384.5 255 L 380.7 255.7 L 380 259.5 L 379.3 255.7 L 375.5 255 L 379.3 254.3 Z" fill="#d4af6a" opacity="0.65"/>
  <rect x="46" y="268" width="668" height="143.0" rx="14" fill="#1d1740" fill-opacity="0.5" stroke="#d4af6a" stroke-opacity="0.22" stroke-width="0.9"/>
  <rect x="46" y="268" width="668" height="3.5" rx="1.8" fill="#d4af6a" fill-opacity="0.6"/>
  <path d="M 380 266.1 L 380.5 269.0 L 383.4 269.5 L 380.5 270.0 L 380 272.9 L 379.5 270.0 L 376.6 269.5 L 379.5 269.0 Z" fill="#f6e6bf" opacity="0.7"/>
  <text x="380" y="297.0" text-anchor="middle" font-family="Georgia, 'Times New Roman', serif" font-size="21" font-weight="700" letter-spacing="0.3" fill="#f3effb">Jupiter in Leo (from Jun 30)</text>
  <path d="M 70 326.8 L 70.5 329.5 L 73.2 330 L 70.5 330.5 L 70 333.2 L 69.5 330.5 L 66.8 330 L 69.5 329.5 Z" fill="#d4af6a" opacity="0.8"/>
  <text x="84" y="335.0" font-family="Helvetica, Arial, sans-serif" font-size="16" fill="#a59cc0">Shifts emphasis to individual spotlight</text>
  <path d="M 70 355.8 L 70.5 358.5 L 73.2 359 L 70.5 359.5 L 70 362.2 L 69.5 359.5 L 66.8 359 L 69.5 358.5 Z" fill="#d4af6a" opacity="0.8"/>
  <text x="84" y="364.0" font-family="Helvetica, Arial, sans-serif" font-size="16" fill="#a59cc0">Late-tournament stories favor standout individuals</text>
  <path d="M 70 384.8 L 70.5 387.5 L 73.2 388 L 70.5 388.5 L 70 391.2 L 69.5 388.5 L 66.8 388 L 69.5 387.5 Z" fill="#d4af6a" opacity="0.8"/>
  <text x="84" y="393.0" font-family="Helvetica, Arial, sans-serif" font-size="16" fill="#a59cc0">Activates natal Leo or 5th-house emphasis</text>
  <path d="M 380 419.5 L 380.7 423.3 L 384.5 424 L 380.7 424.7 L 380 428.5 L 379.3 424.7 L 375.5 424 L 379.3 423.3 Z" fill="#d4af6a" opacity="0.65"/>
  <rect x="46" y="437" width="668" height="143.0" rx="14" fill="#1d1740" fill-opacity="0.5" stroke="#d4af6a" stroke-opacity="0.22" stroke-width="0.9"/>
  <rect x="46" y="437" width="668" height="3.5" rx="1.8" fill="#d4af6a" fill-opacity="0.6"/>
  <path d="M 380 435.1 L 380.5 438.0 L 383.4 438.5 L 380.5 439.0 L 380 441.9 L 379.5 439.0 L 376.6 438.5 L 379.5 438.0 Z" fill="#f6e6bf" opacity="0.7"/>
  <text x="380" y="466.0" text-anchor="middle" font-family="Georgia, 'Times New Roman', serif" font-size="21" font-weight="700" letter-spacing="0.3" fill="#f3effb">Capricorn Opposition</text>
  <path d="M 70 495.8 L 70.5 498.5 L 73.2 499 L 70.5 499.5 L 70 502.2 L 69.5 499.5 L 66.8 499 L 69.5 498.5 Z" fill="#d4af6a" opacity="0.8"/>
  <text x="84" y="504.0" font-family="Helvetica, Arial, sans-serif" font-size="16" fill="#a59cc0">Receives opposition activation from Cancer transit</text>
  <path d="M 70 524.8 L 70.5 527.5 L 73.2 528 L 70.5 528.5 L 70 531.2 L 69.5 528.5 L 66.8 528 L 69.5 527.5 Z" fill="#d4af6a" opacity="0.8"/>
  <text x="84" y="533.0" font-family="Helvetica, Arial, sans-serif" font-size="16" fill="#a59cc0">May show as pressure, exposure, or overextension</text>
  <path d="M 70 553.8 L 70.5 556.5 L 73.2 557 L 70.5 557.5 L 70 560.2 L 69.5 557.5 L 66.8 557 L 69.5 556.5 Z" fill="#d4af6a" opacity="0.8"/>
  <text x="84" y="562.0" font-family="Helvetica, Arial, sans-serif" font-size="16" fill="#a59cc0">Not automatic weakness — read the full chart</text>
  <path d="M 202.22749999999988 585.4 L 202.6 587.6 L 204.8 588 L 202.6 588.4 L 202.22749999999988 590.6 L 201.8 588.4 L 199.6 588 L 201.8 587.6 Z" fill="#d4af6a" opacity="0.5"/>
  <text x="380" y="592" text-anchor="middle" font-family="Georgia, 'Times New Roman', serif" font-style="italic" font-size="11.5" fill="#7b738f">A self-reflection framework — tendencies, not predictions</text>
  <path d="M 557.7725000000002 585.4 L 558.2 587.6 L 560.4 588 L 558.2 588.4 L 557.7725000000002 590.6 L 557.4 588.4 L 555.2 588 L 557.4 587.6 Z" fill="#d4af6a" opacity="0.5"/>
</svg>
