<svg xmlns="http://www.w3.org/2000/svg" viewBox="0 0 760 614" role="img" aria-label="Three Ways to Read the Same Chart">
  <defs>
    <linearGradient id="yoanewissabirthchart0en-panel" x1="0" y1="0" x2="0.4" y2="1">
      <stop offset="0" stop-color="#1a1433"/><stop offset="0.55" stop-color="#120e26"/><stop offset="1" stop-color="#09081a"/>
    </linearGradient>
    <radialGradient id="yoanewissabirthchart0en-foil" cx="0.42" cy="0.34" r="0.75">
      <stop offset="0" stop-color="#fbf0d2"/><stop offset="0.5" stop-color="#e8c882"/><stop offset="1" stop-color="#b8923f"/>
    </radialGradient>
    <radialGradient id="yoanewissabirthchart0en-glow" cx="0.5" cy="0.5" r="0.5">
      <stop offset="0" stop-color="#f6e6bf"/><stop offset="1" stop-color="#f6e6bf" stop-opacity="0"/>
    </radialGradient>
    <radialGradient id="yoanewissabirthchart0en-neb1" cx="0.5" cy="0.5" r="0.5">
      <stop offset="0" stop-color="#6f4bb0" stop-opacity="0.28"/><stop offset="1" stop-color="#6f4bb0" stop-opacity="0"/>
    </radialGradient>
    <radialGradient id="yoanewissabirthchart0en-neb2" cx="0.5" cy="0.5" r="0.5">
      <stop offset="0" stop-color="#d4af6a" stop-opacity="0.16"/><stop offset="1" stop-color="#d4af6a" stop-opacity="0"/>
    </radialGradient>
    <linearGradient id="yoanewissabirthchart0en-rule" x1="0" y1="0" x2="1" y2="0">
      <stop offset="0" stop-color="#d4af6a" stop-opacity="0"/><stop offset="0.5" stop-color="#d4af6a" stop-opacity="0.6"/><stop offset="1" stop-color="#d4af6a" stop-opacity="0"/>
    </linearGradient>
  </defs>
  <rect x="1.5" y="1.5" width="757" height="611" rx="22" fill="url(#yoanewissabirthchart0en-panel)"/>
  <ellipse cx="198" cy="147" rx="380" ry="209" fill="url(#yoanewissabirthchart0en-neb1)"/>
  <ellipse cx="623" cy="491" rx="334" ry="196" fill="url(#yoanewissabirthchart0en-neb2)"/>
  <circle cx="347.0" cy="301.9" r="0.41" fill="#cfc8ea" opacity="0.21"/><circle cx="586.1" cy="545.9" r="1.40" fill="#cfc8ea" opacity="0.28"/><circle cx="151.3" cy="178.1" r="1.62" fill="#cfc8ea" opacity="0.36"/><circle cx="637.9" cy="177.1" r="1.66" fill="#cfc8ea" opacity="0.15"/><circle cx="107.9" cy="566.3" r="1.07" fill="#cfc8ea" opacity="0.27"/><circle cx="509.6" cy="360.4" r="0.95" fill="#cfc8ea" opacity="0.39"/><circle cx="692.2" cy="314.8" r="1.69" fill="#cfc8ea" opacity="0.14"/><circle cx="443.8" cy="521.9" r="0.82" fill="#cfc8ea" opacity="0.19"/><circle cx="633.0" cy="306.8" r="0.61" fill="#cfc8ea" opacity="0.23"/><circle cx="331.0" cy="372.5" r="1.66" fill="#cfc8ea" opacity="0.35"/><circle cx="673.3" cy="529.2" r="0.55" fill="#cfc8ea" opacity="0.42"/><circle cx="198.1" cy="204.0" r="1.53" fill="#cfc8ea" opacity="0.50"/><circle cx="232.8" cy="374.4" r="0.99" fill="#cfc8ea" opacity="0.25"/><circle cx="76.3" cy="388.8" r="1.37" fill="#cfc8ea" opacity="0.29"/><circle cx="573.7" cy="231.2" r="1.53" fill="#cfc8ea" opacity="0.21"/><circle cx="40.0" cy="518.5" r="0.41" fill="#cfc8ea" opacity="0.51"/><circle cx="339.4" cy="427.7" r="1.15" fill="#cfc8ea" opacity="0.48"/><circle cx="124.2" cy="520.5" r="1.06" fill="#cfc8ea" opacity="0.39"/><circle cx="277.7" cy="126.3" r="0.99" fill="#cfc8ea" opacity="0.22"/><circle cx="621.5" cy="557.1" r="0.80" fill="#cfc8ea" opacity="0.29"/><circle cx="167.6" cy="285.8" r="1.58" fill="#cfc8ea" opacity="0.31"/><circle cx="114.8" cy="560.5" r="1.14" fill="#cfc8ea" opacity="0.37"/><circle cx="357.7" cy="445.1" r="0.67" fill="#cfc8ea" opacity="0.36"/><circle cx="310.4" cy="490.5" r="0.97" fill="#cfc8ea" opacity="0.40"/><circle cx="528.1" cy="190.1" r="0.42" fill="#cfc8ea" opacity="0.32"/><circle cx="372.0" cy="479.4" r="0.52" fill="#cfc8ea" opacity="0.27"/><circle cx="116.8" cy="519.3" r="0.66" fill="#cfc8ea" opacity="0.52"/><circle cx="247.7" cy="276.0" r="1.38" fill="#cfc8ea" opacity="0.27"/><circle cx="703.6" cy="462.3" r="1.50" fill="#cfc8ea" opacity="0.51"/><circle cx="744.4" cy="278.8" r="1.30" fill="#cfc8ea" opacity="0.46"/><circle cx="685.0" cy="561.7" r="1.63" fill="#cfc8ea" opacity="0.14"/><circle cx="115.5" cy="363.6" r="1.02" fill="#cfc8ea" opacity="0.23"/><circle cx="452.1" cy="15.5" r="0.53" fill="#cfc8ea" opacity="0.39"/><circle cx="51.7" cy="539.0" r="1.48" fill="#cfc8ea" opacity="0.27"/><circle cx="297.4" cy="164.9" r="0.77" fill="#cfc8ea" opacity="0.38"/><circle cx="32.8" cy="502.1" r="0.99" fill="#cfc8ea" opacity="0.40"/><circle cx="248.7" cy="401.8" r="0.65" fill="#cfc8ea" opacity="0.23"/><circle cx="239.4" cy="425.2" r="1.35" fill="#cfc8ea" opacity="0.46"/><circle cx="720.8" cy="571.0" r="1.50" fill="#cfc8ea" opacity="0.49"/><circle cx="637.3" cy="561.4" r="1.58" fill="#cfc8ea" opacity="0.29"/><circle cx="420.4" cy="397.4" r="0.54" fill="#cfc8ea" opacity="0.53"/><circle cx="399.0" cy="93.9" r="1.41" fill="#cfc8ea" opacity="0.38"/><circle cx="549.8" cy="212.3" r="1.45" fill="#cfc8ea" opacity="0.25"/><circle cx="210.3" cy="358.5" r="1.25" fill="#cfc8ea" opacity="0.27"/><circle cx="15.7" cy="493.3" r="0.54" fill="#cfc8ea" opacity="0.35"/><circle cx="579.3" cy="429.0" r="1.06" fill="#cfc8ea" opacity="0.16"/><circle cx="593.9" cy="310.2" r="1.25" fill="#cfc8ea" opacity="0.33"/><circle cx="406.5" cy="338.0" r="1.34" fill="#cfc8ea" opacity="0.53"/><circle cx="109.1" cy="229.4" r="0.62" fill="#cfc8ea" opacity="0.21"/><circle cx="177.3" cy="263.4" r="1.37" fill="#cfc8ea" opacity="0.43"/><circle cx="389.8" cy="296.8" r="0.86" fill="#cfc8ea" opacity="0.19"/><circle cx="677.8" cy="389.9" r="0.90" fill="#cfc8ea" opacity="0.49"/><path d="M 241.66233433783054 359.2 L 242.2 362.0 L 244.9 362.4777482240461 L 242.2 363.0 L 241.66233433783054 365.7 L 241.1 363.0 L 238.4 362.4777482240461 L 241.1 362.0 Z" fill="#f6e6bf" opacity="0.7364911847515032"/><path d="M 647.2218340709805 132.7 L 647.7 135.2 L 650.2 135.71935043064877 L 647.7 136.2 L 647.2218340709805 138.7 L 646.7 136.2 L 644.2 135.71935043064877 L 646.7 135.2 Z" fill="#f6e6bf" opacity="0.6726790141081438"/><path d="M 275.11643290519714 146.3 L 275.6 149.0 L 278.3 149.50365164643154 L 275.6 150.0 L 275.11643290519714 152.7 L 274.6 150.0 L 271.9 149.50365164643154 L 274.6 149.0 Z" fill="#f6e6bf" opacity="0.5663293375400826"/><path d="M 43.63802956789732 483.0 L 44.2 486.0 L 47.1 486.5220566908829 L 44.2 487.1 L 43.63802956789732 490.0 L 43.1 487.1 L 40.1 486.5220566908829 L 43.1 486.0 Z" fill="#f6e6bf" opacity="0.7725089074810967"/><path d="M 161.71008406579494 558.9 L 162.3 562.0 L 165.4 562.5999196632765 L 162.3 563.2 L 161.71008406579494 566.3 L 161.1 563.2 L 158.0 562.5999196632765 L 161.1 562.0 Z" fill="#f6e6bf" opacity="0.620556250656955"/><path d="M 586.1 545.9 L 151.3 178.1 L 637.9 177.1 L 107.9 566.3 L 331.0 372.5" fill="none" stroke="#d4af6a" stroke-width="0.6" opacity="0.12"/>
  <rect x="1.5" y="1.5" width="757" height="611" rx="22" fill="none" stroke="#d4af6a" stroke-opacity="0.34" stroke-width="1.2"/>
  <rect x="7" y="7" width="746" height="600" rx="17" fill="none" stroke="#d4af6a" stroke-opacity="0.12" stroke-width="0.8"/>
  <path d="M 16 12.8 L 16.5 15.5 L 19.2 16 L 16.5 16.5 L 16 19.2 L 15.5 16.5 L 12.8 16 L 15.5 15.5 Z" fill="#d4af6a" opacity="0.4"/><path d="M 744 12.8 L 744.5 15.5 L 747.2 16 L 744.5 16.5 L 744 19.2 L 743.5 16.5 L 740.8 16 L 743.5 15.5 Z" fill="#d4af6a" opacity="0.4"/><path d="M 16 594.8 L 16.5 597.5 L 19.2 598 L 16.5 598.5 L 16 601.2 L 15.5 598.5 L 12.8 598 L 15.5 597.5 Z" fill="#d4af6a" opacity="0.4"/><path d="M 744 594.8 L 744.5 597.5 L 747.2 598 L 744.5 598.5 L 744 601.2 L 743.5 598.5 L 740.8 598 L 743.5 597.5 Z" fill="#d4af6a" opacity="0.4"/>
  <text x="380" y="46" text-anchor="middle" font-family="Georgia, 'Times New Roman', serif" font-size="22" letter-spacing="0.4" fill="#efeaf8">Three Ways to Read the Same Chart</text>
  <line x1="230" y1="67" x2="368" y2="67" stroke="url(#yoanewissabirthchart0en-rule)" stroke-width="1"/>
  <line x1="392" y1="67" x2="530" y2="67" stroke="url(#yoanewissabirthchart0en-rule)" stroke-width="1"/>
  <path d="M 380 62.0 L 380.8 66.2 L 385.0 67 L 380.8 67.8 L 380 72.0 L 379.2 67.8 L 375.0 67 L 379.2 66.2 Z" fill="#d4af6a" opacity="0.85"/>

  <rect x="46" y="99" width="668" height="143.0" rx="14" fill="#1d1740" fill-opacity="0.5" stroke="#d4af6a" stroke-opacity="0.22" stroke-width="0.9"/>
  <rect x="46" y="99" width="3.5" height="143.0" rx="1.8" fill="#d4af6a" fill-opacity="0.6"/>
  <path d="M 47.75 108.6 L 48.3 111.5 L 51.1 112 L 48.3 112.5 L 47.75 115.4 L 47.2 112.5 L 44.4 112 L 47.2 111.5 Z" fill="#f6e6bf" opacity="0.7"/>
  <text x="380" y="128.0" text-anchor="middle" font-family="Georgia, 'Times New Roman', serif" font-size="21" font-weight="700" letter-spacing="0.3" fill="#f3effb">Sun-anchored reading</text>
  <path d="M 70 157.8 L 70.5 160.5 L 73.2 161 L 70.5 161.5 L 70 164.2 L 69.5 161.5 L 66.8 161 L 69.5 160.5 Z" fill="#d4af6a" opacity="0.8"/>
  <text x="84" y="166.0" font-family="Helvetica, Arial, sans-serif" font-size="16" fill="#a59cc0">Leans on the Virgo Sun, fixed by a verified date</text>
  <path d="M 70 186.8 L 70.5 189.5 L 73.2 190 L 70.5 190.5 L 70 193.2 L 69.5 190.5 L 66.8 190 L 69.5 189.5 Z" fill="#d4af6a" opacity="0.8"/>
  <text x="84" y="195.0" font-family="Helvetica, Arial, sans-serif" font-size="16" fill="#a59cc0">Refuses to invent the unrecorded layers</text>
  <path d="M 70 215.8 L 70.5 218.5 L 73.2 219 L 70.5 219.5 L 70 222.2 L 69.5 219.5 L 66.8 219 L 69.5 218.5 Z" fill="#d4af6a" opacity="0.8"/>
  <text x="84" y="224.0" font-family="Helvetica, Arial, sans-serif" font-size="16" fill="#a59cc0">Names a theme of craft and service, not a scoreline</text>
  <path d="M 380 250.5 L 380.7 254.3 L 384.5 255 L 380.7 255.7 L 380 259.5 L 379.3 255.7 L 375.5 255 L 379.3 254.3 Z" fill="#d4af6a" opacity="0.65"/>
  <rect x="46" y="268" width="668" height="143.0" rx="14" fill="#1d1740" fill-opacity="0.5" stroke="#d4af6a" stroke-opacity="0.22" stroke-width="0.9"/>
  <rect x="46" y="268" width="3.5" height="143.0" rx="1.8" fill="#d4af6a" fill-opacity="0.6"/>
  <path d="M 47.75 277.6 L 48.3 280.5 L 51.1 281 L 48.3 281.5 L 47.75 284.4 L 47.2 281.5 L 44.4 281 L 47.2 280.5 Z" fill="#f6e6bf" opacity="0.7"/>
  <text x="380" y="297.0" text-anchor="middle" font-family="Georgia, 'Times New Roman', serif" font-size="21" font-weight="700" letter-spacing="0.3" fill="#f3effb">Full natal reading</text>
  <path d="M 70 326.8 L 70.5 329.5 L 73.2 330 L 70.5 330.5 L 70 333.2 L 69.5 330.5 L 66.8 330 L 69.5 329.5 Z" fill="#d4af6a" opacity="0.8"/>
  <text x="84" y="335.0" font-family="Helvetica, Arial, sans-serif" font-size="16" fill="#a59cc0">Weighs Sun, Moon, Ascendant, every house cusp</text>
  <path d="M 70 355.8 L 70.5 358.5 L 73.2 359 L 70.5 359.5 L 70 362.2 L 69.5 359.5 L 66.8 359 L 69.5 358.5 Z" fill="#d4af6a" opacity="0.8"/>
  <text x="84" y="364.0" font-family="Helvetica, Arial, sans-serif" font-size="16" fill="#a59cc0">Needs a recorded birth time, which is not public</text>
  <path d="M 70 384.8 L 70.5 387.5 L 73.2 388 L 70.5 388.5 L 70 391.2 L 69.5 388.5 L 66.8 388 L 69.5 387.5 Z" fill="#d4af6a" opacity="0.8"/>
  <text x="84" y="393.0" font-family="Helvetica, Arial, sans-serif" font-size="16" fill="#a59cc0">Trades reliability for breadth</text>
  <path d="M 380 419.5 L 380.7 423.3 L 384.5 424 L 380.7 424.7 L 380 428.5 L 379.3 424.7 L 375.5 424 L 379.3 423.3 Z" fill="#d4af6a" opacity="0.65"/>
  <rect x="46" y="437" width="668" height="143.0" rx="14" fill="#1d1740" fill-opacity="0.5" stroke="#d4af6a" stroke-opacity="0.22" stroke-width="0.9"/>
  <rect x="46" y="437" width="3.5" height="143.0" rx="1.8" fill="#d4af6a" fill-opacity="0.6"/>
  <path d="M 47.75 446.6 L 48.3 449.5 L 51.1 450 L 48.3 450.5 L 47.75 453.4 L 47.2 450.5 L 44.4 450 L 47.2 449.5 Z" fill="#f6e6bf" opacity="0.7"/>
  <text x="380" y="466.0" text-anchor="middle" font-family="Georgia, 'Times New Roman', serif" font-size="21" font-weight="700" letter-spacing="0.3" fill="#f3effb">Tabloid zodiac blurb</text>
  <path d="M 70 495.8 L 70.5 498.5 L 73.2 499 L 70.5 499.5 L 70 502.2 L 69.5 499.5 L 66.8 499 L 69.5 498.5 Z" fill="#d4af6a" opacity="0.8"/>
  <text x="84" y="504.0" font-family="Helvetica, Arial, sans-serif" font-size="16" fill="#a59cc0">Flattens Virgo into a single precision label</text>
  <path d="M 70 524.8 L 70.5 527.5 L 73.2 528 L 70.5 528.5 L 70 531.2 L 69.5 528.5 L 66.8 528 L 69.5 527.5 Z" fill="#d4af6a" opacity="0.8"/>
  <text x="84" y="533.0" font-family="Helvetica, Arial, sans-serif" font-size="16" fill="#a59cc0">Treats the Sun as fixed temperament</text>
  <path d="M 70 553.8 L 70.5 556.5 L 73.2 557 L 70.5 557.5 L 70 560.2 L 69.5 557.5 L 66.8 557 L 69.5 556.5 Z" fill="#d4af6a" opacity="0.8"/>
  <text x="84" y="562.0" font-family="Helvetica, Arial, sans-serif" font-size="16" fill="#a59cc0">Trades accuracy for catchiness</text>
  <path d="M 202.22749999999988 585.4 L 202.6 587.6 L 204.8 588 L 202.6 588.4 L 202.22749999999988 590.6 L 201.8 588.4 L 199.6 588 L 201.8 587.6 Z" fill="#d4af6a" opacity="0.5"/>
  <text x="380" y="592" text-anchor="middle" font-family="Georgia, 'Times New Roman', serif" font-style="italic" font-size="11.5" fill="#7b738f">A self-reflection framework — tendencies, not predictions</text>
  <path d="M 557.7725000000002 585.4 L 558.2 587.6 L 560.4 588 L 558.2 588.4 L 557.7725000000002 590.6 L 557.4 588.4 L 555.2 588 L 557.4 587.6 Z" fill="#d4af6a" opacity="0.5"/>
</svg>
