<svg xmlns="http://www.w3.org/2000/svg" viewBox="0 0 760 614" role="img" aria-label="Fire, Earth and Water Playing Styles">
  <defs>
    <linearGradient id="zodiacsignsasworldcup2026teams1en-panel" x1="0" y1="0" x2="0.4" y2="1">
      <stop offset="0" stop-color="#1a1433"/><stop offset="0.55" stop-color="#120e26"/><stop offset="1" stop-color="#09081a"/>
    </linearGradient>
    <radialGradient id="zodiacsignsasworldcup2026teams1en-foil" cx="0.42" cy="0.34" r="0.75">
      <stop offset="0" stop-color="#fbf0d2"/><stop offset="0.5" stop-color="#e8c882"/><stop offset="1" stop-color="#b8923f"/>
    </radialGradient>
    <radialGradient id="zodiacsignsasworldcup2026teams1en-glow" cx="0.5" cy="0.5" r="0.5">
      <stop offset="0" stop-color="#f6e6bf"/><stop offset="1" stop-color="#f6e6bf" stop-opacity="0"/>
    </radialGradient>
    <radialGradient id="zodiacsignsasworldcup2026teams1en-neb1" cx="0.5" cy="0.5" r="0.5">
      <stop offset="0" stop-color="#6f4bb0" stop-opacity="0.28"/><stop offset="1" stop-color="#6f4bb0" stop-opacity="0"/>
    </radialGradient>
    <radialGradient id="zodiacsignsasworldcup2026teams1en-neb2" cx="0.5" cy="0.5" r="0.5">
      <stop offset="0" stop-color="#d4af6a" stop-opacity="0.16"/><stop offset="1" stop-color="#d4af6a" stop-opacity="0"/>
    </radialGradient>
    <linearGradient id="zodiacsignsasworldcup2026teams1en-rule" x1="0" y1="0" x2="1" y2="0">
      <stop offset="0" stop-color="#d4af6a" stop-opacity="0"/><stop offset="0.5" stop-color="#d4af6a" stop-opacity="0.6"/><stop offset="1" stop-color="#d4af6a" stop-opacity="0"/>
    </linearGradient>
  </defs>
  <rect x="1.5" y="1.5" width="757" height="611" rx="22" fill="url(#zodiacsignsasworldcup2026teams1en-panel)"/>
  <ellipse cx="198" cy="147" rx="380" ry="209" fill="url(#zodiacsignsasworldcup2026teams1en-neb1)"/>
  <ellipse cx="623" cy="491" rx="334" ry="196" fill="url(#zodiacsignsasworldcup2026teams1en-neb2)"/>
  <circle cx="219.8" cy="378.6" r="1.41" fill="#cfc8ea" opacity="0.35"/><circle cx="183.7" cy="148.3" r="1.30" fill="#cfc8ea" opacity="0.51"/><circle cx="435.9" cy="356.1" r="1.25" fill="#cfc8ea" opacity="0.34"/><circle cx="190.6" cy="270.6" r="0.85" fill="#cfc8ea" opacity="0.35"/><circle cx="344.3" cy="278.4" r="1.50" fill="#cfc8ea" opacity="0.17"/><circle cx="552.9" cy="47.0" r="1.32" fill="#cfc8ea" opacity="0.54"/><circle cx="458.8" cy="214.7" r="0.68" fill="#cfc8ea" opacity="0.14"/><circle cx="547.3" cy="532.1" r="1.40" fill="#cfc8ea" opacity="0.19"/><circle cx="695.2" cy="487.7" r="1.16" fill="#cfc8ea" opacity="0.29"/><circle cx="56.2" cy="434.8" r="0.97" fill="#cfc8ea" opacity="0.14"/><circle cx="276.1" cy="402.7" r="0.75" fill="#cfc8ea" opacity="0.25"/><circle cx="88.3" cy="15.3" r="0.67" fill="#cfc8ea" opacity="0.37"/><circle cx="416.1" cy="94.4" r="0.72" fill="#cfc8ea" opacity="0.47"/><circle cx="393.8" cy="551.6" r="1.18" fill="#cfc8ea" opacity="0.19"/><circle cx="609.4" cy="496.7" r="1.47" fill="#cfc8ea" opacity="0.40"/><circle cx="220.9" cy="384.7" r="1.60" fill="#cfc8ea" opacity="0.24"/><circle cx="372.0" cy="585.3" r="1.11" fill="#cfc8ea" opacity="0.44"/><circle cx="54.0" cy="139.0" r="1.03" fill="#cfc8ea" opacity="0.47"/><circle cx="371.3" cy="449.6" r="1.39" fill="#cfc8ea" opacity="0.44"/><circle cx="262.8" cy="589.2" r="0.86" fill="#cfc8ea" opacity="0.46"/><circle cx="393.3" cy="265.9" r="1.13" fill="#cfc8ea" opacity="0.18"/><circle cx="498.0" cy="373.1" r="1.59" fill="#cfc8ea" opacity="0.27"/><circle cx="47.2" cy="409.1" r="0.97" fill="#cfc8ea" opacity="0.42"/><circle cx="291.5" cy="66.7" r="1.68" fill="#cfc8ea" opacity="0.33"/><circle cx="183.6" cy="13.8" r="1.48" fill="#cfc8ea" opacity="0.20"/><circle cx="503.3" cy="281.1" r="0.83" fill="#cfc8ea" opacity="0.42"/><circle cx="465.7" cy="570.2" r="1.12" fill="#cfc8ea" opacity="0.39"/><circle cx="599.8" cy="497.8" r="1.30" fill="#cfc8ea" opacity="0.26"/><circle cx="268.3" cy="313.0" r="1.52" fill="#cfc8ea" opacity="0.15"/><circle cx="204.6" cy="118.2" r="1.17" fill="#cfc8ea" opacity="0.48"/><circle cx="419.3" cy="557.3" r="0.50" fill="#cfc8ea" opacity="0.41"/><circle cx="252.1" cy="252.9" r="1.17" fill="#cfc8ea" opacity="0.22"/><circle cx="281.5" cy="347.4" r="1.06" fill="#cfc8ea" opacity="0.16"/><circle cx="492.7" cy="320.6" r="1.63" fill="#cfc8ea" opacity="0.17"/><circle cx="462.3" cy="333.0" r="0.95" fill="#cfc8ea" opacity="0.20"/><circle cx="364.3" cy="19.1" r="1.40" fill="#cfc8ea" opacity="0.30"/><circle cx="169.5" cy="47.4" r="1.54" fill="#cfc8ea" opacity="0.46"/><circle cx="542.6" cy="135.7" r="0.72" fill="#cfc8ea" opacity="0.13"/><circle cx="521.6" cy="65.2" r="0.50" fill="#cfc8ea" opacity="0.46"/><circle cx="252.4" cy="475.5" r="0.75" fill="#cfc8ea" opacity="0.20"/><circle cx="502.6" cy="230.2" r="1.45" fill="#cfc8ea" opacity="0.24"/><circle cx="105.5" cy="181.1" r="0.88" fill="#cfc8ea" opacity="0.27"/><circle cx="487.2" cy="65.2" r="0.85" fill="#cfc8ea" opacity="0.24"/><circle cx="536.1" cy="176.8" r="0.63" fill="#cfc8ea" opacity="0.29"/><circle cx="483.4" cy="255.3" r="0.43" fill="#cfc8ea" opacity="0.28"/><circle cx="138.1" cy="347.5" r="0.94" fill="#cfc8ea" opacity="0.47"/><circle cx="619.1" cy="291.2" r="1.69" fill="#cfc8ea" opacity="0.39"/><circle cx="237.3" cy="181.1" r="1.42" fill="#cfc8ea" opacity="0.46"/><circle cx="514.0" cy="429.3" r="1.00" fill="#cfc8ea" opacity="0.31"/><circle cx="673.9" cy="542.2" r="0.56" fill="#cfc8ea" opacity="0.18"/><circle cx="264.5" cy="236.8" r="1.56" fill="#cfc8ea" opacity="0.45"/><circle cx="120.5" cy="275.1" r="0.64" fill="#cfc8ea" opacity="0.33"/><path d="M 184.79977484233677 24.5 L 185.3 27.2 L 188.0 27.74598621111363 L 185.3 28.3 L 184.79977484233677 31.0 L 184.3 28.3 L 181.6 27.74598621111363 L 184.3 27.2 Z" fill="#f6e6bf" opacity="0.5933981981128454"/><path d="M 274.5229334626347 147.9 L 275.0 150.2 L 277.2 150.58257481921464 L 275.0 151.0 L 274.5229334626347 153.3 L 274.1 151.0 L 271.8 150.58257481921464 L 274.1 150.2 Z" fill="#f6e6bf" opacity="0.6943867328576744"/><path d="M 616.1882244367152 516.8 L 616.6 519.2 L 619.0 519.6165831005201 L 616.6 520.1 L 616.1882244367152 522.4 L 615.7 520.1 L 613.4 519.6165831005201 L 615.7 519.2 Z" fill="#f6e6bf" opacity="0.5823299312964082"/><path d="M 743.3000175002962 462.9 L 743.8 465.5 L 746.3 465.9663167381659 L 743.8 466.4 L 743.3000175002962 469.0 L 742.8 466.4 L 740.3 465.9663167381659 L 742.8 465.5 Z" fill="#f6e6bf" opacity="0.6663126618601382"/><path d="M 147.7756157387048 406.2 L 148.2 408.5 L 150.6 408.9422277165577 L 148.2 409.4 L 147.7756157387048 411.7 L 147.3 409.4 L 145.0 408.9422277165577 L 147.3 408.5 Z" fill="#f6e6bf" opacity="0.6048578880727291"/><path d="M 88.3 15.3 L 393.8 551.6 L 465.7 570.2 L 169.5 47.4 L 105.5 181.1" fill="none" stroke="#d4af6a" stroke-width="0.6" opacity="0.12"/>
  <rect x="1.5" y="1.5" width="757" height="611" rx="22" fill="none" stroke="#d4af6a" stroke-opacity="0.34" stroke-width="1.2"/>
  <rect x="7" y="7" width="746" height="600" rx="17" fill="none" stroke="#d4af6a" stroke-opacity="0.12" stroke-width="0.8"/>
  <path d="M 16 12.8 L 16.5 15.5 L 19.2 16 L 16.5 16.5 L 16 19.2 L 15.5 16.5 L 12.8 16 L 15.5 15.5 Z" fill="#d4af6a" opacity="0.4"/><path d="M 744 12.8 L 744.5 15.5 L 747.2 16 L 744.5 16.5 L 744 19.2 L 743.5 16.5 L 740.8 16 L 743.5 15.5 Z" fill="#d4af6a" opacity="0.4"/><path d="M 16 594.8 L 16.5 597.5 L 19.2 598 L 16.5 598.5 L 16 601.2 L 15.5 598.5 L 12.8 598 L 15.5 597.5 Z" fill="#d4af6a" opacity="0.4"/><path d="M 744 594.8 L 744.5 597.5 L 747.2 598 L 744.5 598.5 L 744 601.2 L 743.5 598.5 L 740.8 598 L 743.5 597.5 Z" fill="#d4af6a" opacity="0.4"/>
  <text x="380" y="46" text-anchor="middle" font-family="Georgia, 'Times New Roman', serif" font-size="22" letter-spacing="0.4" fill="#efeaf8">Fire, Earth and Water Playing Styles</text>
  <line x1="230" y1="67" x2="368" y2="67" stroke="url(#zodiacsignsasworldcup2026teams1en-rule)" stroke-width="1"/>
  <line x1="392" y1="67" x2="530" y2="67" stroke="url(#zodiacsignsasworldcup2026teams1en-rule)" stroke-width="1"/>
  <path d="M 380 62.0 L 380.8 66.2 L 385.0 67 L 380.8 67.8 L 380 72.0 L 379.2 67.8 L 375.0 67 L 379.2 66.2 Z" fill="#d4af6a" opacity="0.85"/>

  <rect x="46" y="99" width="668" height="143.0" rx="14" fill="#1d1740" fill-opacity="0.5" stroke="#d4af6a" stroke-opacity="0.22" stroke-width="0.9"/>
  <rect x="46" y="99" width="668" height="3.5" rx="1.8" fill="#d4af6a" fill-opacity="0.6"/>
  <path d="M 380 97.1 L 380.5 100.0 L 383.4 100.5 L 380.5 101.0 L 380 103.9 L 379.5 101.0 L 376.6 100.5 L 379.5 100.0 Z" fill="#f6e6bf" opacity="0.7"/>
  <text x="380" y="128.0" text-anchor="middle" font-family="Georgia, 'Times New Roman', serif" font-size="21" font-weight="700" letter-spacing="0.3" fill="#f3effb">Fire Signs</text>
  <path d="M 70 157.8 L 70.5 160.5 L 73.2 161 L 70.5 161.5 L 70 164.2 L 69.5 161.5 L 66.8 161 L 69.5 160.5 Z" fill="#d4af6a" opacity="0.8"/>
  <text x="84" y="166.0" font-family="Helvetica, Arial, sans-serif" font-size="16" fill="#a59cc0">Aries · Leo · Sagittarius</text>
  <path d="M 70 186.8 L 70.5 189.5 L 73.2 190 L 70.5 190.5 L 70 193.2 L 69.5 190.5 L 66.8 190 L 69.5 189.5 Z" fill="#d4af6a" opacity="0.8"/>
  <text x="84" y="195.0" font-family="Helvetica, Arial, sans-serif" font-size="16" fill="#a59cc0">Attack, risk, flair</text>
  <path d="M 70 215.8 L 70.5 218.5 L 73.2 219 L 70.5 219.5 L 70 222.2 L 69.5 219.5 L 66.8 219 L 69.5 218.5 Z" fill="#d4af6a" opacity="0.8"/>
  <text x="84" y="224.0" font-family="Helvetica, Arial, sans-serif" font-size="16" fill="#a59cc0">Chases the opening, entertains</text>
  <path d="M 380 250.5 L 380.7 254.3 L 384.5 255 L 380.7 255.7 L 380 259.5 L 379.3 255.7 L 375.5 255 L 379.3 254.3 Z" fill="#d4af6a" opacity="0.65"/>
  <rect x="46" y="268" width="668" height="143.0" rx="14" fill="#1d1740" fill-opacity="0.5" stroke="#d4af6a" stroke-opacity="0.22" stroke-width="0.9"/>
  <rect x="46" y="268" width="668" height="3.5" rx="1.8" fill="#d4af6a" fill-opacity="0.6"/>
  <path d="M 380 266.1 L 380.5 269.0 L 383.4 269.5 L 380.5 270.0 L 380 272.9 L 379.5 270.0 L 376.6 269.5 L 379.5 269.0 Z" fill="#f6e6bf" opacity="0.7"/>
  <text x="380" y="297.0" text-anchor="middle" font-family="Georgia, 'Times New Roman', serif" font-size="21" font-weight="700" letter-spacing="0.3" fill="#f3effb">Earth Signs</text>
  <path d="M 70 326.8 L 70.5 329.5 L 73.2 330 L 70.5 330.5 L 70 333.2 L 69.5 330.5 L 66.8 330 L 69.5 329.5 Z" fill="#d4af6a" opacity="0.8"/>
  <text x="84" y="335.0" font-family="Helvetica, Arial, sans-serif" font-size="16" fill="#a59cc0">Taurus · Virgo · Capricorn</text>
  <path d="M 70 355.8 L 70.5 358.5 L 73.2 359 L 70.5 359.5 L 70 362.2 L 69.5 359.5 L 66.8 359 L 69.5 358.5 Z" fill="#d4af6a" opacity="0.8"/>
  <text x="84" y="364.0" font-family="Helvetica, Arial, sans-serif" font-size="16" fill="#a59cc0">Structure, stamina</text>
  <path d="M 70 384.8 L 70.5 387.5 L 73.2 388 L 70.5 388.5 L 70 391.2 L 69.5 388.5 L 66.8 388 L 69.5 387.5 Z" fill="#d4af6a" opacity="0.8"/>
  <text x="84" y="393.0" font-family="Helvetica, Arial, sans-serif" font-size="16" fill="#a59cc0">Holds shape, grinds results</text>
  <path d="M 380 419.5 L 380.7 423.3 L 384.5 424 L 380.7 424.7 L 380 428.5 L 379.3 424.7 L 375.5 424 L 379.3 423.3 Z" fill="#d4af6a" opacity="0.65"/>
  <rect x="46" y="437" width="668" height="143.0" rx="14" fill="#1d1740" fill-opacity="0.5" stroke="#d4af6a" stroke-opacity="0.22" stroke-width="0.9"/>
  <rect x="46" y="437" width="668" height="3.5" rx="1.8" fill="#d4af6a" fill-opacity="0.6"/>
  <path d="M 380 435.1 L 380.5 438.0 L 383.4 438.5 L 380.5 439.0 L 380 441.9 L 379.5 439.0 L 376.6 438.5 L 379.5 438.0 Z" fill="#f6e6bf" opacity="0.7"/>
  <text x="380" y="466.0" text-anchor="middle" font-family="Georgia, 'Times New Roman', serif" font-size="21" font-weight="700" letter-spacing="0.3" fill="#f3effb">Water Signs</text>
  <path d="M 70 495.8 L 70.5 498.5 L 73.2 499 L 70.5 499.5 L 70 502.2 L 69.5 499.5 L 66.8 499 L 69.5 498.5 Z" fill="#d4af6a" opacity="0.8"/>
  <text x="84" y="504.0" font-family="Helvetica, Arial, sans-serif" font-size="16" fill="#a59cc0">Cancer · Scorpio · Pisces</text>
  <path d="M 70 524.8 L 70.5 527.5 L 73.2 528 L 70.5 528.5 L 70 531.2 L 69.5 528.5 L 66.8 528 L 69.5 527.5 Z" fill="#d4af6a" opacity="0.8"/>
  <text x="84" y="533.0" font-family="Helvetica, Arial, sans-serif" font-size="16" fill="#a59cc0">Intuition, flow</text>
  <path d="M 70 553.8 L 70.5 556.5 L 73.2 557 L 70.5 557.5 L 70 560.2 L 69.5 557.5 L 66.8 557 L 69.5 556.5 Z" fill="#d4af6a" opacity="0.8"/>
  <text x="84" y="562.0" font-family="Helvetica, Arial, sans-serif" font-size="16" fill="#a59cc0">Reads the moment, shifts with feeling</text>
  <path d="M 202.22749999999988 585.4 L 202.6 587.6 L 204.8 588 L 202.6 588.4 L 202.22749999999988 590.6 L 201.8 588.4 L 199.6 588 L 201.8 587.6 Z" fill="#d4af6a" opacity="0.5"/>
  <text x="380" y="592" text-anchor="middle" font-family="Georgia, 'Times New Roman', serif" font-style="italic" font-size="11.5" fill="#7b738f">A self-reflection framework — tendencies, not predictions</text>
  <path d="M 557.7725000000002 585.4 L 558.2 587.6 L 560.4 588 L 558.2 588.4 L 557.7725000000002 590.6 L 557.4 588.4 L 555.2 588 L 557.4 587.6 Z" fill="#d4af6a" opacity="0.5"/>
</svg>
