<svg xmlns="http://www.w3.org/2000/svg" viewBox="0 0 760 505" role="img" aria-label="5 Steps to Read Your Sign as a Playing Style">
  <defs>
    <linearGradient id="zodiacsignsasworldcup2026teams0en-panel" x1="0" y1="0" x2="0.4" y2="1">
      <stop offset="0" stop-color="#1a1433"/><stop offset="0.55" stop-color="#120e26"/><stop offset="1" stop-color="#09081a"/>
    </linearGradient>
    <radialGradient id="zodiacsignsasworldcup2026teams0en-foil" cx="0.42" cy="0.34" r="0.75">
      <stop offset="0" stop-color="#fbf0d2"/><stop offset="0.5" stop-color="#e8c882"/><stop offset="1" stop-color="#b8923f"/>
    </radialGradient>
    <radialGradient id="zodiacsignsasworldcup2026teams0en-glow" cx="0.5" cy="0.5" r="0.5">
      <stop offset="0" stop-color="#f6e6bf"/><stop offset="1" stop-color="#f6e6bf" stop-opacity="0"/>
    </radialGradient>
    <radialGradient id="zodiacsignsasworldcup2026teams0en-neb1" cx="0.5" cy="0.5" r="0.5">
      <stop offset="0" stop-color="#6f4bb0" stop-opacity="0.28"/><stop offset="1" stop-color="#6f4bb0" stop-opacity="0"/>
    </radialGradient>
    <radialGradient id="zodiacsignsasworldcup2026teams0en-neb2" cx="0.5" cy="0.5" r="0.5">
      <stop offset="0" stop-color="#d4af6a" stop-opacity="0.16"/><stop offset="1" stop-color="#d4af6a" stop-opacity="0"/>
    </radialGradient>
    <linearGradient id="zodiacsignsasworldcup2026teams0en-rule" x1="0" y1="0" x2="1" y2="0">
      <stop offset="0" stop-color="#d4af6a" stop-opacity="0"/><stop offset="0.5" stop-color="#d4af6a" stop-opacity="0.6"/><stop offset="1" stop-color="#d4af6a" stop-opacity="0"/>
    </linearGradient>
  </defs>
  <rect x="1.5" y="1.5" width="757" height="502" rx="22" fill="url(#zodiacsignsasworldcup2026teams0en-panel)"/>
  <ellipse cx="198" cy="121" rx="380" ry="172" fill="url(#zodiacsignsasworldcup2026teams0en-neb1)"/>
  <ellipse cx="623" cy="404" rx="334" ry="162" fill="url(#zodiacsignsasworldcup2026teams0en-neb2)"/>
  <circle cx="679.5" cy="142.6" r="0.77" fill="#cfc8ea" opacity="0.32"/><circle cx="367.7" cy="304.8" r="0.99" fill="#cfc8ea" opacity="0.47"/><circle cx="295.3" cy="300.9" r="1.17" fill="#cfc8ea" opacity="0.43"/><circle cx="244.4" cy="215.4" r="0.77" fill="#cfc8ea" opacity="0.39"/><circle cx="401.5" cy="84.8" r="0.81" fill="#cfc8ea" opacity="0.54"/><circle cx="356.2" cy="190.9" r="1.20" fill="#cfc8ea" opacity="0.46"/><circle cx="733.1" cy="19.0" r="0.78" fill="#cfc8ea" opacity="0.27"/><circle cx="696.2" cy="40.7" r="1.05" fill="#cfc8ea" opacity="0.35"/><circle cx="721.4" cy="57.5" r="0.58" fill="#cfc8ea" opacity="0.19"/><circle cx="268.5" cy="222.4" r="1.24" fill="#cfc8ea" opacity="0.40"/><circle cx="407.0" cy="208.9" r="1.38" fill="#cfc8ea" opacity="0.24"/><circle cx="488.4" cy="22.8" r="1.58" fill="#cfc8ea" opacity="0.18"/><circle cx="392.5" cy="385.4" r="1.26" fill="#cfc8ea" opacity="0.41"/><circle cx="241.9" cy="470.1" r="1.21" fill="#cfc8ea" opacity="0.35"/><circle cx="100.7" cy="200.1" r="0.86" fill="#cfc8ea" opacity="0.17"/><circle cx="93.4" cy="232.4" r="0.67" fill="#cfc8ea" opacity="0.41"/><circle cx="236.3" cy="191.7" r="1.59" fill="#cfc8ea" opacity="0.46"/><circle cx="343.8" cy="366.3" r="0.74" fill="#cfc8ea" opacity="0.34"/><circle cx="58.3" cy="426.0" r="0.46" fill="#cfc8ea" opacity="0.37"/><circle cx="106.5" cy="262.4" r="0.43" fill="#cfc8ea" opacity="0.35"/><circle cx="515.2" cy="370.6" r="0.47" fill="#cfc8ea" opacity="0.35"/><circle cx="638.4" cy="345.2" r="0.42" fill="#cfc8ea" opacity="0.50"/><circle cx="91.0" cy="129.6" r="1.44" fill="#cfc8ea" opacity="0.35"/><circle cx="228.3" cy="188.3" r="0.98" fill="#cfc8ea" opacity="0.49"/><circle cx="234.3" cy="108.7" r="1.19" fill="#cfc8ea" opacity="0.15"/><circle cx="410.6" cy="395.9" r="0.91" fill="#cfc8ea" opacity="0.47"/><circle cx="630.6" cy="465.2" r="0.98" fill="#cfc8ea" opacity="0.16"/><circle cx="168.8" cy="294.1" r="1.39" fill="#cfc8ea" opacity="0.51"/><circle cx="685.2" cy="339.6" r="1.09" fill="#cfc8ea" opacity="0.20"/><circle cx="281.0" cy="347.4" r="0.95" fill="#cfc8ea" opacity="0.21"/><circle cx="508.9" cy="229.1" r="1.34" fill="#cfc8ea" opacity="0.34"/><circle cx="45.6" cy="113.4" r="0.49" fill="#cfc8ea" opacity="0.31"/><circle cx="270.2" cy="221.0" r="0.71" fill="#cfc8ea" opacity="0.22"/><circle cx="96.5" cy="87.3" r="1.69" fill="#cfc8ea" opacity="0.42"/><circle cx="674.6" cy="427.4" r="1.30" fill="#cfc8ea" opacity="0.41"/><circle cx="242.5" cy="339.8" r="0.45" fill="#cfc8ea" opacity="0.29"/><circle cx="214.7" cy="259.3" r="1.38" fill="#cfc8ea" opacity="0.45"/><circle cx="380.9" cy="445.2" r="1.04" fill="#cfc8ea" opacity="0.44"/><circle cx="428.0" cy="345.7" r="0.44" fill="#cfc8ea" opacity="0.13"/><circle cx="141.9" cy="218.7" r="0.44" fill="#cfc8ea" opacity="0.14"/><circle cx="480.3" cy="336.4" r="1.18" fill="#cfc8ea" opacity="0.42"/><circle cx="594.3" cy="296.7" r="1.62" fill="#cfc8ea" opacity="0.30"/><circle cx="167.0" cy="126.7" r="1.19" fill="#cfc8ea" opacity="0.34"/><path d="M 479.09539197944105 465.6 L 479.5 467.8 L 481.7 468.1931513911113 L 479.5 468.6 L 479.09539197944105 470.8 L 478.7 468.6 L 476.5 468.1931513911113 L 478.7 467.8 Z" fill="#f6e6bf" opacity="0.5272528237197548"/><path d="M 203.39330728165805 456.8 L 203.9 459.5 L 206.6 459.9822141081095 L 203.9 460.5 L 203.39330728165805 463.2 L 202.9 460.5 L 200.2 459.9822141081095 L 202.9 459.5 Z" fill="#f6e6bf" opacity="0.5341002901550382"/><path d="M 637.9321153517812 424.2 L 638.4 426.5 L 640.6 426.8955296361819 L 638.4 427.3 L 637.9321153517812 429.6 L 637.5 427.3 L 635.2 426.8955296361819 L 637.5 426.5 Z" fill="#f6e6bf" opacity="0.7924921710509807"/><path d="M 505.79603516869247 129.9 L 506.3 132.3 L 508.7 132.78915251977742 L 506.3 133.3 L 505.79603516869247 135.7 L 505.3 133.3 L 502.9 132.78915251977742 L 505.3 132.3 Z" fill="#f6e6bf" opacity="0.7145950380247086"/><path d="M 686.9453538265079 235.9 L 687.4 238.3 L 689.7 238.69815723132342 L 687.4 239.1 L 686.9453538265079 241.5 L 686.5 239.1 L 684.2 238.69815723132342 L 686.5 238.3 Z" fill="#f6e6bf" opacity="0.7078784259501845"/><path d="M 401.5 84.8 L 696.2 40.7 L 100.7 200.1 L 343.8 366.3 L 106.5 262.4" fill="none" stroke="#d4af6a" stroke-width="0.6" opacity="0.12"/>
  <rect x="1.5" y="1.5" width="757" height="502" rx="22" fill="none" stroke="#d4af6a" stroke-opacity="0.34" stroke-width="1.2"/>
  <rect x="7" y="7" width="746" height="491" rx="17" fill="none" stroke="#d4af6a" stroke-opacity="0.12" stroke-width="0.8"/>
  <path d="M 16 12.8 L 16.5 15.5 L 19.2 16 L 16.5 16.5 L 16 19.2 L 15.5 16.5 L 12.8 16 L 15.5 15.5 Z" fill="#d4af6a" opacity="0.4"/><path d="M 744 12.8 L 744.5 15.5 L 747.2 16 L 744.5 16.5 L 744 19.2 L 743.5 16.5 L 740.8 16 L 743.5 15.5 Z" fill="#d4af6a" opacity="0.4"/><path d="M 16 485.8 L 16.5 488.5 L 19.2 489 L 16.5 489.5 L 16 492.2 L 15.5 489.5 L 12.8 489 L 15.5 488.5 Z" fill="#d4af6a" opacity="0.4"/><path d="M 744 485.8 L 744.5 488.5 L 747.2 489 L 744.5 489.5 L 744 492.2 L 743.5 489.5 L 740.8 489 L 743.5 488.5 Z" fill="#d4af6a" opacity="0.4"/>
  <text x="380" y="46" text-anchor="middle" font-family="Georgia, 'Times New Roman', serif" font-size="22" letter-spacing="0.4" fill="#efeaf8">5 Steps to Read Your Sign as a Playing Style</text>
  <line x1="230" y1="67" x2="368" y2="67" stroke="url(#zodiacsignsasworldcup2026teams0en-rule)" stroke-width="1"/>
  <line x1="392" y1="67" x2="530" y2="67" stroke="url(#zodiacsignsasworldcup2026teams0en-rule)" stroke-width="1"/>
  <path d="M 380 62.0 L 380.8 66.2 L 385.0 67 L 380.8 67.8 L 380 72.0 L 379.2 67.8 L 375.0 67 L 379.2 66.2 Z" fill="#d4af6a" opacity="0.85"/>
  <line x1="76" y1="121" x2="76" y2="415" stroke="#d4af6a" stroke-opacity="0.28" stroke-width="1.5"/>
  <circle cx="76" cy="121" r="20.0" fill="url(#zodiacsignsasworldcup2026teams0en-glow)" opacity="0.5"/>
    <circle cx="76" cy="121" r="15" fill="url(#zodiacsignsasworldcup2026teams0en-foil)" stroke="#f6e6bf" stroke-opacity="0.5" stroke-width="0.8"/>
    <circle cx="76" cy="116.8" r="9.0" fill="#ffffff" opacity="0.10"/>
    <text x="76" y="125.5" text-anchor="middle" font-family="Georgia, 'Times New Roman', serif" font-size="13" font-weight="700" fill="#3a2c12">1</text>
  <text x="116" y="117.0" font-family="Georgia, 'Times New Roman', serif" font-size="22" letter-spacing="0.3" fill="#f3effb">Find Your Element</text>
  <text x="116" y="139.0" font-family="Helvetica, Arial, sans-serif" font-size="15.5" fill="#a59cc0">Identify your Sun sign and its element — fire, earth, air, or water</text>
  <circle cx="76" cy="181" r="20.0" fill="url(#zodiacsignsasworldcup2026teams0en-glow)" opacity="0.5"/>
    <circle cx="76" cy="181" r="15" fill="url(#zodiacsignsasworldcup2026teams0en-foil)" stroke="#f6e6bf" stroke-opacity="0.5" stroke-width="0.8"/>
    <circle cx="76" cy="176.8" r="9.0" fill="#ffffff" opacity="0.10"/>
    <text x="76" y="185.5" text-anchor="middle" font-family="Georgia, 'Times New Roman', serif" font-size="13" font-weight="700" fill="#3a2c12">2</text>
  <text x="116" y="177.0" font-family="Georgia, 'Times New Roman', serif" font-size="22" letter-spacing="0.3" fill="#f3effb">Read the Element as a Style</text>
  <text x="116" y="199.0" font-family="Helvetica, Arial, sans-serif" font-size="15.5" fill="#a59cc0">Fire = attack and flair, earth = structure and stamina, air = passing and</text>
  <text x="116" y="217.0" font-family="Helvetica, Arial, sans-serif" font-size="15.5" fill="#a59cc0">tactics, water = intuition and flow</text>
  <circle cx="76" cy="259" r="20.0" fill="url(#zodiacsignsasworldcup2026teams0en-glow)" opacity="0.5"/>
    <circle cx="76" cy="259" r="15" fill="url(#zodiacsignsasworldcup2026teams0en-foil)" stroke="#f6e6bf" stroke-opacity="0.5" stroke-width="0.8"/>
    <circle cx="76" cy="254.8" r="9.0" fill="#ffffff" opacity="0.10"/>
    <text x="76" y="263.5" text-anchor="middle" font-family="Georgia, 'Times New Roman', serif" font-size="13" font-weight="700" fill="#3a2c12">3</text>
  <text x="116" y="255.0" font-family="Georgia, 'Times New Roman', serif" font-size="22" letter-spacing="0.3" fill="#f3effb">Add Your Modality</text>
  <text x="116" y="277.0" font-family="Helvetica, Arial, sans-serif" font-size="15.5" fill="#a59cc0">Cardinal signs start moves, fixed signs hold shape, mutable signs adapt</text>
  <text x="116" y="295.0" font-family="Helvetica, Arial, sans-serif" font-size="15.5" fill="#a59cc0">mid-play</text>
  <circle cx="76" cy="337" r="20.0" fill="url(#zodiacsignsasworldcup2026teams0en-glow)" opacity="0.5"/>
    <circle cx="76" cy="337" r="15" fill="url(#zodiacsignsasworldcup2026teams0en-foil)" stroke="#f6e6bf" stroke-opacity="0.5" stroke-width="0.8"/>
    <circle cx="76" cy="332.8" r="9.0" fill="#ffffff" opacity="0.10"/>
    <text x="76" y="341.5" text-anchor="middle" font-family="Georgia, 'Times New Roman', serif" font-size="13" font-weight="700" fill="#3a2c12">4</text>
  <text x="116" y="333.0" font-family="Georgia, 'Times New Roman', serif" font-size="22" letter-spacing="0.3" fill="#f3effb">Match to a Style, Not a Nation</text>
  <text x="116" y="355.0" font-family="Helvetica, Arial, sans-serif" font-size="15.5" fill="#a59cc0">Match yourself to a style of team rather than a forecast for any particular</text>
  <text x="116" y="373.0" font-family="Helvetica, Arial, sans-serif" font-size="15.5" fill="#a59cc0">nation</text>
  <circle cx="76" cy="415" r="20.0" fill="url(#zodiacsignsasworldcup2026teams0en-glow)" opacity="0.5"/>
    <circle cx="76" cy="415" r="15" fill="url(#zodiacsignsasworldcup2026teams0en-foil)" stroke="#f6e6bf" stroke-opacity="0.5" stroke-width="0.8"/>
    <circle cx="76" cy="410.8" r="9.0" fill="#ffffff" opacity="0.10"/>
    <text x="76" y="419.5" text-anchor="middle" font-family="Georgia, 'Times New Roman', serif" font-size="13" font-weight="700" fill="#3a2c12">5</text>
  <text x="116" y="411.0" font-family="Georgia, 'Times New Roman', serif" font-size="22" letter-spacing="0.3" fill="#f3effb">Keep It Light</text>
  <text x="116" y="433.0" font-family="Helvetica, Arial, sans-serif" font-size="15.5" fill="#a59cc0">These zodiac signs as World Cup 2026 teams are a metaphor for temperament, not a</text>
  <text x="116" y="451.0" font-family="Helvetica, Arial, sans-serif" font-size="15.5" fill="#a59cc0">scouting report</text>
  <path d="M 202.22749999999988 476.4 L 202.6 478.6 L 204.8 479 L 202.6 479.4 L 202.22749999999988 481.6 L 201.8 479.4 L 199.6 479 L 201.8 478.6 Z" fill="#d4af6a" opacity="0.5"/>
  <text x="380" y="483" text-anchor="middle" font-family="Georgia, 'Times New Roman', serif" font-style="italic" font-size="11.5" fill="#7b738f">A self-reflection framework — tendencies, not predictions</text>
  <path d="M 557.7725000000002 476.4 L 558.2 478.6 L 560.4 479 L 558.2 479.4 L 557.7725000000002 481.6 L 557.4 479.4 L 555.2 479 L 557.4 478.6 Z" fill="#d4af6a" opacity="0.5"/>
</svg>
